<?xml version="1.0" encoding="utf-8"?>
<!-- Generator: Adobe Illustrator 16.0.0, SVG Export Plug-In . SVG Version: 6.00 Build 0)  -->
<!DOCTYPE svg PUBLIC "-//W3C//DTD SVG 1.1//EN" "http://www.w3.org/Graphics/SVG/1.1/DTD/svg11.dtd">
<svg version="1.1" xmlns="http://www.w3.org/2000/svg" xmlns:xlink="http://www.w3.org/1999/xlink" x="0px" y="0px" width="500px"
	 height="500px" viewBox="0 0 500 500" enable-background="new 0 0 500 500" xml:space="preserve">
<g id="Layer_1">
	<g id="Layer_2_1_">
		<path fill="#F25C28" d="M250.473,81.081c-93.449,0-168.919,75.706-168.919,168.919c0,93.21,75.708,168.919,168.919,168.919
			c93.213,0,168.92-75.709,168.92-168.919C419.393,156.787,343.686,81.081,250.473,81.081z M250.473,339.188
			c-49.209,0-89.19-39.979-89.19-89.188c0-49.209,39.981-89.192,89.19-89.192c49.213,0,89.191,39.983,89.191,89.192
			C339.426,299.21,299.686,339.188,250.473,339.188z"/>
		<path fill="#F27A27" d="M230.603,97.878c18.214,0,80.198-3.783,129.882,45.896c1.652,1.894,36.43,15.142,10.172-6.859
			c-26.025-22.004-58.908-56.545-144.076-51.339C220.666,86.996,215.932,99.06,230.603,97.878"/>
		<path fill="#FCAF3B" d="M324.76,146.141c-16.09-10.408-39.033-21.765-62.695-22.711c-7.094,0-4.26,10.171,0,10.408
			c4.258,0,40.455,7.807,55.602,21.057C319.555,156.315,329.016,155.605,324.76,146.141z"/>
		<path fill="#FCAF3B" d="M147.088,171.692c0,0-10.883,14.431-13.486,21.529c-2.602,7.098,6.624,7.808,8.043,5.914
			c1.42-1.889,9.938-17.27,13.486-20.108C158.682,176.187,152.056,166.25,147.088,171.692z"/>
		<path fill="#FCAF3B" d="M126.504,208.597c-1.654,4.733-3.312,10.646-4.023,14.903c-0.708,4.26,8.519,7.099,10.175,1.893
			c1.657-5.201,3.077-12.536,3.784-13.246C137.625,206.233,129.108,199.843,126.504,208.597z"/>
		<path fill="#FCAF3B" d="M367.344,271.056c-1.184,10.175-6.859,28.154-8.988,31.938c-1.895,3.787,3.547,12.777,10.168,4.258
			c2.84-7.807,7.814-19.634,9.941-34.774C379.172,266.799,369.947,258.519,367.344,271.056z"/>
		<g>
			<path fill="#FFFFFF" d="M135.733,119.643c13.248-10.646,55.359-38.798,86.117-39.273c4.494,0,4.73,3.787,5.205,5.207
				c0.47,1.42,22.47,73.577,22.47,73.577s4.497,8.516-8.278,10.173c-12.777,1.656-33.832,7.806-51.578,25.787
				c-1.418,1.183-4.493,3.787-8.516,0.474c-4.019-3.312-43.765-64.348-45.659-66.951
				C133.365,125.796,133.839,121.063,135.733,119.643z"/>
			<path fill="#E7E7E9" d="M188.017,196.06c0,0-4.495,3.311-8.518-2.129c-4.023-5.206-41.875-62.693-43.766-65.77
				c-1.894-3.076,0-6.151,1.892-7.569c4.496,7.095,41.165,62.22,44.005,65.059c2.838,2.837,5.913,2.367,8.989,0
				c2.841-2.366,30.519-27.917,57.015-26.498c2.603,0.236,1.892,1.892,1.892,4.022c0,2.13-1.892,4.731-6.623,4.968
				C235.332,167.434,201.264,177.606,188.017,196.06"/>
			<path fill="#FFFFFF" d="M169.326,97.64c-4.023-9.936-12.302-21.766-5.205-25.787c6.86-4.02,13.959,12.541,16.326,20.108
				C178.55,92.911,173.349,98.588,169.326,97.64z"/>
		</g>
		<g>
			<path fill="#FFFFFF" d="M421.283,219.955c-3.547-16.561-18.215-65.061-41.635-84.933c-3.555-2.839-6.15-0.238-7.334,0.711
				c-1.184,0.944-63.877,42.819-63.877,42.819s-8.994,3.786,0,13.011c8.986,9.466,21.289,27.445,23.654,52.758
				c0.238,1.893,1.184,5.679,6.391,5.679c5.203,0,74.523-22.24,77.596-22.948C419.156,226.105,421.996,222.319,421.283,219.955z"/>
			<path fill="#E7E7E9" d="M332.563,245.977c0,0,1.424,5.443,7.813,3.785c6.387-1.654,72.154-22.002,75.471-23.183
				c3.311-1.187,3.785-4.97,3.311-7.097c-7.807,2.603-71.211,22-75.232,22.472c-4.021,0.477-6.154-1.893-6.863-5.678
				c-0.707-3.783-5.912-40.927-27.441-56.542c-2.131-1.417-2.838,0.237-4.021,1.894s-1.658,4.732,2.127,8.043
				C313.875,193.931,333.986,223.266,332.563,245.977"/>
			<path fill="#FFFFFF" d="M402.832,170.271c9.936-4.021,21.766-12.302,25.789-5.441c4.018,6.861-12.543,13.958-20.111,16.325
				C407.799,179.498,402.123,174.292,402.832,170.271z"/>
		</g>
		<g>
			<path fill="#FFFFFF" d="M364.268,380.354c-13.248,10.649-55.359,38.801-86.111,39.276c-4.499,0-4.734-3.789-5.206-5.206
				c-0.475-1.42-22.478-73.58-22.478-73.58s-4.498-8.515,8.278-10.17c12.776-1.657,33.835-7.806,51.575-25.786
				c1.422-1.184,4.5-3.787,8.521-0.474c4.021,3.31,43.764,64.347,45.654,66.952C366.398,374.204,366.16,378.939,364.268,380.354z"/>
			<path fill="#E7E7E9" d="M311.986,303.939c0,0,4.496-3.31,8.514,2.131c4.023,5.205,41.877,62.691,43.768,65.769
				c1.893,3.077,0,6.15-1.891,7.57c-4.496-7.101-41.164-62.221-44.004-65.059c-2.84-2.841-5.914-2.367-8.992,0
				c-2.84,2.363-30.518,27.917-57.017,26.494c-2.598-0.232-1.892-1.888-1.892-4.021c0-2.128,1.892-4.73,6.625-4.963
				C264.666,332.566,298.736,322.395,311.986,303.939"/>
			<path fill="#FFFFFF" d="M329.727,402.357c4.021,9.936,12.305,21.765,5.207,25.788c-6.863,4.024-13.961-12.537-16.328-20.107
				C320.5,407.088,325.705,401.647,329.727,402.357z"/>
		</g>
		<g>
			<path fill="#FFFFFF" d="M78.479,280.047c3.548,16.561,18.218,65.061,41.639,84.934c3.546,2.839,6.15,0.233,7.334-0.712
				c1.184-0.947,63.874-42.823,63.874-42.823s8.992-3.783,0-13.013c-8.987-9.462-21.289-27.439-23.655-52.753
				c-0.236-1.894-1.184-5.68-6.387-5.68c-5.205,0-74.524,22.239-77.6,22.947C80.608,273.896,78.005,277.682,78.479,280.047z"/>
			<path fill="#E7E7E9" d="M167.434,254.023c0,0-1.42-5.443-7.808-3.79c-6.387,1.658-72.157,22.005-75.471,23.185
				c-3.308,1.42-3.784,4.971-3.308,7.102c7.803-2.604,71.208-22.002,75.23-22.478c4.022-0.473,6.15,1.893,6.861,5.678
				c0.71,3.548,5.915,40.929,27.442,56.545c2.128,1.419,2.84-0.236,4.022-1.894c1.184-1.658,1.653-4.731-2.127-8.044
				C185.887,306.07,166.014,276.734,167.434,254.023"/>
			<path fill="#FFFFFF" d="M97.169,331.146c-9.937,4.021-21.766,12.306-25.789,5.207c-4.02-6.862,12.541-13.959,20.11-16.324
				C92.438,321.919,98.114,327.126,97.169,331.146z"/>
		</g>
	</g>
	<circle opacity="0.5" fill="#99C8CF" enable-background="new    " cx="250" cy="250" r="115.411"/>
	
		<image display="none" overflow="visible" width="1067" height="1067" xlink:href="../events/Sport icons-01.png"  transform="matrix(0.2249 0 0 0.2249 130.0024 130.0029)">
	</image>
</g>
<g id="Layer_2">
	<path fill-rule="evenodd" clip-rule="evenodd" d="M266.46,230.567c0.36-1.605,0.569-3.118,1.045-4.541
		c1.822-5.458,5.8-8.745,11.063-10.635c1.481-0.532,3.052,0.276,3.561,1.671c0.531,1.458-0.194,2.904-1.656,3.672
		c-1.667,0.875-3.425,1.691-4.851,2.883c-2.475,2.068-3.436,4.926-3.306,8.134c0.011,0.271,0.153,0.644,0.36,0.785
		c2.45,1.669,3.694,4.137,4.544,6.847c0.254,0.81,0.663,1.11,1.485,0.998c0.474-0.064,0.965-0.018,1.447-0.01
		c1.708,0.027,2.909,1.098,2.985,2.657c0.079,1.637-1.014,2.81-2.767,2.972c-0.134,0.012-0.268,0.04-0.556,0.084
		c0.536,1.389,1.029,2.737,1.592,4.055c0.081,0.188,0.494,0.32,0.759,0.329c1.068,0.038,2.14-0.005,3.209,0.022
		c1.683,0.042,2.847,1.181,2.87,2.764c0.022,1.563-1.133,2.768-2.784,2.873c-0.513,0.033-1.03,0.005-1.545,0.005
		c0.024,1.945,0.846,3.146,2.609,3.519c4.753,1.003,9.524,1.914,14.284,2.886c3.21,0.655,6.201,1.813,8.838,3.828
		c4.084,3.121,6.755,9.652,4.526,15.209c-1.076,2.682-1.728,5.567-3.06,8.105c-3.485,6.643-9.267,10.221-16.574,11.35
		c-2.029,0.313-4.125,0.241-6.19,0.262c-9.142,0.089-18.287,0.039-27.426,0.247c-8.638,0.196-16.126-2.571-22.831-7.909
		c-8.231-6.554-16.563-12.98-24.837-19.48c-3.564-2.801-5.427-6.419-5.211-11.033c0.12-2.558-1.379-4.316-3.926-4.742
		c-3.297-0.551-6.028-2.071-8.143-4.686c-2.213-2.736-4.449-5.454-6.68-8.174c-4.786-5.835-4.02-13.288,1.872-18.009
		c11.415-9.145,22.835-18.283,34.256-27.42c1.767-1.414,3.696-1.612,5.7-0.592c1.86,0.946,2.778,2.815,2.568,5.006
		c-0.884,9.231,3.947,18.01,12.222,22.29c3.177,1.643,6.557,2.473,10.095,2.791c3.366,0.302,6.727,0.659,10.09,0.989
		C266.233,230.578,266.37,230.567,266.46,230.567z M231.083,260.886c0.216-0.119,0.366-0.198,0.513-0.282
		c8.06-4.618,17.175-3.669,24.169,2.486c3.832,3.372,7.687,6.72,11.561,10.044c0.375,0.321,0.962,0.553,1.453,0.557
		c4.865,0.041,9.731,0.039,14.597,0.02c2.331-0.01,4.399-0.807,6.151-2.336c1.396-1.219,2.412-2.696,2.819-4.581
		c-0.209-0.055-0.339-0.091-0.471-0.122c-2.913-0.696-5.836-1.355-8.735-2.104c-1.785-0.461-2.988-1.626-3.622-3.384
		c-0.513-1.426-1.123-2.816-1.606-4.251c-0.22-0.648-0.553-0.827-1.198-0.802c-1.24,0.048-2.485,0.038-3.727,0.003
		c-1.67-0.047-2.854-1.204-2.888-2.766c-0.035-1.563,1.214-2.812,2.907-2.876c0.751-0.029,1.503-0.005,2.4-0.005
		c-0.506-1.33-1.005-2.531-1.414-3.762c-0.204-0.613-0.548-0.752-1.14-0.741c-1.69,0.034-3.384,0.06-5.071-0.015
		c-0.582-0.026-1.227-0.247-1.707-0.577c-0.975-0.669-1.303-1.949-0.933-3.049c0.374-1.116,1.407-1.914,2.663-1.959
		c1.192-0.044,2.387-0.01,3.603-0.01c-0.459-2.168-1.97-3.681-4.082-3.956c-2.597-0.338-5.217-0.5-7.815-0.828
		c-3.415-0.431-6.895-0.647-10.214-1.483c-11.389-2.864-19.71-12.457-21.189-24.116c-0.187-1.478-0.193-2.978-0.29-4.589
		c-4.54,3.435-8.989,6.8-13.489,10.205c3.801,4.164,5.826,8.994,5.836,14.584c0.01,5.581-1.946,10.439-5.704,14.588
		C220.042,250.187,225.562,255.536,231.083,260.886z M304.104,290.055c-1.181,0.051-2.063,0.123-2.947,0.123
		c-9.63,0.009-19.259,0.021-28.888-0.008c-1.929-0.005-3.866-0.08-5.782-0.288c-9.771-1.062-18.347-4.88-25.539-11.572
		c-5.606-5.216-11.028-10.629-16.529-15.957c-7.707-7.465-15.411-14.932-23.112-22.401c-1.608-1.56-3.329-3.043-4.264-5.145
		c-0.535-1.202-0.929-2.465-1.413-3.771c-0.498,0.449-0.982,0.881-1.46,1.319c-2.868,2.633-3.125,6.308-0.65,9.339
		c2.203,2.7,4.446,5.368,6.605,8.102c1.357,1.719,3.049,2.68,5.209,3.033c5.168,0.849,8.664,5.323,8.359,10.546
		c-0.147,2.529,0.799,4.548,2.808,6.116c7.78,6.069,15.542,12.159,23.31,18.245c2.551,1.999,5.068,4.028,8.021,5.457
		c4.997,2.418,10.282,2.815,15.728,2.702c8.933-0.187,17.869-0.194,26.805-0.213c4.431-0.009,8.441-1.158,11.924-3.95
		C302.862,291.271,303.375,290.732,304.104,290.055z M298.056,267.772c-0.114,0.315-0.193,0.505-0.252,0.701
		c-1.918,6.415-7.2,10.622-13.934,10.844c-4.929,0.161-9.866,0.078-14.8,0.09c-2.272,0.006-4.211-0.812-5.917-2.323
		c-3.744-3.316-7.549-6.564-11.299-9.874c-2.431-2.145-5.22-3.443-8.447-3.765c-2.805-0.279-5.458,0.23-8.05,1.589
		c3.142,3.04,6.129,6.054,9.248,8.925c7.153,6.585,15.643,10.229,25.344,10.471c10.519,0.262,21.048,0.079,31.573,0.089
		c0.206,0,0.415-0.008,0.619-0.032c3.218-0.391,5.577-2.012,6.741-5.055c1.12-2.93,0.147-5.524-1.858-7.708
		C304.651,269.142,301.384,268.429,298.056,267.772z M209.656,219.115c-2.034,1.568-4.117,2.996-5.992,4.659
		c-3.122,2.771-3.152,7.325-0.209,10.3c1.042,1.054,2.106,2.086,3.169,3.12c1.229,1.193,2.467,2.376,3.7,3.563
		C216.193,234.665,215.707,224.563,209.656,219.115z"/>
</g>
</svg>
