<?xml version="1.0" encoding="utf-8"?>
<!-- Generator: Adobe Illustrator 16.0.0, SVG Export Plug-In . SVG Version: 6.00 Build 0)  -->
<!DOCTYPE svg PUBLIC "-//W3C//DTD SVG 1.1//EN" "http://www.w3.org/Graphics/SVG/1.1/DTD/svg11.dtd">
<svg version="1.1" id="Layer_1" xmlns="http://www.w3.org/2000/svg" xmlns:xlink="http://www.w3.org/1999/xlink" x="0px" y="0px"
	 width="500px" height="500px" viewBox="0 0 500 500" enable-background="new 0 0 500 500" xml:space="preserve">
<g>
	<defs>
		<rect id="SVGID_1_" width="500" height="500"/>
	</defs>
	<clipPath id="SVGID_2_">
		<use xlink:href="#SVGID_1_"  overflow="visible"/>
	</clipPath>
	<g clip-path="url(#SVGID_2_)">
		<defs>
			<rect id="SVGID_3_" width="500" height="500"/>
		</defs>
		<clipPath id="SVGID_4_">
			<use xlink:href="#SVGID_3_"  overflow="visible"/>
		</clipPath>
		<path clip-path="url(#SVGID_4_)" fill="#F25C28" d="M250.473,81.082c-93.449,0-168.919,75.705-168.919,168.918
			c0,93.21,75.708,168.919,168.919,168.919c93.213,0,168.92-75.709,168.92-168.919C419.393,156.787,343.686,81.082,250.473,81.082
			 M250.473,339.188c-49.209,0-89.19-39.979-89.19-89.189c0-49.209,39.981-89.192,89.19-89.192
			c49.213,0,89.191,39.983,89.191,89.192C339.426,299.21,299.686,339.188,250.473,339.188"/>
		<path clip-path="url(#SVGID_4_)" fill="#F27A27" d="M230.603,97.878c18.214,0,80.198-3.783,129.882,45.896
			c1.652,1.894,36.43,15.142,10.172-6.859c-26.025-22.004-58.909-56.546-144.076-51.339
			C220.667,86.996,215.933,99.06,230.603,97.878"/>
		<path clip-path="url(#SVGID_4_)" fill="#FCAF3B" d="M324.76,146.141c-16.09-10.408-39.033-21.765-62.695-22.711
			c-7.094,0-4.26,10.171,0,10.407c4.258,0,40.455,7.807,55.602,21.057C319.555,156.315,329.016,155.605,324.76,146.141"/>
		<path clip-path="url(#SVGID_4_)" fill="#FCAF3B" d="M147.088,171.692c0,0-10.883,14.431-13.486,21.529
			c-2.602,7.098,6.624,7.808,8.044,5.913c1.42-1.888,9.937-17.269,13.486-20.107C158.682,176.187,152.056,166.251,147.088,171.692"
			/>
		<path clip-path="url(#SVGID_4_)" fill="#FCAF3B" d="M126.504,208.597c-1.654,4.733-3.312,10.647-4.023,14.903
			c-0.708,4.26,8.519,7.099,10.175,1.893c1.657-5.201,3.077-12.536,3.784-13.246C137.625,206.233,129.108,199.843,126.504,208.597"
			/>
		<path clip-path="url(#SVGID_4_)" fill="#FCAF3B" d="M367.344,271.056c-1.184,10.175-6.859,28.154-8.988,31.938
			c-1.895,3.787,3.547,12.777,10.168,4.258c2.841-7.807,7.814-19.633,9.941-34.774C379.172,266.799,369.948,258.519,367.344,271.056
			"/>
		<path clip-path="url(#SVGID_4_)" fill="#FFFFFF" d="M135.733,119.643c13.248-10.646,55.359-38.798,86.117-39.273
			c4.494,0,4.731,3.787,5.205,5.206c0.47,1.42,22.47,73.577,22.47,73.577s4.497,8.516-8.278,10.173
			c-12.777,1.656-33.831,7.806-51.578,25.787c-1.418,1.182-4.492,3.787-8.515,0.473c-4.019-3.312-43.765-64.348-45.659-66.95
			C133.365,125.797,133.84,121.063,135.733,119.643"/>
		<path clip-path="url(#SVGID_4_)" fill="#E7E7E9" d="M188.017,196.06c0,0-4.495,3.311-8.518-2.129
			c-4.023-5.206-41.875-62.693-43.766-65.77c-1.894-3.077,0-6.152,1.891-7.57c4.496,7.095,41.165,62.22,44.005,65.059
			c2.839,2.838,5.913,2.367,8.99,0c2.84-2.366,30.518-27.917,57.014-26.497c2.603,0.236,1.892,1.891,1.892,4.022
			c0,2.13-1.892,4.731-6.623,4.968C235.331,167.434,201.264,177.606,188.017,196.06"/>
		<path clip-path="url(#SVGID_4_)" fill="#FFFFFF" d="M169.326,97.64c-4.023-9.936-12.302-21.766-5.205-25.787
			c6.86-4.02,13.959,12.541,16.326,20.108C178.551,92.911,173.349,98.588,169.326,97.64"/>
		<path clip-path="url(#SVGID_4_)" fill="#FFFFFF" d="M421.283,219.955c-3.547-16.561-18.215-65.061-41.635-84.933
			c-3.555-2.84-6.15-0.238-7.334,0.711c-1.184,0.944-63.877,42.819-63.877,42.819s-8.994,3.786,0,13.011
			c8.986,9.466,21.289,27.445,23.654,52.758c0.238,1.893,1.184,5.679,6.391,5.679c5.203,0,74.523-22.24,77.596-22.948
			C419.156,226.105,421.996,222.319,421.283,219.955"/>
		<path clip-path="url(#SVGID_4_)" fill="#E7E7E9" d="M332.563,245.977c0,0,1.424,5.443,7.812,3.785
			c6.388-1.654,72.155-22.002,75.472-23.183c3.311-1.186,3.785-4.969,3.311-7.097c-7.807,2.603-71.211,22-75.232,22.472
			c-4.021,0.477-6.154-1.893-6.863-5.678c-0.707-3.783-5.912-40.927-27.441-56.542c-2.131-1.418-2.838,0.237-4.021,1.893
			c-1.184,1.657-1.658,4.732,2.127,8.043C313.875,193.931,333.986,223.265,332.563,245.977"/>
		<path clip-path="url(#SVGID_4_)" fill="#FFFFFF" d="M402.832,170.271c9.936-4.021,21.766-12.302,25.789-5.441
			c4.018,6.861-12.543,13.958-20.111,16.325C407.799,179.498,402.123,174.292,402.832,170.271"/>
		<path clip-path="url(#SVGID_4_)" fill="#FFFFFF" d="M364.268,380.354c-13.248,10.649-55.359,38.801-86.111,39.276
			c-4.499,0-4.734-3.789-5.206-5.206c-0.475-1.42-22.478-73.58-22.478-73.58s-4.497-8.515,8.278-10.17
			c12.776-1.657,33.835-7.806,51.575-25.786c1.422-1.184,4.5-3.787,8.521-0.474c4.021,3.31,43.764,64.347,45.654,66.952
			C366.398,374.204,366.16,378.939,364.268,380.354"/>
		<path clip-path="url(#SVGID_4_)" fill="#E7E7E9" d="M311.986,303.939c0,0,4.496-3.31,8.514,2.131
			c4.023,5.205,41.877,62.691,43.768,65.769c1.893,3.077,0,6.15-1.891,7.57c-4.496-7.101-41.164-62.221-44.004-65.059
			c-2.84-2.841-5.914-2.367-8.992,0c-2.84,2.363-30.518,27.917-57.017,26.494c-2.598-0.232-1.892-1.888-1.892-4.021
			c0-2.128,1.892-4.73,6.625-4.963C264.666,332.566,298.736,322.395,311.986,303.939"/>
		<path clip-path="url(#SVGID_4_)" fill="#FFFFFF" d="M329.727,402.357c4.021,9.936,12.305,21.765,5.207,25.788
			c-6.863,4.023-13.961-12.537-16.328-20.107C320.5,407.088,325.705,401.647,329.727,402.357"/>
		<path clip-path="url(#SVGID_4_)" fill="#FFFFFF" d="M78.479,280.047c3.548,16.561,18.218,65.061,41.639,84.934
			c3.546,2.839,6.151,0.233,7.334-0.712c1.184-0.947,63.874-42.823,63.874-42.823s8.991-3.783,0-13.013
			c-8.987-9.462-21.289-27.439-23.656-52.753c-0.235-1.894-1.183-5.68-6.387-5.68c-5.205,0-74.524,22.239-77.6,22.947
			C80.607,273.896,78.004,277.682,78.479,280.047"/>
		<path clip-path="url(#SVGID_4_)" fill="#E7E7E9" d="M167.434,254.023c0,0-1.42-5.443-7.808-3.79
			c-6.387,1.658-72.157,22.006-75.471,23.185c-3.308,1.421-3.784,4.972-3.308,7.103c7.803-2.604,71.209-22.002,75.23-22.478
			c4.022-0.473,6.151,1.893,6.862,5.678c0.71,3.548,5.914,40.929,27.442,56.545c2.129,1.419,2.841-0.236,4.022-1.894
			c1.184-1.658,1.653-4.731-2.127-8.044C185.887,306.07,166.014,276.734,167.434,254.023"/>
		<path clip-path="url(#SVGID_4_)" fill="#FFFFFF" d="M97.169,331.146c-9.936,4.021-21.766,12.306-25.788,5.207
			c-4.021-6.862,12.541-13.959,20.109-16.324C92.438,321.919,98.114,327.127,97.169,331.146"/>
		<g opacity="0.5" clip-path="url(#SVGID_4_)" enable-background="new    ">
			<g>
				<defs>
					<rect id="SVGID_5_" x="134.589" y="134.589" width="230.822" height="230.822"/>
				</defs>
				<clipPath id="SVGID_6_">
					<use xlink:href="#SVGID_5_"  overflow="visible"/>
				</clipPath>
				<path clip-path="url(#SVGID_6_)" fill="#99C8CF" d="M365.411,250c0,63.738-51.672,115.411-115.412,115.411
					c-63.74,0-115.41-51.673-115.41-115.411c0-63.739,51.67-115.411,115.41-115.411C313.739,134.589,365.411,186.261,365.411,250"/>
			</g>
		</g>
	</g>
	<g clip-path="url(#SVGID_2_)">
		<defs>
			<rect id="SVGID_7_" width="500" height="500"/>
		</defs>
		<clipPath id="SVGID_8_">
			<use xlink:href="#SVGID_7_"  overflow="visible"/>
		</clipPath>
	</g>
	<g clip-path="url(#SVGID_2_)">
		<defs>
			<rect id="SVGID_9_" width="500" height="500"/>
		</defs>
		<clipPath id="SVGID_10_">
			<use xlink:href="#SVGID_9_"  overflow="visible"/>
		</clipPath>
	</g>
	<g clip-path="url(#SVGID_2_)">
		<defs>
			<rect id="SVGID_11_" width="500" height="500"/>
		</defs>
		<clipPath id="SVGID_12_">
			<use xlink:href="#SVGID_11_"  overflow="visible"/>
		</clipPath>
	</g>
	<g clip-path="url(#SVGID_2_)">
		<defs>
			<rect id="SVGID_13_" width="500" height="500"/>
		</defs>
		<clipPath id="SVGID_14_">
			<use xlink:href="#SVGID_13_"  overflow="visible"/>
		</clipPath>
	</g>
	<g clip-path="url(#SVGID_2_)">
		<defs>
			<rect id="SVGID_15_" width="500" height="500"/>
		</defs>
		<clipPath id="SVGID_16_">
			<use xlink:href="#SVGID_15_"  overflow="visible"/>
		</clipPath>
		<path clip-path="url(#SVGID_16_)" d="M215.876,292.666c0.502-6.276,1.002-13.58,1.689-20.865
			c1.094-11.605,3.536-23.001,5.476-34.477c1.201-7.1,2.254-14.237,3.009-21.396c0.95-8.998,1.497-18.038,2.278-27.055
			c0.35-4.036,2.455-6.995,6.097-8.703c3.617-1.697,7.179-1.335,10.511,0.886c0.474,0.316,0.832,0.419,1.402,0.211
			c5.945-2.172,12.143,0.969,14.029,7.031c2.368,7.616,4.703,15.243,7.185,22.822c3.577,10.93,7.989,21.54,12.639,32.05
			c6.419,14.513,11.763,29.402,15.739,44.772c0.671,2.593,1.309,5.194,1.919,7.801c1.2,5.122-2.133,9.715-7.601,10.501
			c-2.741,0.395-5.45,0.262-8.147-0.415c-3.835-0.96-7.339-0.18-10.389,2.319c-2.4,1.968-5.012,3.472-8.025,4.257
			c-2.698,0.702-5.189,0.295-7.483-1.32c-0.274-0.192-0.683-0.35-0.999-0.306c-3.769,0.524-7.292-0.297-10.625-1.983
			c-3.806-1.925-7.544-1.926-11.35,0c-3.306,1.672-6.813,2.579-10.532,1.955c-3.888-0.652-6.79-4.196-6.816-8.141
			C215.859,299.642,215.876,296.673,215.876,292.666 M227.66,238.612c-0.151,0.847-0.276,1.583-0.413,2.316
			c-2.175,11.613-4.29,23.232-5.375,35.015c-0.799,8.675-1.212,17.365-1.286,26.073c-0.023,2.785,1.859,4.432,4.631,4.186
			c2.152-0.19,4.166-0.785,6.104-1.748c5.03-2.501,10.1-2.499,15.137-0.016c1.831,0.903,3.722,1.506,5.755,1.724
			c3.219,0.346,5.11-1.229,4.991-4.461c-0.283-7.688-0.519-15.385-1.069-23.057c-0.406-5.656-1.159-11.296-1.979-16.911
			c-0.856-5.87-1.973-11.702-2.989-17.548c-0.316-1.83-0.676-3.652-1.027-5.538C243.317,245.593,233.94,245.071,227.66,238.612
			 M260.072,307.71c0.05,0.089,0.101,0.178,0.15,0.266c0.673-0.033,1.367,0.028,2.015-0.117c2.38-0.533,4.424-1.719,6.306-3.264
			c4.047-3.321,8.682-4.575,13.827-3.538c2.592,0.521,5.145,0.986,7.78,0.38c2.346-0.54,3.599-2.45,3.054-4.783
			c-2.391-10.243-5.338-20.323-8.829-30.247c-3.519-10.006-7.832-19.684-12.025-29.412c-0.096-0.219-0.203-0.431-0.34-0.722
			c-3.829,5.91-9.02,8.703-16.065,7.526c0.813,4.659,1.756,9.232,2.384,13.847c1.018,7.479,2.004,14.97,2.672,22.486
			c0.556,6.251,0.679,12.542,0.903,18.818C262.013,301.988,262.327,305.116,260.072,307.71 M231.983,203.944
			c-0.052,0.379-0.103,0.689-0.138,1.002c-0.885,8.075-1.609,16.173-2.743,24.213c-0.372,2.632,0.28,4.444,2.048,6.123
			c0.042,0.04,0.075,0.089,0.115,0.129c2.636,2.645,5.714,4.103,9.516,3.322c3.468-0.712,5.829-2.972,7.742-5.808
			c0.399-0.592,0.487-1.167,0.404-1.864c-0.944-7.923-1.866-15.848-2.783-23.774c-0.128-1.106-0.201-2.218-0.3-3.342
			C239.208,205.67,238.233,205.67,231.983,203.944 M250.82,206.692c0.179,1.931,0.349,3.791,0.524,5.649
			c0.808,8.556,1.988,17.06,3.509,25.517c0.054,0.299,0.345,0.691,0.618,0.793c2.539,0.946,5.077,0.978,7.555-0.219
			c3.097-1.496,4.879-4.11,6.097-7.211c0.291-0.742,0.27-1.375-0.013-2.139c-2.409-6.537-4.78-13.088-7.124-19.649
			c-0.704-1.971-1.285-3.986-1.951-6.07C257.237,205.32,254.191,206.354,250.82,206.692 M238.929,200.494
			c2.078-0.014,4.044-0.486,5.923-1.376c0.497-0.236,0.653-0.519,0.608-1.059c-0.244-2.927-0.442-5.859-0.679-8.787
			c-0.243-2.992-2.858-5.387-5.861-5.396c-2.964-0.009-5.614,2.328-5.882,5.276c-0.27,2.983-0.447,5.974-0.697,8.96
			c-0.044,0.522,0.132,0.775,0.582,0.991C234.824,200.016,236.821,200.488,238.929,200.494 M250.543,201.913
			c2.948-0.223,5.49-1.312,7.693-3.2c0.152-0.13,0.197-0.527,0.129-0.75c-0.882-2.923-1.749-5.852-2.728-8.743
			c-0.268-0.79-0.787-1.563-1.376-2.16c-1.515-1.534-3.376-2.043-5.448-1.592C250.132,190.912,249.782,196.438,250.543,201.913"/>
		<path clip-path="url(#SVGID_16_)" d="M234.058,254.012c-0.442,5.843-0.87,11.476-1.295,17.109
			c-0.494,6.553-0.986,13.107-1.48,19.661c-0.039,0.517-0.079,1.035-0.141,1.549c-0.166,1.398-1.178,2.259-2.525,2.165
			c-1.301-0.092-2.253-1.148-2.168-2.538c0.16-2.589,0.38-5.174,0.576-7.761c0.439-5.805,0.875-11.611,1.317-17.417
			c0.329-4.311,0.651-8.622,1.003-12.931c0.121-1.481,1.142-2.388,2.487-2.307C233.199,251.625,234.11,252.727,234.058,254.012"/>
		<path clip-path="url(#SVGID_16_)" d="M251.364,291.918c0.037,1.441-0.882,2.509-2.222,2.581c-1.346,0.071-2.364-0.794-2.478-2.213
			c-0.41-5.113-0.793-10.229-1.182-15.346c-0.438-5.748-0.869-11.496-1.305-17.244c-0.137-1.811-0.298-3.62-0.413-5.432
			c-0.097-1.515,0.802-2.614,2.167-2.72c1.364-0.105,2.416,0.817,2.54,2.349c0.408,5.057,0.78,10.116,1.164,15.174
			c0.497,6.554,0.993,13.106,1.488,19.66C251.205,289.791,251.283,290.854,251.364,291.918"/>
		<path clip-path="url(#SVGID_16_)" d="M282.039,288.906c0.01,1.461-0.741,2.403-1.874,2.612c-1.211,0.224-2.291-0.388-2.7-1.619
			c-1.313-3.933-2.602-7.875-3.888-11.815c-2.591-7.938-5.179-15.876-7.754-23.818c-0.183-0.567-0.375-1.178-0.343-1.756
			c0.063-1.172,0.982-2.018,2.133-2.139c1.05-0.112,2.082,0.554,2.455,1.658c0.736,2.183,1.438,4.375,2.152,6.564
			c3.179,9.744,6.358,19.488,9.533,29.233C281.896,288.261,281.988,288.711,282.039,288.906"/>
	</g>
</g>
</svg>
