<?xml version="1.0" encoding="utf-8"?>
<!-- Generator: Adobe Illustrator 16.0.0, SVG Export Plug-In . SVG Version: 6.00 Build 0)  -->
<!DOCTYPE svg PUBLIC "-//W3C//DTD SVG 1.1//EN" "http://www.w3.org/Graphics/SVG/1.1/DTD/svg11.dtd">
<svg version="1.1" xmlns="http://www.w3.org/2000/svg" xmlns:xlink="http://www.w3.org/1999/xlink" x="0px" y="0px" width="500px"
	 height="500px" viewBox="0 0 500 500" enable-background="new 0 0 500 500" xml:space="preserve">
<g id="Layer_1">
	<g id="Layer_2_1_">
		<path fill="#F25C28" d="M250.473,81.081c-93.449,0-168.919,75.706-168.919,168.919c0,93.21,75.708,168.919,168.919,168.919
			c93.213,0,168.92-75.709,168.92-168.919C419.393,156.787,343.686,81.081,250.473,81.081z M250.473,339.188
			c-49.209,0-89.19-39.979-89.19-89.188c0-49.209,39.981-89.192,89.19-89.192c49.213,0,89.191,39.983,89.191,89.192
			C339.426,299.21,299.686,339.188,250.473,339.188z"/>
		<path fill="#F27A27" d="M230.603,97.878c18.214,0,80.198-3.783,129.882,45.896c1.652,1.894,36.43,15.142,10.172-6.859
			c-26.025-22.004-58.908-56.545-144.076-51.339C220.666,86.996,215.932,99.06,230.603,97.878"/>
		<path fill="#FCAF3B" d="M324.76,146.141c-16.09-10.408-39.033-21.765-62.695-22.711c-7.094,0-4.26,10.171,0,10.408
			c4.258,0,40.455,7.807,55.602,21.057C319.555,156.315,329.016,155.605,324.76,146.141z"/>
		<path fill="#FCAF3B" d="M147.088,171.692c0,0-10.883,14.431-13.486,21.529c-2.602,7.098,6.624,7.808,8.043,5.914
			c1.42-1.889,9.938-17.27,13.486-20.108C158.682,176.187,152.056,166.25,147.088,171.692z"/>
		<path fill="#FCAF3B" d="M126.504,208.597c-1.654,4.733-3.312,10.646-4.023,14.903c-0.708,4.26,8.519,7.099,10.175,1.893
			c1.657-5.201,3.077-12.536,3.784-13.246C137.625,206.233,129.108,199.843,126.504,208.597z"/>
		<path fill="#FCAF3B" d="M367.344,271.056c-1.184,10.175-6.859,28.154-8.988,31.938c-1.895,3.787,3.547,12.777,10.168,4.258
			c2.84-7.807,7.814-19.634,9.941-34.774C379.172,266.799,369.947,258.519,367.344,271.056z"/>
		<g>
			<path fill="#FFFFFF" d="M135.733,119.643c13.248-10.646,55.359-38.798,86.117-39.273c4.494,0,4.73,3.787,5.205,5.207
				c0.47,1.42,22.47,73.577,22.47,73.577s4.497,8.516-8.278,10.173c-12.777,1.656-33.832,7.806-51.578,25.787
				c-1.418,1.183-4.493,3.787-8.516,0.474c-4.019-3.312-43.765-64.348-45.659-66.951
				C133.365,125.796,133.839,121.063,135.733,119.643z"/>
			<path fill="#E7E7E9" d="M188.017,196.06c0,0-4.495,3.311-8.518-2.129c-4.023-5.206-41.875-62.693-43.766-65.77
				c-1.894-3.076,0-6.151,1.892-7.569c4.496,7.095,41.165,62.22,44.005,65.059c2.838,2.837,5.913,2.367,8.989,0
				c2.841-2.366,30.519-27.917,57.015-26.498c2.603,0.236,1.892,1.892,1.892,4.022c0,2.13-1.892,4.731-6.623,4.968
				C235.332,167.434,201.264,177.606,188.017,196.06"/>
			<path fill="#FFFFFF" d="M169.326,97.64c-4.023-9.936-12.302-21.766-5.205-25.787c6.86-4.02,13.959,12.541,16.326,20.108
				C178.55,92.911,173.349,98.588,169.326,97.64z"/>
		</g>
		<g>
			<path fill="#FFFFFF" d="M421.283,219.955c-3.547-16.561-18.215-65.061-41.635-84.933c-3.555-2.839-6.15-0.238-7.334,0.711
				c-1.184,0.944-63.877,42.819-63.877,42.819s-8.994,3.786,0,13.011c8.986,9.466,21.289,27.445,23.654,52.758
				c0.238,1.893,1.184,5.679,6.391,5.679c5.203,0,74.523-22.24,77.596-22.948C419.156,226.105,421.996,222.319,421.283,219.955z"/>
			<path fill="#E7E7E9" d="M332.563,245.977c0,0,1.424,5.443,7.813,3.785c6.387-1.654,72.154-22.002,75.471-23.183
				c3.311-1.187,3.785-4.97,3.311-7.097c-7.807,2.603-71.211,22-75.232,22.472c-4.021,0.477-6.154-1.893-6.863-5.678
				c-0.707-3.783-5.912-40.927-27.441-56.542c-2.131-1.417-2.838,0.237-4.021,1.894s-1.658,4.732,2.127,8.043
				C313.875,193.931,333.986,223.266,332.563,245.977"/>
			<path fill="#FFFFFF" d="M402.832,170.271c9.936-4.021,21.766-12.302,25.789-5.441c4.018,6.861-12.543,13.958-20.111,16.325
				C407.799,179.498,402.123,174.292,402.832,170.271z"/>
		</g>
		<g>
			<path fill="#FFFFFF" d="M364.268,380.354c-13.248,10.649-55.359,38.801-86.111,39.276c-4.499,0-4.734-3.789-5.206-5.206
				c-0.475-1.42-22.478-73.58-22.478-73.58s-4.498-8.515,8.278-10.17c12.776-1.657,33.835-7.806,51.575-25.786
				c1.422-1.184,4.5-3.787,8.521-0.474c4.021,3.31,43.764,64.347,45.654,66.952C366.398,374.204,366.16,378.939,364.268,380.354z"/>
			<path fill="#E7E7E9" d="M311.986,303.939c0,0,4.496-3.31,8.514,2.131c4.023,5.205,41.877,62.691,43.768,65.769
				c1.893,3.077,0,6.15-1.891,7.57c-4.496-7.101-41.164-62.221-44.004-65.059c-2.84-2.841-5.914-2.367-8.992,0
				c-2.84,2.363-30.518,27.917-57.017,26.494c-2.598-0.232-1.892-1.888-1.892-4.021c0-2.128,1.892-4.73,6.625-4.963
				C264.666,332.566,298.736,322.395,311.986,303.939"/>
			<path fill="#FFFFFF" d="M329.727,402.357c4.021,9.936,12.305,21.765,5.207,25.788c-6.863,4.024-13.961-12.537-16.328-20.107
				C320.5,407.088,325.705,401.647,329.727,402.357z"/>
		</g>
		<g>
			<path fill="#FFFFFF" d="M78.479,280.047c3.548,16.561,18.218,65.061,41.639,84.934c3.546,2.839,6.15,0.233,7.334-0.712
				c1.184-0.947,63.874-42.823,63.874-42.823s8.992-3.783,0-13.013c-8.987-9.462-21.289-27.439-23.655-52.753
				c-0.236-1.894-1.184-5.68-6.387-5.68c-5.205,0-74.524,22.239-77.6,22.947C80.608,273.896,78.005,277.682,78.479,280.047z"/>
			<path fill="#E7E7E9" d="M167.434,254.023c0,0-1.42-5.443-7.808-3.79c-6.387,1.658-72.157,22.005-75.471,23.185
				c-3.308,1.42-3.784,4.971-3.308,7.102c7.803-2.604,71.208-22.002,75.23-22.478c4.022-0.473,6.15,1.893,6.861,5.678
				c0.71,3.548,5.915,40.929,27.442,56.545c2.128,1.419,2.84-0.236,4.022-1.894c1.184-1.658,1.653-4.731-2.127-8.044
				C185.887,306.07,166.014,276.734,167.434,254.023"/>
			<path fill="#FFFFFF" d="M97.169,331.146c-9.937,4.021-21.766,12.306-25.789,5.207c-4.02-6.862,12.541-13.959,20.11-16.324
				C92.438,321.919,98.114,327.126,97.169,331.146z"/>
		</g>
	</g>
	<circle opacity="0.5" fill="#99C8CF" enable-background="new    " cx="250" cy="250" r="115.411"/>
	
		<image display="none" overflow="visible" width="1067" height="1067" xlink:href="../events/Sport icons-01.png"  transform="matrix(0.2249 0 0 0.2249 130.0024 130.0029)">
	</image>
</g>
<g id="Layer_2" display="none">
	<path display="inline" fill-rule="evenodd" clip-rule="evenodd" d="M256.718,332.796c0.496-0.189,0.992-0.379,1.598-0.609
		c0.085,0.858,0.081,1.396-0.888,1.135c-0.167-0.045-0.482-0.007-0.545,0.101c-0.947,1.635-2.785,1.671-4.246,2.357
		c-1.174,0.553-2.437,0.917-3.661,1.364c-0.095-0.116-0.191-0.232-0.287-0.349c0.374-0.443,0.735-0.897,1.125-1.326
		c0.34-0.372,0.855-0.653,1.042-1.084c0.464-1.07,1.119-1.612,2.355-1.173c0.223-2.364-0.929-4.044-2.405-5.506
		c-0.388-0.385-1.193-0.348-1.851-0.516c0.133-0.148,0.35-0.391,0.539-0.601c-1.972-2.924-3.94-5.843-6.032-8.944
		c-0.956,2.845-1.938,5.701-2.871,8.573c-0.344,1.059-0.706,2.142-0.821,3.239c-0.168,1.602-0.129,3.226-0.15,4.841
		c-0.001,0.141,0.213,0.284,0.282,0.37c-2.074,1.156-4.302,0.658-6.471,0.709c-0.814,0.019-1.231,0.256-1.599,1.059
		c-2.886,6.308-5.737,12.648-9.99,18.195c-0.904,1.18-2.115,2.149-3.282,3.095c-2.701,2.185-4.963,4.623-6.317,7.939
		c-1.366,3.345-4.142,5.691-6.628,8.215c-3.132,3.179-6.357,6.281-9.269,9.654c-1.8,2.085-3.103,4.602-4.59,6.949
		c-0.158,0.25-0.096,0.672-0.061,1.005c0.082,0.771,0.454,1.598,0.28,2.295c-1.107,4.436,0.556,7.773,3.905,10.528
		c1.158,0.953,1.687,2.199,1.55,3.708c-0.125,1.378-0.862,2.274-2.147,2.745c-2.987,1.093-6.074,1.668-9.249,1.786
		c-2.536,0.094-4.056-1.04-4.713-3.488c-0.654-2.439-1.523-4.764-3.079-6.819c-0.832-1.099-0.577-2.408-0.185-3.675
		c0.219-0.708,0.272-1.467,0.408-2.201c0.694-3.741,0.996-7.634,4.299-10.302c1.948-1.574,2.797-3.926,3.604-6.111
		c1.594-4.313,3.567-8.434,5.569-12.552c1.376-2.832,2.75-5.667,4.189-8.468c2.024-3.94,5.249-6.736,8.829-9.213
		c1.424-0.986,2.876-2.045,3.969-3.359c0.814-0.979,1.092-2.412,1.564-3.66c0.175-0.464,0.225-0.976,0.376-1.668
		c-0.499,0.121-0.935,0.336-1.348,0.299c-0.489-0.044-1.18-0.171-1.384-0.506c-0.324-0.532-0.518-1.312,0.434-1.665
		c0.554-0.206,1.143-0.389,1.617-0.723c0.565-0.398,1.292-0.862,1.477-1.447c0.463-1.459,0.66-3.004,0.964-4.515
		c-0.11-0.067-0.22-0.134-0.33-0.201c-0.292,0.144-0.571,0.342-0.879,0.412c-0.254,0.059-0.542-0.033-0.816-0.059
		c0.135-0.276,0.261-0.787,0.407-0.794c1.166-0.05,1.234-0.757,1.431-1.719c0.826-4.035,1.148-8.109,1.457-12.207
		c0.26-3.447,1.046-6.851,1.448-10.291c0.28-2.4,0.28-4.832,0.455-7.246c0.06-0.825-0.229-1.384-0.939-1.74
		c-1.023-0.514-1.199-1.357-1.223-2.439c-0.125-5.665,1.002-11.082,2.777-16.439c0.847-2.554,1.087-5.304,1.716-7.938
		c0.544-2.28,1.268-4.517,1.871-6.784c0.234-0.88,0.506-1.789,0.507-2.687c0.007-5.678-0.065-11.356-0.093-17.035
		c-0.01-1.984-0.634-3.815-1.116-5.711c-0.52-2.044-0.502-4.247-0.544-6.384c-0.051-2.563,1.117-4.768,2.342-6.943
		c1.426-2.533,2.618-5.211,4.203-7.636c1.538-2.352,3.541-4.294,5.976-5.875c1.387-0.899,2.647-1.494,4.406-1.337
		c-0.246-1.118-0.449-2.115-0.695-3.102c-0.046-0.186-0.243-0.441-0.407-0.474c-0.969-0.188-1.214-0.862-1.364-1.72
		c-0.325-1.865-0.828-3.705-1.063-5.579c-0.174-1.391-0.037-1.408,1.448-1.75c-0.124-0.799-0.264-1.611-0.371-2.426
		c-0.336-2.562-0.433-5.137,0.763-7.501c0.503-0.994,1.473-1.743,2.176-2.646c2.839-3.651,6.692-4.188,10.927-3.63
		c3.145,0.414,5.889,1.672,8.186,3.86c0.328,0.313,0.737,0.79,0.72,1.172c-0.065,1.408,0.537,2.543,1.214,3.677
		c1.169,1.959,1.08,4.089,0.6,6.165c-0.718,3.101-1.789,6.125-2.415,9.24c-0.545,2.708-0.979,5.414-2.283,7.89
		c-0.474,0.9-0.322,1.506,0.746,1.897c1.502,0.55,2.707,1.465,3.206,3.121c1.009,3.348,2.479,6.457,4.845,9.094
		c0.268,0.298,0.494,0.81,0.444,1.183c-0.162,1.217,0.449,1.965,1.227,2.778c1.177,1.231,2.206,2.602,3.308,3.926
		c2.772-1.571,4.79-3.932,6.981-6.121c3.605-3.602,6.189-7.88,8.563-12.325c0.842-1.578,1.887-3.062,2.586-4.697
		c0.737-1.72,0.873-3.557-0.036-5.338c-0.176-0.344-0.22-0.762-0.291-1.152c-0.456-2.495-0.908-4.992-1.352-7.489
		c-0.164-0.922-0.421-1.77,0.076-2.778c0.25-0.508-0.215-1.55-0.626-2.172c-2.592-3.921-5.339-7.74-7.867-11.7
		c-1.348-2.112-3.196-3.283-5.377-4.408c-7.039-3.632-14.162-7.181-20.386-12.173c-3.67-2.944-6.714-6.456-8.808-10.733
		c-2.662-5.436-1.229-10.163,2.635-14.254c3.136-3.32,7.083-4.988,11.755-4.5c2.868,0.3,5,1.955,6.894,3.95
		c3.353,3.534,5.777,7.691,7.125,12.319c1.49,5.118,2.561,10.363,3.71,15.575c0.661,2.999,0.95,6.088,1.736,9.049
		c0.399,1.503,1.438,2.876,2.351,4.195c1.906,2.752,3.801,5.529,5.938,8.098c1.249,1.5,3.006,2.564,4.441,3.923
		c0.794,0.75,1.44,1.67,2.069,2.573c0.474,0.679,0.842,0.984,1.721,0.508c1.272-0.689,2.049-0.379,2.758,0.858
		c0.598,1.042,0.898,2.38,2.493,2.368c0.034,0,0.081,0.03,0.1,0.061c0.465,0.749,0.794,1.647,1.422,2.212
		c0.797,0.716,1.251,1.418,0.986,2.451c1.477,1.008,1.6,1.294,0.773,2.858c-0.489,0.927-0.367,1.561,0.339,2.309
		c0.588,0.622,1.46,1.341,0.63,2.368c-0.898,1.111-1.618,2.546-3.474,2.155c-0.252-0.053-0.602-0.056-0.795,0.079
		c-1.514,1.05-2.961,2.123-3.442,4.101c-0.278,1.145-0.692,2.34-1.363,3.288c-1.741,2.461-2.623,5.27-3.611,8.045
		c-2.354,6.614-5.747,12.608-10.599,17.723c-0.653,0.689-1.486,1.207-2.153,1.885c-0.23,0.234-0.401,0.819-0.269,1.071
		c1.015,1.943,2.01,3.91,3.208,5.74c1.489,2.276,3.694,3.817,6.028,5.141c2.21,1.253,4.408,2.446,6.218,4.347
		c0.586,0.615,2.14,0.438,3.238,0.384c0.622-0.03,1.205-0.588,1.833-0.837c0.442-0.176,0.932-0.231,1.306-0.319
		c0.089,0.612,0.146,1.01,0.204,1.407c0.404-0.075,0.815-0.128,1.213-0.23c1.237-0.319,2.471-0.658,3.705-0.99
		c0.033,0.103,0.065,0.204,0.098,0.307c-0.373,0.136-0.747,0.271-1.149,0.417c0.818,0.875,1.418,0.798,1.912-0.179
		c0.476-0.94,1.065-1.026,2.014-0.478c0.645,0.374,1.389,0.589,2.107,0.813c0.181,0.056,0.48-0.067,0.647-0.204
		c0.97-0.789,1.694-0.694,2.585,0.205c0.276,0.279,0.823,0.29,1.246,0.424c0.057-0.365,0.216-0.751,0.149-1.092
		c-0.246-1.251,1.023-3.455,2.28-3.7c1.25-0.244,2.521-0.397,3.792-0.504c0.338-0.028,0.703,0.26,0.725,0.269
		c-0.136,0.802-0.334,1.294-0.273,1.751c0.12,0.9,0.39,1.78,0.583,2.673c0.032,0.15,0.024,0.325-0.018,0.475
		c-0.268,0.973-2.551,2.686-3.572,2.746c-0.62,0.036-1.234,0.17-2.188,0.31c0.543-0.356,0.807-0.528,1.097-0.719
		c-1.172-0.829-1.188-0.762-1.947,0.339c-0.742,1.076-1.982,0.776-3.073,0.84c-0.848,0.05-1.704,0.086-2.536,0.237
		c-0.956,0.175-1.815,0.25-2.828-0.035c-1.088-0.306-2.424-0.622-3.357,0.779c-0.266,0.399-1.234,0.427-1.885,0.438
		c-0.386,0.008-0.765-0.393-1.175-0.521c-0.191-0.06-0.575,0.016-0.656,0.155c-0.925,1.593-2.56,1.049-4.021,1.478
		c-0.129,0.862-0.687,1.455-2.131,1.198c0.608,0.678,0.981,1.096,1.355,1.512c0.077-0.043,0.154-0.087,0.231-0.13
		c-0.087-0.254-0.173-0.507-0.313-0.919c0.722,0,1.386,0,2.23,0c0.458-0.627,2.125-1.047,3.395-0.827
		c0.604,0.104,1.263-0.085,1.893-0.173c0.541-0.076,1.075-0.197,1.635-0.303c-0.043-0.095-0.107-0.24-0.118-0.263
		c5.686-0.72,11.376-1.439,16.75-2.119c0.962,0.92,1.784,1.708,2.655,2.541c-1.273,0.399-2.841-0.824-3.813,0.729
		c-1.394-0.997-1.394-0.997-2.193,0.486c-0.313,0.579-1.792,0.771-2.386,0.295c-0.771,1.006-1.958,1.032-3.042,1.178
		c-2.301,0.31-4.614,0.543-6.93,0.713c-0.601,0.044-1.227-0.263-2.046-0.457c-0.104,0.111-0.392,0.423-0.518,0.558
		c-0.874-0.107-1.582-0.184-2.287-0.283c-0.47-0.066-0.933-0.203-1.404-0.238c-0.435-0.033-0.876,0.047-1.314,0.041
		c-0.599-0.008-1.196-0.049-2.009-0.085c0.216,0.408,0.405,0.767,0.663,1.254c-0.523,0.204-1.069,0.402-1.604,0.629
		c-0.428,0.182-0.831,0.536-1.264,0.565c-0.68,0.048-1.424-0.062-1.059-0.976c-1.947,0.242-3.796,0.473-5.646,0.702
		c0.019,0.098,0.036,0.196,0.055,0.294c-0.455-0.291-0.91-0.583-1.365-0.875c-0.07,0.071-0.141,0.142-0.211,0.213
		c0.109,0.395,0.219,0.789,0.349,1.259c-3.534,0.4-6.999,0.802-10.583-0.486c0.864-0.531,1.537-0.944,2.3-1.413
		c0.824,1.391,1.806-0.132,2.798-0.074c1.153,0.067,2.327-0.202,3.642-0.341c0.047-0.26,0.119-0.666,0.208-1.166
		c0.217,0,0.458,0.044,0.672-0.011c0.273-0.07,0.525-0.222,0.787-0.338c-0.155-0.208-0.308-0.418-0.466-0.623
		c-0.329-0.428-0.669-0.847-0.99-1.28c-1.169-1.58-2.21-3.277-3.531-4.718c-1.337-1.456-2.434-2.969-2.671-4.945
		c-0.224-1.868-1.339-3.188-2.507-4.496c-1.485-1.664-3.014-3.289-4.488-4.962c-0.493-0.56-0.988-0.763-1.759-0.682
		c-4.144,0.433-3.335-0.32-4.95,3.727c-0.857,2.147-1.351,4.405-1.312,6.827c0.06,3.619-0.441,7.245-0.437,10.867
		c0.005,3.262,0.318,6.526,0.6,9.782c0.137,1.579,0.796,3.034,1.96,4.141c1.915,1.82,3.878,3.594,5.888,5.309
		c0.389,0.331,1.082,0.305,1.889,0.507c-1.411,0.159-1.537,0.42-0.802,1.369c1.517,1.954,3.022,3.92,4.622,5.805
		c2.969,3.498,5.12,7.49,7.215,11.531c0.855,1.65,1.882,3.213,2.938,4.997c0.357-0.563,0.767-0.928,0.813-1.334
		c0.118-1.047,0.738-1.183,1.592-1.157c0.553,0.016,1.124-0.175,1.657-0.09c0.45,0.071,1.194,0.381,1.213,0.63
		c0.036,0.49-0.244,1.091-0.577,1.493c-0.246,0.296-0.773,0.414-1.197,0.494c-0.8,0.151-1.472,0.31-1.457,1.376
		c0.003,0.215-0.599,0.438-1.026,0.556c-0.726,1.642,0.27,3.087,1.153,4.285c2.812,3.817,3.586,8.171,4.027,12.716
		c0.323,3.324,1.158,6.605,1.358,9.931c0.181,3.009-0.013,6.07-0.361,9.071c-0.449,3.881-1.188,7.73-1.857,11.584
		c-0.479,2.762-0.255,5.488,0.201,8.218c0.297,1.769,0.584,3.539,0.878,5.309c0.122,0.733,0.419,1.224,1.176,1.613
		c0.563,0.289,1.114,1.111,1.186,1.75c0.36,3.213,1.733,5.869,4.094,8.017c0.752,0.685,1.655,1.205,2.496,1.791
		c0.39,0.272,0.819,0.491,1.19,0.785c1.048,0.832,1.629,1.892,1.275,3.254c-0.333,1.28-1.258,2.089-2.509,2.305
		c-1.798,0.311-3.638,0.656-5.441,0.577c-1.931-0.085-3.862-0.559-5.749-1.039c-0.791-0.201-1.683-0.695-2.158-1.333
		c-1.729-2.316-4.177-3.383-6.701-4.526c-1.959-0.887-3.778-2.2-5.444-3.583c-1.381-1.147-1.312-2.793-0.425-4.353
		c0.8-1.406,1.423-2.914,2.181-4.347c0.796-1.503,1.678-2.962,2.48-4.462c0.196-0.366,0.318-0.816,0.329-1.232
		c0.105-4.089-0.195-8.155-1.057-12.151c-0.28-1.303-0.922-2.536-1.468-3.771c-1.581-3.572-2.29-7.214-1.637-11.159
		c0.559-3.379,0.743-6.82,1.055-10.237c0.032-0.356-0.082-0.832-0.312-1.09c-1.954-2.195-3.913-4.389-5.952-6.505
		c-0.794-0.824-1.7-1.786-2.727-2.071c-1.072-0.298-2.488-0.15-3.503,0.33c-1.398,0.663-2.821,1.188-4.27,1.693
		c-0.302,0.105-0.531,0.421-0.794,0.639C256.471,332.577,256.594,332.687,256.718,332.796z M253.303,137.927
		c-0.748,0.09-1.497,0.169-2.243,0.271c-4.978,0.682-9.58,5.062-10.552,10.119c-0.676,3.512,0.778,6.509,2.633,9.34
		c2.82,4.302,6.63,7.573,10.912,10.337c1.338,0.864,2.706,1.681,4.058,2.524c1.121,0.699,2.215,1.327,3.641,0.753
		c2.853-1.149,5.252-2.875,7.151-5.296c0.606-0.773,1.387-1.52,1.115-2.607c-0.877-3.51-1.65-7.058-2.777-10.489
		c-1.263-3.848-3.206-7.401-5.905-10.469C259.204,139.987,256.773,138.033,253.303,137.927z M272.333,177.777
		c-0.625-3.583-1.197-6.869-1.82-10.444c-2.177,2.69-4.469,4.675-7.639,5.771C266.074,174.686,269.063,176.162,272.333,177.777z
		 M294.686,268.47c-0.852-1.004-1.611-0.209-2.193,0.048c-1.496,0.66-1.455,0.754-1.866-0.84c-0.472,0.145-0.938,0.289-1.5,0.463
		c0.262,0.474,0.498,0.833,0.667,1.223c0.4,0.924,0.744,1.906,1.984,0.833c0.102-0.088,0.311-0.046,0.466-0.077
		c1.322-0.27,2.656-0.499,3.964-0.83c0.929-0.235,1.638-0.005,2.243,0.694c0.194,0.224,0.407,0.433,0.589,0.624
		c0.707-0.533,1.293-1.006,1.914-1.428c0.276-0.188,0.826-0.2,0.903-0.416c0.38-1.067,1.293-0.912,2.075-0.98
		c0.546-0.049,1.119,0.178,1.658,0.108c0.47-0.06,0.908-0.362,1.36-0.558c-0.05-0.168-0.099-0.337-0.148-0.506
		c-1.135,0-2.271-0.037-3.404,0.01c-1.377,0.058-2.751,0.188-4.126,0.286c-0.157,0.011-0.416-0.034-0.457,0.041
		c-0.665,1.208-1.626,0.812-2.595,0.534C295.573,267.515,294.924,267.447,294.686,268.47z M288.462,275.293
		c-0.396-1.445-0.855-1.653-2.289-1.167c-0.557,0.188-1.329,0.64-1.664,0.43c-1.483-0.931-1.708,0.513-2.436,1.063
		c0.375,0.186,0.728,0.286,1.05,0.226c1.519-0.288,2.989-1.105,4.598-0.329C287.874,275.59,288.159,275.391,288.462,275.293z
		 M285.484,271.675c0.01-0.135,0.021-0.271,0.03-0.405c-0.741-0.206-1.483-0.411-2.298-0.637c0.215-0.27,0.357-0.447,0.639-0.799
		c-0.703-0.21-1.316-0.393-2.256-0.672c0.415,0.895,0.827,1.408,0.871,1.951c0.112,1.379,0.84,1.296,1.794,0.94
		C284.663,271.905,285.077,271.8,285.484,271.675z"/>
</g>
<g id="Layer_3">
	<path fill-rule="evenodd" clip-rule="evenodd" d="M249.74,298.874c-4.069,3.015-8.142,3.142-12.428,0.897
		c-0.555-0.291-1.543-0.266-2.095,0.038c-3.608,1.997-7.224,2.106-10.785,0.083c-1.073-0.609-1.7-0.552-2.739,0.053
		c-5.889,3.423-12.94,0.728-14.589-5.637c-0.341-1.317-0.13-2.975,0.354-4.279c3.934-10.606,7.991-21.166,12.013-31.741
		c2.858-7.515,5.933-14.958,8.46-22.584c0.918-2.77,0.615-5.971,0.715-8.981c0.189-5.64-0.237-11.351,0.494-16.913
		c1.541-11.719,11.057-18.485,22.753-17.477c13.346,1.151,18.576,10.535,19.191,21.509c0.337,6.011-0.053,12.06-0.011,18.091
		c0.009,1.37,0.248,2.814,0.728,4.094c6.781,18.048,13.636,36.069,20.438,54.111c1.417,3.759-0.286,8.025-3.897,9.936
		c-3.479,1.841-6.934,1.658-10.415-0.148c-0.668-0.345-1.813-0.357-2.479-0.018c-3.651,1.854-7.205,1.931-10.829-0.031
		c-0.548-0.298-1.483-0.554-1.918-0.293C258.223,302.273,253.963,301.753,249.74,298.874z M249.653,221.449
		c-3.187,0-6.373-0.021-9.56,0.007c-2.13,0.02-5.175-0.707-6.153,0.386c-1.14,1.273-0.469,4.164-0.591,6.353
		c-0.143,2.569,0.232,5.311-0.542,7.674c-2.159,6.583-4.787,13.012-7.247,19.496c-4.536,11.957-9.092,23.906-13.622,35.865
		c-0.824,2.175,0.084,4.182,2.197,5.044c2.438,0.994,5.169,0.178,6.646-1.988c1.46-2.141,2.981-2.145,4.456-0.009
		c2.197,3.181,6.561,3.237,8.75,0.112c1.6-2.284,3.037-2.293,4.576-0.029c2.194,3.229,6.827,3.087,8.825-0.271
		c1.616-2.716,3.292-2.714,4.827,0.004c1.839,3.25,6.616,3.516,8.734,0.483c1.763-2.52,3.087-2.522,4.812-0.015
		c1.835,2.672,6.316,2.828,8.274,0.287c2.262-2.937,2.97-2.935,5.159,0.01c1.384,1.859,4.655,2.397,6.885,1.131
		c1.829-1.041,2.317-2.946,1.386-5.393c-6.435-16.916-12.823-33.849-19.336-50.735c-1.303-3.376-2.128-6.728-1.851-10.357
		c0.141-1.842-0.089-3.712,0.056-5.553c0.15-1.909-0.434-2.611-2.455-2.55C259.142,221.542,254.396,221.446,249.653,221.449z
		 M250.52,197.32c-12.099-1.18-17.756,8.057-17.258,19.262c0.262,0.042,0.543,0.13,0.822,0.12c0.357-0.013,0.712-0.104,1.201-0.184
		C236.034,207.014,238.145,198.493,250.52,197.32z"/>
	<path fill-rule="evenodd" clip-rule="evenodd" d="M245.136,245.709c-0.272,0.975-0.445,1.713-0.683,2.43
		c-1.681,5.065-3.376,10.125-5.065,15.187c-0.268,0.803-0.62,1.54-1.659,1.314c-0.879-0.191-1.153-0.978-0.76-2.14
		c1.57-4.637,3.168-9.264,4.728-13.904c0.33-0.979,0.409-2.065,0.863-2.972c0.232-0.464,1.022-0.817,1.594-0.875
		C244.466,244.719,244.851,245.412,245.136,245.709z"/>
	<path fill-rule="evenodd" clip-rule="evenodd" d="M254.555,245.646c0.302-0.276,0.652-0.855,1.064-0.902
		c0.422-0.048,1.152,0.315,1.316,0.688c0.683,1.56,1.238,3.179,1.775,4.798c1.316,3.967,2.596,7.948,3.892,11.922
		c0.049,0.152,0.104,0.302,0.165,0.449c0.385,0.918,0.247,1.725-0.759,2.027c-0.9,0.271-1.364-0.359-1.632-1.166
		c-0.843-2.537-1.714-5.064-2.557-7.602c-1.025-3.088-2.035-6.182-3.048-9.275C254.699,246.362,254.664,246.124,254.555,245.646z"/>
	<path fill-rule="evenodd" clip-rule="evenodd" d="M251.063,256.753c0,2.794-0.015,5.588,0.008,8.382
		c0.008,0.907-0.176,1.631-1.253,1.634c-1.096,0.002-1.252-0.774-1.25-1.65c0.007-4.031,0.002-8.063,0.017-12.094
		c0.006-1.642,0.028-3.285,0.091-4.925c0.024-0.64,0.114-1.372,1.047-1.257c0.864,0.106,1.31,0.571,1.295,1.53
		c-0.042,2.792-0.015,5.586-0.015,8.38C251.022,256.753,251.043,256.753,251.063,256.753z"/>
</g>
</svg>
