<?xml version="1.0" encoding="utf-8"?>
<!-- Generator: Adobe Illustrator 16.0.0, SVG Export Plug-In . SVG Version: 6.00 Build 0)  -->
<!DOCTYPE svg PUBLIC "-//W3C//DTD SVG 1.1//EN" "http://www.w3.org/Graphics/SVG/1.1/DTD/svg11.dtd">
<svg version="1.1" id="Layer_1" xmlns="http://www.w3.org/2000/svg" xmlns:xlink="http://www.w3.org/1999/xlink" x="0px" y="0px"
	 width="500px" height="500px" viewBox="0 0 500 500" enable-background="new 0 0 500 500" xml:space="preserve">
<g>
	<defs>
		<rect id="SVGID_1_" width="500" height="500"/>
	</defs>
	<clipPath id="SVGID_2_">
		<use xlink:href="#SVGID_1_"  overflow="visible"/>
	</clipPath>
	<g clip-path="url(#SVGID_2_)">
		<defs>
			<rect id="SVGID_3_" width="500" height="500"/>
		</defs>
		<clipPath id="SVGID_4_">
			<use xlink:href="#SVGID_3_"  overflow="visible"/>
		</clipPath>
		<path clip-path="url(#SVGID_4_)" fill="#F25C28" d="M250.473,81.082c-93.449,0-168.919,75.705-168.919,168.918
			c0,93.21,75.708,168.919,168.919,168.919c93.213,0,168.92-75.709,168.92-168.919C419.393,156.787,343.686,81.082,250.473,81.082
			 M250.473,339.188c-49.209,0-89.19-39.979-89.19-89.189c0-49.209,39.981-89.192,89.19-89.192
			c49.213,0,89.191,39.983,89.191,89.192C339.426,299.21,299.686,339.188,250.473,339.188"/>
		<path clip-path="url(#SVGID_4_)" fill="#F27A27" d="M230.603,97.878c18.214,0,80.198-3.783,129.882,45.896
			c1.652,1.894,36.43,15.142,10.172-6.859c-26.025-22.004-58.909-56.546-144.076-51.339
			C220.667,86.996,215.933,99.06,230.603,97.878"/>
		<path clip-path="url(#SVGID_4_)" fill="#FCAF3B" d="M324.76,146.141c-16.09-10.408-39.033-21.765-62.695-22.711
			c-7.094,0-4.26,10.171,0,10.407c4.258,0,40.455,7.807,55.602,21.057C319.555,156.315,329.016,155.605,324.76,146.141"/>
		<path clip-path="url(#SVGID_4_)" fill="#FCAF3B" d="M147.088,171.692c0,0-10.883,14.431-13.486,21.529
			c-2.602,7.098,6.624,7.808,8.044,5.913c1.42-1.888,9.937-17.269,13.486-20.107C158.682,176.187,152.056,166.251,147.088,171.692"
			/>
		<path clip-path="url(#SVGID_4_)" fill="#FCAF3B" d="M126.504,208.597c-1.654,4.733-3.312,10.647-4.023,14.903
			c-0.708,4.26,8.519,7.099,10.175,1.893c1.657-5.201,3.077-12.536,3.784-13.246C137.625,206.233,129.108,199.843,126.504,208.597"
			/>
		<path clip-path="url(#SVGID_4_)" fill="#FCAF3B" d="M367.344,271.056c-1.184,10.175-6.859,28.154-8.988,31.938
			c-1.895,3.787,3.547,12.777,10.168,4.258c2.841-7.807,7.814-19.633,9.941-34.774C379.172,266.799,369.948,258.519,367.344,271.056
			"/>
		<path clip-path="url(#SVGID_4_)" fill="#FFFFFF" d="M135.733,119.643c13.248-10.646,55.359-38.798,86.117-39.273
			c4.494,0,4.731,3.787,5.205,5.206c0.47,1.42,22.47,73.577,22.47,73.577s4.497,8.516-8.278,10.173
			c-12.777,1.656-33.831,7.806-51.578,25.787c-1.418,1.182-4.492,3.787-8.515,0.473c-4.019-3.312-43.765-64.348-45.659-66.95
			C133.365,125.797,133.84,121.063,135.733,119.643"/>
		<path clip-path="url(#SVGID_4_)" fill="#E7E7E9" d="M188.017,196.06c0,0-4.495,3.311-8.518-2.129
			c-4.023-5.206-41.875-62.693-43.766-65.77c-1.894-3.077,0-6.152,1.891-7.57c4.496,7.095,41.165,62.22,44.005,65.059
			c2.839,2.838,5.913,2.367,8.99,0c2.84-2.366,30.518-27.917,57.014-26.497c2.603,0.236,1.892,1.891,1.892,4.022
			c0,2.13-1.892,4.731-6.623,4.968C235.331,167.434,201.264,177.606,188.017,196.06"/>
		<path clip-path="url(#SVGID_4_)" fill="#FFFFFF" d="M169.326,97.64c-4.023-9.936-12.302-21.766-5.205-25.787
			c6.86-4.02,13.959,12.541,16.326,20.108C178.551,92.911,173.349,98.588,169.326,97.64"/>
		<path clip-path="url(#SVGID_4_)" fill="#FFFFFF" d="M421.283,219.955c-3.547-16.561-18.215-65.061-41.635-84.933
			c-3.555-2.84-6.15-0.238-7.334,0.711c-1.184,0.944-63.877,42.819-63.877,42.819s-8.994,3.786,0,13.011
			c8.986,9.466,21.289,27.445,23.654,52.758c0.238,1.893,1.184,5.679,6.391,5.679c5.203,0,74.523-22.24,77.596-22.948
			C419.156,226.105,421.996,222.319,421.283,219.955"/>
		<path clip-path="url(#SVGID_4_)" fill="#E7E7E9" d="M332.563,245.977c0,0,1.424,5.443,7.812,3.785
			c6.388-1.654,72.155-22.002,75.472-23.183c3.311-1.186,3.785-4.969,3.311-7.097c-7.807,2.603-71.211,22-75.232,22.472
			c-4.021,0.477-6.154-1.893-6.863-5.678c-0.707-3.783-5.912-40.927-27.441-56.542c-2.131-1.418-2.838,0.237-4.021,1.893
			c-1.184,1.657-1.658,4.732,2.127,8.043C313.875,193.931,333.986,223.265,332.563,245.977"/>
		<path clip-path="url(#SVGID_4_)" fill="#FFFFFF" d="M402.832,170.271c9.936-4.021,21.766-12.302,25.789-5.441
			c4.018,6.861-12.543,13.958-20.111,16.325C407.799,179.498,402.123,174.292,402.832,170.271"/>
		<path clip-path="url(#SVGID_4_)" fill="#FFFFFF" d="M364.268,380.354c-13.248,10.649-55.359,38.801-86.111,39.276
			c-4.499,0-4.734-3.789-5.206-5.206c-0.475-1.42-22.478-73.58-22.478-73.58s-4.497-8.515,8.278-10.17
			c12.776-1.657,33.835-7.806,51.575-25.786c1.422-1.184,4.5-3.787,8.521-0.474c4.021,3.31,43.764,64.347,45.654,66.952
			C366.398,374.204,366.16,378.939,364.268,380.354"/>
		<path clip-path="url(#SVGID_4_)" fill="#E7E7E9" d="M311.986,303.939c0,0,4.496-3.31,8.514,2.131
			c4.023,5.205,41.877,62.691,43.768,65.769c1.893,3.077,0,6.15-1.891,7.57c-4.496-7.101-41.164-62.221-44.004-65.059
			c-2.84-2.841-5.914-2.367-8.992,0c-2.84,2.363-30.518,27.917-57.017,26.494c-2.598-0.232-1.892-1.888-1.892-4.021
			c0-2.128,1.892-4.73,6.625-4.963C264.666,332.566,298.736,322.395,311.986,303.939"/>
		<path clip-path="url(#SVGID_4_)" fill="#FFFFFF" d="M329.727,402.357c4.021,9.936,12.305,21.765,5.207,25.788
			c-6.863,4.023-13.961-12.537-16.328-20.107C320.5,407.088,325.705,401.647,329.727,402.357"/>
		<path clip-path="url(#SVGID_4_)" fill="#FFFFFF" d="M78.479,280.047c3.548,16.561,18.218,65.061,41.639,84.934
			c3.546,2.839,6.151,0.233,7.334-0.712c1.184-0.947,63.874-42.823,63.874-42.823s8.991-3.783,0-13.013
			c-8.987-9.462-21.289-27.439-23.656-52.753c-0.235-1.894-1.183-5.68-6.387-5.68c-5.205,0-74.524,22.239-77.6,22.947
			C80.607,273.896,78.004,277.682,78.479,280.047"/>
		<path clip-path="url(#SVGID_4_)" fill="#E7E7E9" d="M167.434,254.023c0,0-1.42-5.443-7.808-3.79
			c-6.387,1.658-72.157,22.006-75.471,23.185c-3.308,1.421-3.784,4.972-3.308,7.103c7.803-2.604,71.209-22.002,75.23-22.478
			c4.022-0.473,6.151,1.893,6.862,5.678c0.71,3.548,5.914,40.929,27.442,56.545c2.129,1.419,2.841-0.236,4.022-1.894
			c1.184-1.658,1.653-4.731-2.127-8.044C185.887,306.07,166.014,276.734,167.434,254.023"/>
		<path clip-path="url(#SVGID_4_)" fill="#FFFFFF" d="M97.169,331.146c-9.936,4.021-21.766,12.306-25.788,5.207
			c-4.021-6.862,12.541-13.959,20.109-16.324C92.438,321.919,98.114,327.127,97.169,331.146"/>
		<g opacity="0.5" clip-path="url(#SVGID_4_)" enable-background="new    ">
			<g>
				<defs>
					<rect id="SVGID_5_" x="134.589" y="134.589" width="230.822" height="230.822"/>
				</defs>
				<clipPath id="SVGID_6_">
					<use xlink:href="#SVGID_5_"  overflow="visible"/>
				</clipPath>
				<path clip-path="url(#SVGID_6_)" fill="#99C8CF" d="M365.411,250c0,63.738-51.672,115.411-115.412,115.411
					c-63.74,0-115.41-51.673-115.41-115.411c0-63.739,51.67-115.411,115.41-115.411C313.739,134.589,365.411,186.261,365.411,250"/>
			</g>
		</g>
	</g>
	<g clip-path="url(#SVGID_2_)">
		<defs>
			<rect id="SVGID_7_" width="500" height="500"/>
		</defs>
		<clipPath id="SVGID_8_">
			<use xlink:href="#SVGID_7_"  overflow="visible"/>
		</clipPath>
	</g>
	<g clip-path="url(#SVGID_2_)">
		<defs>
			<rect id="SVGID_9_" width="500" height="500"/>
		</defs>
		<clipPath id="SVGID_10_">
			<use xlink:href="#SVGID_9_"  overflow="visible"/>
		</clipPath>
		<path clip-path="url(#SVGID_10_)" d="M317,205.527v-7.352c-4-3.456-11.828-5.459-18.636-5.459
			c-32.021-0.001-63.676-0.013-95.696,0.01c-6.871,0.005-13.668,1.734-18.668,5.291v100.748c5,3.384,11.995,5.234,19.078,5.234
			h47.536c15.919,0,31.838,0.06,47.756-0.01c2.543-0.011,4.757-0.23,7.24-0.761c4.274-0.914,8.39-2.492,11.39-4.625v-7.369V205.527z
			 M247.598,297.153c0,0.248-0.037,0.847-0.067,0.847h-1.224c-14.748,0-29.5,0.049-44.248,0.009c-0.035,0-0.07,0.065-0.105,0.064
			c-4.102-0.028-8.038-1.015-11.779-2.708c-0.246-0.11-0.516-0.428-0.636-0.733c-0.049-0.111-0.083-0.211-0.084-0.309
			c-0.035-11.196-0.048-22.391-0.045-33.589c0-0.106-0.009-0.212,0.006-0.313c7.022-2.863,9.893-6.878,9.802-13.213
			c-0.065-4.397-3.218-10.22-10.218-12.254v-18.3c0-4.647,0.24-9.337,0.205-13.984c-0.001-0.068,0.048-0.12,0.054-0.182
			c0.009-0.095,0.029-0.195,0.051-0.277c0.021-0.074,0.067-0.135,0.098-0.201c0.028-0.057,0.053-0.12,0.09-0.171
			c0.174-0.251,0.441-0.444,0.805-0.598c3.411-1.445,6.942-2.399,10.605-2.627c0.008,0,0.017-0.002,0.025-0.002
			c0.341-0.021,0.686-0.026,1.029-0.034c0.187-0.005,0.372,0.29,0.559,0.29c14.601-0.022,29.242,0.132,43.844,0.132H247V233.2
			c-3,0.694-5.433,2.024-7.6,4.268c-4.06,4.206-5.296,9.218-3.816,14.844c1.505,5.717,5.349,9.376,11.03,11.022
			c0.665,0.191,0.988,0.357,0.986,1.116C247.575,275.355,247.601,286.248,247.598,297.153 M190,253.97v-12.577
			c1,1.55,4.008,3.692,3.877,6.649C193.758,250.711,191,252.602,190,253.97 M247,239.592v17.602c-4-0.762-6.53-4.936-6.462-8.881
			C240.607,244.303,243,240.233,247,239.592 M253,239.516c5,1.211,6.632,5.193,6.421,9.173c-0.215,4.04-2.421,7.851-6.421,8.5
			V239.516z M311.726,234.131c0.001,0.575-0.102,0.896-0.724,1.111c-5.899,2.038-9.361,6.776-9.309,12.663
			c0.046,5.177,3.049,9.563,7.989,11.747c0.472,0.208,1.155,0.403,1.66,0.57c0.14,0.045,0.657,0.099,0.657,0.188v1.038
			c0,10.832-0.148,21.723-0.12,32.556c0.002,0.81-0.259,1.146-1.027,1.467c-3.964,1.653-8.173,2.529-12.473,2.529h-43.366H253
			v-34.422c5-0.949,7.83-3.174,10.204-6.808c0.885-1.355,1.653-2.783,2.079-4.272c0.423-1.566,0.423-3.201,0.33-4.896
			C265.26,241.22,261,235.035,253,233.179v-34.4c1-0.02,1.332,0.222,1.719,0.222h0.471c7.129,0,14.27-0.144,21.41-0.145
			c7.312-0.001,14.622-0.068,21.909-0.059c4.294,0.005,8.409,0.873,12.356,2.577c0.623,0.269,0.871,0.562,0.87,1.267
			c-0.023,9.945-0.022,19.883-0.011,29.829C311.725,233.026,311.725,233.575,311.726,234.131 M312,241.461v12.34
			c-3-0.638-3.78-3.095-3.963-5.788C307.855,245.359,309,242.694,312,241.461"/>
		<path clip-path="url(#SVGID_10_)" d="M200.934,198.612c0.342-0.022,0.686-0.026,1.029-0.034
			C201.619,198.586,201.274,198.591,200.934,198.612"/>
		<path clip-path="url(#SVGID_10_)" d="M189.326,202.211c0.02-0.075,0.058-0.135,0.09-0.201
			C189.385,202.076,189.346,202.137,189.326,202.211"/>
		<path clip-path="url(#SVGID_10_)" d="M200.909,198.614c-3.663,0.229-7.192,1.182-10.604,2.627
			c-0.364,0.154-0.628,0.347-0.802,0.598c0.154-0.21,0.388-0.373,0.722-0.514C193.648,199.875,197.223,198.854,200.909,198.614"/>
		<path clip-path="url(#SVGID_10_)" d="M246.649,263.333c-5.682-1.646-9.49-5.305-10.995-11.022
			c-1.48-5.625-0.175-10.637,3.886-14.844c-4.061,4.207-5.427,9.219-3.947,14.844c1.505,5.718,5.344,9.376,11.026,11.022
			c0.664,0.193,0.985,0.428,0.983,1.187c-0.025,10.905-0.001,21.867-0.004,32.772c0.003-10.905-0.006-21.867,0.019-32.772
			C247.619,263.761,247.314,263.526,246.649,263.333"/>
		<path clip-path="url(#SVGID_10_)" d="M189.29,202.488c-0.006,0.062-0.024,0.114-0.024,0.182c0.036,4.647-0.143,9.337-0.143,13.984
			c0-4.647,0.179-9.295,0.143-13.942C189.266,202.628,189.283,202.563,189.29,202.488"/>
		<path clip-path="url(#SVGID_10_)" d="M201.954,298.143c0.035,0,0.07,0.005,0.105,0.005c14.748,0.04,29.5,0.13,44.248,0.13
			c-14.748,0-29.495-0.09-44.243-0.13C202.027,298.147,201.991,298.143,201.954,298.143"/>
		<path clip-path="url(#SVGID_10_)" d="M189.45,260.753c0-0.106,0.123-0.222,0.138-0.322c7.023-2.863,9.874-6.884,9.874-13.22
			v-0.001c0,6.334-2.932,10.352-9.954,13.214c-0.016,0.101-0.052,0.208-0.052,0.315c-0.004,11.198-0.014,22.396,0.022,33.593
			c0,0.097,0.023,0.205,0.072,0.316c-0.04-0.102-0.069-0.201-0.069-0.287C189.445,283.163,189.447,271.951,189.45,260.753"/>
		<path clip-path="url(#SVGID_10_)" d="M310.865,201.339c-3.947-1.704-8.063-2.607-12.355-2.612c-7.288-0.009-14.6-0.011-21.91-0.01
			c7.292-0.001,14.584,0.001,21.863,0.01c4.294,0.005,8.434,0.908,12.381,2.612c0.623,0.269,0.885,0.579,0.884,1.284
			c-0.023,9.946-0.016,19.892-0.003,29.838c-0.012-9.946-0.013-19.892,0.01-29.838C311.736,201.918,311.488,201.608,310.865,201.339
			"/>
		<path clip-path="url(#SVGID_10_)" d="M311.596,260.41c0-0.089-0.316-0.142-0.455-0.188c-0.505-0.167-0.987-0.362-1.458-0.57
			c0.471,0.208,0.953,0.403,1.458,0.57C311.278,260.269,311.596,260.321,311.596,260.41"/>
		<path clip-path="url(#SVGID_10_)" d="M255.188,198.468h-0.469c-0.388,0-0.597,0.036-1.281,0.056
			c0.685-0.02,0.894-0.056,1.281-0.056H255.188z"/>
		<path clip-path="url(#SVGID_10_)" d="M263.47,256.77c0.886-1.354,1.521-2.781,1.923-4.271c-0.427,1.489-1.085,2.916-1.97,4.271
			c-2.374,3.635-5.88,5.858-9.984,6.809C257.543,262.628,261.096,260.404,263.47,256.77"/>
		<path clip-path="url(#SVGID_10_)" d="M291.91,206.99c-8.579-0.001-15.505,6.897-15.505,15.444
			c-0.001,8.56,6.92,15.486,15.469,15.482c8.498-0.003,15.449-6.926,15.457-15.394C307.339,213.941,300.439,206.992,291.91,206.99
			 M291.737,231.925c-5.191-0.148-9.478-4.519-9.361-9.547c0.12-5.251,4.463-9.488,9.616-9.382c5.203,0.106,9.414,4.407,9.333,9.529
			C301.241,227.757,296.842,232.07,291.737,231.925"/>
		<path clip-path="url(#SVGID_10_)" d="M276.404,274.19c-0.028,8.616,6.812,15.55,15.381,15.587
			c8.489,0.037,15.509-6.83,15.545-15.205c0.038-8.627-6.74-15.638-15.164-15.687C283.414,258.836,276.433,265.614,276.404,274.19
			 M301.325,274.325c-0.021,5.273-4.313,9.489-9.622,9.449c-5.06-0.037-9.342-4.374-9.328-9.445c0.015-5.211,4.313-9.464,9.542-9.44
			C297.106,264.914,301.345,269.164,301.325,274.325"/>
		<path clip-path="url(#SVGID_10_)" d="M209.359,206.99c-8.587-0.002-15.51,6.878-15.522,15.428
			c-0.012,8.555,6.914,15.498,15.459,15.498c8.503,0,15.462-6.919,15.467-15.378C224.768,213.941,217.884,206.992,209.359,206.99
			 M209.221,231.929c-5.199-0.088-9.581-4.563-9.411-9.612c0.178-5.273,4.541-9.475,9.678-9.321c5.217,0.157,9.382,4.466,9.269,9.59
			C218.643,227.772,214.312,232.015,209.221,231.929"/>
		<path clip-path="url(#SVGID_10_)" d="M209.592,258.887c-8.748-0.048-15.718,6.726-15.755,15.312
			c-0.038,8.604,6.821,15.546,15.39,15.579c8.49,0.032,15.501-6.833,15.536-15.212C224.799,265.941,218.017,258.932,209.592,258.887
			 M209.088,283.774c-5.043-0.05-9.324-4.43-9.28-9.494c0.045-5.216,4.351-9.431,9.591-9.391c5.176,0.04,9.395,4.314,9.359,9.483
			C218.721,279.641,214.414,283.827,209.088,283.774"/>
	</g>
</g>
</svg>
