<?xml version="1.0" encoding="utf-8"?>
<!-- Generator: Adobe Illustrator 16.0.0, SVG Export Plug-In . SVG Version: 6.00 Build 0)  -->
<!DOCTYPE svg PUBLIC "-//W3C//DTD SVG 1.1//EN" "http://www.w3.org/Graphics/SVG/1.1/DTD/svg11.dtd">
<svg version="1.1" xmlns="http://www.w3.org/2000/svg" xmlns:xlink="http://www.w3.org/1999/xlink" x="0px" y="0px" width="500px"
	 height="500px" viewBox="0 0 500 500" enable-background="new 0 0 500 500" xml:space="preserve">
<g id="Layer_1">
	<g id="Layer_2_1_">
		<path fill="#F25C28" d="M250.473,81.081c-93.449,0-168.919,75.706-168.919,168.919c0,93.21,75.708,168.919,168.919,168.919
			c93.213,0,168.92-75.709,168.92-168.919C419.393,156.787,343.686,81.081,250.473,81.081z M250.473,339.188
			c-49.209,0-89.19-39.979-89.19-89.188c0-49.209,39.981-89.192,89.19-89.192c49.213,0,89.191,39.983,89.191,89.192
			C339.426,299.21,299.686,339.188,250.473,339.188z"/>
		<path fill="#F27A27" d="M230.603,97.878c18.214,0,80.198-3.783,129.882,45.896c1.652,1.894,36.43,15.142,10.172-6.859
			c-26.025-22.004-58.908-56.545-144.076-51.339C220.666,86.996,215.932,99.06,230.603,97.878"/>
		<path fill="#FCAF3B" d="M324.76,146.141c-16.09-10.408-39.033-21.765-62.695-22.711c-7.094,0-4.26,10.171,0,10.408
			c4.258,0,40.455,7.807,55.602,21.057C319.555,156.315,329.016,155.605,324.76,146.141z"/>
		<path fill="#FCAF3B" d="M147.088,171.692c0,0-10.883,14.431-13.486,21.529c-2.602,7.098,6.624,7.808,8.043,5.914
			c1.42-1.889,9.938-17.27,13.486-20.108C158.682,176.187,152.056,166.25,147.088,171.692z"/>
		<path fill="#FCAF3B" d="M126.504,208.597c-1.654,4.733-3.312,10.646-4.023,14.903c-0.708,4.26,8.519,7.099,10.175,1.893
			c1.657-5.201,3.077-12.536,3.784-13.246C137.625,206.233,129.108,199.843,126.504,208.597z"/>
		<path fill="#FCAF3B" d="M367.344,271.056c-1.184,10.175-6.859,28.154-8.988,31.938c-1.895,3.787,3.547,12.777,10.168,4.258
			c2.84-7.807,7.814-19.634,9.941-34.774C379.172,266.799,369.947,258.519,367.344,271.056z"/>
		<g>
			<path fill="#FFFFFF" d="M135.733,119.643c13.248-10.646,55.359-38.798,86.117-39.273c4.494,0,4.73,3.787,5.205,5.207
				c0.47,1.42,22.47,73.577,22.47,73.577s4.497,8.516-8.278,10.173c-12.777,1.656-33.832,7.806-51.578,25.787
				c-1.418,1.183-4.493,3.787-8.516,0.474c-4.019-3.312-43.765-64.348-45.659-66.951
				C133.365,125.796,133.839,121.063,135.733,119.643z"/>
			<path fill="#E7E7E9" d="M188.017,196.06c0,0-4.495,3.311-8.518-2.129c-4.023-5.206-41.875-62.693-43.766-65.77
				c-1.894-3.076,0-6.151,1.892-7.569c4.496,7.095,41.165,62.22,44.005,65.059c2.838,2.837,5.913,2.367,8.989,0
				c2.841-2.366,30.519-27.917,57.015-26.498c2.603,0.236,1.892,1.892,1.892,4.022c0,2.13-1.892,4.731-6.623,4.968
				C235.332,167.434,201.264,177.606,188.017,196.06"/>
			<path fill="#FFFFFF" d="M169.326,97.64c-4.023-9.936-12.302-21.766-5.205-25.787c6.86-4.02,13.959,12.541,16.326,20.108
				C178.55,92.911,173.349,98.588,169.326,97.64z"/>
		</g>
		<g>
			<path fill="#FFFFFF" d="M421.283,219.955c-3.547-16.561-18.215-65.061-41.635-84.933c-3.555-2.839-6.15-0.238-7.334,0.711
				c-1.184,0.944-63.877,42.819-63.877,42.819s-8.994,3.786,0,13.011c8.986,9.466,21.289,27.445,23.654,52.758
				c0.238,1.893,1.184,5.679,6.391,5.679c5.203,0,74.523-22.24,77.596-22.948C419.156,226.105,421.996,222.319,421.283,219.955z"/>
			<path fill="#E7E7E9" d="M332.563,245.977c0,0,1.424,5.443,7.813,3.785c6.387-1.654,72.154-22.002,75.471-23.183
				c3.311-1.187,3.785-4.97,3.311-7.097c-7.807,2.603-71.211,22-75.232,22.472c-4.021,0.477-6.154-1.893-6.863-5.678
				c-0.707-3.783-5.912-40.927-27.441-56.542c-2.131-1.417-2.838,0.237-4.021,1.894s-1.658,4.732,2.127,8.043
				C313.875,193.931,333.986,223.266,332.563,245.977"/>
			<path fill="#FFFFFF" d="M402.832,170.271c9.936-4.021,21.766-12.302,25.789-5.441c4.018,6.861-12.543,13.958-20.111,16.325
				C407.799,179.498,402.123,174.292,402.832,170.271z"/>
		</g>
		<g>
			<path fill="#FFFFFF" d="M364.268,380.354c-13.248,10.649-55.359,38.801-86.111,39.276c-4.499,0-4.734-3.789-5.206-5.206
				c-0.475-1.42-22.478-73.58-22.478-73.58s-4.498-8.515,8.278-10.17c12.776-1.657,33.835-7.806,51.575-25.786
				c1.422-1.184,4.5-3.787,8.521-0.474c4.021,3.31,43.764,64.347,45.654,66.952C366.398,374.204,366.16,378.939,364.268,380.354z"/>
			<path fill="#E7E7E9" d="M311.986,303.939c0,0,4.496-3.31,8.514,2.131c4.023,5.205,41.877,62.691,43.768,65.769
				c1.893,3.077,0,6.15-1.891,7.57c-4.496-7.101-41.164-62.221-44.004-65.059c-2.84-2.841-5.914-2.367-8.992,0
				c-2.84,2.363-30.518,27.917-57.017,26.494c-2.598-0.232-1.892-1.888-1.892-4.021c0-2.128,1.892-4.73,6.625-4.963
				C264.666,332.566,298.736,322.395,311.986,303.939"/>
			<path fill="#FFFFFF" d="M329.727,402.357c4.021,9.936,12.305,21.765,5.207,25.788c-6.863,4.024-13.961-12.537-16.328-20.107
				C320.5,407.088,325.705,401.647,329.727,402.357z"/>
		</g>
		<g>
			<path fill="#FFFFFF" d="M78.479,280.047c3.548,16.561,18.218,65.061,41.639,84.934c3.546,2.839,6.15,0.233,7.334-0.712
				c1.184-0.947,63.874-42.823,63.874-42.823s8.992-3.783,0-13.013c-8.987-9.462-21.289-27.439-23.655-52.753
				c-0.236-1.894-1.184-5.68-6.387-5.68c-5.205,0-74.524,22.239-77.6,22.947C80.608,273.896,78.005,277.682,78.479,280.047z"/>
			<path fill="#E7E7E9" d="M167.434,254.023c0,0-1.42-5.443-7.808-3.79c-6.387,1.658-72.157,22.005-75.471,23.185
				c-3.308,1.42-3.784,4.971-3.308,7.102c7.803-2.604,71.208-22.002,75.23-22.478c4.022-0.473,6.15,1.893,6.861,5.678
				c0.71,3.548,5.915,40.929,27.442,56.545c2.128,1.419,2.84-0.236,4.022-1.894c1.184-1.658,1.653-4.731-2.127-8.044
				C185.887,306.07,166.014,276.734,167.434,254.023"/>
			<path fill="#FFFFFF" d="M97.169,331.146c-9.937,4.021-21.766,12.306-25.789,5.207c-4.02-6.862,12.541-13.959,20.11-16.324
				C92.438,321.919,98.114,327.126,97.169,331.146z"/>
		</g>
	</g>
	<circle opacity="0.5" fill="#99C8CF" enable-background="new    " cx="250" cy="250" r="115.411"/>
	
		<image display="none" overflow="visible" width="1067" height="1067" xlink:href="../events/Sport icons-01.png"  transform="matrix(0.2249 0 0 0.2249 130.0024 130.0029)">
	</image>
</g>
<g id="Layer_2">
	<path fill-rule="evenodd" clip-rule="evenodd" d="M249.669,199.008c16.104,0,32.21,0.047,48.315-0.053
		c2.297-0.013,2.857,0.722,2.843,2.896c-0.087,12.406-0.043,24.813-0.046,37.22c0,19.856-0.028,39.71,0.034,59.566
		c0.008,2.077-0.52,2.764-2.715,2.758c-32.286-0.067-64.576-0.063-96.863,0.008c-2.26,0.006-2.854-0.688-2.836-2.892
		c0.106-12.714,0.077-25.429,0.076-38.145c-0.002-19.545,0.011-39.089-0.075-58.634c-0.01-2.124,0.561-2.773,2.718-2.762
		c16.183,0.083,32.365,0.045,48.549,0.045C249.669,199.013,249.669,199.01,249.669,199.008z M203.446,296.282
		c30.869,0,61.491,0,92.298,0c0-30.768,0-61.387,0-92.158c-30.804,0-61.482,0-92.298,0
		C203.446,234.876,203.446,265.443,203.446,296.282z"/>
	<path fill-rule="evenodd" clip-rule="evenodd" d="M249.696,240.596c6.033,0.384,9.451,4.653,9.564,9.837
		c0.109,4.998-4.781,9.595-9.839,9.284c-5.519-0.341-9.183-3.578-9.283-9.156C240.035,244.887,244.353,240.501,249.696,240.596z"/>
	<path fill-rule="evenodd" clip-rule="evenodd" d="M249.619,215.465c-9.096,0.001-18.19,0.001-27.287,0
		c-0.615,0-1.373,0.208-1.816-0.073c-0.736-0.465-1.842-1.347-1.752-1.879c0.131-0.783,1.102-1.513,1.861-2.068
		c0.354-0.259,1.047-0.066,1.586-0.066c18.345,0.002,36.688,0.005,55.034,0.01c0.615,0,1.404-0.2,1.808,0.102
		c0.654,0.49,1.459,1.325,1.449,2.001c-0.012,0.652-0.877,1.435-1.552,1.883c-0.433,0.288-1.198,0.087-1.814,0.088
		C267.962,215.465,258.789,215.464,249.619,215.465z"/>
	<path fill-rule="evenodd" clip-rule="evenodd" d="M214.897,250.157c0.001,9.324-0.004,18.647,0.007,27.972
		c0.001,1.454,0.002,2.976-1.951,3.013c-2.077,0.042-2.145-1.509-2.143-3.079c0.012-18.571-0.016-37.144,0.065-55.713
		c0.005-1.026,0.6-2.49,1.393-2.975c1.396-0.851,2.622,0.426,2.627,2.581c0.016,7.863,0.002,15.725,0.001,23.588
		C214.896,247.08,214.896,248.618,214.897,250.157z"/>
	<path fill-rule="evenodd" clip-rule="evenodd" d="M284.339,249.97c0.002-9.172,0-18.345,0.004-27.517
		c0-0.54-0.175-1.228,0.086-1.585c0.482-0.658,1.22-1.539,1.87-1.552c0.67-0.015,1.541,0.769,1.984,1.432
		c0.327,0.491,0.131,1.345,0.131,2.038c0.004,18.187,0.004,36.37,0.004,54.557c0,0.54,0.002,1.078-0.01,1.619
		c-0.026,1.374-0.751,2.44-2.074,2.108c-0.8-0.202-1.888-1.427-1.908-2.219c-0.158-6.16-0.089-12.329-0.089-18.496
		C284.337,256.893,284.337,253.432,284.339,249.97z"/>
	<path fill-rule="evenodd" clip-rule="evenodd" d="M249.665,288.984c-9.248-0.002-18.495,0-27.742-0.006
		c-0.615,0-1.413,0.183-1.802-0.126c-0.637-0.507-1.344-1.327-1.384-2.052c-0.032-0.581,0.791-1.335,1.401-1.784
		c0.358-0.267,1.044-0.105,1.582-0.105c18.572-0.006,37.145-0.008,55.715-0.008c0.464,0,1.076-0.17,1.357,0.061
		c0.688,0.559,1.698,1.315,1.686,1.975c-0.014,0.685-0.978,1.515-1.719,1.963c-0.512,0.309-1.352,0.083-2.047,0.083
		C267.698,288.986,258.683,288.986,249.665,288.984z"/>
	<path fill-rule="evenodd" clip-rule="evenodd" d="M287.76,213.019c-0.355,0.468-0.631,0.924-0.996,1.291
		c-4.832,4.85-9.659,9.702-14.55,14.493c-0.395,0.388-1.232,0.326-1.864,0.473c0.199-0.571,0.238-1.301,0.62-1.69
		c4.854-4.937,9.747-9.835,14.669-14.705c0.37-0.365,1.016-0.485,1.56-0.61C287.309,212.244,287.531,212.704,287.76,213.019z"/>
	<path fill-rule="evenodd" clip-rule="evenodd" d="M271.046,270.587c0.464,0.368,0.911,0.656,1.28,1.023
		c4.788,4.773,9.587,9.537,14.314,14.369c0.458,0.467,0.468,1.374,0.684,2.078c-0.647-0.269-1.451-0.376-1.914-0.831
		c-4.82-4.742-9.597-9.529-14.345-14.345c-0.411-0.417-0.571-1.108-0.749-1.701C270.285,271.077,270.743,270.825,271.046,270.587z"
		/>
	<path fill-rule="evenodd" clip-rule="evenodd" d="M229.221,271.563c-0.288,0.399-0.504,0.8-0.813,1.109
		c-4.886,4.903-9.767,9.811-14.708,14.655c-0.419,0.413-1.26,0.394-1.905,0.574c0.235-0.636,0.297-1.441,0.731-1.882
		c4.745-4.828,9.535-9.609,14.352-14.364c0.433-0.426,1.117-0.621,1.716-0.83C228.692,270.791,228.959,271.246,229.221,271.563z"/>
	<path fill-rule="evenodd" clip-rule="evenodd" d="M229.479,229.063c-0.76,0.207-1.252,0.462-1.724,0.428
		c-0.302-0.022-0.583-0.46-0.855-0.73c-4.791-4.783-9.596-9.554-14.344-14.38c-0.443-0.452-0.528-1.257-0.779-1.898
		c0.699,0.223,1.599,0.241,2.067,0.7c4.836,4.737,9.606,9.542,14.385,14.339C228.592,227.886,228.883,228.322,229.479,229.063z"/>
	<path fill-rule="evenodd" clip-rule="evenodd" d="M290.827,212.207c-1.859-0.059-3.294-1.594-3.235-3.46
		c0.058-1.842,1.66-3.373,3.446-3.297c1.719,0.075,3.353,1.826,3.294,3.53C294.269,210.791,292.668,212.265,290.827,212.207z"/>
	<path fill-rule="evenodd" clip-rule="evenodd" d="M290.871,294.908c-1.805-0.036-3.31-1.626-3.275-3.466
		c0.032-1.845,1.566-3.32,3.407-3.279c1.839,0.041,3.408,1.631,3.354,3.398C294.306,293.258,292.55,294.941,290.871,294.908z"/>
	<path fill-rule="evenodd" clip-rule="evenodd" d="M208.379,205.465c1.817,0.04,3.291,1.609,3.262,3.474
		c-0.03,1.864-1.536,3.308-3.412,3.27c-1.829-0.038-3.384-1.625-3.33-3.4C204.953,207.073,206.664,205.429,208.379,205.465z"/>
	<path fill-rule="evenodd" clip-rule="evenodd" d="M211.639,291.574c-0.028,1.823-1.624,3.389-3.406,3.337
		c-1.725-0.049-3.375-1.774-3.333-3.487c0.047-1.854,1.573-3.292,3.459-3.261C210.222,288.194,211.667,289.698,211.639,291.574z"/>
</g>
</svg>
