<?xml version="1.0" encoding="utf-8"?>
<!-- Generator: Adobe Illustrator 16.0.0, SVG Export Plug-In . SVG Version: 6.00 Build 0)  -->
<!DOCTYPE svg PUBLIC "-//W3C//DTD SVG 1.1//EN" "http://www.w3.org/Graphics/SVG/1.1/DTD/svg11.dtd">
<svg version="1.1" id="Layer_1" xmlns="http://www.w3.org/2000/svg" xmlns:xlink="http://www.w3.org/1999/xlink" x="0px" y="0px"
	 width="500px" height="500px" viewBox="0 0 500 500" enable-background="new 0 0 500 500" xml:space="preserve">
<g>
	<defs>
		<rect id="SVGID_1_" width="500" height="500"/>
	</defs>
	<clipPath id="SVGID_2_">
		<use xlink:href="#SVGID_1_"  overflow="visible"/>
	</clipPath>
	<g clip-path="url(#SVGID_2_)">
		<defs>
			<rect id="SVGID_3_" width="500" height="500"/>
		</defs>
		<clipPath id="SVGID_4_">
			<use xlink:href="#SVGID_3_"  overflow="visible"/>
		</clipPath>
		<path clip-path="url(#SVGID_4_)" fill="#F25C28" d="M250.473,81.082c-93.449,0-168.919,75.705-168.919,168.918
			c0,93.21,75.708,168.919,168.919,168.919c93.213,0,168.92-75.709,168.92-168.919C419.393,156.787,343.686,81.082,250.473,81.082
			 M250.473,339.188c-49.209,0-89.19-39.979-89.19-89.189c0-49.209,39.981-89.192,89.19-89.192
			c49.213,0,89.191,39.983,89.191,89.192C339.426,299.21,299.686,339.188,250.473,339.188"/>
		<path clip-path="url(#SVGID_4_)" fill="#F27A27" d="M230.603,97.878c18.214,0,80.198-3.783,129.882,45.896
			c1.652,1.894,36.43,15.142,10.172-6.859c-26.025-22.004-58.909-56.546-144.076-51.339
			C220.667,86.996,215.933,99.06,230.603,97.878"/>
		<path clip-path="url(#SVGID_4_)" fill="#FCAF3B" d="M324.76,146.141c-16.09-10.408-39.033-21.765-62.695-22.711
			c-7.094,0-4.26,10.171,0,10.407c4.258,0,40.455,7.807,55.602,21.057C319.555,156.315,329.016,155.605,324.76,146.141"/>
		<path clip-path="url(#SVGID_4_)" fill="#FCAF3B" d="M147.088,171.692c0,0-10.883,14.431-13.486,21.529
			c-2.602,7.098,6.624,7.808,8.044,5.913c1.42-1.888,9.937-17.269,13.486-20.107C158.682,176.187,152.056,166.251,147.088,171.692"
			/>
		<path clip-path="url(#SVGID_4_)" fill="#FCAF3B" d="M126.504,208.597c-1.654,4.733-3.312,10.647-4.023,14.903
			c-0.708,4.26,8.519,7.099,10.175,1.893c1.657-5.201,3.077-12.536,3.784-13.246C137.625,206.233,129.108,199.843,126.504,208.597"
			/>
		<path clip-path="url(#SVGID_4_)" fill="#FCAF3B" d="M367.344,271.056c-1.184,10.175-6.859,28.154-8.988,31.938
			c-1.895,3.787,3.547,12.777,10.168,4.258c2.841-7.807,7.814-19.633,9.941-34.774C379.172,266.799,369.948,258.519,367.344,271.056
			"/>
		<path clip-path="url(#SVGID_4_)" fill="#FFFFFF" d="M135.733,119.643c13.248-10.646,55.359-38.798,86.117-39.273
			c4.494,0,4.731,3.787,5.205,5.206c0.47,1.42,22.47,73.577,22.47,73.577s4.497,8.516-8.278,10.173
			c-12.777,1.656-33.831,7.806-51.578,25.787c-1.418,1.182-4.492,3.787-8.515,0.473c-4.019-3.312-43.765-64.348-45.659-66.95
			C133.365,125.797,133.84,121.063,135.733,119.643"/>
		<path clip-path="url(#SVGID_4_)" fill="#E7E7E9" d="M188.017,196.06c0,0-4.495,3.311-8.518-2.129
			c-4.023-5.206-41.875-62.693-43.766-65.77c-1.894-3.077,0-6.152,1.891-7.57c4.496,7.095,41.165,62.22,44.005,65.059
			c2.839,2.838,5.913,2.367,8.99,0c2.84-2.366,30.518-27.917,57.014-26.497c2.603,0.236,1.892,1.891,1.892,4.022
			c0,2.13-1.892,4.731-6.623,4.968C235.331,167.434,201.264,177.606,188.017,196.06"/>
		<path clip-path="url(#SVGID_4_)" fill="#FFFFFF" d="M169.326,97.64c-4.023-9.936-12.302-21.766-5.205-25.787
			c6.86-4.02,13.959,12.541,16.326,20.108C178.551,92.911,173.349,98.588,169.326,97.64"/>
		<path clip-path="url(#SVGID_4_)" fill="#FFFFFF" d="M421.283,219.955c-3.547-16.561-18.215-65.061-41.635-84.933
			c-3.555-2.84-6.15-0.238-7.334,0.711c-1.184,0.944-63.877,42.819-63.877,42.819s-8.994,3.786,0,13.011
			c8.986,9.466,21.289,27.445,23.654,52.758c0.238,1.893,1.184,5.679,6.391,5.679c5.203,0,74.523-22.24,77.596-22.948
			C419.156,226.105,421.996,222.319,421.283,219.955"/>
		<path clip-path="url(#SVGID_4_)" fill="#E7E7E9" d="M332.563,245.977c0,0,1.424,5.443,7.812,3.785
			c6.388-1.654,72.155-22.002,75.472-23.183c3.311-1.186,3.785-4.969,3.311-7.097c-7.807,2.603-71.211,22-75.232,22.472
			c-4.021,0.477-6.154-1.893-6.863-5.678c-0.707-3.783-5.912-40.927-27.441-56.542c-2.131-1.418-2.838,0.237-4.021,1.893
			c-1.184,1.657-1.658,4.732,2.127,8.043C313.875,193.931,333.986,223.265,332.563,245.977"/>
		<path clip-path="url(#SVGID_4_)" fill="#FFFFFF" d="M402.832,170.271c9.936-4.021,21.766-12.302,25.789-5.441
			c4.018,6.861-12.543,13.958-20.111,16.325C407.799,179.498,402.123,174.292,402.832,170.271"/>
		<path clip-path="url(#SVGID_4_)" fill="#FFFFFF" d="M364.268,380.354c-13.248,10.649-55.359,38.801-86.111,39.276
			c-4.499,0-4.734-3.789-5.206-5.206c-0.475-1.42-22.478-73.58-22.478-73.58s-4.497-8.515,8.278-10.17
			c12.776-1.657,33.835-7.806,51.575-25.786c1.422-1.184,4.5-3.787,8.521-0.474c4.021,3.31,43.764,64.347,45.654,66.952
			C366.398,374.204,366.16,378.939,364.268,380.354"/>
		<path clip-path="url(#SVGID_4_)" fill="#E7E7E9" d="M311.986,303.939c0,0,4.496-3.31,8.514,2.131
			c4.023,5.205,41.877,62.691,43.768,65.769c1.893,3.077,0,6.15-1.891,7.57c-4.496-7.101-41.164-62.221-44.004-65.059
			c-2.84-2.841-5.914-2.367-8.992,0c-2.84,2.363-30.518,27.917-57.017,26.494c-2.598-0.232-1.892-1.888-1.892-4.021
			c0-2.128,1.892-4.73,6.625-4.963C264.666,332.566,298.736,322.395,311.986,303.939"/>
		<path clip-path="url(#SVGID_4_)" fill="#FFFFFF" d="M329.727,402.357c4.021,9.936,12.305,21.765,5.207,25.788
			c-6.863,4.023-13.961-12.537-16.328-20.107C320.5,407.088,325.705,401.647,329.727,402.357"/>
		<path clip-path="url(#SVGID_4_)" fill="#FFFFFF" d="M78.479,280.047c3.548,16.561,18.218,65.061,41.639,84.934
			c3.546,2.839,6.151,0.233,7.334-0.712c1.184-0.947,63.874-42.823,63.874-42.823s8.991-3.783,0-13.013
			c-8.987-9.462-21.289-27.439-23.656-52.753c-0.235-1.894-1.183-5.68-6.387-5.68c-5.205,0-74.524,22.239-77.6,22.947
			C80.607,273.896,78.004,277.682,78.479,280.047"/>
		<path clip-path="url(#SVGID_4_)" fill="#E7E7E9" d="M167.434,254.023c0,0-1.42-5.443-7.808-3.79
			c-6.387,1.658-72.157,22.006-75.471,23.185c-3.308,1.421-3.784,4.972-3.308,7.103c7.803-2.604,71.209-22.002,75.23-22.478
			c4.022-0.473,6.151,1.893,6.862,5.678c0.71,3.548,5.914,40.929,27.442,56.545c2.129,1.419,2.841-0.236,4.022-1.894
			c1.184-1.658,1.653-4.731-2.127-8.044C185.887,306.07,166.014,276.734,167.434,254.023"/>
		<path clip-path="url(#SVGID_4_)" fill="#FFFFFF" d="M97.169,331.146c-9.936,4.021-21.766,12.306-25.788,5.207
			c-4.021-6.862,12.541-13.959,20.109-16.324C92.438,321.919,98.114,327.127,97.169,331.146"/>
		<g opacity="0.5" clip-path="url(#SVGID_4_)" enable-background="new    ">
			<g>
				<defs>
					<rect id="SVGID_5_" x="134.589" y="134.589" width="230.822" height="230.822"/>
				</defs>
				<clipPath id="SVGID_6_">
					<use xlink:href="#SVGID_5_"  overflow="visible"/>
				</clipPath>
				<path clip-path="url(#SVGID_6_)" fill="#99C8CF" d="M365.411,250c0,63.738-51.672,115.411-115.412,115.411
					c-63.74,0-115.41-51.673-115.41-115.411c0-63.739,51.67-115.411,115.41-115.411C313.739,134.589,365.411,186.261,365.411,250"/>
			</g>
		</g>
	</g>
	<g clip-path="url(#SVGID_2_)">
		<defs>
			<rect id="SVGID_7_" width="500" height="500"/>
		</defs>
		<clipPath id="SVGID_8_">
			<use xlink:href="#SVGID_7_"  overflow="visible"/>
		</clipPath>
	</g>
	<g clip-path="url(#SVGID_2_)">
		<defs>
			<rect id="SVGID_9_" width="500" height="500"/>
		</defs>
		<clipPath id="SVGID_10_">
			<use xlink:href="#SVGID_9_"  overflow="visible"/>
		</clipPath>
	</g>
	<g clip-path="url(#SVGID_2_)">
		<defs>
			<rect id="SVGID_11_" width="500" height="500"/>
		</defs>
		<clipPath id="SVGID_12_">
			<use xlink:href="#SVGID_11_"  overflow="visible"/>
		</clipPath>
	</g>
	<g clip-path="url(#SVGID_2_)">
		<defs>
			<rect id="SVGID_13_" width="500" height="500"/>
		</defs>
		<clipPath id="SVGID_14_">
			<use xlink:href="#SVGID_13_"  overflow="visible"/>
		</clipPath>
	</g>
	<g clip-path="url(#SVGID_2_)">
		<defs>
			<rect id="SVGID_15_" width="500" height="500"/>
		</defs>
		<clipPath id="SVGID_16_">
			<use xlink:href="#SVGID_15_"  overflow="visible"/>
		</clipPath>
	</g>
	<g clip-path="url(#SVGID_2_)">
		<defs>
			<rect id="SVGID_17_" width="500" height="500"/>
		</defs>
		<clipPath id="SVGID_18_">
			<use xlink:href="#SVGID_17_"  overflow="visible"/>
		</clipPath>
		<path clip-path="url(#SVGID_18_)" d="M192.464,283.579c-5.459-7.09-4.419-15.931,0.729-21.379
			c5.073-5.368,14.32-7.214,22.022-1.317c0.2-0.299,0.377-0.68,0.656-0.96c14.328-14.343,28.665-28.678,43-43.014
			c1.679-1.679,2.67-1.723,4.436-0.202c2.216,1.909,5.133,1.79,7.281-0.335c2.65-2.622,5.276-5.27,7.912-7.906
			c6.687-6.685,13.37-13.372,20.058-20.055c3.741-3.741,9.551-3.812,13.154-0.166c3.589,3.631,3.526,9.376-0.186,13.096
			c-9.241,9.261-18.499,18.505-27.75,27.757c-2.509,2.509-2.599,5.189-0.265,7.847c1.046,1.19,1.028,2.487-0.051,3.649
			c-0.159,0.171-0.328,0.332-0.492,0.497c-25.092,25.092-50.184,50.183-75.275,75.275c-0.164,0.165-0.326,0.333-0.496,0.493
			c-1.282,1.209-2.607,1.209-3.854-0.035c-4.243-4.232-8.477-8.472-12.714-12.71c-2.495-2.495-4.994-4.986-7.484-7.487
			c-1.33-1.335-1.331-2.652-0.002-3.986c2.796-2.807,5.598-5.607,8.408-8.399C191.808,283.985,192.143,283.809,192.464,283.579
			 M196.705,287.173c-2.608,2.587-5.127,5.085-7.584,7.522c5.344,5.344,10.751,10.751,16.072,16.072
			c18.673-18.674,37.39-37.39,55.95-55.949c-5.346-5.345-10.768-10.767-16.108-16.108c-8.701,8.701-17.496,17.496-26.308,26.308
			c4.254,7.629,1.829,15.574-2.851,19.964C211.259,289.313,203.622,291.112,196.705,287.173 M255.445,228.061
			c5.5,5.499,10.924,10.922,16.285,16.283c1.923-1.937,3.935-3.962,5.965-6.006c-2.49-4.73-1.153-9.875,2.349-13.303
			c9.13-8.938,18.103-18.036,27.134-27.074c0.353-0.352,0.712-0.708,0.998-1.111c1.526-2.138,0.455-5.048-2.086-5.706
			c-1.565-0.406-2.767,0.22-3.847,1.302c-9.169,9.182-18.348,18.355-27.524,27.531c-3.714,3.714-7.971,4.502-12.773,2.403
			c-0.246-0.108-0.728-0.047-0.91,0.13C259.126,224.361,257.254,226.253,255.445,228.061 M194.267,273.243
			c-0.007,5.865,4.701,10.606,10.562,10.636c5.802,0.029,10.624-4.765,10.645-10.584c0.021-5.813-4.771-10.62-10.593-10.622
			C199.007,262.67,194.274,267.384,194.267,273.243 M249.06,234.503c5.47,5.47,10.881,10.881,16.292,16.292
			c0.746-0.734,1.518-1.496,2.217-2.185c-5.445-5.445-10.87-10.87-16.296-16.295C250.589,232.99,249.837,233.734,249.06,234.503"/>
	</g>
</g>
</svg>
