<?xml version="1.0" encoding="utf-8"?>
<!-- Generator: Adobe Illustrator 16.0.0, SVG Export Plug-In . SVG Version: 6.00 Build 0)  -->
<!DOCTYPE svg PUBLIC "-//W3C//DTD SVG 1.1//EN" "http://www.w3.org/Graphics/SVG/1.1/DTD/svg11.dtd">
<svg version="1.1" id="Layer_1" xmlns="http://www.w3.org/2000/svg" xmlns:xlink="http://www.w3.org/1999/xlink" x="0px" y="0px"
	 width="500px" height="500px" viewBox="0 0 500 500" enable-background="new 0 0 500 500" xml:space="preserve">
<g id="Layer_2_1_">
	<path fill="#F25C28" d="M250.473,81.081c-93.449,0-168.919,75.706-168.919,168.919c0,93.21,75.708,168.919,168.919,168.919
		c93.213,0,168.92-75.709,168.92-168.919C419.393,156.787,343.686,81.081,250.473,81.081z M250.473,339.188
		c-49.209,0-89.19-39.979-89.19-89.188c0-49.209,39.981-89.192,89.19-89.192c49.213,0,89.191,39.983,89.191,89.192
		C339.426,299.21,299.686,339.188,250.473,339.188z"/>
	<path fill="#F27A27" d="M230.603,97.878c18.214,0,80.198-3.783,129.882,45.896c1.652,1.894,36.43,15.142,10.172-6.859
		c-26.025-22.004-58.908-56.545-144.076-51.339C220.666,86.996,215.932,99.06,230.603,97.878"/>
	<path fill="#FCAF3B" d="M324.76,146.141c-16.09-10.408-39.033-21.765-62.695-22.711c-7.094,0-4.26,10.171,0,10.408
		c4.258,0,40.455,7.807,55.602,21.057C319.555,156.315,329.016,155.605,324.76,146.141z"/>
	<path fill="#FCAF3B" d="M147.088,171.692c0,0-10.883,14.431-13.486,21.529c-2.602,7.098,6.624,7.808,8.043,5.914
		c1.42-1.889,9.938-17.27,13.486-20.108C158.682,176.187,152.056,166.25,147.088,171.692z"/>
	<path fill="#FCAF3B" d="M126.504,208.597c-1.654,4.733-3.312,10.646-4.023,14.903c-0.708,4.26,8.519,7.099,10.175,1.893
		c1.657-5.201,3.077-12.536,3.784-13.246C137.625,206.233,129.108,199.843,126.504,208.597z"/>
	<path fill="#FCAF3B" d="M367.344,271.056c-1.184,10.175-6.859,28.154-8.988,31.938c-1.895,3.787,3.547,12.777,10.168,4.258
		c2.84-7.807,7.814-19.634,9.941-34.774C379.172,266.799,369.947,258.519,367.344,271.056z"/>
	<g>
		<path fill="#FFFFFF" d="M135.733,119.643c13.248-10.646,55.359-38.798,86.117-39.273c4.494,0,4.73,3.787,5.205,5.207
			c0.47,1.42,22.47,73.577,22.47,73.577s4.497,8.516-8.278,10.173c-12.777,1.656-33.832,7.806-51.578,25.787
			c-1.418,1.183-4.493,3.787-8.516,0.474c-4.019-3.312-43.765-64.348-45.659-66.951
			C133.365,125.796,133.839,121.063,135.733,119.643z"/>
		<path fill="#E7E7E9" d="M188.017,196.06c0,0-4.495,3.311-8.518-2.129c-4.023-5.206-41.875-62.693-43.766-65.77
			c-1.894-3.076,0-6.151,1.892-7.569c4.496,7.095,41.165,62.22,44.005,65.059c2.838,2.837,5.913,2.367,8.989,0
			c2.841-2.366,30.519-27.917,57.015-26.498c2.603,0.236,1.892,1.892,1.892,4.022c0,2.13-1.892,4.731-6.623,4.968
			C235.332,167.434,201.264,177.606,188.017,196.06"/>
		<path fill="#FFFFFF" d="M169.326,97.64c-4.023-9.936-12.302-21.766-5.205-25.787c6.86-4.02,13.959,12.541,16.326,20.108
			C178.55,92.911,173.349,98.588,169.326,97.64z"/>
	</g>
	<g>
		<path fill="#FFFFFF" d="M421.283,219.955c-3.547-16.561-18.215-65.061-41.635-84.933c-3.555-2.839-6.15-0.238-7.334,0.711
			c-1.184,0.944-63.877,42.819-63.877,42.819s-8.994,3.786,0,13.011c8.986,9.466,21.289,27.445,23.654,52.758
			c0.238,1.893,1.184,5.679,6.391,5.679c5.203,0,74.523-22.24,77.596-22.948C419.156,226.105,421.996,222.319,421.283,219.955z"/>
		<path fill="#E7E7E9" d="M332.563,245.977c0,0,1.424,5.443,7.813,3.785c6.387-1.654,72.154-22.002,75.471-23.183
			c3.311-1.187,3.785-4.97,3.311-7.097c-7.807,2.603-71.211,22-75.232,22.472c-4.021,0.477-6.154-1.893-6.863-5.678
			c-0.707-3.783-5.912-40.927-27.441-56.542c-2.131-1.417-2.838,0.237-4.021,1.894s-1.658,4.732,2.127,8.043
			C313.875,193.931,333.986,223.266,332.563,245.977"/>
		<path fill="#FFFFFF" d="M402.832,170.271c9.936-4.021,21.766-12.302,25.789-5.441c4.018,6.861-12.543,13.958-20.111,16.325
			C407.799,179.498,402.123,174.292,402.832,170.271z"/>
	</g>
	<g>
		<path fill="#FFFFFF" d="M364.268,380.354c-13.248,10.649-55.359,38.801-86.111,39.276c-4.499,0-4.734-3.789-5.206-5.206
			c-0.475-1.42-22.478-73.58-22.478-73.58s-4.498-8.515,8.278-10.17c12.776-1.657,33.835-7.806,51.575-25.786
			c1.422-1.184,4.5-3.787,8.521-0.474c4.021,3.31,43.764,64.347,45.654,66.952C366.398,374.204,366.16,378.939,364.268,380.354z"/>
		<path fill="#E7E7E9" d="M311.986,303.939c0,0,4.496-3.31,8.514,2.131c4.023,5.205,41.877,62.691,43.768,65.769
			c1.893,3.077,0,6.15-1.891,7.57c-4.496-7.101-41.164-62.221-44.004-65.059c-2.84-2.841-5.914-2.367-8.992,0
			c-2.84,2.363-30.518,27.917-57.017,26.494c-2.598-0.232-1.892-1.888-1.892-4.021c0-2.128,1.892-4.73,6.625-4.963
			C264.666,332.566,298.736,322.395,311.986,303.939"/>
		<path fill="#FFFFFF" d="M329.727,402.357c4.021,9.936,12.305,21.765,5.207,25.788c-6.863,4.024-13.961-12.537-16.328-20.107
			C320.5,407.088,325.705,401.647,329.727,402.357z"/>
	</g>
	<g>
		<path fill="#FFFFFF" d="M78.479,280.047c3.548,16.561,18.218,65.061,41.639,84.934c3.546,2.839,6.15,0.233,7.334-0.712
			c1.184-0.947,63.874-42.823,63.874-42.823s8.992-3.783,0-13.013c-8.987-9.462-21.289-27.439-23.655-52.753
			c-0.236-1.894-1.184-5.68-6.387-5.68c-5.205,0-74.524,22.239-77.6,22.947C80.608,273.896,78.005,277.682,78.479,280.047z"/>
		<path fill="#E7E7E9" d="M167.434,254.023c0,0-1.42-5.443-7.808-3.79c-6.387,1.658-72.157,22.005-75.471,23.185
			c-3.308,1.42-3.784,4.971-3.308,7.102c7.803-2.604,71.208-22.002,75.23-22.478c4.022-0.473,6.15,1.893,6.861,5.678
			c0.71,3.548,5.915,40.929,27.442,56.545c2.128,1.419,2.84-0.236,4.022-1.894c1.184-1.658,1.653-4.731-2.127-8.044
			C185.887,306.07,166.014,276.734,167.434,254.023"/>
		<path fill="#FFFFFF" d="M97.169,331.146c-9.937,4.021-21.766,12.306-25.789,5.207c-4.02-6.862,12.541-13.959,20.11-16.324
			C92.438,321.919,98.114,327.126,97.169,331.146z"/>
	</g>
</g>
<circle opacity="0.5" fill="#99C8CF" enable-background="new    " cx="250" cy="250" r="115.411"/>
<image overflow="visible" width="1067" height="1067" xlink:href="events/Sport icons-01.png"  transform="matrix(0.2249 0 0 0.2249 130 130)">
</image>
</svg>
