<?xml version="1.0" encoding="utf-8"?>
<!-- Generator: Adobe Illustrator 16.0.0, SVG Export Plug-In . SVG Version: 6.00 Build 0)  -->
<!DOCTYPE svg PUBLIC "-//W3C//DTD SVG 1.1//EN" "http://www.w3.org/Graphics/SVG/1.1/DTD/svg11.dtd">
<svg version="1.1" id="Layer_1" xmlns="http://www.w3.org/2000/svg" xmlns:xlink="http://www.w3.org/1999/xlink" x="0px" y="0px"
	 width="500px" height="500px" viewBox="0 0 500 500" enable-background="new 0 0 500 500" xml:space="preserve">
<g id="Layer_2_1_">
	<path fill="#F25C28" d="M250.473,81.081c-93.449,0-168.919,75.706-168.919,168.919c0,93.21,75.708,168.919,168.919,168.919
		c93.213,0,168.92-75.709,168.92-168.919C419.393,156.787,343.686,81.081,250.473,81.081z M250.473,339.188
		c-49.209,0-89.19-39.979-89.19-89.188c0-49.209,39.981-89.192,89.19-89.192c49.213,0,89.191,39.983,89.191,89.192
		C339.426,299.21,299.686,339.188,250.473,339.188z"/>
	<path fill="#F27A27" d="M230.603,97.878c18.214,0,80.198-3.783,129.882,45.896c1.652,1.894,36.43,15.142,10.172-6.859
		c-26.025-22.004-58.908-56.545-144.076-51.339C220.666,86.996,215.932,99.06,230.603,97.878"/>
	<path fill="#FCAF3B" d="M324.76,146.141c-16.09-10.408-39.033-21.765-62.695-22.711c-7.094,0-4.26,10.171,0,10.408
		c4.258,0,40.455,7.807,55.602,21.057C319.555,156.315,329.016,155.605,324.76,146.141z"/>
	<path fill="#FCAF3B" d="M147.088,171.692c0,0-10.883,14.431-13.486,21.529c-2.602,7.098,6.624,7.808,8.043,5.914
		c1.42-1.889,9.938-17.27,13.486-20.108C158.682,176.187,152.056,166.25,147.088,171.692z"/>
	<path fill="#FCAF3B" d="M126.504,208.597c-1.654,4.733-3.312,10.646-4.023,14.903c-0.708,4.26,8.519,7.099,10.175,1.893
		c1.657-5.201,3.077-12.536,3.784-13.246C137.625,206.233,129.108,199.843,126.504,208.597z"/>
	<path fill="#FCAF3B" d="M367.344,271.056c-1.184,10.175-6.859,28.154-8.988,31.938c-1.895,3.787,3.547,12.777,10.168,4.258
		c2.84-7.807,7.814-19.634,9.941-34.774C379.172,266.799,369.947,258.519,367.344,271.056z"/>
	<g>
		<path fill="#FFFFFF" d="M135.733,119.643c13.248-10.646,55.359-38.798,86.117-39.273c4.494,0,4.73,3.787,5.205,5.207
			c0.47,1.42,22.47,73.577,22.47,73.577s4.497,8.516-8.278,10.173c-12.777,1.656-33.832,7.806-51.578,25.787
			c-1.418,1.183-4.493,3.787-8.516,0.474c-4.019-3.312-43.765-64.348-45.659-66.951
			C133.365,125.796,133.839,121.063,135.733,119.643z"/>
		<path fill="#E7E7E9" d="M188.017,196.06c0,0-4.495,3.311-8.518-2.129c-4.023-5.206-41.875-62.693-43.766-65.77
			c-1.894-3.076,0-6.151,1.892-7.569c4.496,7.095,41.165,62.22,44.005,65.059c2.838,2.837,5.913,2.367,8.989,0
			c2.841-2.366,30.519-27.917,57.015-26.498c2.603,0.236,1.892,1.892,1.892,4.022c0,2.13-1.892,4.731-6.623,4.968
			C235.332,167.434,201.264,177.606,188.017,196.06"/>
		<path fill="#FFFFFF" d="M169.326,97.64c-4.023-9.936-12.302-21.766-5.205-25.787c6.86-4.02,13.959,12.541,16.326,20.108
			C178.55,92.911,173.349,98.588,169.326,97.64z"/>
	</g>
	<g>
		<path fill="#FFFFFF" d="M421.283,219.955c-3.547-16.561-18.215-65.061-41.635-84.933c-3.555-2.839-6.15-0.238-7.334,0.711
			c-1.184,0.944-63.877,42.819-63.877,42.819s-8.994,3.786,0,13.011c8.986,9.466,21.289,27.445,23.654,52.758
			c0.238,1.893,1.184,5.679,6.391,5.679c5.203,0,74.523-22.24,77.596-22.948C419.156,226.105,421.996,222.319,421.283,219.955z"/>
		<path fill="#E7E7E9" d="M332.563,245.977c0,0,1.424,5.443,7.813,3.785c6.387-1.654,72.154-22.002,75.471-23.183
			c3.311-1.187,3.785-4.97,3.311-7.097c-7.807,2.603-71.211,22-75.232,22.472c-4.021,0.477-6.154-1.893-6.863-5.678
			c-0.707-3.783-5.912-40.927-27.441-56.542c-2.131-1.417-2.838,0.237-4.021,1.894s-1.658,4.732,2.127,8.043
			C313.875,193.931,333.986,223.266,332.563,245.977"/>
		<path fill="#FFFFFF" d="M402.832,170.271c9.936-4.021,21.766-12.302,25.789-5.441c4.018,6.861-12.543,13.958-20.111,16.325
			C407.799,179.498,402.123,174.292,402.832,170.271z"/>
	</g>
	<g>
		<path fill="#FFFFFF" d="M364.268,380.354c-13.248,10.649-55.359,38.801-86.111,39.276c-4.499,0-4.734-3.789-5.206-5.206
			c-0.475-1.42-22.478-73.58-22.478-73.58s-4.498-8.515,8.278-10.17c12.776-1.657,33.835-7.806,51.575-25.786
			c1.422-1.184,4.5-3.787,8.521-0.474c4.021,3.31,43.764,64.347,45.654,66.952C366.398,374.204,366.16,378.939,364.268,380.354z"/>
		<path fill="#E7E7E9" d="M311.986,303.939c0,0,4.496-3.31,8.514,2.131c4.023,5.205,41.877,62.691,43.768,65.769
			c1.893,3.077,0,6.15-1.891,7.57c-4.496-7.101-41.164-62.221-44.004-65.059c-2.84-2.841-5.914-2.367-8.992,0
			c-2.84,2.363-30.518,27.917-57.017,26.494c-2.598-0.232-1.892-1.888-1.892-4.021c0-2.128,1.892-4.73,6.625-4.963
			C264.666,332.566,298.736,322.395,311.986,303.939"/>
		<path fill="#FFFFFF" d="M329.727,402.357c4.021,9.936,12.305,21.765,5.207,25.788c-6.863,4.024-13.961-12.537-16.328-20.107
			C320.5,407.088,325.705,401.647,329.727,402.357z"/>
	</g>
	<g>
		<path fill="#FFFFFF" d="M78.479,280.047c3.548,16.561,18.218,65.061,41.639,84.934c3.546,2.839,6.15,0.233,7.334-0.712
			c1.184-0.947,63.874-42.823,63.874-42.823s8.992-3.783,0-13.013c-8.987-9.462-21.289-27.439-23.655-52.753
			c-0.236-1.894-1.184-5.68-6.387-5.68c-5.205,0-74.524,22.239-77.6,22.947C80.608,273.896,78.005,277.682,78.479,280.047z"/>
		<path fill="#E7E7E9" d="M167.434,254.023c0,0-1.42-5.443-7.808-3.79c-6.387,1.658-72.157,22.005-75.471,23.185
			c-3.308,1.42-3.784,4.971-3.308,7.102c7.803-2.604,71.208-22.002,75.23-22.478c4.022-0.473,6.15,1.893,6.861,5.678
			c0.71,3.548,5.915,40.929,27.442,56.545c2.128,1.419,2.84-0.236,4.022-1.894c1.184-1.658,1.653-4.731-2.127-8.044
			C185.887,306.07,166.014,276.734,167.434,254.023"/>
		<path fill="#FFFFFF" d="M97.169,331.146c-9.937,4.021-21.766,12.306-25.789,5.207c-4.02-6.862,12.541-13.959,20.11-16.324
			C92.438,321.919,98.114,327.126,97.169,331.146z"/>
	</g>
</g>
<circle opacity="0.5" fill="#99C8CF" enable-background="new    " cx="250" cy="250" r="115.411"/>
<path fill-rule="evenodd" clip-rule="evenodd" d="M250.677,309.459c-33.64-0.177-59.457-27.236-59.848-59.082
	c-0.416-33.806,27.307-61,60.541-60.614c31.707,0.368,59.06,26.099,59.112,59.785C310.534,282.482,283.972,309.287,250.677,309.459z
	 M215.613,282.993c0-0.025,0-0.051,0-0.076c2.022,0,4.046-0.037,6.068,0.02c0.736,0.021,1.141-0.255,1.553-0.826
	c3.412-4.741,6.847-9.466,10.3-14.177c0.396-0.541,0.465-0.989,0.251-1.638c-2.231-6.784-4.411-13.586-6.656-20.365
	c-0.144-0.434-0.646-0.915-1.084-1.061c-5.748-1.912-11.509-3.781-17.283-5.61c-0.41-0.13-1.052-0.017-1.405,0.236
	c-3.256,2.334-6.484,4.709-9.682,7.122c-0.342,0.258-0.617,0.833-0.629,1.27c-0.373,12.831,3.401,24.332,11.202,34.51
	c0.242,0.316,0.779,0.558,1.185,0.569C211.491,283.023,213.552,282.993,215.613,282.993z M247.603,215.488
	c0-2.923,0.034-5.847-0.033-8.769c-0.011-0.499-0.325-1.16-0.718-1.455c-3.146-2.359-6.329-4.671-9.546-6.932
	c-0.407-0.286-1.139-0.388-1.622-0.245c-12.304,3.653-22.078,10.814-29.369,21.36c-0.266,0.385-0.381,1.068-0.241,1.508
	c1.221,3.85,2.5,7.682,3.813,11.501c0.131,0.381,0.557,0.808,0.938,0.935c5.572,1.851,11.156,3.67,16.754,5.44
	c0.434,0.137,1.114,0.004,1.491-0.267c5.961-4.285,11.899-8.603,17.812-12.955c0.371-0.273,0.679-0.889,0.689-1.352
	C247.633,221.335,247.603,218.412,247.603,215.488z M250.727,303.244c5.891,0.061,11.723-0.963,17.41-2.893
	c0.614-0.208,0.972-0.502,1.182-1.164c1.289-4.063,2.651-8.102,3.939-12.165c0.12-0.381,0.032-0.974-0.199-1.297
	c-3.468-4.84-6.966-9.659-10.497-14.453c-0.257-0.348-0.826-0.657-1.252-0.66c-7.119-0.04-14.239-0.038-21.358-0.002
	c-0.394,0.002-0.921,0.287-1.158,0.609c-3.531,4.794-7.038,9.606-10.499,14.452c-0.285,0.399-0.4,1.131-0.25,1.598
	c1.278,3.987,2.611,7.957,4,11.907c0.164,0.465,0.69,0.968,1.161,1.135C238.829,302.304,244.632,303.288,250.727,303.244z
	 M253.714,215.388c0,2.961-0.025,5.922,0.027,8.882c0.007,0.44,0.259,1.038,0.6,1.288c5.977,4.391,11.979,8.747,18.001,13.077
	c0.324,0.233,0.914,0.343,1.288,0.224c5.598-1.776,11.184-3.59,16.757-5.44c0.379-0.126,0.798-0.556,0.93-0.937
	c1.327-3.857,2.618-7.729,3.859-11.614c0.135-0.422,0.06-1.072-0.188-1.43c-7.317-10.584-17.141-17.743-29.484-21.399
	c-0.443-0.131-1.122,0.027-1.514,0.303c-3.185,2.243-6.318,4.559-9.489,6.821c-0.574,0.409-0.818,0.837-0.807,1.567
	C253.741,209.615,253.714,212.502,253.714,215.388z M285.668,282.768c2.098,0,4.196,0.041,6.291-0.031
	c0.473-0.017,1.093-0.309,1.373-0.68c7.582-10.032,11.231-21.353,10.967-33.924c-0.008-0.378-0.262-0.879-0.563-1.105
	c-3.387-2.535-6.797-5.038-10.229-7.51c-0.297-0.214-0.844-0.3-1.192-0.189c-5.733,1.829-11.458,3.687-17.17,5.583
	c-0.382,0.126-0.814,0.55-0.939,0.929c-2.263,6.85-4.493,13.711-6.684,20.584c-0.13,0.409-0.021,1.049,0.23,1.4
	c3.421,4.779,6.876,9.534,10.363,14.264c0.256,0.348,0.827,0.634,1.262,0.647C281.472,282.804,283.57,282.768,285.668,282.768z
	 M250.653,230.54c-5.774,4.198-11.533,8.37-17.256,12.589c-0.251,0.185-0.356,0.852-0.244,1.203
	c2.031,6.375,4.117,12.733,6.154,19.107c0.234,0.732,0.566,0.979,1.339,0.976c6.667-0.03,13.334-0.03,20.001-0.001
	c0.76,0.004,1.123-0.214,1.359-0.955c1.951-6.126,3.888-12.259,5.963-18.343c0.454-1.332,0.168-1.938-0.909-2.702
	C261.57,238.512,256.142,234.524,250.653,230.54z M276.794,296.159c3.786-1.841,7.063-4.22,10.315-7.242c-2.046,0-3.749,0-5.453,0
	c-2.49,0-2.496-0.002-3.292,2.4C277.831,292.929,277.316,294.545,276.794,296.159z M222.145,289.183c-2.556,0-4.959,0-7.363,0
	c-0.064,0.132-0.129,0.265-0.193,0.396c3.205,2.313,6.41,4.625,9.616,6.938c0.098-0.1,0.197-0.198,0.295-0.298
	C223.71,293.861,222.921,291.504,222.145,289.183z M303.275,239.007c-0.863-4.09-1.994-7.798-3.77-11.533
	c-0.768,2.322-1.469,4.405-2.131,6.5c-0.072,0.227-0.017,0.651,0.142,0.771C299.349,236.138,301.212,237.491,303.275,239.007z
	 M201.854,227.86c-0.146-0.022-0.293-0.043-0.439-0.065c-1.137,3.489-2.274,6.978-3.412,10.466c0.107,0.057,0.214,0.115,0.321,0.172
	c1.766-1.292,3.539-2.577,5.288-3.893c0.149-0.112,0.247-0.466,0.189-0.651C203.172,231.873,202.508,229.868,201.854,227.86z
	 M250.659,200.361c1.879-1.372,3.655-2.669,5.659-4.132c-3.92-0.405-7.466-0.458-11.285,0.035
	C247.043,197.728,248.822,199.023,250.659,200.361z"/>
</svg>
