<?xml version="1.0" encoding="utf-8"?>
<!-- Generator: Adobe Illustrator 16.0.0, SVG Export Plug-In . SVG Version: 6.00 Build 0)  -->
<!DOCTYPE svg PUBLIC "-//W3C//DTD SVG 1.1//EN" "http://www.w3.org/Graphics/SVG/1.1/DTD/svg11.dtd">
<svg version="1.1" xmlns="http://www.w3.org/2000/svg" xmlns:xlink="http://www.w3.org/1999/xlink" x="0px" y="0px" width="500px"
	 height="500px" viewBox="0 0 500 500" enable-background="new 0 0 500 500" xml:space="preserve">
<g id="Layer_1">
	<g id="Layer_2_1_">
		<path fill="#F25C28" d="M250.473,81.081c-93.449,0-168.919,75.706-168.919,168.919c0,93.21,75.708,168.919,168.919,168.919
			c93.213,0,168.92-75.709,168.92-168.919C419.393,156.787,343.686,81.081,250.473,81.081z M250.473,339.188
			c-49.209,0-89.19-39.979-89.19-89.188c0-49.209,39.981-89.192,89.19-89.192c49.213,0,89.191,39.983,89.191,89.192
			C339.426,299.21,299.686,339.188,250.473,339.188z"/>
		<path fill="#F27A27" d="M230.603,97.878c18.214,0,80.198-3.783,129.882,45.896c1.652,1.894,36.43,15.142,10.172-6.859
			c-26.025-22.004-58.908-56.545-144.076-51.339C220.666,86.996,215.932,99.06,230.603,97.878"/>
		<path fill="#FCAF3B" d="M324.76,146.141c-16.09-10.408-39.033-21.765-62.695-22.711c-7.094,0-4.26,10.171,0,10.408
			c4.258,0,40.455,7.807,55.602,21.057C319.555,156.315,329.016,155.605,324.76,146.141z"/>
		<path fill="#FCAF3B" d="M147.088,171.692c0,0-10.883,14.431-13.486,21.529c-2.602,7.098,6.624,7.808,8.043,5.914
			c1.42-1.889,9.938-17.27,13.486-20.108C158.682,176.187,152.056,166.25,147.088,171.692z"/>
		<path fill="#FCAF3B" d="M126.504,208.597c-1.654,4.733-3.312,10.646-4.023,14.903c-0.708,4.26,8.519,7.099,10.175,1.893
			c1.657-5.201,3.077-12.536,3.784-13.246C137.625,206.233,129.108,199.843,126.504,208.597z"/>
		<path fill="#FCAF3B" d="M367.344,271.056c-1.184,10.175-6.859,28.154-8.988,31.938c-1.895,3.787,3.547,12.777,10.168,4.258
			c2.84-7.807,7.814-19.634,9.941-34.774C379.172,266.799,369.947,258.519,367.344,271.056z"/>
		<g>
			<path fill="#FFFFFF" d="M135.733,119.643c13.248-10.646,55.359-38.798,86.117-39.273c4.494,0,4.73,3.787,5.205,5.207
				c0.47,1.42,22.47,73.577,22.47,73.577s4.497,8.516-8.278,10.173c-12.777,1.656-33.832,7.806-51.578,25.787
				c-1.418,1.183-4.493,3.787-8.516,0.474c-4.019-3.312-43.765-64.348-45.659-66.951
				C133.365,125.796,133.839,121.063,135.733,119.643z"/>
			<path fill="#E7E7E9" d="M188.017,196.06c0,0-4.495,3.311-8.518-2.129c-4.023-5.206-41.875-62.693-43.766-65.77
				c-1.894-3.076,0-6.151,1.892-7.569c4.496,7.095,41.165,62.22,44.005,65.059c2.838,2.837,5.913,2.367,8.989,0
				c2.841-2.366,30.519-27.917,57.015-26.498c2.603,0.236,1.892,1.892,1.892,4.022c0,2.13-1.892,4.731-6.623,4.968
				C235.332,167.434,201.264,177.606,188.017,196.06"/>
			<path fill="#FFFFFF" d="M169.326,97.64c-4.023-9.936-12.302-21.766-5.205-25.787c6.86-4.02,13.959,12.541,16.326,20.108
				C178.55,92.911,173.349,98.588,169.326,97.64z"/>
		</g>
		<g>
			<path fill="#FFFFFF" d="M421.283,219.955c-3.547-16.561-18.215-65.061-41.635-84.933c-3.555-2.839-6.15-0.238-7.334,0.711
				c-1.184,0.944-63.877,42.819-63.877,42.819s-8.994,3.786,0,13.011c8.986,9.466,21.289,27.445,23.654,52.758
				c0.238,1.893,1.184,5.679,6.391,5.679c5.203,0,74.523-22.24,77.596-22.948C419.156,226.105,421.996,222.319,421.283,219.955z"/>
			<path fill="#E7E7E9" d="M332.563,245.977c0,0,1.424,5.443,7.813,3.785c6.387-1.654,72.154-22.002,75.471-23.183
				c3.311-1.187,3.785-4.97,3.311-7.097c-7.807,2.603-71.211,22-75.232,22.472c-4.021,0.477-6.154-1.893-6.863-5.678
				c-0.707-3.783-5.912-40.927-27.441-56.542c-2.131-1.417-2.838,0.237-4.021,1.894s-1.658,4.732,2.127,8.043
				C313.875,193.931,333.986,223.266,332.563,245.977"/>
			<path fill="#FFFFFF" d="M402.832,170.271c9.936-4.021,21.766-12.302,25.789-5.441c4.018,6.861-12.543,13.958-20.111,16.325
				C407.799,179.498,402.123,174.292,402.832,170.271z"/>
		</g>
		<g>
			<path fill="#FFFFFF" d="M364.268,380.354c-13.248,10.649-55.359,38.801-86.111,39.276c-4.499,0-4.734-3.789-5.206-5.206
				c-0.475-1.42-22.478-73.58-22.478-73.58s-4.498-8.515,8.278-10.17c12.776-1.657,33.835-7.806,51.575-25.786
				c1.422-1.184,4.5-3.787,8.521-0.474c4.021,3.31,43.764,64.347,45.654,66.952C366.398,374.204,366.16,378.939,364.268,380.354z"/>
			<path fill="#E7E7E9" d="M311.986,303.939c0,0,4.496-3.31,8.514,2.131c4.023,5.205,41.877,62.691,43.768,65.769
				c1.893,3.077,0,6.15-1.891,7.57c-4.496-7.101-41.164-62.221-44.004-65.059c-2.84-2.841-5.914-2.367-8.992,0
				c-2.84,2.363-30.518,27.917-57.017,26.494c-2.598-0.232-1.892-1.888-1.892-4.021c0-2.128,1.892-4.73,6.625-4.963
				C264.666,332.566,298.736,322.395,311.986,303.939"/>
			<path fill="#FFFFFF" d="M329.727,402.357c4.021,9.936,12.305,21.765,5.207,25.788c-6.863,4.024-13.961-12.537-16.328-20.107
				C320.5,407.088,325.705,401.647,329.727,402.357z"/>
		</g>
		<g>
			<path fill="#FFFFFF" d="M78.479,280.047c3.548,16.561,18.218,65.061,41.639,84.934c3.546,2.839,6.15,0.233,7.334-0.712
				c1.184-0.947,63.874-42.823,63.874-42.823s8.992-3.783,0-13.013c-8.987-9.462-21.289-27.439-23.655-52.753
				c-0.236-1.894-1.184-5.68-6.387-5.68c-5.205,0-74.524,22.239-77.6,22.947C80.608,273.896,78.005,277.682,78.479,280.047z"/>
			<path fill="#E7E7E9" d="M167.434,254.023c0,0-1.42-5.443-7.808-3.79c-6.387,1.658-72.157,22.005-75.471,23.185
				c-3.308,1.42-3.784,4.971-3.308,7.102c7.803-2.604,71.208-22.002,75.23-22.478c4.022-0.473,6.15,1.893,6.861,5.678
				c0.71,3.548,5.915,40.929,27.442,56.545c2.128,1.419,2.84-0.236,4.022-1.894c1.184-1.658,1.653-4.731-2.127-8.044
				C185.887,306.07,166.014,276.734,167.434,254.023"/>
			<path fill="#FFFFFF" d="M97.169,331.146c-9.937,4.021-21.766,12.306-25.789,5.207c-4.02-6.862,12.541-13.959,20.11-16.324
				C92.438,321.919,98.114,327.126,97.169,331.146z"/>
		</g>
	</g>
	<circle opacity="0.5" fill="#99C8CF" enable-background="new    " cx="250" cy="250" r="115.411"/>
	
		<image display="none" overflow="visible" width="1067" height="1067" xlink:href="../events/Sport icons-01.png"  transform="matrix(0.2249 0 0 0.2249 130.0024 130.0029)">
	</image>
</g>
<g id="Layer_2">
	<path fill-rule="evenodd" clip-rule="evenodd" d="M307.717,270.761c0,1.566,0.108,2.918-0.019,4.247
		c-0.544,5.717-5.456,10.099-11.227,10.092c-5.724-0.007-10.667-4.364-11.169-10.025c-0.225-2.536-0.131-5.102-0.156-7.653
		c-0.021-2.138-0.005-4.275-0.005-6.497c-23.019,0-45.984,0-69.108,0c0,0.399,0.002,0.798,0,1.196
		c-0.026,4.278,0.101,8.566-0.12,12.835c-0.286,5.545-5.236,9.99-10.956,10.132c-5.617,0.139-10.716-4.101-11.396-9.549
		c-0.19-1.521-0.175-3.066-0.259-4.692c-2.032,1.01-4.107,1.541-6.328,1.387c-5.924-0.412-10.495-5.305-10.501-11.271
		c-0.007-7.146-0.006-14.291,0-21.437c0.007-8.34,8.526-13.783,16.08-10.28c0.215,0.1,0.428,0.204,0.835,0.399
		c0-1.093-0.036-2.066,0.006-3.037c0.204-4.728,2.358-8.266,6.679-10.245c7.562-3.463,15.895,2.047,15.957,10.482
		c0.028,3.797,0.005,7.594,0.005,11.392c0,0.409,0,0.818,0,1.316c23.05,0,46.014,0,69.108,0c0-0.417-0.003-0.82,0.001-1.224
		c0.041-4.313-0.141-8.642,0.178-12.934c0.446-5.994,5.812-10.379,11.84-10.051c5.886,0.321,10.568,5.241,10.627,11.169
		c0.01,0.993,0.001,1.987,0.001,2.812c1.772-0.392,3.458-1.027,5.168-1.096c6.636-0.269,11.741,4.691,11.802,11.407
		c0.063,7.076,0.081,14.154-0.003,21.229c-0.101,8.499-8.405,13.749-16.158,10.294C308.381,271.063,308.167,270.965,307.717,270.761
		z M216.082,255.04c23.054,0,46.014,0,68.998,0c0-3.259,0-6.449,0-9.667c-23.025,0-45.987,0-68.998,0
		C216.082,248.608,216.082,251.773,216.082,255.04z M302.126,250.266c0-7.866,0.017-15.733-0.009-23.599
		c-0.01-3.179-2.559-5.686-5.65-5.659c-3.05,0.026-5.583,2.472-5.586,5.505c-0.018,15.802-0.014,31.603-0.001,47.404
		c0.001,1.979,0.926,3.52,2.567,4.578c1.829,1.179,3.777,1.274,5.689,0.231c1.977-1.077,2.987-2.796,2.988-5.069
		C302.127,265.859,302.126,258.063,302.126,250.266z M210.336,250.17c0-7.867,0.011-15.733-0.005-23.6
		c-0.007-3.746-3.682-6.409-7.261-5.3c-2.597,0.805-4.019,2.93-4.02,6.058c-0.004,15.25-0.002,30.5,0,45.75
		c0,0.344,0.017,0.689,0.049,1.032c0.295,3.18,2.838,5.464,5.888,5.295c3.108-0.173,5.347-2.615,5.348-5.843
		C210.337,265.766,210.336,257.968,210.336,250.17z M182.133,250.099c0,3.553-0.007,7.106,0.002,10.659
		c0.008,3.298,2.409,5.787,5.583,5.81c3.204,0.023,5.661-2.49,5.666-5.835c0.01-7.003,0.009-14.005,0.001-21.008
		c-0.004-3.336-2.465-5.887-5.638-5.876c-3.189,0.011-5.607,2.548-5.612,5.901C182.128,243.199,182.133,246.649,182.133,250.099z
		 M319.075,250.272c0-3.623,0.013-7.245-0.004-10.868c-0.013-2.726-2.039-5.056-4.716-5.471c-3.593-0.557-6.547,2.083-6.561,5.92
		c-0.022,5.969-0.009,11.937-0.004,17.906c0.001,1.206-0.044,2.419,0.064,3.617c0.282,3.12,2.825,5.334,5.869,5.188
		c3.042-0.145,5.345-2.609,5.35-5.736C319.079,257.311,319.075,253.791,319.075,250.272z"/>
</g>
</svg>
