<?xml version="1.0" encoding="utf-8"?>
<!-- Generator: Adobe Illustrator 16.0.0, SVG Export Plug-In . SVG Version: 6.00 Build 0)  -->
<!DOCTYPE svg PUBLIC "-//W3C//DTD SVG 1.1//EN" "http://www.w3.org/Graphics/SVG/1.1/DTD/svg11.dtd">
<svg version="1.1" xmlns="http://www.w3.org/2000/svg" xmlns:xlink="http://www.w3.org/1999/xlink" x="0px" y="0px" width="500px"
	 height="500px" viewBox="0 0 500 500" enable-background="new 0 0 500 500" xml:space="preserve">
<g id="Layer_1">
	<g id="Layer_2_1_">
		<path fill="#F25C28" d="M250.473,81.081c-93.449,0-168.919,75.706-168.919,168.919c0,93.21,75.708,168.919,168.919,168.919
			c93.213,0,168.92-75.709,168.92-168.919C419.393,156.787,343.686,81.081,250.473,81.081z M250.473,339.188
			c-49.209,0-89.19-39.979-89.19-89.188c0-49.209,39.981-89.192,89.19-89.192c49.213,0,89.191,39.983,89.191,89.192
			C339.426,299.21,299.686,339.188,250.473,339.188z"/>
		<path fill="#F27A27" d="M230.603,97.878c18.214,0,80.198-3.783,129.882,45.896c1.652,1.894,36.43,15.142,10.172-6.859
			c-26.025-22.004-58.908-56.545-144.076-51.339C220.666,86.996,215.932,99.06,230.603,97.878"/>
		<path fill="#FCAF3B" d="M324.76,146.141c-16.09-10.408-39.033-21.765-62.695-22.711c-7.094,0-4.26,10.171,0,10.408
			c4.258,0,40.455,7.807,55.602,21.057C319.555,156.315,329.016,155.605,324.76,146.141z"/>
		<path fill="#FCAF3B" d="M147.088,171.692c0,0-10.883,14.431-13.486,21.529c-2.602,7.098,6.624,7.808,8.043,5.914
			c1.42-1.889,9.938-17.27,13.486-20.108C158.682,176.187,152.056,166.25,147.088,171.692z"/>
		<path fill="#FCAF3B" d="M126.504,208.597c-1.654,4.733-3.312,10.646-4.023,14.903c-0.708,4.26,8.519,7.099,10.175,1.893
			c1.657-5.201,3.077-12.536,3.784-13.246C137.625,206.233,129.108,199.843,126.504,208.597z"/>
		<path fill="#FCAF3B" d="M367.344,271.056c-1.184,10.175-6.859,28.154-8.988,31.938c-1.895,3.787,3.547,12.777,10.168,4.258
			c2.84-7.807,7.814-19.634,9.941-34.774C379.172,266.799,369.947,258.519,367.344,271.056z"/>
		<g>
			<path fill="#FFFFFF" d="M135.733,119.643c13.248-10.646,55.359-38.798,86.117-39.273c4.494,0,4.73,3.787,5.205,5.207
				c0.47,1.42,22.47,73.577,22.47,73.577s4.497,8.516-8.278,10.173c-12.777,1.656-33.832,7.806-51.578,25.787
				c-1.418,1.183-4.493,3.787-8.516,0.474c-4.019-3.312-43.765-64.348-45.659-66.951
				C133.365,125.796,133.839,121.063,135.733,119.643z"/>
			<path fill="#E7E7E9" d="M188.017,196.06c0,0-4.495,3.311-8.518-2.129c-4.023-5.206-41.875-62.693-43.766-65.77
				c-1.894-3.076,0-6.151,1.892-7.569c4.496,7.095,41.165,62.22,44.005,65.059c2.838,2.837,5.913,2.367,8.989,0
				c2.841-2.366,30.519-27.917,57.015-26.498c2.603,0.236,1.892,1.892,1.892,4.022c0,2.13-1.892,4.731-6.623,4.968
				C235.332,167.434,201.264,177.606,188.017,196.06"/>
			<path fill="#FFFFFF" d="M169.326,97.64c-4.023-9.936-12.302-21.766-5.205-25.787c6.86-4.02,13.959,12.541,16.326,20.108
				C178.55,92.911,173.349,98.588,169.326,97.64z"/>
		</g>
		<g>
			<path fill="#FFFFFF" d="M421.283,219.955c-3.547-16.561-18.215-65.061-41.635-84.933c-3.555-2.839-6.15-0.238-7.334,0.711
				c-1.184,0.944-63.877,42.819-63.877,42.819s-8.994,3.786,0,13.011c8.986,9.466,21.289,27.445,23.654,52.758
				c0.238,1.893,1.184,5.679,6.391,5.679c5.203,0,74.523-22.24,77.596-22.948C419.156,226.105,421.996,222.319,421.283,219.955z"/>
			<path fill="#E7E7E9" d="M332.563,245.977c0,0,1.424,5.443,7.813,3.785c6.387-1.654,72.154-22.002,75.471-23.183
				c3.311-1.187,3.785-4.97,3.311-7.097c-7.807,2.603-71.211,22-75.232,22.472c-4.021,0.477-6.154-1.893-6.863-5.678
				c-0.707-3.783-5.912-40.927-27.441-56.542c-2.131-1.417-2.838,0.237-4.021,1.894s-1.658,4.732,2.127,8.043
				C313.875,193.931,333.986,223.266,332.563,245.977"/>
			<path fill="#FFFFFF" d="M402.832,170.271c9.936-4.021,21.766-12.302,25.789-5.441c4.018,6.861-12.543,13.958-20.111,16.325
				C407.799,179.498,402.123,174.292,402.832,170.271z"/>
		</g>
		<g>
			<path fill="#FFFFFF" d="M364.268,380.354c-13.248,10.649-55.359,38.801-86.111,39.276c-4.499,0-4.734-3.789-5.206-5.206
				c-0.475-1.42-22.478-73.58-22.478-73.58s-4.498-8.515,8.278-10.17c12.776-1.657,33.835-7.806,51.575-25.786
				c1.422-1.184,4.5-3.787,8.521-0.474c4.021,3.31,43.764,64.347,45.654,66.952C366.398,374.204,366.16,378.939,364.268,380.354z"/>
			<path fill="#E7E7E9" d="M311.986,303.939c0,0,4.496-3.31,8.514,2.131c4.023,5.205,41.877,62.691,43.768,65.769
				c1.893,3.077,0,6.15-1.891,7.57c-4.496-7.101-41.164-62.221-44.004-65.059c-2.84-2.841-5.914-2.367-8.992,0
				c-2.84,2.363-30.518,27.917-57.017,26.494c-2.598-0.232-1.892-1.888-1.892-4.021c0-2.128,1.892-4.73,6.625-4.963
				C264.666,332.566,298.736,322.395,311.986,303.939"/>
			<path fill="#FFFFFF" d="M329.727,402.357c4.021,9.936,12.305,21.765,5.207,25.788c-6.863,4.024-13.961-12.537-16.328-20.107
				C320.5,407.088,325.705,401.647,329.727,402.357z"/>
		</g>
		<g>
			<path fill="#FFFFFF" d="M78.479,280.047c3.548,16.561,18.218,65.061,41.639,84.934c3.546,2.839,6.15,0.233,7.334-0.712
				c1.184-0.947,63.874-42.823,63.874-42.823s8.992-3.783,0-13.013c-8.987-9.462-21.289-27.439-23.655-52.753
				c-0.236-1.894-1.184-5.68-6.387-5.68c-5.205,0-74.524,22.239-77.6,22.947C80.608,273.896,78.005,277.682,78.479,280.047z"/>
			<path fill="#E7E7E9" d="M167.434,254.023c0,0-1.42-5.443-7.808-3.79c-6.387,1.658-72.157,22.005-75.471,23.185
				c-3.308,1.42-3.784,4.971-3.308,7.102c7.803-2.604,71.208-22.002,75.23-22.478c4.022-0.473,6.15,1.893,6.861,5.678
				c0.71,3.548,5.915,40.929,27.442,56.545c2.128,1.419,2.84-0.236,4.022-1.894c1.184-1.658,1.653-4.731-2.127-8.044
				C185.887,306.07,166.014,276.734,167.434,254.023"/>
			<path fill="#FFFFFF" d="M97.169,331.146c-9.937,4.021-21.766,12.306-25.789,5.207c-4.02-6.862,12.541-13.959,20.11-16.324
				C92.438,321.919,98.114,327.126,97.169,331.146z"/>
		</g>
	</g>
	<circle opacity="0.5" fill="#99C8CF" enable-background="new    " cx="250" cy="250" r="115.411"/>
	
		<image display="none" overflow="visible" width="1067" height="1067" xlink:href="../events/Sport icons-01.png"  transform="matrix(0.2249 0 0 0.2249 130.0024 130.0029)">
	</image>
</g>
<g id="Layer_2" display="none">
	<path display="inline" fill-rule="evenodd" clip-rule="evenodd" d="M256.718,332.796c0.496-0.189,0.992-0.379,1.598-0.609
		c0.085,0.858,0.081,1.396-0.888,1.135c-0.167-0.045-0.482-0.007-0.545,0.101c-0.947,1.635-2.785,1.671-4.246,2.357
		c-1.174,0.553-2.437,0.917-3.661,1.364c-0.095-0.116-0.191-0.232-0.287-0.349c0.374-0.443,0.735-0.897,1.125-1.326
		c0.34-0.372,0.855-0.653,1.042-1.084c0.464-1.07,1.119-1.612,2.355-1.173c0.223-2.364-0.929-4.044-2.405-5.506
		c-0.388-0.385-1.193-0.348-1.851-0.516c0.133-0.148,0.35-0.391,0.539-0.601c-1.972-2.924-3.94-5.843-6.032-8.944
		c-0.956,2.845-1.938,5.701-2.871,8.573c-0.344,1.059-0.706,2.142-0.821,3.239c-0.168,1.602-0.129,3.226-0.15,4.841
		c-0.001,0.141,0.213,0.284,0.282,0.37c-2.074,1.156-4.302,0.658-6.471,0.709c-0.814,0.019-1.231,0.256-1.599,1.059
		c-2.886,6.308-5.737,12.648-9.99,18.195c-0.904,1.18-2.115,2.149-3.282,3.095c-2.701,2.185-4.963,4.623-6.317,7.939
		c-1.366,3.345-4.142,5.691-6.628,8.215c-3.132,3.179-6.357,6.281-9.269,9.654c-1.8,2.085-3.103,4.602-4.59,6.949
		c-0.158,0.25-0.096,0.672-0.061,1.005c0.082,0.771,0.454,1.598,0.28,2.295c-1.107,4.436,0.556,7.773,3.905,10.528
		c1.158,0.953,1.687,2.199,1.55,3.708c-0.125,1.378-0.862,2.274-2.147,2.745c-2.987,1.093-6.074,1.668-9.249,1.786
		c-2.536,0.094-4.056-1.04-4.713-3.488c-0.654-2.439-1.523-4.764-3.079-6.819c-0.832-1.099-0.577-2.408-0.185-3.675
		c0.219-0.708,0.272-1.467,0.408-2.201c0.694-3.741,0.996-7.634,4.299-10.302c1.948-1.574,2.797-3.926,3.604-6.111
		c1.594-4.313,3.567-8.434,5.569-12.552c1.376-2.832,2.75-5.667,4.189-8.468c2.024-3.94,5.249-6.736,8.829-9.213
		c1.424-0.986,2.876-2.045,3.969-3.359c0.814-0.979,1.092-2.412,1.564-3.66c0.175-0.464,0.225-0.976,0.376-1.668
		c-0.499,0.121-0.935,0.336-1.348,0.299c-0.489-0.044-1.18-0.171-1.384-0.506c-0.324-0.532-0.518-1.312,0.434-1.665
		c0.554-0.206,1.143-0.389,1.617-0.723c0.565-0.398,1.292-0.862,1.477-1.447c0.463-1.459,0.66-3.004,0.964-4.515
		c-0.11-0.067-0.22-0.134-0.33-0.201c-0.292,0.144-0.571,0.342-0.879,0.412c-0.254,0.059-0.542-0.033-0.816-0.059
		c0.135-0.276,0.261-0.787,0.407-0.794c1.166-0.05,1.234-0.757,1.431-1.719c0.826-4.035,1.148-8.109,1.457-12.207
		c0.26-3.447,1.046-6.851,1.448-10.291c0.28-2.4,0.28-4.832,0.455-7.246c0.06-0.825-0.229-1.384-0.939-1.74
		c-1.023-0.514-1.199-1.357-1.223-2.439c-0.125-5.665,1.002-11.082,2.777-16.439c0.847-2.554,1.087-5.304,1.716-7.938
		c0.544-2.28,1.268-4.517,1.871-6.784c0.234-0.88,0.506-1.789,0.507-2.687c0.007-5.678-0.065-11.356-0.093-17.035
		c-0.01-1.984-0.634-3.815-1.116-5.711c-0.52-2.044-0.502-4.247-0.544-6.384c-0.051-2.563,1.117-4.768,2.342-6.943
		c1.426-2.533,2.618-5.211,4.203-7.636c1.538-2.352,3.541-4.294,5.976-5.875c1.387-0.899,2.647-1.494,4.406-1.337
		c-0.246-1.118-0.449-2.115-0.695-3.102c-0.046-0.186-0.243-0.441-0.407-0.474c-0.969-0.188-1.214-0.862-1.364-1.72
		c-0.325-1.865-0.828-3.705-1.063-5.579c-0.174-1.391-0.037-1.408,1.448-1.75c-0.124-0.799-0.264-1.611-0.371-2.426
		c-0.336-2.562-0.433-5.137,0.763-7.501c0.503-0.994,1.473-1.743,2.176-2.646c2.839-3.651,6.692-4.188,10.927-3.63
		c3.145,0.414,5.889,1.672,8.186,3.86c0.328,0.313,0.737,0.79,0.72,1.172c-0.065,1.408,0.537,2.543,1.214,3.677
		c1.169,1.959,1.08,4.089,0.6,6.165c-0.718,3.101-1.789,6.125-2.415,9.24c-0.545,2.708-0.979,5.414-2.283,7.89
		c-0.474,0.9-0.322,1.506,0.746,1.897c1.502,0.55,2.707,1.465,3.206,3.121c1.009,3.348,2.479,6.457,4.845,9.094
		c0.268,0.298,0.494,0.81,0.444,1.183c-0.162,1.217,0.449,1.965,1.227,2.778c1.177,1.231,2.206,2.602,3.308,3.926
		c2.772-1.571,4.79-3.932,6.981-6.121c3.605-3.602,6.189-7.88,8.563-12.325c0.842-1.578,1.887-3.062,2.586-4.697
		c0.737-1.72,0.873-3.557-0.036-5.338c-0.176-0.344-0.22-0.762-0.291-1.152c-0.456-2.495-0.908-4.992-1.352-7.489
		c-0.164-0.922-0.421-1.77,0.076-2.778c0.25-0.508-0.215-1.55-0.626-2.172c-2.592-3.921-5.339-7.74-7.867-11.7
		c-1.348-2.112-3.196-3.283-5.377-4.408c-7.039-3.632-14.162-7.181-20.386-12.173c-3.67-2.944-6.714-6.456-8.808-10.733
		c-2.662-5.436-1.229-10.163,2.635-14.254c3.136-3.32,7.083-4.988,11.755-4.5c2.868,0.3,5,1.955,6.894,3.95
		c3.353,3.534,5.777,7.691,7.125,12.319c1.49,5.118,2.561,10.363,3.71,15.575c0.661,2.999,0.95,6.088,1.736,9.049
		c0.399,1.503,1.438,2.876,2.351,4.195c1.906,2.752,3.801,5.529,5.938,8.098c1.249,1.5,3.006,2.564,4.441,3.923
		c0.794,0.75,1.44,1.67,2.069,2.573c0.474,0.679,0.842,0.984,1.721,0.508c1.272-0.689,2.049-0.379,2.758,0.858
		c0.598,1.042,0.898,2.38,2.493,2.368c0.034,0,0.081,0.03,0.1,0.061c0.465,0.749,0.794,1.647,1.422,2.212
		c0.797,0.716,1.251,1.418,0.986,2.451c1.477,1.008,1.6,1.294,0.773,2.858c-0.489,0.927-0.367,1.561,0.339,2.309
		c0.588,0.622,1.46,1.341,0.63,2.368c-0.898,1.111-1.618,2.546-3.474,2.155c-0.252-0.053-0.602-0.056-0.795,0.079
		c-1.514,1.05-2.961,2.123-3.442,4.101c-0.278,1.145-0.692,2.34-1.363,3.288c-1.741,2.461-2.623,5.27-3.611,8.045
		c-2.354,6.614-5.747,12.608-10.599,17.723c-0.653,0.689-1.486,1.207-2.153,1.885c-0.23,0.234-0.401,0.819-0.269,1.071
		c1.015,1.943,2.01,3.91,3.208,5.74c1.489,2.276,3.694,3.817,6.028,5.141c2.21,1.253,4.408,2.446,6.218,4.347
		c0.586,0.615,2.14,0.438,3.238,0.384c0.622-0.03,1.205-0.588,1.833-0.837c0.442-0.176,0.932-0.231,1.306-0.319
		c0.089,0.612,0.146,1.01,0.204,1.407c0.404-0.075,0.815-0.128,1.213-0.23c1.237-0.319,2.471-0.658,3.705-0.99
		c0.033,0.103,0.065,0.204,0.098,0.307c-0.373,0.136-0.747,0.271-1.149,0.417c0.818,0.875,1.418,0.798,1.912-0.179
		c0.476-0.94,1.065-1.026,2.014-0.478c0.645,0.374,1.389,0.589,2.107,0.813c0.181,0.056,0.48-0.067,0.647-0.204
		c0.97-0.789,1.694-0.694,2.585,0.205c0.276,0.279,0.823,0.29,1.246,0.424c0.057-0.365,0.216-0.751,0.149-1.092
		c-0.246-1.251,1.023-3.455,2.28-3.7c1.25-0.244,2.521-0.397,3.792-0.504c0.338-0.028,0.703,0.26,0.725,0.269
		c-0.136,0.802-0.334,1.294-0.273,1.751c0.12,0.9,0.39,1.78,0.583,2.673c0.032,0.15,0.024,0.325-0.018,0.475
		c-0.268,0.973-2.551,2.686-3.572,2.746c-0.62,0.036-1.234,0.17-2.188,0.31c0.543-0.356,0.807-0.528,1.097-0.719
		c-1.172-0.829-1.188-0.762-1.947,0.339c-0.742,1.076-1.982,0.776-3.073,0.84c-0.848,0.05-1.704,0.086-2.536,0.237
		c-0.956,0.175-1.815,0.25-2.828-0.035c-1.088-0.306-2.424-0.622-3.357,0.779c-0.266,0.399-1.234,0.427-1.885,0.438
		c-0.386,0.008-0.765-0.393-1.175-0.521c-0.191-0.06-0.575,0.016-0.656,0.155c-0.925,1.593-2.56,1.049-4.021,1.478
		c-0.129,0.862-0.687,1.455-2.131,1.198c0.608,0.678,0.981,1.096,1.355,1.512c0.077-0.043,0.154-0.087,0.231-0.13
		c-0.087-0.254-0.173-0.507-0.313-0.919c0.722,0,1.386,0,2.23,0c0.458-0.627,2.125-1.047,3.395-0.827
		c0.604,0.104,1.263-0.085,1.893-0.173c0.541-0.076,1.075-0.197,1.635-0.303c-0.043-0.095-0.107-0.24-0.118-0.263
		c5.686-0.72,11.376-1.439,16.75-2.119c0.962,0.92,1.784,1.708,2.655,2.541c-1.273,0.399-2.841-0.824-3.813,0.729
		c-1.394-0.997-1.394-0.997-2.193,0.486c-0.313,0.579-1.792,0.771-2.386,0.295c-0.771,1.006-1.958,1.032-3.042,1.178
		c-2.301,0.31-4.614,0.543-6.93,0.713c-0.601,0.044-1.227-0.263-2.046-0.457c-0.104,0.111-0.392,0.423-0.518,0.558
		c-0.874-0.107-1.582-0.184-2.287-0.283c-0.47-0.066-0.933-0.203-1.404-0.238c-0.435-0.033-0.876,0.047-1.314,0.041
		c-0.599-0.008-1.196-0.049-2.009-0.085c0.216,0.408,0.405,0.767,0.663,1.254c-0.523,0.204-1.069,0.402-1.604,0.629
		c-0.428,0.182-0.831,0.536-1.264,0.565c-0.68,0.048-1.424-0.062-1.059-0.976c-1.947,0.242-3.796,0.473-5.646,0.702
		c0.019,0.098,0.036,0.196,0.055,0.294c-0.455-0.291-0.91-0.583-1.365-0.875c-0.07,0.071-0.141,0.142-0.211,0.213
		c0.109,0.395,0.219,0.789,0.349,1.259c-3.534,0.4-6.999,0.802-10.583-0.486c0.864-0.531,1.537-0.944,2.3-1.413
		c0.824,1.391,1.806-0.132,2.798-0.074c1.153,0.067,2.327-0.202,3.642-0.341c0.047-0.26,0.119-0.666,0.208-1.166
		c0.217,0,0.458,0.044,0.672-0.011c0.273-0.07,0.525-0.222,0.787-0.338c-0.155-0.208-0.308-0.418-0.466-0.623
		c-0.329-0.428-0.669-0.847-0.99-1.28c-1.169-1.58-2.21-3.277-3.531-4.718c-1.337-1.456-2.434-2.969-2.671-4.945
		c-0.224-1.868-1.339-3.188-2.507-4.496c-1.485-1.664-3.014-3.289-4.488-4.962c-0.493-0.56-0.988-0.763-1.759-0.682
		c-4.144,0.433-3.335-0.32-4.95,3.727c-0.857,2.147-1.351,4.405-1.312,6.827c0.06,3.619-0.441,7.245-0.437,10.867
		c0.005,3.262,0.318,6.526,0.6,9.782c0.137,1.579,0.796,3.034,1.96,4.141c1.915,1.82,3.878,3.594,5.888,5.309
		c0.389,0.331,1.082,0.305,1.889,0.507c-1.411,0.159-1.537,0.42-0.802,1.369c1.517,1.954,3.022,3.92,4.622,5.805
		c2.969,3.498,5.12,7.49,7.215,11.531c0.855,1.65,1.882,3.213,2.938,4.997c0.357-0.563,0.767-0.928,0.813-1.334
		c0.118-1.047,0.738-1.183,1.592-1.157c0.553,0.016,1.124-0.175,1.657-0.09c0.45,0.071,1.194,0.381,1.213,0.63
		c0.036,0.49-0.244,1.091-0.577,1.493c-0.246,0.296-0.773,0.414-1.197,0.494c-0.8,0.151-1.472,0.31-1.457,1.376
		c0.003,0.215-0.599,0.438-1.026,0.556c-0.726,1.642,0.27,3.087,1.153,4.285c2.812,3.817,3.586,8.171,4.027,12.716
		c0.323,3.324,1.158,6.605,1.358,9.931c0.181,3.009-0.013,6.07-0.361,9.071c-0.449,3.881-1.188,7.73-1.857,11.584
		c-0.479,2.762-0.255,5.488,0.201,8.218c0.297,1.769,0.584,3.539,0.878,5.309c0.122,0.733,0.419,1.224,1.176,1.613
		c0.563,0.289,1.114,1.111,1.186,1.75c0.36,3.213,1.733,5.869,4.094,8.017c0.752,0.685,1.655,1.205,2.496,1.791
		c0.39,0.272,0.819,0.491,1.19,0.785c1.048,0.832,1.629,1.892,1.275,3.254c-0.333,1.28-1.258,2.089-2.509,2.305
		c-1.798,0.311-3.638,0.656-5.441,0.577c-1.931-0.085-3.862-0.559-5.749-1.039c-0.791-0.201-1.683-0.695-2.158-1.333
		c-1.729-2.316-4.177-3.383-6.701-4.526c-1.959-0.887-3.778-2.2-5.444-3.583c-1.381-1.147-1.312-2.793-0.425-4.353
		c0.8-1.406,1.423-2.914,2.181-4.347c0.796-1.503,1.678-2.962,2.48-4.462c0.196-0.366,0.318-0.816,0.329-1.232
		c0.105-4.089-0.195-8.155-1.057-12.151c-0.28-1.303-0.922-2.536-1.468-3.771c-1.581-3.572-2.29-7.214-1.637-11.159
		c0.559-3.379,0.743-6.82,1.055-10.237c0.032-0.356-0.082-0.832-0.312-1.09c-1.954-2.195-3.913-4.389-5.952-6.505
		c-0.794-0.824-1.7-1.786-2.727-2.071c-1.072-0.298-2.488-0.15-3.503,0.33c-1.398,0.663-2.821,1.188-4.27,1.693
		c-0.302,0.105-0.531,0.421-0.794,0.639C256.471,332.577,256.594,332.687,256.718,332.796z M253.303,137.927
		c-0.748,0.09-1.497,0.169-2.243,0.271c-4.978,0.682-9.58,5.062-10.552,10.119c-0.676,3.512,0.778,6.509,2.633,9.34
		c2.82,4.302,6.63,7.573,10.912,10.337c1.338,0.864,2.706,1.681,4.058,2.524c1.121,0.699,2.215,1.327,3.641,0.753
		c2.853-1.149,5.252-2.875,7.151-5.296c0.606-0.773,1.387-1.52,1.115-2.607c-0.877-3.51-1.65-7.058-2.777-10.489
		c-1.263-3.848-3.206-7.401-5.905-10.469C259.204,139.987,256.773,138.033,253.303,137.927z M272.333,177.777
		c-0.625-3.583-1.197-6.869-1.82-10.444c-2.177,2.69-4.469,4.675-7.639,5.771C266.074,174.686,269.063,176.162,272.333,177.777z
		 M294.686,268.47c-0.852-1.004-1.611-0.209-2.193,0.048c-1.496,0.66-1.455,0.754-1.866-0.84c-0.472,0.145-0.938,0.289-1.5,0.463
		c0.262,0.474,0.498,0.833,0.667,1.223c0.4,0.924,0.744,1.906,1.984,0.833c0.102-0.088,0.311-0.046,0.466-0.077
		c1.322-0.27,2.656-0.499,3.964-0.83c0.929-0.235,1.638-0.005,2.243,0.694c0.194,0.224,0.407,0.433,0.589,0.624
		c0.707-0.533,1.293-1.006,1.914-1.428c0.276-0.188,0.826-0.2,0.903-0.416c0.38-1.067,1.293-0.912,2.075-0.98
		c0.546-0.049,1.119,0.178,1.658,0.108c0.47-0.06,0.908-0.362,1.36-0.558c-0.05-0.168-0.099-0.337-0.148-0.506
		c-1.135,0-2.271-0.037-3.404,0.01c-1.377,0.058-2.751,0.188-4.126,0.286c-0.157,0.011-0.416-0.034-0.457,0.041
		c-0.665,1.208-1.626,0.812-2.595,0.534C295.573,267.515,294.924,267.447,294.686,268.47z M288.462,275.293
		c-0.396-1.445-0.855-1.653-2.289-1.167c-0.557,0.188-1.329,0.64-1.664,0.43c-1.483-0.931-1.708,0.513-2.436,1.063
		c0.375,0.186,0.728,0.286,1.05,0.226c1.519-0.288,2.989-1.105,4.598-0.329C287.874,275.59,288.159,275.391,288.462,275.293z
		 M285.484,271.675c0.01-0.135,0.021-0.271,0.03-0.405c-0.741-0.206-1.483-0.411-2.298-0.637c0.215-0.27,0.357-0.447,0.639-0.799
		c-0.703-0.21-1.316-0.393-2.256-0.672c0.415,0.895,0.827,1.408,0.871,1.951c0.112,1.379,0.84,1.296,1.794,0.94
		C284.663,271.905,285.077,271.8,285.484,271.675z"/>
</g>
<g id="Layer_3">
	<path fill-rule="evenodd" clip-rule="evenodd" d="M203.614,186.102c9.514-7.387,21.582-6.427,29.932,2.418
		c7.332,7.764,11.895,17.17,15.892,26.912c2.999,7.31,4.145,15.072,5.67,22.745c1.147,5.778,2.768,11.408,5.411,16.698
		c0.421,0.843,0.919,1.658,1.472,2.421c1.373,1.895,2.826,3.73,4.198,5.626c3.931,5.426,8.23,10.458,13.299,14.931
		c3.42,3.017,5.979,6.994,8.994,10.481c3.089,3.569,6.263,7.066,9.405,10.591c0.544,0.61,1.206,1.135,1.66,1.804
		c1.165,1.712,0.986,2.771-0.602,4.079c-1.024,0.845-2.076,1.658-3.127,2.47c-2.417,1.868-3.734,1.642-5.35-1.031
		c-1.075-1.782-1.9-3.724-3.069-5.434c-1.671-2.448-3.495-4.799-5.36-7.106c-4.338-5.365-8.45-10.83-11.253-17.238
		c-1.061-2.424-3.128-4.416-4.793-6.558c-1.515-1.948-3.246-3.736-4.635-5.766c-4.284-6.258-10.337-10.291-16.911-13.654
		c-6.18-3.163-12.67-5.785-18.609-9.338c-10.09-6.035-19.051-13.563-26.019-23.137c-4.629-6.361-6.62-13.468-4.113-21.3
		C197.124,192.291,199.929,188.857,203.614,186.102z M259.251,257.681c-2.154-6.364-4.211-12.438-6.181-18.253
		c-1.378,1.556-2.632,3.44-4.329,4.758c-1.728,1.341-3.89,2.122-5.703,3.065C248.267,250.614,253.633,254.066,259.251,257.681z
		 M248.036,243.3c0.529-0.575,0.962-1.045,1.359-1.478c-1.446-1.856-2.781-3.57-4.192-5.381c-0.546,0.468-1.001,0.856-1.507,1.288
		C245.15,239.596,246.519,241.353,248.036,243.3z M247.275,243.472c-1.372-1.762-2.745-3.523-4.193-5.383
		c-0.555,0.482-1.008,0.875-1.57,1.364c1.084,1.392,2.147,2.634,3.068,3.977C245.384,244.599,246.143,244.782,247.275,243.472z
		 M249.645,240.994c0.21,0.024,0.423,0.046,0.634,0.07c0.113-0.739,0.564-1.679,0.271-2.176c-0.852-1.436-2.005-2.693-3.091-4.087
		c-0.613,0.478-1.085,0.846-1.642,1.279C247.125,237.76,248.385,239.377,249.645,240.994z M244.992,244.852
		c-1.409-1.809-2.634-3.382-3.907-5.015c-0.575,0.448-1.077,0.839-1.822,1.419C241.346,242.322,241.229,246.147,244.992,244.852z
		 M203.1,190.006c1.077,1.382,2.066,2.652,3.084,3.959c0.554-0.432,1.019-0.794,1.557-1.213c-1.07-1.374-2.061-2.646-3.149-4.042
		C204.052,189.179,203.603,189.57,203.1,190.006z M205.207,188.342c1.046,1.343,2.063,2.648,3.171,4.071
		c0.547-0.473,0.993-0.858,1.495-1.292c-1.081-1.388-2.063-2.648-3.109-3.992C206.209,187.562,205.74,187.927,205.207,188.342z
		 M209.152,185.762c-0.612,0.344-1.177,0.662-1.797,1.011c1.081,1.388,2.035,2.612,3.017,3.873c0.587-0.457,1.087-0.847,1.609-1.253
		C210.991,188.123,210.106,186.986,209.152,185.762z M202.867,190.713c-1.908,0.984-2.278,1.136,1.259,4.835
		c1.365-0.515,1.727-1.241,0.624-2.443C204.079,192.375,203.516,191.546,202.867,190.713z M251.163,238.558
		c1.211-2.265,1.12-2.53-1.729-5.287c-0.458,0.356-0.926,0.722-1.487,1.158C249.005,235.789,250.026,237.1,251.163,238.558z
		 M212.54,189.033c0.559-0.435,1.026-0.799,1.482-1.154c-1.907-3.411-2.246-3.588-4.054-2.147
		C210.805,186.807,211.642,187.88,212.54,189.033z M237.427,242.625c1.716,2.996,2.042,3.19,4.368,2.563
		c-0.959-1.232-1.897-2.436-2.892-3.712C238.35,241.906,237.884,242.269,237.427,242.625z M237.556,203.527
		c3.317-1.913,3.412-2.11,1.972-3.88c-1.028,0.8-2.054,1.6-3.108,2.421C236.825,202.589,237.165,203.025,237.556,203.527z
		 M231.128,189.231c-1.064,0.829-2.004,1.562-3.026,2.357c0.527,0.562,0.893,0.949,1.234,1.312c1.128-0.879,2.135-1.664,3.258-2.538
		C231.979,189.887,231.497,189.517,231.128,189.231z M234.263,199.278c3.705-2.389,3.765-2.498,2.255-4.065
		c-1.097,0.854-2.203,1.716-3.375,2.628C233.542,198.352,233.869,198.771,234.263,199.278z M236.194,194.417
		c-0.502-0.55-0.864-0.944-1.244-1.361c-1.213,0.945-2.323,1.81-3.52,2.742c0.463,0.52,0.819,0.921,1.225,1.376
		C233.831,196.259,234.906,195.421,236.194,194.417z M240.975,201.876c-1.028,0.801-1.949,1.519-2.899,2.258
		c0.439,0.564,0.805,1.034,1.158,1.486C242.126,204.074,242.271,203.779,240.975,201.876z M200.922,192.856
		c-1.543,1.736-1.523,1.81,1.113,4.378c0.449-0.349,0.905-0.705,1.43-1.114C202.58,194.983,201.757,193.929,200.922,192.856z
		 M234.468,192.349c-0.587-0.526-0.992-0.889-1.389-1.247c-1.13,0.88-2.177,1.695-3.303,2.573c0.463,0.533,0.813,0.935,1.208,1.388
		C232.151,194.154,233.214,193.326,234.468,192.349z M235.923,201.409c1.155-0.9,2.162-1.685,3.215-2.505
		c-0.435-0.559-0.786-1.009-1.143-1.467c-1.12,0.873-2.135,1.663-3.215,2.505C235.173,200.447,235.501,200.867,235.923,201.409z
		 M209.958,221.75c-0.504-0.567-0.899-1.012-1.295-1.458c-0.994,0.774-1.874,1.459-2.882,2.245c0.494,0.503,0.91,0.926,1.373,1.397
		C208.096,223.201,208.925,222.556,209.958,221.75z M212.597,184.657c0.734,0.942,1.407,1.806,2.17,2.786
		c0.561-0.493,1.001-0.881,1.448-1.272C215.321,184.714,214.582,183.33,212.597,184.657z M207.689,224.428
		c1.443,1.756,1.789,1.688,3.745-0.583c-0.357-0.459-0.72-0.924-1.132-1.453C209.412,223.086,208.597,223.721,207.689,224.428z
		 M230.353,188.777c-1.524-1.683-1.861-1.626-3.783,0.624c0.349,0.449,0.711,0.913,1.126,1.446
		C228.625,190.123,229.486,189.453,230.353,188.777z M239.773,206.227c0.452,0.581,0.842,1.081,1.252,1.608
		c0.809-0.629,1.489-1.16,2.265-1.764c-0.289-0.624-0.563-1.216-0.879-1.899C241.43,204.937,240.609,205.576,239.773,206.227z
		 M204.024,220.481c0.524,0.576,0.915,1.003,1.286,1.411c1.042-0.812,1.915-1.492,2.837-2.21c-0.42-0.54-0.775-0.995-1.169-1.501
		C206.003,218.94,205.127,219.622,204.024,220.481z M204.963,215.373c-0.495-0.569-0.85-0.975-1.187-1.363
		c-2.896,1.66-3.466,2.507-1.613,3.544C203.024,216.883,203.899,216.202,204.963,215.373z M206.609,217.498
		c-0.486-0.57-0.833-0.978-1.221-1.433c-1.017,0.792-1.931,1.504-2.868,2.234c0.422,0.542,0.777,0.998,1.156,1.483
		C204.665,219.012,205.542,218.329,206.609,217.498z M209.693,226.235c1.253,1.921,1.581,1.892,3.398-0.258
		c-0.36-0.462-0.727-0.933-1.199-1.539c-0.415,0.323-0.756,0.578-1.085,0.848C210.427,225.598,210.057,225.924,209.693,226.235z
		 M202.085,211.83c-2.441,1.439-3.039,2.238-1.369,3.418c0.808-0.63,1.628-1.269,2.509-1.955
		C202.827,212.782,202.495,212.355,202.085,211.83z M199.375,212.933c0.781-0.609,1.464-1.141,2.215-1.726
		c-0.417-0.536-0.783-1.004-1.157-1.485C198.799,210.381,198.053,211.259,199.375,212.933z M241.418,208.32
		c0.405,0.521,0.826,1.061,1.241,1.594c2.091-1.401,2.091-1.401,0.804-3.188C242.825,207.224,242.188,207.72,241.418,208.32z
		 M214.76,228.168c-0.386-0.495-0.777-0.997-1.177-1.511c-0.722,0.563-1.34,1.044-1.959,1.526
		C213.03,229.945,213.03,229.945,214.76,228.168z M199.861,198.852c1.797-1.12,1.725-1.513-0.539-3.433
		C197.972,196.737,198.513,197.806,199.861,198.852z M224.885,187.179c0.4,0.513,0.792,1.016,1.206,1.547
		c0.734-0.572,1.358-1.058,2.075-1.616C226.994,185.994,225.966,185.582,224.885,187.179z M215.351,197.077
		c0.595-0.463,1.063-0.828,1.569-1.222c-0.45-0.577-0.841-1.08-1.308-1.678c-0.555,0.497-0.997,0.892-1.486,1.33
		C214.559,196.061,214.895,196.492,215.351,197.077z M219.172,194.101c-0.53-0.587-0.931-1.032-1.415-1.569
		c-0.552,0.476-1,0.861-1.496,1.289c0.452,0.58,0.814,1.046,1.235,1.585C218.046,194.978,218.514,194.613,219.172,194.101z
		 M229.093,211.224c-0.597,0.465-1.131,0.881-1.758,1.37c0.498,0.552,0.894,0.99,1.376,1.525c0.564-0.496,1.008-0.886,1.502-1.321
		C229.814,212.238,229.499,211.793,229.093,211.224z M226.476,215.714c0.602-0.469,1.067-0.831,1.567-1.221
		c-0.454-0.583-0.841-1.081-1.298-1.666c-0.558,0.504-1,0.902-1.479,1.335C225.688,214.704,226.023,215.134,226.476,215.714z
		 M216.485,199.584c-0.413-0.53-0.772-0.992-1.191-1.53c-0.576,0.448-1.079,0.84-1.675,1.305c0.483,0.544,0.875,0.985,1.29,1.453
		C215.487,200.362,215.955,199.998,216.485,199.584z M215.707,197.684c0.541,0.607,0.93,1.044,1.385,1.555
		c0.576-0.5,1.024-0.889,1.5-1.302c-0.438-0.562-0.797-1.023-1.212-1.556C216.832,196.808,216.369,197.168,215.707,197.684z
		 M235.528,219.609c-0.599,0.537-1.038,0.931-1.5,1.345c0.453,0.582,0.813,1.043,1.175,1.507c0.594-0.462,1.093-0.852,1.585-1.235
		C236.361,220.679,236.026,220.249,235.528,219.609z M232.723,215.096c0.527,0.61,0.912,1.056,1.32,1.528
		c0.589-0.459,1.053-0.82,1.533-1.194c-0.457-0.586-0.85-1.091-1.239-1.591C233.794,214.261,233.364,214.597,232.723,215.096z
		 M210.268,195.059c0.535,0.608,0.929,1.056,1.338,1.521c0.584-0.455,1.051-0.818,1.522-1.186c-0.46-0.591-0.848-1.089-1.243-1.595
		C211.329,194.231,210.897,194.568,210.268,195.059z M209.517,194.811c-0.553-0.607-0.948-1.042-1.419-1.56
		c-0.571,0.497-1.013,0.882-1.473,1.282c0.449,0.577,0.812,1.042,1.227,1.575C208.392,195.688,208.853,195.328,209.517,194.811z
		 M208.767,192.862c0.453,0.581,0.842,1.081,1.305,1.676c0.556-0.502,0.995-0.898,1.521-1.374c-0.482-0.566-0.867-1.014-1.286-1.501
		C209.732,192.11,209.266,192.474,208.767,192.862z M213.672,191.607c-0.458-0.588-0.822-1.056-1.216-1.561
		c-0.578,0.45-1.08,0.842-1.679,1.309c0.496,0.557,0.889,0.999,1.318,1.481C212.654,192.4,213.086,192.064,213.672,191.607z
		 M212.858,189.638c0.53,0.606,0.92,1.05,1.328,1.517c0.59-0.46,1.055-0.822,1.528-1.191c-0.456-0.584-0.846-1.086-1.237-1.587
		C213.925,188.807,213.494,189.143,212.858,189.638z M251.933,235.044c0.117-0.035,0.233-0.07,0.352-0.104
		c-0.059-1.174-0.115-2.35-0.184-3.752c-0.82,0.639-1.389,1.082-1.974,1.538C250.77,233.551,251.351,234.298,251.933,235.044z
		 M231.35,218.731c-0.448-0.576-0.838-1.076-1.303-1.673c-0.557,0.498-0.998,0.894-1.446,1.294c0.458,0.588,0.821,1.054,1.222,1.568
		C230.38,219.486,230.846,219.124,231.35,218.731z M227.641,221.548c0.542-0.422,1.075-0.837,1.695-1.32
		c-0.507-0.561-0.904-1.001-1.381-1.528c-0.569,0.501-1.013,0.893-1.501,1.324C226.876,220.566,227.212,220.998,227.641,221.548z
		 M225.952,220.43c-0.622,0.484-1.083,0.844-1.587,1.236c0.434,0.558,0.797,1.023,1.186,1.523c0.577-0.45,1.073-0.836,1.587-1.236
		C226.717,221.412,226.383,220.984,225.952,220.43z M234.075,213.234c-0.535-0.609-0.926-1.055-1.324-1.51
		c-0.573,0.447-1.037,0.808-1.633,1.272c0.485,0.569,0.892,1.048,1.301,1.528C233.026,214.051,233.453,213.718,234.075,213.234z
		 M230.658,213.404c-0.578,0.45-1.079,0.841-1.672,1.303c0.499,0.554,0.894,0.994,1.371,1.525c0.57-0.489,1.017-0.873,1.5-1.289
		C231.408,214.367,231.044,213.899,230.658,213.404z M228.569,215.045c-0.539,0.42-1.073,0.836-1.699,1.323
		c0.506,0.556,0.906,0.995,1.385,1.52c0.563-0.494,1.008-0.883,1.502-1.317C229.337,216.03,229.001,215.599,228.569,215.045z
		 M246.192,231.978c1.129,2.133,1.286,2.155,2.696,0.455c-0.401-0.515-0.802-1.029-1.238-1.59
		C247.106,231.266,246.643,231.626,246.192,231.978z M208.165,196.722c0.541,0.604,0.938,1.047,1.41,1.574
		c0.555-0.478,1.002-0.863,1.483-1.279c-0.45-0.578-0.812-1.042-1.236-1.586C209.277,195.854,208.814,196.215,208.165,196.722z
		 M212.392,193.399c0.522,0.611,0.907,1.061,1.317,1.54c0.588-0.458,1.057-0.823,1.549-1.206c-0.455-0.584-0.847-1.086-1.244-1.597
		C213.459,192.567,213.028,192.903,212.392,193.399z M245.477,232.379c-0.593,0.534-1.034,0.932-1.492,1.344
		c0.487,0.625,0.886,1.138,1.381,1.773c0.577-0.493,1.058-0.904,1.524-1.302C246.375,233.532,246.002,233.054,245.477,232.379z
		 M241.835,235.326c0.523,0.671,0.921,1.183,1.417,1.819c0.575-0.494,1.055-0.906,1.597-1.37c-0.576-0.669-1.001-1.163-1.44-1.674
		C242.822,234.558,242.388,234.896,241.835,235.326z M242.678,237.536c-0.517-0.663-0.916-1.176-1.331-1.708
		c-0.586,0.457-1.084,0.845-1.551,1.208c0.495,0.635,0.895,1.149,1.33,1.708C241.666,238.324,242.099,237.986,242.678,237.536z
		 M239.031,240.483c0.575-0.516,1.018-0.913,1.483-1.33c-0.49-0.63-0.89-1.142-1.334-1.713c-0.555,0.433-1.022,0.796-1.568,1.222
		C238.067,239.246,238.469,239.762,239.031,240.483z M236.91,242.15c0.583-0.541,1.017-0.945,1.419-1.318
		c-0.519-0.666-0.917-1.177-1.393-1.788c-0.562,0.511-1,0.908-1.434,1.3C235.994,240.974,236.371,241.458,236.91,242.15z
		 M215.883,193.383c0.606-0.519,1.056-0.904,1.544-1.323c-0.452-0.58-0.819-1.051-1.207-1.55c-0.576,0.449-1.077,0.839-1.603,1.249
		C215.046,192.309,215.382,192.739,215.883,193.383z M217.957,191.607c0.598-0.466,1.065-0.83,1.63-1.27
		c-0.475-0.555-0.867-1.016-1.351-1.582c-0.546,0.472-0.992,0.857-1.495,1.292C217.172,190.601,217.511,191.036,217.957,191.607z
		 M233.392,221.263c-0.609,0.558-1.046,0.959-1.564,1.436c0.497,0.566,0.885,1.008,1.278,1.456c0.59-0.459,1.056-0.823,1.58-1.23
		C234.262,222.38,233.901,221.916,233.392,221.263z M227.73,218.19c-0.533-0.609-0.921-1.053-1.33-1.521
		c-0.583,0.454-1.048,0.817-1.525,1.188c0.455,0.585,0.843,1.083,1.239,1.591C226.665,219.02,227.094,218.686,227.73,218.19z
		 M224.295,218.347c-0.569,0.443-1.068,0.832-1.659,1.292c0.486,0.552,0.878,0.995,1.292,1.464c0.572-0.445,1.034-0.805,1.564-1.219
		C225.063,219.332,224.702,218.869,224.295,218.347z M231.904,218.297c0.59-0.459,1.055-0.821,1.563-1.218
		c-0.449-0.577-0.84-1.078-1.303-1.672c-0.553,0.498-0.992,0.894-1.476,1.33C231.112,217.28,231.446,217.709,231.904,218.297z
		 M212.686,199.168c-0.443-0.569-0.835-1.072-1.307-1.678c-0.565,0.493-1.012,0.884-1.54,1.344c0.489,0.571,0.876,1.024,1.31,1.532
		C211.715,199.924,212.184,199.56,212.686,199.168z M235.966,215.845c-0.582,0.518-1.021,0.907-1.479,1.313
		c0.459,0.59,0.821,1.054,1.229,1.578c0.556-0.433,1.021-0.795,1.558-1.213C236.855,216.986,236.491,216.518,235.966,215.845z
		 M233.615,220.494c0.605-0.52,1.054-0.904,1.54-1.321c-0.443-0.568-0.806-1.034-1.199-1.539c-0.575,0.448-1.074,0.836-1.599,1.245
		C232.787,219.43,233.12,219.859,233.615,220.494z M213.661,195.924c-0.51,0.397-1.012,0.788-1.569,1.222
		c0.417,0.536,0.809,1.038,1.268,1.627c0.554-0.488,1.003-0.884,1.495-1.318C214.433,196.915,214.096,196.482,213.661,195.924z
		 M231.538,222.129c0.585-0.516,1.031-0.907,1.486-1.309c-0.452-0.58-0.813-1.044-1.223-1.57c-0.549,0.428-1.013,0.789-1.56,1.215
		C230.663,221.006,231.023,221.469,231.538,222.129z M229.755,220.923c-0.51,0.398-1.009,0.786-1.564,1.219
		c0.409,0.524,0.798,1.025,1.257,1.614c0.552-0.486,0.998-0.877,1.492-1.311C230.521,221.906,230.186,221.477,229.755,220.923z
		 M207.698,197.102c-0.59,0.459-1.053,0.82-1.623,1.264c0.492,0.573,0.911,1.059,1.318,1.533c0.591-0.46,1.02-0.794,1.514-1.18
		c-0.17-0.309-0.289-0.59-0.465-0.829C208.264,197.648,208.029,197.447,207.698,197.102z M221.662,193.094
		c-1.856,1.235-1.86,1.35-0.164,2.704c0.43-0.382,0.876-0.777,1.342-1.191C222.414,194.059,222.076,193.626,221.662,193.094z
		 M220.947,217.467c0.525,0.601,0.915,1.048,1.327,1.519c0.564-0.439,1.025-0.798,1.52-1.184c-0.455-0.584-0.839-1.078-1.237-1.589
		C221.998,216.648,221.569,216.981,220.947,217.467z M212.827,202.565c0.606-0.528,1.06-0.923,1.606-1.399
		c-0.483-0.556-0.87-1-1.35-1.553c-0.589,0.508-1.04,0.897-1.528,1.319C211.998,201.5,212.336,201.935,212.827,202.565z
		 M212.223,202.911c-0.865-1.76-1.706-1.701-2.698-0.281c0.381,0.489,0.745,0.956,1.155,1.483
		C211.212,203.698,211.683,203.332,212.223,202.911z M225.636,210.419c0.523,0.581,0.913,1.013,1.386,1.539
		c0.599-0.512,1.051-0.899,1.592-1.361c-0.512-0.577-0.906-1.021-1.31-1.477C226.732,209.565,226.295,209.906,225.636,210.419z
		 M229.036,210.209c0.575-0.448,1.077-0.838,1.67-1.301c-0.501-0.559-0.896-1.001-1.347-1.505c-0.578,0.521-1.023,0.922-1.474,1.329
		C228.314,209.282,228.646,209.708,229.036,210.209z M238.309,217.522c0.493,0.632,0.88,1.13,1.256,1.612
		c0.556-0.433,0.983-0.766,1.424-1.109c-0.454-0.583-0.849-1.09-1.256-1.612C239.233,216.802,238.844,217.105,238.309,217.522z
		 M239.01,219.556c-0.5-0.563-0.893-1.006-1.296-1.46c-1.663,0.782-1.833,1.612-0.289,2.696
		C237.886,220.432,238.351,220.069,239.01,219.556z M219.551,194.757c-0.516,0.402-1.02,0.794-1.572,1.224
		c0.423,0.543,0.785,1.008,1.172,1.504c0.569-0.443,1.043-0.813,1.571-1.224C220.321,195.746,219.982,195.311,219.551,194.757z
		 M220.824,214.067c-0.536,0.478-0.98,0.875-1.502,1.34c0.513,0.559,0.914,0.997,1.276,1.391
		C222.331,216.028,222.371,215.193,220.824,214.067z M231.398,223.057c-0.517,0.403-1.024,0.798-1.57,1.223
		c0.425,0.545,0.789,1.013,1.174,1.508c0.562-0.437,1.034-0.805,1.57-1.223C232.17,224.048,231.832,223.614,231.398,223.057z
		 M217.193,217.006c0.528,0.587,0.921,1.026,1.402,1.561c0.546-0.493,0.977-0.88,1.499-1.351c-0.507-0.582-0.891-1.02-1.283-1.47
		C218.236,216.194,217.809,216.527,217.193,217.006z M229.557,210.742c0.786,1.849,1.641,1.808,2.69,0.4
		c-0.414-0.531-0.803-1.031-1.21-1.553C230.5,210.008,230.07,210.343,229.557,210.742z M230.528,226.155
		c-0.492-0.566-0.851-0.98-1.279-1.474c-0.552,0.43-1.022,0.796-1.572,1.225c0.416,0.534,0.782,1.004,1.211,1.555
		c0.305-0.197,0.572-0.345,0.81-0.531C229.938,226.742,230.147,226.515,230.528,226.155z M228.24,227.98
		c-1.143-1.947-1.172-1.95-2.598-0.327c0.359,0.461,0.725,0.931,1.139,1.462C227.284,228.725,227.714,228.389,228.24,227.98z
		 M221.283,192.489c-0.53-0.606-0.926-1.058-1.411-1.614c-0.55,0.484-0.992,0.872-1.543,1.357c0.507,0.579,0.901,1.027,1.333,1.52
		C220.222,193.315,220.655,192.979,221.283,192.489z M207.832,200.397c0.454,0.583,0.844,1.083,1.302,1.672
		c0.539-0.484,0.975-0.877,1.434-1.29c-0.449-0.577-0.809-1.039-1.219-1.564C208.798,199.644,208.341,200.001,207.832,200.397z
		 M223.202,215.712c0.418,0.537,0.834,1.071,1.325,1.701c0.554-0.512,0.988-0.912,1.511-1.394c-0.498-0.566-0.885-1.008-1.313-1.494
		C224.176,214.954,223.746,215.289,223.202,215.712z M219.606,198.086c1.268,1.827,1.382,1.824,2.694,0.066
		c-0.35-0.4-0.71-0.81-1.129-1.285C220.629,197.29,220.161,197.655,219.606,198.086z M223.315,195.226
		c-0.583,0.454-1.042,0.812-1.536,1.197c0.437,0.561,0.792,1.017,1.165,1.495c0.562-0.438,1.024-0.798,1.518-1.183
		c-0.179-0.29-0.29-0.504-0.435-0.693C223.839,195.799,223.625,195.578,223.315,195.226z M231.751,209.094
		c1.119,1.926,1.146,1.93,2.585,0.319c-0.361-0.463-0.727-0.934-1.131-1.452C232.668,208.379,232.205,208.74,231.751,209.094z
		 M204.478,196.063c0.448,0.575,0.843,1.083,1.29,1.655c0.493-0.384,0.957-0.746,1.5-1.168c-0.431-0.553-0.796-1.022-1.222-1.569
		C205.509,195.35,205.059,195.662,204.478,196.063z M227.532,222.446c-0.607,0.521-1.053,0.904-1.534,1.317
		c0.453,0.582,0.815,1.046,1.198,1.538c0.576-0.449,1.076-0.838,1.593-1.241C228.368,223.519,228.035,223.092,227.532,222.446z
		 M223.801,225.457c0.514,0.598,0.904,1.053,1.378,1.607c0.548-0.476,0.992-0.859,1.547-1.34c-0.491-0.568-0.879-1.017-1.314-1.521
		C224.855,224.636,224.427,224.969,223.801,225.457z M235.179,223.535c-0.521,0.406-1.03,0.802-1.574,1.226
		c0.421,0.541,0.781,1.003,1.159,1.488c0.57-0.444,1.044-0.813,1.574-1.226C235.941,224.513,235.606,224.082,235.179,223.535z
		 M239.44,220.278c-1.95,1.15-1.95,1.155-0.333,2.59c0.463-0.36,0.932-0.726,1.463-1.14
		C240.178,221.227,239.844,220.796,239.44,220.278z M207.192,200.88c-0.563,0.439-0.993,0.773-1.479,1.152
		c0.452,0.579,0.849,1.089,1.249,1.603c0.532-0.415,0.962-0.75,1.479-1.152C208.024,201.948,207.657,201.476,207.192,200.88z
		 M215.132,187.878c0.405,0.52,0.797,1.024,1.222,1.569c0.54-0.42,1.002-0.781,1.494-1.164c-0.441-0.566-0.808-1.037-1.223-1.569
		C216.115,187.113,215.683,187.449,215.132,187.878z M217.344,199.829c0.54,0.578,0.944,1.015,1.405,1.51
		c0.593-0.515,1.049-0.911,1.59-1.381c-0.503-0.546-0.901-0.983-1.316-1.437C218.446,198.971,218.011,199.31,217.344,199.829z
		 M222.674,215.148c0.576-0.448,1.077-0.839,1.657-1.291c-0.457-0.536-0.807-0.946-1.19-1.395c-0.599,0.466-1.103,0.859-1.672,1.302
		C221.922,214.284,222.279,214.695,222.674,215.148z M225.255,210.813c-0.575,0.448-1.085,0.845-1.601,1.247
		c0.419,0.537,0.754,0.968,1.139,1.462c0.576-0.448,1.083-0.844,1.601-1.247C225.966,211.725,225.631,211.294,225.255,210.813z
		 M229.899,207.101c0.553,0.593,0.954,1.025,1.429,1.534c0.552-0.495,0.958-0.859,1.397-1.253c-0.438-0.563-0.803-1.031-1.203-1.544
		C230.999,206.244,230.565,206.582,229.899,207.101z M232.205,228.294c-0.517-0.575-0.906-1.006-1.376-1.531
		c-0.589,0.506-1.039,0.893-1.579,1.356c0.506,0.574,0.895,1.015,1.294,1.468C231.11,229.146,231.544,228.809,232.205,228.294z
		 M220.241,220.734c0.572-0.5,0.979-0.857,1.417-1.24c-0.461-0.592-0.852-1.094-1.238-1.59c-0.56,0.436-0.989,0.77-1.483,1.155
		C219.358,219.602,219.726,220.073,220.241,220.734z M222.079,219.905c-0.575,0.491-1.023,0.875-1.478,1.263
		c0.469,0.602,0.839,1.077,1.291,1.657c0.532-0.457,0.978-0.839,1.476-1.266C222.935,221.004,222.597,220.57,222.079,219.905z
		 M223.545,224.977c0.564-0.502,0.973-0.865,1.408-1.251c-0.457-0.587-0.849-1.09-1.23-1.579c-0.56,0.436-0.988,0.769-1.483,1.155
		C222.668,223.851,223.038,224.325,223.545,224.977z M208.597,205.848c0.563-0.486,1.003-0.867,1.424-1.23
		c-1.143-1.887-1.235-1.893-2.581-0.254C207.767,204.782,208.102,205.212,208.597,205.848z M242.68,220.127
		c-0.434-0.557-0.8-1.027-1.204-1.545c-0.542,0.422-1.003,0.781-1.525,1.188c0.438,0.563,0.801,1.028,1.204,1.545
		C241.673,220.911,242.108,220.572,242.68,220.127z M203.634,199.438c0.599-0.467,1.029-0.802,1.5-1.168
		c-0.44-0.565-0.837-1.075-1.242-1.595c-0.559,0.436-1.02,0.794-1.5,1.168C202.827,198.402,203.195,198.875,203.634,199.438z
		 M213.548,230.057c1.04,1.17,1.91,1.764,2.937,0.121c-0.419-0.489-0.834-0.974-1.237-1.445
		C214.597,229.24,214.118,229.613,213.548,230.057z M238.536,223.325c-0.482-0.555-0.871-1.001-1.272-1.461
		c-0.58,0.451-1.048,0.817-1.585,1.235c0.42,0.541,0.778,0.999,1.189,1.526C237.411,224.202,237.88,223.836,238.536,223.325z
		 M237.857,217.077c0.539-0.42,1.004-0.782,1.503-1.171c-0.448-0.575-0.844-1.083-1.311-1.683c-0.536,0.472-0.974,0.857-1.433,1.261
		C237.087,216.088,237.451,216.556,237.857,217.077z M220.342,187.094c-0.563,0.486-1.008,0.869-1.47,1.267
		c0.466,0.598,0.834,1.071,1.25,1.604c0.535-0.417,0.998-0.777,1.528-1.19C221.229,188.234,220.862,187.762,220.342,187.094z
		 M214.868,201.795c-0.601,0.468-1.068,0.832-1.609,1.254c0.422,0.542,0.781,1.002,1.144,1.469c0.582-0.453,1.086-0.846,1.609-1.254
		C215.614,202.752,215.31,202.362,214.868,201.795z M248.282,230.337c0.421,0.54,0.859,1.103,1.351,1.735
		c0.487-0.379,0.958-0.747,1.48-1.153c-0.472-0.605-0.886-1.137-1.352-1.735C249.271,229.566,248.839,229.902,248.282,230.337z
		 M228.791,228.491c-0.595,0.464-1.06,0.826-1.548,1.206c0.428,0.549,0.791,1.015,1.165,1.496c0.551-0.429,1.017-0.792,1.548-1.206
		C229.561,229.479,229.229,229.054,228.791,228.491z M236.245,215.065c0.601-0.537,1.04-0.93,1.552-1.387
		c-0.511-0.591-0.91-1.051-1.379-1.593c-0.55,0.494-0.991,0.892-1.467,1.319C235.398,213.978,235.739,214.415,236.245,215.065z
		 M223.455,194.265c0.574-0.492,1.02-0.875,1.467-1.259c-0.46-0.591-0.829-1.065-1.282-1.646c-0.529,0.462-0.971,0.847-1.458,1.272
		C222.625,193.2,222.963,193.635,223.455,194.265z M244.229,212.056c1.846-0.845,1.326-1.802,0.497-2.887
		c-0.596,0.464-1.118,0.871-1.709,1.331C243.449,211.054,243.816,211.525,244.229,212.056z M236.059,211.676
		c-0.45-0.578-0.845-1.085-1.302-1.672c-0.543,0.471-0.986,0.857-1.44,1.251c0.467,0.6,0.834,1.071,1.239,1.591
		C235.097,212.425,235.562,212.063,236.059,211.676z M225.428,193.604c-1.9,0.846-1.628,1.688-0.214,2.671
		c0.453-0.39,0.907-0.78,1.375-1.182C226.154,194.536,225.816,194.102,225.428,193.604z M210.203,207.866
		c0.531-0.414,0.994-0.774,1.526-1.188c-0.414-0.531-0.772-0.992-1.182-1.518c-0.543,0.424-1.006,0.784-1.525,1.189
		C209.437,206.882,209.798,207.347,210.203,207.866z M232.604,227.888c0.582-0.453,1.097-0.854,1.675-1.305
		c-0.457-0.524-0.821-0.942-1.238-1.42c-0.559,0.435-1.042,0.811-1.592,1.24C231.848,226.916,232.217,227.39,232.604,227.888z
		 M217.014,200.211c-0.589,0.459-1.122,0.874-1.704,1.327c0.481,0.549,0.832,0.952,1.19,1.363c0.61-0.475,1.114-0.868,1.624-1.265
		C217.704,201.098,217.369,200.668,217.014,200.211z M213.992,204.953c-0.534-0.579-0.952-1.034-1.417-1.538
		c-0.604,0.549-1.005,0.914-1.415,1.287c0.431,0.553,0.793,1.018,1.192,1.529C212.872,205.825,213.306,205.487,213.992,204.953z
		 M236.528,238.544c-0.864-2.023-1.705-1.462-2.694-0.235c0.423,0.484,0.81,0.927,1.213,1.389
		C235.608,239.261,236.041,238.924,236.528,238.544z M218.467,187.82c0.537-0.418,0.995-0.775,1.516-1.181
		c-0.43-0.553-0.796-1.022-1.222-1.568c-0.53,0.413-0.991,0.772-1.516,1.181C217.673,186.8,218.039,187.27,218.467,187.82z
		 M216.799,216.363c0.526-0.41,0.998-0.777,1.534-1.194c-0.415-0.533-0.776-0.996-1.151-1.478c-0.558,0.435-1.024,0.797-1.534,1.194
		C216.024,215.368,216.327,215.756,216.799,216.363z M223.385,190.823c-0.55-0.62-0.95-1.072-1.345-1.517
		c-0.553,0.431-0.981,0.764-1.465,1.141c0.449,0.577,0.842,1.081,1.244,1.597C222.357,191.624,222.787,191.29,223.385,190.823z
		 M234.852,240.664c-0.586,0.53-1.019,0.92-1.423,1.285c0.506,0.649,0.911,1.169,1.401,1.799c0.529-0.479,0.959-0.869,1.421-1.288
		C235.765,241.835,235.392,241.357,234.852,240.664z M218.887,214.671c0.569-0.444,1.077-0.839,1.587-1.237
		c-0.418-0.538-0.748-0.961-1.106-1.42c-0.576,0.449-1.077,0.839-1.587,1.237C218.2,213.789,218.534,214.217,218.887,214.671z
		 M199.346,202.684c0.492-0.383,0.95-0.74,1.443-1.124c-0.427-0.547-0.819-1.051-1.277-1.639c-0.521,0.478-0.918,0.843-1.352,1.241
		C198.579,201.699,198.92,202.137,199.346,202.684z M201.772,198.355c-0.527,0.41-0.992,0.772-1.553,1.209
		c0.484,0.551,0.882,1.002,1.295,1.472c0.54-0.421,0.963-0.75,1.46-1.137C202.541,199.342,202.173,198.87,201.772,198.355z
		 M218.55,202.226c-0.6,0.543-1.043,0.943-1.56,1.41c0.46,0.536,0.811,0.943,1.198,1.392c0.568-0.443,1.042-0.812,1.583-1.233
		C219.379,203.292,219.05,202.868,218.55,202.226z M199.108,203.684c-0.525,0.449-0.964,0.825-1.5,1.285
		c0.542,0.606,0.938,1.05,1.396,1.564c0.54-0.471,0.945-0.826,1.382-1.208C199.946,204.759,199.577,204.285,199.108,203.684z
		 M202.514,203.717c-0.483-0.62-0.851-1.092-1.254-1.61c-0.517,0.403-0.94,0.732-1.402,1.092c0.449,0.577,0.844,1.084,1.254,1.611
		C201.617,204.416,202.002,204.116,202.514,203.717z M203.14,203.145c0.523-0.408,0.985-0.768,1.554-1.21
		c-0.482-0.551-0.877-1-1.298-1.482c-0.544,0.424-0.967,0.753-1.464,1.141C202.36,202.143,202.728,202.615,203.14,203.145z
		 M205.601,198.786c-0.545,0.425-1.037,0.808-1.618,1.26c0.496,0.559,0.888,1.001,1.365,1.54c0.545-0.471,0.983-0.849,1.456-1.256
		C206.346,199.743,206.01,199.311,205.601,198.786z M221.068,186.659c0.444,0.57,0.831,1.066,1.24,1.592
		c0.525-0.409,0.941-0.733,1.408-1.097c-0.447-0.574-0.835-1.072-1.24-1.593C221.957,185.967,221.54,186.292,221.068,186.659z
		 M217.62,205.522c-0.821-1.901-1.661-1.54-2.623-0.28c0.375,0.481,0.735,0.943,1.126,1.446
		C216.658,206.272,217.095,205.932,217.62,205.522z M199.248,207.064c0.529,0.607,0.922,1.057,1.331,1.524
		c0.554-0.432,0.98-0.763,1.537-1.197c-0.485-0.566-0.904-1.053-1.317-1.535C200.237,206.293,199.853,206.592,199.248,207.064z
		 M204.868,202.287c-0.457,0.755-0.979,1.253-1.004,1.776c-0.02,0.405,0.586,0.839,0.98,1.345c0.589-0.522,0.995-0.882,1.451-1.288
		C205.887,203.595,205.548,203.161,204.868,202.287z M225.502,189.171c-0.536-0.59-0.94-1.038-1.418-1.563
		c-0.519,0.45-0.922,0.801-1.386,1.202c0.446,0.573,0.813,1.044,1.234,1.584C224.443,189.996,224.87,189.664,225.502,189.171z
		 M203.691,209.555c-0.414-0.531-0.773-0.993-1.179-1.514c-0.532,0.414-0.985,0.768-1.55,1.208c0.486,0.551,0.873,0.99,1.271,1.441
		C202.782,210.263,203.204,209.934,203.691,209.555z M203.13,207.469c0.466,0.598,0.828,1.063,1.196,1.535
		c0.549-0.428,1.008-0.786,1.559-1.215c-0.497-0.535-0.899-0.966-1.331-1.429C204.042,206.759,203.662,207.055,203.13,207.469z
		 M206.685,204.614c-0.57,0.5-1,0.877-1.439,1.262c0.464,0.596,0.798,1.024,1.187,1.524c0.524-0.409,0.989-0.771,1.507-1.175
		C207.544,205.717,207.209,205.288,206.685,204.614z M223.584,208.681c-0.593,0.462-1.057,0.823-1.561,1.215
		c0.419,0.539,0.774,0.994,1.144,1.469c0.563-0.438,1.027-0.8,1.561-1.216C224.333,209.643,224.008,209.225,223.584,208.681z
		 M225.65,192.571c0.55-0.488,0.952-0.845,1.369-1.214c-0.435-0.559-0.798-1.024-1.209-1.553c-0.508,0.396-0.927,0.722-1.44,1.123
		C224.787,191.463,225.15,191.928,225.65,192.571z M212.849,206.887c0.412,0.529,0.742,0.953,1.114,1.431
		c0.543-0.422,1.01-0.787,1.492-1.162C214.764,205.403,213.927,205.508,212.849,206.887z M213.347,208.807
		c-0.413-0.53-0.768-0.986-1.21-1.554c-0.543,0.473-0.98,0.854-1.434,1.249c0.436,0.559,0.763,0.98,1.146,1.472
		C212.376,209.563,212.835,209.207,213.347,208.807z M227.515,191.963c-0.531,0.414-0.986,0.768-1.557,1.213
		c0.481,0.542,0.869,0.978,1.268,1.429c0.551-0.429,0.974-0.759,1.46-1.138C228.275,192.939,227.916,192.478,227.515,191.963z
		 M216.628,217.354c-0.579,0.504-1.018,0.888-1.533,1.336c0.536,0.577,0.936,1.007,1.414,1.521c0.528-0.49,0.92-0.854,1.361-1.264
		C217.454,218.414,217.117,217.981,216.628,217.354z M214.646,219.069c-0.633,0.493-1.094,0.852-1.641,1.278
		c0.493,0.533,0.896,0.968,1.305,1.411c0.542-0.422,0.958-0.747,1.446-1.126C215.375,220.096,215.058,219.649,214.646,219.069z
		 M213.709,222.226c-0.5-0.569-0.888-1.012-1.289-1.469c-0.543,0.423-0.965,0.752-1.459,1.137c0.415,0.532,0.775,0.995,1.199,1.539
		C212.655,223.047,213.073,222.721,213.709,222.226z M202.993,204.231c-0.499,0.388-0.956,0.744-1.49,1.161
		c0.408,0.524,0.775,0.995,1.186,1.522c0.525-0.409,0.989-0.77,1.49-1.161C203.764,205.22,203.422,204.781,202.993,204.231z
		 M235.267,206.224c-0.567,0.483-1.013,0.864-1.55,1.323c0.545,0.584,0.952,1.022,1.438,1.543c0.532-0.482,0.931-0.842,1.375-1.245
		C236.11,207.307,235.77,206.869,235.267,206.224z M237.47,204.692c-0.505,0.393-1.001,0.78-1.594,1.242
		c0.518,0.549,0.927,0.983,1.41,1.495c0.526-0.475,0.924-0.832,1.361-1.226C238.225,205.66,237.883,205.222,237.47,204.692z
		 M229.541,206.393c0.557-0.434,1.017-0.792,1.492-1.162c-0.432-0.554-0.792-1.017-1.222-1.568c-0.532,0.489-0.964,0.887-1.48,1.362
		C228.792,205.548,229.146,205.946,229.541,206.393z M215.462,227.681c0.54-0.42,1.001-0.779,1.56-1.214
		c-0.491-0.554-0.891-1.006-1.306-1.474c-0.536,0.417-0.96,0.748-1.46,1.138C214.683,226.681,215.051,227.153,215.462,227.681z
		 M216.271,224.506c0.519,0.597,0.913,1.052,1.342,1.546c0.532-0.414,0.954-0.743,1.417-1.104c-0.45-0.578-0.844-1.083-1.256-1.613
		C217.261,223.735,216.875,224.036,216.271,224.506z M220,221.657c-0.6,0.467-1.025,0.799-1.509,1.175
		c0.431,0.553,0.8,1.027,1.2,1.541c0.537-0.418,0.996-0.776,1.509-1.175C220.773,222.649,220.432,222.211,220,221.657z
		 M216.234,221.227c-0.478,0.373-0.941,0.733-1.437,1.12c0.422,0.542,0.813,1.043,1.276,1.638c0.514-0.471,0.91-0.833,1.349-1.233
		C216.999,222.208,216.658,221.77,216.234,221.227z M226.245,206.547c0.387,0.497,0.747,0.958,1.175,1.509
		c0.52-0.405,0.989-0.771,1.521-1.185c-0.416-0.534-0.779-1-1.175-1.509C227.234,205.777,226.794,206.119,226.245,206.547z
		 M223.998,208.345c0.532,0.569,0.901,0.963,1.362,1.455c0.55-0.481,1-0.874,1.482-1.297c-0.431-0.553-0.762-0.979-1.15-1.477
		C225.145,207.452,224.674,207.819,223.998,208.345z M219.852,211.448c0.492,0.631,0.854,1.096,1.302,1.671
		c0.544-0.502,0.984-0.909,1.5-1.386c-0.455-0.534-0.802-0.943-1.203-1.411C220.899,210.71,220.447,211.028,219.852,211.448z
		 M235.479,209.57c0.456,0.585,0.817,1.049,1.215,1.56c0.548-0.427,1-0.779,1.471-1.146c-0.439-0.564-0.802-1.029-1.215-1.56
		C236.451,208.813,236.031,209.141,235.479,209.57z M238.799,209.514c0.583-0.454,1.002-0.781,1.496-1.165
		c-0.432-0.555-0.799-1.026-1.201-1.542c-0.533,0.415-0.993,0.774-1.496,1.166C238.017,208.51,238.358,208.948,238.799,209.514z
		 M217.105,229.833c0.586-0.457,1.008-0.785,1.492-1.162c-0.428-0.55-0.796-1.022-1.202-1.542c-0.531,0.414-0.99,0.771-1.492,1.162
		C216.329,228.836,216.669,229.274,217.105,229.833z M219.213,228.138c0.558-0.434,1.015-0.791,1.566-1.22
		c-0.499-0.56-0.896-1.004-1.366-1.531c-0.536,0.465-0.941,0.816-1.398,1.213C218.433,227.136,218.771,227.571,219.213,228.138z
		 M221.431,223.503c-0.463,0.765-0.987,1.265-1.013,1.79c-0.021,0.403,0.585,0.837,0.986,1.352c0.591-0.535,0.992-0.899,1.45-1.314
		C222.443,224.802,222.105,224.368,221.431,223.503z M218.259,222.516c0.432-0.691,0.961-1.191,1.005-1.729
		c0.031-0.391-0.583-0.832-0.973-1.333c-0.594,0.513-1.004,0.867-1.445,1.248C217.284,221.264,217.651,221.736,218.259,222.516z
		 M223.087,208.068c-0.458-0.588-0.787-1.01-1.166-1.496c-0.55,0.428-1.022,0.796-1.542,1.201c0.417,0.536,0.775,0.995,1.165,1.496
		C222.087,208.847,222.526,208.505,223.087,208.068z M237.023,211.758c0.545,0.608,0.942,1.049,1.409,1.572
		c0.542-0.475,0.947-0.83,1.389-1.217c-0.441-0.566-0.808-1.038-1.229-1.578C238.091,210.926,237.667,211.256,237.023,211.758z
		 M240.452,211.627c0.585-0.456,1.006-0.784,1.493-1.163c-0.431-0.554-0.798-1.025-1.204-1.546
		c-0.536,0.417-0.994,0.774-1.493,1.163C239.669,210.623,240.01,211.061,240.452,211.627z M218.753,231.945
		c0.583-0.455,1.007-0.785,1.489-1.16c-0.423-0.543-0.788-1.012-1.195-1.534c-0.533,0.415-0.987,0.769-1.489,1.161
		C217.988,230.963,218.327,231.397,218.753,231.945z M222.471,229.065c-0.538-0.594-0.936-1.033-1.41-1.555
		c-0.537,0.466-0.938,0.814-1.37,1.19c0.448,0.576,0.813,1.044,1.227,1.575C221.421,229.883,221.844,229.554,222.471,229.065z
		 M224.446,227.504c-0.705-1.589-1.483-1.941-2.599-0.385c0.375,0.481,0.741,0.951,1.168,1.499
		C223.486,228.252,223.912,227.92,224.446,227.504z M215.319,224.46c-0.457-0.586-0.825-1.059-1.225-1.573
		c-0.538,0.419-1.003,0.782-1.564,1.219c0.495,0.545,0.899,0.99,1.344,1.48C214.377,225.194,214.761,224.895,215.319,224.46z
		 M227.947,204.357c0.563-0.488,1.006-0.871,1.474-1.276c-0.43-0.552-0.76-0.976-1.143-1.468c-0.525,0.409-0.991,0.772-1.536,1.197
		C227.12,203.296,227.446,203.715,227.947,204.357z M224.534,204.556c0.451,0.524,0.825,0.96,1.286,1.496
		c0.605-0.548,1.043-0.943,1.545-1.397c-0.471-0.539-0.825-0.947-1.194-1.374C225.607,203.719,225.138,204.085,224.534,204.556z
		 M222.354,206.232c0.529,0.569,0.896,0.962,1.347,1.446c0.555-0.488,1.003-0.881,1.478-1.3c-0.422-0.542-0.752-0.965-1.138-1.46
		C223.495,205.344,223.023,205.711,222.354,206.232z M219.849,208.212c-0.619,0.482-1.087,0.847-1.671,1.302
		c0.461,0.534,0.839,0.971,1.294,1.496c0.592-0.547,1.028-0.95,1.487-1.374C220.549,209.112,220.252,208.73,219.849,208.212z
		 M217.614,209.778c-0.613,0.553-1.052,0.948-1.562,1.408c0.475,0.534,0.833,0.937,1.282,1.441c0.539-0.459,0.989-0.843,1.502-1.279
		C218.416,210.809,218.089,210.389,217.614,209.778z M240.041,215.472c0.583-0.499,1.026-0.877,1.542-1.318
		c-0.549-0.6-0.955-1.043-1.434-1.567c-0.53,0.481-0.93,0.843-1.38,1.252C239.192,214.383,239.532,214.819,240.041,215.472z
		 M242.205,213.81c0.545-0.487,0.947-0.845,1.369-1.222c-0.444-0.569-0.811-1.042-1.228-1.576c-0.509,0.397-0.931,0.725-1.445,1.125
		C241.324,212.68,241.692,213.151,242.205,213.81z M216.77,212.97c-0.51-0.584-0.86-0.984-1.223-1.4
		c-0.562,0.438-1.022,0.796-1.488,1.159c0.428,0.55,0.785,1.007,1.195,1.534C215.769,213.822,216.183,213.47,216.77,212.97z
		 M222.019,232.832c-0.546-0.585-0.952-1.019-1.436-1.538c-0.518,0.461-0.915,0.814-1.344,1.195c0.448,0.575,0.81,1.04,1.216,1.561
		C220.968,233.65,221.392,233.32,222.019,232.832z M222.857,229.699c-0.508,0.396-0.963,0.75-1.496,1.165
		c0.411,0.527,0.775,0.995,1.171,1.503c0.53-0.413,0.992-0.772,1.496-1.165C223.616,230.672,223.277,230.238,222.857,229.699z
		 M224.619,230.726c0.504-0.393,1.007-0.785,1.487-1.159c-0.785-1.634-1.6-1.806-2.603-0.273
		C223.862,229.754,224.202,230.191,224.619,230.726z M226.701,199.458c-0.634,0.494-1.098,0.855-1.689,1.316
		c0.459,0.522,0.838,0.954,1.242,1.412c0.589-0.458,1.018-0.792,1.527-1.189C227.436,200.503,227.124,200.062,226.701,199.458z
		 M224.046,203.796c0.576-0.449,1.077-0.839,1.656-1.291c-0.46-0.523-0.819-0.929-1.262-1.433c-0.541,0.466-0.993,0.855-1.505,1.297
		C223.348,202.9,223.675,203.32,224.046,203.796z M222.322,202.703c-0.589,0.526-1.037,0.925-1.565,1.397
		c0.453,0.528,0.8,0.936,1.194,1.397c0.571-0.445,1.042-0.812,1.586-1.236C223.147,203.762,222.817,203.337,222.322,202.703z
		 M241.982,214.872c-1.835,1.041-1.843,1.21-0.178,2.515c0.424-0.33,0.852-0.664,1.33-1.036
		C242.709,215.805,242.341,215.333,241.982,214.872z M242.474,214.344c0.522,0.594,0.914,1.041,1.313,1.495
		c0.553-0.431,0.979-0.763,1.455-1.133c-0.426-0.546-0.792-1.017-1.221-1.567C243.525,213.525,243.104,213.853,242.474,214.344z
		 M221.688,205.731c-0.729-0.446-1.228-0.972-1.756-1.002c-0.399-0.023-0.835,0.584-1.35,0.985c0.526,0.59,0.882,0.99,1.281,1.438
		C220.4,206.734,220.836,206.395,221.688,205.731z M219.313,207.598c-0.449-0.577-0.775-0.995-1.162-1.491
		c-0.549,0.428-1.017,0.792-1.539,1.199c0.416,0.534,0.775,0.996,1.162,1.491C218.308,208.381,218.745,208.041,219.313,207.598z
		 M246.891,216.816c-0.414-0.532-0.774-0.994-1.169-1.501c-0.528,0.412-0.983,0.766-1.543,1.202
		c0.479,0.548,0.864,0.987,1.256,1.434C245.987,217.521,246.41,217.191,246.891,216.816z M228.988,231.913
		c0.355,0.456,0.716,0.919,1.152,1.479c0.529-0.47,0.969-0.861,1.39-1.235C230.413,230.397,230.413,230.397,228.988,231.913z
		 M232.596,228.984c-0.543,0.423-1.011,0.788-1.562,1.217c0.398,0.511,0.759,0.975,1.202,1.542c0.543-0.466,0.996-0.855,1.504-1.291
		C233.326,229.921,232.998,229.5,232.596,228.984z M234.354,230.126c0.593-0.536,1.038-0.938,1.562-1.413
		c-0.455-0.523-0.807-0.929-1.202-1.384c-0.57,0.444-1.04,0.81-1.58,1.23C233.534,229.074,233.865,229.498,234.354,230.126z
		 M236.788,225.566c-0.592,0.513-1.042,0.904-1.543,1.339c0.426,0.546,0.754,0.968,1.113,1.428c0.578-0.45,1.082-0.843,1.61-1.254
		C237.573,226.574,237.273,226.189,236.788,225.566z M237.288,225.286c0.487,0.572,0.86,1.009,1.304,1.531
		c0.61-0.547,1.05-0.943,1.563-1.403c-0.475-0.533-0.832-0.938-1.239-1.396C238.392,224.426,237.959,224.763,237.288,225.286z
		 M240.61,225.074c0.608-0.473,1.077-0.839,1.55-1.207c-0.432-0.555-0.792-1.017-1.229-1.579c-0.543,0.51-0.976,0.918-1.438,1.352
		C239.902,224.165,240.201,224.548,240.61,225.074z M241.62,221.885c0.464,0.595,0.79,1.014,1.174,1.507
		c0.539-0.42,0.999-0.778,1.501-1.17c-0.419-0.539-0.781-1.002-1.174-1.507C242.607,221.117,242.179,221.45,241.62,221.885z
		 M232.032,232.69c-0.57,0.494-1.013,0.878-1.473,1.279c0.426,0.546,0.755,0.969,1.141,1.464c0.527-0.411,0.99-0.771,1.537-1.197
		C232.856,233.748,232.531,233.331,232.032,232.69z M235.492,232.476c-0.532-0.565-0.9-0.955-1.347-1.43
		c-0.552,0.482-1.001,0.875-1.468,1.283c0.425,0.546,0.755,0.97,1.134,1.456C234.355,233.361,234.826,232.995,235.492,232.476z
		 M234.824,230.63c0.439,0.563,0.795,1.02,1.224,1.571c0.558-0.508,1-0.912,1.519-1.385c-0.458-0.52-0.813-0.922-1.214-1.376
		C235.822,229.853,235.388,230.191,234.824,230.63z M239.638,229.289c-0.451-0.58-0.779-1-1.161-1.49
		c-0.546,0.426-1.017,0.792-1.541,1.2c0.416,0.533,0.771,0.99,1.161,1.49C238.64,230.067,239.077,229.726,239.638,229.289z
		 M240.629,226.134c-0.593,0.462-1.063,0.827-1.561,1.216c0.422,0.541,0.775,0.994,1.202,1.543c0.562-0.5,1.005-0.895,1.481-1.318
		C241.352,227.062,241.051,226.676,240.629,226.134z M241.138,225.68c0.452,0.58,0.777,0.998,1.16,1.489
		c0.551-0.429,1.017-0.792,1.533-1.194c-0.411-0.528-0.772-0.992-1.16-1.489C242.144,224.896,241.709,225.235,241.138,225.68z
		 M232.189,236.056c0.454,0.583,0.785,1.007,1.163,1.493c0.531-0.414,0.993-0.773,1.512-1.178c-0.419-0.538-0.773-0.993-1.163-1.493
		C233.16,235.3,232.728,235.637,232.189,236.056z M234.351,234.383c0.396,0.508,0.783,1.005,1.243,1.596
		c0.554-0.518,0.989-0.925,1.497-1.399c-0.477-0.535-0.833-0.934-1.227-1.375C235.319,233.628,234.88,233.971,234.351,234.383z
		 M239.15,233.084c-0.39-0.5-0.747-0.958-1.165-1.495c-0.514,0.4-0.985,0.768-1.521,1.185c0.407,0.522,0.765,0.981,1.165,1.495
		C238.168,233.85,238.604,233.509,239.15,233.084z M238.571,231.087c0.381,0.49,0.738,0.948,1.125,1.443
		c0.546-0.425,1.048-0.816,1.638-1.276c-0.479-0.522-0.843-0.918-1.241-1.353C239.556,230.321,239.118,230.662,238.571,231.087z
		 M240.655,229.457c0.449,0.576,0.775,0.995,1.164,1.494c0.552-0.43,1.019-0.793,1.541-1.2c-0.413-0.53-0.772-0.992-1.164-1.494
		C241.662,228.673,241.225,229.014,240.655,229.457z M237.565,235.361c-0.579,0.451-1.073,0.836-1.572,1.225
		c0.414,0.531,0.741,0.951,1.099,1.411c0.568-0.442,1.061-0.826,1.572-1.225C238.247,236.236,237.924,235.821,237.565,235.361z
		 M238.09,234.861c0.441,0.566,0.796,1.022,1.237,1.588c0.543-0.463,0.99-0.845,1.477-1.26c-0.443-0.569-0.796-1.021-1.184-1.52
		C239.09,234.083,238.659,234.418,238.09,234.861z M241.711,231.95c-0.562,0.488-1.015,0.882-1.502,1.305
		c0.418,0.537,0.748,0.96,1.146,1.471c0.548-0.427,1.018-0.792,1.568-1.221C242.547,233.024,242.215,232.597,241.711,231.95z
		 M243.821,230.275c-0.583,0.53-1.028,0.936-1.555,1.417c0.454,0.517,0.807,0.922,1.206,1.378c0.568-0.442,1.036-0.807,1.572-1.224
		C244.643,231.332,244.311,230.904,243.821,230.275z M245.941,228.637c-0.558,0.496-1.005,0.893-1.475,1.311
		c0.42,0.539,0.75,0.962,1.144,1.468c0.545-0.425,1.012-0.789,1.553-1.21C246.777,229.71,246.443,229.282,245.941,228.637z
		 M216.047,207.748c-0.573,0.446-1.039,0.809-1.555,1.21c0.419,0.538,0.779,1,1.208,1.55c0.54-0.482,0.985-0.878,1.474-1.313
		C216.788,208.699,216.491,208.318,216.047,207.748z M244.372,226.63c-0.558,0.435-1.023,0.797-1.563,1.217
		c0.394,0.506,0.719,0.923,1.101,1.414c0.571-0.445,1.068-0.833,1.647-1.283C245.1,227.459,244.743,227.055,244.372,226.63z
		 M226.186,198.832c-0.359-0.461-0.573-0.763-0.816-1.039c-0.116-0.131-0.288-0.214-0.422-0.311
		c-1.818,1.077-1.83,1.223-0.193,2.465C225.177,199.617,225.606,199.283,226.186,198.832z M221.287,200.191
		c0.464,0.596,0.816,1.048,1.169,1.501c0.579-0.451,1.044-0.813,1.518-1.182c-0.424-0.545-0.785-1.007-1.169-1.501
		C222.276,199.42,221.844,199.757,221.287,200.191z M220.858,200.654c-1.656,0.779-2.09,1.563-0.482,2.686
		c0.499-0.388,0.966-0.752,1.519-1.183C221.551,201.659,221.248,201.22,220.858,200.654z M197.951,210.596
		c0.947-0.737,1.458-1.136,2.05-1.597c-0.486-0.563-0.884-1.028-1.284-1.491c-0.205,0.018-0.41,0.037-0.615,0.056
		C198.058,208.446,198.014,209.327,197.951,210.596z M205.939,211.129c0.576-0.449,1.037-0.808,1.581-1.231
		c-0.491-0.544-0.883-0.98-1.339-1.487c-0.541,0.483-0.944,0.843-1.391,1.243C205.193,210.172,205.531,210.605,205.939,211.129z
		 M235.812,202.531c-0.505,0.394-0.979,0.763-1.495,1.165c0.422,0.542,0.788,1.011,1.259,1.616c0.52-0.463,0.954-0.849,1.419-1.263
		C236.544,203.471,236.203,203.033,235.812,202.531z M232.192,205.342c0.746,1.557,1.532,1.866,2.604,0.322
		c-0.367-0.472-0.728-0.934-1.14-1.463C233.171,204.579,232.746,204.91,232.192,205.342z M213.502,212.09
		c0.541-0.422,1.013-0.789,1.598-1.245c-0.453-0.52-0.838-0.96-1.305-1.495c-0.563,0.505-0.996,0.894-1.428,1.281
		C212.802,211.191,213.136,211.62,213.502,212.09z M243.338,219.568c0.473-0.369,0.936-0.729,1.417-1.104
		c-0.417-0.535-0.774-0.994-1.131-1.452C241.827,217.725,242.034,218.557,243.338,219.568z M208.083,209.505
		c0.534-0.416,1.005-0.783,1.566-1.22c-0.462-0.538-0.851-0.989-1.261-1.465c-0.565,0.44-0.995,0.775-1.492,1.162
		C207.314,208.518,207.682,208.989,208.083,209.505z M223.558,235.013c-0.462-0.594-0.798-1.025-1.178-1.513
		c-0.525,0.409-0.985,0.768-1.461,1.138c0.433,0.556,0.792,1.018,1.178,1.513C222.616,235.747,223.043,235.414,223.558,235.013z
		 M247.751,229.761c0.543-0.423,1.008-0.786,1.505-1.173c-0.433-0.555-0.8-1.026-1.228-1.576c-0.54,0.471-0.991,0.865-1.509,1.317
		C246.979,228.865,247.335,229.28,247.751,229.761z M212.668,219.725c0.515-0.448,0.957-0.831,1.494-1.298
		c-0.5-0.562-0.887-0.994-1.274-1.428c-0.561,0.438-0.988,0.77-1.458,1.136C211.847,218.67,212.213,219.141,212.668,219.725z
		 M220.704,186.255c0.551-0.527,0.967-0.924,1.381-1.319c-0.032-0.188-0.065-0.374-0.096-0.562
		c-0.812-0.093-1.622-0.186-2.432-0.279c-0.045,0.17-0.091,0.341-0.137,0.513C219.791,185.083,220.162,185.558,220.704,186.255z
		 M203.853,212.797c0.545-0.425,1.012-0.788,1.558-1.214c-0.465-0.534-0.854-0.983-1.252-1.439c-0.55,0.428-0.977,0.761-1.477,1.15
		C203.099,211.829,203.46,212.293,203.853,212.797z M210.818,218.663c-0.581,0.453-1.037,0.808-1.581,1.231
		c0.488,0.531,0.884,0.963,1.349,1.467c0.531-0.467,0.932-0.819,1.386-1.219C211.568,219.625,211.233,219.196,210.818,218.663z
		 M231.566,201.568c-0.442-0.568-0.833-1.07-1.292-1.659c-0.528,0.477-0.966,0.875-1.475,1.335c0.456,0.514,0.815,0.915,1.225,1.375
		C230.554,202.257,231.006,201.95,231.566,201.568z M244.858,226.202c0.502,0.563,0.858,0.962,1.243,1.393
		c0.544-0.423,1.003-0.781,1.469-1.145c-0.433-0.555-0.788-1.011-1.145-1.469C245.9,225.39,245.474,225.722,244.858,226.202z
		 M215.303,183.753c0.677,0.869,1.075,1.38,1.587,2.038c0.546-0.491,1.007-0.904,1.469-1.319c-0.052-0.172-0.103-0.345-0.155-0.517
		C217.364,183.896,216.525,183.838,215.303,183.753z M232.87,241.308c1.645-0.729,1.771-1.532,0.33-2.589
		c-0.47,0.366-0.936,0.729-1.46,1.138C232.122,240.347,232.454,240.773,232.87,241.308z M226.628,198.423
		c0.626-0.488,1.087-0.847,1.546-1.205c-0.429-0.55-0.785-1.007-1.146-1.47c-0.524,0.409-0.949,0.739-1.472,1.146
		C225.911,197.401,226.217,197.836,226.628,198.423z M223.004,232.954c0.442,0.567,0.801,1.029,1.18,1.515
		c0.54-0.42,0.998-0.777,1.542-1.201c-0.469-0.531-0.857-0.97-1.274-1.441C223.938,232.226,223.559,232.521,223.004,232.954z
		 M225.049,231.405c0.483,0.56,0.862,1.001,1.315,1.525c0.562-0.49,1.002-0.874,1.513-1.318c-0.481-0.548-0.838-0.954-1.258-1.43
		C226.109,230.58,225.685,230.91,225.049,231.405z M228.463,235.597c0.444,0.57,0.772,0.991,1.117,1.434
		c0.543-0.423,1.001-0.78,1.552-1.209c-0.442-0.509-0.79-0.911-1.193-1.375C229.416,234.854,228.992,235.185,228.463,235.597z
		 M233.6,199.822c-0.413-0.53-0.766-0.984-1.138-1.461c-0.52,0.405-0.938,0.73-1.412,1.1c0.411,0.528,0.763,0.98,1.138,1.461
		C232.711,200.514,233.129,200.188,233.6,199.822z M210.994,217.584c0.548-0.477,0.95-0.827,1.375-1.197
		c-0.432-0.555-0.787-1.01-1.203-1.543c-0.515,0.44-0.92,0.787-1.385,1.185C210.186,216.547,210.514,216.968,210.994,217.584z
		 M232.575,201.65c0.478,0.544,0.833,0.948,1.223,1.39c0.551-0.429,1.001-0.78,1.458-1.136c-0.42-0.54-0.751-0.964-1.136-1.458
		C233.619,200.837,233.196,201.166,232.575,201.65z M212.843,212.602c-0.411-0.527-0.764-0.98-1.144-1.468
		c-0.525,0.409-0.946,0.736-1.422,1.108c0.413,0.53,0.766,0.983,1.144,1.468C211.938,213.307,212.358,212.979,212.843,212.602z
		 M210.831,214.179c-0.48-0.549-0.83-0.947-1.199-1.37c-0.552,0.43-1.002,0.781-1.533,1.194c0.44,0.511,0.788,0.913,1.188,1.377
		C209.798,214.984,210.215,214.659,210.831,214.179z M229.278,197.416c0.484,0.551,0.833,0.951,1.201,1.37
		c0.556-0.433,1.01-0.787,1.545-1.204c-0.444-0.508-0.796-0.91-1.2-1.371C230.314,196.608,229.895,196.935,229.278,197.416z
		 M229.194,194.114c-0.523,0.407-0.977,0.761-1.476,1.15c0.411,0.527,0.738,0.948,1.114,1.43c0.53-0.413,0.985-0.768,1.477-1.15
		C229.902,195.023,229.573,194.6,229.194,194.114z M228.927,237.596c-0.411-0.527-0.762-0.978-1.139-1.461
		c-0.524,0.408-0.943,0.735-1.42,1.106c0.409,0.525,0.763,0.98,1.139,1.462C228.025,238.299,228.445,237.972,228.927,237.596z
		 M207.709,217.655c0.808,1.777,1.602,1.586,2.518,0.292c-0.384-0.493-0.711-0.913-1.092-1.402
		C208.643,216.928,208.223,217.255,207.709,217.655z M211.929,214.357c0.413,0.53,0.768,0.985,1.147,1.473
		c0.518-0.404,0.939-0.731,1.417-1.104c-0.416-0.535-0.769-0.988-1.147-1.473C212.822,213.662,212.401,213.99,211.929,214.357z
		 M226.087,233.892c-0.561,0.505-0.956,0.862-1.452,1.308c0.462,0.539,0.84,0.978,1.284,1.494c0.542-0.487,0.94-0.845,1.382-1.243
		C226.9,234.936,226.573,234.516,226.087,233.892z M226.768,233.653c0.447,0.48,0.813,0.876,1.267,1.366
		c0.535-0.469,0.978-0.856,1.375-1.205C228.612,232.104,227.808,232.217,226.768,233.653z M248.508,223.225
		c-0.559,0.514-0.953,0.874-1.392,1.277c0.399,0.512,0.725,0.93,1.111,1.427c0.525-0.409,0.98-0.763,1.485-1.157
		C249.313,224.258,248.985,223.838,248.508,223.225z M245.929,224.343c-0.413-0.53-0.77-0.987-1.142-1.465
		c-0.523,0.407-0.947,0.737-1.434,1.117c0.416,0.534,0.768,0.985,1.142,1.466C245.031,225.042,245.456,224.711,245.929,224.343z
		 M246.647,223.9c0.563-0.484,0.967-0.833,1.385-1.193c-0.433-0.556-0.785-1.008-1.204-1.545c-0.509,0.447-0.911,0.798-1.376,1.206
		C245.85,222.877,246.176,223.295,246.647,223.9z M230.571,239.739c-0.829-1.831-1.624-1.557-2.518-0.301
		c0.384,0.494,0.711,0.914,1.097,1.408C229.646,240.459,230.063,240.134,230.571,239.739z M209.794,211.688
		c0.548-0.469,0.957-0.818,1.39-1.189c-0.429-0.55-0.783-1.005-1.144-1.468c-0.533,0.416-0.953,0.743-1.441,1.123
		C208.99,210.656,209.319,211.079,209.794,211.688z M207.689,213.331c0.545-0.466,0.949-0.812,1.376-1.177
		c-0.432-0.555-0.784-1.007-1.205-1.547c-0.508,0.438-0.908,0.784-1.371,1.184C206.893,212.308,207.219,212.727,207.689,213.331z
		 M204.414,213.404c0.812,1.879,1.612,1.549,2.507,0.314c-0.385-0.494-0.712-0.914-1.099-1.411
		C205.325,212.694,204.907,213.02,204.414,213.404z M230.015,237.789c0.493,0.556,0.849,0.958,1.303,1.47
		c0.535-0.46,0.977-0.84,1.511-1.299c-0.488-0.543-0.846-0.941-1.249-1.389C231.055,236.979,230.63,237.31,230.015,237.789z
		 M227.128,199.099c0.517,0.559,0.878,0.95,1.333,1.44c0.541-0.471,0.98-0.853,1.49-1.297c-0.497-0.545-0.858-0.94-1.25-1.369
		C228.183,198.276,227.76,198.606,227.128,199.099z M245.19,218.965c-0.556,0.517-0.951,0.884-1.451,1.35
		c0.464,0.531,0.847,0.968,1.294,1.477c0.547-0.492,0.947-0.852,1.387-1.247C246.014,220.024,245.683,219.599,245.19,218.965z
		 M216.132,216.875c-0.83-1.922-1.633-1.56-2.527-0.324c0.392,0.503,0.723,0.928,1.112,1.427
		C215.218,217.587,215.64,217.259,216.132,216.875z M247.12,220.135c0.551-0.47,0.958-0.818,1.383-1.181
		c-0.438-0.562-0.793-1.018-1.222-1.569c-0.507,0.444-0.908,0.793-1.371,1.197C246.316,219.104,246.645,219.525,247.12,220.135z
		 M230.448,203.306c0.481,0.552,0.834,0.956,1.21,1.388c0.559-0.436,1.016-0.792,1.482-1.155c-0.42-0.539-0.75-0.963-1.13-1.45
		C231.508,202.48,231.083,202.811,230.448,203.306z M207.413,214.315c-0.557,0.512-0.95,0.874-1.446,1.33
		c0.462,0.527,0.842,0.96,1.29,1.47c0.544-0.497,0.937-0.855,1.366-1.247C208.22,215.351,207.894,214.932,207.413,214.315z"/>
	<path fill-rule="evenodd" clip-rule="evenodd" d="M279.257,253.318c1.151,1.493,0.896,3.579-0.574,4.707
		c-1.446,1.106-3.633,0.821-4.742-0.622c-1.105-1.434-0.82-3.628,0.613-4.743C275.995,251.541,278.114,251.839,279.257,253.318z"/>
</g>
</svg>
