<?xml version="1.0" encoding="utf-8"?>
<!-- Generator: Adobe Illustrator 16.0.0, SVG Export Plug-In . SVG Version: 6.00 Build 0)  -->
<!DOCTYPE svg PUBLIC "-//W3C//DTD SVG 1.1//EN" "http://www.w3.org/Graphics/SVG/1.1/DTD/svg11.dtd">
<svg version="1.1" xmlns="http://www.w3.org/2000/svg" xmlns:xlink="http://www.w3.org/1999/xlink" x="0px" y="0px" width="500px"
	 height="500px" viewBox="0 0 500 500" enable-background="new 0 0 500 500" xml:space="preserve">
<g id="Layer_1">
	<g id="Layer_2_1_">
		<path fill="#F25C28" d="M250.473,81.081c-93.449,0-168.919,75.706-168.919,168.919c0,93.21,75.708,168.919,168.919,168.919
			c93.213,0,168.92-75.709,168.92-168.919C419.393,156.787,343.686,81.081,250.473,81.081z M250.473,339.188
			c-49.209,0-89.19-39.979-89.19-89.188c0-49.209,39.981-89.192,89.19-89.192c49.213,0,89.191,39.983,89.191,89.192
			C339.426,299.21,299.686,339.188,250.473,339.188z"/>
		<path fill="#F27A27" d="M230.603,97.878c18.214,0,80.198-3.783,129.882,45.896c1.652,1.894,36.43,15.142,10.172-6.859
			c-26.025-22.004-58.908-56.545-144.076-51.339C220.666,86.996,215.932,99.06,230.603,97.878"/>
		<path fill="#FCAF3B" d="M324.76,146.141c-16.09-10.408-39.033-21.765-62.695-22.711c-7.094,0-4.26,10.171,0,10.408
			c4.258,0,40.455,7.807,55.602,21.057C319.555,156.315,329.016,155.605,324.76,146.141z"/>
		<path fill="#FCAF3B" d="M147.088,171.692c0,0-10.883,14.431-13.486,21.529c-2.602,7.098,6.624,7.808,8.043,5.914
			c1.42-1.889,9.938-17.27,13.486-20.108C158.682,176.187,152.056,166.25,147.088,171.692z"/>
		<path fill="#FCAF3B" d="M126.504,208.597c-1.654,4.733-3.312,10.646-4.023,14.903c-0.708,4.26,8.519,7.099,10.175,1.893
			c1.657-5.201,3.077-12.536,3.784-13.246C137.625,206.233,129.108,199.843,126.504,208.597z"/>
		<path fill="#FCAF3B" d="M367.344,271.056c-1.184,10.175-6.859,28.154-8.988,31.938c-1.895,3.787,3.547,12.777,10.168,4.258
			c2.84-7.807,7.814-19.634,9.941-34.774C379.172,266.799,369.947,258.519,367.344,271.056z"/>
		<g>
			<path fill="#FFFFFF" d="M135.733,119.643c13.248-10.646,55.359-38.798,86.117-39.273c4.494,0,4.73,3.787,5.205,5.207
				c0.47,1.42,22.47,73.577,22.47,73.577s4.497,8.516-8.278,10.173c-12.777,1.656-33.832,7.806-51.578,25.787
				c-1.418,1.183-4.493,3.787-8.516,0.474c-4.019-3.312-43.765-64.348-45.659-66.951
				C133.365,125.796,133.839,121.063,135.733,119.643z"/>
			<path fill="#E7E7E9" d="M188.017,196.06c0,0-4.495,3.311-8.518-2.129c-4.023-5.206-41.875-62.693-43.766-65.77
				c-1.894-3.076,0-6.151,1.892-7.569c4.496,7.095,41.165,62.22,44.005,65.059c2.838,2.837,5.913,2.367,8.989,0
				c2.841-2.366,30.519-27.917,57.015-26.498c2.603,0.236,1.892,1.892,1.892,4.022c0,2.13-1.892,4.731-6.623,4.968
				C235.332,167.434,201.264,177.606,188.017,196.06"/>
			<path fill="#FFFFFF" d="M169.326,97.64c-4.023-9.936-12.302-21.766-5.205-25.787c6.86-4.02,13.959,12.541,16.326,20.108
				C178.55,92.911,173.349,98.588,169.326,97.64z"/>
		</g>
		<g>
			<path fill="#FFFFFF" d="M421.283,219.955c-3.547-16.561-18.215-65.061-41.635-84.933c-3.555-2.839-6.15-0.238-7.334,0.711
				c-1.184,0.944-63.877,42.819-63.877,42.819s-8.994,3.786,0,13.011c8.986,9.466,21.289,27.445,23.654,52.758
				c0.238,1.893,1.184,5.679,6.391,5.679c5.203,0,74.523-22.24,77.596-22.948C419.156,226.105,421.996,222.319,421.283,219.955z"/>
			<path fill="#E7E7E9" d="M332.563,245.977c0,0,1.424,5.443,7.813,3.785c6.387-1.654,72.154-22.002,75.471-23.183
				c3.311-1.187,3.785-4.97,3.311-7.097c-7.807,2.603-71.211,22-75.232,22.472c-4.021,0.477-6.154-1.893-6.863-5.678
				c-0.707-3.783-5.912-40.927-27.441-56.542c-2.131-1.417-2.838,0.237-4.021,1.894s-1.658,4.732,2.127,8.043
				C313.875,193.931,333.986,223.266,332.563,245.977"/>
			<path fill="#FFFFFF" d="M402.832,170.271c9.936-4.021,21.766-12.302,25.789-5.441c4.018,6.861-12.543,13.958-20.111,16.325
				C407.799,179.498,402.123,174.292,402.832,170.271z"/>
		</g>
		<g>
			<path fill="#FFFFFF" d="M364.268,380.354c-13.248,10.649-55.359,38.801-86.111,39.276c-4.499,0-4.734-3.789-5.206-5.206
				c-0.475-1.42-22.478-73.58-22.478-73.58s-4.498-8.515,8.278-10.17c12.776-1.657,33.835-7.806,51.575-25.786
				c1.422-1.184,4.5-3.787,8.521-0.474c4.021,3.31,43.764,64.347,45.654,66.952C366.398,374.204,366.16,378.939,364.268,380.354z"/>
			<path fill="#E7E7E9" d="M311.986,303.939c0,0,4.496-3.31,8.514,2.131c4.023,5.205,41.877,62.691,43.768,65.769
				c1.893,3.077,0,6.15-1.891,7.57c-4.496-7.101-41.164-62.221-44.004-65.059c-2.84-2.841-5.914-2.367-8.992,0
				c-2.84,2.363-30.518,27.917-57.017,26.494c-2.598-0.232-1.892-1.888-1.892-4.021c0-2.128,1.892-4.73,6.625-4.963
				C264.666,332.566,298.736,322.395,311.986,303.939"/>
			<path fill="#FFFFFF" d="M329.727,402.357c4.021,9.936,12.305,21.765,5.207,25.788c-6.863,4.024-13.961-12.537-16.328-20.107
				C320.5,407.088,325.705,401.647,329.727,402.357z"/>
		</g>
		<g>
			<path fill="#FFFFFF" d="M78.479,280.047c3.548,16.561,18.218,65.061,41.639,84.934c3.546,2.839,6.15,0.233,7.334-0.712
				c1.184-0.947,63.874-42.823,63.874-42.823s8.992-3.783,0-13.013c-8.987-9.462-21.289-27.439-23.655-52.753
				c-0.236-1.894-1.184-5.68-6.387-5.68c-5.205,0-74.524,22.239-77.6,22.947C80.608,273.896,78.005,277.682,78.479,280.047z"/>
			<path fill="#E7E7E9" d="M167.434,254.023c0,0-1.42-5.443-7.808-3.79c-6.387,1.658-72.157,22.005-75.471,23.185
				c-3.308,1.42-3.784,4.971-3.308,7.102c7.803-2.604,71.208-22.002,75.23-22.478c4.022-0.473,6.15,1.893,6.861,5.678
				c0.71,3.548,5.915,40.929,27.442,56.545c2.128,1.419,2.84-0.236,4.022-1.894c1.184-1.658,1.653-4.731-2.127-8.044
				C185.887,306.07,166.014,276.734,167.434,254.023"/>
			<path fill="#FFFFFF" d="M97.169,331.146c-9.937,4.021-21.766,12.306-25.789,5.207c-4.02-6.862,12.541-13.959,20.11-16.324
				C92.438,321.919,98.114,327.126,97.169,331.146z"/>
		</g>
	</g>
	<circle opacity="0.5" fill="#99C8CF" enable-background="new    " cx="250" cy="250" r="115.411"/>
	
		<image display="none" overflow="visible" width="1067" height="1067" xlink:href="../events/Sport icons-01.png"  transform="matrix(0.2249 0 0 0.2249 130.0024 130.0029)">
	</image>
</g>
<g id="Layer_2">
	<path fill-rule="evenodd" clip-rule="evenodd" d="M246.03,265.545c3.68,0,7.263,0,10.583,0c0.919-1.853,1.58-3.697,2.657-5.254
		c2.542-3.672,6.369-5.46,10.607-6.231c8.921-1.622,17.595-0.847,25.76,3.374c3.252,1.681,5.927,4.02,7.43,7.492
		c0.107,0.249,0.553,0.485,0.85,0.496c1.413,0.052,2.829,0.013,4.244,0.027c1.829,0.018,3.038,1.137,3.043,2.794
		c0.006,1.7-1.228,2.847-3.1,2.862c-1.346,0.012-2.692-0.024-4.036,0.023c-0.307,0.011-0.788,0.212-0.877,0.445
		c-1.564,4.08-4.763,6.517-8.48,8.369c-5.061,2.521-10.5,3.49-16.108,3.621c-4.304,0.102-8.557-0.252-12.594-1.891
		c-4.501-1.827-7.726-4.866-8.892-9.748c-0.132-0.555-0.421-0.689-0.945-0.686c-3.14,0.018-6.281-0.008-9.42,0.033
		c-0.301,0.004-0.803,0.31-0.867,0.563c-1.489,5.865-5.564,9.143-11.12,10.53c-9.568,2.389-18.898,1.518-27.722-3.069
		c-3.28-1.705-5.935-4.131-7.304-7.723c-0.089-0.232-0.569-0.434-0.875-0.445c-1.275-0.049-2.553-0.009-3.83-0.023
		c-1.837-0.021-3.133-1.251-3.091-2.909c0.042-1.634,1.283-2.733,3.123-2.748c1.311-0.011,2.624,0.026,3.933-0.026
		c0.302-0.012,0.757-0.233,0.863-0.479c1.777-4.094,5.118-6.502,8.98-8.302c5.384-2.509,11.112-3.369,17.006-3.331
		c3.854,0.024,7.647,0.465,11.237,1.958c4.493,1.869,7.641,4.981,8.799,9.851C245.915,265.249,245.971,265.374,246.03,265.545z
		 M208.464,273.562c4.887-4.887,9.699-9.698,14.499-14.498c-3.632,0.156-7.256,0.848-10.732,2.25
		c-2.093,0.845-4.063,1.909-5.645,3.563c-1.689,1.768-2.111,3.581-1.249,5.352C206.068,271.729,207.26,272.793,208.464,273.562z
		 M280.474,277.637c0.009,0.092,0.019,0.184,0.027,0.276c1.951-0.324,3.926-0.552,5.851-0.993c3.588-0.823,6.99-2.094,9.75-4.675
		c2.822-2.64,2.783-6.085-1.524-8.715C289.871,268.237,285.173,272.937,280.474,277.637z M263.958,273.293
		c4.785-4.784,9.571-9.57,14.333-14.332c-2.768-0.043-5.673,0.035-8.424,0.992c-1.695,0.59-3.437,1.353-4.826,2.455
		C261.784,264.99,261.413,270.689,263.958,273.293z M225.085,278.035c1.891-0.17,3.683-0.236,5.444-0.51
		c2.958-0.459,5.793-1.297,7.958-3.554c2.536-2.644,2.825-7.622,0.708-10.045C234.544,268.577,229.887,273.233,225.085,278.035z
		 M214.227,276.289c0.819,0.229,1.552,0.396,2.255,0.643c0.774,0.271,1.304,0.086,1.895-0.512
		c5.05-5.104,10.138-10.168,15.213-15.247c0.248-0.248,0.474-0.518,0.791-0.866c-0.74-0.223-1.312-0.356-1.854-0.565
		c-1.025-0.396-1.739-0.118-2.525,0.681c-4.961,5.045-9.986,10.028-14.988,15.033C214.774,275.695,214.547,275.949,214.227,276.289z
		 M269.033,276.736c0.811,0.223,1.445,0.37,2.062,0.575c0.918,0.306,1.554,0.044,2.251-0.663c4.963-5.035,9.98-10.019,14.979-15.02
		c0.255-0.255,0.491-0.528,0.84-0.905c-0.742-0.218-1.342-0.352-1.908-0.57c-0.949-0.367-1.606-0.138-2.346,0.613
		c-4.984,5.064-10.028,10.069-15.051,15.095C269.619,276.102,269.393,276.355,269.033,276.736z"/>
	<path fill-rule="evenodd" clip-rule="evenodd" d="M184.671,256.243c-0.169-25.76,9.918-45.953,31.684-59.706
		c21.323-13.473,49.306-12.847,70.298,1.071c22.464,14.894,30.892,38.834,29.659,58.58
		C272.518,245.975,228.718,245.963,184.671,256.243z M310.526,249.094c-0.343-14.602-8.373-35.16-28.218-47.526
		c-19.74-12.301-45.047-12.157-64.423,0.69c-16.669,11.053-25.597,26.78-27.434,46.88
		C230.642,240.788,270.584,240.786,310.526,249.094z"/>
</g>
</svg>
