<?xml version="1.0" encoding="utf-8"?>
<!-- Generator: Adobe Illustrator 16.0.0, SVG Export Plug-In . SVG Version: 6.00 Build 0)  -->
<!DOCTYPE svg PUBLIC "-//W3C//DTD SVG 1.1//EN" "http://www.w3.org/Graphics/SVG/1.1/DTD/svg11.dtd">
<svg version="1.1" xmlns="http://www.w3.org/2000/svg" xmlns:xlink="http://www.w3.org/1999/xlink" x="0px" y="0px" width="500px"
	 height="500px" viewBox="0 0 500 500" enable-background="new 0 0 500 500" xml:space="preserve">
<g id="Layer_1">
	<g id="Layer_2_1_">
		<path fill="#F25C28" d="M250.473,81.081c-93.449,0-168.919,75.706-168.919,168.919c0,93.21,75.708,168.919,168.919,168.919
			c93.213,0,168.92-75.709,168.92-168.919C419.393,156.787,343.686,81.081,250.473,81.081z M250.473,339.188
			c-49.209,0-89.19-39.979-89.19-89.188c0-49.209,39.981-89.192,89.19-89.192c49.213,0,89.191,39.983,89.191,89.192
			C339.426,299.21,299.686,339.188,250.473,339.188z"/>
		<path fill="#F27A27" d="M230.603,97.878c18.214,0,80.198-3.783,129.882,45.896c1.652,1.894,36.43,15.142,10.172-6.859
			c-26.025-22.004-58.908-56.545-144.076-51.339C220.666,86.996,215.932,99.06,230.603,97.878"/>
		<path fill="#FCAF3B" d="M324.76,146.141c-16.09-10.408-39.033-21.765-62.695-22.711c-7.094,0-4.26,10.171,0,10.408
			c4.258,0,40.455,7.807,55.602,21.057C319.555,156.315,329.016,155.605,324.76,146.141z"/>
		<path fill="#FCAF3B" d="M147.088,171.692c0,0-10.883,14.431-13.486,21.529c-2.602,7.098,6.624,7.808,8.043,5.914
			c1.42-1.889,9.938-17.27,13.486-20.108C158.682,176.187,152.056,166.25,147.088,171.692z"/>
		<path fill="#FCAF3B" d="M126.504,208.597c-1.654,4.733-3.312,10.646-4.023,14.903c-0.708,4.26,8.519,7.099,10.175,1.893
			c1.657-5.201,3.077-12.536,3.784-13.246C137.625,206.233,129.108,199.843,126.504,208.597z"/>
		<path fill="#FCAF3B" d="M367.344,271.056c-1.184,10.175-6.859,28.154-8.988,31.938c-1.895,3.787,3.547,12.777,10.168,4.258
			c2.84-7.807,7.814-19.634,9.941-34.774C379.172,266.799,369.947,258.519,367.344,271.056z"/>
		<g>
			<path fill="#FFFFFF" d="M135.733,119.643c13.248-10.646,55.359-38.798,86.117-39.273c4.494,0,4.73,3.787,5.205,5.207
				c0.47,1.42,22.47,73.577,22.47,73.577s4.497,8.516-8.278,10.173c-12.777,1.656-33.832,7.806-51.578,25.787
				c-1.418,1.183-4.493,3.787-8.516,0.474c-4.019-3.312-43.765-64.348-45.659-66.951
				C133.365,125.796,133.839,121.063,135.733,119.643z"/>
			<path fill="#E7E7E9" d="M188.017,196.06c0,0-4.495,3.311-8.518-2.129c-4.023-5.206-41.875-62.693-43.766-65.77
				c-1.894-3.076,0-6.151,1.892-7.569c4.496,7.095,41.165,62.22,44.005,65.059c2.838,2.837,5.913,2.367,8.989,0
				c2.841-2.366,30.519-27.917,57.015-26.498c2.603,0.236,1.892,1.892,1.892,4.022c0,2.13-1.892,4.731-6.623,4.968
				C235.332,167.434,201.264,177.606,188.017,196.06"/>
			<path fill="#FFFFFF" d="M169.326,97.64c-4.023-9.936-12.302-21.766-5.205-25.787c6.86-4.02,13.959,12.541,16.326,20.108
				C178.55,92.911,173.349,98.588,169.326,97.64z"/>
		</g>
		<g>
			<path fill="#FFFFFF" d="M421.283,219.955c-3.547-16.561-18.215-65.061-41.635-84.933c-3.555-2.839-6.15-0.238-7.334,0.711
				c-1.184,0.944-63.877,42.819-63.877,42.819s-8.994,3.786,0,13.011c8.986,9.466,21.289,27.445,23.654,52.758
				c0.238,1.893,1.184,5.679,6.391,5.679c5.203,0,74.523-22.24,77.596-22.948C419.156,226.105,421.996,222.319,421.283,219.955z"/>
			<path fill="#E7E7E9" d="M332.563,245.977c0,0,1.424,5.443,7.813,3.785c6.387-1.654,72.154-22.002,75.471-23.183
				c3.311-1.187,3.785-4.97,3.311-7.097c-7.807,2.603-71.211,22-75.232,22.472c-4.021,0.477-6.154-1.893-6.863-5.678
				c-0.707-3.783-5.912-40.927-27.441-56.542c-2.131-1.417-2.838,0.237-4.021,1.894s-1.658,4.732,2.127,8.043
				C313.875,193.931,333.986,223.266,332.563,245.977"/>
			<path fill="#FFFFFF" d="M402.832,170.271c9.936-4.021,21.766-12.302,25.789-5.441c4.018,6.861-12.543,13.958-20.111,16.325
				C407.799,179.498,402.123,174.292,402.832,170.271z"/>
		</g>
		<g>
			<path fill="#FFFFFF" d="M364.268,380.354c-13.248,10.649-55.359,38.801-86.111,39.276c-4.499,0-4.734-3.789-5.206-5.206
				c-0.475-1.42-22.478-73.58-22.478-73.58s-4.498-8.515,8.278-10.17c12.776-1.657,33.835-7.806,51.575-25.786
				c1.422-1.184,4.5-3.787,8.521-0.474c4.021,3.31,43.764,64.347,45.654,66.952C366.398,374.204,366.16,378.939,364.268,380.354z"/>
			<path fill="#E7E7E9" d="M311.986,303.939c0,0,4.496-3.31,8.514,2.131c4.023,5.205,41.877,62.691,43.768,65.769
				c1.893,3.077,0,6.15-1.891,7.57c-4.496-7.101-41.164-62.221-44.004-65.059c-2.84-2.841-5.914-2.367-8.992,0
				c-2.84,2.363-30.518,27.917-57.017,26.494c-2.598-0.232-1.892-1.888-1.892-4.021c0-2.128,1.892-4.73,6.625-4.963
				C264.666,332.566,298.736,322.395,311.986,303.939"/>
			<path fill="#FFFFFF" d="M329.727,402.357c4.021,9.936,12.305,21.765,5.207,25.788c-6.863,4.024-13.961-12.537-16.328-20.107
				C320.5,407.088,325.705,401.647,329.727,402.357z"/>
		</g>
		<g>
			<path fill="#FFFFFF" d="M78.479,280.047c3.548,16.561,18.218,65.061,41.639,84.934c3.546,2.839,6.15,0.233,7.334-0.712
				c1.184-0.947,63.874-42.823,63.874-42.823s8.992-3.783,0-13.013c-8.987-9.462-21.289-27.439-23.655-52.753
				c-0.236-1.894-1.184-5.68-6.387-5.68c-5.205,0-74.524,22.239-77.6,22.947C80.608,273.896,78.005,277.682,78.479,280.047z"/>
			<path fill="#E7E7E9" d="M167.434,254.023c0,0-1.42-5.443-7.808-3.79c-6.387,1.658-72.157,22.005-75.471,23.185
				c-3.308,1.42-3.784,4.971-3.308,7.102c7.803-2.604,71.208-22.002,75.23-22.478c4.022-0.473,6.15,1.893,6.861,5.678
				c0.71,3.548,5.915,40.929,27.442,56.545c2.128,1.419,2.84-0.236,4.022-1.894c1.184-1.658,1.653-4.731-2.127-8.044
				C185.887,306.07,166.014,276.734,167.434,254.023"/>
			<path fill="#FFFFFF" d="M97.169,331.146c-9.937,4.021-21.766,12.306-25.789,5.207c-4.02-6.862,12.541-13.959,20.11-16.324
				C92.438,321.919,98.114,327.126,97.169,331.146z"/>
		</g>
	</g>
	<circle opacity="0.5" fill="#99C8CF" enable-background="new    " cx="250" cy="250" r="115.411"/>
	
		<image display="none" overflow="visible" width="1067" height="1067" xlink:href="../events/Sport icons-01.png"  transform="matrix(0.2249 0 0 0.2249 130.0024 130.0029)">
	</image>
</g>
<g id="Layer_2">
	<path fill-rule="evenodd" clip-rule="evenodd" d="M284.485,236.081c-0.344,2.376-0.669,4.563-0.976,6.751
		c-0.765,5.439-1.524,10.879-2.271,16.321c-0.057,0.415-0.061,0.857,0.016,1.269c3.014,16.431,6.041,32.858,9.064,49.287
		c0.279,1.516-0.236,2.57-1.646,3.23c-7.99,3.741-16.35,6.257-25.084,7.532c-8.141,1.188-16.291,1.257-24.442,0.169
		c-2.392-0.319-4.768-0.769-7.142-1.207c-1.844-0.342-2.357-0.865-2.873-2.731c-5.107-0.043-10.017-1.147-14.775-2.999
		c-3.558-1.385-3.825-1.916-3.134-5.624c2.376-12.747,4.722-25.501,7.077-38.252c0.552-2.992,1.209-5.972,1.595-8.985
		c0.188-1.472-0.043-3.021-0.246-4.515c-0.888-6.557-1.834-13.107-2.762-19.659c-0.022-0.155-0.076-0.306-0.171-0.677
		c-0.328,0.444-0.556,0.738-0.769,1.042c-8.829,12.688-17.656,25.378-26.483,38.068c-1.393,2.002-2.83,2.222-4.758,0.777
		c-4.982-3.73-9.97-7.452-14.972-11.155c-1.624-1.202-1.958-2.227-1.196-4.099c4.951-12.161,10.933-23.797,17.837-34.959
		c7.383-11.936,15.628-23.231,25.089-33.617c0.263-0.288,0.57-0.581,0.917-0.74c6.399-2.939,12.674-6.208,19.241-8.708
		c14.132-5.378,28.194-4.719,41.956,1.6c4.808,2.207,9.59,4.47,14.404,6.66c1.034,0.47,1.772,1.171,2.483,2.033
		c2.358,2.86,4.87,5.596,7.192,8.484c10.822,13.462,20.088,27.936,27.755,43.41c2.597,5.239,4.869,10.64,7.248,15.986
		c0.752,1.69,0.356,2.758-1.125,3.857c-5.051,3.749-10.093,7.509-15.126,11.281c-1.835,1.376-3.334,1.174-4.632-0.691
		c-8.865-12.743-17.73-25.487-26.597-38.23C285,236.727,284.793,236.481,284.485,236.081z M250,275.479
		c-0.123,0.403-0.219,0.611-0.248,0.828c-0.485,3.707-0.958,7.415-1.443,11.122c-0.643,4.92-1.275,9.843-1.964,14.756
		c-0.082,0.583-0.391,1.206-0.774,1.658c-0.743,0.875-2.059,1.035-3.099,0.524c-1.1-0.539-1.651-1.619-1.477-2.979
		c0.303-2.363,0.632-4.722,0.941-7.084c0.974-7.446,1.946-14.894,2.916-22.341c0.401-3.078,0.794-6.158,1.205-9.343
		c-1.731,0-3.385,0.071-5.028-0.025c-1.048-0.063-1.448,0.249-1.688,1.306c-1.937,8.494-3.378,17.063-4.205,25.738
		c-0.758,7.955-0.94,15.92-0.651,23.901c0.023,0.65,0.214,0.902,0.875,1.021c5.619,1.005,11.272,1.472,16.985,1.372
		c10.785-0.189,21.113-2.456,31.063-6.58c0.98-0.407,1.21-0.831,1.014-1.874c-2.328-12.381-4.602-24.772-6.891-37.16
		c-0.472-2.557-0.949-5.111-1.422-7.657c-7.91,0-15.717,0-23.594,0c0.836,3.458,1.658,6.862,2.48,10.266
		c1.73,7.167,3.465,14.333,5.188,21.501c0.417,1.735-0.411,3.23-1.94,3.568c-1.607,0.355-2.945-0.549-3.362-2.279
		c-0.603-2.508-1.198-5.018-1.803-7.524C252.069,284.02,251.057,279.846,250,275.479z M240.988,257.154c1.376,0,2.463,0,3.55,0
		c10.132,0,20.266-0.009,30.399,0.017c0.821,0.002,1.153-0.188,1.236-1.066c0.168-1.776,0.492-3.537,0.74-5.306
		c1.287-9.172,2.564-18.345,3.857-27.516c1.279-9.073,2.578-18.143,3.832-27.219c0.041-0.299-0.239-0.813-0.512-0.956
		c-1.227-0.646-2.505-1.194-3.766-1.776c-2.3-1.062-4.601-2.123-6.933-3.199c-0.236,0.391-0.431,0.694-0.607,1.008
		c-4.677,8.297-9.282,16.635-14.044,24.882c-5.501,9.526-10.514,19.271-14.047,29.717
		C243.437,249.46,242.267,253.209,240.988,257.154z M225.271,257.154c3.087,0,6.034-0.051,8.979,0.027
		c1.004,0.027,1.327-0.343,1.573-1.246c2.849-10.426,6.55-20.535,11.422-30.194c0.357-0.709,0.312-1.217-0.079-1.889
		c-6.354-10.924-12.681-21.863-19.017-32.798c-0.159-0.275-0.346-0.534-0.527-0.813c-3.534,1.636-6.978,3.245-10.437,4.818
		c-0.529,0.24-0.618,0.519-0.533,1.066c0.379,2.452,0.702,4.913,1.047,7.371c1.093,7.765,2.187,15.53,3.28,23.295
		c1.033,7.339,2.064,14.679,3.099,22.019C224.466,251.556,224.863,254.301,225.271,257.154z M211.709,200.019
		c-7.892,9.345-14.841,19.076-21.121,29.292c-6.271,10.203-11.777,20.796-16.369,31.841c4.061,3.034,8.026,5.997,12.018,8.979
		c0.171-0.224,0.318-0.4,0.449-0.588c9.374-13.47,18.738-26.946,28.137-40.398c0.617-0.883,0.797-1.703,0.636-2.75
		c-0.617-4.021-1.16-8.053-1.729-12.081C213.068,209.63,212.406,204.949,211.709,200.019z M289.601,200.162
		c-0.093,0.342-0.128,0.432-0.142,0.525c-1.248,8.812-2.506,17.622-3.711,26.439c-0.075,0.55,0.116,1.26,0.437,1.721
		c9.349,13.493,18.73,26.963,28.107,40.437c0.201,0.289,0.419,0.567,0.628,0.851c4.048-3.027,8.018-5.996,12.036-9.002
		C317.592,238.96,305.092,218.77,289.601,200.162z M268.397,187.833c-11.996-4.484-23.809-4.462-35.75,0.107
		c6.056,10.456,12.042,20.791,18.088,31.229C256.654,208.668,262.48,198.331,268.397,187.833z M225.153,262.666
		c-2.84,15.385-5.665,30.693-8.504,46.073c4.018,1.495,8.03,2.54,12.304,2.447c-0.407-16.471,1.405-32.567,5.12-48.521
		C231.071,262.666,228.167,262.666,225.153,262.666z"/>
</g>
</svg>
