<?xml version="1.0" encoding="utf-8"?>
<!-- Generator: Adobe Illustrator 16.0.0, SVG Export Plug-In . SVG Version: 6.00 Build 0)  -->
<!DOCTYPE svg PUBLIC "-//W3C//DTD SVG 1.1//EN" "http://www.w3.org/Graphics/SVG/1.1/DTD/svg11.dtd">
<svg version="1.1" id="Layer_1" xmlns="http://www.w3.org/2000/svg" xmlns:xlink="http://www.w3.org/1999/xlink" x="0px" y="0px"
	 width="500px" height="500px" viewBox="0 0 500 500" enable-background="new 0 0 500 500" xml:space="preserve">
<g>
	<defs>
		<rect id="SVGID_1_" width="500" height="500"/>
	</defs>
	<clipPath id="SVGID_2_">
		<use xlink:href="#SVGID_1_"  overflow="visible"/>
	</clipPath>
	<g clip-path="url(#SVGID_2_)">
		<defs>
			<rect id="SVGID_3_" width="500" height="500"/>
		</defs>
		<clipPath id="SVGID_4_">
			<use xlink:href="#SVGID_3_"  overflow="visible"/>
		</clipPath>
		<path clip-path="url(#SVGID_4_)" fill="#F25C28" d="M250.473,81.082c-93.449,0-168.919,75.705-168.919,168.918
			c0,93.21,75.708,168.919,168.919,168.919c93.213,0,168.92-75.709,168.92-168.919C419.393,156.787,343.686,81.082,250.473,81.082
			 M250.473,339.188c-49.209,0-89.19-39.979-89.19-89.189c0-49.209,39.981-89.192,89.19-89.192
			c49.213,0,89.191,39.983,89.191,89.192C339.426,299.21,299.686,339.188,250.473,339.188"/>
		<path clip-path="url(#SVGID_4_)" fill="#F27A27" d="M230.603,97.878c18.214,0,80.198-3.783,129.882,45.896
			c1.652,1.894,36.43,15.142,10.172-6.859c-26.025-22.004-58.909-56.546-144.076-51.339
			C220.667,86.996,215.933,99.06,230.603,97.878"/>
		<path clip-path="url(#SVGID_4_)" fill="#FCAF3B" d="M324.76,146.141c-16.09-10.408-39.033-21.765-62.695-22.711
			c-7.094,0-4.26,10.171,0,10.407c4.258,0,40.455,7.807,55.602,21.057C319.555,156.315,329.016,155.605,324.76,146.141"/>
		<path clip-path="url(#SVGID_4_)" fill="#FCAF3B" d="M147.088,171.692c0,0-10.883,14.431-13.486,21.529
			c-2.602,7.098,6.624,7.808,8.044,5.913c1.42-1.888,9.937-17.269,13.486-20.107C158.682,176.187,152.056,166.251,147.088,171.692"
			/>
		<path clip-path="url(#SVGID_4_)" fill="#FCAF3B" d="M126.504,208.597c-1.654,4.733-3.312,10.647-4.023,14.903
			c-0.708,4.26,8.519,7.099,10.175,1.893c1.657-5.201,3.077-12.536,3.784-13.246C137.625,206.233,129.108,199.843,126.504,208.597"
			/>
		<path clip-path="url(#SVGID_4_)" fill="#FCAF3B" d="M367.344,271.056c-1.184,10.175-6.859,28.154-8.988,31.938
			c-1.895,3.787,3.547,12.777,10.168,4.258c2.841-7.807,7.814-19.633,9.941-34.774C379.172,266.799,369.948,258.519,367.344,271.056
			"/>
		<path clip-path="url(#SVGID_4_)" fill="#FFFFFF" d="M135.733,119.643c13.248-10.646,55.359-38.798,86.117-39.273
			c4.494,0,4.731,3.787,5.205,5.206c0.47,1.42,22.47,73.577,22.47,73.577s4.497,8.516-8.278,10.173
			c-12.777,1.656-33.831,7.806-51.578,25.787c-1.418,1.182-4.492,3.787-8.515,0.473c-4.019-3.312-43.765-64.348-45.659-66.95
			C133.365,125.797,133.84,121.063,135.733,119.643"/>
		<path clip-path="url(#SVGID_4_)" fill="#E7E7E9" d="M188.017,196.06c0,0-4.495,3.311-8.518-2.129
			c-4.023-5.206-41.875-62.693-43.766-65.77c-1.894-3.077,0-6.152,1.891-7.57c4.496,7.095,41.165,62.22,44.005,65.059
			c2.839,2.838,5.913,2.367,8.99,0c2.84-2.366,30.518-27.917,57.014-26.497c2.603,0.236,1.892,1.891,1.892,4.022
			c0,2.13-1.892,4.731-6.623,4.968C235.331,167.434,201.264,177.606,188.017,196.06"/>
		<path clip-path="url(#SVGID_4_)" fill="#FFFFFF" d="M169.326,97.64c-4.023-9.936-12.302-21.766-5.205-25.787
			c6.86-4.02,13.959,12.541,16.326,20.108C178.551,92.911,173.349,98.588,169.326,97.64"/>
		<path clip-path="url(#SVGID_4_)" fill="#FFFFFF" d="M421.283,219.955c-3.547-16.561-18.215-65.061-41.635-84.933
			c-3.555-2.84-6.15-0.238-7.334,0.711c-1.184,0.944-63.877,42.819-63.877,42.819s-8.994,3.786,0,13.011
			c8.986,9.466,21.289,27.445,23.654,52.758c0.238,1.893,1.184,5.679,6.391,5.679c5.203,0,74.523-22.24,77.596-22.948
			C419.156,226.105,421.996,222.319,421.283,219.955"/>
		<path clip-path="url(#SVGID_4_)" fill="#E7E7E9" d="M332.563,245.977c0,0,1.424,5.443,7.812,3.785
			c6.388-1.654,72.155-22.002,75.472-23.183c3.311-1.186,3.785-4.969,3.311-7.097c-7.807,2.603-71.211,22-75.232,22.472
			c-4.021,0.477-6.154-1.893-6.863-5.678c-0.707-3.783-5.912-40.927-27.441-56.542c-2.131-1.418-2.838,0.237-4.021,1.893
			c-1.184,1.657-1.658,4.732,2.127,8.043C313.875,193.931,333.986,223.265,332.563,245.977"/>
		<path clip-path="url(#SVGID_4_)" fill="#FFFFFF" d="M402.832,170.271c9.936-4.021,21.766-12.302,25.789-5.441
			c4.018,6.861-12.543,13.958-20.111,16.325C407.799,179.498,402.123,174.292,402.832,170.271"/>
		<path clip-path="url(#SVGID_4_)" fill="#FFFFFF" d="M364.268,380.354c-13.248,10.649-55.359,38.801-86.111,39.276
			c-4.499,0-4.734-3.789-5.206-5.206c-0.475-1.42-22.478-73.58-22.478-73.58s-4.497-8.515,8.278-10.17
			c12.776-1.657,33.835-7.806,51.575-25.786c1.422-1.184,4.5-3.787,8.521-0.474c4.021,3.31,43.764,64.347,45.654,66.952
			C366.398,374.204,366.16,378.939,364.268,380.354"/>
		<path clip-path="url(#SVGID_4_)" fill="#E7E7E9" d="M311.986,303.939c0,0,4.496-3.31,8.514,2.131
			c4.023,5.205,41.877,62.691,43.768,65.769c1.893,3.077,0,6.15-1.891,7.57c-4.496-7.101-41.164-62.221-44.004-65.059
			c-2.84-2.841-5.914-2.367-8.992,0c-2.84,2.363-30.518,27.917-57.017,26.494c-2.598-0.232-1.892-1.888-1.892-4.021
			c0-2.128,1.892-4.73,6.625-4.963C264.666,332.566,298.736,322.395,311.986,303.939"/>
		<path clip-path="url(#SVGID_4_)" fill="#FFFFFF" d="M329.727,402.357c4.021,9.936,12.305,21.765,5.207,25.788
			c-6.863,4.023-13.961-12.537-16.328-20.107C320.5,407.088,325.705,401.647,329.727,402.357"/>
		<path clip-path="url(#SVGID_4_)" fill="#FFFFFF" d="M78.479,280.047c3.548,16.561,18.218,65.061,41.639,84.934
			c3.546,2.839,6.151,0.233,7.334-0.712c1.184-0.947,63.874-42.823,63.874-42.823s8.991-3.783,0-13.013
			c-8.987-9.462-21.289-27.439-23.656-52.753c-0.235-1.894-1.183-5.68-6.387-5.68c-5.205,0-74.524,22.239-77.6,22.947
			C80.607,273.896,78.004,277.682,78.479,280.047"/>
		<path clip-path="url(#SVGID_4_)" fill="#E7E7E9" d="M167.434,254.023c0,0-1.42-5.443-7.808-3.79
			c-6.387,1.658-72.157,22.006-75.471,23.185c-3.308,1.421-3.784,4.972-3.308,7.103c7.803-2.604,71.209-22.002,75.23-22.478
			c4.022-0.473,6.151,1.893,6.862,5.678c0.71,3.548,5.914,40.929,27.442,56.545c2.129,1.419,2.841-0.236,4.022-1.894
			c1.184-1.658,1.653-4.731-2.127-8.044C185.887,306.07,166.014,276.734,167.434,254.023"/>
		<path clip-path="url(#SVGID_4_)" fill="#FFFFFF" d="M97.169,331.146c-9.936,4.021-21.766,12.306-25.788,5.207
			c-4.021-6.862,12.541-13.959,20.109-16.324C92.438,321.919,98.114,327.127,97.169,331.146"/>
		<g opacity="0.5" clip-path="url(#SVGID_4_)" enable-background="new    ">
			<g>
				<defs>
					<rect id="SVGID_5_" x="134.589" y="134.589" width="230.822" height="230.822"/>
				</defs>
				<clipPath id="SVGID_6_">
					<use xlink:href="#SVGID_5_"  overflow="visible"/>
				</clipPath>
				<path clip-path="url(#SVGID_6_)" fill="#99C8CF" d="M365.411,250c0,63.738-51.672,115.411-115.412,115.411
					c-63.74,0-115.41-51.673-115.41-115.411c0-63.739,51.67-115.411,115.41-115.411C313.739,134.589,365.411,186.261,365.411,250"/>
			</g>
		</g>
	</g>
	<g clip-path="url(#SVGID_2_)">
		<defs>
			<rect id="SVGID_7_" width="500" height="500"/>
		</defs>
		<clipPath id="SVGID_8_">
			<use xlink:href="#SVGID_7_"  overflow="visible"/>
		</clipPath>
	</g>
	<g clip-path="url(#SVGID_2_)">
		<defs>
			<rect id="SVGID_9_" width="500" height="500"/>
		</defs>
		<clipPath id="SVGID_10_">
			<use xlink:href="#SVGID_9_"  overflow="visible"/>
		</clipPath>
	</g>
	<g clip-path="url(#SVGID_2_)">
		<defs>
			<rect id="SVGID_11_" width="500" height="500"/>
		</defs>
		<clipPath id="SVGID_12_">
			<use xlink:href="#SVGID_11_"  overflow="visible"/>
		</clipPath>
	</g>
	<g clip-path="url(#SVGID_2_)">
		<defs>
			<rect id="SVGID_13_" width="500" height="500"/>
		</defs>
		<clipPath id="SVGID_14_">
			<use xlink:href="#SVGID_13_"  overflow="visible"/>
		</clipPath>
		<path clip-path="url(#SVGID_14_)" d="M222.736,282.358c1.21-2.095,2.505-4.123,3.595-6.258c4.536-8.879,6.582-18.311,6.081-28.281
			c-0.279-5.544-0.636-11.085-0.828-16.632c-0.287-8.326,1.77-16.141,5.47-23.553c0.72-1.442,1.532-2.841,2.352-4.23
			c0.278-0.471,0.338-0.814,0.08-1.337c-3.721-7.53-0.301-16.452,7.523-19.49c4.104-1.594,8.154-1.291,12.024,0.848
			c0.506,0.279,0.869,0.328,1.414,0.049c5.343-2.742,10.976-4.459,17.014-4.721c13.465-0.584,25.03,6.917,29.587,19.754
			c2.993,8.429,2.896,17.001,0.478,25.504c-4.058,14.266-12.419,25.356-25.177,33.02c-4.06,2.438-8.493,3.93-13.08,5.12
			c-6.843,1.774-13.765,3.357-20.11,6.682c-7.839,4.106-14.408,9.664-19.597,16.842c-0.223,0.309-0.454,0.609-0.673,0.903
			c1.321,1.801,1.324,2.269,0.051,4.088c-6.494,9.286-12.988,18.571-19.483,27.856c-1.144,1.636-2.263,1.841-3.88,0.711
			c-1.885-1.316-3.771-2.632-5.652-3.954c-1.378-0.97-1.606-2.212-0.638-3.6c6.647-9.512,13.3-19.021,19.954-28.529
			C220.117,281.9,221.062,281.652,222.736,282.358 M242.821,206.447c-2.228,3.752-3.964,7.668-5.111,11.829
			c-2.134,7.734-2.484,15.473,0.214,23.157c3.968,11.302,14.195,17.898,26.506,16.852c5.688-0.484,10.958-2.317,15.82-5.244
			c11.164-6.722,18.612-16.428,22.523-28.801c2.531-8.01,2.942-16.142,0.035-24.164c-3.171-8.751-9.307-14.338-18.477-16.326
			c-5.747-1.245-11.37-0.458-16.848,1.535c-1.398,0.509-2.758,1.128-4.165,1.709c4.971,7.009,3.05,14.918-1.651,19.201
			C256.845,210.588,248.914,211.493,242.821,206.447 M231.317,276.428c3.187-3.165,6.62-5.987,10.361-8.433
			c3.754-2.452,7.743-4.44,12.188-6.107c-3.611-1.001-6.726-2.469-9.564-4.508c-2.847-2.043-5.2-4.572-7.31-7.629
			C237.062,259.236,235.131,268.019,231.317,276.428 M222.048,287.392c-5.971,8.537-11.869,16.971-17.731,25.352
			c0.745,0.536,1.583,1.138,2.28,1.64c5.903-8.439,11.804-16.876,17.719-25.333c-0.046-0.034-0.176-0.132-0.307-0.228
			C223.325,288.323,222.64,287.824,222.048,287.392 M258.159,203.144c-4.641-4.822-5.691-10.351-3.212-16.547
			c-2.594-1.028-6.733-0.335-8.329,1.357c4.627,5.057,5.5,10.704,2.682,16.931C252.073,206.044,256.291,205.105,258.159,203.144
			 M243.536,191.44c-2.104,3.907-0.796,8.909,1.795,11.004C247.297,199.257,246.42,193.77,243.536,191.44 M260.953,199.437
			c1.651-3.188,0.587-8.527-2.033-10.379C257.317,192.192,258.216,196.86,260.953,199.437"/>
	</g>
</g>
</svg>
