<?xml version="1.0" encoding="utf-8"?>
<!-- Generator: Adobe Illustrator 16.0.0, SVG Export Plug-In . SVG Version: 6.00 Build 0)  -->
<!DOCTYPE svg PUBLIC "-//W3C//DTD SVG 1.1//EN" "http://www.w3.org/Graphics/SVG/1.1/DTD/svg11.dtd">
<svg version="1.1" xmlns="http://www.w3.org/2000/svg" xmlns:xlink="http://www.w3.org/1999/xlink" x="0px" y="0px" width="500px"
	 height="500px" viewBox="0 0 500 500" enable-background="new 0 0 500 500" xml:space="preserve">
<g id="Layer_1">
	<g id="Layer_2_1_">
		<path fill="#F25C28" d="M250.473,81.081c-93.449,0-168.919,75.706-168.919,168.919c0,93.21,75.708,168.919,168.919,168.919
			c93.213,0,168.92-75.709,168.92-168.919C419.393,156.787,343.686,81.081,250.473,81.081z M250.473,339.188
			c-49.209,0-89.19-39.979-89.19-89.188c0-49.209,39.981-89.192,89.19-89.192c49.213,0,89.191,39.983,89.191,89.192
			C339.426,299.21,299.686,339.188,250.473,339.188z"/>
		<path fill="#F27A27" d="M230.603,97.878c18.214,0,80.198-3.783,129.882,45.896c1.652,1.894,36.43,15.142,10.172-6.859
			c-26.025-22.004-58.908-56.545-144.076-51.339C220.666,86.996,215.932,99.06,230.603,97.878"/>
		<path fill="#FCAF3B" d="M324.76,146.141c-16.09-10.408-39.033-21.765-62.695-22.711c-7.094,0-4.26,10.171,0,10.408
			c4.258,0,40.455,7.807,55.602,21.057C319.555,156.315,329.016,155.605,324.76,146.141z"/>
		<path fill="#FCAF3B" d="M147.088,171.692c0,0-10.883,14.431-13.486,21.529c-2.602,7.098,6.624,7.808,8.043,5.914
			c1.42-1.889,9.938-17.27,13.486-20.108C158.682,176.187,152.056,166.25,147.088,171.692z"/>
		<path fill="#FCAF3B" d="M126.504,208.597c-1.654,4.733-3.312,10.646-4.023,14.903c-0.708,4.26,8.519,7.099,10.175,1.893
			c1.657-5.201,3.077-12.536,3.784-13.246C137.625,206.233,129.108,199.843,126.504,208.597z"/>
		<path fill="#FCAF3B" d="M367.344,271.056c-1.184,10.175-6.859,28.154-8.988,31.938c-1.895,3.787,3.547,12.777,10.168,4.258
			c2.84-7.807,7.814-19.634,9.941-34.774C379.172,266.799,369.947,258.519,367.344,271.056z"/>
		<g>
			<path fill="#FFFFFF" d="M135.733,119.643c13.248-10.646,55.359-38.798,86.117-39.273c4.494,0,4.73,3.787,5.205,5.207
				c0.47,1.42,22.47,73.577,22.47,73.577s4.497,8.516-8.278,10.173c-12.777,1.656-33.832,7.806-51.578,25.787
				c-1.418,1.183-4.493,3.787-8.516,0.474c-4.019-3.312-43.765-64.348-45.659-66.951
				C133.365,125.796,133.839,121.063,135.733,119.643z"/>
			<path fill="#E7E7E9" d="M188.017,196.06c0,0-4.495,3.311-8.518-2.129c-4.023-5.206-41.875-62.693-43.766-65.77
				c-1.894-3.076,0-6.151,1.892-7.569c4.496,7.095,41.165,62.22,44.005,65.059c2.838,2.837,5.913,2.367,8.989,0
				c2.841-2.366,30.519-27.917,57.015-26.498c2.603,0.236,1.892,1.892,1.892,4.022c0,2.13-1.892,4.731-6.623,4.968
				C235.332,167.434,201.264,177.606,188.017,196.06"/>
			<path fill="#FFFFFF" d="M169.326,97.64c-4.023-9.936-12.302-21.766-5.205-25.787c6.86-4.02,13.959,12.541,16.326,20.108
				C178.55,92.911,173.349,98.588,169.326,97.64z"/>
		</g>
		<g>
			<path fill="#FFFFFF" d="M421.283,219.955c-3.547-16.561-18.215-65.061-41.635-84.933c-3.555-2.839-6.15-0.238-7.334,0.711
				c-1.184,0.944-63.877,42.819-63.877,42.819s-8.994,3.786,0,13.011c8.986,9.466,21.289,27.445,23.654,52.758
				c0.238,1.893,1.184,5.679,6.391,5.679c5.203,0,74.523-22.24,77.596-22.948C419.156,226.105,421.996,222.319,421.283,219.955z"/>
			<path fill="#E7E7E9" d="M332.563,245.977c0,0,1.424,5.443,7.813,3.785c6.387-1.654,72.154-22.002,75.471-23.183
				c3.311-1.187,3.785-4.97,3.311-7.097c-7.807,2.603-71.211,22-75.232,22.472c-4.021,0.477-6.154-1.893-6.863-5.678
				c-0.707-3.783-5.912-40.927-27.441-56.542c-2.131-1.417-2.838,0.237-4.021,1.894s-1.658,4.732,2.127,8.043
				C313.875,193.931,333.986,223.266,332.563,245.977"/>
			<path fill="#FFFFFF" d="M402.832,170.271c9.936-4.021,21.766-12.302,25.789-5.441c4.018,6.861-12.543,13.958-20.111,16.325
				C407.799,179.498,402.123,174.292,402.832,170.271z"/>
		</g>
		<g>
			<path fill="#FFFFFF" d="M364.268,380.354c-13.248,10.649-55.359,38.801-86.111,39.276c-4.499,0-4.734-3.789-5.206-5.206
				c-0.475-1.42-22.478-73.58-22.478-73.58s-4.498-8.515,8.278-10.17c12.776-1.657,33.835-7.806,51.575-25.786
				c1.422-1.184,4.5-3.787,8.521-0.474c4.021,3.31,43.764,64.347,45.654,66.952C366.398,374.204,366.16,378.939,364.268,380.354z"/>
			<path fill="#E7E7E9" d="M311.986,303.939c0,0,4.496-3.31,8.514,2.131c4.023,5.205,41.877,62.691,43.768,65.769
				c1.893,3.077,0,6.15-1.891,7.57c-4.496-7.101-41.164-62.221-44.004-65.059c-2.84-2.841-5.914-2.367-8.992,0
				c-2.84,2.363-30.518,27.917-57.017,26.494c-2.598-0.232-1.892-1.888-1.892-4.021c0-2.128,1.892-4.73,6.625-4.963
				C264.666,332.566,298.736,322.395,311.986,303.939"/>
			<path fill="#FFFFFF" d="M329.727,402.357c4.021,9.936,12.305,21.765,5.207,25.788c-6.863,4.024-13.961-12.537-16.328-20.107
				C320.5,407.088,325.705,401.647,329.727,402.357z"/>
		</g>
		<g>
			<path fill="#FFFFFF" d="M78.479,280.047c3.548,16.561,18.218,65.061,41.639,84.934c3.546,2.839,6.15,0.233,7.334-0.712
				c1.184-0.947,63.874-42.823,63.874-42.823s8.992-3.783,0-13.013c-8.987-9.462-21.289-27.439-23.655-52.753
				c-0.236-1.894-1.184-5.68-6.387-5.68c-5.205,0-74.524,22.239-77.6,22.947C80.608,273.896,78.005,277.682,78.479,280.047z"/>
			<path fill="#E7E7E9" d="M167.434,254.023c0,0-1.42-5.443-7.808-3.79c-6.387,1.658-72.157,22.005-75.471,23.185
				c-3.308,1.42-3.784,4.971-3.308,7.102c7.803-2.604,71.208-22.002,75.23-22.478c4.022-0.473,6.15,1.893,6.861,5.678
				c0.71,3.548,5.915,40.929,27.442,56.545c2.128,1.419,2.84-0.236,4.022-1.894c1.184-1.658,1.653-4.731-2.127-8.044
				C185.887,306.07,166.014,276.734,167.434,254.023"/>
			<path fill="#FFFFFF" d="M97.169,331.146c-9.937,4.021-21.766,12.306-25.789,5.207c-4.02-6.862,12.541-13.959,20.11-16.324
				C92.438,321.919,98.114,327.126,97.169,331.146z"/>
		</g>
	</g>
	<circle opacity="0.5" fill="#99C8CF" enable-background="new    " cx="250" cy="250" r="115.411"/>
	
		<image display="none" overflow="visible" width="1067" height="1067" xlink:href="events/Sport icons-01.png"  transform="matrix(0.2249 0 0 0.2249 130 130)">
	</image>
</g>
<g id="Layer_2">
	<path fill-rule="evenodd" clip-rule="evenodd" d="M314.88,274.313c-2.912,1.024-5.772,1.347-8.643,0.766
		c-1.662-0.336-3.265-0.996-4.864-1.593c-0.495-0.186-0.854-0.267-1.356-0.018c-5.151,2.554-10.31,2.521-15.477,0.008
		c-0.316-0.154-0.837-0.159-1.152-0.005c-5.165,2.519-10.313,2.534-15.491,0.035c-0.344-0.166-0.903-0.187-1.24-0.023
		c-5.136,2.494-10.266,2.54-15.391,0.017c-0.569-0.28-0.977-0.229-1.516,0.033c-5.033,2.456-10.088,2.455-15.122,0.01
		c-0.583-0.284-1.009-0.294-1.597-0.008c-5.101,2.48-10.203,2.439-15.307-0.045c-0.338-0.165-0.898-0.159-1.239,0.007
		c-5.174,2.507-10.325,2.496-15.49-0.019c-0.286-0.14-0.741-0.224-0.994-0.094c-4.407,2.266-8.953,2.518-13.729,0.979
		c-0.018,0.352-0.047,0.668-0.047,0.984c-0.003,4.693,0.008,9.387-0.008,14.079c-0.006,1.728-1.069,2.831-2.61,2.79
		c-1.208-0.031-2.165-0.84-2.372-2.034c-0.062-0.359-0.072-0.731-0.072-1.098c-0.003-20.46-0.003-40.919-0.002-61.378
		c0-2.252,0.874-3.131,3.11-3.131c44.17,0,88.341,0,132.511,0c2.258,0,3.097,0.848,3.097,3.116c0,20.551,0.001,41.103-0.001,61.654
		c0,1.717-0.869,2.789-2.311,2.87c-1.537,0.086-2.683-1.002-2.686-2.595c-0.009-4.724-0.003-9.447-0.003-14.172
		C314.88,275.114,314.88,274.779,314.88,274.313z M236.32,229.65c0,3.066-0.013,6.036,0.025,9.005
		c0.003,0.244,0.313,0.584,0.563,0.708c3.499,1.719,7.021,1.736,10.515,0c0.291-0.145,0.576-0.626,0.585-0.96
		c0.056-1.869,0.027-3.741,0.027-5.612c0-1.033,0-2.066,0-3.14C244.096,229.65,240.273,229.65,236.32,229.65z M186.225,229.641
		c0,3.073-0.016,6.044,0.027,9.014c0.004,0.26,0.341,0.623,0.612,0.754c3.411,1.655,6.842,1.641,10.286,0.07
		c0.504-0.23,0.725-0.519,0.715-1.108c-0.037-2.299-0.015-4.6-0.015-6.9c0-0.601,0-1.202,0-1.831
		C193.926,229.641,190.133,229.641,186.225,229.641z M202.943,229.642c0,3.066-0.019,6.033,0.03,8.999
		c0.004,0.278,0.379,0.666,0.676,0.806c3.416,1.62,6.841,1.599,10.273,0.003c0.527-0.245,0.694-0.56,0.688-1.125
		c-0.027-2.664-0.01-5.329-0.016-7.993c0-0.231-0.049-0.461-0.075-0.69C210.652,229.642,206.861,229.642,202.943,229.642z
		 M269.786,229.641c0,3.073-0.016,6.044,0.027,9.015c0.004,0.26,0.34,0.625,0.611,0.756c3.411,1.651,6.843,1.64,10.286,0.068
		c0.505-0.23,0.726-0.518,0.716-1.107c-0.037-2.3-0.015-4.6-0.015-6.9c0-0.601,0-1.202,0-1.832
		C277.488,229.641,273.695,229.641,269.786,229.641z M298.158,229.668c-3.954,0-7.767,0-11.651,0c0,3.056-0.011,6.052,0.022,9.047
		c0.002,0.222,0.273,0.537,0.499,0.647c3.527,1.73,7.07,1.722,10.595-0.006c0.229-0.112,0.51-0.424,0.512-0.646
		C298.169,235.715,298.158,232.72,298.158,229.668z M219.634,229.656c0,3.045-0.016,6.014,0.028,8.981
		c0.004,0.261,0.345,0.622,0.618,0.758c2.973,1.488,6.042,1.646,9.172,0.542c1.871-0.659,1.866-0.671,1.866-2.625
		c0-2.536,0-5.071,0-7.656C227.414,229.656,223.598,229.656,219.634,229.656z M253.037,229.659c0,3.043-0.013,6.011,0.024,8.979
		c0.003,0.247,0.293,0.597,0.538,0.718c3.494,1.719,7.013,1.753,10.508,0.017c0.291-0.145,0.573-0.623,0.588-0.957
		c0.063-1.499,0.027-3.002,0.027-4.504c0-1.401,0-2.802,0-4.253C260.797,229.659,256.979,229.659,253.037,229.659z M314.879,229.683
		c-3.95,0-7.79,0-11.684,0c0,3.017-0.013,5.958,0.021,8.897c0.003,0.259,0.253,0.634,0.49,0.753
		c3.553,1.779,7.126,1.757,10.676-0.01c0.233-0.116,0.472-0.498,0.476-0.758C314.892,235.626,314.879,232.688,314.879,229.683z
		 M236.319,259.484c0,3.046-0.011,5.922,0.02,8.798c0.003,0.238,0.227,0.588,0.443,0.695c3.576,1.785,7.173,1.796,10.755,0.019
		c0.222-0.11,0.474-0.441,0.476-0.673c0.032-2.902,0.021-5.805,0.021-8.833C244.118,260.842,240.274,260.854,236.319,259.484z
		 M236.319,244.648c0,3.053-0.014,5.958,0.025,8.862c0.003,0.238,0.319,0.571,0.571,0.693c3.494,1.705,7,1.691,10.516,0.035
		c0.496-0.233,0.622-0.557,0.616-1.073c-0.026-2.051-0.011-4.103-0.011-6.154c0-0.748,0-1.496,0-2.359
		C244.091,246,240.28,246.011,236.319,244.648z M253.038,259.485c0,3.032-0.009,5.968,0.02,8.903c0.002,0.2,0.241,0.482,0.442,0.584
		c3.547,1.784,7.119,1.815,10.674,0.043c0.268-0.134,0.52-0.599,0.525-0.913c0.04-2.666,0.024-5.333,0.018-7.999
		c0-0.167-0.064-0.334-0.113-0.573C260.74,260.859,256.922,260.838,253.038,259.485z M186.225,244.655
		c0,3.04-0.014,5.948,0.025,8.856c0.003,0.241,0.307,0.578,0.555,0.7c3.466,1.693,6.945,1.69,10.44,0.051
		c0.511-0.24,0.62-0.566,0.614-1.076c-0.022-1.899-0.009-3.8-0.009-5.7c0-0.905,0-1.81,0-2.822
		C193.939,246.001,190.153,246.006,186.225,244.655z M314.879,259.747c-2.003,0.267-3.934,0.724-5.864,0.725
		c-1.918,0-3.836-0.459-5.818-0.726c0,2.814-0.014,5.689,0.024,8.565c0.003,0.248,0.295,0.6,0.542,0.723
		c3.53,1.742,7.074,1.714,10.595-0.029c0.236-0.117,0.496-0.48,0.499-0.732C314.892,265.394,314.879,262.514,314.879,259.747z
		 M202.944,244.731c0,2.991-0.017,5.901,0.03,8.811c0.004,0.251,0.377,0.596,0.659,0.73c3.421,1.636,6.854,1.586,10.29,0.018
		c0.515-0.234,0.698-0.557,0.691-1.13c-0.032-2.515-0.012-5.03-0.016-7.545c0-0.288-0.033-0.575-0.051-0.881
		C209.798,246.057,207.392,245.949,202.944,244.731z M269.787,244.658c0,3.041-0.009,5.972,0.02,8.901
		c0.002,0.204,0.235,0.495,0.437,0.595c3.585,1.777,7.179,1.789,10.756-0.026c0.18-0.091,0.391-0.349,0.392-0.531
		c0.024-2.937,0.018-5.874,0.018-8.935C277.512,246.02,273.696,246.015,269.787,244.658z M286.508,244.671
		c0,3.045-0.012,5.983,0.023,8.92c0.003,0.214,0.309,0.508,0.542,0.622c3.506,1.715,7.026,1.694,10.519-0.023
		c0.271-0.133,0.531-0.583,0.544-0.896c0.057-1.47,0.025-2.943,0.025-4.416c0-1.371,0-2.741,0-4.24
		C294.237,246.024,290.417,245.996,286.508,244.671z M219.637,259.49c0,3.07-0.012,5.975,0.022,8.879
		c0.003,0.224,0.28,0.539,0.509,0.652c3.561,1.761,7.133,1.729,10.681-0.04c0.215-0.106,0.446-0.443,0.448-0.676
		c0.031-2.907,0.02-5.815,0.02-8.827C227.439,260.844,223.621,260.858,219.637,259.49z M219.636,244.662
		c0,3.082-0.017,5.987,0.031,8.891c0.004,0.25,0.395,0.587,0.681,0.723c3.451,1.639,6.905,1.588,10.359-0.025
		c0.494-0.23,0.638-0.546,0.622-1.068c-0.036-1.163-0.011-2.328-0.011-3.492c0-1.642,0-3.285,0-5.045
		C227.405,246.012,223.59,246.004,219.636,244.662z M264.723,244.646c-3.996,1.389-7.811,1.336-11.686,0.009
		c0,3.029-0.014,5.936,0.024,8.843c0.004,0.242,0.305,0.582,0.553,0.702c3.461,1.686,6.941,1.707,10.44,0.082
		c0.53-0.246,0.694-0.579,0.679-1.138c-0.034-1.286-0.011-2.573-0.011-3.86C264.723,247.791,264.723,246.297,264.723,244.646z
		 M314.879,244.648c-3.931,1.359-7.745,1.359-11.525,0.066c-0.068,0.118-0.125,0.17-0.126,0.223
		c-0.013,2.849-0.036,5.697-0.007,8.544c0.003,0.247,0.297,0.599,0.544,0.72c3.529,1.728,7.071,1.711,10.59-0.032
		c0.237-0.117,0.499-0.48,0.502-0.732C314.892,250.56,314.879,247.683,314.879,244.648z M197.848,259.481
		c-3.94,1.398-7.754,1.337-11.623,0.023c0,3.036-0.011,5.946,0.021,8.855c0.002,0.223,0.262,0.539,0.484,0.649
		c3.525,1.752,7.068,1.757,10.598,0.013c0.225-0.111,0.495-0.423,0.497-0.645C197.859,265.471,197.848,262.563,197.848,259.481z
		 M202.942,259.495c0,2.944,0.023,5.727-0.018,8.508c-0.009,0.637,0.24,0.924,0.769,1.165c3.079,1.404,6.194,1.543,9.357,0.32
		c1.552-0.6,1.548-0.607,1.549-2.283c0-2.536,0-5.072,0-7.728C210.701,260.854,206.887,260.849,202.942,259.495z M286.505,259.496
		c0,3.049-0.016,5.924,0.026,8.798c0.004,0.265,0.323,0.637,0.59,0.768c3.467,1.692,6.942,1.674,10.429,0.014
		c0.506-0.241,0.632-0.548,0.621-1.061c-0.029-1.285-0.01-2.571-0.01-3.857c0-1.521,0-3.043,0-4.682
		C294.248,260.853,290.434,260.847,286.505,259.496z M269.787,259.487c0,3.052-0.014,5.962,0.025,8.871
		c0.003,0.235,0.314,0.563,0.563,0.686c3.469,1.71,6.948,1.695,10.441,0.041c0.461-0.219,0.611-0.484,0.606-0.98
		c-0.025-2.207-0.011-4.415-0.011-6.622c0-0.627,0-1.254,0-1.992C277.49,260.857,273.702,260.858,269.787,259.487z"/>
	<path fill-rule="evenodd" clip-rule="evenodd" d="M265,206.194c0-7.235,5.821-13.101,13.056-13.153
		c7.214-0.052,13.162,5.883,13.174,13.146c0.012,7.251-5.933,13.185-13.165,13.143C270.817,219.287,265,213.439,265,206.194z
		 M278.146,198.133c-4.5-0.008-8.162,3.629-8.145,8.089c0.017,4.383,3.645,8.022,8.02,8.045c4.512,0.023,8.163-3.576,8.175-8.059
		C286.207,201.764,282.595,198.141,278.146,198.133z"/>
</g>
</svg>
