<?xml version="1.0" encoding="UTF-8" standalone="no"?>
<!-- Generator: Adobe Illustrator 18.0.0, SVG Export Plug-In . SVG Version: 6.00 Build 0)  -->

<svg
   xmlns:dc="http://purl.org/dc/elements/1.1/"
   xmlns:cc="http://creativecommons.org/ns#"
   xmlns:rdf="http://www.w3.org/1999/02/22-rdf-syntax-ns#"
   xmlns:svg="http://www.w3.org/2000/svg"
   xmlns="http://www.w3.org/2000/svg"
   xmlns:sodipodi="http://sodipodi.sourceforge.net/DTD/sodipodi-0.dtd"
   xmlns:inkscape="http://www.inkscape.org/namespaces/inkscape"
   version="1.1"
   x="0px"
   y="0px"
   viewBox="0 0 489 550"
   enable-background="new 0 0 612 792"
   xml:space="preserve"
   id="svg2"
   inkscape:version="0.91 r"
   sodipodi:docname="arrow2.svg"
   width="489"
   height="550"><metadata
     id="metadata54"><rdf:RDF><cc:Work
         rdf:about=""><dc:format>image/svg+xml</dc:format><dc:type
           rdf:resource="http://purl.org/dc/dcmitype/StillImage" /><dc:title></dc:title></cc:Work></rdf:RDF></metadata><defs
     id="defs52" /><sodipodi:namedview
     pagecolor="#3c92ff"
     bordercolor="#666666"
     borderopacity="1"
     objecttolerance="10"
     gridtolerance="10"
     guidetolerance="10"
     inkscape:pageopacity="0"
     inkscape:pageshadow="2"
     inkscape:window-width="1313"
     inkscape:window-height="744"
     id="namedview50"
     showgrid="false"
     inkscape:showpageshadow="false"
     showborder="true"
     inkscape:zoom="0.2979798"
     inkscape:cx="-1.0677966"
     inkscape:cy="396"
     inkscape:window-x="53"
     inkscape:window-y="24"
     inkscape:window-maximized="1"
     inkscape:current-layer="svg2" /><g
     id="Layer_2"
     display="none"
     style="display:none"
     transform="translate(0,-242)"><rect
       x="114"
       y="203.3"
       display="inline"
       width="384.70001"
       height="370.70001"
       id="rect5"
       style="display:inline;fill:#1e0404" /></g><g
     id="Layer_1"
     transform="translate(-26.847458,-30.576271)"><line
       x1="-7885"
       y1="123"
       x2="8498"
       y2="123"
       id="line8"
       style="fill:none" /><rect
       x="132.3"
       y="301"
       width="49.299999"
       height="24.4"
       id="rect10"
       style="fill:none" /><path
       d="m 324,256.2 c 8.9,2.4 17.8,4.5 27.2,4.7 5,0.1 9.9,2.1 14.9,3.2 5.1,1.2 10.1,2.3 15.1,3.7 1.3,0.3 2.4,1.3 4.1,2.3 3.1,0 7.1,-0.5 11,0.1 4.8,0.8 9.5,2.5 14.2,4 2.4,0.7 3.5,9 1.3,10.7 -10.9,7.8 -19,18.3 -27.7,28.3 -3.9,4.5 -5.8,10.8 -10.1,14.5 -4,3.4 -3.6,9.7 -9.1,11.5 -0.3,-0.7 -0.5,-1.4 -0.9,-2.4 -0.8,0.6 -1.9,1 -2.2,1.7 -0.4,1 -0.1,2.2 -0.1,3.4 -0.4,-0.1 -1.3,-0.5 -1.9,-0.7 -3.3,3.2 -6.4,6.2 -10.4,10.1 -1.1,-8.1 3.7,-12.2 6.1,-17.2 2.4,-5 5,-10 8.1,-14.6 7.2,-10.2 14.6,-20.2 22.3,-30 2.7,-3.4 6.8,-5.8 10.3,-8.6 -14.1,-1.2 -27.5,-3.3 -39.9,-9.8 -14.1,1.1 -26.3,-5.9 -39.9,-9.5 1.2,-1.8 2.4,-3.6 3.5,-5.3 1.5,-0.1 2.8,-0.1 4.1,-0.1 z"
       id="path12"
       inkscape:connector-curvature="0"
       style="fill:#ffffff" /><path
       d="m 274.3,344.5 c -1.7,3.5 -1.3,8.5 -6.8,9.2 -0.3,0 -0.7,0.4 -0.7,0.6 -0.6,6 -5.7,8.7 -9.1,12.6 -2.5,2.9 -3.7,7.2 -8.7,7.6 -0.9,0.1 -1.4,2.7 -2.5,3.7 -4,4 -8.2,7.7 -12.1,11.8 -1.2,1.2 -1.1,3.5 -2.3,4.8 -3.3,3.7 -7.3,6.9 -10.4,10.7 -2.7,3.4 -4.7,7.5 -6.9,11.4 -4.2,7.4 -8.3,14.9 -12.6,22.3 -3,5.2 -6.6,10.1 -9.5,15.4 -1.4,2.5 -1.6,5.7 -2.9,8.3 -2.8,5.5 -5.9,10.8 -9.1,16.1 -0.4,0.6 -1.9,0.6 -3,0.8 1.2,3.7 -2.6,7.4 -0.3,11.5 -2.6,0.5 -4.5,0.9 -6.7,1.3 -1.7,5.1 -2.2,8.2 -0.8,9.3 -1.2,0 -1.9,0 -2.6,0 -0.6,-0.1 -1.3,-0.2 -1.3,-0.2 -3.6,6.5 -7.1,12.7 -10.6,19 -0.5,-0.1 -1,-0.2 -1.6,-0.3 0,-2.1 -0.6,-4.4 0.1,-6.3 4.3,-11.7 8.8,-23.4 13.5,-34.9 4.4,-10.7 8.8,-21.4 14,-31.6 3.7,-7.3 8.8,-13.9 13.1,-20.9 2.8,-4.7 4.9,-9.8 8,-14.3 5.6,-8 11.4,-15.9 17.6,-23.4 6.4,-7.7 13.3,-15 20.4,-22.2 2.4,-2.5 5.9,-3.9 9,-5.8 0.8,-0.5 1.9,-1 2.2,-1.7 4.8,-12.4 15.8,-19.4 25.2,-27.5 6.9,-5.9 14.9,-10.7 22.7,-15.6 6.4,-4 13.2,-7.4 20,-10.7 12.3,-6 24.5,-12.1 37,-17.6 3.8,-1.7 8.3,-1.6 12.4,-2.6 3.2,-0.7 6.2,-1.9 10.5,-2.3 -1.5,2.2 -2.5,5.4 -4.7,6.5 -6.7,3.5 -13.6,7.6 -20.9,9.1 -7.4,1.5 -12.8,5.8 -19,9.1 -7.5,4 -13.3,11.1 -22.5,12.3 -2.4,0.3 -4.4,3.2 -6.7,4.8 -7.4,5.2 -14.9,10.4 -22.3,15.6 -1.1,0.8 -1.9,2.1 -3.1,2.8 -1.6,1 -3.5,1.6 -5.2,2.3 -0.1,-0.5 -0.5,-0.8 -0.8,-1 z"
       id="path14"
       inkscape:connector-curvature="0"
       style="fill:#ffffff" /><rect
       x="201"
       y="374"
       width="166.7"
       height="134"
       id="rect16"
       style="fill:none" /><rect
       x="196.3"
       y="497.29999"
       width="219.3"
       height="82.699997"
       id="rect18"
       style="fill:none" /><g
       id="g20"><g
         enable-background="new    "
         id="g22"><path
           d="m 161.9,450.7 c 0.3,-0.7 0.4,-1.5 0.3,-2.6 -0.1,-1.1 -0.4,-2.1 -0.7,-3.2 -0.3,-1.1 -0.7,-2.1 -1.1,-3.1 -0.4,-1 -0.7,-1.7 -1,-2.3 -0.2,-0.3 -0.2,-0.6 -0.2,-0.8 0,-0.2 0.1,-0.3 0.3,-0.4 0.1,0 0.3,0 0.5,0.1 0.2,0.1 0.4,0.3 0.6,0.6 0.2,0.3 0.4,0.7 0.7,1.3 0.3,0.6 0.6,1.2 0.9,2 0.3,0.8 0.6,1.6 0.9,2.4 0.3,0.9 0.5,1.8 0.6,2.7 0.2,0.9 0.2,1.8 0.2,2.6 0,0.9 -0.2,1.6 -0.5,2.3 -0.4,1 -0.9,1.7 -1.6,2.2 -0.6,0.5 -1.3,0.8 -2,1 -0.7,0.2 -1.4,0.2 -2.1,0.1 -0.7,-0.1 -1.4,-0.3 -2,-0.6 -0.6,-0.3 -1.4,-0.8 -2.2,-1.5 -0.8,-0.7 -1.5,-1.6 -2.1,-2.6 -0.6,-1 -1,-2.1 -1.2,-3.3 -0.2,-1.2 0,-2.5 0.6,-3.8 0.3,-0.7 0.8,-1.2 1.5,-1.5 0.7,-0.3 1.4,-0.2 2.2,0.1 0.4,0.2 0.7,0.4 1,0.7 0.3,0.3 0.5,0.6 0.7,1 0.2,0.3 0.3,0.7 0.3,1.1 0,0.4 0,0.7 -0.2,1.1 -0.1,0.3 -0.3,0.5 -0.6,0.5 -0.3,0.1 -0.5,0 -0.8,0 -0.3,0 -0.5,-0.2 -0.8,-0.3 -0.3,-0.1 -0.4,-0.3 -0.4,-0.3 -0.1,-0.2 -0.1,-0.3 -0.1,-0.5 0,-0.2 0,-0.4 0,-0.6 0,-0.2 0,-0.3 -0.1,-0.4 -0.1,-0.1 -0.2,-0.2 -0.3,-0.3 -0.1,-0.1 -0.3,-0.1 -0.4,0 -0.1,0 -0.3,0.2 -0.4,0.4 -0.1,0.2 -0.1,0.6 0,1.3 0.1,0.7 0.3,1.4 0.6,2.2 0.3,0.8 0.9,1.6 1.6,2.4 0.7,0.8 1.6,1.5 2.8,2 0.7,0.3 1.3,0.5 1.8,0.4 0.5,0 1,-0.2 1.4,-0.4 0.4,-0.2 0.7,-0.5 1,-0.9 -0.1,-0.4 0.2,-0.7 0.3,-1.1 z"
           id="path24"
           inkscape:connector-curvature="0"
           style="fill:#ffffff" /><path
           d="m 167.7,424.6 c -0.1,-0.2 -0.1,-0.4 0,-0.6 0.1,-0.2 0.2,-0.3 0.3,-0.3 0.1,0 0.3,0 0.5,0.1 0.2,0.1 0.3,0.3 0.4,0.6 0.3,0.7 0.6,1.4 0.8,2.3 0.3,0.8 0.5,1.7 0.7,2.5 0.2,0.9 0.4,1.7 0.5,2.6 0.1,0.9 0.2,1.6 0.2,2.4 0,0.8 -0.1,1.4 -0.3,1.9 -0.2,0.4 -0.7,0.7 -1.4,0.9 -0.7,0.2 -1.2,0.1 -1.8,-0.2 -0.5,-0.3 -1.1,-0.7 -1.8,-1.4 -0.4,-0.4 -0.9,-0.9 -1.5,-1.5 -0.6,-0.6 -1.1,-1.2 -1.7,-1.7 -0.6,-0.5 -1.1,-0.8 -1.6,-1 -0.5,-0.2 -0.9,0 -1.1,0.5 -0.2,0.4 -0.3,0.8 -0.2,1.3 0,0.5 0.1,1.1 0.3,1.6 0.2,0.6 0.4,1.2 0.6,1.8 0.3,0.6 0.5,1.3 0.8,1.6 0.5,0.6 1.4,1.1 2.1,1.7 0.6,0.5 1.2,1 1.9,1.5 0.7,0.5 1.3,1 1.8,1.4 0,0.2 0,0.4 0,0.5 0,0.2 -0.1,0.3 -0.1,0.4 -0.1,0.2 -0.2,0.3 -0.2,0.4 -0.1,0.2 -0.3,0.3 -0.4,0.4 -0.1,0.1 -0.3,0.2 -0.5,0.2 -0.2,0.1 -0.4,0.1 -0.7,0 -3.3,-2.7 -6,-5 -8,-6.6 -2,-1.7 -3.5,-2.9 -4.6,-3.8 -1.2,-1 -2.1,-1.8 -2.6,-2.2 -0.4,-0.3 -0.7,-0.5 -1,-0.7 -0.3,-0.2 -0.6,-0.4 -1,-0.6 -0.3,-0.2 -0.7,-0.3 -1,-0.4 0,-0.2 0,-0.5 0,-0.7 0,-0.2 0.1,-0.5 0.2,-0.7 0.1,-0.3 0.1,-0.6 0.2,-0.8 0.1,-0.3 0.2,-0.5 0.3,-0.7 0.1,-0.2 0.2,-0.3 0.3,-0.5 0.1,-0.1 0.2,-0.2 0.3,-0.2 0.2,-0.1 0.4,0 0.7,0.1 0.3,0.2 0.6,0.3 0.9,0.6 0.3,0.3 0.7,0.6 1.1,0.9 1.4,1.3 2.7,2.6 4,3.9 1.3,1.3 2.7,2.7 4.2,4 -0.3,-0.5 -0.5,-1 -0.7,-1.6 -0.2,-0.6 -0.4,-1.2 -0.5,-1.9 -0.1,-0.6 -0.2,-1.3 -0.1,-1.9 0,-0.6 0.2,-1.3 0.5,-1.9 0.2,-0.3 0.3,-0.6 0.6,-0.8 0.2,-0.2 0.5,-0.4 0.8,-0.5 0.3,-0.1 0.7,-0.1 1.1,0 0.4,0.1 0.9,0.3 1.4,0.5 0.3,0.2 0.6,0.4 0.9,0.6 0.3,0.3 0.6,0.5 1,0.9 0.3,0.3 0.7,0.7 1.1,1.2 0.4,0.5 0.9,1 1.4,1.6 0.4,0.4 0.7,0.8 0.9,1 0.3,0.3 0.6,0.4 0.9,0.4 0.4,0 0.7,-0.4 0.8,-1 0.1,-0.7 0,-1.8 -0.2,-3.3 -0.1,-0.4 -0.2,-0.8 -0.3,-1.3 -0.1,-0.5 -0.3,-0.9 -0.4,-1.4 -0.2,-0.5 -0.3,-0.9 -0.4,-1.3 -0.2,-0.2 -0.3,-0.5 -0.4,-0.8 z"
           id="path26"
           inkscape:connector-curvature="0"
           style="fill:#ffffff" /><path
           d="m 174,417.4 c 0.6,0.6 1.2,1.3 1.6,2 0.4,0.7 0.8,1.5 1,2.2 0.2,0.8 0.3,1.5 0.2,2.3 -0.1,0.8 -0.3,1.5 -0.7,2.2 -0.5,0.9 -1,1.4 -1.6,1.7 -0.6,0.3 -1.2,0.4 -1.9,0.4 -0.6,0 -1.3,-0.2 -1.9,-0.5 -0.6,-0.3 -1.2,-0.5 -1.8,-0.8 -0.4,-0.2 -0.8,-0.5 -1.2,-0.8 -0.4,-0.3 -0.8,-0.7 -1.2,-1.1 -0.4,-0.4 -0.7,-0.9 -1.1,-1.4 -0.3,-0.5 -0.6,-1.1 -0.8,-1.7 -0.3,-0.3 -0.5,-0.7 -0.6,-1.1 -0.1,-0.4 -0.2,-0.8 -0.1,-1.3 0,-0.4 0.1,-0.9 0.2,-1.4 0.1,-0.5 0.3,-0.9 0.5,-1.3 0,-0.1 0.1,-0.1 0.1,-0.2 0,0 0.1,-0.1 0.2,-0.1 0.2,-0.3 0.5,-0.6 0.9,-0.9 0.4,-0.3 0.9,-0.6 1.5,-0.8 0.6,-0.2 1.2,-0.3 1.9,-0.3 0.7,0 1.4,0.3 2.2,0.7 0.2,0.1 0.3,0.2 0.6,0.4 0.2,0.1 0.4,0.3 0.5,0.4 0.1,-0.6 0.2,-1.2 0.2,-1.9 0,-0.7 0.1,-1.3 0.1,-2 0,-0.7 0,-1.3 -0.1,-1.9 0,-0.6 -0.1,-1.1 -0.2,-1.5 -0.1,-0.3 0,-0.5 0,-0.7 0.1,-0.2 0.2,-0.2 0.3,-0.2 0.1,0 0.3,0.1 0.4,0.2 0.1,0.1 0.3,0.4 0.4,0.7 0.1,0.2 0.1,0.6 0.2,1.2 0.1,0.6 0.2,1.4 0.2,2.2 0.1,0.8 0.1,1.7 0.1,2.6 0.1,1.2 0.1,2 -0.1,2.7 z m -3.4,7.8 c 0.4,0.2 0.7,0.4 1.1,0.5 0.4,0.1 0.7,0.2 1.1,0.2 0.4,0 0.6,0 0.9,-0.2 0.3,-0.1 0.5,-0.3 0.7,-0.7 0.2,-0.4 0.3,-0.8 0.3,-1.2 0,-0.4 -0.1,-0.8 -0.2,-1.2 -0.1,-0.4 -0.3,-0.8 -0.5,-1.2 -0.2,-0.4 -0.5,-0.8 -0.8,-1.1 -0.1,0.2 -0.1,0.3 -0.2,0.5 -0.1,0.1 -0.1,0.3 -0.2,0.5 -0.4,0.8 -1,1.4 -1.8,1.7 -0.8,0.3 -1.6,0.5 -2.4,0.4 0.3,0.4 0.7,0.7 1,1 0.3,0.4 0.7,0.6 1,0.8 z m -4.1,-4.9 c 0.1,0.2 0.3,0.3 0.5,0.4 0.3,0.2 0.7,0.3 1,0.5 0.4,0.1 0.7,0.2 1.1,0.2 0.4,0 0.7,-0.2 1.1,-0.4 0.4,-0.3 0.8,-0.7 1.1,-1.4 0.1,-0.1 0.1,-0.2 0.2,-0.3 0,-0.1 0.1,-0.2 0.1,-0.3 -0.2,-0.2 -0.4,-0.4 -0.6,-0.6 -0.2,-0.2 -0.3,-0.3 -0.5,-0.4 -0.3,-0.3 -0.7,-0.5 -1.1,-0.6 -0.4,-0.2 -0.8,-0.3 -1.2,-0.4 -0.4,-0.1 -0.7,-0.1 -1,0 -0.3,0.1 -0.5,0.2 -0.7,0.5 -0.2,0.4 -0.3,0.9 -0.3,1.3 0,0.5 0.1,1 0.3,1.5 z"
           id="path28"
           inkscape:connector-curvature="0"
           style="fill:#ffffff" /><path
           d="m 181.4,404.9 c 0.6,0.7 1.1,1.3 1.5,2.1 0.4,0.7 0.7,1.5 0.9,2.2 0.2,0.8 0.2,1.5 0.1,2.3 -0.1,0.8 -0.4,1.5 -0.8,2.2 -0.5,0.8 -1.1,1.4 -1.7,1.7 -0.6,0.3 -1.3,0.4 -1.9,0.3 -0.6,-0.1 -1.3,-0.2 -1.9,-0.5 -0.6,-0.3 -1.2,-0.6 -1.7,-0.9 -0.4,-0.2 -0.8,-0.5 -1.1,-0.9 -0.4,-0.4 -0.8,-0.7 -1.1,-1.2 -0.4,-0.4 -0.7,-0.9 -1,-1.5 -0.3,-0.5 -0.6,-1.1 -0.7,-1.7 -0.3,-0.3 -0.4,-0.7 -0.5,-1.1 -0.1,-0.4 -0.1,-0.8 -0.1,-1.3 0,-0.4 0.1,-0.9 0.3,-1.3 0.2,-0.5 0.3,-0.9 0.6,-1.2 0,-0.1 0.1,-0.1 0.1,-0.2 0.1,0 0.1,-0.1 0.2,-0.1 0.2,-0.3 0.5,-0.5 0.9,-0.9 0.4,-0.4 0.9,-0.5 1.5,-0.7 0.6,-0.2 1.2,-0.2 1.9,-0.2 0.7,0.1 1.4,0.3 2.2,0.8 0.2,0.1 0.3,0.2 0.5,0.4 0.2,0.2 0.4,0.3 0.5,0.4 0.1,-0.6 0.2,-1.2 0.3,-1.9 0.1,-0.7 0.1,-1.3 0.2,-2 0,-0.7 0,-1.3 0,-1.9 0,-0.6 -0.1,-1.1 -0.1,-1.5 0,-0.3 0,-0.6 0.1,-0.7 0.1,-0.2 0.2,-0.2 0.3,-0.2 0.1,0 0.3,0.1 0.4,0.2 0.1,0.2 0.3,0.4 0.3,0.7 0,0.2 0.1,0.6 0.2,1.2 0.1,0.6 0.1,1.4 0.2,2.2 0,0.8 0,1.7 0,2.6 -0.3,1 -0.4,1.9 -0.6,2.6 z m -3.6,7.6 c 0.3,0.2 0.7,0.4 1.1,0.5 0.4,0.2 0.7,0.3 1,0.3 0.3,0 0.6,0 0.9,-0.1 0.3,-0.1 0.5,-0.3 0.7,-0.7 0.2,-0.4 0.3,-0.8 0.4,-1.2 0,-0.4 0,-0.8 -0.1,-1.2 -0.1,-0.4 -0.3,-0.8 -0.5,-1.2 -0.2,-0.4 -0.5,-0.8 -0.7,-1.1 -0.1,0.2 -0.1,0.3 -0.2,0.4 -0.1,0.1 -0.2,0.3 -0.3,0.5 -0.5,0.8 -1.1,1.3 -1.9,1.6 -0.8,0.3 -1.6,0.4 -2.5,0.3 0.3,0.4 0.7,0.7 1,1 0.4,0.4 0.7,0.7 1.1,0.9 z m -4,-5 c 0.1,0.2 0.3,0.3 0.5,0.4 0.3,0.2 0.6,0.4 1,0.5 0.4,0.2 0.7,0.2 1.1,0.2 0.4,0 0.8,-0.1 1.2,-0.4 0.4,-0.3 0.8,-0.7 1.2,-1.3 0.1,-0.1 0.1,-0.2 0.2,-0.3 0.1,-0.1 0.1,-0.2 0.1,-0.3 -0.2,-0.2 -0.4,-0.4 -0.6,-0.6 -0.2,-0.2 -0.3,-0.3 -0.5,-0.4 -0.3,-0.3 -0.7,-0.5 -1.1,-0.7 -0.4,-0.2 -0.8,-0.3 -1.2,-0.4 -0.4,-0.1 -0.7,-0.1 -1,0 -0.3,0.1 -0.5,0.2 -0.7,0.5 -0.2,0.4 -0.4,0.8 -0.4,1.3 0,0.4 0.1,0.9 0.2,1.5 z"
           id="path30"
           inkscape:connector-curvature="0"
           style="fill:#ffffff" /><path
           d="m 189.7,399.6 c 0.2,-0.1 0.3,-0.2 0.4,-0.4 0.1,-0.2 0.2,-0.4 0.3,-0.6 0,-0.2 0.1,-0.5 0,-0.7 0,-0.3 -0.1,-0.5 -0.3,-0.7 -0.2,-0.2 -0.4,-0.4 -0.9,-0.6 -0.4,-0.2 -0.9,-0.3 -1.5,-0.4 -0.6,-0.1 -1.1,-0.2 -1.7,-0.3 -0.6,-0.1 -1.1,-0.2 -1.6,-0.3 -0.4,-0.1 -0.7,-0.1 -1,-0.2 -0.3,-0.1 -0.5,-0.1 -0.8,-0.2 -0.2,-0.1 -0.4,-0.1 -0.5,-0.1 0.1,0.2 0.2,0.5 0.4,1 0.2,0.5 0.3,1 0.5,1.5 0.2,0.5 0.3,1 0.5,1.5 0.1,0.5 0.2,0.8 0.3,1 0.1,0.3 0.1,0.5 0,0.7 -0.1,0.2 -0.2,0.3 -0.3,0.3 -0.2,0 -0.3,0 -0.5,-0.1 -0.2,-0.1 -0.3,-0.3 -0.4,-0.6 -0.1,-0.2 -0.2,-0.6 -0.4,-1 -0.2,-0.4 -0.4,-0.9 -0.6,-1.4 -0.2,-0.5 -0.4,-0.9 -0.5,-1.3 -0.1,-0.4 -0.2,-0.6 -0.3,-0.7 -0.1,-0.1 -0.4,-0.2 -0.7,-0.2 -0.3,0 -0.6,-0.2 -0.9,-0.5 -0.2,-0.3 -0.4,-0.6 -0.6,-1.2 -0.2,-0.5 -0.3,-1.1 -0.3,-1.6 0,-0.6 0,-1.1 0.2,-1.6 0.1,-0.5 0.4,-0.9 0.7,-1.1 0.3,-0.2 0.6,-0.3 0.9,-0.3 0.3,0 0.5,0 0.7,0.2 0.1,0.1 0.1,0.2 0.2,0.4 0.1,0.2 0.2,0.4 0.3,0.7 0.1,0.3 0.2,0.7 0.4,1.3 0.5,0.2 0.9,0.4 1.4,0.5 0.4,0.1 0.8,0.2 1.1,0.3 0.4,0.1 0.8,0.2 1.1,0.2 0.5,0 0.9,0.1 1.4,0.1 0.5,0 1,0.1 1.4,0.2 0.5,0.1 0.9,0.2 1.2,0.3 0.4,0.1 0.6,0.2 0.8,0.4 0.3,0.3 0.5,0.7 0.8,1.3 0.3,0.6 0.5,1.2 0.6,1.9 0.1,0.7 0.2,1.4 0.1,2.2 -0.1,0.7 -0.3,1.4 -0.7,2 -0.3,0.4 -0.7,0.7 -1.1,1 -0.5,0.2 -1,0.4 -1.5,0.4 -0.5,0.1 -1,0 -1.4,0 -0.4,-0.1 -0.7,-0.2 -0.8,-0.4 -0.2,-0.3 -0.3,-0.5 -0.3,-0.7 -0.1,-0.2 -0.1,-0.4 -0.2,-0.7 0,-0.1 0,-0.3 0,-0.4 0,-0.1 0,-0.3 0.1,-0.5 0.1,-0.2 0.1,-0.5 0.2,-0.8 0.7,0.2 1.3,0.3 1.7,0.3 0.4,0.1 0.8,0.1 1,0.1 0.8,-0.1 1,-0.1 1.1,-0.2 z"
           id="path32"
           inkscape:connector-curvature="0"
           style="fill:#ffffff" /><path
           d="m 198.8,376.5 c 0.4,1.2 0.6,2.4 0.8,3.7 0.2,1.3 0.3,2.6 0.3,3.8 0,1.2 -0.1,2.4 -0.4,3.5 -0.2,1.1 -0.7,2.1 -1.2,2.9 -0.3,0.4 -0.7,0.8 -1.3,1.2 -0.6,0.4 -1.2,0.6 -1.8,0.7 -0.7,0.1 -1.4,0.1 -2.3,-0.1 -0.9,-0.2 -1.7,-0.7 -2.5,-1.4 -0.7,-0.6 -1.3,-1.4 -1.9,-2.4 -0.5,-1 -1,-2.1 -1.2,-3.2 -0.3,-1.1 -0.3,-2.2 -0.2,-3.4 0.1,-1.1 0.4,-2.1 1,-2.9 0.5,-0.8 1.1,-1.2 1.7,-1.3 0.6,-0.1 1.1,0.1 1.6,0.5 0.5,0.5 0.9,1 1.2,1.6 0.3,0.6 0.5,1.3 0.6,1.9 0.1,0.7 0.1,1.3 0.1,2 0,0.7 0,1.3 0,1.9 0,0.6 -0.1,1.2 -0.1,1.8 0,0.6 0,1.1 0,1.5 0.5,0.3 0.9,0.5 1.3,0.5 0.4,0.1 0.8,0 1.2,-0.1 0.4,-0.1 0.7,-0.3 1,-0.5 0.3,-0.2 0.6,-0.5 0.8,-0.8 0.5,-0.7 0.8,-1.5 0.9,-2.5 0.1,-1 0.2,-2 0.1,-3.1 -0.1,-1.1 -0.2,-2.2 -0.3,-3.2 -0.2,-1 -0.3,-1.9 -0.5,-2.6 0,-0.2 0,-0.4 0.1,-0.6 0.1,-0.2 0.2,-0.3 0.3,-0.3 0.1,0 0.3,0 0.4,0.1 0.1,0.1 0.2,0.5 0.3,0.8 z m -9.7,4.5 c -0.2,0.2 -0.3,0.6 -0.3,1.1 0,0.5 0.1,1 0.3,1.6 0.2,0.6 0.5,1.3 0.9,2 0.4,0.7 0.9,1.4 1.6,2.1 0,-0.4 0,-0.7 0,-1.1 0,-0.4 0,-0.8 0,-1.2 0,-1.3 -0.1,-2.2 -0.3,-2.9 -0.2,-0.7 -0.5,-1.1 -0.8,-1.4 -0.3,-0.3 -0.6,-0.4 -0.8,-0.4 -0.3,-0.2 -0.5,0 -0.6,0.2 z"
           id="path34"
           inkscape:connector-curvature="0"
           style="fill:#ffffff" /><path
           d="m 215.6,356.2 c 0.1,0.5 0.3,1.2 0.4,2.1 0.2,0.8 0.3,1.7 0.4,2.5 0.1,0.9 0.2,1.7 0.3,2.4 0.1,0.8 0.1,1.4 0,1.8 0,0.3 -0.1,0.5 -0.3,0.8 -0.1,0.3 -0.3,0.6 -0.5,0.8 -0.2,0.3 -0.4,0.5 -0.6,0.7 -0.2,0.2 -0.5,0.3 -0.7,0.4 -0.3,0.1 -0.5,0.1 -0.9,0 -0.3,-0.1 -0.6,-0.2 -1,-0.4 -0.4,-0.2 -0.8,-0.5 -1.3,-0.9 0.3,1 0.5,1.9 0.4,2.8 -0.1,0.8 -0.2,1.6 -0.4,2.2 -0.3,0.7 -0.6,1.4 -1,1.9 -0.2,0.3 -0.5,0.5 -0.9,0.6 -0.4,0.2 -0.9,0.2 -1.4,0.1 -0.5,-0.1 -1.1,-0.3 -1.7,-0.7 -0.6,-0.4 -1.2,-1 -1.9,-1.8 -0.9,-1.1 -1.5,-2.3 -1.9,-3.6 -0.4,-1.3 -0.7,-2.5 -0.7,-3.7 -0.1,-1.2 0,-2.2 0.2,-3.2 0.2,-0.9 0.5,-1.6 0.9,-2 0.5,-0.4 1,-0.7 1.4,-0.9 0.4,-0.1 0.8,-0.1 1.2,0.1 0.4,0.2 0.7,0.7 1,1.6 0.2,-0.3 0.3,-0.6 0.4,-0.7 0.1,-0.2 0.2,-0.3 0.3,-0.4 0.1,-0.1 0.2,-0.2 0.2,-0.2 0,0 0.1,0.1 0.2,0.2 0.1,0.1 0.3,0.3 0.5,0.6 0.2,0.3 0.6,0.7 1,1.2 0.4,0.5 0.9,1.2 1.6,2.1 0.1,0.2 0.2,0.3 0.3,0.5 0.1,0.1 0.2,0.3 0.3,0.4 0.1,0.1 0.2,0.3 0.4,0.5 0.1,0.2 0.3,0.4 0.5,0.7 0.1,0.1 0.3,0.3 0.5,0.4 0.2,0.1 0.4,0.2 0.6,0.3 0.2,0.1 0.4,0.1 0.6,0.1 0.2,0 0.4,-0.2 0.6,-0.4 0.2,-0.2 0.2,-0.5 0.3,-1 0,-0.5 0,-1 0,-1.6 -0.1,-0.6 -0.1,-1.3 -0.2,-2 -0.1,-0.7 -0.2,-1.4 -0.3,-2 -0.1,-0.6 -0.2,-1.2 -0.3,-1.7 -0.1,-0.5 -0.1,-0.9 -0.2,-1.1 0,-0.3 0,-0.5 0.1,-0.7 0.1,-0.2 0.2,-0.2 0.4,-0.2 0.2,0 0.3,0.1 0.5,0.4 0.4,0.2 0.6,0.6 0.7,1 z m -5.7,9.1 c -0.3,-0.4 -0.6,-0.8 -1,-1.3 -0.4,-0.5 -0.7,-1 -1.1,-1.5 -0.4,-0.5 -0.7,-0.8 -0.9,-1.1 -0.2,-0.3 -0.4,-0.4 -0.4,-0.3 -0.1,0.1 -0.1,0.2 -0.2,0.4 0,0.1 -0.1,0.3 -0.2,0.4 -0.1,0.2 -0.2,0.3 -0.3,0.5 -0.2,-0.4 -0.3,-0.7 -0.5,-0.8 -0.2,-0.1 -0.3,-0.3 -0.4,-0.4 -0.1,-0.1 -0.3,-0.1 -0.4,-0.1 -0.3,0.1 -0.5,0.5 -0.5,1.4 0,0.9 0.3,2.1 0.8,3.6 0.2,0.6 0.5,1.3 0.9,1.8 0.4,0.6 0.8,1.1 1.2,1.5 0.4,0.4 0.8,0.8 1.2,1 0.4,0.2 0.7,0.3 0.9,0.3 0.4,-0.1 0.6,-0.2 0.8,-0.5 0.2,-0.3 0.3,-0.6 0.4,-1 0.1,-0.4 0.1,-0.8 0.1,-1.2 0,-0.4 0,-0.9 -0.1,-1.3 -0.1,-0.4 -0.1,-0.7 -0.2,-1 0,-0.1 0,-0.3 -0.1,-0.4 z"
           id="path36"
           inkscape:connector-curvature="0"
           style="fill:#ffffff" /><path
           d="m 226.7,355.1 c -0.4,0.4 -0.7,0.7 -1.2,0.8 -0.4,0.2 -0.8,0.2 -1.2,0.2 -0.4,0 -0.8,-0.2 -1.1,-0.4 -0.4,-0.2 -0.7,-0.5 -0.9,-0.9 -0.2,-0.3 -0.4,-0.6 -0.7,-1.1 -0.3,-0.5 -0.6,-1 -0.9,-1.5 -0.3,-0.5 -0.7,-1.1 -1,-1.6 -0.4,-0.5 -0.7,-1 -1,-1.4 -0.3,-0.4 -0.7,-0.6 -1,-0.8 -0.3,-0.1 -0.6,-0.1 -0.8,0.1 -0.3,0.3 -0.4,0.7 -0.5,1.1 -0.1,0.5 -0.1,1 -0.1,1.6 0,0.6 0.1,1.2 0.2,1.9 0.1,0.7 0.3,1.3 0.4,2 0.4,0.7 0.8,1.2 1.2,1.7 0.4,0.5 0.6,0.9 0.9,1.3 0.3,0.4 0.5,0.7 0.7,1 0.2,0.3 0.4,0.6 0.6,0.8 0.1,0.2 0.1,0.5 0.1,0.9 -0.1,0.4 -0.2,0.8 -0.3,1.2 -0.2,0.4 -0.3,0.7 -0.5,0.9 -0.2,0.2 -0.3,0.3 -0.5,0.1 -0.1,-0.1 -0.3,-0.4 -0.5,-0.8 -0.3,-0.4 -0.6,-0.9 -1,-1.4 -0.4,-0.6 -0.8,-1.1 -1.2,-1.8 -0.4,-0.6 -0.8,-1.2 -1.2,-1.8 -0.3,-0.4 -0.7,-0.9 -1,-1.4 -0.3,-0.4 -0.7,-1 -1.1,-1.6 -0.4,-0.6 -0.9,-1.3 -1.4,-2 0,-0.2 0,-0.4 0.1,-0.6 0.1,-0.2 0.1,-0.4 0.2,-0.6 0.1,-0.2 0.2,-0.4 0.3,-0.6 0.1,-0.1 0.3,-0.3 0.4,-0.4 0.1,-0.1 0.3,-0.2 0.4,-0.3 0.1,-0.1 0.3,-0.2 0.5,-0.2 0.1,0.2 0.2,0.4 0.3,0.6 0.1,0.3 0.3,0.5 0.5,0.8 0.2,0.3 0.4,0.6 0.6,1 -0.1,-0.5 -0.2,-1 -0.2,-1.6 0,-0.6 0,-1.2 0,-1.7 0.1,-0.6 0.2,-1.1 0.4,-1.7 0.2,-0.5 0.5,-1 0.9,-1.4 0.3,-0.3 0.7,-0.6 1.1,-0.7 0.4,-0.1 0.9,-0.1 1.3,0.1 0.5,0.1 0.9,0.4 1.4,0.8 0.5,0.4 0.9,0.9 1.3,1.5 0.3,0.5 0.5,0.8 0.8,1.3 0.3,0.4 0.6,0.9 0.9,1.5 0.4,0.6 0.7,1.2 1.1,1.9 0.3,0.4 0.6,0.8 0.8,1 0.3,0.2 0.6,0.2 0.9,-0.2 0.3,-0.3 0.5,-0.9 0.5,-1.7 0.1,-0.8 0.1,-1.7 0,-2.7 -0.1,-1 -0.1,-1.9 -0.3,-2.9 -0.1,-0.9 -0.2,-1.7 -0.3,-2.2 -0.1,-0.4 -0.1,-0.6 0,-0.8 0.1,-0.2 0.2,-0.3 0.3,-0.4 0.1,0 0.3,0 0.4,0.2 0.2,0.2 0.3,0.4 0.4,0.8 0.1,0.3 0.2,0.8 0.4,1.4 0.1,0.6 0.3,1.3 0.3,2 0.1,0.7 0.2,1.5 0.2,2.3 0.1,0.8 0.1,1.6 0,2.4 0,0.8 -0.2,1.5 -0.3,2.1 0,1 -0.3,1.5 -0.6,1.9 z"
           id="path38"
           inkscape:connector-curvature="0"
           style="fill:#ffffff" /><path
           d="m 227.9,334.5 c 0.1,-0.4 0.2,-0.7 0.3,-1 0.1,-0.3 0.3,-0.6 0.4,-0.8 0.1,-0.2 0.3,-0.4 0.5,-0.6 0.5,-0.4 0.9,-0.6 1.3,-0.5 0.4,0.1 0.7,0.5 1.2,1.1 0.2,0.3 0.5,0.8 0.7,1.3 0.3,0.6 0.6,1.3 1,2.1 0.4,0.8 0.9,1.7 1.4,2.7 0.5,1 1.2,2.1 1.9,3.2 0.6,0.9 1.3,2.1 2.1,3.3 0.7,1.1 1.5,2.4 2.5,3.9 1,1.5 2.2,3.2 3.5,5.1 0.3,0.5 0.4,0.9 0.2,1.2 -0.2,0.3 -0.5,0.6 -0.9,0.8 -0.2,0.1 -0.4,0.1 -0.5,0.1 -0.2,0 -0.3,0 -0.5,0 -0.2,0 -0.4,-0.1 -0.7,-0.2 -1,-1.7 -1.9,-3.2 -2.8,-4.6 -0.8,-1.4 -1.5,-2.6 -2.1,-3.6 -0.7,-1.2 -1.3,-2.2 -1.9,-3.2 -0.3,-0.4 -0.5,-0.8 -0.8,-1.2 -0.3,-0.4 -0.5,-0.8 -0.7,-1.2 0.1,0.6 0.2,1.1 0.3,1.7 0.1,0.6 0.1,1.1 0,1.6 -0.1,0.5 -0.2,1 -0.4,1.5 -0.2,0.5 -0.5,0.9 -0.9,1.2 -1,0.8 -1.9,1.2 -2.8,1 -0.9,-0.2 -1.8,-0.6 -2.6,-1.5 -0.3,-0.3 -0.7,-0.7 -1,-1.2 -0.3,-0.5 -0.6,-0.9 -0.9,-1.4 -0.3,-0.5 -0.5,-0.9 -0.7,-1.3 -0.2,-0.4 -0.4,-0.7 -0.4,-0.8 -0.4,-0.8 -0.8,-1.5 -1.2,-2 -0.3,-0.5 -0.8,-0.8 -1.3,-0.8 0.1,-0.4 0.2,-0.7 0.4,-1 0.2,-0.3 0.3,-0.5 0.4,-0.7 0.2,-0.2 0.4,-0.4 0.6,-0.6 0.5,-0.4 1,-0.5 1.3,-0.4 0.3,0.2 0.7,0.6 1.1,1.2 0.2,0.3 0.5,0.8 0.7,1.4 0.3,0.6 0.6,1.2 0.8,1.8 0.3,0.6 0.6,1.2 0.8,1.7 0.2,0.5 0.4,0.8 0.6,1 0.6,0.9 1.1,1.4 1.7,1.6 0.5,0.2 1,0.1 1.5,-0.3 0.2,-0.2 0.4,-0.6 0.4,-1 0.1,-0.5 0.1,-1 0.1,-1.5 0,-0.6 -0.1,-1.2 -0.2,-1.9 -0.1,-0.7 -0.3,-1.3 -0.4,-1.9 -0.2,-0.6 -0.4,-1.2 -0.6,-1.8 -0.2,-0.6 -0.4,-1 -0.6,-1.4 -0.5,-0.7 -0.9,-1.2 -1.2,-1.6 -0.6,-0.3 -1,-0.5 -1.6,-0.5 z"
           id="path40"
           inkscape:connector-curvature="0"
           style="fill:#ffffff" /><path
           d="m 258.1,329.7 c 0.3,0.5 0.6,1.1 1,1.8 0.4,0.7 0.8,1.5 1.3,2.3 0.4,0.8 0.8,1.7 1.2,2.5 0.4,0.9 0.7,1.7 0.9,2.4 0.2,0.8 0.3,1.4 0.3,2 0,0.6 -0.2,1.1 -0.6,1.4 -0.6,0.5 -1.2,0.8 -1.9,0.8 -0.7,0 -1.4,-0.1 -2.1,-0.3 -0.7,-0.2 -1.4,-0.6 -2,-1 -0.6,-0.4 -1.2,-0.9 -1.6,-1.4 -0.6,-0.7 -1.1,-1.3 -1.4,-1.8 -0.3,-0.5 -0.5,-1.2 -0.5,-1.8 -0.1,-0.7 0,-1.5 0.1,-2.4 0.1,-0.9 0.3,-2.1 0.5,-3.5 0.1,-0.7 0.2,-1.4 0.3,-2 0.1,-0.6 0.2,-1.2 0.3,-1.8 -0.2,-0.4 -0.4,-0.8 -0.6,-1.2 -0.2,-0.4 -0.3,-0.7 -0.5,-1 0.1,1 -0.1,2 -0.3,3 -0.3,1 -0.8,1.8 -1.7,2.6 -0.8,0.7 -1.6,0.9 -2.7,0.7 -1,-0.2 -2.1,-0.9 -3.3,-2.2 -0.6,-0.6 -1.1,-1.4 -1.6,-2.4 -0.5,-1 -0.8,-2.1 -1,-3.2 -0.2,-1.1 -0.1,-2.2 0.1,-3.4 0.3,-1.1 0.8,-2.1 1.7,-2.8 0.4,-0.4 0.8,-0.6 1.3,-0.7 0.5,-0.1 0.9,-0.1 1.4,0 0.4,0.1 0.9,0.3 1.2,0.5 0.4,0.2 0.7,0.4 1,0.7 -0.1,-0.1 -0.1,-0.3 -0.2,-0.4 -0.1,-0.1 -0.1,-0.2 -0.2,-0.4 -0.3,-0.7 -0.5,-1.3 -0.4,-1.7 0,-0.4 0.3,-0.8 0.8,-1.2 0.3,-0.2 0.5,-0.4 0.8,-0.4 0.3,-0.1 0.4,-0.1 0.5,0 0.1,0.3 0.1,0.5 0.2,0.6 0,0.2 0.1,0.3 0.1,0.5 0,0.2 0.1,0.3 0.2,0.6 0.1,0.2 0.2,0.5 0.4,0.9 0.1,0.2 0.2,0.5 0.5,1 0.3,0.5 0.6,1.1 1,1.9 0.4,0.7 0.8,1.5 1.2,2.4 0.4,0.9 0.9,1.7 1.3,2.5 0.3,-0.7 0.5,-1.5 0.7,-2.4 0.2,-0.9 0.4,-1.7 0.5,-2.5 0.1,-0.8 0.3,-1.6 0.3,-2.3 0.1,-0.7 0.1,-1.2 0.1,-1.6 0,-0.3 0,-0.6 0.1,-0.9 0.1,-0.2 0.3,-0.4 0.4,-0.5 0.2,-0.1 0.3,-0.1 0.4,0 0.1,0.1 0.2,0.3 0.3,0.7 0.1,1 0.1,2 0,3.1 -0.1,1.1 -0.3,2.2 -0.4,3.2 -0.1,1 -0.4,2 -0.7,2.9 -0.3,0.9 -0.5,1.6 -0.7,2.2 0.5,0.9 0.9,1.7 1.2,2.2 0.3,0.8 0.6,1.3 0.8,1.8 z m 1.6,10.7 c 0.3,-0.3 0.4,-0.8 0.2,-1.5 -0.2,-0.7 -0.6,-1.6 -1.1,-2.6 -0.1,-0.2 -0.3,-0.6 -0.6,-1.1 -0.2,-0.5 -0.5,-1 -0.8,-1.6 -0.3,-0.6 -0.6,-1.2 -1,-1.9 -0.4,-0.7 -0.7,-1.4 -1.1,-2.1 0,0.2 -0.1,0.5 -0.1,0.8 0,0.3 -0.1,0.5 -0.1,0.9 -0.1,0.7 -0.1,1.4 -0.2,2 -0.1,0.6 -0.1,1.3 0,1.9 0.1,0.6 0.2,1.2 0.4,1.8 0.2,0.6 0.6,1.1 1.1,1.7 0.5,0.5 0.9,1 1.3,1.3 0.4,0.3 0.7,0.5 0.9,0.7 0.3,0.1 0.5,0.2 0.7,0.2 0.1,-0.3 0.3,-0.4 0.4,-0.5 z m -9.3,-12.7 c 0.4,-0.3 0.6,-0.7 0.8,-1.2 0.2,-0.5 0.3,-1 0.3,-1.4 0,-0.4 0.1,-0.9 0,-1.3 0,-0.4 -0.1,-0.7 -0.1,-1 -0.1,-0.2 -0.2,-0.5 -0.3,-0.8 -0.1,-0.3 -0.3,-0.7 -0.4,-0.9 -0.2,-0.3 -0.3,-0.5 -0.5,-0.7 -0.2,-0.2 -0.3,-0.2 -0.5,-0.1 -0.1,0.1 -0.3,0.1 -0.4,0 -0.2,-0.1 -0.3,-0.2 -0.5,-0.3 -0.2,-0.1 -0.3,-0.3 -0.5,-0.4 -0.1,-0.1 -0.3,-0.3 -0.4,-0.4 -0.6,-0.5 -1.1,-0.8 -1.6,-0.9 -0.5,-0.1 -0.8,0 -1.1,0.3 -0.5,0.4 -0.7,1 -0.8,1.7 -0.1,0.7 -0.1,1.5 0.1,2.3 0.2,0.8 0.4,1.6 0.8,2.4 0.4,0.8 0.8,1.5 1.4,2 0.6,0.7 1.3,1.2 1.9,1.4 0.6,0.2 1.1,-0.1 1.8,-0.7 z"
           id="path42"
           inkscape:connector-curvature="0"
           style="fill:#ffffff" /><path
           d="m 270.7,304.5 c 0,0.6 0,1.3 0,2.1 0,0.8 0,1.7 -0.1,2.6 0,0.9 -0.1,1.7 -0.2,2.5 -0.1,0.8 -0.2,1.3 -0.3,1.7 -0.1,0.3 -0.2,0.5 -0.4,0.8 -0.2,0.3 -0.4,0.5 -0.6,0.7 -0.2,0.2 -0.5,0.4 -0.7,0.5 -0.3,0.1 -0.5,0.2 -0.8,0.2 -0.3,0 -0.5,-0.1 -0.8,-0.2 -0.2,-0.1 -0.5,-0.3 -0.9,-0.5 -0.3,-0.2 -0.7,-0.6 -1.1,-1.1 0.1,1.1 0.1,2 -0.2,2.8 -0.2,0.8 -0.5,1.5 -0.8,2.1 -0.4,0.6 -0.8,1.2 -1.4,1.7 -0.3,0.2 -0.6,0.4 -1,0.4 -0.4,0.1 -0.9,0 -1.4,-0.2 -0.5,-0.2 -1,-0.5 -1.5,-1 -0.5,-0.5 -1,-1.2 -1.5,-2.2 -0.6,-1.3 -1,-2.6 -1.2,-3.9 -0.2,-1.3 -0.1,-2.6 0,-3.8 0.2,-1.2 0.5,-2.2 0.9,-3.1 0.4,-0.9 0.9,-1.4 1.3,-1.8 0.6,-0.3 1.1,-0.5 1.6,-0.6 0.4,0 0.8,0.1 1.2,0.4 0.4,0.3 0.6,0.9 0.6,1.7 0.2,-0.3 0.4,-0.5 0.6,-0.6 0.2,-0.2 0.3,-0.3 0.4,-0.4 0.1,-0.1 0.2,-0.2 0.3,-0.2 0,0 0.1,0.1 0.2,0.2 0.1,0.1 0.2,0.3 0.4,0.7 0.2,0.4 0.4,0.8 0.7,1.4 0.3,0.6 0.7,1.4 1.1,2.3 0.1,0.2 0.2,0.4 0.2,0.5 0.1,0.2 0.2,0.3 0.2,0.5 0.1,0.2 0.2,0.3 0.3,0.5 0.1,0.2 0.2,0.5 0.4,0.8 0.1,0.2 0.2,0.3 0.4,0.5 0.2,0.2 0.3,0.3 0.5,0.4 0.2,0.1 0.4,0.2 0.6,0.2 0.2,0 0.4,-0.1 0.6,-0.3 0.2,-0.1 0.3,-0.5 0.5,-0.9 0.1,-0.5 0.2,-1 0.3,-1.6 0.1,-0.6 0.1,-1.3 0.2,-2 0,-0.7 0.1,-1.4 0.1,-2 0,-0.6 0,-1.2 0.1,-1.7 0,-0.5 0,-0.9 0,-1.1 0,-0.3 0.1,-0.5 0.2,-0.6 0.1,-0.1 0.3,-0.2 0.4,-0.1 0.2,0 0.3,0.2 0.4,0.5 0.1,0.4 0.2,0.7 0.2,1.2 z m -7.5,7.7 c -0.2,-0.4 -0.4,-0.9 -0.7,-1.5 -0.3,-0.6 -0.5,-1.1 -0.8,-1.6 -0.3,-0.5 -0.5,-0.9 -0.7,-1.3 -0.2,-0.3 -0.3,-0.4 -0.4,-0.4 -0.1,0.1 -0.2,0.2 -0.3,0.3 -0.1,0.1 -0.2,0.2 -0.3,0.4 -0.1,0.1 -0.3,0.3 -0.4,0.4 -0.1,-0.4 -0.2,-0.7 -0.3,-0.9 -0.1,-0.2 -0.2,-0.4 -0.3,-0.4 -0.1,-0.1 -0.2,-0.2 -0.3,-0.2 -0.3,0 -0.6,0.4 -0.8,1.3 -0.2,0.8 -0.2,2.1 0.1,3.7 0.1,0.7 0.3,1.3 0.5,2 0.3,0.6 0.5,1.2 0.9,1.7 0.3,0.5 0.6,0.9 0.9,1.2 0.3,0.3 0.6,0.5 0.8,0.5 0.4,0 0.7,-0.1 0.9,-0.3 0.3,-0.2 0.5,-0.5 0.6,-0.9 0.2,-0.3 0.3,-0.7 0.4,-1.2 0.1,-0.4 0.2,-0.8 0.2,-1.2 0,-0.4 0,-0.8 0,-1.1 0.1,-0.2 0.1,-0.4 0,-0.5 z"
           id="path44"
           inkscape:connector-curvature="0"
           style="fill:#ffffff" /><path
           d="m 285.3,300.1 c -0.3,-0.4 -0.5,-0.9 -0.8,-1.4 -0.3,-0.6 -0.5,-1.1 -0.7,-1.8 -0.2,-0.6 -0.4,-1.2 -0.7,-1.8 -0.2,-0.6 -0.4,-1.1 -0.6,-1.6 -0.2,-0.6 -0.5,-0.9 -0.8,-1.1 -0.3,-0.2 -0.7,-0.1 -1,0.1 -0.2,0.1 -0.4,0.5 -0.7,1.1 -0.3,0.6 -0.5,1.4 -0.6,2.4 -0.1,1 0,2.3 0.2,3.7 0.3,1.4 0.8,3.1 1.7,4.9 -0.2,0.4 -0.5,0.8 -0.8,1.1 -0.1,0.2 -0.3,0.3 -0.4,0.4 -0.4,0.3 -0.7,0.4 -0.9,0.4 -0.2,-0.1 -0.4,-0.4 -0.7,-1 -0.1,-0.3 -0.3,-0.8 -0.5,-1.5 -0.2,-0.7 -0.5,-1.5 -0.8,-2.3 -0.3,-0.8 -0.6,-1.6 -0.9,-2.4 -0.3,-0.8 -0.7,-1.4 -1,-1.9 -0.3,-0.3 -0.5,-0.5 -0.7,-0.6 -0.2,0 -0.5,0 -0.7,0.2 -0.2,0.1 -0.4,0.4 -0.7,0.9 -0.3,0.5 -0.5,1.2 -0.6,2.1 -0.1,0.9 -0.1,2 0.1,3.3 0.2,1.3 0.7,2.8 1.5,4.5 0,0 0,0 0,-0.1 0.1,0.2 0.1,0.3 0.2,0.5 0.1,0.2 0.1,0.3 0.2,0.5 0.1,0.2 0.2,0.3 0.2,0.5 -0.4,0.7 -0.6,1 -1,1.7 -0.1,0.1 -0.2,0.2 -0.3,0.4 -0.1,0.1 -0.3,0.2 -0.4,0.2 -0.2,0 -0.4,0 -0.6,-0.2 -0.2,-0.2 -0.4,-0.5 -0.6,-0.9 -1.4,-3.3 -2.2,-5 -3.6,-8.4 -0.1,-0.3 -0.2,-0.5 -0.4,-0.8 -0.1,-0.2 -0.2,-0.4 -0.4,-0.6 -0.1,-0.2 -0.3,-0.3 -0.4,-0.4 0.2,-0.4 0.4,-0.7 0.6,-1 0.2,-0.3 0.4,-0.5 0.5,-0.6 0.2,-0.2 0.3,-0.4 0.4,-0.5 0.6,-0.5 1.2,-0.1 1.7,1 0.1,0.3 0.3,0.9 0.6,1.5 0,-0.7 0.1,-1.4 0.3,-2.1 0.1,-0.7 0.3,-1.4 0.5,-2 0.2,-0.6 0.5,-1.2 0.8,-1.7 0.3,-0.5 0.7,-0.9 1.1,-1.2 0.3,-0.2 0.7,-0.4 1.1,-0.3 0.4,0 0.7,0.1 1.1,0.3 0.3,0.2 0.7,0.5 1,0.9 0.3,0.4 0.6,0.8 0.9,1.3 0,-0.6 0.1,-1.3 0.2,-1.9 0.1,-0.7 0.3,-1.3 0.5,-1.9 0.2,-0.6 0.5,-1.2 0.8,-1.7 0.3,-0.5 0.7,-1 1.2,-1.3 0.5,-0.4 1.1,-0.5 1.6,-0.4 0.5,0.1 1,0.3 1.4,0.7 0.4,0.4 0.8,0.9 1.1,1.4 0.3,0.6 0.6,1.2 0.8,1.7 0.6,1.8 0.9,2.7 1.6,4.5 0.4,1.1 0.9,1.4 1.6,1 0.5,-0.3 0.9,-0.9 1.2,-1.8 0.3,-0.9 0.5,-1.8 0.7,-2.8 0.2,-1 0.3,-2 0.3,-3 0.1,-1 0.2,-1.8 0.2,-2.4 0,-0.2 0.1,-0.4 0.2,-0.5 0.1,-0.1 0.2,-0.2 0.4,-0.2 0.1,0 0.3,0.1 0.4,0.2 0.1,0.1 0.2,0.4 0.2,0.7 0,0.9 0,2 -0.1,3.2 -0.1,1.2 -0.2,2.4 -0.4,3.5 -0.2,1.1 -0.6,2.2 -1,3.2 -0.4,1 -1.1,1.8 -1.9,2.3 -0.3,0.2 -0.6,0.3 -0.9,0.5 -0.3,0.2 -0.6,0.2 -0.9,0.2 -0.3,0 -0.6,-0.1 -1,-0.2 0,0 -0.3,-0.3 -0.6,-0.7 z"
           id="path46"
           inkscape:connector-curvature="0"
           style="fill:#ffffff" /><path
           d="m 304.3,281.3 c -0.1,1.2 -0.3,2.5 -0.6,3.8 -0.3,1.3 -0.7,2.5 -1.2,3.7 -0.5,1.2 -1,2.2 -1.7,3.2 -0.7,0.9 -1.4,1.7 -2.2,2.2 -0.4,0.3 -1,0.5 -1.6,0.6 -0.6,0.1 -1.3,0.1 -2,0 -0.7,-0.1 -1.4,-0.4 -2.1,-0.9 -0.7,-0.5 -1.3,-1.2 -1.8,-2.2 -0.4,-0.8 -0.7,-1.8 -0.8,-2.9 -0.1,-1.1 -0.1,-2.3 0.1,-3.4 0.2,-1.1 0.5,-2.2 1,-3.2 0.5,-1 1.2,-1.8 2,-2.3 0.8,-0.5 1.5,-0.7 2.1,-0.5 0.6,0.1 1,0.5 1.3,1.1 0.3,0.6 0.5,1.3 0.5,2 0,0.7 -0.1,1.4 -0.2,2 -0.2,0.7 -0.4,1.3 -0.6,1.9 -0.3,0.6 -0.5,1.2 -0.7,1.7 -0.3,0.6 -0.5,1.1 -0.8,1.6 -0.2,0.5 -0.4,1 -0.6,1.4 0.3,0.5 0.7,0.8 1,1 0.4,0.2 0.7,0.3 1.1,0.4 0.4,0 0.7,0 1.1,-0.1 0.4,-0.1 0.7,-0.3 1,-0.5 0.7,-0.4 1.3,-1.1 1.8,-2 0.5,-0.9 0.9,-1.8 1.3,-2.9 0.4,-1 0.7,-2.1 0.9,-3.1 0.2,-1 0.4,-1.9 0.6,-2.6 0.1,-0.2 0.1,-0.4 0.3,-0.5 0.1,-0.1 0.3,-0.2 0.4,-0.2 0.1,0 0.3,0.1 0.4,0.3 -0.1,-0.1 0,0.1 0,0.4 z m -10.8,0.5 c -0.2,0.2 -0.5,0.5 -0.7,0.9 -0.2,0.4 -0.3,1 -0.4,1.6 -0.1,0.6 0,1.4 0.1,2.2 0.1,0.8 0.4,1.6 0.7,2.5 0.1,-0.3 0.3,-0.7 0.5,-1 0.2,-0.4 0.3,-0.7 0.5,-1.1 0.5,-1.2 0.7,-2.1 0.8,-2.8 0,-0.7 0,-1.2 -0.2,-1.6 -0.2,-0.4 -0.4,-0.6 -0.6,-0.7 -0.2,-0.1 -0.4,-0.1 -0.7,0 z"
           id="path48"
           inkscape:connector-curvature="0"
           style="fill:#ffffff" /></g></g></g></svg>