<?xml version="1.0" encoding="utf-8"?>
<!-- Generator: Adobe Illustrator 16.0.0, SVG Export Plug-In . SVG Version: 6.00 Build 0)  -->
<!DOCTYPE svg PUBLIC "-//W3C//DTD SVG 1.1//EN" "http://www.w3.org/Graphics/SVG/1.1/DTD/svg11.dtd">
<svg version="1.1" id="Layer_1" xmlns="http://www.w3.org/2000/svg" xmlns:xlink="http://www.w3.org/1999/xlink" x="0px" y="0px"
	 width="100px" height="100px" viewBox="0 0 100 100" enable-background="new 0 0 100 100" xml:space="preserve">
<g id="_x36__ball_1_">
	<path fill="#F1F1F1" d="M76.533,9.136c22.758,14.685,29.287,45.004,14.623,67.717c-14.66,22.766-45.024,29.303-67.745,14.616
		C0.676,76.822-5.854,46.495,8.826,23.734C23.487,1.003,53.814-5.515,76.533,9.136z"/>
	<path fill="#FFFFFF" d="M50,15.397c4.313,9.325,21.175,41.629,9.423,63.523C55.76,85.745,50,96.125,47.897,98.957
		c-8.43-0.354-16.877-2.892-24.471-7.8C0.691,76.51-5.838,46.183,8.841,23.422C16.172,12.057,27.433,5.077,39.688,2.438
		C42.954,5.166,46.038,8.25,50,15.397z"/>
	<path fill="#E7A041" d="M23.427,91.157c2.567,1.664,5.265,2.961,8.004,4.094l67.017-39.089c2.297-18.107-5.513-36.771-21.9-47.338
		c-2.604-1.684-5.361-3.031-8.135-4.164L1.547,43.652C-0.808,61.822,7.004,80.568,23.427,91.157z"/>
	<path fill="#FBC055" d="M50,15.397C33.176,25.208,1.547,43.652,1.547,43.652c-2.355,18.17,5.457,36.916,21.879,47.505
		c2.676,1.723,5.551,2.706,8.401,3.863c0,0,6.015-3.517,27.595-16.1C71,53.667,55,26.497,50,15.397z"/>
	<path fill="#FFFFFF" d="M52.122,26.597c12.981,1.209,22.434,12.658,21.269,25.577c-1.17,12.89-12.618,22.401-25.554,21.238
		C34.927,72.194,25.384,60.754,26.584,47.85C27.793,34.915,39.226,25.411,52.122,26.597z"/>
	
		
</g>
<text transform="matrix(0.8824 -0.4705 0.4705 0.8824 46.0381 67.4766)" stroke="#000000" stroke-width="2" stroke-miterlimit="10" font-family="'MyriadPro-Regular'" font-size="42">1</text>
</svg>
