<?xml version="1.0" encoding="utf-8"?>
<!-- Generator: Adobe Illustrator 17.0.0, SVG Export Plug-In . SVG Version: 6.00 Build 0)  -->
<!DOCTYPE svg PUBLIC "-//W3C//DTD SVG 1.1//EN" "http://www.w3.org/Graphics/SVG/1.1/DTD/svg11.dtd">
<svg version="1.1" xmlns="http://www.w3.org/2000/svg" xmlns:xlink="http://www.w3.org/1999/xlink" x="0px" y="0px" width="515.9px"
	 height="728.5px" viewBox="0 0 515.9 728.5" enable-background="new 0 0 515.9 728.5" xml:space="preserve">
<g id="Layer_1">
	<circle fill="none" stroke="#FFFFFF" stroke-miterlimit="10" cx="389.5" cy="408.1" r="6.1"/>
	<rect x="129" y="397.4" fill="#FFFFFF" width="1.5" height="22.7"/>
	<rect x="130.3" y="408.6" fill="#FFFFFF" width="10" height="1.6"/>
	<circle fill="none" stroke="#FFFFFF" stroke-miterlimit="10" cx="146.4" cy="409.5" r="6.1"/>
	<rect x="391.8" y="359" display="none" fill="#FFFFFF" width="1.5" height="22"/>
	<rect x="395.7" y="407.3" fill="#FFFFFF" width="10" height="1.6"/>
	<rect x="105.8" y="300.5" fill="#8B98A3" width="322.7" height="207.5"/>
	<rect x="383.4" y="396.2" fill="#0675B2" width="26.1" height="29.3"/>
	<line fill="none" stroke="#FFFFFF" stroke-width="2" stroke-miterlimit="10" x1="266.8" y1="315.5" x2="267" y2="491.4"/>
	<path fill="none" stroke="#FFFFFF" stroke-width="2" stroke-miterlimit="10" d="M139.8,365.6"/>
	<path fill="none" stroke="#FFFFFF" stroke-width="2" stroke-miterlimit="10" d="M121.6,365.6"/>
	<g>
		<path fill="none" stroke="#FFFFFF" stroke-width="2" stroke-miterlimit="10" d="M122,315.5v33.8c1.5-0.1,3.1-0.2,4.7-0.2
			c33.4,0,60.5,27.1,60.5,60.5S160.1,470,126.7,470c-1.6,0-3.1-0.1-4.7-0.2v22.6h289.6V315.5H122z"/>
		<path fill="none" stroke="#FFFFFF" stroke-width="2" stroke-miterlimit="10" d="M187.2,409.6c0-33.4-27.1-60.5-60.5-60.5
			c-1.6,0-3.1,0.1-4.7,0.2v120.5c1.5,0.1,3.1,0.2,4.7,0.2C160.1,470,187.2,443,187.2,409.6z"/>
	</g>
	<g>
		<g>
			<path fill="none" stroke="#FFFFFF" stroke-width="2" stroke-miterlimit="10" d="M349.1,408.5c0,33.4,27.1,60.5,60.5,60.5"/>
		</g>
	</g>
	<g>
		<g>
			<path fill="none" stroke="#FFFFFF" stroke-width="2" stroke-miterlimit="10" d="M409.5,349.1c-33.4,0-60.5,27.1-60.5,60.5"/>
		</g>
	</g>
	<circle fill="none" stroke="#FFFFFF" stroke-width="2" stroke-miterlimit="10" cx="267.3" cy="411.8" r="14.4"/>
	<g>
		<path fill="none" stroke="#FFFFFF" stroke-width="2" stroke-miterlimit="10" d="M150.6,394.4h-27.5v31.7h25.7"/>
		<path fill="none" stroke="#FFFFFF" stroke-width="2" stroke-miterlimit="10" d="M137.3,410.5"/>
		<path fill="none" stroke="#FFFFFF" stroke-miterlimit="10" d="M153.7,394.1c-1,0-2,0.1-3,0.3h1.6v31.7h-3.4
			c1.5,0.5,3.2,0.7,4.8,0.7c9,0,16.4-7.3,16.4-16.4C170,401.5,162.7,394.1,153.7,394.1z"/>
		<path fill="none" stroke="#FFFFFF" stroke-width="2" stroke-miterlimit="10" d="M137.3,410.5"/>
		<path fill="none" stroke="#FFFFFF" stroke-width="2" stroke-miterlimit="10" d="M148.8,426.2h3.4v-31.7h-1.6"/>
	</g>
	<g>
		<path fill="none" stroke="#FFFFFF" stroke-width="2" stroke-miterlimit="10" d="M383.5,426.6H411v-31.7h-25.7"/>
		<path fill="none" stroke="#FFFFFF" stroke-width="2" stroke-miterlimit="10" d="M396.9,410.5"/>
		<path fill="none" stroke="#FFFFFF" stroke-miterlimit="10" d="M380.5,426.9c1,0,2-0.1,3-0.3H382v-31.7h3.4
			c-1.5-0.5-3.2-0.7-4.8-0.7c-9,0-16.4,8.4-16.4,17.4C364.1,420.6,371.5,426.9,380.5,426.9z"/>
		<path fill="none" stroke="#FFFFFF" stroke-width="2" stroke-miterlimit="10" d="M396.9,410.5"/>
		<path fill="none" stroke="#FFFFFF" stroke-width="2" stroke-miterlimit="10" d="M385.4,394.9H382v31.7h1.6"/>
	</g>
	<rect x="143.3" y="389.3" fill="#FFFFFF" width="1" height="5.7"/>
	<rect x="138.1" y="389.3" fill="#FFFFFF" width="1" height="5.7"/>
	<rect x="132.9" y="389.3" fill="#FFFFFF" width="1" height="5.7"/>
	<rect x="124.3" y="395" fill="#0675B2" width="27.1" height="30"/>
	<rect x="142.2" y="426.8" fill="#FFFFFF" width="1" height="4.7"/>
	<rect x="137.1" y="426.8" fill="#FFFFFF" width="1" height="4.7"/>
	<rect x="131.9" y="426.8" fill="#FFFFFF" width="1" height="4.7"/>
	<rect x="400.8" y="389.8" fill="#FFFFFF" width="1" height="5.2"/>
	<rect x="395.7" y="389.8" fill="#FFFFFF" width="1" height="5.2"/>
	<rect x="389.4" y="389.8" fill="#FFFFFF" width="1" height="5.2"/>
	<rect x="400.8" y="426.8" fill="#FFFFFF" width="1" height="5.2"/>
	<rect x="395.7" y="426.8" fill="#FFFFFF" width="1" height="5.2"/>
	<rect x="389.5" y="426.8" fill="#FFFFFF" width="1.1" height="5.2"/>
	<rect x="127.9" y="402.3" fill="#FFFFFF" width="0.8" height="17.6"/>
	<rect x="128.8" y="411.4" fill="#FFFFFF" width="4.1" height="0.8"/>
	<circle fill="none" stroke="#FFFFFF" stroke-width="0.5" stroke-miterlimit="10" cx="136.7" cy="411.6" r="4.1"/>
	<rect x="405.9" y="402.3" fill="#FFFFFF" width="0.8" height="17.6"/>
	<rect x="401.7" y="411.1" fill="#FFFFFF" width="4.1" height="0.8"/>
	<circle fill="none" stroke="#FFFFFF" stroke-width="0.5" stroke-miterlimit="10" cx="397.8" cy="411.7" r="4.1"/>
	<circle fill="#0675B2" cx="267.3" cy="411.9" r="13.5"/>
	<path fill="none" d="M219.8,427.8L219.8,427.8L219.8,427.8L219.8,427.8C219.8,427.8,219.9,427.8,219.8,427.8L219.8,427.8
		L219.8,427.8L219.8,427.8L219.8,427.8L219.8,427.8L219.8,427.8L219.8,427.8 M219.9,427.8L219.9,427.8L219.9,427.8L219.9,427.8
		L219.9,427.8L219.9,427.8L219.9,427.8L219.9,427.8L219.9,427.8L219.9,427.8L219.9,427.8L219.9,427.8L219.9,427.8L219.9,427.8
		L219.9,427.8L219.9,427.8L219.9,427.8L219.9,427.8L219.9,427.8 M220,427.8L220,427.8L220,427.8L220,427.8L220,427.8L220,427.8
		L220,427.8L220,427.8L220,427.8L220,427.8L220,427.8L220,427.8L220,427.8L220,427.8 M220.1,427.8L220.1,427.8L220.1,427.8
		L220.1,427.8L220.1,427.8L220.1,427.8 M220.2,427.8L220.2,427.8L220.2,427.8L220.2,427.8L220.2,427.8L220.2,427.8L220.2,427.8
		L220.2,427.8L220.2,427.8 M220.2,427.8L220.2,427.8L220.2,427.8L220.2,427.8L220.2,427.8L220.2,427.8L220.2,427.8L220.2,427.8
		L220.2,427.8L220.2,427.8L220.2,427.8L220.2,427.8L220.2,427.8L220.2,427.8L220.2,427.8L220.2,427.8 M220.3,427.7L220.3,427.7
		L220.3,427.7L220.3,427.7L220.3,427.7L220.3,427.7 M220.5,427.6L220.5,427.6L220.5,427.6L220.5,427.6L220.5,427.6L220.5,427.6
		 M220.6,427.6L220.6,427.6L220.6,427.6L220.6,427.6L220.6,427.6L220.6,427.6L220.6,427.6 M220.7,427.5L220.7,427.5L220.7,427.5
		L220.7,427.5 M220.8,427.4L220.8,427.4L220.8,427.4L220.8,427.4L220.8,427.4L220.8,427.4L220.8,427.4 M220.9,427.3L220.9,427.3
		L220.9,427.3L220.9,427.3 M221,427.2L221,427.2L221,427.2L221,427.2L221,427.2 M221.1,427L221.1,427L221.1,427L221.1,427L221.1,427
		 M221.2,426.9L221.2,426.9L221.2,426.9 M221.3,426.7L221.3,426.7L221.3,426.7L221.3,426.7L221.3,426.7L221.3,426.7 M221.4,426.5
		L221.4,426.5L221.4,426.5 M221.5,426.4c2.2-3.9,2.8-7.2,9.5-8.3c2.3-0.4,3.1-1.6,3.1-4.2c3.5-0.1,1.6-6.6-1-5.5
		c-0.3,0.1-3.1,2.3-4.7,2.3c-0.9,0-4.8-1.2-5.3-1.5l0,0h0l0,0c0,0,0,0,0,0l0,0l0,0c0,0,0,0,0,0l0,0l0,0c0,0,0,0,0,0l0,0l0,0l0,0l0,0
		c0,0,0,0,0-0.1l0,0h0l0,0l0,0l0,0l0,0l0,0c0,0,0,0,0,0l0,0l0,0l0,0l0,0l0,0l0,0l0,0l0,0l0,0c0,0,0,0,0-0.1l0,0l0,0l0,0l0,0l0,0l0,0
		l0,0l0,0l0,0l0,0l0,0c0,0,0,0,0,0l0,0l0,0l0,0l0,0v0l0,0l0,0l0,0l0,0l0,0l0,0l0,0l0,0l0,0l0,0l0,0v0l0,0l0,0l0,0l0,0v0l0,0l0,0l0,0
		l0,0l0,0l0,0l0,0c0,0,0,0,0-0.1l0,0l0-0.1l0,0l0,0 M219.9,427.8L219.9,427.8L219.9,427.8L219.9,427.8 M219.9,427.8L219.9,427.8
		 M222.7,408.5L222.7,408.5L222.7,408.5L222.7,408.5L222.7,408.5L222.7,408.5L222.7,408.5L222.7,408.5L222.7,408.5L222.7,408.5
		L222.7,408.5L222.7,408.5L222.7,408.5L222.7,408.5L222.7,408.5L222.7,408.5L222.7,408.5L222.7,408.5L222.7,408.5L222.7,408.5
		L222.7,408.5L222.7,408.5L222.7,408.5L222.7,408.5L222.7,408.5L222.7,408.5L222.7,408.5L222.7,408.5L222.7,408.5L222.7,408.5
		L222.7,408.5L222.7,408.5L222.7,408.5l0-0.1l0,0l0,0l0,0l0,0l0,0l0,0h0v0l0,0l0,0l0,0l0,0l0,0l0,0l0,0l0,0v0l0,0l0,0l0-0.1l0,0
		l0-0.1v0l0,0l0-0.1l0,0l0-0.1v0l0,0l0,0v0l0-0.1l-0.1-0.1l0,0c-0.3-0.8-0.8-1.7-1.9-2h0c-0.1,0-0.1,0-0.2-0.1l0,0
		c-0.1,0-0.2,0-0.3-0.1h0c-0.1,0-0.1,0-0.2,0v22.2l0,0 M223,409L223,409L223,409L223,409L223,409L223,409C223,409,223,409,223,409
		L223,409L223,409L223,409L223,409L223,409 M222.8,408.6L222.8,408.6L222.8,408.6l-0.1-0.1l0,0"/>
	<path fill="#814732" d="M219.8,427.8c0.5,0,1.1-0.4,1.7-1.5c2.2-3.9,2.8-7.2,9.5-8.3c2.3-0.4,3.1-1.6,3.1-4.2
		c3.5-0.1,1.6-6.6-1-5.5c-0.3,0.1-3.1,2.3-4.7,2.3c-0.9,0-4.8-1.2-5.3-1.5c-0.7-0.6-0.7-3.5-3.3-3.6V427.8z"/>
	<path fill="#737D84" d="M243.6,435.6h-0.8c-0.1,2.1-1.7,4.1-2.8,5.3l-1.6,1.6c-1.3,1-0.7-0.4-1.8,0.7c-0.5,0.6-0.3,0.6-0.9,1.2
		c-0.4,0.3-0.6,0.4-1,0.8c-2.2,1.8-8.5,4.5-10.1,4.5c-0.5,0,0.1-0.5-1.6-0.5c-0.1-1.1-0.6-0.8-1.8,0.6c-0.3,0.3-1.4,2.2-1.4,2.5
		v39.2c3.8,0,4.6-0.3,7.9-0.5l8.1-1.6c0.7-0.1,0.4,0,1.1-0.2c1.1-0.3-0.2-0.3,1-0.3c0.8,0,2.2,2.1,1.2-0.7
		c-2.2-6.8-2.4-12.4,0.1-19.2c0.8-2.3,2.2-4.4,3.7-6.2c1.6-1.9,3-2.9,4.3-5.4c2.9-5.7,2.2-13.5-0.1-19.3c-0.4-1.1-0.8-1.6-1.1-2.8
		C244.8,435.4,244.9,435.6,243.6,435.6z"/>
	<path fill="#676E72" d="M190.5,447.7c0,8.9,1.9,10.2,6.2,15.2c5.9,7,6.5,15.3,4.3,23.8c-0.3,1.1-0.6,1.8-0.8,2.8
		c1.7-0.9,1.4-0.5,3-0.1c0.9,0.2,1.1,0.2,1.9,0.4l5.8,1c3.5,0.3,3.9,0.8,8.1,0.8v-39.8c0-0.8-1.9-2.8-2.4-3.4
		c-0.8,0.3-0.4-0.6-0.5,0.8c-2.2,0.1-0.1,1.8-7.6-1.6c-2.7-1.2-4.2-2.1-6-4.2c-1.3-1.6-0.6,0.5-2.4-1.3c-1.6-1.6-3.9-3.8-4-6.5
		l-2.6-0.3c-0.3,1.2-1.3,3.1-2,5.6C191.2,442.9,190.5,445.4,190.5,447.7z"/>
	<path fill="#676E72" d="M180.6,443.7c0,2,0.9,4.4,1.6,5.8c-3.6,2.4-6.3,7.5-6.3,12c0,1.4,0.3,2.3,0.5,3.4c-0.5,0.8-1.1,0.9-1.3,1.9
		c-0.5,2.3,0.8,1.2-0.9,4c-0.2,0.4-0.4,0.8-0.6,1.2c-2.4,6.2,2.9,6.4,3.8,7c0.9,0.6,2,2.7,4.8,3.8c2.7,1,5.1,0.9,8.1,0.9
		c1.9,0,1.2-0.6,3,0.1c1.4,0.6,1.4,0.3,2.2,1.5c0.9,1.4,2.5,2.9,4.3,3.3c0.2-2.6,1.6-3,1.6-12c-4.5-0.4-5.7-1.7-9.6-5
		c-0.5-0.5-0.9-0.5-1.1-1.3c1-0.3,2.8-1.8,3.4-2.6c4.9-6.1,0.9-3.4-2.3-10.3c-2.6-5.7-2.2-10.4-0.8-16.3c0.5-2,1.9-5.5,2-6.4
		c-0.8-0.2-0.4-0.1-1-0.5c-1.1,0.2-1.5,0.7-2.3,1.4c-0.4,0.4-0.5,0.6-1.1,0.6c-1.3-0.2-0.6-1.9-0.6-2.5
		C184.8,434,180.6,439.7,180.6,443.7z"/>
	<path fill="#737D84" d="M249.9,448.2c0,10.7-4.6,12.4-7.8,17.3c0.6,0.8,1.3,2,2,2.7c0.6,0.6,2.2,1.8,2.9,2c-0.2,0.8-0.3,0.6-0.8,1
		c-1.9,1.6-5.6,4.9-7.8,5c0,3.2,0.1,8.7,1.3,11.2c2.5-0.7,1-2.4,5-3.9c1.2-0.4,6.3,0.8,10.5-0.8c2.9-1.1,3.6-2.8,4.9-3.8
		c1.6-1.2,7.4-0.7,2.8-9.2c-0.7-1.2-0.2-1.6-0.4-3c-0.2-1.2-0.7-1.2-1.3-2.1c1.2-5.2-0.1-9.2-3.3-13.2c-1.1-1.4-1-1.3-2.4-2.3
		c4.1-7.8-1.6-14.2-4.2-14.9c0.3,0.6,0.4,1.8-0.6,1.9c-0.6,0.1-1.3-0.8-1.9-1.3c-3.5-2.6-1.2,2.2-1.2,2.2
		C248.5,439.8,249.9,444.8,249.9,448.2z"/>
	<path fill="#814732" d="M219.3,380.2c0.3,0.3,0.9-0.4,0.3-0.1C219.6,380,218.9,379.7,219.3,380.2z"/>
	<path fill="#814732" d="M265.1,473.5C265.1,473.6,265.1,473.4,265.1,473.5L265.1,473.5C265.1,473.5,265.1,473.5,265.1,473.5z"/>
	<path fill="#814732" d="M207,391.7L207,391.7C207.1,391.6,207,391.7,207,391.7z"/>
	<path fill="#814732" d="M210.9,387L210.9,387C211,386.9,210.9,386.9,210.9,387z"/>
	<path fill="#814732" d="M228.2,387.5L228.2,387.5C228.3,387.4,228.2,387.5,228.2,387.5z"/>
	<path fill="#814732" d="M231.9,391.7L231.9,391.7C231.9,391.6,231.8,391.7,231.9,391.7z"/>
	<path fill="#814732" d="M227.9,387L227.9,387C228,386.9,227.9,386.9,227.9,387z"/>
	<path fill="#814732" d="M210.7,387.5L210.7,387.5C210.7,387.4,210.6,387.5,210.7,387.5z"/>
	<path fill="#814732" d="M265.1,475.6L265.1,475.6C265.1,475.6,265.1,475.6,265.1,475.6z"/>
	<path fill="#383838" d="M205.2,413.9c0,7.1,7.1,1.4,11.3,9.9c0.6,1.1,2.7,6.7,5,2.6c2.2-3.9,2.8-7.2,9.5-8.3
		c2.3-0.4,3.1-1.6,3.1-4.2c3.5-0.1,1.6-6.6-1-5.5c-0.3,0.1-3.1,2.3-4.7,2.3c-0.9,0-4.8-1.2-5.3-1.5c-0.7-0.6-0.7-3.5-3.4-3.6
		c-2.6-0.1-3.1,3-3.3,3.4c-0.5,0.7-4.6,1.8-5.3,1.8c-1,0-2.9-0.8-3.8-1.5c-0.4-0.3-0.7-0.6-1.1-0.8
		C203.6,407,201.6,413.8,205.2,413.9z"/>
	<path fill="none" d="M219.9,427.8L219.9,427.8L219.9,427.8L219.9,427.8L219.9,427.8L219.9,427.8L219.9,427.8L219.9,427.8
		L219.9,427.8 M219.9,427.8L219.9,427.8L219.9,427.8L219.9,427.8L219.9,427.8L219.9,427.8L219.9,427.8L219.9,427.8L219.9,427.8
		L219.9,427.8L219.9,427.8L219.9,427.8L219.9,427.8L219.9,427.8L219.9,427.8L219.9,427.8L219.9,427.8L219.9,427.8L219.9,427.8
		 M220,427.8L220,427.8L220,427.8L220,427.8L220,427.8L220,427.8L220,427.8L220,427.8L220,427.8L220,427.8L220,427.8L220,427.8
		L220,427.8L220,427.8 M220.1,427.8L220.1,427.8L220.1,427.8L220.1,427.8L220.1,427.8L220.1,427.8 M220.2,427.8L220.2,427.8
		L220.2,427.8L220.2,427.8L220.2,427.8L220.2,427.8L220.2,427.8L220.2,427.8L220.2,427.8 M220.2,427.8L220.2,427.8L220.2,427.8
		L220.2,427.8L220.2,427.8L220.2,427.8L220.2,427.8L220.2,427.8L220.2,427.8L220.2,427.8L220.2,427.8L220.2,427.8L220.2,427.8
		L220.2,427.8L220.2,427.8L220.2,427.8 M220.3,427.7L220.3,427.7L220.3,427.7L220.3,427.7L220.3,427.7L220.3,427.7 M220.5,427.6
		L220.5,427.6L220.5,427.6L220.5,427.6L220.5,427.6L220.5,427.6 M220.6,427.6L220.6,427.6L220.6,427.6L220.6,427.6L220.6,427.6
		L220.6,427.6L220.6,427.6 M220.7,427.5L220.7,427.5L220.7,427.5L220.7,427.5 M220.8,427.4L220.8,427.4L220.8,427.4L220.8,427.4
		L220.8,427.4L220.8,427.4L220.8,427.4 M220.9,427.3L220.9,427.3L220.9,427.3L220.9,427.3 M221,427.2L221,427.2L221,427.2L221,427.2
		L221,427.2 M221.1,427L221.1,427L221.1,427L221.1,427L221.1,427 M221.2,426.9L221.2,426.9L221.2,426.9 M221.3,426.7L221.3,426.7
		L221.3,426.7L221.3,426.7L221.3,426.7L221.3,426.7 M221.4,426.5L221.4,426.5L221.4,426.5 M221.5,426.4c2.2-3.9,2.8-7.2,9.5-8.3
		c2.3-0.4,3.1-1.6,3.1-4.2c3.5-0.1,1.6-6.6-1-5.5c-0.3,0.1-3.1,2.3-4.7,2.3c-0.9,0-4.8-1.2-5.3-1.5l0,0h0l0,0c0,0,0,0,0,0l0,0l0,0
		c0,0,0,0,0,0l0,0l0,0c0,0,0,0,0,0l0,0l0,0l0,0l0,0c0,0,0,0,0-0.1l0,0h0l0,0l0,0l0,0l0,0l0,0c0,0,0,0,0,0l0,0l0,0l0,0l0,0l0,0l0,0
		l0,0l0,0l0,0c0,0,0,0,0-0.1l0,0l0,0l0,0l0,0l0,0l0,0l0,0l0,0l0,0l0,0l0,0c0,0,0,0,0,0l0,0l0,0l0,0l0,0v0l0,0l0,0l0,0l0,0l0,0l0,0
		l0,0l0,0l0,0l0,0l0,0v0l0,0l0,0l0,0l0,0v0l0,0l0,0l0,0l0,0l0,0l0,0l0,0c0,0,0,0,0-0.1l0,0l0-0.1l0,0l0,0 M219.9,427.8L219.9,427.8
		L219.9,427.8L219.9,427.8 M219.9,427.8L219.9,427.8 M222.7,408.5L222.7,408.5L222.7,408.5L222.7,408.5L222.7,408.5L222.7,408.5
		L222.7,408.5L222.7,408.5L222.7,408.5L222.7,408.5L222.7,408.5L222.7,408.5L222.7,408.5L222.7,408.5L222.7,408.5L222.7,408.5
		L222.7,408.5L222.7,408.5L222.7,408.5L222.7,408.5L222.7,408.5L222.7,408.5L222.7,408.5L222.7,408.5L222.7,408.5L222.7,408.5
		L222.7,408.5L222.7,408.5L222.7,408.5L222.7,408.5L222.7,408.5L222.7,408.5L222.7,408.5l0-0.1l0,0l0,0l0,0l0,0l0,0l0,0h0v0l0,0l0,0
		l0,0l0,0l0,0l0,0l0,0l0,0v0l0,0l0,0l0-0.1l0,0l0-0.1v0l0,0l0-0.1l0,0l0-0.1v0l0,0l0,0v0l0-0.1l-0.1-0.1l0,0c-0.3-0.8-0.8-1.7-1.9-2
		h0c-0.1,0-0.1,0-0.2-0.1l0,0c-0.1,0-0.2,0-0.3-0.1h0c0,0-0.1,0-0.1,0 M223,409L223,409L223,409L223,409L223,409L223,409
		C223,409,223,409,223,409L223,409L223,409L223,409L223,409L223,409 M222.8,408.6L222.8,408.6L222.8,408.6l-0.1-0.1l0,0"/>
	<path fill="#2B2A29" fill-opacity="0.1098" d="M219.9,380C219.9,380,219.9,380,219.9,380L219.9,380z"/>
	<path fill="#2B2A29" fill-opacity="0.1098" d="M265.1,473.5C265.1,473.6,265.1,473.4,265.1,473.5L265.1,473.5
		C265.1,473.5,265.1,473.5,265.1,473.5z"/>
	<path fill="#2B2A29" fill-opacity="0.1098" d="M228.2,387.5L228.2,387.5C228.3,387.4,228.2,387.5,228.2,387.5z"/>
	<path fill="#2B2A29" fill-opacity="0.1098" d="M231.9,391.7L231.9,391.7C231.9,391.6,231.8,391.7,231.9,391.7z"/>
	<path fill="#2B2A29" fill-opacity="0.1098" d="M227.9,387L227.9,387C228,386.9,227.9,386.9,227.9,387z"/>
	<path fill="#2B2A29" fill-opacity="0.1098" d="M265.1,475.6L265.1,475.6C265.1,475.6,265.1,475.6,265.1,475.6z"/>
	<g>
		<path fill="none" d="M216.6,406.7c-1.1,1.9-0.1,2-2.5,2.6c-1.1,0.6-4.2,0.9-6.1-0.5c-1.3-0.9-1.5-1.2-1.5-2.7
			c0-2.1,3.5-4.6,4.4-2.9c-4.6,1.1-5.3,6,0.5,6c0.3,0.1,1.9-0.2,2.6-0.2c0.7-1.3,1.3-1,1.3-3c1.4,0,1.3,0.1,1.8-0.8
			c-2.3-0.9-7.5-8.7-12.6-3.4c1.7,2.3,3.3-1.7,4.7,0.3c-3,0.3-3.7,3-3.7,5.5c-2.2,0.1-3.1,2-3.1,4.2c0,2.5,1.4,2,1.9,3.3
			c0.2,0.5,0.1,0.4,0.2,0.8c1.2,4.1,5.5,2.3,6.6,3.9c2.1,1.2,2.9,1.8,4.3,4.1l0.8,1.3c0.8,1.6,1.2,3.1,2.9,3.1c0.2,0,0.3,0,0.4,0
			l0-0.4c-1.6-0.1-2.8-3.3-3.2-4.1c-4.3-8.5-11.3-2.7-11.3-9.9c-3.6-0.1-1.5-6.9,1.2-5.4c0.4,0.2,0.6,0.5,1.1,0.8
			c0.9,0.6,2.8,1.5,3.8,1.5c0.7,0,4.8-1.1,5.3-1.8c0.2-0.3,0.7-3.4,3.2-3.4l0-0.7c0,0,0,0-0.1,0
			C218.2,404.9,217.1,405.8,216.6,406.7z M212.2,408.7c-1.5,0-4.2-0.4-4.2-1.8c0-2.3,1.9-2.9,3.9-2.9c-0.3,1-0.8,0.8-0.8,2.1
			C211.2,408,211.5,407.6,212.2,408.7z"/>
		<path fill="none" d="M219.8,405.6c2.7,0.1,2.7,3,3.4,3.6c0.4,0.4,4.4,1.5,5.3,1.5c1.7,0,4.5-2.2,4.7-2.3c2.6-1.2,4.6,5.4,1,5.5
			c0,2.6-0.8,3.8-3.1,4.2c-6.7,1-7.3,4.4-9.5,8.3c-0.6,1.1-1.2,1.5-1.8,1.5l0,0.4c2-0.1,2-0.7,3.3-3.3c0.1-0.2,2-4.2,5.1-5.3
			c1.3-1.4,5.3,0.5,6.5-3.9c0.7-2.4,1-0.8,1.8-2.4c0.9-2,0.1-5.6-2.8-5.7c0-2.5-0.6-5.2-3.7-5.5c1.4-1.9,3.8,0.6,4.7-0.3
			c-2.6-5.5-10.1,1.3-12.6,3.4c0.6,0.9,0.4,0.8,1.8,0.8c0,1.4,0.4,1.8,0.8,2.6c9.5,1.9,6.9-3.7,6-4.4c-0.5-0.4-1.7-0.8-2.4-1
			c0.3-1.5,4.4,0.2,4.4,2.9c0,2.6-2.5,3.7-4.2,3.7c-1.5-0.2-2.7-0.4-3.6-0.6l0,0c-1-0.2-1.4-0.3-1.7-0.4c-0.1,0-0.1-0.1-0.1-0.1
			c-0.2-0.3-0.1-0.8-0.7-2.1c-0.6-1-1.7-1.7-3.1-1.7l0,0.7C219.7,405.6,219.7,405.6,219.8,405.6z M230.2,404.6
			c1.3,0.9,2.6,4.1-3.1,4.1c0.4-0.6,1.3-1.2,1.3-2.1c0-1.5-0.8-1.5-1-2.6C228.7,404,229.4,404,230.2,404.6z"/>
		<path fill="#737D84" d="M228.5,406.6c0,0.9-0.9,1.5-1.3,2.1c5.7,0,4.3-3.2,3.1-4.1c-0.8-0.6-1.5-0.6-2.8-0.6
			C227.7,405,228.5,405.1,228.5,406.6z"/>
		<path fill="#737D84" d="M221.5,426.4c2.2-3.9,2.8-7.2,9.5-8.3c2.3-0.4,3.1-1.6,3.1-4.2c3.5-0.1,1.6-6.6-1-5.5
			c-0.3,0.1-3.1,2.3-4.7,2.3c-0.9,0-4.8-1.2-5.3-1.5c-0.7-0.6-0.7-3.5-3.4-3.6c0,0-0.1,0-0.1,0l0.1,22.2
			C220.3,427.9,220.9,427.5,221.5,426.4z"/>
		<path fill="#676E72" d="M216.5,409c-0.5,0.7-4.6,1.8-5.3,1.8c-1,0-2.9-0.8-3.8-1.5c-0.4-0.3-0.7-0.6-1.1-0.8
			c-2.7-1.5-4.7,5.3-1.2,5.4c0,7.1,7.1,1.4,11.3,9.9c0.4,0.8,1.7,4,3.2,4.1l-0.1-22.2C217.2,405.6,216.7,408.6,216.5,409z"/>
		<path fill="#676E72" d="M208,406.9c0,1.4,2.7,1.8,4.2,1.8c-0.7-1.1-1-0.7-1-2.6c0-1.2,0.5-1,0.8-2.1C210,404,208,404.6,208,406.9z
			"/>
		<path fill="#676E72" d="M219.3,428.3c-1.6,0-2.1-1.5-2.9-3.1l-0.8-1.3c-1.4-2.3-2.2-2.9-4.3-4.1c-1.1-1.6-5.4,0.3-6.6-3.9
			c-0.1-0.5,0-0.3-0.2-0.8c-0.5-1.3-1.9-0.8-1.9-3.3c0-2.2,1-4.1,3.1-4.2c0-2.5,0.6-5.2,3.7-5.5c-1.4-2-3,2.1-4.7-0.3
			c5.1-5.3,10.3,2.5,12.6,3.4c-0.6,0.9-0.4,0.8-1.8,0.8c0,2-0.6,1.7-1.3,3c-0.7,0-2.2,0.2-2.6,0.2c-5.8,0-5.1-5-0.5-6
			c-0.9-1.7-4.4,0.8-4.4,2.9c0,1.5,0.2,1.9,1.5,2.7c1.9,1.4,5.1,1.2,6.1,0.5c2.4-0.6,1.5-0.7,2.5-2.6c0.6-1,1.6-1.8,3-1.8
			c0,0,0,0,0.1,0l-0.1-24c-1.1,0.8-1.2,2.6-3.1,3.7c0-2.8-0.5,0.5-0.5-2.6c-0.8,0.6-2.6,2.7-3.2,3.6c-0.9,1.2-1.6,3.6-2.5,4.3v-3.1
			c-0.8,0.5-0.8,1-1.2,2c-0.9,2.2-1.2,2.6-1.4,5.4c-0.1,1.2-0.1,2.1-0.8,2.6c-0.1-1.6-0.5-2.9-0.5-4.7c-0.2,0.2-0.1,0.1-0.3,0.5
			l-2.7,6.2c-0.4,0.6-1.2,1.5-1.2,2.2c0,1.8,1.8,1,1.8,4.7c0,1.8-4.3,5.8-2.3,8.5c1.3,1.7,1.9,0,2.4,3.6c0.6,3.5,1.7,8.1-2,10.4
			c-1.1,0.7-3.9,1.1-5.5,1.6c-1.7,0.5-3.5,1.1-5.2,1.9c-1.9,1-2.9,1.3-2.9,4.1c0.7-0.5,1-0.9,1.8-1.4c0.7-0.4,1.3-0.8,2.2-1
			c0.4,1.6,2.7,1.7,4.7,1.8c0,2.9,1.5,4.2,3.5,6.2c0.1,0.1,0.5,0.5,0.5,0.5c1,0.6,0.6-0.4,1.7,0.6c1.6,1.5,1.2,2.3,5.6,4.3
			c1.6,0.8,4.2,1.8,5.9,2.2c-0.3-1-0.3-0.5-0.8-1.3c0.6,0.2,1.5,0.7,2.1,1c-0.1-0.6-0.2-0.6-0.3-1.3c3.2,0.8,3,2.7,4.4,3.7
			l-0.1-22.8C219.6,428.3,219.5,428.3,219.3,428.3z"/>
		<path fill="#737D84" d="M242.6,429.6c-1.5-0.5-4.4-0.9-5.5-1.6c-3.8-2.3-2.6-7.4-1.9-11.1c0.3-1.4,0.4-1.4,1.3-2.1
			c2.5-1.6,1.6-3.5,0.4-5.8c-1.3-2.5-1.7-2-1.7-4.6c0-1.7,1.8-2.3,1.8-3.7c0-0.6-1.4-2.2-2.2-4.3c-0.4-0.9-1.4-3.9-2-4.6
			c0,1.8-0.4,3.1-0.5,4.7c-1-0.7-0.7-3-1.2-5.3c-0.3-1.2-0.5-1.5-0.9-2.5c-0.4-1-0.4-1.6-1.2-2.2v3.1c-1-0.7-1.7-3.1-2.5-4.3
			c-0.7-0.9-2.4-3-3.2-3.6c0,3.1-0.5-0.1-0.5,2.6c-1.9-1-2-2.9-3.1-3.7l0.1,24c1.3,0,2.4,0.7,3.1,1.7c0.7,1.2,0.5,1.7,0.7,2.1
			c0,0,0,0.1,0.1,0.1c0.2,0.2,0.6,0.3,1.7,0.4l0,0c0.9,0.2,2.1,0.4,3.6,0.6c1.7,0,4.2-1,4.2-3.7c0-2.7-4.2-4.3-4.4-2.9
			c0.8,0.2,1.9,0.5,2.4,1c0.9,0.7,3.5,6.3-6,4.4c-0.4-0.7-0.8-1.2-0.8-2.6c-1.5,0-1.3,0.1-1.8-0.8c2.4-2.1,10-8.9,12.6-3.4
			c-0.9,0.8-3.3-1.7-4.7,0.3c3.1,0.3,3.7,3,3.7,5.5c2.9,0.1,3.7,3.7,2.8,5.7c-0.7,1.7-1.1,0.1-1.8,2.4c-1.2,4.4-5.2,2.5-6.5,3.9
			c-3.1,1.1-5.1,5.1-5.1,5.3c-1.3,2.7-1.3,3.3-3.3,3.3l0.1,22.8c0.4-1.9,2.1-3.2,3.9-3.7c-0.1,0.7-0.1,0.7-0.3,1.3
			c0.6-0.3,1.5-0.9,2.1-1c-0.5,0.8-0.5,0.3-0.8,1.3c2.1-0.5,6.5-2.2,8.3-3.4c3.2-2.1,2.7-3.2,4.2-3.5c0.9-0.2-0.5,1,2.1-1.5
			c1.7-1.7,2.7-2.9,2.7-5.4c1.9-0.2,4.3-0.2,4.7-1.8c0.8,0.2,1.5,0.6,2.2,1c0.8,0.5,1.1,0.9,1.8,1.4
			C250.7,431.7,247,431,242.6,429.6z"/>
	</g>
</g>
<g id="Layer_5">
</g>
<g id="Layer_3" display="none">
</g>
<g id="Layer_4" display="none">
</g>
<g id="Layer_2" display="none">
</g>
</svg>
