<?xml version="1.0" encoding="UTF-8" standalone="no"?>
<!-- Generator: Adobe Illustrator 17.0.0, SVG Export Plug-In . SVG Version: 6.00 Build 0)  -->

<svg
   xmlns:dc="http://purl.org/dc/elements/1.1/"
   xmlns:cc="http://creativecommons.org/ns#"
   xmlns:rdf="http://www.w3.org/1999/02/22-rdf-syntax-ns#"
   xmlns:svg="http://www.w3.org/2000/svg"
   xmlns="http://www.w3.org/2000/svg"
   xmlns:sodipodi="http://sodipodi.sourceforge.net/DTD/sodipodi-0.dtd"
   xmlns:inkscape="http://www.inkscape.org/namespaces/inkscape"
   version="1.1"
   x="0px"
   y="0px"
   width="322.70001"
   height="207.5"
   viewBox="0 0 322.7 207.5"
   enable-background="new 0 0 515.9 728.5"
   xml:space="preserve"
   id="svg2"
   inkscape:version="0.91 r"
   sodipodi:docname="basket ball court2.svg"><metadata
     id="metadata183"><rdf:RDF><cc:Work
         rdf:about=""><dc:format>image/svg+xml</dc:format><dc:type
           rdf:resource="http://purl.org/dc/dcmitype/StillImage" /><dc:title></dc:title></cc:Work></rdf:RDF></metadata><defs
     id="defs181" /><sodipodi:namedview
     pagecolor="#ffffff"
     bordercolor="#666666"
     borderopacity="1"
     objecttolerance="10"
     gridtolerance="10"
     guidetolerance="10"
     inkscape:pageopacity="0"
     inkscape:pageshadow="2"
     inkscape:window-width="1313"
     inkscape:window-height="744"
     id="namedview179"
     showgrid="false"
     fit-margin-top="0"
     fit-margin-left="0"
     fit-margin-right="0"
     fit-margin-bottom="0"
     inkscape:zoom="0.32395333"
     inkscape:cx="98.129882"
     inkscape:cy="143.75"
     inkscape:window-x="53"
     inkscape:window-y="24"
     inkscape:window-maximized="1"
     inkscape:current-layer="svg2" /><g
     id="Layer_1"
     transform="translate(-105.8,-300.5)"><circle
       stroke-miterlimit="10"
       cx="389.5"
       cy="408.10001"
       r="6.0999999"
       id="circle5"
       style="fill:none;stroke:#ffffff;stroke-miterlimit:10" /><rect
       x="129"
       y="397.39999"
       width="1.5"
       height="22.700001"
       id="rect7"
       style="fill:#ffffff" /><rect
       x="130.3"
       y="408.60001"
       width="10"
       height="1.6"
       id="rect9"
       style="fill:#ffffff" /><circle
       stroke-miterlimit="10"
       cx="146.39999"
       cy="409.5"
       r="6.0999999"
       id="circle11"
       style="fill:none;stroke:#ffffff;stroke-miterlimit:10" /><rect
       x="391.79999"
       y="359"
       display="none"
       width="1.5"
       height="22"
       id="rect13"
       style="display:none;fill:#ffffff" /><rect
       x="395.70001"
       y="407.29999"
       width="10"
       height="1.6"
       id="rect15"
       style="fill:#ffffff" /><rect
       x="105.8"
       y="300.5"
       width="322.70001"
       height="207.5"
       id="rect17"
       style="fill:#8b98a3" /><rect
       x="383.39999"
       y="396.20001"
       width="26.1"
       height="29.299999"
       id="rect19"
       style="fill:#0675b2" /><line
       stroke-miterlimit="10"
       x1="266.79999"
       y1="315.5"
       x2="267"
       y2="491.39999"
       id="line21"
       style="fill:none;stroke:#ffffff;stroke-width:2;stroke-miterlimit:10" /><path
       stroke-miterlimit="10"
       d="M 139.8,365.6"
       id="path23"
       inkscape:connector-curvature="0"
       style="fill:none;stroke:#ffffff;stroke-width:2;stroke-miterlimit:10" /><path
       stroke-miterlimit="10"
       d="M 121.6,365.6"
       id="path25"
       inkscape:connector-curvature="0"
       style="fill:none;stroke:#ffffff;stroke-width:2;stroke-miterlimit:10" /><g
       id="g27"><path
         stroke-miterlimit="10"
         d="m 122,315.5 0,33.8 c 1.5,-0.1 3.1,-0.2 4.7,-0.2 33.4,0 60.5,27.1 60.5,60.5 0,33.4 -27.1,60.4 -60.5,60.4 -1.6,0 -3.1,-0.1 -4.7,-0.2 l 0,22.6 289.6,0 0,-176.9 -289.6,0 z"
         id="path29"
         inkscape:connector-curvature="0"
         style="fill:none;stroke:#ffffff;stroke-width:2;stroke-miterlimit:10" /><path
         stroke-miterlimit="10"
         d="m 187.2,409.6 c 0,-33.4 -27.1,-60.5 -60.5,-60.5 -1.6,0 -3.1,0.1 -4.7,0.2 l 0,120.5 c 1.5,0.1 3.1,0.2 4.7,0.2 33.4,0 60.5,-27 60.5,-60.4 z"
         id="path31"
         inkscape:connector-curvature="0"
         style="fill:none;stroke:#ffffff;stroke-width:2;stroke-miterlimit:10" /></g><g
       id="g33"><g
         id="g35"><path
           stroke-miterlimit="10"
           d="m 349.1,408.5 c 0,33.4 27.1,60.5 60.5,60.5"
           id="path37"
           inkscape:connector-curvature="0"
           style="fill:none;stroke:#ffffff;stroke-width:2;stroke-miterlimit:10" /></g></g><g
       id="g39"><g
         id="g41"><path
           stroke-miterlimit="10"
           d="m 409.5,349.1 c -33.4,0 -60.5,27.1 -60.5,60.5"
           id="path43"
           inkscape:connector-curvature="0"
           style="fill:none;stroke:#ffffff;stroke-width:2;stroke-miterlimit:10" /></g></g><circle
       stroke-miterlimit="10"
       cx="267.29999"
       cy="411.79999"
       r="14.4"
       id="circle45"
       style="fill:none;stroke:#ffffff;stroke-width:2;stroke-miterlimit:10" /><g
       id="g47"><path
         stroke-miterlimit="10"
         d="m 150.6,394.4 -27.5,0 0,31.7 25.7,0"
         id="path49"
         inkscape:connector-curvature="0"
         style="fill:none;stroke:#ffffff;stroke-width:2;stroke-miterlimit:10" /><path
         stroke-miterlimit="10"
         d="M 137.3,410.5"
         id="path51"
         inkscape:connector-curvature="0"
         style="fill:none;stroke:#ffffff;stroke-width:2;stroke-miterlimit:10" /><path
         stroke-miterlimit="10"
         d="m 153.7,394.1 c -1,0 -2,0.1 -3,0.3 l 1.6,0 0,31.7 -3.4,0 c 1.5,0.5 3.2,0.7 4.8,0.7 9,0 16.4,-7.3 16.4,-16.4 -0.1,-8.9 -7.4,-16.3 -16.4,-16.3 z"
         id="path53"
         inkscape:connector-curvature="0"
         style="fill:none;stroke:#ffffff;stroke-miterlimit:10" /><path
         stroke-miterlimit="10"
         d="M 137.3,410.5"
         id="path55"
         inkscape:connector-curvature="0"
         style="fill:none;stroke:#ffffff;stroke-width:2;stroke-miterlimit:10" /><path
         stroke-miterlimit="10"
         d="m 148.8,426.2 3.4,0 0,-31.7 -1.6,0"
         id="path57"
         inkscape:connector-curvature="0"
         style="fill:none;stroke:#ffffff;stroke-width:2;stroke-miterlimit:10" /></g><g
       id="g59"><path
         stroke-miterlimit="10"
         d="m 383.5,426.6 27.5,0 0,-31.7 -25.7,0"
         id="path61"
         inkscape:connector-curvature="0"
         style="fill:none;stroke:#ffffff;stroke-width:2;stroke-miterlimit:10" /><path
         stroke-miterlimit="10"
         d="M 396.9,410.5"
         id="path63"
         inkscape:connector-curvature="0"
         style="fill:none;stroke:#ffffff;stroke-width:2;stroke-miterlimit:10" /><path
         stroke-miterlimit="10"
         d="m 380.5,426.9 c 1,0 2,-0.1 3,-0.3 l -1.5,0 0,-31.7 3.4,0 c -1.5,-0.5 -3.2,-0.7 -4.8,-0.7 -9,0 -16.4,8.4 -16.4,17.4 -0.1,9 7.3,15.3 16.3,15.3 z"
         id="path65"
         inkscape:connector-curvature="0"
         style="fill:none;stroke:#ffffff;stroke-miterlimit:10" /><path
         stroke-miterlimit="10"
         d="M 396.9,410.5"
         id="path67"
         inkscape:connector-curvature="0"
         style="fill:none;stroke:#ffffff;stroke-width:2;stroke-miterlimit:10" /><path
         stroke-miterlimit="10"
         d="m 385.4,394.9 -3.4,0 0,31.7 1.6,0"
         id="path69"
         inkscape:connector-curvature="0"
         style="fill:none;stroke:#ffffff;stroke-width:2;stroke-miterlimit:10" /></g><rect
       x="143.3"
       y="389.29999"
       width="1"
       height="5.6999998"
       id="rect71"
       style="fill:#ffffff" /><rect
       x="138.10001"
       y="389.29999"
       width="1"
       height="5.6999998"
       id="rect73"
       style="fill:#ffffff" /><rect
       x="132.89999"
       y="389.29999"
       width="1"
       height="5.6999998"
       id="rect75"
       style="fill:#ffffff" /><rect
       x="124.3"
       y="395"
       width="27.1"
       height="30"
       id="rect77"
       style="fill:#0675b2" /><rect
       x="142.2"
       y="426.79999"
       width="1"
       height="4.6999998"
       id="rect79"
       style="fill:#ffffff" /><rect
       x="137.10001"
       y="426.79999"
       width="1"
       height="4.6999998"
       id="rect81"
       style="fill:#ffffff" /><rect
       x="131.89999"
       y="426.79999"
       width="1"
       height="4.6999998"
       id="rect83"
       style="fill:#ffffff" /><rect
       x="400.79999"
       y="389.79999"
       width="1"
       height="5.1999998"
       id="rect85"
       style="fill:#ffffff" /><rect
       x="395.70001"
       y="389.79999"
       width="1"
       height="5.1999998"
       id="rect87"
       style="fill:#ffffff" /><rect
       x="389.39999"
       y="389.79999"
       width="1"
       height="5.1999998"
       id="rect89"
       style="fill:#ffffff" /><rect
       x="400.79999"
       y="426.79999"
       width="1"
       height="5.1999998"
       id="rect91"
       style="fill:#ffffff" /><rect
       x="395.70001"
       y="426.79999"
       width="1"
       height="5.1999998"
       id="rect93"
       style="fill:#ffffff" /><rect
       x="389.5"
       y="426.79999"
       width="1.1"
       height="5.1999998"
       id="rect95"
       style="fill:#ffffff" /><rect
       x="127.9"
       y="402.29999"
       width="0.80000001"
       height="17.6"
       id="rect97"
       style="fill:#ffffff" /><rect
       x="128.8"
       y="411.39999"
       width="4.0999999"
       height="0.80000001"
       id="rect99"
       style="fill:#ffffff" /><circle
       stroke-miterlimit="10"
       cx="136.7"
       cy="411.60001"
       r="4.0999999"
       id="circle101"
       style="fill:none;stroke:#ffffff;stroke-width:0.5;stroke-miterlimit:10" /><rect
       x="405.89999"
       y="402.29999"
       width="0.80000001"
       height="17.6"
       id="rect103"
       style="fill:#ffffff" /><rect
       x="401.70001"
       y="411.10001"
       width="4.0999999"
       height="0.80000001"
       id="rect105"
       style="fill:#ffffff" /><circle
       stroke-miterlimit="10"
       cx="397.79999"
       cy="411.70001"
       r="4.0999999"
       id="circle107"
       style="fill:none;stroke:#ffffff;stroke-width:0.5;stroke-miterlimit:10" /><circle
       cx="267.29999"
       cy="411.89999"
       r="13.5"
       id="circle109"
       style="fill:#0675b2" /><path
       d="m 219.8,427.8 0,0 0,0 0,0 c 0,0 0.1,0 0,0 l 0,0 0,0 0,0 0,0 0,0 0,0 0,0 m 0.1,0 0,0 0,0 0,0 0,0 0,0 0,0 0,0 0,0 0,0 0,0 0,0 0,0 0,0 0,0 0,0 0,0 0,0 0,0 m 0.1,0 0,0 0,0 0,0 0,0 0,0 0,0 0,0 0,0 0,0 0,0 0,0 0,0 0,0 m 0.1,0 0,0 0,0 0,0 0,0 0,0 m 0.1,0 0,0 0,0 0,0 0,0 0,0 0,0 0,0 0,0 m 0,0 0,0 0,0 0,0 0,0 0,0 0,0 0,0 0,0 0,0 0,0 0,0 0,0 0,0 0,0 0,0 m 0.1,-0.1 0,0 0,0 0,0 0,0 0,0 m 0.2,-0.1 0,0 0,0 0,0 0,0 0,0 m 0.1,0 0,0 0,0 0,0 0,0 0,0 0,0 m 0.1,-0.1 0,0 0,0 0,0 m 0.1,-0.1 0,0 0,0 0,0 0,0 0,0 0,0 m 0.1,-0.1 0,0 0,0 0,0 m 0.1,-0.1 0,0 0,0 0,0 0,0 m 0.1,-0.2 0,0 0,0 0,0 0,0 m 0.1,-0.1 0,0 0,0 m 0.1,-0.2 0,0 0,0 0,0 0,0 0,0 m 0.1,-0.2 0,0 0,0 m 0.1,-0.1 c 2.2,-3.9 2.8,-7.2 9.5,-8.3 2.3,-0.4 3.1,-1.6 3.1,-4.2 3.5,-0.1 1.6,-6.6 -1,-5.5 -0.3,0.1 -3.1,2.3 -4.7,2.3 -0.9,0 -4.8,-1.2 -5.3,-1.5 l 0,0 0,0 0,0 c 0,0 0,0 0,0 l 0,0 0,0 c 0,0 0,0 0,0 l 0,0 0,0 c 0,0 0,0 0,0 l 0,0 0,0 0,0 0,0 c 0,0 0,0 0,-0.1 l 0,0 0,0 0,0 0,0 0,0 0,0 0,0 c 0,0 0,0 0,0 l 0,0 0,0 0,0 0,0 0,0 0,0 0,0 0,0 0,0 c 0,0 0,0 0,-0.1 l 0,0 0,0 0,0 0,0 0,0 0,0 0,0 0,0 0,0 0,0 0,0 c 0,0 0,0 0,0 l 0,0 0,0 0,0 0,0 0,0 0,0 0,0 0,0 0,0 0,0 0,0 0,0 0,0 0,0 0,0 0,0 0,0 0,0 0,0 0,0 0,0 0,0 0,0 0,0 0,0 0,0 0,0 0,0 0,0 c 0,0 0,0 0,-0.1 l 0,0 0,-0.1 0,0 0,0 m -3.2,19 0,0 0,0 0,0 m 0,0 0,0 m 2.8,-19.3 0,0 0,0 0,0 0,0 0,0 0,0 0,0 0,0 0,0 0,0 0,0 0,0 0,0 0,0 0,0 0,0 0,0 0,0 0,0 0,0 0,0 0,0 0,0 0,0 0,0 0,0 0,0 0,0 0,0 0,0 0,0 0,0 0,-0.1 0,0 0,0 0,0 0,0 0,0 0,0 0,0 0,0 0,0 0,0 0,0 0,0 0,0 0,0 0,0 0,0 0,0 0,0 0,0 0,-0.1 0,0 0,-0.1 0,0 0,0 0,-0.1 0,0 0,-0.1 0,0 0,0 0,0 0,0 0,-0.1 -0.1,-0.1 0,0 c -0.3,-0.8 -0.8,-1.7 -1.9,-2 l 0,0 c -0.1,0 -0.1,0 -0.2,-0.1 l 0,0 c -0.1,0 -0.2,0 -0.3,-0.1 l 0,0 c -0.1,0 -0.1,0 -0.2,0 l 0,22.2 0,0 m 3,-18.8 0,0 0,0 0,0 0,0 0,0 c 0,0 0,0 0,0 l 0,0 0,0 0,0 0,0 0,0 m -0.2,-0.4 0,0 0,0 -0.1,-0.1 0,0"
       id="path111"
       inkscape:connector-curvature="0"
       style="fill:none" /><path
       d="m 219.8,427.8 c 0.5,0 1.1,-0.4 1.7,-1.5 2.2,-3.9 2.8,-7.2 9.5,-8.3 2.3,-0.4 3.1,-1.6 3.1,-4.2 3.5,-0.1 1.6,-6.6 -1,-5.5 -0.3,0.1 -3.1,2.3 -4.7,2.3 -0.9,0 -4.8,-1.2 -5.3,-1.5 -0.7,-0.6 -0.7,-3.5 -3.3,-3.6 l 0,22.3 z"
       id="path113"
       inkscape:connector-curvature="0"
       style="fill:#814732" /><path
       d="m 243.6,435.6 -0.8,0 c -0.1,2.1 -1.7,4.1 -2.8,5.3 l -1.6,1.6 c -1.3,1 -0.7,-0.4 -1.8,0.7 -0.5,0.6 -0.3,0.6 -0.9,1.2 -0.4,0.3 -0.6,0.4 -1,0.8 -2.2,1.8 -8.5,4.5 -10.1,4.5 -0.5,0 0.1,-0.5 -1.6,-0.5 -0.1,-1.1 -0.6,-0.8 -1.8,0.6 -0.3,0.3 -1.4,2.2 -1.4,2.5 l 0,39.2 c 3.8,0 4.6,-0.3 7.9,-0.5 l 8.1,-1.6 c 0.7,-0.1 0.4,0 1.1,-0.2 1.1,-0.3 -0.2,-0.3 1,-0.3 0.8,0 2.2,2.1 1.2,-0.7 -2.2,-6.8 -2.4,-12.4 0.1,-19.2 0.8,-2.3 2.2,-4.4 3.7,-6.2 1.6,-1.9 3,-2.9 4.3,-5.4 2.9,-5.7 2.2,-13.5 -0.1,-19.3 -0.4,-1.1 -0.8,-1.6 -1.1,-2.8 -1.2,0.1 -1.1,0.3 -2.4,0.3 z"
       id="path115"
       inkscape:connector-curvature="0"
       style="fill:#737d84" /><path
       d="m 190.5,447.7 c 0,8.9 1.9,10.2 6.2,15.2 5.9,7 6.5,15.3 4.3,23.8 -0.3,1.1 -0.6,1.8 -0.8,2.8 1.7,-0.9 1.4,-0.5 3,-0.1 0.9,0.2 1.1,0.2 1.9,0.4 l 5.8,1 c 3.5,0.3 3.9,0.8 8.1,0.8 l 0,-39.8 c 0,-0.8 -1.9,-2.8 -2.4,-3.4 -0.8,0.3 -0.4,-0.6 -0.5,0.8 -2.2,0.1 -0.1,1.8 -7.6,-1.6 -2.7,-1.2 -4.2,-2.1 -6,-4.2 -1.3,-1.6 -0.6,0.5 -2.4,-1.3 -1.6,-1.6 -3.9,-3.8 -4,-6.5 l -2.6,-0.3 c -0.3,1.2 -1.3,3.1 -2,5.6 -0.3,2 -1,4.5 -1,6.8 z"
       id="path117"
       inkscape:connector-curvature="0"
       style="fill:#676e72" /><path
       d="m 180.6,443.7 c 0,2 0.9,4.4 1.6,5.8 -3.6,2.4 -6.3,7.5 -6.3,12 0,1.4 0.3,2.3 0.5,3.4 -0.5,0.8 -1.1,0.9 -1.3,1.9 -0.5,2.3 0.8,1.2 -0.9,4 -0.2,0.4 -0.4,0.8 -0.6,1.2 -2.4,6.2 2.9,6.4 3.8,7 0.9,0.6 2,2.7 4.8,3.8 2.7,1 5.1,0.9 8.1,0.9 1.9,0 1.2,-0.6 3,0.1 1.4,0.6 1.4,0.3 2.2,1.5 0.9,1.4 2.5,2.9 4.3,3.3 0.2,-2.6 1.6,-3 1.6,-12 -4.5,-0.4 -5.7,-1.7 -9.6,-5 -0.5,-0.5 -0.9,-0.5 -1.1,-1.3 1,-0.3 2.8,-1.8 3.4,-2.6 4.9,-6.1 0.9,-3.4 -2.3,-10.3 -2.6,-5.7 -2.2,-10.4 -0.8,-16.3 0.5,-2 1.9,-5.5 2,-6.4 -0.8,-0.2 -0.4,-0.1 -1,-0.5 -1.1,0.2 -1.5,0.7 -2.3,1.4 -0.4,0.4 -0.5,0.6 -1.1,0.6 -1.3,-0.2 -0.6,-1.9 -0.6,-2.5 -3.2,0.3 -7.4,6 -7.4,10 z"
       id="path119"
       inkscape:connector-curvature="0"
       style="fill:#676e72" /><path
       d="m 249.9,448.2 c 0,10.7 -4.6,12.4 -7.8,17.3 0.6,0.8 1.3,2 2,2.7 0.6,0.6 2.2,1.8 2.9,2 -0.2,0.8 -0.3,0.6 -0.8,1 -1.9,1.6 -5.6,4.9 -7.8,5 0,3.2 0.1,8.7 1.3,11.2 2.5,-0.7 1,-2.4 5,-3.9 1.2,-0.4 6.3,0.8 10.5,-0.8 2.9,-1.1 3.6,-2.8 4.9,-3.8 1.6,-1.2 7.4,-0.7 2.8,-9.2 -0.7,-1.2 -0.2,-1.6 -0.4,-3 -0.2,-1.2 -0.7,-1.2 -1.3,-2.1 1.2,-5.2 -0.1,-9.2 -3.3,-13.2 -1.1,-1.4 -1,-1.3 -2.4,-2.3 4.1,-7.8 -1.6,-14.2 -4.2,-14.9 0.3,0.6 0.4,1.8 -0.6,1.9 -0.6,0.1 -1.3,-0.8 -1.9,-1.3 -3.5,-2.6 -1.2,2.2 -1.2,2.2 0.9,2.8 2.3,7.8 2.3,11.2 z"
       id="path121"
       inkscape:connector-curvature="0"
       style="fill:#737d84" /><path
       d="m 219.3,380.2 c 0.3,0.3 0.9,-0.4 0.3,-0.1 0,-0.1 -0.7,-0.4 -0.3,0.1 z"
       id="path123"
       inkscape:connector-curvature="0"
       style="fill:#814732" /><path
       d="m 265.1,473.5 c 0,0.1 0,-0.1 0,0 l 0,0 c 0,0 0,0 0,0 z"
       id="path125"
       inkscape:connector-curvature="0"
       style="fill:#814732" /><path
       d="m 207,391.7 0,0 c 0.1,-0.1 0,0 0,0 z"
       id="path127"
       inkscape:connector-curvature="0"
       style="fill:#814732" /><path
       d="m 210.9,387 0,0 c 0.1,-0.1 0,-0.1 0,0 z"
       id="path129"
       inkscape:connector-curvature="0"
       style="fill:#814732" /><path
       d="m 228.2,387.5 0,0 c 0.1,-0.1 0,0 0,0 z"
       id="path131"
       inkscape:connector-curvature="0"
       style="fill:#814732" /><path
       d="m 231.9,391.7 0,0 c 0,-0.1 -0.1,0 0,0 z"
       id="path133"
       inkscape:connector-curvature="0"
       style="fill:#814732" /><path
       d="m 227.9,387 0,0 c 0.1,-0.1 0,-0.1 0,0 z"
       id="path135"
       inkscape:connector-curvature="0"
       style="fill:#814732" /><path
       d="m 210.7,387.5 0,0 c 0,-0.1 -0.1,0 0,0 z"
       id="path137"
       inkscape:connector-curvature="0"
       style="fill:#814732" /><path
       d="m 265.1,475.6 0,0 c 0,0 0,0 0,0 z"
       id="path139"
       inkscape:connector-curvature="0"
       style="fill:#814732" /><path
       d="m 205.2,413.9 c 0,7.1 7.1,1.4 11.3,9.9 0.6,1.1 2.7,6.7 5,2.6 2.2,-3.9 2.8,-7.2 9.5,-8.3 2.3,-0.4 3.1,-1.6 3.1,-4.2 3.5,-0.1 1.6,-6.6 -1,-5.5 -0.3,0.1 -3.1,2.3 -4.7,2.3 -0.9,0 -4.8,-1.2 -5.3,-1.5 -0.7,-0.6 -0.7,-3.5 -3.4,-3.6 -2.6,-0.1 -3.1,3 -3.3,3.4 -0.5,0.7 -4.6,1.8 -5.3,1.8 -1,0 -2.9,-0.8 -3.8,-1.5 -0.4,-0.3 -0.7,-0.6 -1.1,-0.8 -2.6,-1.5 -4.6,5.3 -1,5.4 z"
       id="path141"
       inkscape:connector-curvature="0"
       style="fill:#383838" /><path
       d="m 219.9,427.8 0,0 0,0 0,0 0,0 0,0 0,0 0,0 0,0 m 0,0 0,0 0,0 0,0 0,0 0,0 0,0 0,0 0,0 0,0 0,0 0,0 0,0 0,0 0,0 0,0 0,0 0,0 0,0 m 0.1,0 0,0 0,0 0,0 0,0 0,0 0,0 0,0 0,0 0,0 0,0 0,0 0,0 0,0 m 0.1,0 0,0 0,0 0,0 0,0 0,0 m 0.1,0 0,0 0,0 0,0 0,0 0,0 0,0 0,0 0,0 m 0,0 0,0 0,0 0,0 0,0 0,0 0,0 0,0 0,0 0,0 0,0 0,0 0,0 0,0 0,0 0,0 m 0.1,-0.1 0,0 0,0 0,0 0,0 0,0 m 0.2,-0.1 0,0 0,0 0,0 0,0 0,0 m 0.1,0 0,0 0,0 0,0 0,0 0,0 0,0 m 0.1,-0.1 0,0 0,0 0,0 m 0.1,-0.1 0,0 0,0 0,0 0,0 0,0 0,0 m 0.1,-0.1 0,0 0,0 0,0 m 0.1,-0.1 0,0 0,0 0,0 0,0 m 0.1,-0.2 0,0 0,0 0,0 0,0 m 0.1,-0.1 0,0 0,0 m 0.1,-0.2 0,0 0,0 0,0 0,0 0,0 m 0.1,-0.2 0,0 0,0 m 0.1,-0.1 c 2.2,-3.9 2.8,-7.2 9.5,-8.3 2.3,-0.4 3.1,-1.6 3.1,-4.2 3.5,-0.1 1.6,-6.6 -1,-5.5 -0.3,0.1 -3.1,2.3 -4.7,2.3 -0.9,0 -4.8,-1.2 -5.3,-1.5 l 0,0 0,0 0,0 c 0,0 0,0 0,0 l 0,0 0,0 c 0,0 0,0 0,0 l 0,0 0,0 c 0,0 0,0 0,0 l 0,0 0,0 0,0 0,0 c 0,0 0,0 0,-0.1 l 0,0 0,0 0,0 0,0 0,0 0,0 0,0 c 0,0 0,0 0,0 l 0,0 0,0 0,0 0,0 0,0 0,0 0,0 0,0 0,0 c 0,0 0,0 0,-0.1 l 0,0 0,0 0,0 0,0 0,0 0,0 0,0 0,0 0,0 0,0 0,0 c 0,0 0,0 0,0 l 0,0 0,0 0,0 0,0 0,0 0,0 0,0 0,0 0,0 0,0 0,0 0,0 0,0 0,0 0,0 0,0 0,0 0,0 0,0 0,0 0,0 0,0 0,0 0,0 0,0 0,0 0,0 0,0 0,0 c 0,0 0,0 0,-0.1 l 0,0 0,-0.1 0,0 0,0 m -3.2,19 0,0 0,0 0,0 m 0,0 0,0 m 2.8,-19.3 0,0 0,0 0,0 0,0 0,0 0,0 0,0 0,0 0,0 0,0 0,0 0,0 0,0 0,0 0,0 0,0 0,0 0,0 0,0 0,0 0,0 0,0 0,0 0,0 0,0 0,0 0,0 0,0 0,0 0,0 0,0 0,0 0,-0.1 0,0 0,0 0,0 0,0 0,0 0,0 0,0 0,0 0,0 0,0 0,0 0,0 0,0 0,0 0,0 0,0 0,0 0,0 0,0 0,-0.1 0,0 0,-0.1 0,0 0,0 0,-0.1 0,0 0,-0.1 0,0 0,0 0,0 0,0 0,-0.1 -0.1,-0.1 0,0 c -0.3,-0.8 -0.8,-1.7 -1.9,-2 l 0,0 c -0.1,0 -0.1,0 -0.2,-0.1 l 0,0 c -0.1,0 -0.2,0 -0.3,-0.1 l 0,0 c 0,0 -0.1,0 -0.1,0 m 2.9,3.4 0,0 0,0 0,0 0,0 0,0 c 0,0 0,0 0,0 l 0,0 0,0 0,0 0,0 0,0 m -0.2,-0.4 0,0 0,0 -0.1,-0.1 0,0"
       id="path143"
       inkscape:connector-curvature="0"
       style="fill:none" /><path
       d="m 219.9,380 c 0,0 0,0 0,0 l 0,0 z"
       id="path145"
       inkscape:connector-curvature="0"
       style="fill:#2b2a29;fill-opacity:0.10980003" /><path
       d="m 265.1,473.5 c 0,0.1 0,-0.1 0,0 l 0,0 c 0,0 0,0 0,0 z"
       id="path147"
       inkscape:connector-curvature="0"
       style="fill:#2b2a29;fill-opacity:0.10980003" /><path
       d="m 228.2,387.5 0,0 c 0.1,-0.1 0,0 0,0 z"
       id="path149"
       inkscape:connector-curvature="0"
       style="fill:#2b2a29;fill-opacity:0.10980003" /><path
       d="m 231.9,391.7 0,0 c 0,-0.1 -0.1,0 0,0 z"
       id="path151"
       inkscape:connector-curvature="0"
       style="fill:#2b2a29;fill-opacity:0.10980003" /><path
       d="m 227.9,387 0,0 c 0.1,-0.1 0,-0.1 0,0 z"
       id="path153"
       inkscape:connector-curvature="0"
       style="fill:#2b2a29;fill-opacity:0.10980003" /><path
       d="m 265.1,475.6 0,0 c 0,0 0,0 0,0 z"
       id="path155"
       inkscape:connector-curvature="0"
       style="fill:#2b2a29;fill-opacity:0.10980003" /><g
       id="g157"><path
         d="m 216.6,406.7 c -1.1,1.9 -0.1,2 -2.5,2.6 -1.1,0.6 -4.2,0.9 -6.1,-0.5 -1.3,-0.9 -1.5,-1.2 -1.5,-2.7 0,-2.1 3.5,-4.6 4.4,-2.9 -4.6,1.1 -5.3,6 0.5,6 0.3,0.1 1.9,-0.2 2.6,-0.2 0.7,-1.3 1.3,-1 1.3,-3 1.4,0 1.3,0.1 1.8,-0.8 -2.3,-0.9 -7.5,-8.7 -12.6,-3.4 1.7,2.3 3.3,-1.7 4.7,0.3 -3,0.3 -3.7,3 -3.7,5.5 -2.2,0.1 -3.1,2 -3.1,4.2 0,2.5 1.4,2 1.9,3.3 0.2,0.5 0.1,0.4 0.2,0.8 1.2,4.1 5.5,2.3 6.6,3.9 2.1,1.2 2.9,1.8 4.3,4.1 l 0.8,1.3 c 0.8,1.6 1.2,3.1 2.9,3.1 0.2,0 0.3,0 0.4,0 l 0,-0.4 c -1.6,-0.1 -2.8,-3.3 -3.2,-4.1 -4.3,-8.5 -11.3,-2.7 -11.3,-9.9 -3.6,-0.1 -1.5,-6.9 1.2,-5.4 0.4,0.2 0.6,0.5 1.1,0.8 0.9,0.6 2.8,1.5 3.8,1.5 0.7,0 4.8,-1.1 5.3,-1.8 0.2,-0.3 0.7,-3.4 3.2,-3.4 l 0,-0.7 c 0,0 0,0 -0.1,0 -1.3,0 -2.4,0.9 -2.9,1.8 z m -4.4,2 c -1.5,0 -4.2,-0.4 -4.2,-1.8 0,-2.3 1.9,-2.9 3.9,-2.9 -0.3,1 -0.8,0.8 -0.8,2.1 0.1,1.9 0.4,1.5 1.1,2.6 z"
         id="path159"
         inkscape:connector-curvature="0"
         style="fill:none" /><path
         d="m 219.8,405.6 c 2.7,0.1 2.7,3 3.4,3.6 0.4,0.4 4.4,1.5 5.3,1.5 1.7,0 4.5,-2.2 4.7,-2.3 2.6,-1.2 4.6,5.4 1,5.5 0,2.6 -0.8,3.8 -3.1,4.2 -6.7,1 -7.3,4.4 -9.5,8.3 -0.6,1.1 -1.2,1.5 -1.8,1.5 l 0,0.4 c 2,-0.1 2,-0.7 3.3,-3.3 0.1,-0.2 2,-4.2 5.1,-5.3 1.3,-1.4 5.3,0.5 6.5,-3.9 0.7,-2.4 1,-0.8 1.8,-2.4 0.9,-2 0.1,-5.6 -2.8,-5.7 0,-2.5 -0.6,-5.2 -3.7,-5.5 1.4,-1.9 3.8,0.6 4.7,-0.3 -2.6,-5.5 -10.1,1.3 -12.6,3.4 0.6,0.9 0.4,0.8 1.8,0.8 0,1.4 0.4,1.8 0.8,2.6 9.5,1.9 6.9,-3.7 6,-4.4 -0.5,-0.4 -1.7,-0.8 -2.4,-1 0.3,-1.5 4.4,0.2 4.4,2.9 0,2.6 -2.5,3.7 -4.2,3.7 -1.5,-0.2 -2.7,-0.4 -3.6,-0.6 l 0,0 c -1,-0.2 -1.4,-0.3 -1.7,-0.4 -0.1,0 -0.1,-0.1 -0.1,-0.1 -0.2,-0.3 -0.1,-0.8 -0.7,-2.1 -0.6,-1 -1.7,-1.7 -3.1,-1.7 l 0,0.7 c 0.4,-0.1 0.4,-0.1 0.5,-0.1 z m 10.4,-1 c 1.3,0.9 2.6,4.1 -3.1,4.1 0.4,-0.6 1.3,-1.2 1.3,-2.1 0,-1.5 -0.8,-1.5 -1,-2.6 1.3,0 2,0 2.8,0.6 z"
         id="path161"
         inkscape:connector-curvature="0"
         style="fill:none" /><path
         d="m 228.5,406.6 c 0,0.9 -0.9,1.5 -1.3,2.1 5.7,0 4.3,-3.2 3.1,-4.1 -0.8,-0.6 -1.5,-0.6 -2.8,-0.6 0.2,1 1,1.1 1,2.6 z"
         id="path163"
         inkscape:connector-curvature="0"
         style="fill:#737d84" /><path
         d="m 221.5,426.4 c 2.2,-3.9 2.8,-7.2 9.5,-8.3 2.3,-0.4 3.1,-1.6 3.1,-4.2 3.5,-0.1 1.6,-6.6 -1,-5.5 -0.3,0.1 -3.1,2.3 -4.7,2.3 -0.9,0 -4.8,-1.2 -5.3,-1.5 -0.7,-0.6 -0.7,-3.5 -3.4,-3.6 0,0 -0.1,0 -0.1,0 l 0.1,22.2 c 0.6,0.1 1.2,-0.3 1.8,-1.4 z"
         id="path165"
         inkscape:connector-curvature="0"
         style="fill:#737d84" /><path
         d="m 216.5,409 c -0.5,0.7 -4.6,1.8 -5.3,1.8 -1,0 -2.9,-0.8 -3.8,-1.5 -0.4,-0.3 -0.7,-0.6 -1.1,-0.8 -2.7,-1.5 -4.7,5.3 -1.2,5.4 0,7.1 7.1,1.4 11.3,9.9 0.4,0.8 1.7,4 3.2,4.1 l -0.1,-22.2 c -2.3,-0.1 -2.8,2.9 -3,3.3 z"
         id="path167"
         inkscape:connector-curvature="0"
         style="fill:#676e72" /><path
         d="m 208,406.9 c 0,1.4 2.7,1.8 4.2,1.8 -0.7,-1.1 -1,-0.7 -1,-2.6 0,-1.2 0.5,-1 0.8,-2.1 -2,0 -4,0.6 -4,2.9 z"
         id="path169"
         inkscape:connector-curvature="0"
         style="fill:#676e72" /><path
         d="m 219.3,428.3 c -1.6,0 -2.1,-1.5 -2.9,-3.1 l -0.8,-1.3 c -1.4,-2.3 -2.2,-2.9 -4.3,-4.1 -1.1,-1.6 -5.4,0.3 -6.6,-3.9 -0.1,-0.5 0,-0.3 -0.2,-0.8 -0.5,-1.3 -1.9,-0.8 -1.9,-3.3 0,-2.2 1,-4.1 3.1,-4.2 0,-2.5 0.6,-5.2 3.7,-5.5 -1.4,-2 -3,2.1 -4.7,-0.3 5.1,-5.3 10.3,2.5 12.6,3.4 -0.6,0.9 -0.4,0.8 -1.8,0.8 0,2 -0.6,1.7 -1.3,3 -0.7,0 -2.2,0.2 -2.6,0.2 -5.8,0 -5.1,-5 -0.5,-6 -0.9,-1.7 -4.4,0.8 -4.4,2.9 0,1.5 0.2,1.9 1.5,2.7 1.9,1.4 5.1,1.2 6.1,0.5 2.4,-0.6 1.5,-0.7 2.5,-2.6 0.6,-1 1.6,-1.8 3,-1.8 0,0 0,0 0.1,0 l -0.1,-24 c -1.1,0.8 -1.2,2.6 -3.1,3.7 0,-2.8 -0.5,0.5 -0.5,-2.6 -0.8,0.6 -2.6,2.7 -3.2,3.6 -0.9,1.2 -1.6,3.6 -2.5,4.3 l 0,-3.1 c -0.8,0.5 -0.8,1 -1.2,2 -0.9,2.2 -1.2,2.6 -1.4,5.4 -0.1,1.2 -0.1,2.1 -0.8,2.6 -0.1,-1.6 -0.5,-2.9 -0.5,-4.7 -0.2,0.2 -0.1,0.1 -0.3,0.5 l -2.7,6.2 c -0.4,0.6 -1.2,1.5 -1.2,2.2 0,1.8 1.8,1 1.8,4.7 0,1.8 -4.3,5.8 -2.3,8.5 1.3,1.7 1.9,0 2.4,3.6 0.6,3.5 1.7,8.1 -2,10.4 -1.1,0.7 -3.9,1.1 -5.5,1.6 -1.7,0.5 -3.5,1.1 -5.2,1.9 -1.9,1 -2.9,1.3 -2.9,4.1 0.7,-0.5 1,-0.9 1.8,-1.4 0.7,-0.4 1.3,-0.8 2.2,-1 0.4,1.6 2.7,1.7 4.7,1.8 0,2.9 1.5,4.2 3.5,6.2 0.1,0.1 0.5,0.5 0.5,0.5 1,0.6 0.6,-0.4 1.7,0.6 1.6,1.5 1.2,2.3 5.6,4.3 1.6,0.8 4.2,1.8 5.9,2.2 -0.3,-1 -0.3,-0.5 -0.8,-1.3 0.6,0.2 1.5,0.7 2.1,1 -0.1,-0.6 -0.2,-0.6 -0.3,-1.3 3.2,0.8 3,2.7 4.4,3.7 l -0.1,-22.8 c -0.3,0 -0.4,0 -0.6,0 z"
         id="path171"
         inkscape:connector-curvature="0"
         style="fill:#676e72" /><path
         d="m 242.6,429.6 c -1.5,-0.5 -4.4,-0.9 -5.5,-1.6 -3.8,-2.3 -2.6,-7.4 -1.9,-11.1 0.3,-1.4 0.4,-1.4 1.3,-2.1 2.5,-1.6 1.6,-3.5 0.4,-5.8 -1.3,-2.5 -1.7,-2 -1.7,-4.6 0,-1.7 1.8,-2.3 1.8,-3.7 0,-0.6 -1.4,-2.2 -2.2,-4.3 -0.4,-0.9 -1.4,-3.9 -2,-4.6 0,1.8 -0.4,3.1 -0.5,4.7 -1,-0.7 -0.7,-3 -1.2,-5.3 -0.3,-1.2 -0.5,-1.5 -0.9,-2.5 -0.4,-1 -0.4,-1.6 -1.2,-2.2 l 0,3.1 c -1,-0.7 -1.7,-3.1 -2.5,-4.3 -0.7,-0.9 -2.4,-3 -3.2,-3.6 0,3.1 -0.5,-0.1 -0.5,2.6 -1.9,-1 -2,-2.9 -3.1,-3.7 l 0.1,24 c 1.3,0 2.4,0.7 3.1,1.7 0.7,1.2 0.5,1.7 0.7,2.1 0,0 0,0.1 0.1,0.1 0.2,0.2 0.6,0.3 1.7,0.4 l 0,0 c 0.9,0.2 2.1,0.4 3.6,0.6 1.7,0 4.2,-1 4.2,-3.7 0,-2.7 -4.2,-4.3 -4.4,-2.9 0.8,0.2 1.9,0.5 2.4,1 0.9,0.7 3.5,6.3 -6,4.4 -0.4,-0.7 -0.8,-1.2 -0.8,-2.6 -1.5,0 -1.3,0.1 -1.8,-0.8 2.4,-2.1 10,-8.9 12.6,-3.4 -0.9,0.8 -3.3,-1.7 -4.7,0.3 3.1,0.3 3.7,3 3.7,5.5 2.9,0.1 3.7,3.7 2.8,5.7 -0.7,1.7 -1.1,0.1 -1.8,2.4 -1.2,4.4 -5.2,2.5 -6.5,3.9 -3.1,1.1 -5.1,5.1 -5.1,5.3 -1.3,2.7 -1.3,3.3 -3.3,3.3 l 0.1,22.8 c 0.4,-1.9 2.1,-3.2 3.9,-3.7 -0.1,0.7 -0.1,0.7 -0.3,1.3 0.6,-0.3 1.5,-0.9 2.1,-1 -0.5,0.8 -0.5,0.3 -0.8,1.3 2.1,-0.5 6.5,-2.2 8.3,-3.4 3.2,-2.1 2.7,-3.2 4.2,-3.5 0.9,-0.2 -0.5,1 2.1,-1.5 1.7,-1.7 2.7,-2.9 2.7,-5.4 1.9,-0.2 4.3,-0.2 4.7,-1.8 0.8,0.2 1.5,0.6 2.2,1 0.8,0.5 1.1,0.9 1.8,1.4 -0.6,-3.7 -4.3,-4.4 -8.7,-5.8 z"
         id="path173"
         inkscape:connector-curvature="0"
         style="fill:#737d84" /></g></g><g
     id="Layer_5"
     transform="translate(-105.8,-300.5)" /><g
     id="Layer_3"
     display="none"
     style="display:none"
     transform="translate(-105.8,-300.5)" /><g
     id="Layer_4"
     display="none"
     style="display:none"
     transform="translate(-105.8,-300.5)" /><g
     id="Layer_2"
     display="none"
     style="display:none"
     transform="translate(-105.8,-300.5)" /></svg>