<?xml version="1.0" encoding="utf-8"?>
<!-- Generator: Adobe Illustrator 18.0.0, SVG Export Plug-In . SVG Version: 6.00 Build 0)  -->
<!DOCTYPE svg PUBLIC "-//W3C//DTD SVG 1.1//EN" "http://www.w3.org/Graphics/SVG/1.1/DTD/svg11.dtd">
<svg version="1.1" xmlns="http://www.w3.org/2000/svg" xmlns:xlink="http://www.w3.org/1999/xlink" x="0px" y="0px"
	 viewBox="0 0 1920 1080" enable-background="new 0 0 1920 1080" preserveAspectRatio="none">
<g id="Layer_4">
	<polyline fill="#467DCD" stroke="#FDFDFE" stroke-width="10" stroke-miterlimit="10" points="2.3,778.3 1588,778.3 1588,32 771,32 
		25.7,32 	"/>
</g>
<g id="Layer_2_1_">
	<rect fill="#5A7D67" width="1920" height="1080"/>
</g>
<g id="Layer_1">
	<g id="Layer_2" display="none">
		<rect y="-1" display="inline" fill="#B65750" width="960" height="1081"/>
		<rect x="960" y="-1" display="inline" fill="#BF524D" width="960" height="1081"/>
	</g>
	<line fill="none" stroke="#FDFDFE" stroke-width="10" stroke-miterlimit="10" x1="961.2" y1="101" x2="73.2" y2="101"/>
	<rect x="365.2" y="163" fill="#467DCD" width="596" height="379"/>
	<polygon fill="#467DCD" stroke="#FDFDFE" stroke-width="10" stroke-miterlimit="10" points="961.2,163 961.2,73 73.2,73 73.2,163 
		365.2,163 	"/>
	<rect x="961.2" y="163" fill="#467DCD" width="621" height="379"/>
	<rect x="365.2" y="542" fill="#467DCD" width="596" height="378"/>
	<rect x="961.2" y="920" fill="#467DCD" stroke="#FFFFFF" stroke-width="10" stroke-miterlimit="10" width="884" height="91"/>
	<polygon fill="#467DCD" stroke="#FDFDFE" stroke-width="10" stroke-miterlimit="10" points="961.2,73 961.2,163 1582.2,163 
		1582.2,162 1582.2,163 1845.2,163 1845.2,73 	"/>
	<polygon fill="#467DCD" points="1582.2,542 1582.2,919 1582.2,542 961.2,542 961.2,920 1845.2,920 1845.2,163 1582.2,163 	"/>
	<polygon fill="#467DCD" points="366.7,548 366.7,169 74.7,169 74.7,926 366.7,926 	"/>
	<polygon fill="#467DCD" stroke="#FFFFFF" stroke-width="10" stroke-miterlimit="10" points="365.2,920 73.2,920 73.2,1011 
		961.2,1011 961.2,920 	"/>
	<line fill="none" x1="741.5" y1="-27.7" x2="741.5" y2="992.3"/>
	<g opacity="0.2">
		<line fill="none" stroke="#050505" stroke-width="6.956" stroke-miterlimit="10" x1="1047" y1="120.4" x2="968.2" y2="66.5"/>
		<line fill="none" stroke="#050505" stroke-width="4.0389" stroke-miterlimit="10" x1="1039" y1="112.1" x2="1039" y2="993.1"/>
		
			<line fill="none" stroke="#050505" stroke-width="4.0954" stroke-miterlimit="10" x1="1022.4" y1="95.9" x2="1022.4" y2="1001.7"/>
		<line fill="none" stroke="#050505" stroke-width="4.1243" stroke-miterlimit="10" x1="999.4" y1="84.6" x2="999.4" y2="1003.2"/>
		<line fill="none" stroke="#050505" stroke-width="4.149" stroke-miterlimit="10" x1="980.7" y1="75.1" x2="980.7" y2="1004.7"/>
		<line fill="none" stroke="#050505" stroke-width="6.9631" stroke-miterlimit="10" x1="968.2" y1="66.5" x2="968.2" y2="1007.2"/>
		<line fill="none" stroke="#050505" stroke-width="6.956" stroke-miterlimit="10" x1="968.2" y1="1007.2" x2="1047" y2="991.5"/>
		<line fill="none" stroke="#050505" stroke-width="1.3912" stroke-miterlimit="10" x1="1047" y1="991.5" x2="1047" y2="120.4"/>
		<line fill="none" stroke="#050505" stroke-width="4.1736" stroke-miterlimit="10" x1="1047" y1="131" x2="968.2" y2="89.8"/>
		<line fill="none" stroke="#050505" stroke-width="4.1736" stroke-miterlimit="10" x1="1047" y1="152.3" x2="968.2" y2="123.2"/>
		<line fill="none" stroke="#050505" stroke-width="4.1736" stroke-miterlimit="10" x1="1047" y1="168.6" x2="968.2" y2="151.6"/>
		<line fill="none" stroke="#050505" stroke-width="4.1736" stroke-miterlimit="10" x1="1047" y1="201.4" x2="972.5" y2="189.6"/>
		<line fill="none" stroke="#050505" stroke-width="4.1736" stroke-miterlimit="10" x1="1047" y1="220.9" x2="972.5" y2="209.1"/>
		<line fill="none" stroke="#050505" stroke-width="4.1736" stroke-miterlimit="10" x1="1047" y1="240.4" x2="972.5" y2="228.6"/>
		<line fill="none" stroke="#050505" stroke-width="4.1736" stroke-miterlimit="10" x1="1047" y1="259.9" x2="972.5" y2="248.1"/>
		<line fill="none" stroke="#050505" stroke-width="4.1736" stroke-miterlimit="10" x1="1047" y1="279.4" x2="972.5" y2="267.6"/>
		<line fill="none" stroke="#050505" stroke-width="4.1736" stroke-miterlimit="10" x1="1047" y1="298.9" x2="972.5" y2="287.1"/>
		<line fill="none" stroke="#050505" stroke-width="4.1736" stroke-miterlimit="10" x1="1047" y1="318.4" x2="972.5" y2="306.6"/>
		<line fill="none" stroke="#050505" stroke-width="4.1736" stroke-miterlimit="10" x1="1047" y1="337.9" x2="972.5" y2="326.1"/>
		<line fill="none" stroke="#050505" stroke-width="4.1736" stroke-miterlimit="10" x1="1047" y1="357.4" x2="972.5" y2="345.6"/>
		<line fill="none" stroke="#050505" stroke-width="4.1736" stroke-miterlimit="10" x1="1047" y1="376.9" x2="972.5" y2="365.1"/>
		<line fill="none" stroke="#050505" stroke-width="4.1736" stroke-miterlimit="10" x1="1047" y1="396.4" x2="972.5" y2="384.6"/>
		<line fill="none" stroke="#050505" stroke-width="4.1736" stroke-miterlimit="10" x1="1047" y1="415.9" x2="972.5" y2="404.1"/>
		<line fill="none" stroke="#050505" stroke-width="4.1736" stroke-miterlimit="10" x1="1047" y1="435.4" x2="972.5" y2="423.6"/>
		<line fill="none" stroke="#050505" stroke-width="4.1736" stroke-miterlimit="10" x1="1047" y1="454.9" x2="972.5" y2="443.1"/>
		<line fill="none" stroke="#050505" stroke-width="4.1736" stroke-miterlimit="10" x1="1047" y1="474.4" x2="972.5" y2="462.6"/>
		<line fill="none" stroke="#050505" stroke-width="4.1736" stroke-miterlimit="10" x1="1047" y1="493.9" x2="972.5" y2="482.1"/>
		<line fill="none" stroke="#050505" stroke-width="4.1736" stroke-miterlimit="10" x1="1047" y1="513.4" x2="972.5" y2="501.6"/>
		<line fill="none" stroke="#050505" stroke-width="4.1736" stroke-miterlimit="10" x1="1047" y1="532.9" x2="972.5" y2="521.1"/>
		<line fill="none" stroke="#050505" stroke-width="4.1736" stroke-miterlimit="10" x1="1047" y1="552.4" x2="972.5" y2="540.6"/>
		<line fill="none" stroke="#050505" stroke-width="4.1736" stroke-miterlimit="10" x1="1047" y1="571.9" x2="972.5" y2="560.1"/>
		<line fill="none" stroke="#050505" stroke-width="4.1736" stroke-miterlimit="10" x1="1047" y1="591.4" x2="972.5" y2="579.6"/>
		<line fill="none" stroke="#050505" stroke-width="4.1736" stroke-miterlimit="10" x1="1047" y1="610.9" x2="972.5" y2="599.1"/>
		<line fill="none" stroke="#050505" stroke-width="4.1736" stroke-miterlimit="10" x1="1047" y1="630.4" x2="972.5" y2="618.6"/>
		<line fill="none" stroke="#050505" stroke-width="4.1736" stroke-miterlimit="10" x1="1047" y1="649.9" x2="972.5" y2="638.1"/>
		<line fill="none" stroke="#050505" stroke-width="4.1736" stroke-miterlimit="10" x1="1047" y1="669.4" x2="972.5" y2="657.6"/>
		<line fill="none" stroke="#050505" stroke-width="4.1736" stroke-miterlimit="10" x1="1047" y1="688.9" x2="972.5" y2="677.1"/>
		<line fill="none" stroke="#050505" stroke-width="4.1736" stroke-miterlimit="10" x1="1047" y1="708.4" x2="972.5" y2="696.6"/>
		<line fill="none" stroke="#050505" stroke-width="4.1736" stroke-miterlimit="10" x1="1047" y1="727.9" x2="972.5" y2="716.1"/>
		<line fill="none" stroke="#050505" stroke-width="4.1736" stroke-miterlimit="10" x1="1047" y1="747.4" x2="972.5" y2="735.6"/>
		<line fill="none" stroke="#050505" stroke-width="4.1736" stroke-miterlimit="10" x1="1047" y1="766.9" x2="972.5" y2="755.1"/>
		<line fill="none" stroke="#050505" stroke-width="4.1736" stroke-miterlimit="10" x1="1047" y1="786.4" x2="972.5" y2="774.6"/>
		<line fill="none" stroke="#050505" stroke-width="4.1736" stroke-miterlimit="10" x1="1047" y1="805.9" x2="972.5" y2="794.1"/>
		<line fill="none" stroke="#050505" stroke-width="4.1736" stroke-miterlimit="10" x1="1047" y1="825.4" x2="972.5" y2="813.6"/>
		<line fill="none" stroke="#050505" stroke-width="4.1736" stroke-miterlimit="10" x1="1047" y1="844.9" x2="972.5" y2="833.1"/>
		<line fill="none" stroke="#050505" stroke-width="4.1736" stroke-miterlimit="10" x1="1047" y1="864.4" x2="972.5" y2="852.6"/>
		<line fill="none" stroke="#050505" stroke-width="4.1736" stroke-miterlimit="10" x1="1047" y1="883.9" x2="972.5" y2="872.1"/>
		<line fill="none" stroke="#050505" stroke-width="4.1736" stroke-miterlimit="10" x1="1047" y1="903.4" x2="972.5" y2="891.6"/>
		<line fill="none" stroke="#050505" stroke-width="4.1736" stroke-miterlimit="10" x1="1047" y1="922.9" x2="972.5" y2="911.1"/>
		<line fill="none" stroke="#050505" stroke-width="4.1736" stroke-miterlimit="10" x1="1047" y1="942.4" x2="972.5" y2="930.6"/>
		<line fill="none" stroke="#050505" stroke-width="4.1736" stroke-miterlimit="10" x1="1047" y1="183.7" x2="972.5" y2="171.9"/>
		<line fill="none" stroke="#050505" stroke-width="4.1736" stroke-miterlimit="10" x1="1047" y1="955.2" x2="968.2" y2="947.8"/>
		<line fill="none" stroke="#050505" stroke-width="4.1736" stroke-miterlimit="10" x1="1047" y1="971" x2="968.2" y2="967.4"/>
	</g>
	<line fill="none" stroke="#FDFDFE" stroke-width="5" stroke-miterlimit="10" x1="963" y1="73" x2="925.2" y2="28.4"/>
	<line fill="none" stroke="#D1D3D4" stroke-width="2.8985" stroke-miterlimit="10" x1="959.2" y1="68.5" x2="959.2" y2="1014.1"/>
	<line fill="none" stroke="#D1D3D4" stroke-width="2.9251" stroke-miterlimit="10" x1="951.2" y1="57.5" x2="951.2" y2="1020.5"/>
	<line fill="none" stroke="#D1D3D4" stroke-width="2.9593" stroke-miterlimit="10" x1="940.2" y1="46.1" x2="940.2" y2="1031.7"/>
	<line fill="none" stroke="#D1D3D4" stroke-width="2.9823" stroke-miterlimit="10" x1="931.2" y1="35.5" x2="931.2" y2="1036.5"/>
	<line fill="none" stroke="#FDFDFE" stroke-width="5.0051" stroke-miterlimit="10" x1="925.2" y1="28.4" x2="925.2" y2="1041.4"/>
	<line fill="none" stroke="#FDFDFE" stroke-width="5" stroke-miterlimit="10" x1="925.2" y1="1041.4" x2="963" y2="1011"/>
	<line fill="none" x1="963" y1="1011" x2="963" y2="73"/>
	<line fill="none" stroke="#D1D3D4" stroke-width="2.9173" stroke-miterlimit="10" x1="963" y1="84.4" x2="927.2" y2="53.4"/>
	<line fill="none" stroke="#D1D3D4" stroke-width="2.9173" stroke-miterlimit="10" x1="963" y1="107.4" x2="927.2" y2="89.4"/>
	<line fill="none" stroke="#D1D3D4" stroke-width="2.9173" stroke-miterlimit="10" x1="963" y1="124.9" x2="927.2" y2="120"/>
	<line fill="none" stroke="#D1D3D4" stroke-width="3" stroke-miterlimit="10" x1="963" y1="160.2" x2="927.2" y2="160.2"/>
	<line fill="none" stroke="#D1D3D4" stroke-width="3" stroke-miterlimit="10" x1="963" y1="181.2" x2="927.2" y2="181.2"/>
	<line fill="none" stroke="#D1D3D4" stroke-width="3" stroke-miterlimit="10" x1="963" y1="202.2" x2="927.2" y2="202.2"/>
	<line fill="none" stroke="#D1D3D4" stroke-width="3" stroke-miterlimit="10" x1="963" y1="223.2" x2="927.2" y2="223.2"/>
	<line fill="none" stroke="#D1D3D4" stroke-width="3" stroke-miterlimit="10" x1="963" y1="244.2" x2="927.2" y2="244.2"/>
	<line fill="none" stroke="#D1D3D4" stroke-width="3" stroke-miterlimit="10" x1="963" y1="265.2" x2="927.2" y2="265.2"/>
	<line fill="none" stroke="#D1D3D4" stroke-width="3" stroke-miterlimit="10" x1="963" y1="286.2" x2="927.2" y2="286.2"/>
	<line fill="none" stroke="#D1D3D4" stroke-width="3" stroke-miterlimit="10" x1="963" y1="307.2" x2="927.2" y2="307.2"/>
	<line fill="none" stroke="#D1D3D4" stroke-width="3" stroke-miterlimit="10" x1="963" y1="328.2" x2="927.2" y2="328.2"/>
	<line fill="none" stroke="#D1D3D4" stroke-width="3" stroke-miterlimit="10" x1="963" y1="349.2" x2="927.2" y2="349.2"/>
	<line fill="none" stroke="#D1D3D4" stroke-width="3" stroke-miterlimit="10" x1="963" y1="370.2" x2="927.2" y2="370.2"/>
	<line fill="none" stroke="#D1D3D4" stroke-width="3" stroke-miterlimit="10" x1="963" y1="391.2" x2="927.2" y2="391.2"/>
	<line fill="none" stroke="#D1D3D4" stroke-width="3" stroke-miterlimit="10" x1="963" y1="412.2" x2="927.2" y2="412.2"/>
	<line fill="none" stroke="#D1D3D4" stroke-width="3" stroke-miterlimit="10" x1="963" y1="433.2" x2="927.2" y2="433.2"/>
	<line fill="none" stroke="#D1D3D4" stroke-width="3" stroke-miterlimit="10" x1="963" y1="454.2" x2="927.2" y2="454.2"/>
	<line fill="none" stroke="#D1D3D4" stroke-width="3" stroke-miterlimit="10" x1="963" y1="475.2" x2="927.2" y2="475.2"/>
	<line fill="none" stroke="#D1D3D4" stroke-width="3" stroke-miterlimit="10" x1="963" y1="496.2" x2="927.2" y2="496.2"/>
	<line fill="none" stroke="#D1D3D4" stroke-width="3" stroke-miterlimit="10" x1="963" y1="517.2" x2="927.2" y2="517.2"/>
	<line fill="none" stroke="#D1D3D4" stroke-width="3" stroke-miterlimit="10" x1="963" y1="538.2" x2="927.2" y2="538.2"/>
	<line fill="none" stroke="#D1D3D4" stroke-width="3" stroke-miterlimit="10" x1="963" y1="559.2" x2="927.2" y2="559.2"/>
	<line fill="none" stroke="#D1D3D4" stroke-width="3" stroke-miterlimit="10" x1="963" y1="580.2" x2="927.2" y2="580.2"/>
	<line fill="none" stroke="#D1D3D4" stroke-width="3" stroke-miterlimit="10" x1="963" y1="601.2" x2="927.2" y2="601.2"/>
	<line fill="none" stroke="#D1D3D4" stroke-width="3" stroke-miterlimit="10" x1="963" y1="622.2" x2="927.2" y2="622.2"/>
	<line fill="none" stroke="#D1D3D4" stroke-width="3" stroke-miterlimit="10" x1="963" y1="643.2" x2="927.2" y2="643.2"/>
	<line fill="none" stroke="#D1D3D4" stroke-width="3" stroke-miterlimit="10" x1="963" y1="664.2" x2="927.2" y2="664.2"/>
	<line fill="none" stroke="#D1D3D4" stroke-width="3" stroke-miterlimit="10" x1="963" y1="685.2" x2="927.2" y2="685.2"/>
	<line fill="none" stroke="#D1D3D4" stroke-width="3" stroke-miterlimit="10" x1="963" y1="706.2" x2="927.2" y2="706.2"/>
	<line fill="none" stroke="#D1D3D4" stroke-width="3" stroke-miterlimit="10" x1="963" y1="727.2" x2="927.2" y2="727.2"/>
	<line fill="none" stroke="#D1D3D4" stroke-width="3" stroke-miterlimit="10" x1="963" y1="748.2" x2="927.2" y2="748.2"/>
	<line fill="none" stroke="#D1D3D4" stroke-width="3" stroke-miterlimit="10" x1="963" y1="769.2" x2="927.2" y2="769.2"/>
	<line fill="none" stroke="#D1D3D4" stroke-width="3" stroke-miterlimit="10" x1="963" y1="790.2" x2="927.2" y2="790.2"/>
	<line fill="none" stroke="#D1D3D4" stroke-width="3" stroke-miterlimit="10" x1="963" y1="811.2" x2="927.2" y2="811.2"/>
	<line fill="none" stroke="#D1D3D4" stroke-width="3" stroke-miterlimit="10" x1="963" y1="832.2" x2="927.2" y2="832.2"/>
	<line fill="none" stroke="#D1D3D4" stroke-width="3" stroke-miterlimit="10" x1="963" y1="853.2" x2="927.2" y2="853.2"/>
	<line fill="none" stroke="#D1D3D4" stroke-width="3" stroke-miterlimit="10" x1="963" y1="874.2" x2="927.2" y2="874.2"/>
	<line fill="none" stroke="#D1D3D4" stroke-width="3" stroke-miterlimit="10" x1="963" y1="895.2" x2="927.2" y2="895.2"/>
	<line fill="none" stroke="#D1D3D4" stroke-width="3" stroke-miterlimit="10" x1="963" y1="916.2" x2="927.2" y2="916.2"/>
	<line fill="none" stroke="#D1D3D4" stroke-width="3" stroke-miterlimit="10" x1="963" y1="937.2" x2="927.2" y2="937.2"/>
	<line fill="none" stroke="#D1D3D4" stroke-width="3" stroke-miterlimit="10" x1="963" y1="958.2" x2="927.2" y2="958.2"/>
	<line fill="none" stroke="#D1D3D4" stroke-width="3" stroke-miterlimit="10" x1="963" y1="141.2" x2="927.2" y2="141.2"/>
	<line fill="none" stroke="#D1D3D4" stroke-width="3" stroke-miterlimit="10" x1="963" y1="971.9" x2="925.2" y2="977.4"/>
	
		<line display="none" fill="none" stroke="#D1D3D4" stroke-width="3" stroke-miterlimit="10" x1="963" y1="989" x2="925.2" y2="998.5"/>
	
		<line display="none" opacity="0.2" fill="none" stroke="#F7EDC4" stroke-width="8.3341" stroke-miterlimit="10" enable-background="new    " x1="1582.2" y1="550.5" x2="972.5" y2="550.5"/>
	
		<line display="none" opacity="0.2" fill="none" stroke="#F7EDC4" stroke-width="10" stroke-miterlimit="10" enable-background="new    " x1="1846.2" y1="930" x2="962.2" y2="930"/>
	
		<line display="none" opacity="0.2" fill="none" stroke="#F7EDC4" stroke-width="10" stroke-miterlimit="10" enable-background="new    " x1="1846.2" y1="173" x2="962.2" y2="173"/>
	
		<line display="none" opacity="0.2" fill="none" stroke="#F7EDC4" stroke-width="10" stroke-miterlimit="10" enable-background="new    " x1="1845.2" y1="81" x2="961.2" y2="81"/>
	
		<line display="none" opacity="0.2" fill="none" stroke="#F7EDC4" stroke-width="10" stroke-miterlimit="10" enable-background="new    " x1="1590.6" y1="163" x2="1590.6" y2="920"/>
	<g id="Layer_3">
		<g opacity="0.1">
			<g>
				<path fill="#F9A361" d="M883.1,263c0-91-12.1-179.2-34.8-263H0v1080h462.8C717.3,897.8,883.1,599.8,883.1,263z"/>
			</g>
			<defs>
				<filter id="Adobe_OpacityMaskFilter" filterUnits="userSpaceOnUse" x="0" y="0" width="883.1" height="1080">
					<feColorMatrix  type="matrix" values="1 0 0 0 0  0 1 0 0 0  0 0 1 0 0  0 0 0 1 0"/>
				</filter>
			</defs>
			<mask maskUnits="userSpaceOnUse" x="0" y="0" width="883.1" height="1080" id="SVGID_1_">
				<g filter="url(#Adobe_OpacityMaskFilter)">
					
						<image overflow="visible" enable-background="new    " width="3700" height="4521" xlink:href="30051FA.jpg"  transform="matrix(0.2398 0 0 0.2398 -2 -2)">
					</image>
				</g>
			</mask>
			<g opacity="0.75" mask="url(#SVGID_1_)">
				<path fill="#F89A5A" d="M883.1,263c0-91-12.1-179.2-34.8-263H0v1080h462.8C717.3,897.8,883.1,599.8,883.1,263z"/>
			</g>
		</g>
	</g>
	
		<image display="none" overflow="visible" width="276" height="183" xlink:href="30051FE.jpg"  transform="matrix(1 0 0 1 -399.4512 1076.4808)">
	</image>
	<path fill="none" stroke="#FFFFFF" stroke-width="10" stroke-miterlimit="10" d="M70,920"/>
	<path fill="none" stroke="#FFFFFF" stroke-width="10" stroke-miterlimit="10" d="M129,699"/>
	<line fill="none" stroke="#FFFFFF" stroke-width="10" stroke-miterlimit="10" x1="73.2" y1="920" x2="73.2" y2="163"/>
	<polyline fill="none" stroke="#FFFFFF" stroke-width="10" stroke-miterlimit="10" points="1582.2,163 1845.2,163 1845.2,920 
		961.2,920 	"/>
</g>
<g id="Layer_3_1_">
	<path fill="#173D6B" d="M366.6,356.7c27.1-28.1,54.9,13.2,67.1,18.1c-3.1,4.6-2.1,4.2-9.8,4.2c0,10.5-3.4,8.8-7.2,15.9l0,0
		c-3.5,0-11.9,1.2-13.7,0.9c-31.1,0-27.2-26.5-2.9-32.1c-5-9-23.7,4.2-23.7,15.4c0,8.2,0.9,10,7.8,14.6c10.4,7.5,27.1,6.3,32.7,2.9
		l0,0c13-3.1,7.8-3.5,13.4-13.8c3-5.3,8.3-9.6,16-9.8c7.2-0.2,13.2,3.5,16.6,8.9c3.5,6.4,2.9,9.3,3.9,10.9c-0.1,0.1,0,0.3,0.4,0.5
		c1.2,1,3.4,1.4,8.8,2.3l-0.1-0.2c4.7,0.9,11.1,2,19,3.3c9,0,22.4-5.5,22.4-19.6c0-14.3-22.4-23.1-23.7-15.4c4,1,10.1,2.9,12.9,5.3
		c4.6,3.8,18.5,33.8-32,23.7l0,0c-2.4-3.8-4.4-6.2-4.5-13.6c-7.8,0-6.7,0.4-9.8-4.2c13-11.3,53.2-47.3,67-18.1
		c-4.7,4.5-17.6-8.8-25.1,1.4c16.3,1.3,19.6,16,19.6,29.3c15.4,0.4,19.6,19.7,14.9,30.3c-3.9,8.8-5.9,0.4-9.4,13
		c-6.6,23.6-27.9,13.2-34.8,20.9c-16.6,5.8-27,27.2-27.4,28.3c-7.3,15.2-6.9,17.7-20,17.7c-8.7,0-11.3-8.3-15.4-16.8l-4.3-6.8
		c-7.4-12.2-11.8-15.5-22.9-21.7c-5.7-8.3-28.8,1.4-35.2-20.6c-0.8-2.5-0.1-1.7-1.2-4.4c-2.8-6.8-10.4-4.1-10.4-17.6
		c0-11.6,5.1-22.1,16.8-22.4c0-13.2,3.3-27.9,19.5-29.3C384.3,347.4,375.7,369.2,366.6,356.7z M493.6,381.8c0,4.7-4.8,7.9-7,11.2
		c30.4,0,23-16.9,16.3-21.9c-4.2-3.2-8-3.3-14.9-3.3C489.6,373.6,493.6,373.8,493.6,381.8z M384.8,383.3c0,7.5,14.3,9.8,22.4,9.8
		c-3.9-5.9-5.6-3.7-5.6-14c0-6.6,2.7-5.6,4.2-11.1C395.1,367.9,384.8,371,384.8,383.3z M429.5,264.7c0-14.7-2.8,2.5-2.8-14
		c-4.4,3-13.6,14.3-17.2,19.1c-4.6,6.2-8.3,19-13.5,22.7v-16.7c-4,2.9-4,5.3-6.2,10.6c-4.8,11.8-6.1,14-7.6,28.6
		c-0.7,6.5-0.3,10.9-4.3,13.9c-0.7-8.3-2.8-15.5-2.8-25.1c-1,1.1-0.8,0.6-1.7,2.5l-14.2,33.2c-1.9,3.1-6.4,8.3-6.4,11.7
		c0,9.8,9.8,5.5,9.8,25.1c0,9.8-23,31.1-12.1,45.6c7.1,9.3,10,0.1,13,19c3.2,18.9,8.9,43.4-10.7,55.5c-5.9,3.6-21,5.9-29.2,8.5
		c-9,2.9-18.9,5.8-27.6,10c-10,5.1-15.7,7.1-15.7,22c3.6-2.5,5.1-4.6,9.4-7.3c3.6-2.3,7.1-4.3,11.5-5.3c2.3,8.5,14.3,8.8,25.1,9.7
		c0,15.7,7.8,22.4,18.4,33.3c0.3,0.3,2.7,2.6,2.8,2.6c5.2,3.1,3.5-2,9.2,3.5c8.5,8.2,6.6,12.2,30,23c8.6,4,22.2,9.4,31.7,11.6
		c-1.4-5.1-1.5-2.9-4.2-6.9c3.4,0.9,7.9,3.8,11.1,5.6c-0.7-3.2-1.1-3.3-1.3-7c17.2,4,15.9,14.3,23.7,19.6
		c2.3-10.1,10.9-17.3,20.9-19.6c-0.3,3.7-0.7,3.8-1.3,7c3.2-1.7,7.8-4.7,11.1-5.6c-2.7,4-2.9,1.8-4.2,6.9
		c11.1-2.6,34.5-11.8,44.4-18.3c17.3-11.3,14.3-17.2,22.4-18.8c4.7-1-2.5,5.6,11-7.9c9-8.8,14.3-15.7,14.3-29
		c10.4-0.9,22.8-1.1,25.1-9.7c4.4,1,7.9,3,11.5,5.3c4.3,2.7,5.8,4.8,9.4,7.3c0-20.8-19.9-24.5-43.4-31.9c-8.2-2.6-23.3-4.9-29.2-8.5
		c-20.1-12.4-13.8-39.2-10.2-59.1c1.3-7.4,1.9-7.7,7.1-10.9c13.1-8.4,8.6-18.6,2.3-31.1c-6.7-13.4-9-10.7-9-24.5
		c0-8.8,9.8-12.3,9.8-19.6c0-3.4-7.3-11.7-11.8-23.1c-1.9-4.9-7.4-20.6-10.6-24.3c0,9.6-2.1,16.8-2.8,25.1
		c-5.2-3.8-3.8-16.1-6.6-28.3c-1.4-6.3-2.7-8-4.9-13.2c-2.3-5.4-2.4-8.4-6.6-11.5v16.7c-5.2-3.7-8.9-16.5-13.5-22.7
		c-3.5-4.8-12.8-16.1-17.2-19.1c0,16.5-2.8-0.7-2.8,14c-10.4-5.5-10.8-15.3-16.8-19.6C440.3,249.4,439.7,259.2,429.5,264.7z
		 M401.5,404.2c-5.4,0-15.3-4.3-20.1-7.8c-2.4-1.7-3.6-3.2-5.7-4.2c-14.6-8-25.3,28.3-6.3,28.7c0,38.1,37.8,7.5,60.5,52.6
		c3,5.9,14.3,35.7,26.9,13.9c12-20.6,15.2-38.5,50.8-44c12.3-1.9,16.7-8.3,16.7-22.4c18.9-0.4,8.3-35.3-5.4-29.2
		c-1.5,0.7-16.5,12.5-25.3,12.5c-5,0-25.8-6.2-28.2-8.2c-3.8-3.2-3.6-18.7-18-19.4c-13.9-0.6-16.4,16.1-17.7,17.9
		C427.2,398.1,405.1,404.2,401.5,404.2z"/>
	<path fill="none" d="M447.6,495.2L447.6,495.2L447.6,495.2L447.6,495.2c0.1,0,0.2,0,0.3,0l0,0l0,0l0,0l0,0l0,0l0,0l0,0
		 M448.2,495.1L448.2,495.1L448.2,495.1L448.2,495.1L448.2,495.1L448.2,495.1L448.2,495.1L448.2,495.1h0.2l0,0l0,0l0,0l0,0l0,0l0,0
		l0,0l0,0h0.1l0,0 M448.7,495L448.7,495L448.7,495L448.7,495L448.7,495L448.7,495L448.7,495L448.7,495h0.3l0,0l0,0l0,0l0,0l0,0
		 M449.2,495L449.2,495L449.2,495L449.2,495L449.2,495L449.2,495 M449.5,494.9L449.5,494.9L449.5,494.9L449.5,494.9L449.5,494.9
		L449.5,494.9L449.5,494.9L449.5,494.9L449.5,494.9 M449.8,494.8L449.8,494.8L449.8,494.8L449.8,494.8L449.8,494.8L449.8,494.8
		L449.8,494.8L449.8,494.8L449.8,494.8l0.2-0.1l0,0l0,0l0,0l0,0l0,0h0.1 M450.4,494.5L450.4,494.5L450.4,494.5l0.2-0.1l0,0l0,0
		 M451,494.2L451,494.2L451,494.2L451,494.2l0.2-0.1V494 M451.5,493.8L451.5,493.8L451.5,493.8l0.2-0.1l0,0l0,0v-0.1 M452.1,493.3
		L452.1,493.3L452.1,493.3L452.1,493.3 M452.7,492.8L452.7,492.8L452.7,492.8L452.7,492.8L452.7,492.8L452.7,492.8L452.7,492.8
		 M453.3,492.3L453.3,492.3L453.3,492.3L453.3,492.3 M453.9,491.6L453.9,491.6L453.9,491.6L453.9,491.6L453.9,491.6 M454.5,490.9
		L454.5,490.9L454.5,490.9L454.5,490.9L454.5,490.9 M455.1,490.2L455.1,490.2L455.1,490.2 M455.7,489.3L455.7,489.3L455.7,489.3
		L455.7,489.3L455.7,489.3L455.7,489.3 M456.2,488.3L456.2,488.3L456.2,488.3 M456.8,487.4c12-20.6,15.2-38.5,50.8-44
		c12.3-1.9,16.7-8.3,16.7-22.4c18.9-0.4,8.3-35.3-5.4-29.2c-1.5,0.7-16.5,12.5-25.3,12.5c-5,0-25.8-6.2-28.2-8.2l-0.1-0.1h-0.1l0,0
		c0-0.1-0.1-0.1-0.1-0.2l0,0l0,0c-0.1-0.1-0.1-0.1-0.2-0.2l0,0l0,0c-0.1-0.1-0.1-0.2-0.2-0.2l0,0l0,0l0,0l0,0c0-0.1-0.1-0.2-0.1-0.3
		l0,0h-0.1l0,0l0,0l0,0l0,0l0,0c0-0.1-0.1-0.1-0.1-0.2l0,0l0,0l0,0l0,0l0,0l0,0l0,0l0,0l0,0c-0.1-0.1-0.1-0.2-0.2-0.3l0,0l0,0l0,0
		l0,0l0,0l0,0l0,0l0,0l0,0l0,0l0,0c0-0.1-0.1-0.1-0.1-0.2l0,0l0,0l0,0l0,0v-0.1l0,0l0,0l0,0l0,0l0,0l0,0l0,0l0,0l-0.2-0.2l0,0l0,0
		V394l0,0l0,0l0,0l-0.1-0.2v-0.1l0,0l0,0l0,0l0,0l0,0l0,0l0,0c-0.1-0.1-0.1-0.2-0.2-0.3l0,0l-0.1-0.3l0,0l0,0 M447.9,495.2
		L447.9,495.2L447.9,495.2L447.9,495.2 M448.2,495.1L448.2,495.1 M463,391.8L463,391.8L463,391.8L463,391.8L463,391.8L463,391.8
		L463,391.8L463,391.8L463,391.8L463,391.8l-0.1-0.2l0,0l0,0l0,0v-0.1l0,0l0,0l0,0l0,0v-0.1h-0.1l0,0l0,0l0,0l0,0l0,0l0,0v-0.1l0,0
		l0,0l0,0l0,0l0,0v-0.1l0,0l0,0l0,0l0,0l0,0l0,0h-0.1v-0.1l0,0l0,0l0,0l0,0l0,0l0,0l0,0l0,0V391l0,0l0,0l-0.1-0.3l-0.1-0.1l-0.1-0.3
		v-0.1l-0.1-0.1l-0.1-0.3l0,0l-0.1-0.3v-0.1l-0.1-0.2l-0.1-0.2V389l-0.1-0.3l-0.3-0.6l0,0c-1.7-4.3-4.4-9.1-10.2-10.8h-0.1
		c-0.3-0.1-0.7-0.2-1.2-0.3l0,0c-0.5-0.1-1.1-0.2-1.6-0.3h-0.1c-0.3,0-0.6,0-0.9-0.1v118.6l0,0 M464.5,394.9L464.5,394.9
		L464.5,394.9L464.5,394.9L464.5,394.9L464.5,394.9c-0.1-0.1-0.1-0.2-0.2-0.3l0,0l0,0l0,0l0,0l0,0 M463.3,392.5L463.3,392.5
		l-0.2-0.4l-0.1-0.3l0,0"/>
	<path fill="#814732" d="M447.6,495.2c2.9-0.1,6-2.3,9.2-7.9c12-20.6,15.2-38.5,50.8-44c12.3-1.9,16.7-8.3,16.7-22.4
		c18.9-0.4,8.3-35.3-5.4-29.2c-1.5,0.7-16.5,12.5-25.3,12.5c-5,0-25.8-6.2-28.2-8.2c-3.8-3.2-3.6-18.5-17.8-19.4V495.2z"/>
	<path fill="#173D6B" d="M574.5,536.8h-4.1c-0.3,11.2-8.8,22.1-15,28.2l-8.4,8.5c-6.9,5.3-3.9-2.2-9.7,3.9c-2.8,3-1.3,3-5,6.3
		c-2,1.8-3.2,2.3-5.5,4.2c-11.8,9.8-45.6,24.1-54.1,24.1c-2.8,0,0.3-2.6-8.4-2.8c-0.5-5.9-3.3-4.5-9.4,3.2
		c-1.3,1.6-7.3,11.9-7.3,13.5v209.3c20.1,0,24.8-1.3,41.9-2.7l43.3-8.4c3.6-0.6,2.4-0.1,5.9-1.1c5.9-1.6-1.1-1.8,5.1-1.8
		c4.3,0,11.5,11.2,6.6-3.5c-11.9-36.2-13-66.4,0.6-102.3c4.5-12.1,11.7-23.7,19.8-33.3c8.7-10.4,16.2-15.4,22.9-28.7
		c15.3-30.5,11.8-72.1-0.8-103c-2.3-5.8-4.3-8.7-5.9-15.2C580.9,535.4,581.6,536.8,574.5,536.8z"/>
	<path fill="#173D6B" d="M291.3,601c0,47.3,10.4,54.4,33.1,81.3c31.4,37.1,34.7,81.4,23,126.9c-1.5,5.9-3.2,9.5-4.5,15.1
		c9.2-4.9,7.7-2.6,16-0.7c4.9,1.1,5.9,1.2,10.2,2.4l31,5.3c18.8,1.5,21,4.1,43.3,4.1V623.2c0-4.4-10.3-14.7-12.6-18.1
		c-4.4,1.6-1.9-3-2.8,4.2c-11.6,0.3-0.3,9.6-40.4-8.4c-14.2-6.3-22.6-11.2-31.9-22.6c-6.8-8.3-3.2,2.7-12.6-6.9
		c-8.5-8.6-20.9-20.1-21.2-34.5l-13.9-1.4c-1.4,6.2-6.9,16.6-10.6,29.9C294.7,575.3,291.3,589,291.3,601z"/>
	<path fill="#173D6B" d="M238.3,580c0,10.6,4.7,23.7,8.4,30.7c-19.2,12.9-33.5,40-33.5,64.2c0,7.5,1.3,12.3,2.8,18.1
		c-2.9,4.2-5.7,4.8-6.7,10.1c-2.5,12.5,4,6.3-4.9,21.6c-1.2,2-2.3,4.3-3.3,6.6c-13,33.3,15.3,34.3,20.1,37.5
		c4.9,3.2,10.8,14.5,25.8,20.1c14.5,5.5,27.3,4.6,43,4.6c10.4,0,6.4-3.5,15.8,0.8c7.4,3.4,7.6,1.4,11.6,8
		c4.6,7.5,13.4,15.5,22.7,17.7c1.2-14.1,8.3-16.2,8.3-64.2c-24-2-30.5-9.1-51.3-26.8c-2.9-2.5-4.7-2.6-5.9-6.7
		c5.4-1.4,15.1-9.6,18.3-13.7c25.9-32.4,4.9-18.3-12.3-55.2c-14.1-30.2-11.9-55.5-4.1-86.8c2.7-10.8,10.3-29.2,10.6-34.1
		c-4.1-1.2-2.3-0.6-5.6-2.8c-5.7,1.2-8.3,3.9-12.3,7.4c-2.1,1.9-2.9,3.4-5.7,3c-7.2-1.2-3.3-10.3-3-13.1
		C260.8,528.3,238.3,558.3,238.3,580z"/>
	<path fill="#814732" d="M608,603.7c0,57.1-24.5,66.1-41.8,92.1c3,4.4,6.9,10.5,10.7,14.3c3.2,3.2,11.5,9.6,15.7,10.7
		c-1.2,4.5-1.3,3-4.2,5.5c-10,8.5-29.6,26.4-41.7,26.7c0,16.9,0.5,46.5,6.9,60c13.2-3.5,5.5-13,26.6-21c6.2-2.4,33.5,4.1,55.8-4
		c15.7-5.9,19.3-14.8,26-20.1c8.5-6.6,39.6-3.7,14.9-48.9c-3.6-6.6-1-8.3-1.9-16.1c-0.9-6.5-3.8-6.6-6.9-11.2
		c6.4-27.7-0.6-49-17.7-70.2c-5.9-7.4-5.2-6.9-13-12.1c21.9-41.3-8.4-75.8-22.4-79.5c1.7,3.5,2.2,9.6-3,10.4
		c-3.3,0.5-6.7-4.2-10.4-6.8c-18.8-13.6-6.5,11.6-6.4,12C600.5,559.2,608,585.5,608,603.7z"/>
	<path fill="#173D6B" d="M444.8,240.9c1.4,1.4,5-2,1.6-0.8C446.3,240.2,442.4,238.6,444.8,240.9z"/>
	<path fill="#814732" d="M689,739c0.1,0.2,0.4-0.6,0.4-0.4l0,0C689.4,738.6,688.9,738.9,689,739z"/>
	<path fill="#814732" d="M379.2,302.3l0.5-0.4C379.6,301.9,379.1,302.2,379.2,302.3z"/>
	<path fill="#814732" d="M400.1,277.2l0.5-0.4C400.6,276.8,400,277.1,400.1,277.2z"/>
	<path fill="#814732" d="M492.2,280l0.5-0.5C492.6,279.6,492.1,279.9,492.2,280z"/>
	<path fill="#814732" d="M511.8,302.3l0.4-0.4C512.2,301.9,511.7,302.2,511.8,302.3z"/>
	<path fill="#814732" d="M490.9,277.2l0.4-0.4C491.2,276.8,490.7,277.1,490.9,277.2z"/>
	<path fill="#814732" d="M398.8,280l0.4-0.5C399.1,279.6,398.6,279.9,398.8,280z"/>
	<path fill="#814732" d="M689,750.2l0.4-0.5C689.4,749.9,688.9,750.1,689,750.2z"/>
	<path fill="#814732" d="M193.6,740.5l0.6-0.6c0,0-0.2,0.1-0.2,0.2C194,740.1,193.7,740.2,193.6,740.5L193.6,740.5z"/>
	<path fill="#814732" d="M193.6,751.6c0.1,0.2,0.4-0.6,0.4-0.4c0,0.1,0.2-0.2,0.2-0.2L193.6,751.6z"/>
	<path fill="#173D6B" d="M369.4,420.9c0,38.1,37.8,7.5,60.5,52.6c3,5.9,14.3,35.7,26.9,13.9c12-20.6,15.2-38.5,50.8-44
		c12.3-1.9,16.7-8.3,16.7-22.4c18.9-0.4,8.3-35.3-5.4-29.2c-1.5,0.7-16.5,12.5-25.3,12.5c-5,0-25.8-6.2-28.2-8.2
		c-3.8-3.2-3.6-18.7-18-19.4c-13.9-0.6-16.4,16.1-17.7,17.9c-2.5,3.5-24.6,9.6-28.1,9.6c-5.4,0-15.3-4.3-20.1-7.8
		c-2.4-1.7-3.6-3.2-5.7-4.2C361.2,384.2,350.4,420.5,369.4,420.9z"/>
	<path fill="none" d="M447.8,495.2L447.8,495.2L447.8,495.2L447.8,495.2L447.8,495.2L447.8,495.2L447.8,495.2L447.8,495.2
		L447.8,495.2 M448.2,495.1L448.2,495.1L448.2,495.1L448.2,495.1L448.2,495.1L448.2,495.1L448.2,495.1L448.2,495.1h0.2l0,0l0,0l0,0
		l0,0l0,0l0,0l0,0l0,0h0.1l0,0 M448.7,495L448.7,495L448.7,495L448.7,495L448.7,495L448.7,495L448.7,495L448.7,495h0.3l0,0l0,0l0,0
		l0,0l0,0 M449.2,495L449.2,495L449.2,495L449.2,495L449.2,495L449.2,495 M449.5,494.9L449.5,494.9L449.5,494.9L449.5,494.9
		L449.5,494.9L449.5,494.9L449.5,494.9L449.5,494.9L449.5,494.9 M449.8,494.8L449.8,494.8L449.8,494.8L449.8,494.8L449.8,494.8
		L449.8,494.8L449.8,494.8L449.8,494.8L449.8,494.8l0.2-0.1l0,0l0,0l0,0l0,0l0,0h0.1 M450.4,494.5L450.4,494.5L450.4,494.5l0.2-0.1
		l0,0l0,0 M451,494.2L451,494.2L451,494.2L451,494.2l0.2-0.2l0,0 M451.5,493.8L451.5,493.8L451.5,493.8l0.2-0.1l0,0l0,0l0,0
		 M452.1,493.3L452.1,493.3L452.1,493.3L452.1,493.3 M452.7,492.8L452.7,492.8L452.7,492.8L452.7,492.8L452.7,492.8L452.7,492.8
		L452.7,492.8 M453.3,492.3L453.3,492.3L453.3,492.3L453.3,492.3 M453.9,491.6L453.9,491.6L453.9,491.6L453.9,491.6L453.9,491.6
		 M454.5,490.9L454.5,490.9L454.5,490.9L454.5,490.9L454.5,490.9 M455.1,490.2L455.1,490.2L455.1,490.2 M455.7,489.3L455.7,489.3
		L455.7,489.3L455.7,489.3L455.7,489.3L455.7,489.3 M456.2,488.3L456.2,488.3L456.2,488.3 M456.8,487.4c12-20.6,15.2-38.5,50.8-44
		c12.3-1.9,16.7-8.3,16.7-22.4c18.9-0.4,8.3-35.3-5.4-29.2c-1.5,0.7-16.5,12.5-25.3,12.5c-5,0-25.8-6.2-28.2-8.2l-0.1-0.1h-0.1l0,0
		c0-0.1-0.1-0.1-0.1-0.2l0,0l0,0c-0.1-0.1-0.1-0.1-0.2-0.2l0,0l0,0c-0.1-0.1-0.1-0.2-0.2-0.2l0,0l0,0l0,0l0,0c0-0.1-0.1-0.2-0.1-0.3
		l0,0h-0.1l0,0l0,0l0,0l0,0l0,0c0-0.1-0.1-0.1-0.1-0.2l0,0l0,0l0,0l0,0l0,0l0,0l0,0l0,0l0,0c-0.1-0.1-0.1-0.2-0.2-0.3l0,0l0,0l0,0
		l0,0l0,0l0,0l0,0l0,0l0,0l0,0l0,0c0-0.1-0.1-0.2-0.1-0.2l0,0l0,0l0,0l0,0v-0.1l0,0l0,0l0,0l0,0l0,0l0,0l0,0l0,0l-0.2-0.2l0,0l0,0
		V394l0,0l0,0l0,0l-0.1-0.2v-0.1l0,0l0,0l0,0l0,0l0,0l0,0l0,0c-0.1-0.1-0.1-0.2-0.2-0.3l0,0l-0.1-0.3l0,0l0,0 M447.9,495.2
		L447.9,495.2L447.9,495.2L447.9,495.2 M448.2,495.1L448.2,495.1 M463,391.8L463,391.8L463,391.8L463,391.8L463,391.8L463,391.8
		L463,391.8L463,391.8L463,391.8L463,391.8l-0.1-0.2l0,0l0,0l0,0v-0.1l0,0l0,0l0,0l0,0v-0.1h-0.1l0,0l0,0l0,0l0,0l0,0l0,0v-0.1l0,0
		l0,0l0,0l0,0l0,0v-0.1l0,0l0,0l0,0l0,0l0,0l0,0h-0.1v-0.1l0,0l0,0l0,0l0,0l0,0l0,0l0,0l0,0V391l0,0l0,0l-0.1-0.3l-0.1-0.1l-0.1-0.3
		v-0.1l-0.1-0.1l-0.1-0.3l0,0l-0.1-0.3v-0.1l-0.1-0.2l-0.1-0.2V389l-0.1-0.3l-0.3-0.6l0,0c-1.7-4.3-4.4-9.1-10.2-10.8h-0.1
		c-0.3-0.1-0.7-0.2-1.2-0.3l0,0c-0.5-0.1-1.1-0.2-1.6-0.3h-0.1c-0.2,0-0.4,0-0.7,0 M464.5,394.9L464.5,394.9L464.5,394.9
		L464.5,394.9L464.5,394.9L464.5,394.9c-0.1-0.1-0.1-0.2-0.2-0.3l0,0l0,0l0,0l0,0l0,0 M463.3,392.5L463.3,392.5l-0.2-0.3l-0.1-0.4
		l0,0"/>
	<path fill="#173D6B" d="M608,603.7c0,57.1-24.5,66.1-41.8,92.1c3,4.4,6.9,10.5,10.7,14.3c3.2,3.2,11.5,9.6,15.7,10.7
		c-1.2,4.5-1.3,3-4.2,5.5c-10,8.5-29.6,26.4-41.7,26.7c0,16.9,0.5,46.5,6.9,60c13.2-3.5,5.5-13,26.6-21c6.2-2.4,33.5,4.1,55.8-4
		c15.7-5.9,19.3-14.8,26-20.1c8.5-6.6,39.6-3.7,14.9-48.9c-3.6-6.6-1-8.3-1.9-16.1c-0.9-6.5-3.8-6.6-6.9-11.2
		c6.4-27.7-0.6-49-17.7-70.2c-5.9-7.4-5.2-6.9-13-12.1c21.9-41.3-8.4-75.8-22.4-79.5c1.7,3.5,2.2,9.6-3,10.4
		c-3.3,0.5-6.7-4.2-10.4-6.8c-18.8-13.6-6.5,11.6-6.4,12C600.5,559.2,608,585.5,608,603.7z"/>
	<path fill="#2B2A29" fill-opacity="0.1098" d="M447.8,240.2c0.1-0.1,0.1-0.2,0-0.3V240.2z"/>
	<path fill="#2B2A29" fill-opacity="0.1098" d="M689,739c0.1,0.2,0.4-0.6,0.4-0.4l0,0C689.4,738.6,688.9,738.9,689,739z"/>
	<path fill="#2B2A29" fill-opacity="0.1098" d="M492.2,280l0.5-0.5C492.6,279.6,492.1,279.9,492.2,280z"/>
	<path fill="#2B2A29" fill-opacity="0.1098" d="M511.8,302.3l0.4-0.4C512.2,301.9,511.7,302.2,511.8,302.3z"/>
	<path fill="#2B2A29" fill-opacity="0.1098" d="M490.9,277.2l0.4-0.4C491.2,276.8,490.7,277.1,490.9,277.2z"/>
	<path fill="#2B2A29" fill-opacity="0.1098" d="M689,750.2l0.4-0.5C689.4,749.9,688.9,750.1,689,750.2z"/>
</g>
</svg>
