<?xml version="1.0" encoding="utf-8"?>
<!-- Generated by IcoMoon.io -->
<!DOCTYPE svg PUBLIC "-//W3C//DTD SVG 1.1//EN" "http://www.w3.org/Graphics/SVG/1.1/DTD/svg11.dtd">
<svg version="1.1" xmlns="http://www.w3.org/2000/svg" xmlns:xlink="http://www.w3.org/1999/xlink" width="512" height="512" viewBox="0 0 512 512">
<g>
</g>
	<path d="M255.99 26.747c-126.597 0-229.253 102.646-229.253 229.253 0 126.587 102.656 229.253 229.253 229.253 126.638 0 229.274-102.656 229.274-229.253 0-126.608-102.646-229.253-229.274-229.253zM226.744 338.913c-72.755 0-131.696-58.962-131.696-131.686 0-72.745 58.941-131.696 131.696-131.696 72.734 0 131.696 58.962 131.696 131.696 0 72.725-58.962 131.686-131.696 131.686z" fill="#000000" />
	<path d="M251.126 192.594c0 26.931-21.832 48.763-48.804 48.763-26.9 0-48.763-21.832-48.763-48.763 0-26.952 21.863-48.793 48.763-48.793 26.972 0 48.804 21.842 48.804 48.793z" fill="#000000" />
</svg>
