<?xml version="1.0" encoding="UTF-8" standalone="no"?>
<!-- Generator: Adobe Illustrator 16.2.1, SVG Export Plug-In . SVG Version: 6.00 Build 0)  -->

<svg
   xmlns:dc="http://purl.org/dc/elements/1.1/"
   xmlns:cc="http://creativecommons.org/ns#"
   xmlns:rdf="http://www.w3.org/1999/02/22-rdf-syntax-ns#"
   xmlns:svg="http://www.w3.org/2000/svg"
   xmlns="http://www.w3.org/2000/svg"
   xmlns:sodipodi="http://sodipodi.sourceforge.net/DTD/sodipodi-0.dtd"
   xmlns:inkscape="http://www.inkscape.org/namespaces/inkscape"
   version="1.1"
   id="Layer_1"
   x="0px"
   y="0px"
   width="292.88135"
   height="388.33899"
   viewBox="0 0 292.88135 388.33899"
   xml:space="preserve"
   inkscape:version="0.91 r"
   sodipodi:docname="blog-marker2.svg"><metadata
     id="metadata11"><rdf:RDF><cc:Work
         rdf:about=""><dc:format>image/svg+xml</dc:format><dc:type
           rdf:resource="http://purl.org/dc/dcmitype/StillImage" /><dc:title></dc:title></cc:Work></rdf:RDF></metadata><defs
     id="defs9" /><sodipodi:namedview
     pagecolor="#ffffff"
     bordercolor="#666666"
     borderopacity="1"
     objecttolerance="10"
     gridtolerance="10"
     guidetolerance="10"
     inkscape:pageopacity="0"
     inkscape:pageshadow="2"
     inkscape:window-width="1313"
     inkscape:window-height="744"
     id="namedview7"
     showgrid="false"
     fit-margin-top="0"
     fit-margin-left="0"
     fit-margin-right="0"
     fit-margin-bottom="0"
     inkscape:zoom="0.4609375"
     inkscape:cx="-222.05932"
     inkscape:cy="196.73899"
     inkscape:window-x="53"
     inkscape:window-y="24"
     inkscape:window-maximized="1"
     inkscape:current-layer="Layer_1" /><rect
     style="fill:#000000;fill-opacity:1"
     id="rect4139"
     width="292.88135"
     height="388.33899"
     x="0"
     y="0" /><g
     id="g3"
     transform="translate(-58.601691,-190.06102)"
     style="fill:#ffffff;fill-opacity:1"><path
       d="m 346.5322,297.2 c -0.9,-2.2 -2,-4.3 -3.5,-6.1 l -83.8,-91.7 c -1.9,-2.1 -4.2,-3.6 -6.7,-4.9 -2.9,-1.5 -6.1,-2.1 -9.5,-2.1 l -159.899997,0 c -12.4,0 -22.7,10.6 -22.7,23.9 l 0,335.2 c 0,13.4 10.3,24.9 22.7,24.9 l 243.099997,0 c 12.4,0 22.2,-11.5 22.2,-24.9 l 0,-244.1 c 0,-3.6 -0.5,-7.1 -1.9,-10.2 z m -238.1,9.4 c 0,-1.5 1.8,-2.1 3.4,-2.1 l 70.8,0 c 1.6,0 2.8,0.6 2.8,2.1 l 0,10.8 c 0,1.4 -1.1,3.1 -2.8,3.1 l -70.8,0 c -1.6,0 -3.4,-1.7 -3.4,-3.1 l 0,-10.8 z m 0,128 c 0,-1.5 1.8,-2.1 3.4,-2.1 l 122.2,0 c 1.6,0 2.4,0.6 2.4,2.1 l 0,10.8 c 0,1.4 -0.7,3.1 -2.4,3.1 l -122.2,0 c -1.6,0 -3.4,-1.7 -3.4,-3.1 l 0,-10.8 z m 160,74.8 c 0,1.4 -0.7,3.1 -2.4,3.1 l -154.2,0 c -1.6,0 -3.4,-1.7 -3.4,-3.1 l 0,-10.8 c 0,-1.5 1.8,-2.1 3.4,-2.1 l 154.2,0 c 1.6,0 2.4,0.6 2.4,2.1 l 0,10.8 z m 32,-128 c 0,1.4 -0.7,3.1 -2.4,3.1 l -186.2,0 c -1.6,0 -3.4,-1.7 -3.4,-3.1 l 0,-10.8 c 0,-1.5 1.8,-2.1 3.4,-2.1 l 186.2,0 c 1.6,0 2.4,0.6 2.4,2.1 l 0,10.8 z m -46.9,-75.9 c -5.6,0 -11.1,-5.2 -11.1,-11.3 l 0,-66 71.2,77.3 -60.1,0 z"
       id="path5"
       inkscape:connector-curvature="0"
       style="fill:#ffffff;fill-opacity:1" /></g></svg>