<?xml version="1.0" encoding="utf-8"?>
<!-- Generator: Adobe Illustrator 19.1.0, SVG Export Plug-In . SVG Version: 6.00 Build 0)  -->
<svg version="1.1" id="Layer_1" xmlns="http://www.w3.org/2000/svg" xmlns:xlink="http://www.w3.org/1999/xlink" x="0px" y="0px"
	 viewBox="159.7 274.9 700.5 345.2" style="enable-background:new 159.7 274.9 700.5 345.2;" xml:space="preserve">
<style type="text/css">
	.st0{fill:#9CB3BD;}
	.st1{fill:#4175BF;}
	.st2{fill:#8DA7C2;}
	.st3{fill:#749CCD;}
	.st4{fill:#8A5E80;}
	.st5{fill:#EC6A47;}
	.st6{fill:#DC9491;}
	.st7{fill:#5285C9;}
	.st8{fill:#7FA9DD;}
	.st9{fill:#839CC1;}
	.st10{fill:#86A2BB;}
	.st11{fill:#5D90CC;}
	.st12{fill:#EEA190;}
	.st13{fill:#FEA77A;}
	.st14{fill:#1C51AD;}
	.st15{fill:#FD9564;}
	.st16{fill:#5689C7;}
	.st17{fill:#CE8F8E;}
	.st18{fill:#6EA0D5;}
	.st19{fill:#F86142;}
	.st20{fill:#806E7E;}
	.st21{fill:#FA9D7F;}
	.st22{fill:#6798D4;}
	.st23{fill:#6792D3;}
	.st24{fill:#7D9ACB;}
	.st25{fill:#C48B94;}
	.st26{fill:#F6AB8F;}
	.st27{fill:#723F72;}
	.st28{fill:#EA9F97;}
	.st29{fill:#EB9879;}
	.st30{fill:#F1A796;}
	.st31{fill:#84899E;}
	.st32{fill:#C76F7E;}
	.st33{fill:#93A4B0;}
	.st34{fill:#984A6A;}
	.st35{fill:#FE9D6C;}
	.st36{fill:#275DB3;}
	.st37{fill:#81738F;}
	.st38{fill:#4B7CC1;}
	.st39{fill:#E19393;}
	.st40{fill:#FE8A5E;}
	.st41{fill:#EA9685;}
	.st42{fill:#8DB3DE;}
	.st43{fill:#FE906A;}
	.st44{fill:#E77B85;}
	.st45{fill:#3562B4;}
	.st46{fill:#F0908E;}
	.st47{fill:#80496A;}
	.st48{fill:#7F8894;}
	.st49{fill:#8E345E;}
	.st50{fill:#E68F6E;}
	.st51{fill:#97B6D1;}
	.st52{fill:#0B37A0;}
	.st53{fill:#BC7884;}
	.st54{fill:#285BB4;}
	.st55{fill:#8AA2C7;}
	.st56{fill:#FBA182;}
	.st57{fill:#FC6848;}
	.st58{fill:#FD7E57;}
	.st59{fill:#85A2B6;}
	.st60{fill:#6F99D4;}
	.st61{fill:#A05273;}
	.st62{fill:#F07050;}
	.st63{fill:#877686;}
	.st64{fill:#F04A3A;}
	.st65{fill:#5B8CCC;}
	.st66{fill:#C99099;}
	.st67{fill:#618FCF;}
	.st68{fill:#E19896;}
	.st69{fill:#8593A8;}
	.st70{fill:#265BB3;}
	.st71{fill:#8A547D;}
	.st72{fill:#8B90A3;}
	.st73{fill:#E59898;}
	.st74{fill:#937C93;}
	.st75{fill:#7E5B82;}
	.st76{fill:#82A1D0;}
	.st77{fill:#883A66;}
	.st78{fill:#E97D59;}
	.st79{fill:#7D9DCB;}
	.st80{fill:#CC7684;}
	.st81{fill:#5484C5;}
	.st82{fill:#FE8F65;}
	.st83{fill:#887B94;}
	.st84{fill:#EE9E7E;}
	.st85{fill:#F64C39;}
	.st86{fill:#7EA2D5;}
	.st87{fill:#FE875D;}
	.st88{fill:#1C4FAE;}
	.st89{fill:#A2B7C2;}
	.st90{fill:#EB818A;}
	.st91{fill:#FE9A6A;}
	.st92{fill:#7A4A79;}
	.st93{fill:#7B497B;}
	.st94{fill:#A43F64;}
	.st95{fill:#906788;}
	.st96{fill:#82678C;}
	.st97{fill:#868E9A;}
	.st98{fill:#B2788C;}
	.st99{fill:#B04E6F;}
	.st100{fill:#8EA6B1;}
	.st101{fill:#3E6BBA;}
	.st102{fill:#963E68;}
	.st103{fill:#1841A5;}
	.st104{fill:#4B7EC3;}
	.st105{fill:#895373;}
	.st106{fill:#1941A6;}
	.st107{fill:#6598D2;}
	.st108{fill:#BCD2CB;}
	.st109{fill:#C8E4D8;}
	.st110{fill:#C4D2C3;}
	.st111{fill:#B1BFB8;}
	.st112{fill:#5386C7;}
	.st113{fill:#1C51AF;}
	.st114{fill:#4074BC;}
	.st115{fill:#5E91D1;}
	.st116{fill:#1A4FAB;}
	.st117{fill:#4176C3;}
	.st118{fill:#88A1AC;}
	.st119{fill:#9DB6D2;}
	.st120{fill:#89A4B9;}
	.st121{fill:#81A8D4;}
	.st122{fill:#99B6D8;}
	.st123{fill:#467BC1;}
	.st124{fill:#799BCC;}
	.st125{fill:#B1999F;}
	.st126{fill:#B68792;}
	.st127{fill:#C29B9E;}
	.st128{fill:#77517C;}
	.st129{fill:#AB7186;}
	.st130{fill:#895C7D;}
	.st131{fill:#BA8C99;}
	.st132{fill:#85587B;}
	.st133{fill:#F39060;}
	.st134{fill:#F88958;}
	.st135{fill:#ED4132;}
	.st136{fill:#E67652;}
	.st137{fill:#E3C7AE;}
	.st138{fill:#F0C9AC;}
	.st139{fill:#EAC6B2;}
	.st140{fill:#9FD0EB;}
	.st141{fill:#7CAEDA;}
	.st142{fill:#8ABDE3;}
	.st143{fill:#8FBBE3;}
	.st144{fill:#5789CC;}
	.st145{fill:#A7CBE6;}
	.st146{fill:#6690CF;}
	.st147{fill:#92B3CF;}
	.st148{fill:#AFD0E1;}
	.st149{fill:#F4AE96;}
	.st150{fill:#FEC68A;}
	.st151{fill:#FEC47E;}
	.st152{fill:#FEC882;}
	.st153{fill:#FD7A53;}
	.st154{fill:#B7727E;}
	.st155{fill:#C8C3AE;}
	.st156{fill:#FD8255;}
	.st157{fill:#FD5E41;}
	.st158{fill:#F34332;}
	.st159{fill:#929496;}
	.st160{fill:#897783;}
	.st161{fill:#F7C99C;}
	.st162{fill:#84B4E0;}
	.st163{fill:#DAA6A0;}
	.st164{fill:#844C77;}
	.st165{fill:#E5B2A4;}
	.st166{fill:#F6B583;}
	.st167{fill:#F2AB76;}
	.st168{fill:#9294A2;}
	.st169{fill:#7F8DA3;}
	.st170{fill:#ACB0AF;}
	.st171{fill:#AF908F;}
	.st172{fill:#956478;}
	.st173{fill:#7F315D;}
	.st174{fill:#FED793;}
	.st175{fill:#0F45A8;}
	.st176{fill:#487DC8;}
	.st177{fill:#8E748C;}
	.st178{fill:#BDB4AE;}
	.st179{fill:#789DD4;}
	.st180{fill:#7596C4;}
	.st181{fill:#94ACAE;}
	.st182{fill:#AA4866;}
	.st183{fill:#834A6E;}
	.st184{fill:#7797C8;}
	.st185{fill:#E2F4DC;}
	.st186{fill:#C0DFE4;}
	.st187{fill:#E6E7C7;}
	.st188{fill:#EDEAC8;}
	.st189{fill:#70A3D5;}
	.st190{fill:#1A4EA9;}
	.st191{fill:#93BCDF;}
	.st192{fill:#B3CADF;}
	.st193{fill:#A6BED2;}
	.st194{fill:#BFA1A1;}
	.st195{fill:#BCB1AD;}
	.st196{fill:#BDB5B4;}
	.st197{fill:#8E7489;}
	.st198{fill:#8E748A;}
	.st199{fill:#DDB9AA;}
	.st200{fill:#FCC48D;}
	.st201{fill:#FDAC6E;}
	.st202{fill:#DCD7BB;}
	.st203{fill:#F3D8B0;}
	.st204{fill:#C6E6F5;}
	.st205{fill:#BEDEEE;}
	.st206{fill:#A4CAE4;}
	.st207{fill:#AED6F1;}
	.st208{fill:#B6DBEF;}
	.st209{fill:#92B3CC;}
	.st210{fill:#C8EAEF;}
	.st211{fill:#F7B7A0;}
	.st212{fill:#FCD89E;}
	.st213{fill:#FDCD85;}
	.st214{fill:#FDAA6D;}
	.st215{fill:#FEDD93;}
	.st216{fill:#FDDC98;}
	.st217{fill:#B7B3A6;}
	.st218{fill:#CED8BD;}
	.st219{fill:#C0C9B4;}
	.st220{fill:#9F9C9A;}
	.st221{fill:#A08388;}
	.st222{fill:#F4FAC9;}
	.st223{fill:#FDCEAD;}
	.st224{fill:#EDC8B0;}
	.st225{fill:#FCC39F;}
	.st226{fill:#916475;}
	.st227{fill:#DDD0BA;}
	.st228{fill:#A2BAC1;}
	.st229{fill:#F9F1CD;}
	.st230{fill:#F2F6D7;}
	.st231{fill:#F3FAE7;}
	.st232{fill:#E7FAEF;}
	.st233{fill:#F4E1BF;}
	.st234{fill:#BBD2DB;}
	.st235{fill:#B9CFC8;}
	.st236{fill:#FDCC88;}
	.st237{fill:#F0F9DF;}
	.st238{fill:#E6F3DA;}
	.st239{fill:#E0EECE;}
	.st240{fill:#C9DFE5;}
	.st241{fill:#E5F3F2;}
	.st242{fill:#D2E5DF;}
	.st243{fill:#E1F2F8;}
	.st244{fill:#D9F1F2;}
	.st245{fill:#FDF8B3;}
	.st246{fill:#FEFBB1;}
	.st247{fill:#FEF5AC;}
	.st248{fill:#FEE6A8;}
	.st249{fill:#FDE4B2;}
	.st250{fill:#FEF3B2;}
	.st251{fill:#AAB6AA;}
	.st252{fill:#D2E5D0;}
	.st253{fill:#ABC3BC;}
	.st254{fill:#F9FCC9;}
	.st255{fill:#FDDCB3;}
	.st256{fill:#FEFCD4;}
	.st257{fill:#FEF5C4;}
	.st258{fill:#FEF1C1;}
	.st259{fill:#FEF9CB;}
	.st260{fill:#FBFDDD;}
	.st261{fill:#ECF8EE;}
	.st262{fill:#F8FCDC;}
	.st263{fill:#F3FAE9;}
	.st264{fill:#DEEEE9;}
	.st265{fill:#E2F0E0;}
	.st266{fill:#F2F9F0;}
	.st267{fill:#FEFAB9;}
</style>
<g>
	<path class="st0" d="M404,620c-0.3,0-0.7,0-1,0c-4.7-4.5-5.3-11-7.5-16.6c-3.1-7.9-6-15.8-9.1-23.8c-1-2.5-1.3-5.1-1.2-7.8
		c0.1-0.6,0.4-1.1,0.8-1.5c0.5-0.4,1-0.6,1.6-0.7c9.9-3,20.2-3.2,30.4-4.6c16.9-2.2,33.8-4.7,50.7-6.7c4.1-0.5,8.2,0.3,12.3-0.8
		c0.5,0,1,0.2,1.5,0.4c1.1,0.8,1.4,1.8,0.8,3c-1,1.9-1.7,4-3.3,5.5c-11.3,10.7-21.1,22.8-32.5,33.5c-6.8,6.7-13,13.9-20.4,20
		c-0.3,0-0.7,0-1,0C418.7,619.2,411.3,619.2,404,620z"/>
	<path class="st1" d="M743,620c-0.3,0-0.7,0-1,0c-3.4-1.1-6.9-0.2-10.3-0.5c-2.8-1.2-1.3-3.1-0.9-4.9c1.5-7.9,4.1-15.7,3.9-23.9
		c0-0.3-0.1-0.7-0.1-1c-0.1-1,0-2,0-3.1c1.7-8.2,3.3-16.4,5.4-24.5c0.4-1.6,1-3.1,2.2-4.4c3.5-2,6.7-0.4,9.9,0.9
		c17.6,7.3,35,15.1,52.6,22.4c3.1,1.3,5.8,3.1,8.4,5.2c0.3,0.5,0.4,1,0.3,1.5c-0.5,1.3-1.6,2-2.9,2.3c-9.1,1.7-17.1,5.7-24.5,11.1
		c-0.8,1-1.8,1.6-2.9,2.1c-7.7,2.9-14.8,7.1-22.4,10.1c-4.3,2.5-8.8,4.5-13.7,5.4C745.6,619.2,744.2,619.2,743,620z"/>
	<path class="st2" d="M860,396c0,2,0,4,0,6c-0.7,0.5-1.1,1.3-1.1,2.2c-2.8,6.9-8.1,12.1-12.6,17.7c-10.8,13.6-21.2,27.6-32.3,41
		c-1.6,1.9-3.3,3.7-6.1,3.8c-3-1-4.7-3.5-6.6-5.9c-7.2-9.2-13.6-18.8-20.3-28.4c-1.2-1.8-2.4-3.7-1.4-6c4.4-3.7,9.6-5.9,14.9-7.8
		c6.9-2.4,13.3-6.1,20.5-7.7c1.8,0.2,3.2-0.6,4.5-1.8c11.3-5.5,23.4-9,34.8-14.2c1.4-0.6,2.9-0.7,4.3,0
		C859.2,395.3,859.6,395.6,860,396z"/>
	<path class="st3" d="M860,516c0,0.3,0,0.7,0,1c-1.5,1.6-3.3,2.7-5.4,3.3c-16.5,5.3-32.8,10.9-49.4,15.8c-1.8,0.5-3.5,0.9-5.4,0.9
		c-0.9-0.1-1.6-0.5-2.1-1.3c-0.9-9.3,1.5-18.4,2.6-27.5c1.3-11.2,3.3-22.3,4.5-33.4c0.2-2.1,1.3-3.7,1.7-5.7
		c0.1-0.5,0.2-1.1,0.5-1.6s0.7-0.8,1.2-1c1-0.2,2-0.7,3-0.2c4,4.3,9.1,7.3,13.6,11.1c3.2,2.6,6.6,4.8,8.6,8.6
		c2.8,5.8,8.1,8.7,13.6,11.4c5,3.1,9.1,7,12.5,11.8C859.8,511.5,858.9,513.8,860,516z"/>
	<path class="st4" d="M185,620c-0.3,0-0.7,0-1,0c-0.4-0.4-0.8-0.7-1.2-1c-2.2-1.7-2.2-4.4-2.8-6.7c-3.5-15.1-8.3-30-10.6-45.4
		c-0.2-1.6-1.3-3-1.7-4.6c0-0.9,0.4-1.6,1.1-2.1c0.7-0.4,1.5-0.5,2.3-0.5c2.5,0.4,5,0.5,7.1,2.3c4,3.1,9,2.4,13.5,3.6
		c2.8,0.7,5.8,1.4,8.7-0.2c4.9,0.1,9.6,1.3,13.8,3.9c-0.5-0.5,0.7,0.7,0.1,0.5c-0.2,0-0.2,0.8-0.1,0.8c2.3-0.7,4.8-0.2,7.1-1
		c2.4-0.4,4.4,1.3,6.7,1.4c0.5,0.2,0.9,0.5,1.3,0.9c0.3,0.5,0.4,1,0.4,1.5c-4.9,14.8-12.6,28.4-19.1,42.6c-0.8,1.7-2.1,3-3.8,3.8
		c-0.6,0-1.1,0.1-1.7,0.1C198.3,619.8,191.6,618.9,185,620z"/>
	<path class="st5" d="M160,292c0-0.3,0-0.7,0-1c0.4-0.4,0.9-0.7,1.4-1c5.3-0.9,10.5,0.8,15.6,1.5c9.6,1.3,19.1,3.4,28.7,5.1
		c1.2,0.2,2.1,0.6,2.6,1.8c0,0.6-0.1,1.1-0.5,1.5c-2,1.3-2.3,3.5-3.2,5.5c-8.7,20.3-17,40.6-25.9,60.8c-0.8,1.8-1.6,3.7-3.7,4.5
		c-2.2,0.4-3.5-0.8-4.4-2.5c-3.8-7.7-9.3-14.8-10.2-23.8c0-0.6,0-1.1,0-1.7c0-15.3,0-30.6,0-45.8C160.5,295.2,161,293.5,160,292z"/>
	<path class="st6" d="M632,275c0.7,0,1.3,0,2,0c1.5,3.1,2.3,6.5,3,9.9c2,10,4.4,20,6.8,30c0.6,2.4,1,5-1.4,6.8
		c-6.4,1.6-12-1.7-17.9-3c-4-0.9-8-2.1-12-3.3c-4-2-8.2-3.4-12.7-3.6c-8.8-2.9-18.1-4.3-26.7-8.1c-0.5-0.2-0.9-0.6-1.2-0.9
		c-0.3-0.4-0.5-0.9-0.5-1.4c3.9-9.2,10-17,16.3-24.6c0.7-0.6,1.6-0.9,2.3-1.6c0.3,0,0.7,0,1,0c8.4,1.1,16.8,0.4,25.2,0.4
		C621.5,275.5,626.8,276.1,632,275z"/>
	<path class="st7" d="M678,620c-0.3,0-0.7,0-1,0c-2.8-2.8-1.2-6.1-0.4-8.9c5.4-21.6,11.1-43.1,16.5-64.6c0.4-1.8,1.7-3.3,1.7-5.2
		c0.1-0.6,0.4-1,0.8-1.5c0.5-0.4,1-0.5,1.6-0.6c1.2,0,2.2,0.6,2.8,1.6c8.4,23.1,16.2,46.5,24.5,69.6c1,2.8,4.1,6.4-0.6,9
		c-13.7,0-27.4,0-41.1,0C681.2,619.5,679.5,619.1,678,620z"/>
	<path class="st8" d="M570,620c-1.7,0-3.3,0-5,0c-2.1-1-3-3-3.6-5.1c-3.6-11.9-5.4-24.1-8-36.2c-0.4-1.9-0.2-3.6,1.1-5.1
		c0.7-0.6,1.5-0.9,2.4-1c23.6,1.9,46.8,6.7,70.2,10.2c2.5,0.4,4.8,1.2,7.1,2.1c0.5,0.3,0.8,0.7,1.1,1.2c0.1,0.5,0,1.1-0.3,1.5
		c-5.9,5.3-13.5,7.6-20.4,11.2c-1,0.5-2.1,0.9-3.2,1.4c-11.9,5.6-23.4,12.2-35.3,17.9c-1.1,0.3-2.1,0.7-3.3,0.8
		C571.9,619.1,570.8,619.2,570,620z"/>
	<path class="st9" d="M811,467c-1,0-2,0-2.9,0c-0.2-0.2-0.3-0.4-0.2-0.7c0.1-0.2,0.1-0.3,0.2-0.3c5.6-4.5,9.4-10.6,13.9-16.2
		c11.8-14.7,23.3-29.8,34.9-44.7c0.5-0.6,0.8-1.4,1.2-2.1c2.8,0.7,1.4,3,1.4,4.4c0.1,16.7,0.1,33.5,0.1,50.2c0,1.8-0.5,3.6,0.5,5.4
		c0,4,0,8,0,12c-3.9,2.5-7.8,0-11.6-0.2c-9.9-0.4-19.5-4-29.6-3.8C815.6,471.1,813.3,469,811,467z"/>
	<path class="st10" d="M446,599c8.1-8.6,16.2-17.3,24.4-25.9c4.3-4.5,9-8.8,12.6-14c0.5-0.4,1.1-0.6,1.7-0.4
		c0.5,0.4,0.8,0.9,0.9,1.6c-0.2,19.4,0.3,38.8-0.5,58.2c-0.3,0.6-0.7,1.1-1.1,1.5c-18.7,0-37.3,0-56,0c2.1-4.5,6.7-6.9,9.7-10.7
		C440.5,605.9,444.7,603.6,446,599z"/>
	<path class="st11" d="M725,619c-6.6-18.8-13.3-37.6-19.7-56.5c-2.4-7-6.2-13.7-6.3-21.4c1.9-1.9,4-1.1,6-0.4
		c11.5,4.3,23,8.5,34.3,13c1.6,0.6,3,1.3,3.9,2.9c0.2,0.5,0.2,1-0.2,1.5c-2.5,9.6-3.6,19.6-6.9,29c-1.2,8.3-4.9,16.2-4,24.9
		c-0.1,1.9-1.1,3.5-1.5,5.3c-0.1,0.4-0.3,0.8-0.6,1.2c-1.2,1-2.8,0.7-4,1.6c-0.3,0-0.7,0-1,0C724.3,619.7,724.3,619.3,725,619z"/>
	<path class="st12" d="M160,456c0-5,0-10,0-15c6.5-10.5,15.1-19.3,22.8-28.8c1.5-1.8,3.4-3.9,6.4-2.2c2.3,1.9,2.2,4.8,2.7,7.3
		c3.9,19.4,7.3,38.9,11.1,58.3c0.6,2.9,1.1,5.9,0,8.9c-3.3,3-5.9,0.5-8.3-1.3c-10.3-7.6-20.9-14.8-31.1-22.6
		C161.9,459.3,161.5,457.3,160,456z"/>
	<path class="st13" d="M426,275c10.7,0,21.3,0,32,0c1,1.1,2.5,1.5,3.5,2.5c3.4,3.1,4.9,7.3,7.5,11c2.9,4,5.4,8.3,8.2,12.3
		c1.6,2.3,3.2,4.9,0.1,7.4c-1.9,1-3.8,0.9-5.8,0.6c-17.6-2.1-35.3-3.9-53-5.7c-5.9-0.6-11.8-1.4-17.6-3c-0.5-0.2-0.9-0.6-1.3-1
		c-1.2-2.4,0.5-4,1.9-5.1C409.7,287.7,416.3,279.4,426,275z"/>
	<path class="st14" d="M842,620c-0.7,0-1.3,0-2,0c-5.9-1.1-6.9-2.1-8-9.9c-1.8-13-3.7-25.9-5.4-38.9c-0.4-2.8-0.4-5.6,0.9-8.3
		c3.1-2.7,6.4-0.5,9.4,0c6.2,1,12,3.7,18.1,5.2c2.5,0.6,4,2.3,4.5,4.8c0.1,12.5,0,25.1,0,37.6c-0.2,3.3-2.9,4.2-5.2,5.2
		c-3.3,1.4-6.8,2.5-10.2,3.5C843.3,619.3,842.6,619.5,842,620z"/>
	<path class="st15" d="M357,275c0.3,0,0.7,0,1,0c4.4,5.9,8.3,23.6,6.6,29.9c-2.9,2.8-7.2,2.3-10.5,4.1c-11.7,2.8-23.3,5.7-35.1,8.3
		c-2,0.4-3.9,0.6-5.8-0.4c-2.4-2.3-1.1-4.7,0.1-6.8c6.8-11.4,12.6-23.4,21-33.8c0.7-0.4,1.4-0.7,2.2-0.8
		C343.5,275.2,350.3,276.1,357,275z"/>
	<path class="st16" d="M800,536c6.4-3.3,13.5-4.5,20.2-6.8c11.2-3.9,22.7-7.4,34-11.1c1.9-0.6,3.8-1.2,5.8-1.1c0,1.7,0,3.3,0,5
		c-0.5,0.5-0.6,1.2-0.9,1.8c-8.7,13.9-18.5,26.8-29.9,38.5c-0.5,0.1-0.9,0.3-1.4,0.4c-2,0.6-3.6-0.5-4.9-1.7
		c-7.3-7-15.2-13.3-21.9-20.8C799.7,538.9,798.6,537.8,800,536z"/>
	<path class="st17" d="M642,321c0.7-1.2,0.6-2.5,0.2-3.8c-3-10.5-5.3-21.1-7.3-31.8c-0.6-3.5-3.2-6.7-0.9-10.4c5.7,0,11.3,0,17,0
		c2.6,1.3,4.4,3.2,5.9,5.8c5,8.4,10.4,16.5,15.8,24.6c1.7,2.5,3,5.1,3.1,8.2c-0.1,0.5-0.4,1-0.7,1.4c-1.6,1.6-3.6,2.4-5.7,2.8
		c-6.5,1.2-12.9,3.1-19.3,4.6c-2.4,0.6-4.6,0.7-6.8-0.2C642.7,321.9,642.3,321.5,642,321z"/>
	<path class="st18" d="M696,541c-0.2,8.7-3.6,16.7-5.7,25c-4.1,16.6-8.7,33-13,49.5c-0.4,1.4-0.3,3-0.4,4.4c-1.3,0-2.7,0-4,0
		c-1.5-11-4-21.8-6.8-32.5c-1.5-5.8-1.8-11.8-4.1-17.4c-0.9-2.3,0-4.6,0.5-6.8c0.3-1.2,1-2.1,1.9-2.8c9-6.6,17.8-13.5,27.5-19.1
		C693.4,540.5,694.6,539.7,696,541z"/>
	<path class="st19" d="M208,299c-0.7-0.3-1.4-0.7-2.1-1c-0.3-0.4-0.4-0.8-0.5-1.3c2.8-7.8,8.5-13.6,13.5-19.9c0.6-0.7,1.5-1,2.1-1.7
		c0.3,0,0.7,0,1,0c7,1.2,14,0.2,21.1,0.5c2.8,0.1,5.6,0,8.4,0.1c1.4,0.5,1.5,1.8,1.2,2.9c-1.6,7.1,1.9,13.7,1.4,20.7
		c-0.2,2.4,0.5,5-1.3,7.2c-0.3,0.3,2.1,0.6,2.4,2c-0.7,2.6-3.2,2-4.9,2.6c-10.3-1.6-20.3-4.7-30.5-6.9c-2.4-0.5-4.9-0.9-7.3-1.6
		C210.6,301.8,208.8,301.1,208,299z"/>
	<path class="st20" d="M860,304c0,0.3,0,0.7,0,1c-1.1,3.2-0.4,6.5-0.5,9.8c-0.1,14,0,28.1-0.1,42.1c-2.1,5.3-6.7,5.2-11.2,5.2
		c-1.4-0.5-2.7-1.2-3.2-2.8c-1.4-9.3-3-18.6-4.9-27.9c-2.3-11.5-4.5-23.1-6.6-34.7c-0.4-2.2-0.4-4.3,0.6-6.3c1.4-1.6,3-1.1,4.5-0.3
		C846.2,294.1,853.9,297.7,860,304z"/>
	<path class="st21" d="M478,307c-2.8-7.2-8.5-12.5-12-19.3c-1.7-3.4-4-6.5-6-9.7c-1.1-3,1.1-2.4,2.7-2.4c9.8-0.2,19.7,0.1,29.5-0.1
		c8.3-0.2,16.6,0.8,24.9-0.5c2,0,4,0,6,0c1,2.9-1.3,4.3-3,5.7c-10.6,8-21.3,16-32.6,22.9c-2.3,1.4-4.1,3.4-6.7,4.3
		c-0.5,0.1-1,0.1-1.5,0C478.7,307.7,478.3,307.4,478,307z"/>
	<path class="st22" d="M664,563.1c-0.6,3.5,0.7,6.7,1.4,10.1c2.2,11.8,6.2,23.3,7.7,35.3c0.2,1.8,0.8,3.6,1.4,5.3
		c0.9,2.4,0.6,4.5-1.4,6.3c-0.3,0-0.7,0-1,0c-0.6-0.8-1.5-1-2.3-1.3c-12-8.2-22.1-18.7-32.8-28.3c-1-0.9-1.7-2.1-1.9-3.5
		c0-0.3,0-0.6,0.1-0.9c-0.1-0.7,0.1-1.4,0.5-2.1c8.2-7.4,16.7-14.5,25.7-20.9C662.1,562.6,663.1,562.4,664,563.1z"/>
	<path class="st23" d="M572,618c1-0.3,2-0.7,3-1c4-0.9,7.9-2.6,11.3-4.6c7.2-4.3,15.1-7.3,22.3-11.7c0.8-0.5,1.9-0.7,2.4-1.7
		c7.3-4.7,15.3-8,23.1-11.9c1.9,1.4,3,3.3,2.5,5.5c-1.9,8.6-2,17.6-4.5,26.1c-0.3,0.4-0.7,0.9-1.1,1.3c-0.3,0-0.7,0-1,0
		c-1.7-0.9-3.6-0.5-5.4-0.5c-16,0-32.1,0-48.1-0.1C575,619.4,572.8,620.8,572,618z"/>
	<path class="st24" d="M811,467c16.3,3.2,32.9,3.8,49,8c0,2,0,4,0,6c-1.1,7-0.1,14.1-0.5,21.2c-0.1,2.3,0.5,4.6-0.5,6.8
		c-5.7-1.5-8.3-7.2-13-10c-4.3-4.5-9.6-7.7-14-12c-5-6.5-12.4-10.1-18.4-15.6C812.2,470.1,810.9,469.1,811,467z"/>
	<path class="st25" d="M160,547c0-0.7,0-1.3,0-2c1.1-3.6,0.3-7.2,0.5-10.8c0.4-10.1-0.6-20.3,0.5-30.4c6.2-3.6,12.9-1.6,19.4-1.6
		c1,0,1.9,0.4,2.9,0.7c0.5,0.3,1,0.7,1.3,1.2c0.5,7.3-1.7,14.1-3.6,21c-2.5,9.1-4.7,18.3-6.7,27.5c-0.7,3-1.9,5.6-4.3,7.6
		c-3.9,0.9-5-2.1-6.4-4.6c-1-1.7-1.2-3.7-2.3-5.3C160.9,549.2,160.9,547.9,160,547z"/>
	<path class="st26" d="M480,307c12.1-8.7,24.2-17.4,36.3-26.1c2.4-1.7,4.9-3.4,6.7-5.8c3.3,0,6.7,0,10,0c3.1,2.8,2.3,6.3,1.4,9.6
		c-1.5,5.9-1.3,12.4-5.4,17.5c-0.4,0.5-0.9,0.8-1.4,1.1c-7.7,3.1-16,2.8-24,3.8c-5.8,0.7-11.6,1.1-17.3,1.8
		C483.9,309.1,481.6,309.3,480,307z"/>
	<path class="st27" d="M168,561.9c2.6,0.9,2.5,3.3,3,5.3c4.3,17.2,8.6,34.5,12.9,51.8c-5.3,1.2-10.8,0.2-16.1,0.5
		c-1.9,0.1-3.9-0.5-5.8,0.5c-0.3,0-0.7,0-1,0c-1.1-7-0.2-14.1-0.5-21.2c-0.2-2.9,0.2-5.8,0.6-8.6c2.2-9.2,2.8-18.9,6.2-27.8
		C167.5,562.2,167.8,562.1,168,561.9z"/>
	<path class="st28" d="M160,456c4.9,2.7,10.1,5,13.4,10c0.1,0.1,0.2,0.3,0.3,0.4c10.4,4.7,18,13.7,28.3,18.6
		c0.8,0.2,1.2,0.7,1.5,1.5c0.1,0.5,0,1-0.2,1.4c-3.9,6.5-10.6,9.9-15.7,15.2c-1,1-2.4,1.1-3.7,0.5c-2.7,0-4.2-1.8-5.3-3.9
		C172.5,488,165,477.2,160,465C160,462,160,459,160,456z"/>
	<path class="st29" d="M160,387c0-1.3,0-2.7,0-4c5.2-3.3,7.9-9.3,13.6-12.1c0.5-0.2,0.9-0.3,1.4-0.2c0.5,0.1,0.9,0.4,1.3,0.7
		c5.5,11.7,10.1,23.7,13,36.3c-0.1,0.5-0.4,1-0.8,1.4c-0.5,0.3-1,0.5-1.5,0.7c-5.2,2.8-11.1,3.7-16.6,5.7c-3.1,1.1-7.1,2.1-9.7-1.8
		C160.1,404.7,161.2,395.8,160,387z"/>
	<path class="st30" d="M528,302c2.4-8.9,5.2-17.6,5-27c4.3,0,8.7,0,13,0c3.8,1.4,6.7,4.1,9.4,7c5.6,6,12.3,11,16.5,18.3
		c0,0.2,0.1,0.5,0.1,0.7c0,0.3,0,0.6,0.1,0.9c-1.8,2.2-4.3,2.3-6.8,2.3c-10,0.2-19.9,0.2-29.9,0C532.8,304.1,530.1,304.1,528,302z"
		/>
	<path class="st31" d="M317,620c-0.3,0-0.7,0-1,0c-1.3-1-3.5-1.2-3.6-3.4c0-0.5,0.2-1,0.5-1.5c1.9-2.2,4.3-3.7,6.9-4.8
		c11.9-4.8,23.1-11,34.9-16.1c3.3-1.5,6.8-2.5,10.1-4.1c1.3-0.6,2.6-0.3,3.7,0.7c2.2,2.8,0.4,5.5-0.4,8c-2.4,7.6-6.6,14.2-11.3,20.6
		c-0.6,0.1-1.2,0.1-1.8,0.1c-11.1,0-22.1,0-33.2,0C320.2,619.5,318.5,619.1,317,620z"/>
	<path class="st32" d="M675,313c-8-12.7-16-25.3-24-38c1.7,0,3.3,0,5,0c10.2,1.1,20.4,0.2,30.5,0.5c0.6,0,1.1,0.1,1.7,0.3
		c1.5,1.6,1.2,3.3,0.5,5.1c-3.8,8.8-5.4,18.4-8.9,27.3C678.9,310.4,678.4,313.2,675,313z"/>
	<path class="st33" d="M386,572c5.5,14.9,11.1,29.7,16.6,44.6c0.4,1,0.3,2.3,0.4,3.4c-2.7,0-5.3,0-8,0c-1.1-0.8-2.4-1.3-3.5-2.1
		c-7.8-8.8-16.3-16.8-22.5-26.9c-0.2-0.7-0.4-1.4-0.3-2.2c3.1-6.6,9.1-10.8,13.6-16.2C383.2,571.6,384.6,571.2,386,572z"/>
	<path class="st34" d="M817,275c0.3,0,0.7,0,1,0c5,2.2,9.4,5.4,13.4,9.1c1.4,1.3,3.1,2.6,3,4.9c-0.3,0.5-0.6,0.9-1.2,1.2
		c-4.4,1.9-8.9,0.3-13.3-0.1c-17.6-1.7-35.3-3.6-52.9-4.9c-2.2-0.2-4-1.6-6.2-1.7c-0.6-0.1-1.2-0.3-1.7-0.7
		c-0.5-0.4-0.8-0.9-0.9-1.5c0.5-2.9,1.6-5.2,4.9-5.7c16.3,0,32.6,0,48.9,0C813.7,275.5,815.4,275.9,817,275z"/>
	<path class="st35" d="M400,298c0,0.3,0,0.6,0,0.9c-0.1,0.2-0.3,0.5-0.4,0.7c-0.4,0.4-0.9,0.6-1.5,0.8c-9.3,3-19,3.6-28.5,5.4
		c-1.3,0.3-2.6,0-3.8-0.7c-2.3-2.3-0.4-4.6,0.7-6.1c5.4-7.4,10.6-15,17.1-21.6c1-1.1,2.3-1.6,3.5-2.4c4.3,0,8.7,0,13,0
		c4,5.6,1.9,11.8,1.4,17.8C401.3,294.6,399.8,296.1,400,298z"/>
	<path class="st36" d="M828,563.1c2.3,17.2,4.8,34.4,6.9,51.6c0.4,3.4,2.8,4.2,5,5.4c-1.7,0-3.3,0-5,0c-0.5-0.5-1.2-0.6-1.8-1
		c-3.3-2-4.8-5.5-6.8-8.5c-4.8-7.1-10.4-13.8-13.4-22c0-0.2-0.1-0.5-0.1-0.7c0-0.3,0.1-0.6,0.1-0.8c-0.1-0.7-0.2-1.4,0.1-2
		c0.8-2.4,1.9-4.7,3.5-6.7c1.7-2.2,2.5-4.8,4.1-7.1c2.1-2.9,2.2-7.4,6.6-8.5C827.6,562.9,827.8,563,828,563.1z"/>
	<path class="st37" d="M313,616c0,0.3,0,0.6,0.1,0.9c-1.3,2.4-4.4,1.2-6,3c-0.3,0-0.7,0-1,0c-8.2-1.1-16.4-0.2-24.5-0.5
		c-3.8-0.7-2.7-3.1-1.4-5.1c1.6-2.5,4-4.3,6.2-6.4c5.9-5.5,10.7-12.1,16.8-17.5c1.1-1,1.9-2.3,3.6-2.3c0.3,0.1,0.5,0.1,0.8,0.2
		c0.2,0.1,0.5,0.3,0.7,0.4c2.9,3,3,7.1,3.5,10.7C312.3,605,315.4,610.3,313,616z"/>
	<path class="st38" d="M829,561.9c9.4-13.5,19.4-26.5,30-38.9c1.1,7.4,0.2,14.8,0.5,22.2c0.1,2.3-0.5,4.6,0.5,6.8c0,0.3,0,0.7,0,1
		C853.6,557.8,835,563.1,829,561.9z"/>
	<path class="st39" d="M160,465c3.6,2.6,5.4,6.6,7.5,10.3c5,8.9,9.9,17.8,14.9,26.7c0.3,0.5,1.1,0.7,1.6,1c0.3,0.2,0.3,0.4,0.3,0.7
		c-0.1,0.2-0.2,0.3-0.3,0.3c-7.7,0-15.3,0-23,0c-0.1-0.3-0.1-0.6-0.2-0.9c-0.7-10.3-0.1-20.5-0.3-30.8c0-1.8,0.5-3.6-0.5-5.4
		C160,466.3,160,465.7,160,465z"/>
	<path class="st40" d="M385,278c-6.7,8.7-13.3,17.3-20,26c-0.3,0.3-0.6,0.3-0.9,0.1c-0.9-9.9-5.1-19.1-6.1-29c0.3,0,0.7,0,1,0
		c7.6,1.1,15.2,0.1,22.8,0.5C383.3,275.6,386,274.6,385,278z"/>
	<path class="st41" d="M161,414c6.8,1.4,12.5-2.7,18.9-3.9c2.7-0.5,5.4-1,8.1-1.1c0.2,0.3,0.2,0.7,0,1c-7.1,6.9-12.8,15.1-19.3,22.5
		c-2.6,3-4.5,7-8.6,8.5c0-9,0-18,0-27C160.3,413.3,160.7,413.3,161,414z"/>
	<path class="st42" d="M555,574c3.4,15.3,4.8,31.1,10,46c-0.7,0-1.3,0-2,0c-0.7-0.7-1.6-1.1-2.3-1.9c-5.7-9-10-18.7-14.6-28.3
		c-2.4-5-5-10-6.3-15.5c0.1-0.6,0.4-1.1,0.7-1.6C545.8,569.7,550.3,570.2,555,574z"/>
	<path class="st43" d="M400,298c-1.4-1.7-1.2-3.8-0.8-5.7c1.4-5.7,0.5-11.5,0.8-17.3c8.7,0,17.3,0,26,0
		c-5.4,6.3-12.2,11.1-18.4,16.6C405.1,293.8,402.5,295.9,400,298z"/>
	<path class="st44" d="M589,277c-5.1,7.7-10.2,15.4-15.3,23.1c-0.3,0.5-1.1,0.6-1.7,0.9l0,0c-2.7-2.7-3.6-6.2-4.3-9.8
		c-0.8-3.6-1.2-7.2-2-10.7c-0.5-2.1-0.2-3.9,1.4-5.5c0.3,0,0.7,0,1,0c5.7,1.1,11.4,0.1,17.1,0.6C586.4,275.7,588.6,274.2,589,277z"
		/>
	<path class="st45" d="M829,561.9c8.1-2.5,16.2-5,24.3-7.5c2.2-0.7,4.4-1.6,6.8-1.4c0,0.3,0,0.7,0,1c-1.2,5.7-0.1,11.5-0.6,17.3
		c-0.1,0.3-0.3,0.5-0.4,0.8c-10.2-3.3-20.3-7-31-9V563c-0.4-0.2-0.5-0.4-0.3-0.6c0.1-0.2,0.3-0.3,0.4-0.3
		C828.4,562,828.7,562,829,561.9z"/>
	<path class="st46" d="M567,275c1.7,8.7,3.3,17.3,5,26c-4.3-2-6.4-6.2-9.7-9.2c-5.7-5.4-11.4-10.6-16.3-16.8
		C553,275,560,275,567,275z"/>
	<path class="st47" d="M860,304c-7.1-1.8-12.3-6.9-18.6-10.3c-2.2-1.2-4.2-2.6-6.5-3.7c-0.1-0.3-0.2-0.5-0.3-0.8
		c0.3-0.5,0.6-1,1.1-1.3c7.4-2.2,14.9-3.4,22.7-1.9c0.5,0.4,0.8,0.8,1,1.4c0.5,4.2-0.6,8.5,0.6,12.6C860,301.3,860,302.7,860,304z"
		/>
	<path class="st48" d="M848.1,361c3.6-1,7.3-2,10.9-3c0.1,0.3,0.3,0.5,0.4,0.8c0.5,6.4-0.6,12.9,0.6,19.3c0,0.7,0,1.3,0,2
		c-0.4,0.3-0.8,0.5-1.3,0.4c-5.4-4.8-8.5-11.1-11.3-17.6c0-0.5,0-1,0.2-1.4C847.8,361.3,847.9,361.1,848.1,361z"/>
	<path class="st49" d="M833.9,288c-5.9-3.6-11.4-7.8-15.9-13c0.7,0,1.3,0,2,0c5.1,1.2,10.2,0.1,15.3,0.5c0.5,0.1,1,0.3,1.4,0.7
		C838.5,281.9,837.5,286.1,833.9,288z"/>
	<path class="st50" d="M174,371.1c-3,4.7-7.3,8.3-10.8,12.5c-1.4,1.7-2.2,0.1-3.2-0.6c0-3.3,0-6.7,0-10c1.7-1.5,3.7-2.5,5.9-3
		C168.7,369.6,171.6,368.7,174,371.1z"/>
	<path class="st51" d="M484,620c0-0.3,0-0.7,0-1c1.1-4.8,0.4-9.6,0.5-14.4c0.1-11.4,0-22.9,0-34.8c3.8,0.9,3.6,3.6,3.6,5.9
		c0.2,9.5,0.1,19,0.1,28.5c0,1.7,0,3.3,0,5c0.1,6.9,0.8,7.4,7.9,7.7c3,0.1,6.2-1.6,9.2,0.5c0.4,0.9,0.3,1.8-0.3,2.6
		C498,620,491,620,484,620z"/>
	<path class="st52" d="M843,619c4.9-3.4,10.2-5.8,16-7.1c0.4-0.6,0.7-0.6,1,0.1c0,0.3,0,0.7,0,1c-1.3,2.2,0.3,4.8-1,7
		c-0.3,0-0.7,0-1,0C853.1,618.6,847.9,620.4,843,619z"/>
	<path class="st53" d="M688,275c20,0,40,0,60,0c1.1,1.1,3.1,0.7,4,2.2c0.4,0.9,0.3,1.7-0.5,2.3c-0.6,0.3-1.3,0.7-1.9,0.6
		c-13.9-3.7-28-1.1-42-1.8c-4.8-0.2-9.6,0-14.4-0.1c-2.1-0.1-3.9-0.4-5.3-2.2l0,0C687.3,275.7,687.3,275.3,688,275z"/>
	<path class="st54" d="M743,620c1-0.7,2-1.3,3.1-2c18.5-2.5,37.1-0.9,55.7-1.2c2.6-0.1,5.4-0.5,7.7,1.4c0.5,0.5,0.7,1.1,0.6,1.8
		C787.7,620,765.3,620,743,620z"/>
	<path class="st55" d="M860,463c-1.4-1.7-1-3.8-1-5.8c0-16.2,0-32.3,0-48.5c0-2,0.4-4-1-5.8c-0.2-0.2-0.5-0.3-0.7-0.5
		c0.8-0.9,1.8-0.3,2.7-0.5C860,422.3,860,442.7,860,463z"/>
	<path class="st56" d="M517,275c-2,1.5-4.3,1.1-6.7,1.1c-15.6,0-31.2,0.1-46.8,0.2c-1.5,0-3.1-0.5-3.5,1.7c-1.2-0.6-1.9-1.6-2-3
		C477.7,275,497.3,275,517,275z"/>
	<path class="st57" d="M252,276c-9.3,0.2-18.5-0.5-27.8,0.4c-1.2,0.1-1.9-0.3-2.2-1.4c19.3,0,38.7,0,58,0c0.4,0.5,0.5,1,0.4,1.6
		c-0.4,0.8-1.2,1.2-2.1,1.2c-7.2,1.2-14.4,0.1-21.6,0.3C254.8,278.1,253.1,277.8,252,276z"/>
	<path class="st58" d="M336,276c-0.3,0.3-0.7,0.7-1,1c-1.1,0.7-2.3,1.3-2.8,2.6c-0.7,1.8-2.2,2.2-3.6,1.2c-3.5-2.3-7.3-1.5-11-1.8
		c-5.2-0.4-10.5-0.1-15.3-2.6c-0.3-0.5-0.4-0.9-0.2-1.5c11.3,0,22.7,0,34,0C336.7,275.3,336.7,275.6,336,276z"/>
	<path class="st59" d="M446,599c1.4,5.1-3.3,7.6-5.8,9.8c-4,3.7-7.5,8.2-12.2,11.2c-0.3,0-0.7,0-1,0c1.1-3.9,4.6-5.8,7.1-8.6
		C438,607.2,442,603.1,446,599z"/>
	<path class="st60" d="M572,618c1.7,1.4,3.8,0.9,5.8,1c15.5,0,30.9,0,46.4,0c2,0,4-0.4,5.8,1c-20,0-40,0-60,0
		C570.7,619.3,571.4,618.7,572,618z"/>
	<path class="st61" d="M817,275c-1.7,1.4-3.8,1-5.7,1c-16.4,0-32.8,0-49.3,0c-0.9,0.2-1.2-0.1-1-1C779.7,275,798.3,275,817,275z"/>
	<path class="st62" d="M160,292c1.2,0.4,1.1,1.3,1.1,2.4c-0.1,16.6-0.1,33.1-0.2,49.7c-0.3,0.7-0.7,0.7-1,0
		C160,326.7,160,309.3,160,292z"/>
	<path class="st63" d="M859,358c0-15.7,0-31.5,0-47.2c0-2-0.4-4,1-5.7c0,17.7,0,35.3,0,53C859.7,358.7,859.4,358.7,859,358L859,358z
		"/>
	<path class="st64" d="M161,291c-0.3,0-0.7,0-1,0c0-5.3,0-10.7,0-16c11.7,0,23.3,0,35,0c0.3,0.6,0.3,1.1-0.2,1.6
		c-1.7,1.8-3.9,1.5-6,1.5c-6.4,0.1-12.9,0-19.3,0.1c-5.3,0.1-5.9,0.8-6.3,6C163.1,286.7,163.3,289.3,161,291z"/>
	<path class="st65" d="M725,619c0,0.3,0,0.7,0,1c-15.7,0-31.3,0-47,0c1.7-1.4,3.8-1,5.7-1C697.5,619,711.2,619,725,619z"/>
	<path class="st66" d="M161,504c0.3,12.9-0.5,25.9,0.4,38.8c0.1,1.2-0.3,1.9-1.4,2.2c0-13.7,0-27.3,0-41
		C160.3,503.5,160.7,503.5,161,504L161,504z"/>
	<path class="st67" d="M631,620c0-0.3,0-0.7,0-1c1.2-1.5,2.9-2.1,4.8-2.1c9.6-0.2,19.2-0.1,28.9,0c2.2,0,4.1,1.4,6.3,1.2
		c0.3,0.7,0.7,1.3,1,2C658.3,620,644.7,620,631,620z"/>
	<path class="st68" d="M632,275c-1.1,0.9-2.4,1-3.8,1c-11.2,0-22.3,0-33.5,0c-1.3,0-2.7-0.1-3.8-1C604.7,275,618.3,275,632,275z"/>
	<path class="st69" d="M393,617c0.7,1,1.3,2,2,3c-13,0-26,0-39,0c-0.7-0.3-0.7-0.7,0-1c0.3,0,0.7,0,1,0c1.8-2.3,4.3-2.2,6.8-2.2
		C373.5,616.7,383.3,616.7,393,617z"/>
	<path class="st70" d="M860,612c-0.3,0-0.6,0-1-0.1c0-13.3,0-26.6,0-39.9v-0.1c0.4-0.6,0.7-0.6,1,0.1C860,585.3,860,598.7,860,612z"
		/>
	<path class="st71" d="M162,590c-0.3,2.7-0.7,5.3-1,8c-0.3,0.7-0.7,0.7-1,0c0-11,0-22,0-33c0.6-0.3,1.1-0.2,1.6,0.2
		c0.4,0.5,0.7,1,0.8,1.6C164.2,574.6,162.5,582.3,162,590z"/>
	<path class="st72" d="M356,619c0,0.3,0,0.7,0,1c-13,0-26,0-39,0c1.7-1.4,3.8-1,5.7-1C333.8,619,344.9,619,356,619z"/>
	<path class="st73" d="M161,504c-0.3,0-0.7,0-1,0c0-12.3,0-24.7,0-37c0.9,1.1,1,2.4,1,3.7C161,481.8,161,492.9,161,504z"/>
	<path class="st74" d="M278,620c-12,0-24,0-36,0c-0.4-0.6-0.5-1.1-0.2-1.8c1-1.4,2.6-1.3,4.1-1.4c9.1-0.1,18.2-0.2,27.3,0
		c1.7,0,3.3,0.1,4.6,1.4C278.2,618.8,278.3,619.4,278,620z"/>
	<path class="st75" d="M241.9,619c0,0.3,0,0.6,0.1,1c-12,0-24,0-36,0c-0.7-0.3-0.7-0.7,0-1c0.3,0,0.7,0,1,0c1-0.9,2.1-1.9,3.4-1.9
		c10-0.2,20.1-1.3,30.1,0.7C241,618.1,241.5,618.5,241.9,619z"/>
	<path class="st76" d="M859,509c0-7.6,0-15.2,0-22.8c0-1.8-0.3-3.7,1-5.2c0,11.7,0,23.3,0,35C858.4,513.9,859.2,511.3,859,509z"/>
	<path class="st77" d="M836,275c7.2,0,14.3,0.1,21.5-0.1c2.2-0.1,2.7,0.4,2.6,2.6c-0.2,3.1-0.1,6.3-0.1,9.5c-0.3,0.7-0.6,0.7-1,0
		v-0.1c-0.9-0.9-2-1.8-2-3.3c-0.1-4.7-2.9-5.7-6.9-5.5c-2.9,0.1-5.9,0-8.9,0c-2.1,0-3.9-0.5-5.3-2.2l0,0
		C835.3,275.7,835.3,275.3,836,275z"/>
	<path class="st78" d="M160,344c0.3,0,0.7,0,1,0c0,0.3,0,0.7,0,1c1.5,5.2,2.4,10.5,2.2,15.9c-0.2,4,0.2,7.8,2.8,11.1
		c-1.8,1.5-4,0.8-6,1C160,363.3,160,353.7,160,344z"/>
	<path class="st79" d="M505,620c0-0.7,0-1.3,0-2c0.5-0.4,1-0.6,1.7-0.7c8.8-1,17.6-0.5,26.4-0.5c1.7,0,3.4,0.1,4.6,1.4
		c0.5,0.5,0.6,1.1,0.2,1.7C527,620,516,620,505,620z"/>
	<path class="st80" d="M688,275c0,0.3,0,0.7,0,1c-8.9,0-17.8,0-26.8,0c-1.8,0-3.7,0.3-5.2-1C666.7,275,677.3,275,688,275z"/>
	<path class="st81" d="M860,552c-2-3.7-0.8-7.8-0.9-11.7c-0.2-5.8-0.1-11.6-0.1-17.3c0.3-0.3,0.7-0.7,1-1C860,532,860,542,860,552z"
		/>
	<path class="st82" d="M385,278c-0.8-2.4-2.8-2-4.5-2c-5.4,0-10.9,0-16.3,0c-1.8,0-3.7,0.3-5.2-1c9.3,0,18.7,0,28,0
		C386.3,276,385.7,277,385,278z"/>
	<path class="st83" d="M278,620c0-0.3,0-0.7,0-1c0.7-0.5,1.3-0.6,2,0c6.9,0,13.9,0,20.8,0c1.8,0,3.7-0.3,5.2,1
		C296.7,620,287.3,620,278,620z"/>
	<path class="st84" d="M161,414c-0.3,0-0.7,0-1,0c0-9,0-18,0-27c2,4.4,0.7,9.1,0.9,13.6C161.2,405.1,161,409.5,161,414z"/>
	<path class="st85" d="M195,276c0-0.3,0-0.7,0-1c8.7,0,17.3,0,26,0c-0.3,0.7-0.6,1.3-1,2c-7.9,2-15.8,1.7-23.7,0.3
		C195.8,277,195.3,276.5,195,276z"/>
	<path class="st86" d="M538,620c0-0.3,0-0.7,0-1c0.3-0.5,0.8-1,1.3-1.2c7.6-1.5,15.1-1.7,22.7,0.2c0.3,0.7,0.7,1.3,1,2
		C554.7,620,546.3,620,538,620z"/>
	<path class="st87" d="M302,275c0,0.3,0,0.7,0,1c-0.1,0.3-0.2,0.5-0.3,0.8c-0.6,0.9-1.4,1.5-2.4,1.5c-5.7,0.1-11.4-0.1-17.1-0.6
		c-1-0.1-1.7-0.9-2.2-1.7c0-0.3,0-0.7,0-1C287.3,275,294.7,275,302,275z"/>
	<path class="st88" d="M810,620c0-0.3,0-0.7,0-1c0.2-0.3,0.4-0.5,0.5-0.8c7.9-2,15.8-2.9,23.5,0.8c0.3,0.3,0.7,0.7,1,1
		C826.7,620,818.3,620,810,620z"/>
	<path class="st89" d="M404,620c7.3-1.5,14.7-1.8,22,0C418.7,620,411.3,620,404,620z"/>
	<path class="st90" d="M589,277c-4.1-2-8.5-0.5-12.8-1c-2.8-0.3-5.7,0.8-8.3-1c7.3,0,14.7,0,22,0C589.7,275.7,589.3,276.3,589,277z"
		/>
	<path class="st91" d="M336,276c0-0.3,0-0.7,0-1c7,0,14,0,21,0c-0.8,2.2-2.5,1-3.8,1C347.5,276.1,341.8,276,336,276z"/>
	<path class="st92" d="M162,620c5.4-2.1,11-0.5,16.5-1c1.8-0.2,3.6,0,5.4-0.1c0,0.3,0,0.7,0.1,1C176.7,620,169.3,620,162,620z"/>
	<path class="st93" d="M160,598c0.3,0,0.7,0,1,0c0,7.3,0,14.7,0,22c-2.2-0.1-0.9-1.7-0.9-2.5C159.9,611,160,604.5,160,598z"/>
	<path class="st94" d="M761,275c0.3,0.3,0.7,0.7,1,1c-0.4,2.1-1.7,3.6-3.2,5.1c-1,0.8-1.8,0.4-2.5-0.5c-0.6-0.9-0.5-1.9-0.3-2.8
		c-0.1-1.4,0.9-2.1,2-2.8C759,275,760,275,761,275z"/>
	<path class="st95" d="M206,619c0,0.3,0,0.7,0,1c-7,0-14,0-21,0C191.9,617.8,199,619.5,206,619z"/>
	<path class="st96" d="M307,620c1.3-2.5,3.4-3.2,6-3c1.3,0.7,2.3,1.7,3,3C313,620,310,620,307,620z"/>
	<path class="st97" d="M859,358.1c0.3,0,0.7,0,1-0.1c0,6.7,0,13.3,0,20C857.9,371.4,859.5,364.7,859,358.1z"/>
	<path class="st98" d="M161,565c-0.3,0-0.7,0-1,0c0-6,0-12,0-18c0.7,0.7,1.3,1.3,2,2c0.6,4.8,1.9,9.6,0.8,14.5
		C162.5,564.3,161.9,564.8,161,565z"/>
	<path class="st99" d="M758,275c-0.5,1-0.5,2,0,3c-2.7,2.1-4.7-0.6-7-1c-1.3-0.2-2.3-0.8-3-2C751.3,275,754.7,275,758,275z"/>
	<path class="st100" d="M859,380c0.3,0,0.7,0,1,0c0,5.3,0,10.7,0,16c-0.3,0-0.7,0-1,0c-3.7-4.7-2.2-10-1.6-15.2
		C857.5,380.1,858.3,379.9,859,380z"/>
	<path class="st101" d="M860,572c-0.3,0-0.7,0-1-0.1c0.5-6-1.1-12,1-17.9C860,560,860,566,860,572z"/>
	<path class="st102" d="M836,275c0,0.3,0,0.7,0,1c-5.3-0.8-10.8,1.7-16-1C825.3,275,830.7,275,836,275z"/>
	<path class="st103" d="M843,619c5,0.5,10.1-1.1,15,1c-5.3,0-10.7,0-16,0C842.3,619.7,842.7,619.3,843,619z"/>
	<path class="st104" d="M729,618c0.3,0,0.6,0,0.9-0.1c0.6,0.1,0.7,0.7,1.1,1.1c3.7,0.4,7.5-0.9,11,1c-4.3,0-8.7,0-13,0
		C728.4,619.3,728.4,618.7,729,618z"/>
	<path class="st105" d="M859,287c0.3,0,0.7,0,1,0c0,4.3,0,8.7,0,13C858,295.8,859.4,291.4,859,287z"/>
	<path class="st106" d="M859,620c0.2-2.3-0.7-4.9,1-7C859.4,615.3,861.3,617.9,859,620z"/>
	<path class="st107" d="M729,618c0,0.7,0,1.3,0,2c-1,0-2,0-3,0C727,619.3,727.4,617.8,729,618z"/>
	<path class="st108" d="M482,558.9c-25.1,3.3-50.2,6.6-75.3,9.8c-6.6,0.8-13.1,1.5-19.7,2.2c-2.8-4-0.3-7.9,1.3-11.1
		c2.3-4.8,3.6-9.9,6-14.6c0.9-1.9,0.6-3.4-1.2-4.8c-1.4-1.1-1.9-2.9,0-3.5c4-1.2,6.7-4.9,11-5.3c10.5,1.8,20.4,5.7,30.4,9.1
		c14.1,4.7,28.4,8.9,42.5,13.8C479.2,555.2,482.1,555.5,482,558.9z"/>
	<path class="st109" d="M482,558.9c-7.1-3.4-14.6-5.3-22-7.7c-18.6-6.2-37.3-12.1-56-18.2c-0.3-0.6-0.3-1.2,0.1-1.7
		c1.5-1.9,3.8-2,5.9-2.2c9.7-0.9,19.5-1.4,29.3-2.2c11.7-1,23.5-1.7,35.2-2.8c3.6-0.3,7.3-0.6,10.7,1.2c1.4,1.3,2.3,3.2,1.9,4.9
		c-1.6,8-0.5,16.1-1,24.1c-0.1,1.2-0.4,2.2-0.9,3.3c-0.3,0.5-0.7,1-1.2,1.4c-0.3,0.1-0.6,0.1-0.9,0.2
		C482.7,559.1,482.3,559,482,558.9z"/>
	<path class="st110" d="M404,532.1c0,0.3,0,0.6,0.1,0.9c-4.1,0.4-4.7,7.7-10.5,4.9c1.4,1.6,4.4,0.5,4.3,3.2c-0.1,2-0.9,3.8-1.6,5.7
		c-2.9,8.1-7.5,15.6-9.2,24.1c-0.3,0-0.7,0.1-1,0.1c-1.9,0.8-3.6,0.1-5.1-1.1c-14.1-11.7-28.9-22.5-42.1-35.4
		c-0.2-0.5-0.3-1.1-0.1-1.6c0.3-0.5,0.7-1,1.2-1.3c3.9-1.4,7.8-0.9,11.8-0.5c5.5,0.5,10.9,0.8,16.3-0.5c5.3-0.1,10.6,0,15.8-1.2
		c5.3,0.7,10.6-0.2,15.9,0.9C401.3,530.6,403,530.5,404,532.1z"/>
	<path class="st111" d="M340,534.1c13.7,11.2,27.4,22.4,41.2,33.5c1.5,1.2,3.2,2.3,4.9,3.5c0,0.3,0,0.6,0,1
		c-5.3,5.7-10.7,11.3-16,17c-3,1.4-3.8-1.2-4.8-2.8c-5.1-8.2-9-17-13.7-25.4c-3.8-6.8-7.9-13.5-10.9-20.7
		C339.8,538.2,338.3,536.2,340,534.1z"/>
	<path class="st112" d="M814,586c-0.3,0.4-0.6,0.7-0.9,1.1c-9-3.8-17.9-7.6-26.9-11.5c-12.8-5.5-25.5-11-38.3-16.4
		c-1.5-0.6-3.2-0.8-4.8-1.1c0-0.3,0-0.6,0-0.9c0.1-0.5,0.4-1,0.8-1.3c10.2-6.4,21.8-9.4,32.8-13.9c4.7-1.9,9.6-3.6,14.4-5.4
		c2.3-0.9,4.7-1.7,7.1,0c2.9,2.4,4.5,5.8,5.5,9.3c3.4,11.1,6.1,22.4,9.8,33.3C814.3,581.4,813.9,583.7,814,586z"/>
	<path class="st113" d="M810,619c-19.4,0-38.8,0-58.2,0c-1.9,0-4,0.5-5.7-0.9c4.7-2,9.3-4,14-6c3.1,0.7,5.2-1.6,7.6-2.7
		c5.2-2.2,10.7-4,15.3-7.5c0.7-0.6,1.4-1.2,2.2-1.8c0.3-0.4,0.6-0.6,1.1-0.8c3.7-0.5,6.8-2.2,9.5-4.5c4.5-2.5,9.2-4.7,14.3-5.9
		c1-0.3,2-0.7,3-1l0.1,0.2c3.8,5.6,1.1,11.6,0.6,17.4C813.2,610,814.3,615.3,810,619L810,619z"/>
	<path class="st114" d="M731,619c-0.4-0.4-0.7-0.7-1.1-1.1c0.3-2,0.7-4,1-6c-1.4-3.1,0.2-5.9,1-8.6c1.5-4.4,0.7-9.6,4.1-13.4
		c1.6,5.4-1.1,10.3-1.7,15.4c-0.2,2.1-2,4.3,0.8,6.2c1.2,0.8,0.6,2.4-0.8,2.6C731.3,614.6,731.7,617.1,731,619z"/>
	<path class="st115" d="M736,590c-1.7,7.3-3.4,14.6-5.1,22c-3.5-2.9-0.7-6.4-0.1-9.1c1-4.5,2.1-8.9,3.1-13.4
		c0.3-1.2,0.8-2.1,2.2-2.4C736.1,588,736.1,589,736,590z"/>
	<path class="st116" d="M782.9,601.9c-0.5,2.4-2.5,3.2-4.4,4c-5,2.2-10,4.3-15.1,6.5c-1.2,0.5-2.5,2.3-3.4-0.4
		C767.7,608.9,774.8,604.3,782.9,601.9z"/>
	<path class="st117" d="M786,600c-0.3,0-0.6,0.1-0.9,0.1c-0.4-0.7-0.2-1.4,0.4-1.7c7.4-3.4,14.8-6.7,22.2-10c0.8-0.4,1.6,0,2.3,0.6
		c-4.4,2.9-9.8,3.7-14,7C792.9,598.1,789.6,599.3,786,600z"/>
	<path class="st118" d="M859,380c0,5.3,0,10.7,0,16c-7.6,2.1-14.6,5.8-22,8.5c-5.7,2.1-11.4,4.3-17,6.5c-1.1,1.1-2.9,0.9-4,2
		c-12.3,3.9-24.1,9.1-36,14c-0.4-0.4-0.6-0.8-0.6-1.3c2.5-5.6,7.5-9.2,11.8-13.2c16.4-15.3,32.5-30.8,48.5-46.6
		c2.2-2.2,4.3-5.3,8.4-3.9C852.2,367.7,855.9,373.7,859,380z"/>
	<path class="st119" d="M780,426c0,0.3,0,0.6,0,1c8.9,13.3,18.2,26.4,28,39c0,0.3,0,0.7,0,1h-0.1c-4.6,2.2-9.2,4-14.5,4.3
		c-11.1,0.6-22.2,1.4-33.1,3.4c-6.7,1.3-13.6-0.2-20.3,1.3c-0.6,0-1.1-0.1-1.7-0.3c-0.8-0.5-1.1-1.2-1.2-2c0.4-2.6,2.1-4.6,3.7-6.3
		c12.3-13,23.1-27.4,35.9-39.9c0.6-0.6,1.1-1.3,1.8-1.7C779.1,425.7,779.6,425.8,780,426z"/>
	<path class="st120" d="M816,413c0.9-1.6,2.3-2,4-2C819.1,412.6,817.7,413,816,413z"/>
	<path class="st121" d="M808,468c-2.2,15.7-4.2,31.4-6.5,47.1c-1,7-0.8,14.2-3.4,20.9c-0.2,0.1-0.4,0.2-0.7,0.2
		c-8.5-3-15.4-8.9-22.9-13.6c-5.3-3.3-11.1-6-14.9-11.3c-0.2-0.8,0-1.5,0.4-2.1c7-8.5,15.9-15,23.8-22.6c5.5-5.3,11.5-10,16.8-15.5
		C802.5,468.9,804.9,467.6,808,468z"/>
	<path class="st122" d="M808,468c-7.5,4.7-13.1,11.7-19.7,17.4c-9.3,8-18.2,16.4-27.3,24.6c-2-0.1-3.8-0.5-5.1-2.4
		c-5.9-8.7-11.2-17.7-16.6-26.6c-1.1-1.8-2.1-3.9-0.3-6c1.4-0.8,2.7-2,4.5-2c8.1,0.2,16.1-1,24.2-1.8c9.7-1,19.4-2.5,29.2-2.5
		c3.6,0,7.2-2.3,11.1-1.8C808,467.3,808,467.7,808,468z"/>
	<path class="st123" d="M814,586c-3-3.7-3.4-8.5-4.8-12.8c-3.5-10.8-6.2-21.9-9.4-32.8c-0.4-1.2-1.2-2.3-1.8-3.5
		c-0.3-0.2-0.4-0.4-0.3-0.6c0.1-0.2,0.2-0.3,0.4-0.3l0,0c0.7,0,1.3,0,2,0c3.1,5.1,8.1,8.6,12.4,12.4c5.2,4.6,9.4,10.2,15.6,13.6
		c0,0.3-0.1,0.6-0.1,0.9c-2,3-4,6.1-5.9,9.1c-2.2,1.8-3.5,4.2-4,7C817.2,581.6,815.7,583.9,814,586z"/>
	<path class="st124" d="M832,487c6.1,2.4,10.8,6.3,14,12C840.6,495.8,834.8,493.1,832,487z"/>
	<path class="st125" d="M229,573c0-0.3-0.1-0.6-0.2-0.9c-0.1-1.3,0.4-2.4,1.4-3.2c14.8-12.4,28.9-25.9,45-36.8
		c1.4-0.4,2.6-0.1,3.6,0.9c0.7,0.8,1.1,1.8,1.7,2.6c3.3,3.8,5,8.6,7.3,13c5.7,10.9,12.1,21.4,17.5,32.5c1.1,2.3,3.4,4.9,0.3,7.6
		c-3.1,2.2-6.4,0.9-9.6,0.3c-2.8-0.5-5.5-0.9-8.3-1.6c-5-2.7-10.5-2.6-16-3.3c-8.6-2.4-17.4-3.7-26.1-5.6c-3.2-1.9-6.9-2.1-10.4-2.9
		c-1.9-0.8-4.1-0.5-5.8-1.8C229.3,573.4,229.1,573.2,229,573z"/>
	<path class="st126" d="M169,560c3.9-8.3,4.5-17.4,7.2-26c3-9.6,4.1-19.7,7.9-29.1c0.4-0.3,0.9-0.3,1.4-0.2
		c5.7,5.4,9.6,12.2,13.7,18.8c9.1,14.4,18.9,28.4,27.8,42.9c1.1,1.7,2.2,3.4,1,5.5c-2.4-0.3-4.7-0.6-7.1-0.9c-2.5,1-4.6-0.3-6.9-1.1
		c-4.7-1-9.4-2-14.1-2.9c-5.8,0.5-11.1-1.8-16.7-2.5c-3.8-2.1-7.6-4.5-12.3-3.6c-0.6,0-1.3-0.1-1.9-0.1c-0.3-0.2-0.4-0.3-0.4-0.5
		C168.8,560.1,168.9,560,169,560z"/>
	<path class="st127" d="M228,572c-13.3-20.5-26.6-40.9-39.9-61.4c-1.2-1.8-2.7-3.4-3.1-5.6c3.3-2.4,6.1-0.1,8.8,1.1
		c8.9,4.1,17.7,8.6,26.4,13.1c7.5,3.9,15.4,7,22.5,11.7c1.2,0.8,2.8,0.9,4.3,1.3c0.9,0.2,1.7,0.7,2.6,1c1.3,0.3,2.7,0.6,4,1
		c3,1.2,4.1,3.2,0.4,4.3c-4.1,1.2-5.9,4.3-7.6,7.4c-4.7,8.3-9,16.9-15.3,24.1c-0.7,0.7-1.4,1.4-2.2,2.1
		C228.6,572.1,228.3,572.1,228,572z"/>
	<path class="st128" d="M241,619c-11.3,0-22.7,0-34,0c5.4-13.3,11.8-26.1,18.1-38.9c1.2-2.4,0.9-5.7,3.9-7.1l0.1-0.1
		c2.3,2.5,3.6,5.4,4.5,8.7c2.5,9.3,5,18.6,7.7,27.8C242.2,612.6,243.3,615.9,241,619z"/>
	<path class="st129" d="M169,560c0,0.3,0.1,0.6,0.1,0.9c-0.4,0.3-0.7,0.7-1.1,1v0.1c-1.1,1.4-2.1,2.9-4.1,3c-0.8,0-1.5-0.3-1.9-1
		c-1.4-5-1.7-10,0-14.9C164.7,552.5,165.9,556.8,169,560z"/>
	<path class="st130" d="M182.9,563.1c5.7,1.3,11.4,2.6,17.1,3.9c-2.1,1.6-4.4,0.8-6.6,0.3c-5.8-1.1-11.7-2.1-17.5-4
		c0.8-0.1,1.5-0.3,2.3-0.4C179.8,561.7,181.3,562.1,182.9,563.1z"/>
	<path class="st131" d="M182.9,563.1c-1.6-0.1-3.2-0.1-4.8-0.2c-2.4-0.7-4.7-1.3-7.1-2C175.4,559.5,179.3,560.3,182.9,563.1z"/>
	<path class="st132" d="M214.1,570c2.3,0.4,4.6,0.7,6.9,1.1c-2.7,2.1-5.5,0.2-8-0.4C212,570.5,213.8,570.4,214.1,570z"/>
	<path class="st133" d="M175,370c9.5-22.7,19.1-45.4,28.6-68.1c0.7-1.7,1.3-3.1,3.5-2.9c9.5,7.9,15.8,18.6,23.8,27.8
		c4.6,5.3,9.4,10.3,13.5,16c0.9,1.2,1.8,2.4,2.7,3.6s1.2,3.5,3.6,1.8c1.2,1.4,1.2,3,0.5,4.6c-0.3,0.5-0.6,0.9-1.1,1.3
		c-0.7,0.5-1.4,1-2.2,1.2c-16.1,4.2-32.4,8.1-48.7,11.9c-6.1,1.4-12.2,3-18.3,4.4c-2,0.5-3.9,0.5-5.7-0.6l-0.1-0.2
		C174.3,370.5,174.3,370.3,175,370z"/>
	<path class="st134" d="M250,348c-0.5,0.9-0.9,1.7-1.6,3.1c-8-9.7-16-19.2-23.9-28.8c-0.9-1.2-2-2.2-2.9-3.3c-2.3-2.7-5.8-4.4-6-8.7
		c-0.1-1.1-1.6-2.7-2.9-3.2c-3.8-1.5-5.2-4.4-5.7-8c0.3,0,0.7,0,1-0.1c14,3.3,28,6.7,42,10c1.1,0.9,2.9,0.1,3.9,1.4
		c1.5,3.6,1.4,7.4,1.1,11.1c-0.6,6.7-1.4,13.4-2,20.1C252.8,344,252.4,346.5,250,348z"/>
	<path class="st135" d="M195,276c0.3,0,0.7,0,1,0c2.1,2,3,4.7,4.1,7.3c1.9,4.6,4,9.2,5.9,13.7c0,0.3,0,0.6-0.1,0.9
		c-9.8-0.2-19.2-2.8-28.8-4.2c-5.4-0.8-10.7-1.8-16.1-2.8c0-3.5,0.1-7,0-10.4c-0.2-3.5,1.3-4.6,4.7-4.6
		C175.4,276.1,185.2,276,195,276z"/>
	<path class="st136" d="M175,370c0,0.3,0,0.6,0,0.9c-0.3,0.1-0.6,0.1-0.9,0.2c-2.7,0.3-5.3,0.6-8,1c-3.9,0.5-5.2-1.3-5.1-5.2
		c0.2-7.3,0.1-14.6,0.1-21.9c3.8,7.2,7.6,14.5,11.3,21.7C173,368,173.1,369.6,175,370z"/>
	<path class="st137" d="M642,321c0.3,0.1,0.6,0.2,1,0.3c0.3,0.5,0.3,0.9,0.1,1.4c-6.3,6.3-14.8,8.6-22.4,12.6
		c-13.9,7.4-28.2,13.9-42.2,21.2c-3.9,2-7.9,5.2-12.9,2.6c-2.9-6.6,0.3-13.1,0.7-19.5c0.7-10.7,3-21.3,2.6-32.1
		c-0.1-2.9,0.4-5.3,4.1-5.4c9.1,2.3,18.3,4.4,27.1,7.8c4.2,1.7,8.5,2.8,12.9,3.2C622.6,315.7,632.3,318.3,642,321z"/>
	<path class="st138" d="M573,302.1c-1,0.9-1.9,1.3-1.8,3.4c0.7,14.3-2.3,28.3-3.5,42.4c-0.3,3.6-0.4,7.5-1.6,11.1
		c-0.4,0.2-0.9,0.3-1.4,0.1c-5.2-3.7-7.5-9.6-11-14.6c-8.2-11.7-15.7-23.9-23.6-35.8c-1.1-1.7-1.9-3.5-2.6-5.4
		c0-0.5,0.2-0.9,0.5-1.3v-0.1c14.7,0,29.4-0.1,44.1-0.1C572.4,301.9,572.7,302,573,302.1z"/>
	<path class="st139" d="M612.9,313.1c-4.7,0.7-9-0.5-12.9-3.2C604.5,310.2,608.7,311.8,612.9,313.1z"/>
	<path class="st140" d="M697,540c-0.3,0.1-0.5,0.1-0.8,0.1c-6.9,3.4-14.4,2.3-21.6,2.5c-14.4,0.4-28.8,2.8-43.2,0.7
		c-0.5-0.1-1-0.4-1.4-0.8c-1.3-2.7,0.9-4.4,2.3-6c6.2-7.6,13.3-14.3,19.7-21.7c6.3-7.3,13.1-14.1,19.4-21.3c2.3-2.6,4.4-5.6,8.3-5.8
		c2.9,0.1,3.7,2.1,4.6,4.5c4.7,12.6,7.5,25.9,13,38.2c1.2,2.8-0.1,5.6,0.6,8.4C697.7,539.2,697.4,539.6,697,540z"/>
	<path class="st141" d="M697,540c0-0.3,0.1-0.6,0.1-0.9c0.5-0.9,0.9-1.9,1.9-2.3c17.2-8.5,34.9-15.9,52.1-24.2
		c2.6-1.3,5.4-2.9,8.4-0.7c1.6,2,1,4.2,0.3,6.2c-3.5,10.7-8.1,21-11.3,31.9c-0.8,2.7-2.5,5-4.6,7c-0.3,0.1-0.6,0.2-0.9,0.3
		c-12.9-4.8-25.9-9.7-38.8-14.5c-1.7-0.6-3.5-1.1-5.2-1.7C698.3,540.7,697.7,540.3,697,540z"/>
	<path class="st142" d="M630,542c19.6-0.7,39.1-1.3,58.7-2c2.5-0.1,5,0.1,7.5,0.1c-0.1,0.3-0.1,0.6-0.2,0.9
		c-8.3,4.7-15.6,10.8-23.6,16.1c-2.9,1.9-5.7,4-8.5,6c-0.7,0.3-1.3,0.7-1.9,1c-1.2,0.5-2.3,0.4-3.3-0.3c-9.7-6.5-20.1-12-29.2-19.4
		c-0.4-0.3-0.7-0.7-0.9-1.1c-0.1-0.5-0.1-0.9,0.2-1.3C629.2,541.6,629.6,541.7,630,542z"/>
	<path class="st143" d="M636.1,585.1c-0.3,0.3-0.7,0.6-1,1c-14.2-2.1-28.5-4.3-42.7-6.5c-11.8-1.8-23.6-3.7-35.3-5.6
		c-0.3-0.5-0.4-0.9-0.3-1.5c0.7-1.9,2.3-2.7,4-3.5c20.3-8.8,40.8-17.1,61.1-25.8c2.2-1,4.7-1.8,7.1-0.2l0.1,0.1
		c3,1.9,3.5,5.1,3.9,8.2c1.3,9.3,1.9,18.7,3.7,28C637,581.2,636.6,583.1,636.1,585.1z"/>
	<path class="st144" d="M671,618c-1.7,1.4-3.8,1-5.7,1c-11.4,0-22.8,0-34.3,0c0.1-8,1.1-15.9,3.1-23.6c0.7-2.8,0.6-5.6,0-8.3
		c0.3-0.1,0.6-0.1,0.9-0.2c4.4,1.9,7.2,5.8,10.7,8.8C654.2,603,662.5,610.6,671,618z"/>
	<path class="st145" d="M557,573c0,0.3,0,0.6-0.1,0.9c-0.6,0-1.3,0.1-1.9,0.1c-4.7-0.6-9.3-2.2-14,0c-0.4,0.3-0.8,0.5-1.3,0.3
		c-1-0.5-1.5-1.3-1.9-2.3c-1.5-7.3-1.8-14.7-3.6-21.9c-0.4-1.6-0.1-3.3,1-4.7c2.4-1.8,3.9,0.1,4.9,1.6c4.7,6.8,9.6,13.6,13.1,21.1
		c0.7,1.6,1.6,2.8,3.1,3.7C556.6,572.1,556.8,572.5,557,573z"/>
	<path class="st146" d="M611,599c2.1,1.2,0.6,1.7-0.5,2c-4.2,1-8.4,3.5-11.1,6c-3.3,3.1-7.5,1.5-10.2,4.5c-3,3.4-7.8,3.4-11.4,5.6
		c-0.9,0.6-1.8,0.7-2.7-0.1C587.1,611.1,598.6,604.2,611,599z"/>
	<path class="st147" d="M538.9,572c0.4,0.6,0.8,1.2,1.2,1.8c-0.9,5.8-6.2,8.7-8.8,13.4c-2.4,4.2-5.7,8-9,11.7
		c-3.3,5.9-7.5,11.1-11.8,16.3c-1.2,1.4-2.4,2.7-4.4,2.8c-0.3,0-0.6,0-0.9,0c-5.3,1.7-10.8,0.9-16.2,0.8c-3.2,0-2.8-2.7-2.8-4.8
		c0-12.6,0-25.3,0-37.9c0-1.5,0-2.9,0-4.4c-0.3,0-0.7,0-1,0c0,7.2,0,14.4,0,21.5c0,6.8,0,13.6,0,20.5c0,1.8,0.3,3.7-1,5.3
		c0-17.9,0-35.7,0-53.6c0-2.1-0.1-4.3,0.9-6.3c2.3-1.9,4.3-0.9,6.1,0.7c0.3,0.4-0.2,1.2,0.8,1.3c7.4,0.7,14.4,3.5,21.5,5.3
		c3.1,0.8,6.1,1,9.2,0C528.3,567.5,534.4,567.4,538.9,572z"/>
	<path class="st148" d="M538.9,572c-5.7-1.3-11.3-2.6-17-4c-4.9,1.1-9.3-1.2-13.8-2.4c-5.7-1.6-11.6-2.3-17.1-4.7
		c-1.9-1.2-4-1.5-6.1-1.8c-0.3-0.1-0.6-0.1-1-0.2c0-0.3,0-0.6,0.1-0.9c1.3-1.5,2.8-2.6,4.9-3.2c14.8-4.2,29.3-9.2,44.1-13.2
		c1.2-0.1,2.3,0.1,3.1,1c0.5,0.8,0.6,1.6-0.1,2.3c1.2,8.6,2.4,17.1,3.7,25.7C539.9,571.5,539.7,571.8,538.9,572z"/>
	<path class="st149" d="M188,410c0-0.3,0-0.7,0-1h0.1c1.7-1.7,4-2.2,6-1.9c15,2.5,30,5,44.9,8.2c0.8,0.2,1.5,0.8,2,1.4
		c2,3.7-0.2,6.7-1.8,9.7c-9.4,17.5-19.4,34.7-29.5,51.7c-1.7,2.8-3.1,5.8-5.9,7.8c-0.3,0-0.5,0-0.8,0.1c-0.3-0.3-0.7-0.7-1-1
		c-0.9-9.2-3.2-18.2-4.8-27.3c-2.8-15.1-5.5-30.2-8.4-45.4C188.7,411.5,188.3,410.8,188,410z"/>
	<path class="st150" d="M478,307c0.3,0,0.7,0.1,1,0.1c0.3,0.4,0.5,0.8,0.6,1.3c-2.6,7.1-7.4,12.8-11.7,18.9
		c-3.9,5.5-6.9,11.7-12.5,15.8c-3.1,0.7-5.5-0.9-7.7-2.7c-15.4-12.5-31.5-24.2-46.2-37.5c-1-1.1-2.3-2.1-1.4-3.9l-0.1-0.1
		c14.8,1.6,29.6,3.2,44.5,4.7C455.6,304.7,466.8,305.8,478,307z"/>
	<path class="st151" d="M313.1,316.1c11.7-1.8,23.1-5.4,34.7-7.8c2.1-0.4,4.2-0.8,6.3-1.2c1.9,1.3,3.5-0.3,5.2-0.6
		c6.6-1.3,8.8,0.2,8.9,6.8c0.2,15.8,0.2,31.7,0,47.5c0,2.5,0.1,5-0.1,7.5c-0.3,3.2-1.6,5.4-5.2,5.3c-2.8,0.1-5.1-1-7-3.2
		c-11.4-13.8-24.3-26.4-35.5-40.5c-2.9-3.7-6.3-6.9-9.9-9.8c-0.5-1-0.5-1.9-0.1-2.9C311,316.1,312,315.9,313.1,316.1z"/>
	<path class="st152" d="M361,372c3.5,0.4,5.1-0.8,5.1-4.7c-0.2-17.9-0.1-35.9-0.1-53.8c0-6.6-1.8-7.9-8.2-5.6
		c-1.7,0.6-2.8,0.7-3.7-0.9c3.3-1,6.7-2,10-3c0.3,0,0.6,0,0.9-0.1c9.7-1.5,19.4-3,29.1-4.5c1.6-0.2,3.3-0.3,5-0.5
		c0.5,1.2,0.5,2.5,0.1,3.7c-2,8.1-5.9,15.5-8.9,23.2c-6,15.5-12.5,30.8-18.8,46.2c-0.9,2.3-2,4.6-3.9,6.3c-0.7,0.4-1.5,0.6-2.3,0.5
		c-1.9-0.4-3-2-4.3-3C359.4,374.8,358.9,373.2,361,372z"/>
	<path class="st153" d="M313.1,316.1c-0.7,0.3-1.4,0.7-2,1c-1.5,0.6-2.6,0.1-3.5-1.2c0.3-7.4-2-14.3-4.1-21.2
		c-1.4-4.7-1.6-9.4-2.7-14.1c-0.4-1.8,0.2-3.2,1.2-4.6l0,0c7.8-0.4,15.4,1.3,23.2,1.2c2.8-0.1,5.7,2.5,8.4-0.5
		c0.1-0.2,0.9,0.2,1.4,0.3c-6.6,11.4-13.2,22.8-19.8,34.2C314.3,312.7,313.2,314.2,313.1,316.1z"/>
	<path class="st154" d="M757,280c0.6,0.3,1.3,0.7,1.9,1c0.1,0.3,0.1,0.6,0.2,0.9c-0.9,2.2-2.7,3.3-4.7,4.1
		c-16.7,6.6-33.5,12.7-50.3,19.2c-8.7,3.4-17.1,7.2-26.2,9.5c-0.5,0.1-1,0.1-1.6,0c-0.5-0.2-0.9-0.5-1.2-1c0-0.3-0.1-0.6-0.1-0.9
		c3.2-4.3,4.3-9.6,5.6-14.6c2-7.7,5.1-14.9,7.5-22.4c17,0,34,0,50.9,0c3.6,0,7.4-0.6,10.3,2.4c0.8,0.8,1.9,0.4,2.7-0.3
		C754.2,277.3,755.7,278.5,757,280z"/>
	<path class="st155" d="M675,313.9c0.3,0.1,0.6,0.2,0.9,0.3c0.4,0.5,0.6,1,0.6,1.7c0.4,6,0.9,11.9,0.7,17.9
		c-0.4,11.1-0.5,22.2-2.7,33.1c-1.3,6.3-0.2,12.9-0.4,19.4c-0.1,2.5,0.1,5.2-2.9,6.3c-3.7-0.4-4.5-3.6-5.5-6.3
		c-6.3-16.8-13.1-33.4-19.6-50.1c-1.5-3.9-3.2-7.7-3.5-11.9c-0.1-0.8,0.1-1.5,0.3-2.3c0-0.3,0-0.5,0-0.8
		C653.7,318.8,664.4,316.3,675,313.9z"/>
	<path class="st156" d="M302,276c1.9,12,5,23.7,8.3,35.4c0.8,2.8-0.8,3.5-2.3,4.6c-1.6,2.3-3.9,2.2-6.2,1.8
		c-4.4-0.8-8.9-0.8-13.3-1.4c-1.1-0.1-2.2-0.3-3.2-0.8c-1.7-0.6-3.5-1.1-5.3-1c-1,0-2,0-3.1-0.2c-2.2-0.8-4.4-0.9-6.7-0.9
		c-0.8,0-1.5,0-2.2-0.1c-2.1-0.8-4.3-0.9-6.6-0.9c-0.5,0-1-0.1-1.5-0.1c-1.6-0.6-3.3-0.8-4.9-1.1c-0.7-0.3-1.3-0.7-1.8-1.2
		c-1.2-0.1-2.3-0.2-3.2-1.1c1.7-0.1,3.5,0.4,5-1c-0.7-2.4,0.8-4.2,2.1-5.9c5.6-7.4,11.2-14.8,17-22.1c1.3-1.6,2.8-2.8,4.9-3
		c0.3-0.3,0.7-0.7,1-1C287.4,276,294.7,276,302,276z"/>
	<path class="st157" d="M279,277c-8,10.3-16,20.7-24,31c-2-0.1-3.9,0.9-3.3-3.1c0.7-4.9,0.8-9.9-1-15.1c-1.5-4.2-1.7-9.4,1.3-13.8
		c8.1,0,16.2,0,24.3,0.1C277.2,276.1,278.1,276.7,279,277z"/>
	<path class="st158" d="M206,297c-2.6-0.8-4.1-2-4.9-5.2c-1-3.7-2-7.8-4.8-11c-1.1-1.3-0.6-3.2-0.3-4.8c6.3,0,12.6,0,18.8,0
		c1.8,0,3.7-0.3,5.2,1C216.1,284.2,210.8,290.4,206,297z"/>
	<path class="st159" d="M846,359c0.7,0.6,1.4,1.3,2.1,1.9l-0.2,0.1c-6.4,3.1-13.4,3.9-20.3,4.1c-13.1,0.4-26,2.6-39.1,3.5
		c-4.1,0.3-8.2,0.7-12.4,0.2c-3.1-1.5-1.8-3.9-1-6c1.8-4.3,4.9-7.9,7.4-11.8c5.1-8,9.5-16.3,15.2-23.9c1.4-1.9,2.7-3.8,4.8-4.9
		c2.8-0.7,4.8,0.8,6.7,2.5c11,9.8,22.1,19.3,33.3,28.9C844.3,355.2,845.4,356.9,846,359z"/>
	<path class="st160" d="M846,359c-13.2-10.3-25.5-21.6-38.1-32.6c-1.5-1.3-3-2.6-4.9-3.4c-0.1-0.2-0.3-0.4-0.4-0.6
		c-0.1-0.5-0.1-1,0.1-1.4c6.7-8.4,14.1-16.1,21.6-23.8c1.8-1.9,3.5-4,5.5-5.7c1.4-1.2,3.1-2.5,5.3-1.5l0,0c0.5,3.6,0.8,7.2,1.5,10.8
		c3.3,17.2,6.8,34.4,10,51.7C846.9,354.5,848.2,357.1,846,359z"/>
	<path class="st161" d="M479,308c0-0.3,0-0.6,0-0.9c0.3,0,0.6-0.1,1-0.1c14.7-1.5,29.4-3,44.1-4.5c1.3-0.1,2.6-0.3,4-0.4
		c0,0.3,0,0.6,0,0.9c1.2,3.6-0.9,6.5-2.5,9.3c-5.6,10-11,20.1-16.4,30.3c-1,1.8-2,3.4-3.6,4.7c-0.5,0.3-0.9,0.4-1.5,0.4
		c-3.1-0.3-4.3-3-5.6-5.1c-5.6-9.6-12.1-18.5-17.7-28C479.5,312.5,478.8,310.4,479,308z"/>
	<path class="st162" d="M636.1,585.1c-2.4-4.5-2.3-9.4-3-14.2c-1.3-9.3-1.7-18.7-4-27.8c2.9-0.1,4.3,2.3,6.4,3.6
		c9,5.6,18.2,10.9,26.6,17.4C653.7,571.5,645.2,578.7,636.1,585.1z"/>
	<path class="st163" d="M247,534c-4.6-1.1-8.6-3.4-12.7-5.4c-15.5-7.4-30.6-15.8-46.4-22.7c-0.9-0.4-1.9-0.6-2.8-0.9
		c-0.3,0-0.6,0-0.9,0c0-0.3-0.1-0.6-0.1-0.9s0-0.7,0-1c6-4.1,11-9.3,16.2-14.2c0.9-0.8,1.6-1.6,2.8-1.8c2.5-1,3.8,0.9,5,2.2
		c12.4,13.2,25.2,26,37.4,39.5C246.7,530.3,248.2,531.7,247,534z"/>
	<path class="st164" d="M163.9,563.9c1.2-1.1,2.5-1.7,4.1-1.9c-0.1,9.7-2.7,19-6,28c-1.8-7.9-0.7-16-1-24
		C161.7,564.9,163.4,565.2,163.9,563.9z"/>
	<path class="st165" d="M247,534c-2.8-3.3-5.4-6.7-8.3-9.8c-11.8-12.5-23.8-24.8-35.7-37.3c0-0.3,0-0.7,0-1l0,0
		c4.7-5.5,11.8-6.3,18-8.9c5.8-2.4,11.8-4.3,17.5-6.9c1.4-0.7,2.8-0.9,4.4-0.5c0.6,0.1,1.1,0.4,1.5,0.8s0.7,0.9,0.9,1.5
		c0.1,0.6,0.2,1.2,0.2,1.8c2.4,11.2,2.1,22.7,4.3,34c1.5,7.8-0.1,15.9,1,23.9c0.2,1.4-0.5,2.6-1.7,3.4
		C248.3,534.7,247.7,534.3,247,534z"/>
	<path class="st166" d="M241,418c-17.6-3.2-35.1-7.4-52.9-9c0-0.3,0-0.7,0-1c1.8-5.5,6.7-8.1,10.5-11.7c9.6-9,19.5-17.5,29.2-26.4
		c6.3-5.8,12.1-12.4,20.2-15.9c0.4-0.3,0.7-0.5,1.1-0.8c2.1,2.5,1.9,5.6,1.7,8.4c-1.4,16.1-4.4,32.1-5.7,48.2
		c-0.2,2.3-0.8,4.6-1.8,6.7C242.7,417.3,242,417.8,241,418z"/>
	<path class="st167" d="M248,353.9c-11.8,11.6-24.2,22.5-36.5,33.4c-6.8,6-13.5,12.2-20.3,18.3c-1,0.9-2.1,1.6-3.1,2.4
		c-4.3-12.3-9.4-24.4-13-37c17.8-4.4,35.7-8.8,53.5-13.1C235,356.3,241.3,354.2,248,353.9z"/>
	<path class="st168" d="M313,616c-2.7-7.3-3-15.2-4.9-22.7c-0.4-1.4-0.7-2.9-1.1-4.3c2-2.1,4.7-2.2,7.4-2.2c14.7-0.1,29.3-0.2,44,0
		c3.5,0.1,7.1,0.2,9.6,3.2c0,0.3,0,0.7,0.1,1c-3.1,0.1-5.5,2.1-8.2,3.4c-15.1,7.1-30.3,14.2-45.4,21.3
		C314,615.9,313.5,615.9,313,616z"/>
	<path class="st169" d="M393,617c-0.9,2.6-3.2,1.9-5.1,1.9c-10.3,0.1-20.6,0-30.9,0c-0.2-6.3,4.4-10.5,6.9-15.6
		c2-4,2.7-8.3,4.1-12.4v-0.2c0.7-0.5,1.3-0.4,1.9,0C377.6,599.6,385.3,608.3,393,617z"/>
	<path class="st170" d="M369.9,590.9c-0.6,0-1.3,0-1.9,0c-3.4-1.3-7-1.8-10.7-1.8c-16.8,0-33.5,0-50.3,0l0.1-0.2
		c-0.2-2.7,0.7-5.1,2-7.5c7.6-13.6,15.5-27.1,23-40.7c1.6-2.9,2.7-6.5,7-6.8c0.3,0,0.6,0.1,0.9,0.1c9,18.6,19.2,36.5,29.1,54.6
		c0.1,0.2,0.6,0.2,0.9,0.3C370,589.6,369.9,590.3,369.9,590.9z"/>
	<path class="st171" d="M677,314.1c2.4-2.6,6-2.8,9-4c24.3-9.4,48.7-18.7,73-28.1c0.3,0,0.6,0.1,0.9,0.1c0.4,0.4,0.6,0.9,0.8,1.4
		c0.3,3.7-0.9,7.3-1.7,10.8c-3.5,14.4-6.7,28.8-9.8,43.3c-0.7,3.3-1.9,6.4-4.3,8.8c-2.9,0.9-5.5,0.1-8.1-1.1
		c-17.8-8.7-35.9-16.6-53.7-25.3C680.3,318.7,677.3,317.8,677,314.1z"/>
	<path class="st172" d="M760,283c0-0.3-0.1-0.6-0.1-0.9c19.9,1.9,39.8,3.9,59.7,5.8c4.8,0.5,9.6,0.8,14.3,1.1
		c0.4-0.4,0.7-0.4,0.9,0.1c0,0.3,0.1,0.6,0.1,0.9c-5,2.5-7.7,7.5-11.6,11.1c-7.1,6.6-12.6,14.9-20.4,20.8c-4.1,0.7-5.5-2.3-7.3-5
		c-0.8-4.9-6.1-5.9-8.4-9.4c-1.7-2.6-4-3.9-6.9-4.3c-7.1-4.6-12.9-10.8-19-16.6C760.4,285.7,760.2,284.3,760,283z"/>
	<path class="st173" d="M834.9,289.1c-0.3,0-0.6-0.1-0.9-0.1c0-0.3,0-0.6,0-1c1.8-3.8,1.2-8,2.1-12c5.8,0,11.6,0.2,17.3-0.1
		c4.3-0.2,6.2,1.2,5.7,5.6c-0.2,1.8,0,3.6,0,5.4C851,287.7,842.9,288.4,834.9,289.1z"/>
	<path class="st174" d="M398,302c0.3-1,0.7-2,1-2.9c0.3,0,0.7,0,1,0c0.7,1,1.3,2,2,2.9c-0.2,0.2-0.3,0.4-0.5,0.6
		C400.1,303.3,398.9,303.3,398,302z"/>
	<path class="st175" d="M810,619c1.1-8.5,1.3-17.1,3.1-25.5c0.4-1.7,0-3.6,0-5.4c2.7,0.9,3.1,3.7,4.4,5.7
		c5.5,8.4,11.7,16.4,16.6,25.2C826,619,818,619,810,619z"/>
	<path class="st176" d="M818,579c-1.4-3.6,2.2-5.2,3.2-7.9h0.4c0.2,0.3,0.3,0.6,0.4,0.8C820.7,574.4,819.4,576.7,818,579z"/>
	<path class="st177" d="M241,619c-2.7-14-7.5-27.4-10.9-41.2c-0.4-1.6-0.7-3.2-1-4.8c2,0.1,4.2-0.3,6,1c3.3,2.2,7.1,2.4,10.9,2.1
		c8.7,2,17.6,3.1,26.1,5.8c5.1,2,10.5,3,16,3.1c6,1,11.9,2.1,17.9,3.1c0.3,0.1,0.5,0.3,0.4,0.5s-0.1,0.4-0.2,0.4
		c-0.8,3.6-3.8,5.3-6.2,7.6c-4.3,4.2-8,9-12.2,13.4c-2.7,2.9-7,4.4-7.7,9.1c-0.7,0-1.3,0-2,0c-12,0-24,0-36.1,0
		C241.6,619,241.3,619,241,619z"/>
	<path class="st178" d="M306.1,589c-0.1-0.3-0.1-0.6-0.2-0.8c-2.2-7.9-7.1-14.6-10.8-21.8c-5.2-10.2-10.7-20.2-16.1-30.3
		c0.9-2.8,3.2-2.5,5.3-2.5c9-0.1,17.9,0,26.9,0c2.5,0,5,0.2,7.2-1.4c0.5-0.4,1.1-0.6,1.7-0.8c6.1-0.2,12.4-1.6,18.4,1
		c0.2,0.2,0.4,0.5,0.6,0.7c0,0.3,0,0.6,0.1,0.9c-8.5,13.8-16.7,27.8-24.3,42.2c-2.3,4.4-5.1,8.5-7.7,12.8
		C306.8,588.9,306.4,589,306.1,589z"/>
	<path class="st179" d="M562,618c-5.6,2.2-11.4,0.5-17.1,1c-2,0.2-4,0-5.9,0c-2.3-1.8-2.2-4.3-2.2-6.8c-0.1-11.9-0.7-23.9,2.3-35.6
		c0.3-0.9,0.7-1.8,1.9-1.6C548.4,589.1,555.4,603.5,562,618z"/>
	<path class="st180" d="M541,575c-0.3,0.3-0.7,0.7-1,1c-0.7,4.1-2.9,7.5-5.4,10.8c-2.2,2.8-4.6,5.4-5.8,9c-0.9,2.8-3.9,3.9-6.7,4.4
		c-1.4,0.3-2.1-0.8-1.1-2.2c6.7-7.8,11.9-16.8,19.1-24.2c0.3,0.1,0.6,0.1,0.9,0.2C541,574.3,541,574.7,541,575z"/>
	<path class="st181" d="M775,367.9c8.7-1,17.4-1.9,26-2.9c13.4-1.6,27-1.7,40.4-3.8c2.1-0.3,4.3-0.1,6.4-0.2
		c0.1,0.3,0.1,0.6,0.1,0.9c-2.7,1-4.7,3.1-6.6,5.1c-20,20.1-40.7,39.5-61.4,58.9c-0.3,0-0.7,0-1,0c-0.3-0.2-0.5-0.3-0.8-0.5
		c-2.8-5-1.3-10.7-2.2-16.1c-1.9-11.1-1.8-22.4-2.9-33.7c-0.2-2.4,0-5,1.1-7.3C774.5,368.3,774.8,368.1,775,367.9z"/>
	<path class="st182" d="M757,280c-1.7-0.7-3.3-1.3-5-2c-0.3-0.3-0.7-0.7-1-1c2.6-1.5,4.6,1,7,1C757.6,278.7,757.3,279.4,757,280z"/>
	<path class="st183" d="M163.9,563.9c0.5,2.7-1.6,1.8-2.9,2.1c0-0.3,0-0.7,0-1c0.3-0.3,0.7-0.7,1-1
		C162.6,563.9,163.3,563.9,163.9,563.9z"/>
	<path class="st184" d="M521,598c3.1,1.8,3.7-3,6.3-2.3c-1.1-5.2,4-7,6-10.5c1.8-3.3,4.4-6.1,6.7-9.2c0.9,2.3,0.4,4.6,0,6.8
		c-1.9,12-0.7,24.1-1,36.2c-0.3,0-0.7,0-1,0c-8.8,0-17.5,0-26.3,0c-1.9,0-4,0.4-5.7-1C511,611.3,516,604.7,521,598z"/>
	<path class="st185" d="M404,532.1c-1.3-0.1-2.6-0.1-3.9-0.2c-0.2-0.3-0.3-0.6-0.3-0.9c0-0.3,0.1-0.5,0.1-0.5c0.4-0.6,1.1-1,1.7-1.3
		c22.7-18.1,45.9-35.6,69-53.3c2.8-2.2,5.9-4.8,9.7-1.5c2.4,5,1.6,10.4,2.4,15.6c1.2,8.8,2.5,17.7,3.3,26.6c0.2,1.8,0.2,3.6-0.2,5.4
		c0,0.8,0,1.6,0,2.5c-0.1,0.5-0.4,1-0.8,1.4c-17.2,0.6-34.3,2.3-51.4,3.8c-7.1,0.6-14.2,0.9-21.3,1.2
		C409.5,531.1,406.7,531.2,404,532.1z"/>
	<path class="st186" d="M485,526c0-0.3,0-0.6,0.1-0.9c0.4-0.4,0.9-0.6,1.4-0.6c13.9,4.3,27.6,9.5,41.5,13.8c2.3,0.7,4.9,1.6,5.1,4.8
		c-5.4,3.6-11.9,4.2-17.8,6.2c-10.3,3.3-20.4,7.2-31.2,8.9C483.9,547.3,483.7,536.6,485,526z"/>
	<path class="st187" d="M400,531c0,0.3,0,0.6,0,0.9c-5.4,0-10.7,0-16.1,0.1c-9.2-1.1-18.4-0.1-28.1-0.6c4.4,0.4,8.3-0.5,12.1,0.6
		c-4.8,1.9-9.8,0.6-14.7,0.9c-4.8,0.2-9.6,0.1-14.4,0.1l0,0c-1.1-0.6-1.8-1.4-1.5-2.8c0.3-0.8,0.8-1.6,0.7-2.4
		c-1.8-11.5,1.2-22.8,2.1-34.1c1-12.5,2.3-24.9,3.7-37.4c0.3-2.6,1.2-5.1,2.6-7.4c3.7-1.6,5.3,1.6,6.6,3.6
		c11.6,18.6,23.8,36.7,35.3,55.3c3.4,5.5,7.1,10.8,10.5,16.3C400.3,526.2,401.9,528.4,400,531z"/>
	<path class="st188" d="M368,532c-4.8,0-9.6,0-14.3,0c10.1-0.4,20.2-2.2,30.3,0C378.7,532,373.4,532,368,532z"/>
	<path class="st189" d="M744,556.9c3-10.8,7-21.3,10.9-31.7c1.6-4.3,3.5-8.6,4.1-13.2c-0.2-0.9,0.1-1.2,1-1
		c8.2,3.9,15,10.1,22.9,14.6c5.3,3.1,10.6,6.1,15.1,10.3c0,0.3,0,0.6,0,0.9c-12.3,3.4-24,8.7-35.9,13.1
		C756,552.2,750,554.6,744,556.9z"/>
	<path class="st190" d="M786,600c2.9-2.3,6.6-2.8,9.9-4.1C793.4,599.2,790.3,601,786,600z"/>
	<path class="st191" d="M760,511c-0.3,0.3-0.7,0.6-1,1c-11.4,4-22,9.9-33.1,14.6c-7.6,3.2-15,6.9-22.6,10.2
		c-1.3,0.6-2.8,0.8-4.3,1.2c-2.1-2.1-0.8-4,0.3-5.8c8.2-13.1,16.4-26.2,24.4-39.4c2.4-4,4.9-7.9,7.4-11.8c1.5-2.3,2.7-5,5.4-6.4
		c0.5-0.1,1,0,1.4,0.3c0.3,0,0.7,0,1,0c4.3,10.1,10.8,18.9,16.6,28.1c1.6,2.4,2.4,5.5,5.4,6.9C760.7,510.3,760.3,510.7,760,511z"/>
	<path class="st192" d="M738,475c-0.3,0-0.6,0-1,0c-5.7,3.8-12.6,4-19,5.5c-10,2.3-20,4.6-29.9,7.1c-2.2,0.5-4.2,0.8-6.3-0.3
		c-2.4-1.6-0.8-3.2,0.2-4.6c3.6-4.6,7.7-8.7,11.9-12.6c10-9.2,19.1-19.3,28.9-28.7c4.8-4.6,9.2-9.6,15-12.8c0.6,0,1.1,0.1,1.6,0.4
		c0.4,0.4,0.7,0.9,1,1.4c0.9,4.6,0.9,9.2,0.2,13.8c-0.9,6.2-0.3,12.5-0.4,18.8c-0.1,3.5-0.4,6.9-2.2,10C738,473.7,738,474.3,738,475
		z"/>
	<path class="st193" d="M738.1,473c0.3-11.1-0.9-22.1,0.9-33.2c0.6-3.6-0.9-7.2,0.1-10.8c1.7-1.7,3.9-2.9,6.1-2.9
		c10.2-0.2,20.4-2,30.7-1.2c1.2,0.1,2.2,0.5,3.3,1.1l0,0c-0.9,3.3-3.3,5.7-5.6,8.1c-9.4,9.8-18.2,20.2-26.9,30.6
		C743.9,467.7,740.9,470.2,738.1,473z"/>
	<path class="st194" d="M231,570c-0.3-3.8,2.7-6.7,4.3-9.2c4.4-6.6,7.2-14,12-20.3c1.9-2.4,3.3-3.8,6.2-3.6c0.3,0,0.9-0.2,0.9-0.2
		c-0.1-1-0.9-0.6-1.5-0.7c-0.1-0.7,0-1.5,0.6-1.7c6.8-2.4,13.7-4.5,20.9-2c0.2,0.3,0.3,0.5,0.5,0.8c-1.9,3.7-5.6,5.5-8.7,8
		C254.5,550.6,243.3,560.9,231,570z"/>
	<path class="st195" d="M320,533c0,0.3,0,0.7,0,1c-10.1,1.1-20.1,0.3-30.2,0.4c-3.9,0.1-7.9,0.6-11.8-0.4c-0.8-0.9-1.9-1-3-1v-0.1
		c-0.3-0.7-0.1-1.2,0.5-1.7c4.5-1.2,9.1-1.6,13.8-1c7.9,1.1,16,0.2,24,0.5C315.7,530.9,318.4,530.4,320,533z"/>
	<path class="st196" d="M278,534c14,0,28,0,42,0c-1.7,1.4-3.8,1-5.8,1c-9.6,0-19.3,0-28.9,0c-2.2,0-4.3-0.1-6.3,1
		C278.7,535.3,278.3,534.7,278,534z"/>
	<path class="st197" d="M246,576.1c-4.1,2.2-8,0.4-11.9-0.9c-0.4-0.1-1-0.4-0.4-0.9c0.3-0.3,0.9-0.2,1.4-0.3
		C238.7,574.7,242.3,575.4,246,576.1z"/>
	<path class="st198" d="M288,585c-5.8,1.5-11-0.2-16-3.1C277.3,582.9,282.7,584,288,585z"/>
	<path class="st199" d="M275.1,532c0,0.3,0,0.6-0.1,0.9c-7.4,0.6-14.8,1.1-22,3.1c-1.4,0-2.8,0.1-4-0.9c-1.6-8.4,0.3-17.1-1.3-25.3
		c-2.2-11.2-1.8-22.7-3.8-33.8c-0.2-0.9,0.1-1.9,0.2-2.9c3.6-0.5,4.4,2.6,5.5,4.7c7.6,14.4,15.8,28.3,23.2,42.8
		c1.6,3.2,4.5,5.9,4,9.9C276.4,531.3,275.7,531.6,275.1,532z"/>
	<path class="st200" d="M242,417c1.4-12.4,2.8-24.9,4.4-37.3c1.1-8.8,2.3-17.6,2.7-26.5c0.3-0.1,0.6-0.2,0.9-0.3
		c0.2,0.1,0.5,0.1,0.7,0.2c0.9,0.5,1.9,0.9,2.3,1.8c3.6,8.6,10.4,15.4,13.1,24.4c0.7,2.4,2.4,4.3,3.7,6.4
		c5.1,7.9,9.2,16.4,13.7,24.7c1.1,2,1.7,4.3,1,6.7c-0.3,0.5-0.7,0.8-1.3,1.1c-7,2-14.2,0.8-21.3,1.1c-4.6,0.2-9.3-0.2-13.9,0.3
		c-2.1,0.2-3.9-0.3-5.5-1.7C242.3,417.5,242.1,417.3,242,417z"/>
	<path class="st201" d="M253.2,310.1c0.6,0,1.2,0,1.9-0.1c1.5,1.1,3.5-0.2,5,1c0.3,0,0.6,0,1,0c2.2,1.3,4.8-0.3,7.1,1
		c0.7,0,1.3,0,2,0c2.2,1.3,4.8-0.3,7,1c1,0,2,0,3,0c1.5,1.1,3.5-0.2,5,0.9c1,0,2,0,2.9,0c0.1,2.7-2,2.8-3.7,2.9
		c-3.6,0.3-7.3,0.4-10.9-0.1c-4.2-0.6-8.4-2.1-12.8-1.6c-0.7,0.1-1.6-0.2-1.6-0.2c6.4,5.4,12.4,12.4,18.3,19.4
		c4.5,5.3,8.3,11.1,12.9,16.3c2.5,2.9,3.7,6.8,6.9,9.2c1.4,1,1,2.7-0.3,3.9c-2.9,1.7-5.9,0.5-8.7-0.2c-10.1-2.6-20.3-4.9-30.5-6.8
		c-2.9-0.5-5-2.5-7.4-3.8v-0.3c0-1.6,0-3.2,0-4.9c1.1-11.3,2.1-22.6,3.2-34C253.3,312.7,253.2,311.4,253.2,310.1z"/>
	<path class="st202" d="M643,322c0.3,0.3,0.6,0.6,1,1c-2.1,14.1-9,26.8-12.4,40.6c-1.1,4.4-2.8,9.1-8.7,9.5
		c-7.8,0.3-15-2.3-22.5-3.9c-10.9-2.3-21.9-3.9-32.5-7.5c-0.5-0.1-1.1-0.2-1.6-0.3c-0.5-0.2-1-0.5-1.3-0.9c-0.1-0.2-0.2-0.5-0.3-0.7
		c0.1-0.2,0.2-0.5,0.3-0.7c0.3,0,0.6,0,1,0c4.4-0.5,8.1-2.8,12-4.7C599.7,343.6,621.3,332.8,643,322z"/>
	<path class="st203" d="M505,346.9c4.5-11.6,11.7-21.9,17.1-33.1c1.8-3.7,3.9-7.3,5.9-10.9c4.7,3.9,7.1,9.5,10.4,14.3
		c9,13.2,17.5,26.8,26.2,40.2c0.3,0.4,0.3,0.9,0.5,1.4l-0.1,0.1c-1.6,1.8-3.6,2-5.9,1.5c-16.4-3.2-32.7-6.7-49-10.3
		C507.9,349.9,505.7,349.5,505,346.9z"/>
	<path class="st204" d="M630,542c-0.3,0-0.6,0.1-0.9,0.1c-3.4,1.1-6.5,0-9.6-1.1c-14.5-5-29.1-9.8-43.6-15
		c-6.1-2.2-12.4-3.4-18.1-6.7c-0.5-0.3-0.8-0.6-1.1-1.1c-0.2-0.5-0.2-1-0.1-1.5c5.9-7.5,13.8-12.8,20.8-19.1
		c11.3-10.3,23.1-19.9,34.4-30.1c3.7-3.3,8.4-5.4,11.3-9.6c1.2-0.6,2.2-1.5,3.6-1.4c0.6,0.2,1,0.6,1.3,1.1c0.2,0.6,0.4,1.1,0.5,1.7
		c1.3,6.2,1.5,12.6,1.5,18.8c0,18.1,1.7,36.1,1.3,54.1c-0.1,3,0.2,6-1.2,8.8C630,541.3,630,541.7,630,542z"/>
	<path class="st205" d="M630,541c-0.3-1.8-1-3.6-0.9-5.4c0.4-13.6-1.2-27.2-1-40.8c0.2-12.3-1.6-24.5-1.1-36.8
		c1.5-2.6,3.5-1.4,5.1-0.4c14.5,8.3,29.3,16.1,44.1,23.8c1.6,0.8,2.3,2.4,3.5,3.5c0.3,0.4,0.5,0.8,0.7,1.2c0.6,1.5-0.4,2.2-1.5,2.9
		c-9.9,9.3-18.5,19.9-27.8,29.7C644.1,526.1,637.8,534.2,630,541z"/>
	<path class="st206" d="M679,489c0.4-1,0.8-2,1.1-2.9c0.3-0.3,0.6-0.3,0.9,0c6.6,0.8,12.8-2,18.8-3.6c10-2.7,20.4-3.7,30.2-7.2
		c2.1-0.7,4.6-0.2,6.9-0.2c-7.6,12.5-15.2,25-22.9,37.4c-4.8,7.8-9.8,15.4-14.6,23.2c-0.4,0.6-0.3,1.6-0.5,2.4
		c-0.6,0.4-1.3,0.7-1.9,1.1c-5-15.8-10.1-31.7-15.1-47.5C681.5,489.8,680.6,489.1,679,489z"/>
	<path class="st207" d="M557,518c10.8,2.6,21.2,6.6,31.7,10.1c13.5,4.5,26.9,9.3,40.4,14c0,0.3-0.1,0.6-0.1,0.9
		c-14.9,6.1-29.7,12.2-44.5,18.4c-9.2,3.8-18.3,7.8-27.4,11.7c-0.3,0-0.7,0-1,0c-3.2-2-3-5.4-3.1-8.5c-0.4-8.3,0.8-16.6,1.3-24.9
		c0.4-6.3,0.4-12.6,0.8-18.9C555.1,519.3,555.7,518.4,557,518z"/>
	<path class="st208" d="M556,520c2.2,6.3,0.6,12.6,0.6,19c-0.1,11.3-3.2,22.6-0.6,34c-2.8,0.2-3.4-2.1-4.5-3.9
		c-4.9-8.2-9.7-16.5-15.5-24.1c0-0.7,0-1.3,0-2c-1.6-2.2-0.1-3.8,1.1-5.3c4.6-5.5,9.4-10.7,14.2-16C552.4,520.4,553.8,519,556,520z"
		/>
	<path class="st209" d="M491.1,561c10.5,1.5,20.5,5.1,30.9,7.1c-2,2.2-4.3,1.1-6.5,0.5c-7.1-1.8-14.1-3.7-21.1-5.5
		c-2.4-0.6-4.7-1.4-7.3-0.9C488,560.6,489.7,561.2,491.1,561z"/>
	<path class="st210" d="M556,520c-7,7.4-14.1,14.6-20,23c-1,0-2,0-3,0c-8.1-4.1-17.1-5.8-25.5-9.3c-7.1-2.9-15.1-4-21.5-8.6
		c0.3-0.5,0.7-0.9,1.3-1.2c16.8-3.4,34-4.4,51-6.2c2.8-0.3,5.5-1,8.3-1.4c3.6-0.5,7.3-1,10.4,1.7h0.1
		C556.7,518.7,556.3,519.3,556,520z"/>
	<path class="st211" d="M241,418c0.3-0.3,0.7-0.7,1-1l0,0c1.7,1.4,2.2,3.2,2.2,5.3c-0.4,12.9,1.6,25.8,1.1,38.7c-0.1,3.4,0,7-2.2,10
		c-8.6,3.3-17.1,6.6-25.7,9.9c-4.7,1.8-9.5,3.4-14.3,5.1c5.9-11.8,13.2-22.9,19.8-34.4c4-7,7.8-14.2,11.6-21.4
		C236.5,426,240,422.7,241,418z"/>
	<path class="st174" d="M402,302c6.9,4,12.6,9.6,18.9,14.5c9.3,7.2,18.4,14.7,27.6,22c1.9,1.6,3.9,3.2,6.5,3.5
		c0.4,0.4,0.5,0.8,0.5,1.3c-0.2,1.3-1,2.2-2.1,2.9c-6.6,5.8-13.3,11.4-20.1,16.8c-2.3,1.8-4.5,4-7.7,4.1c-4.7-1.5-5.7-5.9-7-9.6
		c-4.8-13.9-10-27.7-15.6-41.3c-1.2-3.1-2.5-6.1-3.4-9.3C398.8,304.3,399.4,302.8,402,302L402,302z"/>
	<path class="st212" d="M455,343c0-0.3,0-0.6,0-1c8-11.3,16-22.7,24-34c7.6,12.1,15.3,24.1,22.9,36.2c0.6,1,1.4,1.8,2.1,2.8
		c-0.2,0.2-0.4,0.5-0.6,0.7c-3.5,2.3-7.2,0.8-10.7,0.4c-11-1-22.2-0.7-33.1-2.8C457.9,344.9,456,344.9,455,343z"/>
	<path class="st213" d="M361,372c-1.2,3.7,3.6,3.4,4,6c-1.5,2.1-3.6,1.6-5.5,1.2c-18.2-3.7-36.5-7.4-54.5-12.1
		c-0.6-0.2-1.3-0.4-1.9-0.7c-1.5-0.9-2.8-1.9-3.9-3.2c-1-1.7-0.8-3.5-0.3-5.3c2.8-11,5.5-22.1,8.6-33c0.6-2,0.9-4.3,3.5-4.9
		c1.1-1,1.7-1.9,3.3,0.1c9.4,11.1,19.3,21.8,28.8,32.8c4.9,5.6,10.6,10.4,14.7,16.8C358.6,370.6,359.9,371.2,361,372z"/>
	<path class="st214" d="M311,320c-3.7,14.3-7.3,28.7-11,43c-1,1.8-2,1.8-3,0c-1.2-3.5-4.4-0.9-6.6-2.5c0.1-1.6,2.5-1.7,2.9-3.1
		c-5.5-5-9.3-11.2-13.6-17c-4.6-6.2-10.3-11.6-15.5-17.3c-2.3-2.6-5.2-4.6-7.1-7.6c-0.5-0.9-1.1-1.8-0.3-2.7c0.8-0.8,1.5,0.5,2,0.5
		c9.8-1,19.4,4.4,29.3,0.9c6.7,0.7,13.3,1.3,20,2c1,0.4,2,0.8,3,1.1C311,318.1,311,319,311,320z"/>
	<path class="st215" d="M402,302c-1.3,2.6-0.4,5.2,0.5,7.5c5.6,14.1,11.5,28,16.7,42.2c1.4,4,2.7,8.1,4.5,11.9
		c0.5,1.1,1,2.1,2.3,2.4c0.3,0.6,0.3,1.1-0.1,1.6c-5.6,3.3-11.9,4.1-18,5.2c-10.6,1.8-21,4.5-31.7,6.1c-2.9,0.4-5.9,1.5-8.7-0.2
		c-0.2-0.2-0.3-0.5-0.5-0.7c4.6-13.5,10.7-26.4,16-39.7c4.9-12.2,10-24.2,15-36.3C399.3,302,400.6,302,402,302z"/>
	<path class="st216" d="M304,364c8.1,3.6,16.9,4.8,25.5,6.6c10.1,2.1,20,4.7,30.1,6.5c1.8,0.3,3.6,0.6,5.4,0.9c0.6,0,1.3,0,1.9,0
		l0.1,0.1c0.3,0.5,0.4,0.9,0.1,1.4c-0.3,0.4-0.7,0.7-1.1,1c-4.8,3.7-10.6,5.4-15.9,8.1c-12,6.1-24.4,11.1-36.5,17
		c-8.8,4.3-17.5,8.9-27.1,11.2c-0.5,0-1-0.1-1.5-0.4c-0.3-0.4-0.6-0.9-0.6-1.4c-0.3-7.3,2.7-13.9,4.5-20.7
		c2.2-8.5,4.7-16.9,7.1-25.3C297.3,364.2,299.2,363.3,304,364z"/>
	<path class="st217" d="M677,314.1c4.3,3.6,9.6,5.2,14.5,7.6c15.7,7.6,31.6,14.9,47.4,22.3c1.7,0.8,3.4,1.3,5.1,2
		c0.5-0.3,0.9-0.2,1.2,0.3c0.1,0.5,0.1,1-0.2,1.5c-2.7,3.3-6.7,4.9-10.2,6.8c-8.7,4.7-15.8,12.1-25.7,14.6c-1.4,0.4-2.8,1-4.3,0.9
		c-2.3-0.6-3.4-2.5-4.5-4.4c-7.8-14.2-15.4-28.5-22.7-43c-1.2-2.4-2-4.9-1.8-7.6c0-0.3,0-0.6,0-0.8
		C676.3,314.1,676.6,314.1,677,314.1z"/>
	<path class="st218" d="M623,371c2.3,0.2,3.3-0.8,4.4-3c3.6-7,4.4-14.8,7.4-22c2.6-6.4,4.9-13,6.7-19.7c0.4-1.4,0.8-3,2.6-3.4
		c5.1,16,12,31.3,18,47c2.8,7.3,5.4,14.7,8.1,22c0.3,0.5,0.3,0.9-0.1,1.4c-2.6,1.3-5,0-7.1-1.1c-12.4-6.1-25.1-11.5-37.3-17.9
		C624.5,373.4,622.5,373.2,623,371z"/>
	<path class="st219" d="M670,393c0-0.3,0-0.7,0-1c2.1-0.7,1.9-2.4,2-4.1c0-2.7,0.2-5.3,0-8c-0.7-11.5,2.5-22.6,2.8-34
		c0.2-9.2,0.2-18.3,0.2-27.5c0-1.2-1-2.7,1-3.4c9.1,17.2,18.2,34.4,27.3,51.5c0.5,0.9,1.1,1.6,1.7,2.4c1,0.5,1.5,1.2,1.2,2.3
		c-5.3,6.6-12.9,10.2-19.7,14.9c-4.6,3.2-8.7,7.3-14.5,8.5c-0.5,0-1-0.2-1.4-0.5C670.3,393.9,670.1,393.5,670,393z"/>
	<path class="st214" d="M268,312c-2.4-0.2-4.9,0.7-7.1-1C263.4,311.2,265.9,310.4,268,312z"/>
	<path class="st214" d="M277,313c-2.4-0.2-4.9,0.7-7-1C272.4,312.2,274.9,311.4,277,313z"/>
	<path class="st214" d="M260,311c-1.7-0.1-3.5,0.4-5-1C256.7,310.1,258.5,309.7,260,311z"/>
	<path class="st214" d="M285,314c-1.7-0.1-3.5,0.4-5-0.9C281.7,313.1,283.5,312.7,285,314z"/>
	<path class="st220" d="M745,347c0-0.3-0.1-0.6-0.1-0.9c3.3-5,9-6.2,13.9-8.2c11.7-4.8,23.5-9.3,35.2-14.2c2.8-1.2,5.8-2.9,9-0.7
		l0,0c-6.1,9.6-12.4,19.1-18.4,28.8c-3.3,5.3-7.5,10.1-9.6,16.1v0.1c-0.4,0.3-0.8,0.4-1.3,0.4c-0.5-0.1-0.9-0.3-1.2-0.6
		c-8-4.7-15.3-10.5-23-15.7C747.6,350.8,745.4,349.6,745,347z"/>
	<path class="st221" d="M803,322.9c-10.8,2.9-20.5,8.3-31,12.1c-9.2,3.4-18.1,7.3-27.1,11c-0.3,0-0.6-0.1-0.9-0.1
		c4.6-11.8,5.7-24.5,9-36.6c2.4-8.8,3.2-17.9,6.9-26.3c7,6.3,14,12.6,21,19c1.2,0,2.2,0.7,3,1.5c4.1,4.4,9.2,7.8,12.9,12.6
		c1.7,2.3,3.6,4.3,6,6C803,322.3,803,322.6,803,322.9z"/>
	<path class="st222" d="M505,346.9c20,4,39.8,9.1,60,12.1c0,0.3,0,0.6,0,0.9c1.9,3.1,0.2,5.8-1.3,8.3c-9.6,15.9-19.4,31.6-28.8,47.6
		c-1.5,2.6-2.9,6.3-7.3,5.4c-4.2-4.2-4.8-10-6.8-15.2c-4.3-11.5-7.3-23.4-11.7-34.9c-2.2-5.7-3.8-11.7-5.6-17.5
		c-0.5-1.7-1.3-3.5-0.6-5.3c0.3-0.4,0.6-0.8,1-1.2v-0.2C504.3,347,504.6,347,505,346.9z"/>
	<path class="st223" d="M284,417c0-0.3,0-0.7,0-1c0.3-0.5,0.6-0.5,1,0v0.1c0.4,0.3,0.7,0.7,1,1.1c12.2,17.3,20.2,36.9,30.7,55.2
		c1.4,2.4,2.7,5.2,0.3,7.9c-4.4,2.4-9.1,1.1-13.6,0.5c-17.6-2.2-35.2-4.8-52.9-6.5c-2.4-0.2-4.5-1-6.5-2.2c0-0.3,0-0.6-0.1-1
		c-0.8-3.3,1.2-5.6,2.9-8c10.2-14.4,21.5-28,32-42.3C280.2,418.9,282.3,418.3,284,417z"/>
	<path class="st224" d="M244,472c9.4-0.9,18.4,1.3,27.6,2.4c14.5,1.8,29,3.5,43.4,5.1c0.6,0.1,1.3-0.3,1.9-0.5
		c0.8,0.1,1.4,0.5,1.7,1.3c0.2,0.5,0.2,1,0.2,1.5c-2.2,4.9-6.1,8.7-9.3,12.9c-8.6,11.2-17.7,22-26.2,33.3c-1.9,2.5-3.8,4.8-7.4,3.1
		c-8.5-15.6-17-31.2-25.5-46.8c-2.1-3.8-3.6-7.8-6.5-11.2C244,472.7,244,472.3,244,472z"/>
	<path class="st225" d="M284,417c-7.7,11.6-16.6,22.2-24.9,33.3c-5.2,6.8-10.1,13.8-15.1,20.8c-0.3,0-0.6,0-1,0
		c-0.3-18-0.7-36-1-53.9C256,417,270,417,284,417z"/>
	<path class="st226" d="M797,316c-6.2-3.7-10.4-9.6-15.9-14.1c0.1-0.1,0.3-0.3,0.4-0.3C788.1,304.8,793.4,309.5,797,316z"/>
	<path class="st227" d="M276,531c1.5-0.1,2.9,0.1,3.9-1.6c5-8.6,12.1-15.5,18.1-23.4c6.5-8.5,13.4-16.7,20.1-25.1
		c3.5-0.3,3.9,2.7,4.8,4.8c4,9.3,7.2,18.9,11,28.3c1.6,4,3.8,7.8,4.4,12.1c0.2,1.6,0.9,3.2-0.2,4.8c0.3,0.7,0.7,1.3,1,2
		c-6.3,0-12.7,0-19,0.1c-15,0.1-30-0.2-44.9-1C275.4,531.7,275.7,531.3,276,531z"/>
	<path class="st228" d="M774,368c0.3,0,0.6,0,1,0.1c1.1,14.7,1.6,29.4,3.7,44c0.6,4.6,0.3,9.3,0.4,13.9c-1.3,0.3-2.5,1-3.8,1
		c-12.1,0-24.2,1.1-36.2,2.1l0,0c-0.3-0.4-0.5-0.8-0.7-1.3c1-4.7,4.1-8.2,6.3-12.3c7.6-14.4,16.7-27.8,24.4-42.1
		C770.2,371,771.7,369.1,774,368z"/>
	<path class="st229" d="M400,531c-1.6-5.6-5.6-9.8-8.5-14.6c-12-19.2-24.3-38.1-36.6-57.1c-2.2-3.5-3.7-7.5-6.9-10.3
		c-0.3-0.5-0.4-1-0.1-1.5c2.4-2.6,5.2-1.3,7.9-0.6c8.4,2.3,16.9,4.3,25.4,6.5c9.9,2.6,19.9,4.5,29.7,7.7c0.8,0.2,1.6,0.4,2.4,0.7
		c0.5,0.3,1,0.6,1.3,1.1s0.4,1.1,0.4,1.7c-1.2,12.5-3.7,24.8-6.4,37.1c-1.2,5.7-1.8,11.5-2.3,17.3c-0.4,4.5-1.7,8.4-4.3,12
		C401.3,531,400.7,531,400,531z"/>
	<path class="st230" d="M402,531c1.9-9.4,2.4-19.1,4.2-28.5c2.2-11.8,4.9-23.5,6.4-35.4c0.1-1.1,1-2.1,1.5-3.1c1.4-1.4,3-1.8,5-1.6
		c17.6,2.1,35.2,4.8,52.9,6.7c1.6,0.2,3.2,0.9,4.8,1.3c0.9,0.2,1.7,0.4,2.4,1.1c0.6,0.8,0.6,1.7-0.1,2.5c-4.4,0.6-7.4,3.7-10.6,6.2
		c-14.6,11.4-29.4,22.4-44.1,33.7C416.9,519.7,409.8,525.8,402,531z"/>
	<path class="st231" d="M479,474c0-0.7,0-1.3,0-2c1.2-3.1,4.2-4.1,6.9-5.3c8.7-4.1,17.7-7.4,26.6-11.2c2.2-1,4.9-2.3,7.6-0.7
		c1.6,4-1.2,7-2.8,10c-4.4,8.1-8.8,16.2-11.6,25c-0.4,1.3-1.4,2.3-2,3.4c-5.4,9.4-10.2,19.1-14.3,29.1c-0.2,0.5-0.5,0.9-0.9,1.2
		c-1.4,0.4-2.8,1.5-4.4,0.5c0-11-2.4-21.8-3.4-32.7C480,485.6,479.5,479.8,479,474z"/>
	<path class="st232" d="M484,524c1.3-0.3,2.6-0.7,4-1c0.5,1.1-0.4,1.5-1,2c-0.3,0-0.7,0.1-1,0.1s-0.6,0-0.9-0.1
		C484.7,524.7,484.4,524.3,484,524z"/>
	<path class="st233" d="M348,448c0,0.3,0,0.7,0,1c-3,6.7-1.2,14.1-3,21.1c-1.9,7.5-1.7,15.4-2.3,23c-0.9,10.5-3.3,21-2.7,31.6
		c0.1,2.3,0.5,4.8-1.9,6.3c-6.2-16-12.4-32-18.6-48c-0.3-0.7-0.9-1.3-1.4-2c0-0.3,0-0.7,0-1c1.1-4.8,4.8-8,7.8-11.3
		c6.4-7,12-14.7,19.1-21c0.5-0.4,1-0.9,1.6-1.1c0.5-0.1,1,0,1.4,0.2c0.3,0.3,0.4,0.6,0.3,0.8C348.2,447.9,348.1,448,348,448z"/>
	<path class="st234" d="M681,486c-0.3,0-0.6,0-0.9,0H680c-2.1-3.1-2.9-6.6-3.2-10.3c-1.7-18.8-3.4-37.6-5.6-56.4
		c-0.9-7.7-2.1-15.5-1.3-23.3c2.2-2.6,4.8-2.7,7.6-1.2c9.8,5.2,20,9.7,29.7,15.2c7.4,4.2,15.1,7.7,22.5,11.8
		c3.2,1.8,6.9,3.2,8.3,7.2c-0.4,1.9-2,3.1-3.3,4.2c-11.9,10.5-22.6,22.2-33.9,33.4C694.3,473.2,687.6,479.6,681,486z"/>
	<path class="st235" d="M738,429c-16.3-9-32.8-17.8-49.5-26c-5.7-2.8-10.8-7-17.4-8c-0.1-0.2-0.2-0.3-0.3-0.5
		c0.1-0.2,0.2-0.3,0.3-0.5c9.9-6.8,19.9-13.5,29.7-20.3c1.7-1.1,3.2-2.4,5.2-2.7c0.2,0,0.5,0,0.7,0c1.9,0.7,2.8,2.3,3.7,3.9
		c9.1,15.8,17.8,31.7,27.1,47.4c1.1,1.8,1,3.8,1.5,5.7c0,0.3,0,0.7,0,1h-0.5H738z"/>
	<path class="st236" d="M285,416c-0.3,0-0.7,0-1,0c-11.3-21-22.7-41.9-34-62.9c14.5,2.5,28.7,6.1,43.1,9.4c1.3,0.3,2.6,0.3,3.9,0.5
		c1,0.5,2,0.5,3,0c1.4,0,2.9-0.1,4,1c-3.6-0.5-4.9,1.7-5.8,4.7C293.9,384.5,289.4,400.2,285,416z"/>
	<path class="st237" d="M528,421c3.2-1.6,4.3-4.9,5.9-7.6c6.1-10,12.4-19.9,18.1-30.1c4.4-7.7,10-14.8,13-23.3c0.3,0,0.6,0.1,1,0.1
		c3,3,3.7,7,4.1,11c1.6,16.5,4.3,32.8,5.7,49.3c0.2,2.2,0.4,4.3-0.4,6.4c-1.8,3.5-4.6,4.1-8.4,3.3c-6.1-1.3-12.3-2.3-18.5-3.2
		c-6.6-0.9-13.6-0.3-19.8-3.7c-0.5-0.3-0.8-0.8-1-1.3C527.8,421.5,527.9,421.3,528,421z"/>
	<path class="st238" d="M574,427c-1.3-12.2-2.5-24.3-3.9-36.5c-1.2-10.2-2.7-20.3-4.1-30.5c0.3,0,0.7,0,1,0
		c9.9,5.6,17.3,14.3,25.7,21.8c5.6,5,11.1,9.9,16.3,15.3c1.8,1.8,3.4,3.6,4,6.1c-2.1,5.7-7.3,7.7-12.1,10.2c-4.2,1.5-8.2,3.4-11,7.1
		c-3,2.6-6.5,4.5-9.7,6.8c-1.5,1.1-3.3,1.4-5.2,0.7C574.6,427.8,574.2,427.5,574,427z"/>
	<path class="st239" d="M612,403c-8.6-8.4-17.7-16.3-26.4-24.6c-6.3-6-13.5-11.1-18.7-18.3c16.5,3.4,33,6.9,49.6,10.3
		c2.1,0.4,4.3,0.4,6.4,0.7c1,0.7,2,1.3,3,2c1.1,2.2,0.3,4.3-0.5,6.2c-3,7-6,13.9-8.9,20.9c-0.5,1.2-1.4,2.2-2.5,3
		c-0.2,0.1-0.5,0.2-0.7,0.3C612.9,403.5,612.4,403.4,612,403z"/>
	<path class="st240" d="M671.1,395c2,20.3,4.3,40.5,6.1,60.8c0.9,10.1,2.1,20.1,2.8,30.2c-9.8-5.2-19.8-10-29.3-15.6
		c-6.9-4.1-14.5-6.8-21-11.7c-0.8-0.6-1.7-1.1-2.7-0.6c0-0.3,0-0.7,0-1c-1.3-2.6,0.5-4.4,1.8-6.3c7.6-11.3,16.3-21.8,23.3-33.4
		c3.8-6.2,8.9-11.6,12.6-17.8C666,397.4,667.4,394.3,671.1,395L671.1,395z"/>
	<path class="st241" d="M626,457c-0.2,1.1-0.9,1.8-2,2c-6.6,6.8-16,6.8-24.3,9.2c-7.7,2.2-14.7,6-22.5,7.7c-8.3,1.8-16,5.5-24.1,7.7
		c-0.6,0-1-0.2-1.5-0.6c-1-1.2-0.6-2.5-0.4-3.8c1.8-6.4,4.8-12.3,7.3-18.4c3.2-7.6,6.4-15.2,9.5-22.9c1.3-3.3,3.3-6.1,5.3-9
		c0.4-0.4,0.8-0.6,1.3-0.7c6,0.1,10.5,4,15.5,6.5c11.2,5.5,21.7,12.3,32.8,18c1.3,0.7,2.4,1.7,3.3,2.9
		C626.5,456.1,626.4,456.6,626,457z"/>
	<path class="st242" d="M626,457c0-0.3,0-0.7,0-1c-4.1-3.9-3.9-9.3-5.3-14.2c-3-10.5-6.2-20.9-8.3-31.6c-0.5-2.6-0.5-4.9,0.6-7.2
		l0,0c6.2-4.8,13.9-3.5,20.9-5.2c7.9-1.9,16-2.3,23.9-4.3c4.5-1.2,8.8,0.1,13.2,0.6h0.1c0,0.3,0,0.7,0,1
		c-7.8,9.8-14.7,20.3-21.8,30.6c-6.2,9.1-12.8,17.9-19.2,26.9c-1.1,1.5-2,3-3,4.5C626.7,457,626.4,457,626,457z"/>
	<path class="st243" d="M552,483c6.2-4.3,13.3-6.2,20.4-7.9c6.3-1.6,12.2-4.3,18.4-6.3c7.8-2.6,15.6-5.6,23.7-6.2
		c3.9-0.3,5.8-3.9,9.5-3.5c-6.1,6.6-13.1,12.1-19.7,18.1c-9.8,8.7-19.6,17.3-29.6,25.7c-5.8,4.9-10.9,10.6-17.6,14.3
		c-3.3-0.5-3.1-3.2-3-5.3c0.2-7.2-1.6-14.1-3.6-20.9C549.6,488,549.5,485.2,552,483z"/>
	<path class="st244" d="M552,483c-0.4,5.9,1.8,11.3,3.3,16.8c1.5,5.7-0.2,11.6,1.8,17.2c0,0.3,0,0.6-0.1,1
		c-21.8,2.3-43.7,4.7-65.5,7c-1.5,0.2-3,0.1-4.5,0.1c0.3-0.7,0.7-1.3,1-2l0,0c1.7-2.9,4.2-5,7.1-6.7c16.2-9.8,31.7-20.5,47.5-30.7
		C545.3,483.8,548.1,480.8,552,483L552,483z"/>
	<path class="st245" d="M504,347.1c0,0.3,0,0.6,0,0.9c-3.2,9.4-9.9,16.7-15.7,24.5c-8.8,11.8-17.5,23.8-26.4,35.5
		c-1.9,2.5-3.7,5.7-7.5,2.5c-2.1-2.8-2.1-5.9-2-9.4c0.6-17.1,0.7-34.3,0-51.4c-0.1-1.7-0.6-3.3,0.5-4.8c0.7-0.6,1.4-1.3,2.1-1.9
		C471.3,344.3,487.7,345.7,504,347.1z"/>
	<path class="st246" d="M452.9,344.9c1.8,2.7,2.1,5.7,2.1,9c-0.1,14.6,0,29.2-0.1,43.7c0,4.5-1.1,9.1,1,13.5
		c0.6,0.6,0.6,1.3,0.3,2.1c-3.7,2-5.4-0.6-7.1-3.1c-7.1-10.1-13.2-20.9-19.2-31.7c-1.5-2.8-3.5-5.2-6.2-6.9c-1-2.3,0.7-3.4,2.2-4.4
		c0-0.3,0-0.6,0-0.9c7.8-5.9,15.4-12.1,22.7-18.5C449.9,346.4,451.5,345.7,452.9,344.9z"/>
	<path class="st247" d="M426,366.9c-0.7,1.4-1.3,2.7-2,4.1c0.8,0.9,1.6,1.7,1.7,3c0.2,1.7,0.6,3.5,0.7,5.2
		c-0.6,8.2-1.3,16.3-3.1,24.3c-2.2,2.8-5.1,2.5-7.6,1.2c-8.3-4.3-17.2-7.2-25.7-11.1c-5.6-2.6-11.4-4.9-16.9-7.7
		c-2.8-1.5-4.8-3.9-6.1-6.9c0-0.3,0-0.6,0.1-0.9c10.6-2,21.1-4.4,31.7-6C407.9,370.7,416.7,367.7,426,366.9z"/>
	<path class="st248" d="M286,416c6.9-3.2,13.8-6.5,20.6-9.7c12.9-6.1,25.7-12.2,38.6-18.2c6.9-3.2,13.8-6,20.8-9
		c2.7,1.9,3.5,4.9,3.8,7.8c0.7,8,3.5,15.5,4,23.5c0.2,2.8,0.2,5.3-1.9,7.4c-9.3,2.6-18.8,1.6-28.2,1c-10.5-0.6-20.9-0.8-31.4,0.1
		C303.4,419.6,294.5,419.8,286,416z"/>
	<path class="st249" d="M286,416c28.7,0.3,57.3,0.7,86,1c0.2,0.2,0.3,0.4,0.5,0.5c-0.6,5.3-5,8.3-7.6,12.4
		c-3.3,5.1-7.9,9.3-11.8,14.1c-1.3,1.7-3.3,2.1-5.1,2.9c-0.3,0-0.7,0-1,0c-1.9,1.5-3.7,0.9-5.6-0.1c-16.6-8.4-33.5-15.9-49.9-24.7
		c-2.5-1.3-4.9-2.8-6.5-5.3c0-0.3,0-0.6,0-1C285.3,416,285.7,416,286,416z"/>
	<path class="st250" d="M372,417c-0.2-6.1-0.8-12.2-2.4-18.1c-1.7-6.6-2-13.3-3.6-19.9c0.3,0,0.6,0,1,0c4.3,1.3,6.4,6.1,11.2,6.9
		c4.4,0.7,8,3,11.7,5.7c1.9,1.3,5.6,2.8,8.2,3c6,0.6,9.9,5.4,15.8,6.3c2.5,0.4,4.6,4,8.2,3.1c0.3,0.5,0.4,1,0.2,1.6
		c-0.9,1.9-2.8,2.4-4.5,2.7c-13.7,2.9-27.2,7-40.9,9.8C375.1,417.8,373.5,417.7,372,417L372,417z"/>
	<path class="st251" d="M745,347c10.1,6,19.5,13,28.9,20.1c-1.3,1.9-2.9,3.1-5.4,3.1c-3.7-0.1-7.3,1-10.9,1
		c-15-0.1-29.9,1.8-44.8,1.2c-2.3-0.1-4.7,0.1-6.8-1.3l0,0c-0.3-0.7-0.7-1.3-1-2c6.8-2.9,13.3-6.3,19.5-10.5
		C730.9,354.1,737.3,349.2,745,347z"/>
	<path class="st252" d="M671,394c-8.3,1.3-16.7,2.1-24.9,4c-9.1,2.2-18.6,1.9-27.6,4.7c-1.7,0.5-3.6,0.2-5.4,0.2
		c3.6-9.3,8.2-18.1,11.3-27.6c0.3-0.9,1.1-1.6,1.7-2.4c8,2.5,15.3,6.9,22.9,10.3c7,3.2,14.1,6.4,21.1,9.7
		C670.3,393.3,670.6,393.7,671,394z"/>
	<path class="st253" d="M706,371c2-0.3,3.9-1,5.9-0.9c14.5,0.6,28.8-1.2,43.3-1.2c6.2,0,12.5-1.2,18.7-1.8c0,0.3,0.1,0.6,0.1,0.9
		c-2.9,7.1-7.2,13.4-11,20c-7.1,12.2-14.2,24.4-21.3,36.5c-0.7,1.3-1.8,2.3-2.7,3.5c-2.6-2-3.8-5-5.3-7.7
		C724.3,403.9,715.2,387.5,706,371z"/>
	<path class="st254" d="M456,413c0-0.7,0-1.3,0-2c5.9-4.6,9.1-11.3,13.5-17c7.7-9.7,14.6-20,22.2-29.9c4.1-5.4,7.1-11.6,12.3-16.2
		c5.3,16.1,10.1,32.3,16,48.2c2.7,7.2,3.2,15.3,7.6,21.9c0.5,0.7,0.2,1.9,0.3,2.9l0,0c-2.1,2.6-5,2.2-7.8,1.9
		c-14.7-1.9-29.4-2.6-44.1-3.8c-6.1-0.5-12-2.5-18.2-2.3c-0.5-0.2-1.1-0.5-1.6-0.8c-0.5-0.4-0.8-0.8-0.9-1.4
		C455.4,414,455.6,413.5,456,413z"/>
	<path class="st255" d="M285,417c17.1,8.4,34.1,17,51.3,25c3.5,1.7,6.7,4.3,10.7,5c-5.1,7.3-11.2,13.6-17.2,20.1
		c-2.6,2.9-4.9,6.1-7.5,9c-1.3,1.4-2.1,3.5-4.3,3.9c-0.3-0.3-0.7-0.7-1-1c-2-7.6-6.8-13.9-10.3-20.8
		C299.7,444.4,292.3,430.7,285,417z"/>
	<path class="st256" d="M477,472c-11.8-1.5-23.6-2.9-35.5-4.4c-9.2-1.2-18.4-2.4-27.5-3.6c0-0.3,0-0.7,0-1
		c-0.4-5.4,4.2-7.9,6.8-11.4c8.3-10.7,18-20.1,25.4-31.5c3-4.6,6.1-6.2,9.8-5.1l0,0c1.1,1.4,2.9,2.2,3.4,4.1
		c2.4,7.4,6,14.3,8.4,21.7c2.8,8.7,7.6,16.5,10.3,25.2C478.7,468.2,478.9,470.3,477,472z"/>
	<path class="st257" d="M376,416c15.3-3.7,30.7-7.3,46-11c2.2-1.9,4.3-2.3,6.2,0.4c-4.8,3.7-4.9,9.1-5.6,14.4
		c-1.4,9.6-3.4,19.1-4.7,28.8c-0.7,4.9-1.7,10.1-4.9,14.4c-0.7,0-1.3,0-2,0c-7.6-7.7-15.7-15-22.1-23.9c-4-5.6-8.5-10.5-13.4-15.2
		C372,420.4,372.3,418.8,376,416z"/>
	<path class="st258" d="M376,416c-1.8,2.1-2,3.9,0.4,5.9c9.7,7.9,15.5,19.3,24.3,28c3.2,3.1,5.6,7.2,9.8,9.4c2,1,1,2.5,0.5,3.8
		c-14.5-4.1-29.4-7-44-11.1c-6.1-1.7-12.4-4.2-19-3.9c0-0.3,0-0.7,0-1c8.2-9.9,16.5-19.6,24-30C373.3,416.7,374.7,416.3,376,416z"/>
	<path class="st259" d="M413,463c1.7-10.2,3.1-20.5,5-30.6c1.4-7.8,3.1-15.4,3.3-23.4c0.1-4.4,4.2-2.5,6.6-3
		c8.1-0.3,15.6,1.5,22.5,5.8c1.7,1.1,3.8,1.2,5.5,2.1c0,0.3,0,0.7,0,1c-3.9,0-6.2,3.3-7.4,5.5c-4.9,8.9-12.8,15.3-18.5,23.4
		c-4.9,6.8-11.1,12.4-16,19.1C413.7,463,413.3,463,413,463z"/>
	<path class="st260" d="M477,472c0.4-4.3-1.8-8.2-3.5-11.7c-5-9.9-8.4-20.5-12.4-30.8c-1.3-3.5-3.9-6.4-3.1-10.5
		c2.2-2.7,4.8-2,7-0.3c6.6,5,14,8.8,21,13.1c1.2,0.7,2.5,1,3.8,1.1c1.3,0.2,3,0.4,3.6,1.5c2.4,4.3,6.7,5.7,10.6,8.1
		c5.2,3.4,10.8,6.1,16,9.7c0.4,0.4,0.6,0.9,0.6,1.4c0,0.3-0.1,0.5-0.1,0.8c-0.2,0.2-0.3,0.4-0.5,0.6c-12.6,4.9-25.2,9.8-37.3,15.9
		c-1.2,0.6-2.4,1.1-3.7,1.1C478.3,472,477.7,472,477,472z"/>
	<path class="st261" d="M552,483c-8.6,3.7-15.8,9.7-23.6,14.6C514.9,506,502,515.4,488,523c-0.4-4.1,0.3-7.7,3.3-11
		c4.7-5.1,5.5-12.3,9-18.2c4.7-8,7.6-17,12.1-25.2c2.5-4.6,4.6-9.4,7.6-13.7l0,0c2.3-1.8,4.2-0.1,5.8,1.2
		c9.3,7.7,18.9,15.1,27.2,23.8C552.7,481,552.3,482,552,483z"/>
	<path class="st262" d="M520,453c-3,0.3-5.6-0.5-7.6-2.8c-1.3-1.5-2.8-2.3-4.7-2.3c-1.6,0-3-0.6-3.4-2.3c-0.6-2.3-2.1-2.8-4.1-2.7
		c-3.9,0.2-5.8-2.2-6.7-5.4c-0.5-1.9-1.3-2.8-2.9-2.5c-5.5,0.7-9-3.5-13-5.7c-4.9-2.6-10.3-5.1-14.2-9.6c-1.3-1.5-3.5-0.6-5.3-0.8
		c-2.2-0.6-1.9-2.4-2-4c13.7-0.1,27.2,2.9,40.8,3.6c10.4,0.5,20.8,2.1,31.2,2.5c0,0.3,0,0.7,0,1c1.5,1.3,2.5,3,1.9,4.8
		c-2.7,7.7-3.4,16-7.3,23.4C522,451.4,521.4,452.6,520,453z"/>
	<path class="st263" d="M520,453c2.1-7.3,3.8-14.8,6.4-21.9c1.1-3,1.7-5.9,1.7-9c5.1,0.5,10.3,0.3,15.1,1.6c3.3,0.9,6.4,1.6,9.7,1.3
		c5.1-0.5,9.7,1.7,14.4,2.9c2.8,0.7,4.6,0.7,6.8-0.9c0.3,0,0.7,0,1,0c0.6,0.7,0.5,1.3,0,2c-0.3,0-0.7,0-1,0
		c-3.5,4.8-9.1,6.8-14.1,8.8c-7.7,3-14.6,7.6-22.2,10.8c-3.6,1.5-7.1,3.6-10.7,5.2c-2.5,1.1-4.7,1.4-7.1,0.2
		C520,453.7,520,453.3,520,453z"/>
	<path class="st264" d="M575,429c0-0.7,0-1.3,0-2c5.7-0.9,9-6,14-8c3.5-2.5,7.4-4.5,11-7c4.3-2.7,8.6-5.2,12-9c0.3,0,0.7,0,1,0
		c2.6,12.5,6.1,24.7,9.5,37c1.4,5.2,2.4,10.6,3.5,15.9c-8.3-2.6-15.3-7.7-22.8-11.8C593.8,439.1,584.4,434.1,575,429z"/>
	<path class="st265" d="M600,412c-3,3.3-6.6,5.8-11,7C591.8,415.4,595.8,413.5,600,412z"/>
	<path class="st266" d="M520,454c7.6-1.9,14.1-6.1,21-9.6c10.9-5.4,21.7-10.9,33-15.4c-1.4,6.5-5,12.1-7.3,18.3
		c-4.2,11-9.1,21.8-13.7,32.7c-1.4,0-2.6-0.3-3.7-1.2c-6.5-6-13.9-11-20.1-17.4c-2.6-2.6-5.7-4.9-9.2-6.4
		C520,454.7,520,454.3,520,454z"/>
	<path class="st267" d="M456,414c-5.5,0.6-9.9-3.1-15.2-3.8c-2.9-0.4-5.9-1.8-9-2.2c-1.6-0.2-2.9-0.6-3.8-2c-1.8-1.5-4-0.8-6-1
		c0-0.3,0-0.7,0-1c-0.5-8.4,2.3-16.6,2-25c0.8-1.7,0.8-3.3,0-5c0-1,0-2,0-3c2.7-0.3,4.5,0.6,6,3.2c2.5,4.3,4.6,8.8,7.2,12.9
		c3.5,5.5,6.1,11.5,10.3,16.6c1.3,1.6,3.1,3,3.5,5.3c0.5,2.8,2.6,3.6,5,4.1C456,413.3,456,413.6,456,414z"/>
	<path class="st246" d="M424,374c1.3,1.7,1.3,3.3,0,5C424,377.3,424,375.7,424,374z"/>
</g>
</svg>
