<?xml version="1.0" encoding="UTF-8" standalone="no"?>
<!-- Generator: Adobe Illustrator 16.0.0, SVG Export Plug-In . SVG Version: 6.00 Build 0)  -->

<svg
   xmlns:dc="http://purl.org/dc/elements/1.1/"
   xmlns:cc="http://creativecommons.org/ns#"
   xmlns:rdf="http://www.w3.org/1999/02/22-rdf-syntax-ns#"
   xmlns:svg="http://www.w3.org/2000/svg"
   xmlns="http://www.w3.org/2000/svg"
   xmlns:sodipodi="http://sodipodi.sourceforge.net/DTD/sodipodi-0.dtd"
   xmlns:inkscape="http://www.inkscape.org/namespaces/inkscape"
   version="1.1"
   id="Layer_1"
   x="0px"
   y="0px"
   width="125.59985"
   height="125.61109"
   viewBox="0 0 125.59985 125.61109"
   enable-background="new 0 0 512 512"
   xml:space="preserve"
   inkscape:version="0.91 r"
   sodipodi:docname="football2.svg"><metadata
     id="metadata10"><rdf:RDF><cc:Work
         rdf:about=""><dc:format>image/svg+xml</dc:format><dc:type
           rdf:resource="http://purl.org/dc/dcmitype/StillImage" /><dc:title></dc:title></cc:Work></rdf:RDF></metadata><defs
     id="defs8" /><sodipodi:namedview
     pagecolor="#ffffff"
     bordercolor="#666666"
     borderopacity="1"
     objecttolerance="10"
     gridtolerance="10"
     guidetolerance="10"
     inkscape:pageopacity="0"
     inkscape:pageshadow="2"
     inkscape:window-width="1313"
     inkscape:window-height="744"
     id="namedview6"
     showgrid="false"
     inkscape:zoom="0.4609375"
     inkscape:cx="-27.271654"
     inkscape:cy="114.87053"
     inkscape:window-x="53"
     inkscape:window-y="24"
     inkscape:window-maximized="1"
     inkscape:current-layer="Layer_1"
     fit-margin-top="-2.7755576e-17"
     fit-margin-left="0"
     fit-margin-right="0"
     fit-margin-bottom="0" /><g
     id="_x23_020202ff"
     transform="matrix(0.27335759,0,0,0.27335759,-7.189916,-7.1719566)"><path
       d="m 405.808,81.88 c 26.389,22.628 47.566,51.358 61.298,83.305 24.077,55.303 24.884,120.201 2.299,176.12 -25.569,64.954 -82.47,116.608 -149.717,135.488 -55.443,16.101 -116.99,10.373 -168.283,-16.229 C 108.667,438.771 73.107,403.239 51.391,360.453 18.334,296.961 17.974,217.828 50.133,153.921 67.047,119.796 92.61,90.005 123.778,68.127 175.835,30.892 243.937,17.59 306.268,31.811 c 36.678,7.983 71.171,25.533 99.54,50.069 M 220.262,53.695 c 6.385,6.583 12.537,13.414 19.112,19.806 29.381,4.56 58.741,9.341 88.134,13.718 8.401,-3.932 16.511,-8.465 24.849,-12.531 C 312.399,52.946 264.98,45.847 220.262,53.695 m 217.774,107.169 c -4.009,7.559 -7.735,15.26 -11.73,22.818 -1.244,1.684 -0.36,3.755 -0.148,5.608 4.342,27.874 8.712,55.749 13.054,83.622 5.636,6.796 12.784,12.53 19.035,18.88 8.074,-44.251 0.862,-91.175 -20.211,-130.928 M 324.017,96.836 C 295.93,92.367 267.823,87.99 239.708,83.648 c -11.045,21.695 -22.061,43.417 -32.832,65.245 5.756,15.656 11.583,31.296 17.445,46.917 24.417,3.825 48.818,7.764 73.249,11.504 12.784,-12.516 25.371,-25.244 37.992,-37.922 -3.775,-24.197 -7.593,-48.395 -11.545,-72.556 m 91.167,91.18 c -24.155,-3.987 -48.346,-7.784 -72.549,-11.511 -12.722,12.537 -25.315,25.229 -37.923,37.88 3.755,24.472 7.7,48.91 11.61,73.355 15.741,5.643 31.275,11.871 47.086,17.345 21.701,-10.868 43.396,-21.771 65.005,-32.803 -4.376,-28.092 -8.669,-56.2 -13.229,-84.266 M 127.617,145.605 c -13.604,23.787 -26.919,47.751 -40.284,71.666 17.338,17.423 34.571,34.952 52.05,52.221 13.965,-1.11 27.952,-1.889 41.911,-3.077 11.342,-22.118 22.634,-44.271 33.828,-66.468 -5.756,-15.5 -11.88,-30.872 -17.762,-46.33 -23.208,-2.942 -46.5,-5.318 -69.743,-8.012 m 184.287,151.236 c -22.119,11.215 -44.236,22.458 -66.306,33.778 -1.308,13.951 -1.924,27.96 -3.14,41.917 17.041,17.607 34.26,35.053 51.513,52.447 25.166,-12.594 50.261,-25.301 75.363,-38.015 -3.443,-24.049 -7.135,-48.076 -10.755,-72.104 -15.485,-6.165 -31.048,-12.211 -46.675,-18.023 M 114.663,106.983 c -33.39,31.452 -55.677,74.444 -61.964,119.89 8.301,-4.299 16.814,-8.272 24.968,-12.805 13.944,-24.961 28.178,-49.801 41.839,-74.904 -1.484,-10.749 -3.188,-21.462 -4.843,-32.181 M 375.543,395.1 c -25.484,12.686 -50.855,25.64 -76.304,38.403 -1.16,0.637 -2.616,1.089 -3.161,2.438 -4.017,7.878 -8.068,15.733 -12.085,23.611 45.086,-6.096 87.915,-27.727 119.438,-60.551 -9.284,-1.348 -18.554,-2.953 -27.888,-3.901 M 182.517,276.391 c -14.008,0.898 -28.016,1.781 -42.002,2.941 -11.165,21.715 -22.302,43.445 -33.397,65.203 19.876,19.933 39.542,40.093 59.63,59.813 21.786,-10.953 43.551,-21.942 65.294,-32.979 1.238,-14.008 2.538,-28.009 3.542,-42.037 -17.725,-17.613 -35.262,-35.418 -53.067,-52.941 M 71.233,345.773 c 19.756,40.757 53.414,74.5 94.009,94.547 -1.484,-9.235 -2.468,-18.618 -4.475,-27.712 -20.705,-20.789 -41.303,-41.712 -62.163,-62.331 -9.051,-1.852 -18.243,-3.041 -27.371,-4.504 z"
       id="path4"
       inkscape:connector-curvature="0"
       style="fill:#020202" /></g></svg>