<?xml version="1.0" encoding="UTF-8" standalone="no"?>
<!-- Generator: Adobe Illustrator 18.0.0, SVG Export Plug-In . SVG Version: 6.00 Build 0)  -->

<svg
   xmlns:dc="http://purl.org/dc/elements/1.1/"
   xmlns:cc="http://creativecommons.org/ns#"
   xmlns:rdf="http://www.w3.org/1999/02/22-rdf-syntax-ns#"
   xmlns:svg="http://www.w3.org/2000/svg"
   xmlns="http://www.w3.org/2000/svg"
   xmlns:sodipodi="http://sodipodi.sourceforge.net/DTD/sodipodi-0.dtd"
   xmlns:inkscape="http://www.inkscape.org/namespaces/inkscape"
   version="1.1"
   x="0px"
   y="0px"
   viewBox="0 0 65.330842 65.326455"
   enable-background="new 0 0 612 792"
   xml:space="preserve"
   id="svg2"
   inkscape:version="0.91 r"
   sodipodi:docname="footBall.svg"
   width="65.330841"
   height="65.326454"><metadata
     id="metadata86"><rdf:RDF><cc:Work
         rdf:about=""><dc:format>image/svg+xml</dc:format><dc:type
           rdf:resource="http://purl.org/dc/dcmitype/StillImage" /><dc:title></dc:title></cc:Work></rdf:RDF></metadata><defs
     id="defs84" /><sodipodi:namedview
     pagecolor="#ffffff"
     bordercolor="#666666"
     borderopacity="1"
     objecttolerance="10"
     gridtolerance="10"
     guidetolerance="10"
     inkscape:pageopacity="0"
     inkscape:pageshadow="2"
     inkscape:window-width="640"
     inkscape:window-height="480"
     id="namedview82"
     showgrid="false"
     fit-margin-top="0"
     fit-margin-left="0"
     fit-margin-right="0"
     fit-margin-bottom="0"
     inkscape:zoom="0.84281415"
     inkscape:cx="-12.184847"
     inkscape:cy="27.863605"
     inkscape:window-x="63"
     inkscape:window-y="34"
     inkscape:window-maximized="0"
     inkscape:current-layer="svg2" /><g
     id="Layer_2"
     transform="translate(-213.17666,-395.77354)" /><g
     id="Layer_1"
     transform="matrix(0.58536248,0,0,0.58536248,-97.696999,-204.58418)"><ellipse
       cx="222.3"
       cy="405.29999"
       rx="55.400002"
       ry="55.799999"
       id="ellipse6"
       style="fill:#7bab2c" /><path
       d="m 258,448.3 c -4.8,4.1 -10.1,7.2 -17,9.4 1.5,-2.2 2.4,-3.4 3.3,-4.7 -0.3,-2.2 1.1,-3.7 2.1,-5.4 2.7,-4.7 5,-9.6 5.8,-15.1 0.4,-2.9 0.2,-5.6 -2.8,-7.2 -4.6,-1.8 -9.1,-0.6 -13.6,0.6 -6.7,1.8 -13.3,3.5 -20.4,2.8 -7.6,-1.6 -14.7,-4.2 -19.4,-10.7 -3.4,-4.7 -2.3,-7.5 3.5,-9.4 5.1,-1 10.4,-1 15.6,-1.3 10.2,0 20.4,-1.1 30.7,-0.7 2.2,0.1 4.3,-0.2 6.3,-1.1 0.4,-0.3 0.9,-0.5 1.4,-0.7 4.1,-1.5 5.2,-4.1 4.6,-8.6 -0.8,-5.9 -3.3,-10.7 -6.6,-15.4 -3.8,-5.5 -7.8,-10.8 -10.5,-16.9 -0.3,-1 -0.4,-1.9 -0.5,-2.9 -0.4,-4.2 1.8,-6 5.7,-4.3 4.5,1.9 7.9,5.3 10.9,9.1 1.1,1.4 2.3,2.8 3.2,4.4 6.2,8.9 8.1,19.4 10.7,29.6 0.4,0.6 0.6,1.3 0.7,2 0.7,5.7 1.1,5.9 6.5,3.1 0.6,5.2 -0.2,10.2 -1.9,15.1 -0.2,2 -1.7,3.3 -3.1,4.2 -6.2,3.9 -8.6,10.1 -10.7,16.6 -0.9,2.9 -2.2,5.4 -4.5,7.5 z"
       id="path8"
       inkscape:connector-curvature="0"
       style="fill:#fefefd" /><path
       d="m 188,362.2 c 5.7,-3.6 10.6,-8.9 18,-9 0.2,0.4 0.2,0.9 0,1.3 -7.1,5.1 -13,11.1 -14.7,20.2 0,0.5 -0.2,1 -0.3,1.6 -0.1,5.1 1.6,6.8 7,6.1 4.9,-0.6 9.7,-2.3 14.5,-3.3 7.9,-1.6 15.6,-1.3 23,1.9 3.8,1.6 6.9,4.1 9,7.6 2.6,4.1 1.4,7.4 -3.4,8.8 -3.2,0.9 -6.5,1.2 -9.9,1.2 -11.1,0 -22.3,-0.7 -33.4,0.4 -0.7,0.3 -1.5,0.4 -2.3,0.4 -3.1,0 -6,0.7 -8.5,2.5 -1.5,1 -2.6,2.4 -3.1,4.2 -1.6,6.1 0.4,11.5 3.2,16.6 3.1,5.7 6.7,11 10.1,16.6 1.8,3 3.4,6.1 3.9,9.6 0.3,1.9 0.2,3.8 -1.6,4.9 -1.9,1.3 -3.4,0 -4.9,-1.1 -7.5,-5.6 -12.7,-13 -16.7,-21.3 -1.2,-2.8 -2.1,-5.8 -3.2,-8.6 -1.2,-5.5 -2.2,-11.1 -3.2,-16.6 -0.5,-2.3 0,-5.3 -3.9,-5.2 -0.5,-4.8 1.3,-9.3 2.4,-13.8 7,-7.8 11.4,-17.2 18,-25 z"
       id="path10"
       inkscape:connector-curvature="0"
       style="fill:#fdfdfd" /><path
       d="m 190,374.4 0,0.1 c 1.2,-3.9 3.4,-7.2 5.6,-10.5 0.8,-1.2 1.6,-2.6 3.4,-2.3 1.8,2.4 -0.3,4 -1.2,5.8 -1.4,2.9 -4.7,6.3 -2,8.9 2.5,2.4 6.2,-0.6 9,-2.2 8.6,-4.8 16.9,-10 22.7,-18.2 1.1,-1.6 2.7,-3 4.4,-4 0.5,-0.1 0.9,-0.2 1.4,-0.2 1.5,0.1 3,0.2 4.6,0.2 -2,4 -0.6,7.4 1.6,11 5.3,8.8 12.4,16.5 16.8,25.8 4,8.4 3.7,12.8 -2.2,17.1 l 0.1,0 c -8.9,2.9 -17.8,0.9 -26.6,0.2 -10.8,-0.8 -21.6,-0.5 -32.4,-1.2 -7.2,-0.5 -9.7,4.2 -6,10.4 5.7,9.6 14.8,13.5 25.5,14 8.4,0.4 16.4,-2.1 24.3,-4.8 4,-1.4 8.1,-1.6 12.2,-0.6 3.7,2.6 3.2,6.3 2.5,9.9 -1.5,7.1 -4.5,13.5 -9.1,19.1 -3,-1.7 -3.8,2.7 -6.3,2.3 -0.6,-2.1 0.8,-3.4 1.9,-4.9 3.1,-4.3 5.6,-9.1 7.6,-14 0.7,-1.9 1.5,-4 0,-5.7 -1.6,-1.8 -3.8,-0.7 -5.6,0 -11.8,4.5 -21.3,11.6 -26.8,23.3 -1,2.1 -2,4.2 -3.8,5.8 -2,-0.2 -3.9,-0.6 -5.6,-1.7 0.7,-3.7 -0.8,-6.7 -2.6,-9.8 -5.2,-8.6 -11.2,-16.8 -16.1,-25.6 -3.2,-5.7 -5.3,-11.7 -4,-18.4 -0.2,-1.9 1.5,-2.4 2.5,-3.3 7.3,-2.8 14.8,-2.8 22.5,-2 12.9,1.4 25.8,2.8 38.8,2 5.9,-0.4 7.7,-3.6 4.8,-8.8 -5.3,-9.4 -14,-13.4 -24.3,-14.5 -8.8,-0.9 -17.1,1.6 -25.4,4 -1,0.3 -1.8,0.8 -2.8,1 -8.3,2.3 -10.7,0.1 -9.4,-8.2 z"
       id="path12"
       inkscape:connector-curvature="0"
       style="fill:#101f2a" /><path
       d="m 228.7,460.3 c -5.3,1.2 -10.5,0.9 -15.6,-0.5 -0.3,-4.6 3.5,-7.2 5.5,-10.7 0.9,-1.7 2.6,-2.9 4.2,-4.1 4.1,-2.6 8.1,-5.4 12.6,-7.3 5.8,-1.4 6.2,-1.2 7.7,3.4 -0.7,4.7 -3.1,8.7 -5.7,12.5 -0.2,0.4 -0.5,0.8 -0.8,1.2 -2.9,1.6 -4.1,5.4 -7.9,5.5 z"
       id="path14"
       inkscape:connector-curvature="0"
       style="fill:#fcfcfc" /><path
       d="m 223,446.6 c -4.2,3.7 -7,8.5 -9.9,13.2 -0.6,0 -1.2,0.1 -1.7,0.1 3.2,-14.1 19.4,-29.5 33.5,-31.8 4.1,-0.7 6,1.5 5,6 -1.3,6 -4.7,10.9 -8,16 -1.2,1.8 -2.5,3.5 -3.8,5.2 -0.5,0.6 -1,1.1 -1.5,1.6 -1.8,-0.7 -1,-1.9 -0.6,-3 l 0,0.1 c 2.7,-3.4 5.3,-6.9 6.3,-11.2 0.5,-1.9 1,-4.3 -1.1,-5.2 -2.5,-1.1 -4.9,0.6 -7.1,1.8 -4.2,1.8 -8.1,3.7 -11.1,7.2 z"
       id="path16"
       inkscape:connector-curvature="0"
       style="fill:#58abc4" /><path
       d="m 183,404.4 c 0.3,8.2 3.3,15.5 7.8,22.3 5.1,7.8 10.3,15.5 15.2,23.4 1.6,2.5 3.9,5.5 -0.3,8.1 -9.4,-1.8 -16.8,-6.5 -22,-14.7 -0.8,-1.2 -2,-2.2 -2.9,-3.3 -1.5,-2 -3.3,-3.9 -3.2,-6.6 0.1,-1.2 0.3,-2.3 1.4,-2.9 4,7.5 8.4,14.7 15,20.3 1.5,1.3 3.2,3.4 5.1,2.2 2.2,-1.4 0.9,-3.9 0.1,-5.8 -3.4,-8.7 -9.4,-16.1 -13.6,-24.3 -2.9,-6 -5.2,-12 -2.6,-18.7 z"
       id="path18"
       inkscape:connector-curvature="0"
       style="fill:#c12a15" /><path
       d="m 217.5,350.1 c 3.9,0 7.8,0 11.7,0 1.6,0 3.3,0 4.2,1.9 l -0.3,0.1 c -3,1.6 -5.4,3.8 -7.6,6.3 -5.1,5.6 -11.3,9.6 -18.6,12 -2.1,0.7 -4.3,1.3 -5.9,-0.8 -1.6,-2 -0.6,-4.1 0.4,-6 2.2,-4 5.7,-6.8 8.8,-10 2.3,-1.5 4.6,-2.8 7.3,-3.5 z"
       id="path20"
       inkscape:connector-curvature="0"
       style="fill:#fcfcfc" /><path
       d="m 259.2,371 c -3.5,-4.4 -6.9,-9 -11.8,-12.1 -1.6,-1 -3.3,-3 -5.3,-1.5 -1.8,1.3 -0.2,3.4 0.1,5.1 0.1,0.5 0.1,1 0.1,1.5 -4.5,-0.3 -4.5,-3.8 -4.3,-6.8 0.2,-3.5 3,-3.3 5.6,-2.9 0.8,0.1 1.6,0.3 2.4,0.7 15.7,7.7 27,19 30.4,36.8 0,0.3 0,0.7 0.1,1 0.5,2.1 1.3,4.7 -1.6,5.3 -2.6,0.5 -3.5,-1.9 -4.1,-4 -1.9,-5.9 -1.9,-12.4 -6.1,-17.5 -2,-1.8 -3,-4.4 -5.5,-5.6 z"
       id="path22"
       inkscape:connector-curvature="0"
       style="fill:#0f1e27" /><path
       d="m 246,354.9 c -2.2,0.6 -5.7,-1.6 -6.6,1.3 -0.9,2.7 0.4,5.7 3,7.7 4,6.2 8,12.4 12,18.6 2.7,4.3 4.5,8.8 5.2,13.9 0.7,4.9 -0.9,8 -5.6,9.7 5.1,-5.7 4.2,-11.2 0.6,-17.6 -4.9,-8.6 -11.5,-16.1 -16.4,-24.8 -1,-1.7 -1.9,-3.5 -2.8,-5.3 -1.7,-3.1 -1.1,-5.3 2.6,-6.3 2.9,0.1 5.6,0.9 8,2.8 z"
       id="path24"
       inkscape:connector-curvature="0"
       style="fill:#467f1b" /><path
       d="m 265,374.8 c 3.1,2.8 4.2,6.5 5.2,10.4 1,4.3 1.5,8.7 4.1,13 2.2,-2 1.4,-4.6 2.1,-6.5 0.2,0.3 0.4,0.6 0.6,0.8 1,2.7 0.6,5.5 0.7,8.2 0,2.2 -1.4,4.2 -3.8,4.4 -2.4,0.2 -2.8,-1.8 -2.9,-3.7 l -0.4,0 -0.1,-0.4 c -2,-8.1 -3.1,-16.4 -6.5,-24.1 -0.5,-0.8 -0.5,-1.9 1,-2.1 z"
       id="path26"
       inkscape:connector-curvature="0"
       style="fill:#56a8c3" /><path
       d="m 258,448.3 c 1.1,-3.1 2.4,-6.1 3.3,-9.3 2.4,-8.4 8,-14.2 15,-19 0.8,2.1 -1,3.5 -1.4,5.3 -6,4 -8.3,10.3 -10.6,16.7 -1.6,2.6 -3.4,5 -6.3,6.3 z"
       id="path28"
       inkscape:connector-curvature="0"
       style="fill:#131926" /><path
       d="m 264.3,442 c 0.3,-7.6 2.1,-14.3 10.6,-16.7 -2.7,6.1 -5.5,12.1 -10.6,16.7 z"
       id="path30"
       inkscape:connector-curvature="0"
       style="fill:#cf6d22" /><path
       d="m 179,434.4 c -0.4,2.3 2.5,3.4 1.9,5.8 -2,0.4 -2.5,-1.3 -3.3,-2.5 -4.9,-7 -8.5,-14.6 -9.5,-23.2 0,-0.6 0.4,-0.9 1,-0.8 3.4,2.1 2.7,6.2 4.4,9.2 1,3.8 3.6,6.8 4.9,10.4 0.1,0.3 0.4,0.7 0.6,1.1 z"
       id="path32"
       inkscape:connector-curvature="0"
       style="fill:#e8ede7" /><path
       d="m 188,362.2 c -5.3,8.8 -8.5,19 -17.8,24.9 0,-1.6 1,-2.8 1.8,-4.1 3.3,-4.5 6.2,-9.3 8.9,-14.1 2.2,-2.4 4.2,-5 7.1,-6.7 z"
       id="path34"
       inkscape:connector-curvature="0"
       style="fill:#0f1923" /><path
       d="m 270.9,401.4 c 1.2,0.7 0.9,3.2 2.9,2.8 1.6,-0.4 2.1,-2 2.6,-3.4 1,-2.7 0.4,-5.5 0.5,-8.3 1.7,4 1.9,8.2 1.3,12.4 -1.6,1.5 -1.5,5.8 -4.8,4.1 -2.6,-1.2 -4.8,-4 -2.5,-7.6 z"
       id="path36"
       inkscape:connector-curvature="0"
       style="fill:#1d332d" /><path
       d="m 180.9,368.9 c -0.8,6.1 -4.1,10.6 -8.9,14.1 1.3,-5.7 4.5,-10.3 8.9,-14.1 z"
       id="path38"
       inkscape:connector-curvature="0"
       style="fill:#457d1b" /><path
       d="m 217.5,350.1 c -2.1,1.3 -4.1,2.6 -6.2,3.9 -2,1.1 -3.6,2.7 -5.3,4.1 -1.1,0.9 -2.1,2 -3.8,1.2 -1.2,-3.6 2.8,-3.5 3.8,-5.5 0,-0.2 0.1,-0.4 0.1,-0.6 3.5,-1.8 7.3,-2.9 11.4,-3.1 z"
       id="path40"
       inkscape:connector-curvature="0"
       style="fill:#232e38" /><path
       d="m 167.8,410.2 c -1,-2 -0.8,-3.9 0.2,-5.9 1.7,-2.8 2.9,-2.3 4,0.4 -0.2,2.4 1.3,4.9 -0.6,7.1 -2.2,1.4 -2.2,-1.6 -3.6,-1.6 z"
       id="path42"
       inkscape:connector-curvature="0"
       style="fill:#559cb3" /><path
       d="m 171.1,404.7 c -0.7,-3.1 -2,-1.5 -3.2,-0.4 -1.6,-1 -0.4,-2.2 -0.2,-3.4 0.8,-1 1.2,-2.7 2.7,-2.5 1.2,0.2 1.5,1.6 1.7,2.7 0.3,1.3 0.5,2.6 0.7,3.8 -0.3,0.3 -0.6,0.5 -1,0.5 -0.3,0 -0.6,-0.3 -0.7,-0.7 z"
       id="path44"
       inkscape:connector-curvature="0"
       style="fill:#46222a" /><path
       d="m 236,453.9 c 0.2,1 0.4,2 0.6,3 -2.8,0.5 -3.8,5.5 -7.8,3.3 2.4,-2 4.8,-4.2 7.2,-6.3 z"
       id="path46"
       inkscape:connector-curvature="0"
       style="fill:#355769" /><path
       d="m 167.8,410.2 c 2.5,-1.7 1.8,0.9 2.3,1.8 0.5,0.7 0.5,1.3 0.2,2.1 -0.4,0.3 -0.9,0.4 -1.3,0.2 -0.3,0 -0.6,0.1 -0.9,0.3 -0.2,-1.5 -0.2,-3 -0.3,-4.4 z"
       id="path48"
       inkscape:connector-curvature="0"
       style="fill:#0f1729" /><path
       d="m 251,424 c -6,-0.5 -11.4,1.3 -16.9,3.4 -13.7,5.2 -27.2,5.9 -39.9,-3.2 -3.5,-2.5 -6,-5.7 -7.7,-9.6 -3,-6.7 0,-11.8 7.2,-11.3 14.9,0.9 30,-0.5 44.6,3.1 5.4,1.4 10.6,-0.4 15.8,-0.4 -2.6,2.1 -5.9,2.1 -8.9,2.2 -10,0.2 -20.1,0.2 -30.1,0.3 -5.7,-0.3 -11.4,0.2 -17,0.6 -4.8,2.8 -5.2,3.6 -2.1,8 4.7,6.5 11.2,9.9 19.3,10 7.9,0.3 15.4,-1.6 22.9,-3.4 4.1,-1 8.6,-2.6 12.8,0.3 z"
       id="path50"
       inkscape:connector-curvature="0"
       style="fill:#457f1b" /><path
       d="m 265,374.8 c 1.6,7.1 4.5,13.8 5.1,21 0.2,1.7 0.2,3.5 0.4,5.2 -1.5,0 -1.3,-1.2 -1.5,-2.1 -1.9,-9.8 -4.8,-19.3 -9.8,-28 3.2,-0.6 3.8,2.7 5.8,3.9 z"
       id="path52"
       inkscape:connector-curvature="0"
       style="fill:#203826" /><path
       d="m 215.2,427.2 c -7.6,1.9 -20.4,-5.7 -22,-13.1 -0.7,-3.2 1,-4.6 3.8,-5.2 1,-0.3 2.1,-0.7 2,1 -4.5,2.4 -4.9,3.7 -1.8,7.5 4.7,5.6 10.9,8.5 18,9.8 z"
       id="path54"
       inkscape:connector-curvature="0"
       style="fill:#0f1b23" /><path
       d="m 199,409.9 c -0.7,-0.3 -1.3,-0.7 -2,-1 6,-1.5 12,-1.1 18,-0.3 -5.3,0.4 -10.7,0.8 -16,1.3 z"
       id="path56"
       inkscape:connector-curvature="0"
       style="fill:#2e4636" /><path
       d="m 190,374.4 c -0.4,8.6 1.5,10.1 9.4,7.2 6,-2.2 12,-3.9 18.2,-5.2 13.9,-2.9 29.8,3.9 35.9,15.1 3.7,6.8 1.1,11.3 -6.8,11.6 -12.9,0.5 -25.6,-1 -38.3,-2.4 -7.7,-0.8 -15.3,-1.1 -22.8,0.4 2.8,-2.2 6,-3.1 9.5,-3.1 8.6,1 17.1,0.2 25.7,0.5 2.4,0.1 4.7,-0.3 5.9,0 -7.6,0 -16.3,0 -25.1,0 -1.6,0 -3.3,0.5 -4.8,-0.6 2.4,-1 4.9,-0.6 7.4,-0.6 12,-0.2 23.9,0.6 35.8,-1.1 5.1,-0.7 6.1,-2.9 2.9,-6.9 -8,-10.2 -19.2,-10.1 -30.5,-8.6 -4.9,0.7 -9.6,2.5 -14.5,3.4 -7.6,1.3 -10.4,-2.1 -7.9,-9.7 z"
       id="path58"
       inkscape:connector-curvature="0"
       style="fill:#c12d17" /><path
       d="m 218.9,387.1 c 5.1,-0.4 9,0.7 13,0 1.2,-0.2 2.6,0.2 2.6,1.6 0.1,1.7 -1.6,1.5 -2.6,1.5 -5.2,0.2 -10.4,0.3 -15.6,0.4 -1.2,0 -1.9,-0.7 -2,-1.8 -0.1,-1.3 0.7,-1.7 1.9,-1.6 1.2,0 2.5,-0.1 2.7,-0.1 z"
       id="path60"
       inkscape:connector-curvature="0"
       style="fill:#edc9c4" /><path
       d="m 205.9,353.8 c -0.7,2.5 -3.5,3.2 -4.6,5.3 0,1.5 -0.8,2.3 -2.3,2.3 -4,3.7 -6.1,8.7 -9.2,13 2.2,-9.2 7.4,-16.3 16.1,-20.6 z"
       id="path62"
       inkscape:connector-curvature="0"
       style="fill:#bf2917" /><path
       d="m 171.7,405.1 c 0.4,0 0.8,0 1.2,0 1,5.8 2.1,11.6 3.1,17.4 0.6,1.4 0.7,2.9 0.2,4.4 -2.7,0.4 -2.5,-2.1 -3.1,-3.5 -2.5,-5.9 -2,-12.1 -1.4,-18.3 z"
       id="path64"
       inkscape:connector-curvature="0"
       style="fill:#361f25" /><path
       d="m 196.8,397.9 c 10.9,0 21.9,0 32.8,0 -11.5,0.5 -23.1,2.3 -34.6,0.2 0.6,-0.1 1.2,-0.1 1.8,-0.2 z"
       id="path66"
       inkscape:connector-curvature="0"
       style="fill:#bc1702" /><path
       d="m 176,427.6 c 0,-1.7 0,-3.4 0,-5.1 1,2.7 2.1,5.4 3.1,8.1 0,1.3 -0.1,2.5 -0.1,3.8 -0.2,-0.1 -0.4,-0.2 -0.5,-0.3 -1.2,-2 -3.1,-3.8 -2.5,-6.5 z"
       id="path68"
       inkscape:connector-curvature="0"
       style="fill:#9d2e28" /><path
       d="m 199.1,361.5 c 0.8,-0.8 1.5,-1.6 2.3,-2.3 3.9,-0.6 5.9,-4.7 9.9,-5.2 -3.2,3.8 -7.3,6.8 -9.4,11.5 -0.5,1.2 -1.4,2.4 -0.3,3.7 1.1,1.2 2.4,0.6 3.7,0.2 8.1,-2.7 14.8,-7.3 20.6,-13.5 1.9,-2 3.7,-4.4 7.1,-3.9 -8.1,10.4 -17.5,19.3 -29.8,24.7 -3.1,1.4 -6.8,4.4 -9.5,1.7 -2.8,-2.8 0.4,-6.4 1.6,-9.5 1,-2.7 3.4,-4.5 3.8,-7.4 z"
       id="path70"
       inkscape:connector-curvature="0"
       style="fill:#57aac3" /><path
       d="m 233.5,438.8 c 0.7,-0.4 1.4,-0.9 2.1,-1.2 6.4,-2.7 8,-1.5 7.3,5.3 -0.9,0.2 -1.4,0 -1,-1 -0.1,-5.8 -3.9,-2.8 -6.5,-2.8 -0.8,0.4 -1.4,0.3 -1.9,-0.3 z"
       id="path72"
       inkscape:connector-curvature="0"
       style="fill:#10202b" /><path
       d="m 241.9,441.9 c 0.3,0.3 0.7,0.7 1,1 -1.2,4.4 -3.2,8.3 -7,11 2,-3.9 4,-8 6,-12 z"
       id="path74"
       inkscape:connector-curvature="0"
       style="fill:#436775" /><path
       d="m 233.5,438.8 c 0.6,0.1 1.2,0.2 1.8,0.3 -4.1,2.5 -8.2,5 -12.3,7.4 2.1,-4.4 6.6,-5.7 10.5,-7.7 z"
       id="path76"
       inkscape:connector-curvature="0"
       style="fill:#1d2c3b" /><path
       d="m 176,427.6 c 0.8,2.2 1.6,4.3 2.5,6.5 -3.5,-2.5 -4.3,-6.6 -6.2,-10.1 -0.1,-3.5 -2.1,-6.5 -2.4,-10 0.1,-0.7 0.1,-1.3 0.2,-2 1.8,-2.2 0.5,-4.9 1,-7.3 0.2,0.2 0.4,0.3 0.6,0.4 0,7.8 1,15.4 4.3,22.5 z"
       id="path78"
       inkscape:connector-curvature="0"
       style="fill:#4890a8" /><path
       d="m 169.9,414 c 1.4,3.2 3,6.3 2.4,10 -1.1,-3.2 -2.3,-6.5 -3.4,-9.7 0.4,-0.2 0.7,-0.3 1,-0.3 z"
       id="path80"
       inkscape:connector-curvature="0"
       style="fill:#3f606a" /></g></svg>