<?xml version="1.0" encoding="utf-8"?>
<!-- Generator: Adobe Illustrator 18.0.0, SVG Export Plug-In . SVG Version: 6.00 Build 0)  -->
<!DOCTYPE svg PUBLIC "-//W3C//DTD SVG 1.1//EN" "http://www.w3.org/Graphics/SVG/1.1/DTD/svg11.dtd">
<svg version="1.1" id="Layer_1" xmlns="http://www.w3.org/2000/svg" xmlns:xlink="http://www.w3.org/1999/xlink" x="0px" y="0px"
	 viewBox="0 0 612 792" enable-background="new 0 0 612 792" xml:space="preserve">
<ellipse fill="#7BAB2C" cx="222.3" cy="405.3" rx="55.4" ry="55.8"/>
<g>
	<path fill="#FEFEFE" d="M161,345c0,38.6,0.1,77.3-0.1,115.9c0,4.2,1,5.2,5.2,5.2c39.6-0.2,79.3-0.1,118.9-0.1c0.3,1.6-0.9,1-1.5,1
		c-40.3,0-80.7,0-121,0.1c-2.1,0-2.6-0.4-2.6-2.6c0.1-39.3,0.1-78.7,0.1-118C160,345.9,159.4,344.7,161,345z"/>
	<path fill="#FEFEFD" d="M258,448.3c-4.8,4.1-10.1,7.2-17,9.4c1.5-2.2,2.4-3.4,3.3-4.7c-0.3-2.2,1.1-3.7,2.1-5.4
		c2.7-4.7,5-9.6,5.8-15.1c0.4-2.9,0.2-5.6-2.8-7.2c-4.6-1.8-9.1-0.6-13.6,0.6c-6.7,1.8-13.3,3.5-20.4,2.8
		c-7.6-1.6-14.7-4.2-19.4-10.7c-3.4-4.7-2.3-7.5,3.5-9.4c5.1-1,10.4-1,15.6-1.3c10.2,0,20.4-1.1,30.7-0.7c2.2,0.1,4.3-0.2,6.3-1.1
		c0.4-0.3,0.9-0.5,1.4-0.7c4.1-1.5,5.2-4.1,4.6-8.6c-0.8-5.9-3.3-10.7-6.6-15.4c-3.8-5.5-7.8-10.8-10.5-16.9c-0.3-1-0.4-1.9-0.5-2.9
		c-0.4-4.2,1.8-6,5.7-4.3c4.5,1.9,7.9,5.3,10.9,9.1c1.1,1.4,2.3,2.8,3.2,4.4c6.2,8.9,8.1,19.4,10.7,29.6c0.4,0.6,0.6,1.3,0.7,2
		c0.7,5.7,1.1,5.9,6.5,3.1c0.6,5.2-0.2,10.2-1.9,15.1c-0.2,2-1.7,3.3-3.1,4.2c-6.2,3.9-8.6,10.1-10.7,16.6
		C261.6,443.7,260.3,446.2,258,448.3z"/>
	<path fill="#FDFDFD" d="M188,362.2c5.7-3.6,10.6-8.9,18-9c0.2,0.4,0.2,0.9,0,1.3c-7.1,5.1-13,11.1-14.7,20.2c0,0.5-0.2,1-0.3,1.6
		c-0.1,5.1,1.6,6.8,7,6.1c4.9-0.6,9.7-2.3,14.5-3.3c7.9-1.6,15.6-1.3,23,1.9c3.8,1.6,6.9,4.1,9,7.6c2.6,4.1,1.4,7.4-3.4,8.8
		c-3.2,0.9-6.5,1.2-9.9,1.2c-11.1,0-22.3-0.7-33.4,0.4c-0.7,0.3-1.5,0.4-2.3,0.4c-3.1,0-6,0.7-8.5,2.5c-1.5,1-2.6,2.4-3.1,4.2
		c-1.6,6.1,0.4,11.5,3.2,16.6c3.1,5.7,6.7,11,10.1,16.6c1.8,3,3.4,6.1,3.9,9.6c0.3,1.9,0.2,3.8-1.6,4.9c-1.9,1.3-3.4,0-4.9-1.1
		c-7.5-5.6-12.7-13-16.7-21.3c-1.2-2.8-2.1-5.8-3.2-8.6c-1.2-5.5-2.2-11.1-3.2-16.6c-0.5-2.3,0-5.3-3.9-5.2
		c-0.5-4.8,1.3-9.3,2.4-13.8C177,379.4,181.4,370,188,362.2z"/>
	<path fill="#101F2A" d="M190,374.4l0,0.1c1.2-3.9,3.4-7.2,5.6-10.5c0.8-1.2,1.6-2.6,3.4-2.3c1.8,2.4-0.3,4-1.2,5.8
		c-1.4,2.9-4.7,6.3-2,8.9c2.5,2.4,6.2-0.6,9-2.2c8.6-4.8,16.9-10,22.7-18.2c1.1-1.6,2.7-3,4.4-4c0.5-0.1,0.9-0.2,1.4-0.2
		c1.5,0.1,3,0.2,4.6,0.2c-2,4-0.6,7.4,1.6,11c5.3,8.8,12.4,16.5,16.8,25.8c4,8.4,3.7,12.8-2.2,17.1l0.1,0
		c-8.9,2.9-17.8,0.9-26.6,0.2c-10.8-0.8-21.6-0.5-32.4-1.2c-7.2-0.5-9.7,4.2-6,10.4c5.7,9.6,14.8,13.5,25.5,14
		c8.4,0.4,16.4-2.1,24.3-4.8c4-1.4,8.1-1.6,12.2-0.6c3.7,2.6,3.2,6.3,2.5,9.9c-1.5,7.1-4.5,13.5-9.1,19.1c-3-1.7-3.8,2.7-6.3,2.3
		c-0.6-2.1,0.8-3.4,1.9-4.9c3.1-4.3,5.6-9.1,7.6-14c0.7-1.9,1.5-4,0-5.7c-1.6-1.8-3.8-0.7-5.6,0c-11.8,4.5-21.3,11.6-26.8,23.3
		c-1,2.1-2,4.2-3.8,5.8c-2-0.2-3.9-0.6-5.6-1.7c0.7-3.7-0.8-6.7-2.6-9.8c-5.2-8.6-11.2-16.8-16.1-25.6c-3.2-5.7-5.3-11.7-4-18.4
		c-0.2-1.9,1.5-2.4,2.5-3.3c7.3-2.8,14.8-2.8,22.5-2c12.9,1.4,25.8,2.8,38.8,2c5.9-0.4,7.7-3.6,4.8-8.8c-5.3-9.4-14-13.4-24.3-14.5
		c-8.8-0.9-17.1,1.6-25.4,4c-1,0.3-1.8,0.8-2.8,1C191.1,384.9,188.7,382.7,190,374.4z"/>
	<path fill="#FCFCFC" d="M228.7,460.3c-5.3,1.2-10.5,0.9-15.6-0.5c-0.3-4.6,3.5-7.2,5.5-10.7c0.9-1.7,2.6-2.9,4.2-4.1
		c4.1-2.6,8.1-5.4,12.6-7.3c5.8-1.4,6.2-1.2,7.7,3.4c-0.7,4.7-3.1,8.7-5.7,12.5c-0.2,0.4-0.5,0.8-0.8,1.2
		C233.7,456.4,232.5,460.2,228.7,460.3z"/>
	<path fill="#58ABC4" d="M223,446.6c-4.2,3.7-7,8.5-9.9,13.2c-0.6,0-1.2,0.1-1.7,0.1c3.2-14.1,19.4-29.5,33.5-31.8
		c4.1-0.7,6,1.5,5,6c-1.3,6-4.7,10.9-8,16c-1.2,1.8-2.5,3.5-3.8,5.2c-0.5,0.6-1,1.1-1.5,1.6c-1.8-0.7-1-1.9-0.6-3l0,0.1
		c2.7-3.4,5.3-6.9,6.3-11.2c0.5-1.9,1-4.3-1.1-5.2c-2.5-1.1-4.9,0.6-7.1,1.8C229.9,441.2,226,443.1,223,446.6z"/>
	<path fill="#C12A15" d="M183,404.4c0.3,8.2,3.3,15.5,7.8,22.3c5.1,7.8,10.3,15.5,15.2,23.4c1.6,2.5,3.9,5.5-0.3,8.1
		c-9.4-1.8-16.8-6.5-22-14.7c-0.8-1.2-2-2.2-2.9-3.3c-1.5-2-3.3-3.9-3.2-6.6c0.1-1.2,0.3-2.3,1.4-2.9c4,7.5,8.4,14.7,15,20.3
		c1.5,1.3,3.2,3.4,5.1,2.2c2.2-1.4,0.9-3.9,0.1-5.8c-3.4-8.7-9.4-16.1-13.6-24.3C182.7,417.1,180.4,411.1,183,404.4z"/>
	<path fill="#FCFCFC" d="M217.5,350.1c3.9,0,7.8,0,11.7,0c1.6,0,3.3,0,4.2,1.9c0,0-0.3,0.1-0.3,0.1c-3,1.6-5.4,3.8-7.6,6.3
		c-5.1,5.6-11.3,9.6-18.6,12c-2.1,0.7-4.3,1.3-5.9-0.8c-1.6-2-0.6-4.1,0.4-6c2.2-4,5.7-6.8,8.8-10
		C212.5,352.1,214.8,350.8,217.5,350.1z"/>
	<path fill="#0F1E27" d="M259.2,371c-3.5-4.4-6.9-9-11.8-12.1c-1.6-1-3.3-3-5.3-1.5c-1.8,1.3-0.2,3.4,0.1,5.1c0.1,0.5,0.1,1,0.1,1.5
		c-4.5-0.3-4.5-3.8-4.3-6.8c0.2-3.5,3-3.3,5.6-2.9c0.8,0.1,1.6,0.3,2.4,0.7c15.7,7.7,27,19,30.4,36.8c0,0.3,0,0.7,0.1,1
		c0.5,2.1,1.3,4.7-1.6,5.3c-2.6,0.5-3.5-1.9-4.1-4c-1.9-5.9-1.9-12.4-6.1-17.5C262.7,374.8,261.7,372.2,259.2,371z"/>
	<path fill="#467F1B" d="M246,354.9c-2.2,0.6-5.7-1.6-6.6,1.3c-0.9,2.7,0.4,5.7,3,7.7c4,6.2,8,12.4,12,18.6
		c2.7,4.3,4.5,8.8,5.2,13.9c0.7,4.9-0.9,8-5.6,9.7c5.1-5.7,4.2-11.2,0.6-17.6c-4.9-8.6-11.5-16.1-16.4-24.8c-1-1.7-1.9-3.5-2.8-5.3
		c-1.7-3.1-1.1-5.3,2.6-6.3C240.9,352.2,243.6,353,246,354.9z"/>
	<path fill="#56A8C3" d="M265,374.8c3.1,2.8,4.2,6.5,5.2,10.4c1,4.3,1.5,8.7,4.1,13c2.2-2,1.4-4.6,2.1-6.5c0.2,0.3,0.4,0.6,0.6,0.8
		c1,2.7,0.6,5.5,0.7,8.2c0,2.2-1.4,4.2-3.8,4.4c-2.4,0.2-2.8-1.8-2.9-3.7l-0.4,0l-0.1-0.4c-2-8.1-3.1-16.4-6.5-24.1
		C263.5,376.1,263.5,375,265,374.8z"/>
	<path fill="#131926" d="M258,448.3c1.1-3.1,2.4-6.1,3.3-9.3c2.4-8.4,8-14.2,15-19c0.8,2.1-1,3.5-1.4,5.3c-6,4-8.3,10.3-10.6,16.7
		C262.7,444.6,260.9,447,258,448.3z"/>
	<path fill="#CF6D22" d="M264.3,442c0.3-7.6,2.1-14.3,10.6-16.7C272.2,431.4,269.4,437.4,264.3,442z"/>
	<path fill="#E8EDE7" d="M179,434.4c-0.4,2.3,2.5,3.4,1.9,5.8c-2,0.4-2.5-1.3-3.3-2.5c-4.9-7-8.5-14.6-9.5-23.2c0-0.6,0.4-0.9,1-0.8
		c3.4,2.1,2.7,6.2,4.4,9.2c1,3.8,3.6,6.8,4.9,10.4C178.5,433.6,178.8,434,179,434.4z"/>
	<path fill="#0F1923" d="M188,362.2c-5.3,8.8-8.5,19-17.8,24.9c0-1.6,1-2.8,1.8-4.1c3.3-4.5,6.2-9.3,8.9-14.1
		C183.1,366.5,185.1,363.9,188,362.2z"/>
	<path fill="#1D332D" d="M270.9,401.4c1.2,0.7,0.9,3.2,2.9,2.8c1.6-0.4,2.1-2,2.6-3.4c1-2.7,0.4-5.5,0.5-8.3c1.7,4,1.9,8.2,1.3,12.4
		c-1.6,1.5-1.5,5.8-4.8,4.1C270.8,407.8,268.6,405,270.9,401.4z"/>
	<path fill="#457D1B" d="M180.9,368.9c-0.8,6.1-4.1,10.6-8.9,14.1C173.3,377.3,176.5,372.7,180.9,368.9z"/>
	<path fill="#232E38" d="M217.5,350.1c-2.1,1.3-4.1,2.6-6.2,3.9c-2,1.1-3.6,2.7-5.3,4.1c-1.1,0.9-2.1,2-3.8,1.2
		c-1.2-3.6,2.8-3.5,3.8-5.5c0-0.2,0.1-0.4,0.1-0.6C209.6,351.4,213.4,350.3,217.5,350.1z"/>
	<path fill="#559CB3" d="M167.8,410.2c-1-2-0.8-3.9,0.2-5.9c1.7-2.8,2.9-2.3,4,0.4c-0.2,2.4,1.3,4.9-0.6,7.1
		C169.2,413.2,169.2,410.2,167.8,410.2z"/>
	<path fill="#46222A" d="M171.1,404.7c-0.7-3.1-2-1.5-3.2-0.4c-1.6-1-0.4-2.2-0.2-3.4c0.8-1,1.2-2.7,2.7-2.5
		c1.2,0.2,1.5,1.6,1.7,2.7c0.3,1.3,0.5,2.6,0.7,3.8c-0.3,0.3-0.6,0.5-1,0.5C171.5,405.4,171.2,405.1,171.1,404.7z"/>
	<path fill="#355769" d="M236,453.9c0.2,1,0.4,2,0.6,3c-2.8,0.5-3.8,5.5-7.8,3.3C231.2,458.2,233.6,456,236,453.9z"/>
	<path fill="#0F1729" d="M167.8,410.2c2.5-1.7,1.8,0.9,2.3,1.8c0.5,0.7,0.5,1.3,0.2,2.1c-0.4,0.3-0.9,0.4-1.3,0.2
		c-0.3,0-0.6,0.1-0.9,0.3C167.9,413.1,167.9,411.6,167.8,410.2z"/>
	<path fill="#457F1B" d="M251,424c-6-0.5-11.4,1.3-16.9,3.4c-13.7,5.2-27.2,5.9-39.9-3.2c-3.5-2.5-6-5.7-7.7-9.6
		c-3-6.7,0-11.8,7.2-11.3c14.9,0.9,30-0.5,44.6,3.1c5.4,1.4,10.6-0.4,15.8-0.4c-2.6,2.1-5.9,2.1-8.9,2.2c-10,0.2-20.1,0.2-30.1,0.3
		c-5.7-0.3-11.4,0.2-17,0.6c-4.8,2.8-5.2,3.6-2.1,8c4.7,6.5,11.2,9.9,19.3,10c7.9,0.3,15.4-1.6,22.9-3.4
		C242.3,422.7,246.8,421.1,251,424z"/>
	<path fill="#203826" d="M265,374.8c1.6,7.1,4.5,13.8,5.1,21c0.2,1.7,0.2,3.5,0.4,5.2c-1.5,0-1.3-1.2-1.5-2.1
		c-1.9-9.8-4.8-19.3-9.8-28C262.4,370.3,263,373.6,265,374.8z"/>
	<path fill="#0F1B23" d="M215.2,427.2c-7.6,1.9-20.4-5.7-22-13.1c-0.7-3.2,1-4.6,3.8-5.2c1-0.3,2.1-0.7,2,1
		c-4.5,2.4-4.9,3.7-1.8,7.5C201.9,423,208.1,425.9,215.2,427.2z"/>
	<path fill="#2E4636" d="M199,409.9c-0.7-0.3-1.3-0.7-2-1c6-1.5,12-1.1,18-0.3C209.7,409,204.3,409.4,199,409.9z"/>
	<path fill="#C12D17" d="M190,374.4c-0.4,8.6,1.5,10.1,9.4,7.2c6-2.2,12-3.9,18.2-5.2c13.9-2.9,29.8,3.9,35.9,15.1
		c3.7,6.8,1.1,11.3-6.8,11.6c-12.9,0.5-25.6-1-38.3-2.4c-7.7-0.8-15.3-1.1-22.8,0.4c2.8-2.2,6-3.1,9.5-3.1c8.6,1,17.1,0.2,25.7,0.5
		c2.4,0.1,4.7-0.3,5.9,0c-7.6,0-16.3,0-25.1,0c-1.6,0-3.3,0.5-4.8-0.6c2.4-1,4.9-0.6,7.4-0.6c12-0.2,23.9,0.6,35.8-1.1
		c5.1-0.7,6.1-2.9,2.9-6.9c-8-10.2-19.2-10.1-30.5-8.6c-4.9,0.7-9.6,2.5-14.5,3.4C190.3,385.4,187.5,382,190,374.4z"/>
	<path fill="#EDC9C4" d="M218.9,387.1c5.1-0.4,9,0.7,13,0c1.2-0.2,2.6,0.2,2.6,1.6c0.1,1.7-1.6,1.5-2.6,1.5
		c-5.2,0.2-10.4,0.3-15.6,0.4c-1.2,0-1.9-0.7-2-1.8c-0.1-1.3,0.7-1.7,1.9-1.6C217.4,387.2,218.7,387.1,218.9,387.1z"/>
	<path fill="#BF2917" d="M205.9,353.8c-0.7,2.5-3.5,3.2-4.6,5.3c0,1.5-0.8,2.3-2.3,2.3c-4,3.7-6.1,8.7-9.2,13
		C192,365.2,197.2,358.1,205.9,353.8z"/>
	<path fill="#361F25" d="M171.7,405.1c0.4,0,0.8,0,1.2,0c1,5.8,2.1,11.6,3.1,17.4c0.6,1.4,0.7,2.9,0.2,4.4c-2.7,0.4-2.5-2.1-3.1-3.5
		C170.6,417.5,171.1,411.3,171.7,405.1z"/>
	<path fill="#BC1702" d="M196.8,397.9c10.9,0,21.9,0,32.8,0c-11.5,0.5-23.1,2.3-34.6,0.2C195.6,398,196.2,398,196.8,397.9z"/>
	<path fill="#9D2E28" d="M176,427.6c0-1.7,0-3.4,0-5.1c1,2.7,2.1,5.4,3.1,8.1c0,1.3-0.1,2.5-0.1,3.8c-0.2-0.1-0.4-0.2-0.5-0.3
		C177.3,432.1,175.4,430.3,176,427.6z"/>
	<path fill="#57AAC3" d="M199.1,361.5c0.8-0.8,1.5-1.6,2.3-2.3c3.9-0.6,5.9-4.7,9.9-5.2c-3.2,3.8-7.3,6.8-9.4,11.5
		c-0.5,1.2-1.4,2.4-0.3,3.7c1.1,1.2,2.4,0.6,3.7,0.2c8.1-2.7,14.8-7.3,20.6-13.5c1.9-2,3.7-4.4,7.1-3.9
		c-8.1,10.4-17.5,19.3-29.8,24.7c-3.1,1.4-6.8,4.4-9.5,1.7c-2.8-2.8,0.4-6.4,1.6-9.5C196.3,366.2,198.7,364.4,199.1,361.5z"/>
	<path fill="#10202B" d="M233.5,438.8c0.7-0.4,1.4-0.9,2.1-1.2c6.4-2.7,8-1.5,7.3,5.3c-0.9,0.2-1.4,0-1-1c-0.1-5.8-3.9-2.8-6.5-2.8
		C234.6,439.5,234,439.4,233.5,438.8z"/>
	<path fill="#436775" d="M241.9,441.9c0.3,0.3,0.7,0.7,1,1c-1.2,4.4-3.2,8.3-7,11C237.9,450,239.9,445.9,241.9,441.9z"/>
	<path fill="#1D2C3B" d="M233.5,438.8c0.6,0.1,1.2,0.2,1.8,0.3c-4.1,2.5-8.2,5-12.3,7.4C225.1,442.1,229.6,440.8,233.5,438.8z"/>
	<path fill="#4890A8" d="M176,427.6c0.8,2.2,1.6,4.3,2.5,6.5c-3.5-2.5-4.3-6.6-6.2-10.1c-0.1-3.5-2.1-6.5-2.4-10
		c0.1-0.7,0.1-1.3,0.2-2c1.8-2.2,0.5-4.9,1-7.3c0.2,0.2,0.4,0.3,0.6,0.4C171.7,412.9,172.7,420.5,176,427.6z"/>
	<path fill="#3F606A" d="M169.9,414c1.4,3.2,3,6.3,2.4,10c-1.1-3.2-2.3-6.5-3.4-9.7C169.3,414.1,169.6,414,169.9,414z"/>
</g>
</svg>
