<?xml version="1.0" encoding="UTF-8" standalone="no"?>
<!-- Generator: Adobe Illustrator 18.0.0, SVG Export Plug-In . SVG Version: 6.00 Build 0)  -->

<svg
   xmlns:dc="http://purl.org/dc/elements/1.1/"
   xmlns:cc="http://creativecommons.org/ns#"
   xmlns:rdf="http://www.w3.org/1999/02/22-rdf-syntax-ns#"
   xmlns:svg="http://www.w3.org/2000/svg"
   xmlns="http://www.w3.org/2000/svg"
   xmlns:sodipodi="http://sodipodi.sourceforge.net/DTD/sodipodi-0.dtd"
   xmlns:inkscape="http://www.inkscape.org/namespaces/inkscape"
   version="1.1"
   id="Layer_1"
   x="0px"
   y="0px"
   viewBox="0 0 83.784744 83.784744"
   enable-background="new 0 0 612 792"
   xml:space="preserve"
   inkscape:version="0.91 r"
   sodipodi:docname="haloFootBall.svg"
   width="83.784744"
   height="83.784744"><metadata
     id="metadata11"><rdf:RDF><cc:Work
         rdf:about=""><dc:format>image/svg+xml</dc:format><dc:type
           rdf:resource="http://purl.org/dc/dcmitype/StillImage" /><dc:title></dc:title></cc:Work></rdf:RDF></metadata><defs
     id="defs9" /><sodipodi:namedview
     pagecolor="#ffffff"
     bordercolor="#666666"
     borderopacity="1"
     objecttolerance="10"
     gridtolerance="10"
     guidetolerance="10"
     inkscape:pageopacity="0"
     inkscape:pageshadow="2"
     inkscape:window-width="718"
     inkscape:window-height="480"
     id="namedview7"
     showgrid="false"
     fit-margin-top="0"
     fit-margin-left="0"
     fit-margin-right="0"
     fit-margin-bottom="0"
     inkscape:zoom="2.3838384"
     inkscape:cx="75.764982"
     inkscape:cy="50.873547"
     inkscape:window-x="63"
     inkscape:window-y="34"
     inkscape:window-maximized="0"
     inkscape:current-layer="Layer_1" /><circle
     stroke-miterlimit="10"
     cx="41.892372"
     cy="41.892372"
     r="30.948578"
     id="circle3"
     style="fill:none;stroke:#e3be22;stroke-width:5.88376045;stroke-miterlimit:10" /><circle
     stroke-miterlimit="10"
     cx="41.892372"
     cy="41.892372"
     r="37.773739"
     id="circle5"
     style="fill:none;stroke:#f9e43f;stroke-width:8.23726463;stroke-miterlimit:10" /><g
     transform="matrix(0.40879546,0,0,0.40879546,-49.437151,-125.34252)"
     id="g5"><path
       style="fill:#fefefe"
       inkscape:connector-curvature="0"
       id="path7"
       d="m 162.5947,348.00417 c 0,38.6 0.1,77.3 -0.1,115.9 0,4.2 1,5.2 5.2,5.2 39.6,-0.2 79.3,-0.1 118.9,-0.1 0.3,1.6 -0.9,1 -1.5,1 -40.3,0 -80.7,0 -121,0.1 -2.1,0 -2.6,-0.4 -2.6,-2.6 0.1,-39.3 0.1,-78.7 0.1,-118 0,-0.6 -0.6,-1.8 1,-1.5 z" /><path
       style="fill:#fefefd"
       inkscape:connector-curvature="0"
       id="path9"
       d="m 259.5947,451.30417 c -4.8,4.1 -10.1,7.2 -17,9.4 1.5,-2.2 2.4,-3.4 3.3,-4.7 -0.3,-2.2 1.1,-3.7 2.1,-5.4 2.7,-4.7 5,-9.6 5.8,-15.1 0.4,-2.9 0.2,-5.6 -2.8,-7.2 -4.6,-1.8 -9.1,-0.6 -13.6,0.6 -6.7,1.8 -13.3,3.5 -20.4,2.8 -7.6,-1.6 -14.7,-4.2 -19.4,-10.7 -3.4,-4.7 -2.3,-7.5 3.5,-9.4 5.1,-1 10.4,-1 15.6,-1.3 10.2,0 20.4,-1.1 30.7,-0.7 2.2,0.1 4.3,-0.2 6.3,-1.1 0.4,-0.3 0.9,-0.5 1.4,-0.7 4.1,-1.5 5.2,-4.1 4.6,-8.6 -0.8,-5.9 -3.3,-10.7 -6.6,-15.4 -3.8,-5.5 -7.8,-10.8 -10.5,-16.9 -0.3,-1 -0.4,-1.9 -0.5,-2.9 -0.4,-4.2 1.8,-6 5.7,-4.3 4.5,1.9 7.9,5.3 10.9,9.1 1.1,1.4 2.3,2.8 3.2,4.4 6.2,8.9 8.1,19.4 10.7,29.6 0.4,0.6 0.6,1.3 0.7,2 0.7,5.7 1.1,5.9 6.5,3.1 0.6,5.2 -0.2,10.2 -1.9,15.1 -0.2,2 -1.7,3.3 -3.1,4.2 -6.2,3.9 -8.6,10.1 -10.7,16.6 -0.9,2.9 -2.2,5.4 -4.5,7.5 z" /><path
       style="fill:#fdfdfd"
       inkscape:connector-curvature="0"
       id="path11"
       d="m 189.5947,365.20417 c 5.7,-3.6 10.6,-8.9 18,-9 0.2,0.4 0.2,0.9 0,1.3 -7.1,5.1 -13,11.1 -14.7,20.2 0,0.5 -0.2,1 -0.3,1.6 -0.1,5.1 1.6,6.8 7,6.1 4.9,-0.6 9.7,-2.3 14.5,-3.3 7.9,-1.6 15.6,-1.3 23,1.9 3.8,1.6 6.9,4.1 9,7.6 2.6,4.1 1.4,7.4 -3.4,8.8 -3.2,0.9 -6.5,1.2 -9.9,1.2 -11.1,0 -22.3,-0.7 -33.4,0.4 -0.7,0.3 -1.5,0.4 -2.3,0.4 -3.1,0 -6,0.7 -8.5,2.5 -1.5,1 -2.6,2.4 -3.1,4.2 -1.6,6.1 0.4,11.5 3.2,16.6 3.1,5.7 6.7,11 10.1,16.6 1.8,3 3.4,6.1 3.9,9.6 0.3,1.9 0.2,3.8 -1.6,4.9 -1.9,1.3 -3.4,0 -4.9,-1.1 -7.5,-5.6 -12.7,-13 -16.7,-21.3 -1.2,-2.8 -2.1,-5.8 -3.2,-8.6 -1.2,-5.5 -2.2,-11.1 -3.2,-16.6 -0.5,-2.3 0,-5.3 -3.9,-5.2 -0.5,-4.8 1.3,-9.3 2.4,-13.8 7,-7.8 11.4,-17.2 18,-25 z" /><path
       style="fill:#101f2a"
       inkscape:connector-curvature="0"
       id="path13"
       d="m 191.5947,377.40417 0,0.1 c 1.2,-3.9 3.4,-7.2 5.6,-10.5 0.8,-1.2 1.6,-2.6 3.4,-2.3 1.8,2.4 -0.3,4 -1.2,5.8 -1.4,2.9 -4.7,6.3 -2,8.9 2.5,2.4 6.2,-0.6 9,-2.2 8.6,-4.8 16.9,-10 22.7,-18.2 1.1,-1.6 2.7,-3 4.4,-4 0.5,-0.1 0.9,-0.2 1.4,-0.2 1.5,0.1 3,0.2 4.6,0.2 -2,4 -0.6,7.4 1.6,11 5.3,8.8 12.4,16.5 16.8,25.8 4,8.4 3.7,12.8 -2.2,17.1 l 0.1,0 c -8.9,2.9 -17.8,0.9 -26.6,0.2 -10.8,-0.8 -21.6,-0.5 -32.4,-1.2 -7.2,-0.5 -9.7,4.2 -6,10.4 5.7,9.6 14.8,13.5 25.5,14 8.4,0.4 16.4,-2.1 24.3,-4.8 4,-1.4 8.1,-1.6 12.2,-0.6 3.7,2.6 3.2,6.3 2.5,9.9 -1.5,7.1 -4.5,13.5 -9.1,19.1 -3,-1.7 -3.8,2.7 -6.3,2.3 -0.6,-2.1 0.8,-3.4 1.9,-4.9 3.1,-4.3 5.6,-9.1 7.6,-14 0.7,-1.9 1.5,-4 0,-5.7 -1.6,-1.8 -3.8,-0.7 -5.6,0 -11.8,4.5 -21.3,11.6 -26.8,23.3 -1,2.1 -2,4.2 -3.8,5.8 -2,-0.2 -3.9,-0.6 -5.6,-1.7 0.7,-3.7 -0.8,-6.7 -2.6,-9.8 -5.2,-8.6 -11.2,-16.8 -16.1,-25.6 -3.2,-5.7 -5.3,-11.7 -4,-18.4 -0.2,-1.9 1.5,-2.4 2.5,-3.3 7.3,-2.8 14.8,-2.8 22.5,-2 12.9,1.4 25.8,2.8 38.8,2 5.9,-0.4 7.7,-3.6 4.8,-8.8 -5.3,-9.4 -14,-13.4 -24.3,-14.5 -8.8,-0.9 -17.1,1.6 -25.4,4 -1,0.3 -1.8,0.8 -2.8,1 -8.3,2.3 -10.7,0.1 -9.4,-8.2 z" /><path
       style="fill:#fcfcfc"
       inkscape:connector-curvature="0"
       id="path15"
       d="m 230.2947,463.30417 c -5.3,1.2 -10.5,0.9 -15.6,-0.5 -0.3,-4.6 3.5,-7.2 5.5,-10.7 0.9,-1.7 2.6,-2.9 4.2,-4.1 4.1,-2.6 8.1,-5.4 12.6,-7.3 5.8,-1.4 6.2,-1.2 7.7,3.4 -0.7,4.7 -3.1,8.7 -5.7,12.5 -0.2,0.4 -0.5,0.8 -0.8,1.2 -2.9,1.6 -4.1,5.4 -7.9,5.5 z" /><path
       style="fill:#58abc4"
       inkscape:connector-curvature="0"
       id="path17"
       d="m 224.5947,449.60417 c -4.2,3.7 -7,8.5 -9.9,13.2 -0.6,0 -1.2,0.1 -1.7,0.1 3.2,-14.1 19.4,-29.5 33.5,-31.8 4.1,-0.7 6,1.5 5,6 -1.3,6 -4.7,10.9 -8,16 -1.2,1.8 -2.5,3.5 -3.8,5.2 -0.5,0.6 -1,1.1 -1.5,1.6 -1.8,-0.7 -1,-1.9 -0.6,-3 l 0,0.1 c 2.7,-3.4 5.3,-6.9 6.3,-11.2 0.5,-1.9 1,-4.3 -1.1,-5.2 -2.5,-1.1 -4.9,0.6 -7.1,1.8 -4.2,1.8 -8.1,3.7 -11.1,7.2 z" /><path
       style="fill:#c12a15"
       inkscape:connector-curvature="0"
       id="path19"
       d="m 184.5947,407.40417 c 0.3,8.2 3.3,15.5 7.8,22.3 5.1,7.8 10.3,15.5 15.2,23.4 1.6,2.5 3.9,5.5 -0.3,8.1 -9.4,-1.8 -16.8,-6.5 -22,-14.7 -0.8,-1.2 -2,-2.2 -2.9,-3.3 -1.5,-2 -3.3,-3.9 -3.2,-6.6 0.1,-1.2 0.3,-2.3 1.4,-2.9 4,7.5 8.4,14.7 15,20.3 1.5,1.3 3.2,3.4 5.1,2.2 2.2,-1.4 0.9,-3.9 0.1,-5.8 -3.4,-8.7 -9.4,-16.1 -13.6,-24.3 -2.9,-6 -5.2,-12 -2.6,-18.7 z" /><path
       style="fill:#fcfcfc"
       inkscape:connector-curvature="0"
       id="path21"
       d="m 219.0947,353.10417 c 3.9,0 7.8,0 11.7,0 1.6,0 3.3,0 4.2,1.9 0,0 -0.3,0.1 -0.3,0.1 -3,1.6 -5.4,3.8 -7.6,6.3 -5.1,5.6 -11.3,9.6 -18.6,12 -2.1,0.7 -4.3,1.3 -5.9,-0.8 -1.6,-2 -0.6,-4.1 0.4,-6 2.2,-4 5.7,-6.8 8.8,-10 2.3,-1.5 4.6,-2.8 7.3,-3.5 z" /><path
       style="fill:#0f1e27"
       inkscape:connector-curvature="0"
       id="path23"
       d="m 260.7947,374.00417 c -3.5,-4.4 -6.9,-9 -11.8,-12.1 -1.6,-1 -3.3,-3 -5.3,-1.5 -1.8,1.3 -0.2,3.4 0.1,5.1 0.1,0.5 0.1,1 0.1,1.5 -4.5,-0.3 -4.5,-3.8 -4.3,-6.8 0.2,-3.5 3,-3.3 5.6,-2.9 0.8,0.1 1.6,0.3 2.4,0.7 15.7,7.7 27,19 30.4,36.8 0,0.3 0,0.7 0.1,1 0.5,2.1 1.3,4.7 -1.6,5.3 -2.6,0.5 -3.5,-1.9 -4.1,-4 -1.9,-5.9 -1.9,-12.4 -6.1,-17.5 -2,-1.8 -3,-4.4 -5.5,-5.6 z" /><path
       style="fill:#467f1b"
       inkscape:connector-curvature="0"
       id="path25"
       d="m 247.5947,357.90417 c -2.2,0.6 -5.7,-1.6 -6.6,1.3 -0.9,2.7 0.4,5.7 3,7.7 4,6.2 8,12.4 12,18.6 2.7,4.3 4.5,8.8 5.2,13.9 0.7,4.9 -0.9,8 -5.6,9.7 5.1,-5.7 4.2,-11.2 0.6,-17.6 -4.9,-8.6 -11.5,-16.1 -16.4,-24.8 -1,-1.7 -1.9,-3.5 -2.8,-5.3 -1.7,-3.1 -1.1,-5.3 2.6,-6.3 2.9,0.1 5.6,0.9 8,2.8 z" /><path
       style="fill:#56a8c3"
       inkscape:connector-curvature="0"
       id="path27"
       d="m 266.5947,377.80417 c 3.1,2.8 4.2,6.5 5.2,10.4 1,4.3 1.5,8.7 4.1,13 2.2,-2 1.4,-4.6 2.1,-6.5 0.2,0.3 0.4,0.6 0.6,0.8 1,2.7 0.6,5.5 0.7,8.2 0,2.2 -1.4,4.2 -3.8,4.4 -2.4,0.2 -2.8,-1.8 -2.9,-3.7 l -0.4,0 -0.1,-0.4 c -2,-8.1 -3.1,-16.4 -6.5,-24.1 -0.5,-0.8 -0.5,-1.9 1,-2.1 z" /><path
       style="fill:#131926"
       inkscape:connector-curvature="0"
       id="path29"
       d="m 259.5947,451.30417 c 1.1,-3.1 2.4,-6.1 3.3,-9.3 2.4,-8.4 8,-14.2 15,-19 0.8,2.1 -1,3.5 -1.4,5.3 -6,4 -8.3,10.3 -10.6,16.7 -1.6,2.6 -3.4,5 -6.3,6.3 z" /><path
       style="fill:#cf6d22"
       inkscape:connector-curvature="0"
       id="path31"
       d="m 265.8947,445.00417 c 0.3,-7.6 2.1,-14.3 10.6,-16.7 -2.7,6.1 -5.5,12.1 -10.6,16.7 z" /><path
       style="fill:#e8ede7"
       inkscape:connector-curvature="0"
       id="path33"
       d="m 180.5947,437.40417 c -0.4,2.3 2.5,3.4 1.9,5.8 -2,0.4 -2.5,-1.3 -3.3,-2.5 -4.9,-7 -8.5,-14.6 -9.5,-23.2 0,-0.6 0.4,-0.9 1,-0.8 3.4,2.1 2.7,6.2 4.4,9.2 1,3.8 3.6,6.8 4.9,10.4 0.1,0.3 0.4,0.7 0.6,1.1 z" /><path
       style="fill:#0f1923"
       inkscape:connector-curvature="0"
       id="path35"
       d="m 189.5947,365.20417 c -5.3,8.8 -8.5,19 -17.8,24.9 0,-1.6 1,-2.8 1.8,-4.1 3.3,-4.5 6.2,-9.3 8.9,-14.1 2.2,-2.4 4.2,-5 7.1,-6.7 z" /><path
       style="fill:#1d332d"
       inkscape:connector-curvature="0"
       id="path37"
       d="m 272.4947,404.40417 c 1.2,0.7 0.9,3.2 2.9,2.8 1.6,-0.4 2.1,-2 2.6,-3.4 1,-2.7 0.4,-5.5 0.5,-8.3 1.7,4 1.9,8.2 1.3,12.4 -1.6,1.5 -1.5,5.8 -4.8,4.1 -2.6,-1.2 -4.8,-4 -2.5,-7.6 z" /><path
       style="fill:#457d1b"
       inkscape:connector-curvature="0"
       id="path39"
       d="m 182.4947,371.90417 c -0.8,6.1 -4.1,10.6 -8.9,14.1 1.3,-5.7 4.5,-10.3 8.9,-14.1 z" /><path
       style="fill:#232e38"
       inkscape:connector-curvature="0"
       id="path41"
       d="m 219.0947,353.10417 c -2.1,1.3 -4.1,2.6 -6.2,3.9 -2,1.1 -3.6,2.7 -5.3,4.1 -1.1,0.9 -2.1,2 -3.8,1.2 -1.2,-3.6 2.8,-3.5 3.8,-5.5 0,-0.2 0.1,-0.4 0.1,-0.6 3.5,-1.8 7.3,-2.9 11.4,-3.1 z" /><path
       style="fill:#559cb3"
       inkscape:connector-curvature="0"
       id="path43"
       d="m 169.3947,413.20417 c -1,-2 -0.8,-3.9 0.2,-5.9 1.7,-2.8 2.9,-2.3 4,0.4 -0.2,2.4 1.3,4.9 -0.6,7.1 -2.2,1.4 -2.2,-1.6 -3.6,-1.6 z" /><path
       style="fill:#46222a"
       inkscape:connector-curvature="0"
       id="path45"
       d="m 172.6947,407.70417 c -0.7,-3.1 -2,-1.5 -3.2,-0.4 -1.6,-1 -0.4,-2.2 -0.2,-3.4 0.8,-1 1.2,-2.7 2.7,-2.5 1.2,0.2 1.5,1.6 1.7,2.7 0.3,1.3 0.5,2.6 0.7,3.8 -0.3,0.3 -0.6,0.5 -1,0.5 -0.3,0 -0.6,-0.3 -0.7,-0.7 z" /><path
       style="fill:#355769"
       inkscape:connector-curvature="0"
       id="path47"
       d="m 237.5947,456.90417 c 0.2,1 0.4,2 0.6,3 -2.8,0.5 -3.8,5.5 -7.8,3.3 2.4,-2 4.8,-4.2 7.2,-6.3 z" /><path
       style="fill:#0f1729"
       inkscape:connector-curvature="0"
       id="path49"
       d="m 169.3947,413.20417 c 2.5,-1.7 1.8,0.9 2.3,1.8 0.5,0.7 0.5,1.3 0.2,2.1 -0.4,0.3 -0.9,0.4 -1.3,0.2 -0.3,0 -0.6,0.1 -0.9,0.3 -0.2,-1.5 -0.2,-3 -0.3,-4.4 z" /><path
       style="fill:#457f1b"
       inkscape:connector-curvature="0"
       id="path51"
       d="m 252.5947,427.00417 c -6,-0.5 -11.4,1.3 -16.9,3.4 -13.7,5.2 -27.2,5.9 -39.9,-3.2 -3.5,-2.5 -6,-5.7 -7.7,-9.6 -3,-6.7 0,-11.8 7.2,-11.3 14.9,0.9 30,-0.5 44.6,3.1 5.4,1.4 10.6,-0.4 15.8,-0.4 -2.6,2.1 -5.9,2.1 -8.9,2.2 -10,0.2 -20.1,0.2 -30.1,0.3 -5.7,-0.3 -11.4,0.2 -17,0.6 -4.8,2.8 -5.2,3.6 -2.1,8 4.7,6.5 11.2,9.9 19.3,10 7.9,0.3 15.4,-1.6 22.9,-3.4 4.1,-1 8.6,-2.6 12.8,0.3 z" /><path
       style="fill:#203826"
       inkscape:connector-curvature="0"
       id="path53"
       d="m 266.5947,377.80417 c 1.6,7.1 4.5,13.8 5.1,21 0.2,1.7 0.2,3.5 0.4,5.2 -1.5,0 -1.3,-1.2 -1.5,-2.1 -1.9,-9.8 -4.8,-19.3 -9.8,-28 3.2,-0.6 3.8,2.7 5.8,3.9 z" /><path
       style="fill:#0f1b23"
       inkscape:connector-curvature="0"
       id="path55"
       d="m 216.7947,430.20417 c -7.6,1.9 -20.4,-5.7 -22,-13.1 -0.7,-3.2 1,-4.6 3.8,-5.2 1,-0.3 2.1,-0.7 2,1 -4.5,2.4 -4.9,3.7 -1.8,7.5 4.7,5.6 10.9,8.5 18,9.8 z" /><path
       style="fill:#2e4636"
       inkscape:connector-curvature="0"
       id="path57"
       d="m 200.5947,412.90417 c -0.7,-0.3 -1.3,-0.7 -2,-1 6,-1.5 12,-1.1 18,-0.3 -5.3,0.4 -10.7,0.8 -16,1.3 z" /><path
       style="fill:#c12d17"
       inkscape:connector-curvature="0"
       id="path59"
       d="m 191.5947,377.40417 c -0.4,8.6 1.5,10.1 9.4,7.2 6,-2.2 12,-3.9 18.2,-5.2 13.9,-2.9 29.8,3.9 35.9,15.1 3.7,6.8 1.1,11.3 -6.8,11.6 -12.9,0.5 -25.6,-1 -38.3,-2.4 -7.7,-0.8 -15.3,-1.1 -22.8,0.4 2.8,-2.2 6,-3.1 9.5,-3.1 8.6,1 17.1,0.2 25.7,0.5 2.4,0.1 4.7,-0.3 5.9,0 -7.6,0 -16.3,0 -25.1,0 -1.6,0 -3.3,0.5 -4.8,-0.6 2.4,-1 4.9,-0.6 7.4,-0.6 12,-0.2 23.9,0.6 35.8,-1.1 5.1,-0.7 6.1,-2.9 2.9,-6.9 -8,-10.2 -19.2,-10.1 -30.5,-8.6 -4.9,0.7 -9.6,2.5 -14.5,3.4 -7.6,1.3 -10.4,-2.1 -7.9,-9.7 z" /><path
       style="fill:#edc9c4"
       inkscape:connector-curvature="0"
       id="path61"
       d="m 220.4947,390.10417 c 5.1,-0.4 9,0.7 13,0 1.2,-0.2 2.6,0.2 2.6,1.6 0.1,1.7 -1.6,1.5 -2.6,1.5 -5.2,0.2 -10.4,0.3 -15.6,0.4 -1.2,0 -1.9,-0.7 -2,-1.8 -0.1,-1.3 0.7,-1.7 1.9,-1.6 1.2,0 2.5,-0.1 2.7,-0.1 z" /><path
       style="fill:#bf2917"
       inkscape:connector-curvature="0"
       id="path63"
       d="m 207.4947,356.80417 c -0.7,2.5 -3.5,3.2 -4.6,5.3 0,1.5 -0.8,2.3 -2.3,2.3 -4,3.7 -6.1,8.7 -9.2,13 2.2,-9.2 7.4,-16.3 16.1,-20.6 z" /><path
       style="fill:#361f25"
       inkscape:connector-curvature="0"
       id="path65"
       d="m 173.2947,408.10417 c 0.4,0 0.8,0 1.2,0 1,5.8 2.1,11.6 3.1,17.4 0.6,1.4 0.7,2.9 0.2,4.4 -2.7,0.4 -2.5,-2.1 -3.1,-3.5 -2.5,-5.9 -2,-12.1 -1.4,-18.3 z" /><path
       style="fill:#bc1702"
       inkscape:connector-curvature="0"
       id="path67"
       d="m 198.3947,400.90417 c 10.9,0 21.9,0 32.8,0 -11.5,0.5 -23.1,2.3 -34.6,0.2 0.6,-0.1 1.2,-0.1 1.8,-0.2 z" /><path
       style="fill:#9d2e28"
       inkscape:connector-curvature="0"
       id="path69"
       d="m 177.5947,430.60417 c 0,-1.7 0,-3.4 0,-5.1 1,2.7 2.1,5.4 3.1,8.1 0,1.3 -0.1,2.5 -0.1,3.8 -0.2,-0.1 -0.4,-0.2 -0.5,-0.3 -1.2,-2 -3.1,-3.8 -2.5,-6.5 z" /><path
       style="fill:#57aac3"
       inkscape:connector-curvature="0"
       id="path71"
       d="m 200.6947,364.50417 c 0.8,-0.8 1.5,-1.6 2.3,-2.3 3.9,-0.6 5.9,-4.7 9.9,-5.2 -3.2,3.8 -7.3,6.8 -9.4,11.5 -0.5,1.2 -1.4,2.4 -0.3,3.7 1.1,1.2 2.4,0.6 3.7,0.2 8.1,-2.7 14.8,-7.3 20.6,-13.5 1.9,-2 3.7,-4.4 7.1,-3.9 -8.1,10.4 -17.5,19.3 -29.8,24.7 -3.1,1.4 -6.8,4.4 -9.5,1.7 -2.8,-2.8 0.4,-6.4 1.6,-9.5 1,-2.7 3.4,-4.5 3.8,-7.4 z" /><path
       style="fill:#10202b"
       inkscape:connector-curvature="0"
       id="path73"
       d="m 235.0947,441.80417 c 0.7,-0.4 1.4,-0.9 2.1,-1.2 6.4,-2.7 8,-1.5 7.3,5.3 -0.9,0.2 -1.4,0 -1,-1 -0.1,-5.8 -3.9,-2.8 -6.5,-2.8 -0.8,0.4 -1.4,0.3 -1.9,-0.3 z" /><path
       style="fill:#436775"
       inkscape:connector-curvature="0"
       id="path75"
       d="m 243.4947,444.90417 c 0.3,0.3 0.7,0.7 1,1 -1.2,4.4 -3.2,8.3 -7,11 2,-3.9 4,-8 6,-12 z" /><path
       style="fill:#1d2c3b"
       inkscape:connector-curvature="0"
       id="path77"
       d="m 235.0947,441.80417 c 0.6,0.1 1.2,0.2 1.8,0.3 -4.1,2.5 -8.2,5 -12.3,7.4 2.1,-4.4 6.6,-5.7 10.5,-7.7 z" /><path
       style="fill:#4890a8"
       inkscape:connector-curvature="0"
       id="path79"
       d="m 177.5947,430.60417 c 0.8,2.2 1.6,4.3 2.5,6.5 -3.5,-2.5 -4.3,-6.6 -6.2,-10.1 -0.1,-3.5 -2.1,-6.5 -2.4,-10 0.1,-0.7 0.1,-1.3 0.2,-2 1.8,-2.2 0.5,-4.9 1,-7.3 0.2,0.2 0.4,0.3 0.6,0.4 0,7.8 1,15.4 4.3,22.5 z" /><path
       style="fill:#3f606a"
       inkscape:connector-curvature="0"
       id="path81"
       d="m 171.4947,417.00417 c 1.4,3.2 3,6.3 2.4,10 -1.1,-3.2 -2.3,-6.5 -3.4,-9.7 0.4,-0.2 0.7,-0.3 1,-0.3 z" /></g></svg>