<?xml version="1.0" encoding="utf-8"?>
<!-- Generator: Adobe Illustrator 16.0.0, SVG Export Plug-In . SVG Version: 6.00 Build 0)  -->
<!DOCTYPE svg PUBLIC "-//W3C//DTD SVG 1.1//EN" "http://www.w3.org/Graphics/SVG/1.1/DTD/svg11.dtd">
<svg version="1.1" id="Layer_1" xmlns="http://www.w3.org/2000/svg" xmlns:xlink="http://www.w3.org/1999/xlink" x="0px" y="0px"
	 width="500px" height="500px" viewBox="0 0 500 500" enable-background="new 0 0 500 500" xml:space="preserve">
<path fill-rule="evenodd" clip-rule="evenodd" fill="#FEFEFE" d="M493.098,306.256c1.197-5.339,2.727-10.624,3.542-16.019
	c12.527-82.888-9.946-155.713-67.915-215.481C380.99,25.542,321.745,0.359,251.693,0.004
	C197.781-0.271,148.26,12.982,105.544,44.352C35.422,95.85-1.603,165.204,0.053,254.216c1.6,86.028,38.223,152.521,107.251,202.011
	c48.266,34.605,102.922,46.74,161.59,43.176C373.688,492.904,470.411,414.502,493.098,306.256z"/>
<path fill-rule="evenodd" clip-rule="evenodd" fill="#F1E0D8" d="M268.894,499.402c-58.668,3.564-113.324-8.57-161.59-43.176
	C38.276,406.736,1.653,340.244,0.053,254.216C-1.603,165.204,35.422,95.85,105.544,44.352
	c42.716-31.37,92.237-44.622,146.149-44.347c70.052,0.355,129.297,25.537,177.031,74.751
	c57.969,59.768,80.442,132.593,67.915,215.481c-0.815,5.395-2.345,10.68-3.546,16.015c-7.326-7.825-14.454-15.842-22.002-23.445
	c-65.275-65.759-130.624-131.446-195.949-197.152c-8.898-0.971-17.798-1.943-26.696-2.914c-8.255,1.097-16.51,2.195-25.279,3.362
	c2.176,7.314,7.502,15.574,5.257,19.453c-7.217,12.477,1.147,22.056,2.905,32.802c-3.214,2.556-6.431,5.103-9.648,7.649
	c-7.038,3.521-14.075,7.045-21.113,10.567c0.013,1.263,0.026,2.526,0.039,3.793c7.042,14.603,14.083,29.208,21.121,43.813
	c2.023,4.439,4.046,8.882,6.069,13.325c-6.649,4.304-13.38,8.501-19.771,13.164c-0.428,0.312,1.694,4.125,2.63,6.306
	c5.99,2.706,11.983,5.408,17.974,8.11c-1.191,20.57-2.379,41.138-3.569,61.708c-4.729,9.758-9.462,19.519-14.192,29.28
	c-2.165,5.929-4.331,11.854-6.493,17.782c-4.89,5.875-9.774,11.747-14.66,17.622c-0.836,2.05-1.668,4.099-2.504,6.145
	c-0.026,7.864-0.057,15.729-0.086,23.594c1.138,5.782,2.274,11.568,3.412,17.351C216.656,445.514,242.775,472.459,268.894,499.402z"
	/>
<path fill-rule="evenodd" clip-rule="evenodd" fill="#F1E0D8" d="M268.894,499.402c-26.118-26.943-52.237-53.889-78.356-80.836
	c35.599-0.139,71.196-0.146,106.787-0.57c5.052-0.06,10.076-2.142,15.11-3.289c0.03-4.479,0.061-8.955,0.087-13.435
	c-0.561-9.035-1.124-18.074-1.688-27.112c-4.839-5.763-9.675-11.525-14.514-17.288c-0.007-1.008-0.266-1.949-0.772-2.821
	c-2.235-6.031-4.472-12.06-6.707-18.087c-0.766-0.965-1.532-1.927-2.302-2.888c-3.894-7.825-7.79-15.653-11.688-23.479
	c0.169-1.051-0.014-2.036-0.544-2.958c-1.897-20.862-3.801-41.724-5.701-62.586c0.149-1.751,0.295-3.501,0.44-5.255
	c7.971-1.366,15.943-2.735,27.963-4.801c-11.018-7.324-17.89-11.893-24.762-16.462c2.133-4.513,4.262-9.029,6.391-13.545
	c6.594-15.726,13.188-31.452,19.777-47.185c-7.469-3.776-14.941-7.549-22.414-11.32c-2.417-2.875-4.835-5.749-7.253-8.624
	c2.129-17.069,4.262-34.138,6.395-51.207c65.325,65.707,130.674,131.394,195.949,197.152c7.548,7.604,14.676,15.62,22.002,23.445
	C470.411,414.502,373.688,492.904,268.894,499.402z"/>
<path fill-rule="evenodd" clip-rule="evenodd" fill="#BB7E29" d="M298.415,156.812c-6.59,15.726-13.184,31.452-19.773,47.182
	c-10.129-0.093-20.259-0.186-30.391-0.282c0.508-43.89,0.508-43.89-42.563-43.508c-1.695,0.013-3.387,0.106-5.082,0.162
	c-0.013-1.267-0.026-2.53-0.039-3.793c15.963-0.026,31.923-0.053,47.883-0.08C265.106,156.6,281.759,156.706,298.415,156.812z"/>
<path fill-rule="evenodd" clip-rule="evenodd" fill="#B97D28" d="M310.833,374.163c0.564,9.035,1.128,18.074,1.688,27.112
	c-21.436,0.195-42.871,0.395-64.308,0.59l0.226-1.276c0-7.092,0-14.184,0-22.967c-22.065,0-41.647,0-61.229,0
	c0.836-2.046,1.668-4.095,2.511-6.151c19.549,0.905,39.094,1.814,58.636,2.726C269.183,374.187,290.008,374.174,310.833,374.163z"/>
<path fill-rule="evenodd" clip-rule="evenodd" fill="#D7912F" d="M200.606,160.366c1.695-0.056,3.387-0.149,5.082-0.162
	c43.07-0.382,43.07-0.382,42.563,43.508c-8.839,0.156-17.682,0.312-26.523,0.468C214.689,189.574,207.648,174.969,200.606,160.366z"
	/>
<path fill-rule="evenodd" clip-rule="evenodd" fill="#D58F2E" d="M187.211,377.622c19.581,0,39.163,0,61.229,0
	c0,8.783,0,15.875,0.004,22.967c-20.44,0.209-40.878,0.418-61.318,0.627C187.154,393.352,187.185,385.486,187.211,377.622z"/>
<path fill-rule="evenodd" clip-rule="evenodd" fill="#D9922F" d="M225.061,306.793c1.19-20.57,2.378-41.138,3.565-61.708
	c6.567-0.017,13.134-0.03,19.704-0.043c0.007,20.365,0.011,40.73,0.017,61.098C240.586,306.354,232.821,306.574,225.061,306.793z"/>
<path fill-rule="evenodd" clip-rule="evenodd" fill="#231F22" d="M275.143,85.654c-2.133,17.069-4.266,34.138-6.395,51.204
	c-0.905-0.057-1.814-0.066-2.724-0.037c-14.812,1.82-19.415-4.983-17.92-19.211c1.211-11.505,0.306-23.236,0.342-34.871
	C257.345,83.711,266.244,84.683,275.143,85.654z"/>
<path fill-rule="evenodd" clip-rule="evenodd" fill="#35363B" d="M187.125,401.216c20.44-0.209,40.878-0.418,61.318-0.627
	c-0.004,0-0.229,1.276-0.229,1.276c-0.749,8.787,1.983,13.485,12.113,13.094c17.35-0.67,34.738-0.229,52.107-0.252
	c-5.034,1.147-10.059,3.229-15.11,3.289c-35.591,0.425-71.188,0.432-106.787,0.57C189.399,412.784,188.263,406.998,187.125,401.216z
	"/>
<path fill-rule="evenodd" clip-rule="evenodd" fill="#34343A" d="M248.446,82.74c-0.036,11.635,0.869,23.365-0.342,34.871
	c-1.495,14.228,3.108,21.031,17.92,19.208c-11.568,0.511-23.13,1.021-34.695,1.529c-1.758-10.736-10.122-20.315-2.905-32.792
	c2.245-3.879-3.081-12.139-5.257-19.453C231.937,84.935,240.191,83.837,248.446,82.74z"/>
<path fill-rule="evenodd" clip-rule="evenodd" fill="#363539" d="M248.357,374.196c-19.542-0.911-39.087-1.82-58.636-2.726
	c4.879-5.868,9.764-11.74,14.653-17.615c14.643-0.09,29.286-0.18,43.929-0.27c15.748,0.156,31.495,0.309,47.246,0.465
	c0.504,0.872,0.763,1.813,0.77,2.821c-15.445,0-30.892,0-47.144,0C248.824,364.329,248.589,369.263,248.357,374.196z"/>
<path fill-rule="evenodd" clip-rule="evenodd" fill="#34353A" d="M225.061,306.793c7.761-0.219,15.525-0.438,23.286-0.653
	c8.653,0.165,17.307,0.331,25.96,0.497c0.53,0.925,0.713,1.91,0.544,2.964c-3.354-0.022-6.706-0.05-10.06-0.063
	c-8.354-0.033-16.785-1.758-16.759,11.863c0.026,13.465,8.248,12.079,16.716,11.96c7.264-0.104,14.527-0.192,21.79-0.285
	c0.77,0.961,1.536,1.923,2.302,2.891c-13.538,0.325-27.073,0.644-40.612,0.962c-12.454-0.285-24.904-0.57-37.359-0.855
	C215.599,326.312,220.331,316.551,225.061,306.793z"/>
<path fill-rule="evenodd" clip-rule="evenodd" fill="#D9912E" d="M210.868,336.073c12.455,0.285,24.905,0.57,37.359,0.855
	c0.026,5.55,0.053,11.104,0.076,16.657c-14.643,0.09-29.286,0.18-43.929,0.27C206.537,347.927,208.703,342.002,210.868,336.073z"/>
<path fill-rule="evenodd" clip-rule="evenodd" fill="#322A24" d="M221.728,204.18c8.842-0.156,17.685-0.312,26.523-0.468
	c10.132,0.096,20.262,0.189,30.391,0.282c-2.133,4.513-4.262,9.029-6.395,13.544c-7.996,0.312-15.996,0.624-23.993,0.932
	c-6.819-0.321-13.638-0.643-20.457-0.965C225.773,213.062,223.751,208.619,221.728,204.18z"/>
<path fill-rule="evenodd" clip-rule="evenodd" fill="#CC8D33" d="M227.797,217.505c6.819,0.322,13.638,0.644,20.457,0.965
	c0.023,5.514,0.043,11.028,0.066,16.542c-12.554,0.657-25.107,1.31-37.664,1.963c-0.936-2.182-3.058-5.995-2.63-6.306
	C214.417,226.006,221.147,221.809,227.797,217.505z"/>
<path fill-rule="evenodd" clip-rule="evenodd" fill="#36363C" d="M210.656,236.975c12.557-0.653,25.11-1.306,37.664-1.963
	c6.909,1.263,13.817,2.526,20.726,3.787c-0.146,1.754-0.291,3.504-0.44,5.262c-6.76,0.332-13.519,0.657-20.275,0.981
	c-6.57,0.013-13.137,0.027-19.704,0.043C222.64,242.383,216.646,239.68,210.656,236.975z"/>
<path fill-rule="evenodd" clip-rule="evenodd" fill="#353438" d="M248.45,156.494c-15.96,0.026-31.92,0.053-47.883,0.08
	c7.038-3.521,14.075-7.046,21.107-10.567c8.908,0.325,17.826,0.65,26.745,0.971C248.43,150.151,248.439,153.32,248.45,156.494z"/>
<path fill-rule="evenodd" clip-rule="evenodd" fill="#C18734" d="M248.42,146.978c-8.919-0.321-17.837-0.646-26.745-0.971
	c3.224-2.546,6.44-5.093,9.654-7.649c11.565-0.517,23.127-1.028,34.695-1.539c0.909-0.026,1.818-0.017,2.724,0.04
	c2.418,2.878,4.836,5.752,7.253,8.627C266.808,145.983,257.614,146.48,248.42,146.978z"/>
<path fill-rule="evenodd" clip-rule="evenodd" fill="#BA7E2A" d="M248.33,245.042c6.757-0.325,13.516-0.65,20.275-0.981
	c1.9,20.856,3.804,41.717,5.701,62.58c-8.653-0.169-17.307-0.335-25.96-0.5C248.341,285.771,248.337,265.406,248.33,245.042z"/>
<path fill-rule="evenodd" clip-rule="evenodd" fill="#221F22" d="M248.357,374.196c0.231-4.934,0.467-9.867,0.818-17.324
	c16.252,0,31.698,0,47.144,0c4.839,5.763,9.675,11.525,14.514,17.288C290.008,374.174,269.183,374.187,248.357,374.196z"/>
<path fill-rule="evenodd" clip-rule="evenodd" fill="#221F24" d="M312.435,414.707c-17.369,0.023-34.758-0.418-52.107,0.252
	c-10.13,0.392-12.862-4.307-12.113-13.094c21.437-0.195,42.872-0.395,64.308-0.59C312.495,405.752,312.465,410.228,312.435,414.707z
	"/>
<path fill-rule="evenodd" clip-rule="evenodd" fill="#A7722A" d="M248.304,353.586c-0.023-5.553-0.05-11.107-0.076-16.657
	c13.539-0.318,27.074-0.637,40.612-0.962c2.235,6.024,4.472,12.053,6.707,18.084C279.799,353.895,264.052,353.742,248.304,353.586z"
	/>
<path fill-rule="evenodd" clip-rule="evenodd" fill="#272123" d="M286.538,333.076c-7.263,0.093-14.526,0.182-21.79,0.285
	c-8.468,0.119-16.689,1.505-16.716-11.96c-0.026-13.621,8.404-11.896,16.759-11.863c3.354,0.013,6.706,0.04,10.06,0.063
	C278.748,317.423,282.645,325.251,286.538,333.076z"/>
<path fill-rule="evenodd" clip-rule="evenodd" fill="#B77D2C" d="M269.046,238.798c-6.908-1.26-13.816-2.523-20.726-3.787
	c-0.023-5.514-0.043-11.028-0.066-16.542c7.997-0.308,15.997-0.62,23.993-0.932c6.872,4.566,13.744,9.135,24.762,16.459
	C284.989,236.063,277.017,237.432,269.046,238.798z"/>
<path fill-rule="evenodd" clip-rule="evenodd" fill="#1F1C22" d="M248.42,146.978c9.194-0.497,18.388-0.995,27.581-1.492
	c7.473,3.771,14.945,7.543,22.414,11.32c-16.656-0.099-33.309-0.206-49.965-0.312C248.439,153.32,248.43,150.151,248.42,146.978z"/>
</svg>
