<?xml version="1.0" encoding="UTF-8" standalone="no"?>
<!-- Generator: Adobe Illustrator 18.0.0, SVG Export Plug-In . SVG Version: 6.00 Build 0)  -->

<svg
   xmlns:dc="http://purl.org/dc/elements/1.1/"
   xmlns:cc="http://creativecommons.org/ns#"
   xmlns:rdf="http://www.w3.org/1999/02/22-rdf-syntax-ns#"
   xmlns:svg="http://www.w3.org/2000/svg"
   xmlns="http://www.w3.org/2000/svg"
   xmlns:xlink="http://www.w3.org/1999/xlink"
   xmlns:sodipodi="http://sodipodi.sourceforge.net/DTD/sodipodi-0.dtd"
   xmlns:inkscape="http://www.inkscape.org/namespaces/inkscape"
   version="1.1"
   id="Layer_1"
   x="0px"
   y="0px"
   viewBox="0 0 121 39"
   enable-background="new 0 0 612 792"
   xml:space="preserve"
   inkscape:version="0.91 r"
   sodipodi:docname="loginButton.svg"
   width="121"
   height="39"><metadata
     id="metadata39"><rdf:RDF><cc:Work
         rdf:about=""><dc:format>image/svg+xml</dc:format><dc:type
           rdf:resource="http://purl.org/dc/dcmitype/StillImage" /><dc:title></dc:title></cc:Work></rdf:RDF></metadata><defs
     id="defs37" /><sodipodi:namedview
     pagecolor="#ffffff"
     bordercolor="#666666"
     borderopacity="1"
     objecttolerance="10"
     gridtolerance="10"
     guidetolerance="10"
     inkscape:pageopacity="0"
     inkscape:pageshadow="2"
     inkscape:window-width="1313"
     inkscape:window-height="744"
     id="namedview35"
     showgrid="false"
     fit-margin-top="0"
     fit-margin-left="0"
     fit-margin-right="0"
     fit-margin-bottom="0"
     inkscape:zoom="1.6856283"
     inkscape:cx="211.45544"
     inkscape:cy="5.6646235"
     inkscape:window-x="53"
     inkscape:window-y="24"
     inkscape:window-maximized="1"
     inkscape:current-layer="Layer_1" /><image
     sodipodi:absref="/media/Files/code/dvm/bosm2016/img/New folder/Anup/10-flat-buttons-free-psd.jpg"
     xlink:href="New folder/Anup/10-flat-buttons-free-psd.jpg"
     y="35.899994"
     x="-42.050003"
     style="display:none;overflow:visible"
     id="image3"
     height="300"
     width="500"
     overflow="visible"
     display="none" /><rect
     x="26.084339"
     y="0.14237055"
     width="95.77227"
     height="38.9562"
     id="rect5"
     style="fill:#fff" /><rect
     x="-0.59325445"
     y="0.19168505"
     width="28.600752"
     height="38.9562"
     id="rect7"
     style="fill:#eee" /><circle
     cx="27.810253"
     cy="19.817715"
     id="circle9"
     style="fill:#ffffff"
     r="11.982729" /><g
     transform="matrix(0.49311643,0,0,0.49311643,-90.981492,-622.84228)"
     id="g11"><g
       id="g13"><path
         d="m 241.2,1285.9 c -1.3,0 -2.3,1 -2.3,2.3 l -2.2,0 c -0.6,0 -1.2,0.5 -1.2,1.1 l -5.2,0 c -1,0 -1.7,0.8 -1.7,1.8 l 0,27.4 c 0,1 0.8,1.8 1.7,1.8 l 21.8,0 c 1,0 1.7,-0.8 1.7,-1.8 l 0,-15.2 c 0,0 0,0 0,0 l 5,-5 c 0,0 0,0 0,0 l 0,0 1.2,-1.2 c 0.9,-0.9 0.9,-2.4 0,-3.2 l -0.8,-0.8 c -0.4,-0.4 -1,-0.7 -1.6,-0.7 -0.6,0 -1.2,0.2 -1.6,0.7 l -1.2,1.2 c 0,0 0,0 0,0 0,0 0,0 0,0 l -0.9,0.9 0,-4.1 c 0,-1 -0.8,-1.8 -1.7,-1.8 l -5.2,0 c 0,-0.6 -0.6,-1.1 -1.2,-1.1 l -2.2,0 c -0.1,-1.2 -1.1,-2.3 -2.4,-2.3 z m 0,1.2 c 0.6,0 1.1,0.5 1.1,1.1 0,0.1 0,0.3 -0.1,0.4 -0.1,0.3 0,0.6 0.3,0.7 0.1,0 0.1,0 0.2,0 l 2.9,0 c 0.1,0 0.1,0 0.1,0.1 l 0,0.4 c 0,0.1 0,0.1 0,0.2 l 0,2.7 c 0,0.1 0,0.1 -0.1,0.1 l -9,0 c -0.1,0 -0.1,0 -0.1,-0.1 l 0,-2.7 c 0,-0.1 0,-0.1 0,-0.2 l 0,-0.4 c 0,-0.1 0,-0.1 0.1,-0.1 l 2.9,0 c 0.3,0 0.6,-0.3 0.6,-0.6 0,-0.1 0,-0.1 0,-0.2 0,-0.1 -0.1,-0.3 -0.1,-0.4 0.1,-0.5 0.6,-1 1.2,-1 z m -10.9,3.4 5.2,0 0,1.1 -2.7,0 c -1,0 -1.9,0.8 -1.9,1.9 l 0,8.7 0,4.9 0,5.1 1.1,0 0,-5.1 0,-4.9 0,-8.7 c 0,-0.4 0.3,-0.7 0.7,-0.7 l 2.7,0 c 0,0.6 0.6,1.1 1.2,1.1 l 9,0 c 0.6,0 1.2,-0.5 1.2,-1.1 l 2.7,0 c 0.4,0 0.7,0.3 0.7,0.7 l 0,5.1 -1.1,1.1 0,0 -9.3,0 0,1.1 8.1,0 -1.1,1.1 -13.9,0 0,1.1 12.7,0 -1.1,1.1 -11.6,0 0,1.1 10.4,0 -1,1 c 0,0 0,0 0,0 0,0 0,0 0,0 0,0 0,0 0,0 0,0 0,0 0,0 0,0 0,0 0,0 0,0 0,0 0,0 0,0 0,0 0,0 0,0 0,0 0,0 l -9.3,0 0,1.1 8.9,0 -0.4,1.1 -8.5,0 0,1.1 8.2,0 -0.5,1.5 c -0.1,0.3 0.1,0.6 0.4,0.7 0.1,0 0.2,0 0.4,0 l 4.9,-1.6 c 0,0 0,0 0,0 0,0 0,0 0,0 0,0 0,0 0,0 0,0 0,0 0,0 0,0 0.1,0 0.1,-0.1 0,0 0,0 0,0 0,0 0,0 0,0 0,0 0,0 0,0 0,0 0,0 0,0 l 3.7,-3.7 0,5.3 -1.7,0 c -0.8,0 -1.3,0.5 -1.5,0.9 -0.2,0.4 -0.2,0.8 -0.2,0.8 l 0,2 -14.2,0 c -0.4,0 -0.7,-0.3 -0.7,-0.7 l 0,-1.6 -1.1,0 0,1.6 c 0,1 0.9,1.9 1.9,1.9 l 14.5,0 c 0.2,0 0.3,-0.1 0.4,-0.2 l 2.7,-2.7 1,-1 c 0.1,-0.1 0.2,-0.2 0.2,-0.4 0,0 0,0 0,0 0,0 0,0 0,0 0,0 0,0 0,0 l 0,-7 1.1,-1.1 0,14.1 c 0,0.4 -0.3,0.6 -0.6,0.6 l -21.8,0 c -0.3,0 -0.6,-0.3 -0.6,-0.6 l 0,-27.4 c 0.1,0 0.4,-0.3 0.7,-0.3 z m 16.7,0 5.2,0 c 0.3,0 0.6,0.3 0.6,0.6 l 0,5.2 -1.1,1.1 0,-4 c 0,-1 -0.9,-1.9 -1.9,-1.9 l -2.8,0 0,-1 z m 10.6,3 c 0.3,0 0.6,0.1 0.8,0.3 l 0.8,0.8 c 0.5,0.5 0.5,1.2 0,1.6 l -0.8,0.8 -2.4,-2.4 0.8,-0.8 c 0.2,-0.2 0.5,-0.3 0.8,-0.3 z m -23.8,1.6 c -0.3,0 -0.6,0.3 -0.6,0.6 l 0,4.6 c 0,0.3 0.3,0.6 0.6,0.6 l 4.6,0 c 0.3,0 0.6,-0.3 0.6,-0.6 l 0,-4.6 c 0,-0.3 -0.3,-0.6 -0.6,-0.6 l -4.6,0 z m 6.3,0 0,1.1 9.3,0 0,-1.1 -9.3,0 z m 15.1,0.4 0,0 0.8,0.8 0,0 -11.4,11.4 -0.8,-0.8 11.4,-11.4 z m -20.9,0.8 3.4,0 0,3.4 -3.4,0 0,-3.4 z m 22.5,0.8 0.8,0.8 -11.4,11.4 -0.8,-0.8 11.4,-11.4 z m -16.7,0.3 0,1.1 9.3,0 0,-1.1 -9.3,0 z m 3.2,10.5 1.9,1.9 -2.9,1 1,-2.9 z m -10.1,3.3 0,1.1 5.7,0 0,-1.1 -5.7,0 z m 15.5,2 0.9,0 -0.1,0.1 -1.4,1.4 0,-0.9 c 0,0 0,-0.2 0.1,-0.3 0.1,-0.1 0.1,-0.3 0.5,-0.3 z"
         id="path15"
         inkscape:connector-curvature="0"
         style="fill:#0081cc" /></g></g><g
     id="g17"
     transform="matrix(0.49311643,0,0,0.49311643,-82.981492,-119.68492)"><path
       d="m 292.7,271.5 2.8,0 0,19.2 9.2,0 0,2.3 -12,0 0,-21.5 z"
       id="path19"
       inkscape:connector-curvature="0"
       style="fill:#01a2ff" /><path
       d="m 321.3,285.2 c 0,5.7 -4,8.2 -7.7,8.2 -4.2,0 -7.4,-3.1 -7.4,-8 0,-5.2 3.4,-8.2 7.7,-8.2 4.4,0 7.4,3.3 7.4,8 z m -12.3,0.2 c 0,3.4 2,6 4.7,6 2.7,0 4.7,-2.5 4.7,-6 0,-2.6 -1.3,-6 -4.6,-6 -3.3,-0.1 -4.8,3 -4.8,6 z"
       id="path21"
       inkscape:connector-curvature="0"
       style="fill:#01a2ff" /><path
       d="m 338.2,277.6 c -0.1,1.1 -0.1,2.4 -0.1,4.3 l 0,9 c 0,3.6 -0.7,5.7 -2.2,7.1 -1.5,1.4 -3.7,1.9 -5.6,1.9 -1.9,0 -3.9,-0.4 -5.2,-1.3 l 0.7,-2.1 c 1,0.6 2.6,1.2 4.5,1.2 2.9,0 5,-1.5 5,-5.4 l 0,-1.7 -0.1,0 c -0.9,1.4 -2.5,2.6 -4.9,2.6 -3.8,0 -6.6,-3.3 -6.6,-7.6 0,-5.2 3.4,-8.2 7,-8.2 2.7,0 4.2,1.4 4.8,2.7 l 0.1,0 0.1,-2.3 2.5,0 z m -2.9,6.1 c 0,-0.5 0,-0.9 -0.2,-1.3 -0.5,-1.6 -1.9,-3 -3.9,-3 -2.7,0 -4.6,2.3 -4.6,5.9 0,3 1.5,5.6 4.6,5.6 1.7,0 3.3,-1.1 3.9,-2.9 0.2,-0.5 0.2,-1 0.2,-1.5 l 0,-2.8 z"
       id="path23"
       inkscape:connector-curvature="0"
       style="fill:#01a2ff" /><path
       d="m 345.7,273.2 c 0,1 -0.7,1.7 -1.8,1.7 -1,0 -1.7,-0.8 -1.7,-1.7 0,-1 0.7,-1.8 1.8,-1.8 1,0.1 1.7,0.8 1.7,1.8 z m -3.1,19.9 0,-15.5 2.8,0 0,15.5 -2.8,0 z"
       id="path25"
       inkscape:connector-curvature="0"
       style="fill:#01a2ff" /><path
       d="m 350.1,281.8 c 0,-1.6 0,-2.9 -0.1,-4.2 l 2.5,0 0.2,2.6 0.1,0 c 0.8,-1.5 2.6,-2.9 5.1,-2.9 2.1,0 5.5,1.3 5.5,6.6 l 0,9.2 -2.8,0 0,-8.9 c 0,-2.5 -0.9,-4.6 -3.6,-4.6 -1.9,0 -3.3,1.3 -3.8,2.9 -0.1,0.4 -0.2,0.8 -0.2,1.3 l 0,9.3 -2.8,0 0,-11.3 z"
       id="path27"
       inkscape:connector-curvature="0"
       style="fill:#01a2ff" /></g><image
     sodipodi:absref="/media/Files/code/dvm/bosm2016/img/New folder/Anup/22076858-Modern-flat-design-illustration-icons-set-of-buttons-forms-tabs-sliders-and-other-navigation-element-Stock-Vector.jpg"
     xlink:href="New folder/Anup/22076858-Modern-flat-design-illustration-icons-set-of-buttons-forms-tabs-sliders-and-other-navigation-element-Stock-Vector.jpg"
     y="-265.10001"
     x="-1640.3"
     style="display:none;overflow:visible"
     id="image29"
     height="1105"
     width="1300"
     overflow="visible"
     display="none" /><path
     display="none"
     d="m 177.2,474.49999 -192.000003,0 c -16.5,0 -30,-13.5 -30,-30 l 0,0 c 0,-16.5 13.5,-30 30,-30 l 192.000003,0 c 16.5,0 30,13.5 30,30 l 0,0 c 0,16.5 -13.5,30 -30,30 z"
     id="path31"
     inkscape:connector-curvature="0"
     style="display:none;fill:#ffedd2" /><text
     display="none"
     font-size="50"
     id="text33"
     style="font-size:50px;font-family:Lato-Bold;display:none;fill:#464f59"
     x="-12.443604"
     y="461.49408">Register</text>
</svg>
