<?xml version="1.0" encoding="UTF-8" standalone="no"?>
<!-- Generator: Adobe Illustrator 18.0.0, SVG Export Plug-In . SVG Version: 6.00 Build 0)  -->

<svg
   xmlns:dc="http://purl.org/dc/elements/1.1/"
   xmlns:cc="http://creativecommons.org/ns#"
   xmlns:rdf="http://www.w3.org/1999/02/22-rdf-syntax-ns#"
   xmlns:svg="http://www.w3.org/2000/svg"
   xmlns="http://www.w3.org/2000/svg"
   xmlns:sodipodi="http://sodipodi.sourceforge.net/DTD/sodipodi-0.dtd"
   xmlns:inkscape="http://www.inkscape.org/namespaces/inkscape"
   version="1.1"
   x="0px"
   y="0px"
   viewBox="0 0 1277.4 494"
   enable-background="new 0 0 1920 1080"
   xml:space="preserve"
   id="svg2"
   inkscape:version="0.91 r"
   sodipodi:docname="bosmLogoRightWhite4.svg"
   width="1277.4"
   height="494"><metadata
     id="metadata260"><rdf:RDF><cc:Work
         rdf:about=""><dc:format>image/svg+xml</dc:format><dc:type
           rdf:resource="http://purl.org/dc/dcmitype/StillImage" /><dc:title></dc:title></cc:Work></rdf:RDF></metadata><defs
     id="defs258" /><sodipodi:namedview
     pagecolor="#ffffff"
     bordercolor="#666666"
     borderopacity="1"
     objecttolerance="10"
     gridtolerance="10"
     guidetolerance="10"
     inkscape:pageopacity="0"
     inkscape:pageshadow="2"
     inkscape:window-width="1313"
     inkscape:window-height="744"
     id="namedview256"
     showgrid="false"
     fit-margin-top="0"
     fit-margin-left="0"
     fit-margin-right="0"
     fit-margin-bottom="0"
     inkscape:zoom="0.1609375"
     inkscape:cx="493.86214"
     inkscape:cy="228.80002"
     inkscape:window-x="53"
     inkscape:window-y="24"
     inkscape:window-maximized="1"
     inkscape:current-layer="svg2" /><g
     id="Layer_2"
     transform="translate(-357.39999,-274.80002)"><polyline
       stroke-miterlimit="10"
       points="449,462.5 458,393.5 479,364.5 511.5,381.5 527,417    536,462.5 488,483.5  "
       id="polyline5"
       style="fill:#ffffff;stroke:#ffffff;stroke-miterlimit:10" /></g><g
     id="Layer_1"
     transform="translate(-357.39999,-274.80002)"><g
       id="g8"><path
         d="m 656.5,581.8 c -1.2,6.6 -7.7,8.9 -10.9,13.7 -2.6,4.1 -5.1,8.5 -7.6,13 3.8,1.5 6.3,3 9.1,3.3 2,0.2 5.2,-0.7 5.9,-2 2.3,-4.9 6.7,-6.3 11.2,-7.1 7.6,-1.4 15.1,-2.5 21.3,4.4 3.6,3.9 8.9,3.9 13.8,3.2 1.3,-0.2 2.4,-2.2 3.2,-3.6 1.1,-2 2.1,-4.3 4.7,-3 2.9,1.3 2.1,3.8 1,6 -3.1,7.2 -10.9,10 -19.6,6.4 -3.3,-1.4 -6.1,-4.4 -9.5,-5.8 -3,-1.3 -6.4,-2 -9.8,-1.8 -4.5,0.1 -8.9,0.7 -11.5,5.8 -2.3,4.4 -9.2,5.6 -13.9,3.6 -2.3,-1 -4.7,-1.6 -8.5,-2.9 -0.2,8.6 -0.8,16.2 -0.5,23.7 0.3,7.6 1.7,15.1 2.3,22.7 0.1,1.2 -1.3,2.3 -2,3.6 -0.6,1 -1.4,2.1 -1.5,3.1 -0.3,7.8 -0.3,15.5 -1,23.3 -0.2,3.6 -1.4,7 -2.5,10.5 -2.1,5.9 -0.1,11.6 0,17.4 0,4.4 -1.5,8.6 -2.5,13 -0.1,0.6 -1.8,1.3 -2.4,1 -1.4,-0.8 -3.6,-2.1 -3.6,-3 0.1,-5.8 0.7,-11.6 1.3,-17.4 0.2,-2.2 1.3,-4.4 1.3,-6.6 -0.1,-9.4 0.1,-19 -0.8,-28.4 -0.7,-7.2 -3,-14.3 -4.6,-21.5 -0.1,-0.5 -0.8,-0.7 -2.2,-2 -1.3,7.2 -2.6,13.7 -3.5,20.2 -0.1,1.4 1.6,3.5 3,4.5 2.4,1.7 4,3.5 3.9,6.6 -0.2,3.9 -0.2,7.8 -0.1,11.7 0,3.1 -1.2,5.6 -4.4,5.6 -3.2,0 -3.5,-2.9 -3.2,-5.4 0.2,-3.7 0.6,-7.5 0.8,-11.6 -2,-0.5 -4,-0.7 -6,-1.4 -1,-0.3 -2.3,-1.4 -2.6,-2.3 -0.7,-2.4 -1.2,-5.1 -1.4,-7.6 -0.5,-4.6 0.3,-9.4 -2.9,-13.5 -0.8,-1 -1.4,-3 -0.9,-4 2.6,-6.7 1,-13.9 4.6,-20.7 1.4,-2.6 6.3,-0.2 2.9,-23.3 -4.9,9.4 -12.2,11.2 -21.4,9.5 -7.2,-1.3 -14.6,-1.6 -22,-2 -1.7,-0.1 -3.9,1.3 -5.2,2.5 -4.6,4.5 -8.9,9.5 -13.7,13.8 -1.1,1 -4.3,0.6 -6.1,-0.2 -2.6,-1.2 -5.1,-3.2 -7.5,-4.8 -1.7,-1.3 -3.9,-2.3 -5.1,-3.9 -2.3,-3.1 -4.8,-4.9 -8.9,-5.4 -1.3,-0.1 -2.4,-2.3 -3.6,-3.5 1.5,-0.9 3.2,-2.9 4.6,-2.5 3.2,0.6 6.7,1.7 9.4,3.6 4.8,3.2 9.1,7.1 14,11 4.8,-5.3 8.7,-10 13.1,-14.3 1.8,-1.7 4.8,-3 7.1,-3 8.3,0.2 16.7,0.9 25,2 8.9,1.2 9.7,0.9 14.1,-6.7 0.9,-1.6 2.9,-2.5 3.9,-3.5 -0.6,-3.2 -0.6,-7 -2,-10.1 -1.6,-3.7 -4.5,-6.9 -6.8,-10.2 -0.5,-0.7 -1.7,-1.1 -1.7,-1.7 -0.2,-7.4 -7.1,-10.5 -10.1,-16.1 -1.8,-3.4 -3.8,-6.8 -5.2,-10.7 5.9,3 10.9,6.7 14.8,11.8 1.7,2.3 3.8,4.5 6.1,6.3 3.5,2.8 7.5,4.7 10.7,7.7 2.6,2.5 4.9,2.3 8.2,0.9 -0.6,-1.2 -0.8,-2.4 -1.5,-3.1 -3.7,-3.9 -2.6,-8.2 -1,-12.4 1.1,-3.3 3.8,-4.3 7.1,-4.3 3.2,0 4.8,1.8 5.6,4.3 1.4,3.8 3.3,7.7 -0.6,11.5 -0.7,0.7 -0.3,3.9 0.3,4.4 1.8,1 3.2,4.3 6.2,2 2.6,-2.1 5.4,-4 8.2,-5.8 1.7,-1 4,-1.3 5.8,-2.4 3.7,-2.5 7.1,-5.4 10.6,-8.1 1,-0.8 2.2,-1.4 3.3,-2.1 1.1,0.5 2.4,0.8 3.7,1.3 -2.9,3.7 -5.4,6.9 -7.8,10 l 0,0 c -0.2,1.1 -1.2,2 -2,2.8 z"
         id="path10"
         inkscape:connector-curvature="0"
         style="fill:#299c4c" /><path
         d="m 654.6,588.8 c 0.8,-0.8 1.6,-1.6 2.4,-2.5 -0.8,0.8 -1.6,1.6 -2.4,2.5 z"
         id="path12"
         inkscape:connector-curvature="0"
         style="fill:#3a9652" /><path
         display="none"
         d="m 55.9,978.2 c 0,-370.1 0,-740 0,-1110.1 370.1,0 740,0 1110.1,0 0,370.1 0,740 0,1110.1 -370,0 -740,0 -1110.1,0 z M 679,547.9 l 0,0 c 2,-1.5 4.1,-2.6 5.9,-4.3 6.7,-6.1 12.7,-12.9 19.9,-18.2 4.8,-3.6 6,-8 7,-13.5 -3.1,0.8 -6.9,1.6 -7.9,3.8 -3.8,7.9 -10.2,12.1 -18.1,15 -0.6,0.2 -0.8,1.5 -1.1,2.3 -1.5,0.9 -3,1.7 -4.4,2.8 -4.7,3.6 -9.3,7.4 -14.1,10.7 -2.2,1.5 -5.3,1.8 -7.6,3.2 -3.8,2.3 -7.4,4.9 -10.9,7.6 -4,3 -5.9,-1.3 -8.3,-2.6 -1,-0.6 -1.5,-4.9 -0.5,-5.8 5.3,-5.1 2.6,-10.2 0.8,-15.3 -1.2,-3.3 -3.3,-5.8 -7.6,-5.8 -4.5,0.1 -7.9,1.4 -9.4,5.8 -2.1,5.6 -3.5,11.3 1.4,16.6 0.9,1 1.3,2.5 2,4.1 -4.3,1.8 -7.2,2.2 -10.8,-1.2 -4.3,-4 -9.7,-6.7 -14.3,-10.3 -3,-2.4 -5.9,-5.3 -8.2,-8.4 -5.2,-6.9 -12,-11.8 -19.7,-15.8 1.7,5.2 4.4,9.7 6.9,14.3 3.9,7.5 13.2,11.6 13.5,21.4 0,0.8 1.7,1.4 2.3,2.3 3.1,4.5 6.9,8.7 9.1,13.7 1.8,4.1 1.8,9.1 2.5,13.5 -1.5,1.3 -4,2.5 -5.3,4.6 -6.1,10.1 -7.1,10.4 -18.9,8.9 -11,-1.5 -22.1,-2.3 -33.2,-2.6 -3.2,-0.1 -7.1,1.7 -9.5,3.9 -6,5.6 -11.2,12 -17.5,19 -6.6,-5.3 -12.3,-10.5 -18.7,-14.7 -3.7,-2.4 -8.2,-3.9 -12.5,-4.7 -1.7,-0.3 -4,2.2 -6.1,3.5 1.6,1.6 3.1,4.5 4.8,4.6 5.3,0.5 8.7,3 11.8,7.1 1.6,2.2 4.4,3.6 6.8,5.2 3.2,2.3 6.3,4.9 10,6.4 2.4,1 6.6,1.6 8,0.2 6.4,-5.8 12.1,-12.4 18.2,-18.4 1.8,-1.7 4.7,-3.6 6.9,-3.5 9.8,0.5 19.7,0.8 29.2,2.5 12.3,2.3 21.8,-0.1 28.5,-12.7 1.7,11.6 0.8,22.3 -3.9,31 -4.8,9.1 -2.5,18.7 -6.1,27.6 -0.6,1.4 0.2,4 1.3,5.4 4.3,5.4 3.2,11.8 3.8,17.9 0.3,3.5 0.8,6.8 1.8,10.1 0.3,1.3 2.1,2.6 3.5,3.1 2.5,0.9 5.3,1.3 7.9,1.8 -0.5,5.5 -0.8,10.5 -1.2,15.4 -0.2,3.5 0,7.1 4.4,7.2 4.4,0 6,-3.2 5.9,-7.5 -0.1,-5.2 0,-10.5 0.2,-15.6 0.2,-4.1 -2,-6.4 -5.2,-8.6 -1.8,-1.3 -4.1,-4 -3.9,-5.9 1,-8.6 2.9,-17.3 4.6,-26.9 2,1.6 2.9,2 3,2.5 2.2,9.5 5.2,19 6.1,28.5 1.3,12.5 1,25.2 1.2,37.8 0,2.9 -1.4,5.8 -1.6,8.7 -0.8,7.7 -1.6,15.4 -1.7,23.1 0,1.4 2.9,3 4.7,4 0.7,0.3 3,-0.6 3.1,-1.4 1.4,-5.8 3.5,-11.5 3.5,-17.3 -0.1,-7.7 -2.6,-15.3 0,-23.1 1.6,-4.5 3,-9.2 3.5,-13.9 0.8,-10.3 0.8,-20.7 1.4,-31 0.1,-1.4 1.3,-2.8 2,-4.1 0.9,-1.6 2.8,-3.2 2.6,-4.7 -0.9,-10.1 -2.6,-20.1 -3.1,-30.1 -0.5,-10 0.3,-20.1 0.6,-31.6 5.1,1.7 8.3,2.5 11.4,3.9 6.3,2.8 15.5,1 18.5,-4.8 3.5,-6.8 9.3,-7.6 15.4,-7.7 4.4,-0.1 9,0.8 13,2.4 4.5,1.8 8.2,5.8 12.6,7.6 11.4,4.8 21.9,1.1 26,-8.5 1.3,-3 2.4,-6.2 -1.4,-7.9 -3.7,-1.6 -4.8,1.4 -6.3,4 -1,1.8 -2.6,4.5 -4.3,4.7 -6.6,0.9 -13.7,0.9 -18.4,-4.4 -8.2,-9.2 -18.2,-7.7 -28.3,-5.9 -6,1.2 -11.7,3 -14.9,9.5 -0.8,1.8 -5.3,3 -7.8,2.6 -3.7,-0.5 -7,-2.5 -12.1,-4.5 3.5,-6 6.6,-11.8 10.1,-17.3 4.3,-6.6 13,-9.5 14.5,-18.3 0.5,-0.7 1.6,-1.9 2.7,-3 z"
         id="path14"
         inkscape:connector-curvature="0"
         style="display:none;fill:#ffffff" /></g><path
       d="m 841.4,400.2 c 0.1,0.2 0.1,0.5 0.1,0.7 0,12.9 0.1,25.6 0.1,38.5 -0.3,1 -1.2,2.2 -0.9,3.2 1.1,8.3 -1.4,16.3 -4.1,23.5 -5.3,13.5 -10,27.6 -21.2,38.2 -7.7,7.2 -14.1,15.6 -21.9,22.9 -5.6,5.3 -12.1,9.9 -18.6,14.1 -4.4,3 -11,-1.4 -11,-6.8 0,-5.4 0.2,-10.8 -0.1,-16.1 -0.1,-2.3 -1.6,-4.5 -2.5,-6.8 0.8,-0.7 2.3,-1.5 2.3,-2.2 0,-6.4 -0.3,-12.9 -0.5,-19.3 0.2,-0.7 0.8,-1.6 0.6,-2 -2.8,-3.8 -1.3,-7.8 -0.8,-11.7 0.5,-4 0.9,-7.7 -0.6,-12 -1.2,-3.1 0.3,-7.2 0.7,-10.8 1.4,-2.3 3.3,-4.5 4.1,-7.1 1.3,-4 1.6,-8.3 2.4,-12.5 -0.2,0 -0.8,0 -1.4,0 -2.4,-2.6 -3.1,-5.4 -1.8,-8.9 0.9,-2.6 1.2,-5.5 1.7,-8.1 1.5,-0.9 3.1,-1.8 4.7,-2.8 1,-1.7 2.8,-3.5 3,-5.3 0.5,-5.9 6.4,-6.6 9.1,-10.4 1.2,-1.8 3.1,-3.2 4.6,-4.8 2,-2.2 4,-4.4 5.9,-6.7 0.9,-1.1 1.7,-2.4 2.4,-3.7 0.5,-0.8 0.5,-2.3 1,-2.6 4.9,-3.2 5.9,-8.7 7.9,-13.6 1,0.3 2.2,0.7 3.3,1 0.8,-8.3 4.9,-12.7 10.5,-11.2 0.1,-1 0.2,-2 0.3,-3 2.2,2.5 4.8,4.7 6.3,7.6 2.6,4.8 4.9,9.9 6.8,15.1 2.2,6.3 3.7,12.9 5.5,19.3 1,1.4 1.6,2.8 2.1,4.3 z"
       id="path16"
       inkscape:connector-curvature="0"
       style="fill:#d9242a" /><path
       d="m 678.4,441.3 c 2.8,-0.9 5.4,-2 8.2,-2.9 0.6,-1.7 1,-3.4 1.6,-5.2 0.3,-1.1 0.6,-2.4 0.8,-3.7 3.3,5.3 3.5,5.2 9.3,2.6 3.7,-1.6 7.6,-2.4 11.4,-3.6 1.3,-0.5 3.1,-0.7 3.8,-1.7 3.1,-4.4 6.4,-8.5 10.9,-11.8 3.5,-2.5 6.4,-6 8.9,-9.4 2.2,-3.2 3.5,-7.1 5.1,-10.7 0.2,-0.6 0.2,-1.6 0.6,-1.8 5.5,-3 10,-6.9 13.2,-12.3 0.6,-0.9 1.8,-1.7 2.9,-1.8 2,-0.2 4,0 6,0 -0.8,1.7 -1.3,3.8 -2.4,5.2 -3.8,4.3 -8.2,7.9 -11.8,12.4 -5.1,6.2 -9.9,12.6 -11.4,20.9 -0.5,2.3 -2.6,4.3 -4,6.3 -4.3,6.7 -10,11.7 -16.8,15.6 -3.3,2 -6.7,4.1 -10.2,5.3 -4.4,1.4 -9.1,1.8 -13.6,2.9 -0.8,0.2 -2,0.8 -2.3,1.6 -1.6,4.6 -4.7,4.4 -8.3,2.6 -0.1,-1 -0.1,-2.8 -0.3,-2.9 -1.6,-0.1 -4,0.7 -4.6,0 -1,-1.3 -0.9,-3.4 -1.2,-4.6 1.6,-1.2 2.9,-2.1 4.2,-3 z"
       id="path18"
       inkscape:connector-curvature="0"
       style="fill:#d6282b" /><path
       d="m 809.9,475.1 c -1.6,1.1 -3.2,2.3 -5.6,3.9 0.3,1.4 0.2,4.3 1.5,5.9 0.8,0.9 3.9,-0.2 6,0 0.3,0 0.3,2.4 0.5,3.7 -7.7,1.6 -7.8,1.6 -9.2,-6.3 -0.9,-4.9 -4.4,-5.8 -8.5,-5.1 -1.7,-3.8 -0.1,-5.3 3.3,-4.7 4,0.6 8,1.8 12,2.6 z"
       id="path20"
       inkscape:connector-curvature="0"
       style="fill:#b93736" /><path
       d="m 823.6,460 c -0.3,1.6 -0.7,3.2 -1.2,4.7 -0.6,2.3 -1.4,4.5 -2.1,6.7 -1,-9.3 -2.1,-18.6 -3.2,-28.3 1.8,-0.3 3.9,-2.4 3.8,2.6 0.1,4.8 1.8,9.5 2.7,14.3 z"
       id="path22"
       inkscape:connector-curvature="0"
       style="fill:#b92c2d" /><path
       d="m 933.4,480.9 c -1.6,-4.2 -3.4,-8.7 -5,-13 1.9,4.3 3.4,8.5 5,13 z"
       id="path24"
       inkscape:connector-curvature="0"
       style="fill:#b33d3a" /><path
       d="m 479.2,475.4 c -0.2,1 -0.3,2 -0.6,3 0.3,-1 0.4,-2.1 0.6,-3 z"
       id="path26"
       inkscape:connector-curvature="0"
       style="fill:#2384bf" /><path
       d="m 533.7,432.2 c 0.9,3.8 1.4,7.7 2.8,11.3 1.3,3.6 3.5,6.7 5.1,10.1 0.7,1.4 1.3,2.9 1.8,4.4 0.6,1.6 1,3.1 1.7,5.1 1.8,-0.7 3.1,-1.1 4.7,-1.8 0.6,2.1 0.9,4 1.6,6 0.5,1.1 1.3,3.2 1.8,3.2 5.2,0.1 4.7,3.8 5.4,7.1 0.7,3.1 3.6,5.5 1.7,9.3 -0.3,0.8 1.5,3.6 2.9,4 3.4,1 7.1,1.3 10.7,1.8 0.7,0.1 1.4,0.7 3,1.6 -5.1,1.3 -9.2,2.4 -13.3,3.5 -0.9,0.2 -2,0.3 -2.9,0.7 -5.4,2.4 -10.6,5.1 -16.1,7.1 -1.7,0.7 -4.8,0.2 -6.2,-0.9 -3.5,-2.9 -6.4,-3.2 -9.8,0 -1.4,1.4 -2.9,3 -4.6,3.7 -1.3,0.5 -3.5,0.1 -4.5,-0.7 -3.5,-2.6 -7.4,-3.2 -10.5,-0.1 -2.6,2.5 -4.9,3.2 -8.9,2.5 -6.3,-1 -12.9,-0.3 -19.3,-0.3 -3.7,0 -7,0.2 -10.1,-2.8 -2.6,-2.5 -8,-1.8 -10.8,0.9 -2.3,2.3 -3.6,1.5 -5.8,-0.2 -2.6,-2.1 -5.8,-3.7 -8.9,-4.7 -2.3,-0.8 -4.8,-0.6 -5.9,2.8 -0.2,0.8 -2.6,1.7 -3.6,1.4 -7,-2.5 -13.8,-5.3 -20.7,-7.9 -1.6,-0.6 -3.4,-0.8 -4.9,-1.5 -1.5,-0.7 -2.8,-1.7 -4.1,-2.6 1.5,-0.8 2.9,-1.8 4.5,-2.2 2.6,-0.7 5.4,-0.8 8,-1.6 2.5,-0.7 2.9,-2.1 0.6,-3.9 -3.8,-3 -3.7,-3.6 0,-6.7 0.8,-0.7 1.4,-2.1 1.5,-3.2 0.2,-2 0.1,-4 0.1,-6.3 1.1,0.1 1.8,0.1 2.4,0.3 3.7,1 5.4,0 5.4,-3.7 0,-3 0.7,-4.6 4,-4.7 1.1,0 2.8,-1.3 3.5,-2.4 6.3,-12 9.2,-25 10.2,-38.4 0.8,-11.8 1.4,-23.7 2.1,-35.5 0,-0.7 0.5,-1.4 0.6,-2.1 0.2,1.5 0.7,3 0.8,4.6 0.3,3.6 0.5,7.2 1,10.8 0.2,1 1.7,2 2.6,2.9 0.6,-0.7 1.5,-1.4 1.5,-2.2 1,-11.3 1.8,-22.4 2.8,-33.7 0.1,-2 0.6,-3.9 0.9,-5.9 0.8,7.8 2.1,15.2 4.7,22.3 0.5,0 0.8,-0.1 1.3,-0.1 0.8,-3 1.5,-6.1 2.3,-9.1 0.6,5.6 0.3,11.2 0.7,16.7 0.1,1.7 1.7,3.4 2.5,5.2 -1.2,4.6 -2.4,9.2 -3.7,13.9 0,0 0,0 0.1,-0.1 -0.1,0 -0.2,0 -0.3,0.1 0,0 0,0.1 -0.1,0.2 0.1,0 0.1,0 0.3,-0.2 1,0.9 2.3,1.8 2.8,3.1 0.9,2.2 1.3,4.5 1.7,6.3 -5.6,3.8 -11.3,7.6 -17,11.4 0.6,0.3 1,0.7 1.6,1.2 0.1,1.3 0.6,2.5 0.3,3.8 -0.5,4.3 -1.5,8.4 -1.7,12.6 -0.1,3.7 0.5,7.5 0.8,11.2 -0.1,0.1 -0.1,0.2 -0.2,0.3 0.1,-0.1 0.1,-0.2 0.2,-0.3 1.2,0.2 2.3,0.5 3.5,0.8 -1.7,2.3 -3.5,4.7 -5.3,7 l 0,0 c -1.1,0.9 -2.5,1.8 -3.5,3 -1.6,2.1 -2.5,4.8 -4.5,6.3 -3.2,2.5 -7,4.3 -10.6,6.3 -4.6,2.8 -4.6,4.8 -0.3,10.7 -0.8,1.1 -1.6,2.2 -2.5,3.3 0.5,0.5 1,0.9 1.5,1.3 2,-2.2 3.9,-4.3 5.9,-6.4 l 0,0 c 0.9,-0.9 1.7,-1.7 2.6,-2.6 0.8,0.8 1.7,1.7 2.5,2.5 3.8,6.1 10,9.1 16.7,9.3 17,0.6 34,0 50.9,0.2 7.6,0.1 14.9,-0.5 22.2,-3.3 3.5,-1.4 5.4,-3.3 4.9,-7 0.1,-0.5 0.2,-0.8 0.5,-1.3 0.2,0.1 0.6,0.1 0.8,0.1 2.6,2.9 4.6,6.7 8.6,7.7 0.3,-0.3 0.7,-0.7 0.9,-1.1 -0.8,-1.1 -1.5,-2.3 -2.2,-3.3 0.6,-1.4 1,-2.6 1.6,-3.9 1.4,-2.4 1.5,-4.5 -1.7,-5.4 l 0,0 c -0.7,-0.7 -1.2,-1.6 -2,-2.1 -3.7,-2.3 -7.5,-4.5 -11.3,-6.7 l 0,0 c -2.2,-3.1 -4.3,-6.3 -6.4,-9.4 -1.6,-2.2 -3.3,-4.3 -4.9,-6.3 1.7,-0.6 4.8,-1.3 4.8,-1.7 -0.2,-6.8 3.2,-13.7 -0.6,-20.5 -0.8,-1.4 -0.1,-3.7 -0.1,-5.5 0.8,-0.5 0.2,-0.8 -0.1,-1.1 -3.8,-4.4 -7.2,-9.1 -14.1,-8.5 -0.6,0 -1.8,-1.4 -1.7,-2 0.8,-3.3 1.6,-6.8 2.9,-10 0.8,-1.8 0.3,-7.7 -1.3,-7.9 -4.8,-0.7 -4.4,-3.8 -3.7,-7 0.5,1.1 0.8,2.2 1.3,3.3 0.2,0 0.6,0 0.8,-0.1 1,-10.2 2,-20.5 3,-30.7 0.3,0 0.8,0 1.1,0 0.2,0.8 0.3,1.5 0.6,2.3 0,0.6 0,1.1 0,1.7 0,0.6 0,1.1 0,1.8 0.6,2.3 1.2,4.6 1.7,6.9 0,0.9 0,1.7 0,2.6 0.2,0.3 0.6,0.6 0.8,0.9 0.9,2.3 1.7,4.7 2.6,7 0,0.2 0,0.6 0,0.8 0.6,4.1 -1.3,8.7 2.1,12.7 0.9,-1.8 1.3,-3.7 1.4,-5.6 0.3,-5.5 0.6,-11.2 0.9,-16.7 0.8,3 1.7,5.9 2.5,8.9 1,8.5 2,17 3,25.5 1.6,4.8 2.4,10.2 3.1,15.6 z"
       id="path28"
       inkscape:connector-curvature="0"
       style="fill:#70bbe4" /><path
       d="m 516.2,369.4 c -0.2,-0.8 -0.3,-1.5 -0.6,-2.3 -0.3,0 -0.8,0 -1.2,0 -1,10.2 -2,20.5 -3,30.7 -0.2,0 -0.6,0 -0.8,0.1 -0.5,-1.1 -0.8,-2.2 -1.3,-3.3 -1.8,-4 -3.7,-8 -5.4,-11.7 -1.4,2.4 1.3,7.7 -4.8,8.1 -0.3,-2.4 -0.6,-4.8 -0.9,-7.4 -0.8,0.1 -2,-0.1 -2.2,0.2 -1.3,2.3 -2.3,4.7 -3.9,7.9 -3.2,-5.6 -4.3,-11.2 -4.4,-16.2 -1.5,3.7 -3.1,7.8 -4.9,12 -1,2.3 -2.4,4.4 -3.6,6.6 -1.1,-5.6 -2.2,-11.2 -3.6,-17.9 -0.3,6.2 -0.6,11.5 -0.9,16.8 l 0,0 c -0.9,0.8 -1.8,1.6 -2.6,2.4 -0.6,0.1 -1.1,0.1 -1.7,0.2 -0.9,-1.7 -2.4,-3.5 -2.5,-5.2 -0.3,-5.5 -0.1,-11 -0.7,-16.7 -0.8,3 -1.5,6.1 -2.3,9.1 -0.5,0 -0.8,0.1 -1.3,0.1 -2.6,-7.1 -3.9,-14.5 -4.7,-22.3 -0.3,2 -0.7,3.9 -0.9,5.9 -0.9,11.3 -1.8,22.4 -2.8,33.7 -0.1,0.8 -1,1.5 -1.5,2.2 -0.9,-0.9 -2.4,-1.8 -2.6,-2.9 -0.6,-3.6 -0.7,-7.1 -1,-10.8 -0.1,-1.5 -0.6,-3 -0.8,-4.6 0,-3.8 0,-7.6 0.1,-11.4 0.2,-0.5 0.7,-1 0.7,-1.5 1.3,-13.3 2.4,-26.8 3.6,-40.3 1.1,-2.1 2.3,-4.1 3.4,-6.2 0.1,3.8 0.3,7.6 0.5,11.3 0.1,1.5 0.2,3 0.3,4.4 0.1,2.5 0.3,5.2 0.5,7.7 0.7,0 1.5,0 2.2,-0.1 0.2,-5.8 0.6,-11.5 0.8,-17.3 0.6,2.1 1.1,4.3 1.7,6.3 0.2,0 0.5,-0.1 0.7,-0.1 0.8,-4.4 1.6,-8.7 2.3,-13.1 0.6,0 1.1,0 1.8,0.1 0,5.4 0,10.9 0,16.3 0.5,0 0.8,0 1.3,0 0.5,-5.1 0.9,-10.1 1.4,-15.1 0.5,0 1,-0.1 1.5,-0.1 0.5,3.8 0.8,7.6 1.3,11.5 0.3,0 0.7,0 1,0 0.7,-3.6 1.5,-7.1 2.2,-10.6 0.3,0.1 0.7,0.1 1,0.2 0.5,1.6 0.9,3.1 1.6,5.2 1.8,-3.3 3.2,-5.8 4.6,-8.3 0.5,0.2 0.8,0.3 1.3,0.6 0,4.1 0,8.3 0,12.4 0.3,0 0.6,0.1 0.9,0.1 0.8,-4 1.5,-8 2.3,-12.1 0.3,0 0.8,0 1.1,-0.1 0.8,1.5 1.6,2.9 2.5,4.6 0.6,-1.2 1.1,-2.1 1.7,-3.1 0.3,0.1 0.6,0.1 0.9,0.2 0,3.9 0,7.7 0,11.6 0.2,0 0.5,0 0.7,0 0.7,-3.1 1.3,-6.3 2,-9.4 0.5,0 0.9,0.1 1.4,0.1 0,3.2 0,6.6 0,9.8 0.3,0 0.7,0 1,0 0.3,-2.3 0.6,-4.6 0.9,-7 0.5,0.8 0.8,1.3 1.3,2.2 0.1,-2 0.2,-3.3 0.3,-4.7 0.1,0 0.1,0 0.2,0 0.7,8.6 1.3,17.3 2,25.9 0.2,0 0.6,-0.1 0.8,-0.1 0.7,-6.8 1.4,-13.5 2.1,-20.2 0.5,0 0.8,0 1.3,0 0.8,2.3 1.7,4.6 2.5,6.9 0.2,-0.1 0.5,-0.1 0.7,-0.2 0.5,-4.5 0.9,-9.1 1.4,-13.6 0.2,0 0.3,0 0.6,-0.1 1.3,4.1 2.5,8.3 3.8,12.5 0.2,-0.1 0.6,-0.2 0.8,-0.2 0.5,-2.4 0.9,-4.9 1.4,-7.4 0.6,4.6 1.5,9.2 1.7,13.8 0.3,6.8 0.2,13.6 0,20.4 -0.1,2.6 0.9,3.7 3.6,3.4 0,1.5 0,2.9 0,4.4 -0.6,0.9 -1.1,1.7 -1.7,2.6 -0.6,0 -1.2,0 -1.7,0 -0.6,0 -1.1,0 -1.8,0 0,-4.5 0,-9 0,-13.3 -0.2,0 -0.6,0 -0.8,0.1 -0.9,2 -1.9,4.2 -2.8,6.3 z"
       id="path30"
       inkscape:connector-curvature="0"
       style="fill:#38a5d8" /><path
       d="m 519.8,331.8 c -0.5,2.4 -0.9,4.9 -1.4,7.4 -0.2,0.1 -0.6,0.2 -0.8,0.2 -1.3,-4.1 -2.5,-8.3 -3.8,-12.5 -0.2,0 -0.3,0 -0.6,0.1 -0.5,4.5 -0.9,9.1 -1.4,13.6 -0.2,0.1 -0.5,0.1 -0.7,0.2 -0.8,-2.3 -1.7,-4.6 -2.5,-6.9 -0.5,0 -0.8,0 -1.3,0 -0.7,6.8 -1.4,13.5 -2.1,20.2 -0.2,0 -0.6,0.1 -0.8,0.1 -0.7,-8.6 -1.3,-17.3 -2,-25.9 -0.1,0 -0.1,0 -0.2,0 -0.1,1.4 -0.2,2.8 -0.3,4.7 -0.6,-0.9 -0.8,-1.5 -1.3,-2.2 -0.3,2.4 -0.6,4.7 -0.9,7 -0.3,0 -0.7,0 -1,0 0,-3.2 0,-6.6 0,-9.8 -0.5,0 -0.9,-0.1 -1.4,-0.1 -0.7,3.1 -1.3,6.3 -2,9.4 -0.2,0 -0.5,0 -0.7,0 0,-3.9 0,-7.7 0,-11.6 -0.3,-0.1 -0.6,-0.1 -0.9,-0.2 -0.6,1 -1,2 -1.7,3.1 -0.9,-1.7 -1.7,-3.1 -2.5,-4.6 -0.3,0 -0.8,0 -1.1,0.1 -0.8,4 -1.5,8 -2.3,12.1 -0.3,0 -0.6,-0.1 -0.9,-0.1 0,-4.1 0,-8.3 0,-12.4 -0.5,-0.2 -0.8,-0.3 -1.3,-0.6 -1.4,2.5 -2.8,4.9 -4.6,8.3 -0.7,-2.1 -1.1,-3.7 -1.6,-5.2 -0.3,-0.1 -0.7,-0.1 -1,-0.2 -0.7,3.6 -1.5,7.1 -2.2,10.6 -0.3,0 -0.7,0 -1,0 -0.5,-3.8 -0.8,-7.6 -1.3,-11.5 -0.5,0 -1,0.1 -1.5,0.1 -0.5,5.1 -0.9,10.1 -1.4,15.1 -0.5,0 -0.8,0 -1.3,0 0,-5.4 0,-10.9 0,-16.3 -0.6,0 -1.1,0 -1.8,-0.1 -0.8,4.4 -1.6,8.7 -2.3,13.1 -0.2,0 -0.5,0.1 -0.7,0.1 -0.6,-2.1 -1.1,-4.3 -1.7,-6.3 0,-1.5 0,-2.9 0,-4.4 0,-1 0.2,-2.1 -0.1,-3 -0.3,-1 -1,-2 -1.6,-3 -0.7,0.7 -1.6,1.4 -2.2,2.2 -0.3,0.6 -0.5,1.4 -0.7,2.1 -1.1,2.1 -2.3,4.1 -3.5,6.2 -0.3,-0.9 -0.6,-1.8 -0.9,-2.9 0,-0.3 0,-0.6 0.1,-0.8 0.6,-2.3 1,-4.6 1.6,-7 l 0,0.1 c 0.3,-0.5 0.6,-1 0.9,-1.5 6.2,-1.8 12.4,-3.6 18.5,-5.5 2,-0.6 3.7,-1.6 5.6,-2.3 6.1,-2.1 12.1,-1.5 18.2,0.6 6.1,2.1 12.5,3.1 18.9,4.6 3.2,0.8 6.4,1.4 9.5,2.3 3.6,1.1 3.5,4.3 3.2,7.1 -0.1,0.1 -0.3,0.2 -0.3,0.2 0.1,0.2 0.2,0.5 0.3,0.6 0.1,0.2 0.1,0.6 0,0.8 -0.9,1.7 -1.8,3.4 -2.8,5.2 -1.2,0.9 -2.3,1.8 -3.6,2.6 -0.5,-0.8 -1.7,-2 -2.8,-3.2 z"
       id="path32"
       inkscape:connector-curvature="0"
       style="fill:#6dbce6" /><path
       d="m 526.8,332.7 c 0.9,-1.7 1.8,-3.5 2.8,-5.2 0.6,11.2 1.3,22.2 1.7,33.4 0.3,9.7 0.5,19.3 0.6,29 0.1,6.9 0,13.9 0.2,20.8 0.3,7.1 1.2,14.4 1.7,21.5 -0.8,-5.4 -1.6,-10.8 -2.2,-16.2 -1,-8.5 -2,-17 -3,-25.5 0.6,-0.7 1.8,-1.5 1.7,-2 -2.2,-7.7 0.6,-15.4 0.1,-23.2 -0.5,-7.9 -0.8,-15.8 -0.8,-23.7 0,-3.4 0,-6.5 -2.8,-8.9 z"
       id="path34"
       inkscape:connector-curvature="0"
       style="fill:#54accc" /><path
       d="m 452.9,328.3 c 0.3,0.9 0.6,1.8 0.9,2.9 -1.1,13.5 -2.4,26.8 -3.6,40.3 0,0.6 -0.5,1 -0.7,1.5 0.7,-13.8 1.3,-27.7 2,-41.5 0,-1.2 0.9,-2.2 1.4,-3.2 z"
       id="path36"
       inkscape:connector-curvature="0"
       style="fill:#54accc" /><path
       d="m 454.6,320.5 c -0.6,2.3 -1,4.6 -1.6,7 0.6,-2.4 1,-4.7 1.6,-7 z"
       id="path38"
       inkscape:connector-curvature="0"
       style="fill:#54accc" /><path
       d="m 455.5,319 c -0.3,0.5 -0.6,1 -0.9,1.5 0.2,-0.4 0.6,-0.9 0.9,-1.5 z"
       id="path40"
       inkscape:connector-curvature="0"
       style="fill:#54accc" /><path
       d="m 529.5,326.7 c -0.1,-0.2 -0.2,-0.3 -0.3,-0.6 0,0 0.2,-0.1 0.3,-0.2 0,0.2 0,0.5 0,0.8 z"
       id="path42"
       inkscape:connector-curvature="0"
       style="fill:#54accc" /><path
       d="m 549.8,488.9 c -0.5,1.3 -1,2.5 -1.6,3.9 0.7,1 1.5,2.2 2.2,3.3 -0.3,0.3 -0.7,0.7 -0.9,1.2 -3.9,-1.2 -6,-4.8 -8.6,-7.7 -0.2,0 -0.6,-0.1 -0.8,-0.1 -0.1,0.5 -0.2,0.8 -0.5,1.1 -1.5,1.6 -2.8,4.3 -4.5,4.7 -6,1.3 -11.5,3.8 -18.2,3.4 -17.2,-0.9 -34.6,-0.7 -51.9,0 -5.5,0.2 -9.9,-1.6 -14.5,-3.6 -2.1,-0.9 -3.9,-2.4 -5.9,-3.6 -0.8,-0.8 -1.7,-1.7 -2.5,-2.5 -3.1,-1.3 -2.5,1 -2.6,2.6 l 0,0 c -1.6,0.6 -3.3,1.2 -4.9,1.7 -4.3,-5.9 -4.1,-7.9 0.3,-10.7 3.2,1.1 9.3,-1.5 12.5,-5.2 1.5,-1.7 3.5,-3.1 6,-5.3 0,-1 0,-3.1 0,-5.2 l 0,0 c 5.5,-1.7 7.8,-5.4 7.7,-11.4 1.2,-2.9 2,-6 3.6,-8.6 1.2,-2 3.2,-3.9 5.3,-4.7 1,-0.5 3.1,1.6 5.4,3 0.6,-1.5 1.6,-3.8 2.6,-6.2 6.4,0.7 0.1,4.7 2.5,7.6 1.2,-0.8 3.1,-1.6 3.6,-2.8 0.6,-2.1 0.2,-4.4 0.2,-6.6 -0.2,-3.8 2.8,-7.2 0.9,-11.4 -1.3,-2.8 -2.2,-5.9 -2.3,-8.9 0,-4 0.3,-8.2 1.7,-11.8 1.5,-3.9 5.9,-3.8 9.3,-3.3 1.6,0.2 4,2.8 3.9,4.1 -0.3,4.5 2.6,8.4 0.2,13.7 -2.5,5.6 -1.4,13.1 1.8,19.6 7.7,-3.9 5.8,4.9 8.4,6.2 2.2,-1.4 3.8,-2.9 5.8,-3.5 0.8,-0.2 2.6,1.3 3.1,2.3 2,4.3 3.6,8.6 5.3,13 0.3,2 0.1,4.3 1.1,5.9 1.5,2.5 3.8,4.6 5.9,6.8 1.6,1.7 3.4,3.2 5.2,4.8 l 0,0 c 0.1,2.1 -0.2,5.5 0.5,5.9 4,1.4 8.4,2.1 12.7,2.9 l 0,0 c 0.9,1.8 1.4,3.6 2,5.4 z m -71.4,-9.8 c 1.8,5.6 2.8,-3.1 4.5,-0.2 0.1,-1.4 1,-3.4 0.3,-4.1 -2.6,-3 -2.3,-6 -1.5,-9.3 0.3,-1.6 -0.1,-3.4 -0.2,-5.2 -0.5,0 -0.9,0 -1.4,0 -0.5,1.1 -1,2.2 -1.5,3.3 -0.6,-2.6 -1.3,-5.4 -2,-8.4 -7,8.6 -11,18.6 -22.4,23.6 5.8,0.3 10.1,0.8 14.4,0.9 3.2,0 6.5,-0.4 9.8,-0.6 z m 49.2,2.2 c -0.1,-0.5 0,-1.1 -0.3,-1.5 -3.2,-2.8 -6.9,-4.9 -9.5,-8.1 -3.7,-4.3 -6.7,-9.2 -10.4,-14.4 -3.1,7.8 -2.1,15.4 -2.6,22.8 -4.3,1 -2.2,4.3 -2.4,6.8 1,0 3,0.2 3,0 0.5,-3 2.9,-2.4 4.8,-2.4 3.7,0 7.4,0.3 10.9,-0.1 2.3,-0.4 4.3,-2.1 6.5,-3.1 z"
       id="path44"
       inkscape:connector-curvature="0"
       style="fill:#2384bf" /><path
       d="m 526.8,332.7 c 2.6,2.4 2.6,5.5 2.8,8.7 0.1,7.9 0.3,15.9 0.8,23.7 0.5,7.7 -2.4,15.4 -0.1,23.2 0.1,0.5 -1.1,1.4 -1.7,2 -0.8,-3 -1.7,-5.9 -2.5,-8.9 -0.3,-2.6 -0.6,-5.3 -0.9,-7.9 0,-1.5 0,-2.9 0,-4.4 0.2,-1.5 0.8,-3 0.8,-4.5 -0.2,-7.5 -0.5,-14.9 -0.9,-22.4 -0.1,-2.4 -1.2,-4.7 -1.7,-7 1.1,-0.7 2.3,-1.6 3.4,-2.5 z"
       id="path46"
       inkscape:connector-curvature="0"
       style="fill:#37a3d9" /><path
       d="m 444.9,491.4 c 2,1.3 3.8,2.8 5.9,3.6 4.6,2 8.9,3.8 14.5,3.6 17.3,-0.7 34.6,-0.8 51.9,0 6.7,0.3 12.2,-2.2 18.2,-3.4 1.7,-0.3 3,-3.1 4.5,-4.7 0.3,3.8 -1.5,5.8 -4.9,7 -7.1,2.9 -14.5,3.5 -22.2,3.3 -17,-0.2 -34,0.3 -50.9,-0.2 -7,-0.1 -13.2,-3 -17,-9.2 z"
       id="path48"
       inkscape:connector-curvature="0"
       style="fill:#247fb4" /><path
       d="m 525.1,373.8 c 0.3,2.6 0.6,5.3 0.9,7.9 -0.3,5.5 -0.6,11.2 -0.9,16.7 -0.1,1.8 -0.6,3.8 -1.4,5.6 -3.5,-3.9 -1.5,-8.4 -2.1,-12.6 0.9,-1.4 2.4,-2.8 2.5,-4.1 0.1,-3.6 -0.5,-7.1 -0.7,-10.7 0.5,-1.1 1.1,-2 1.7,-2.8 z"
       id="path50"
       inkscape:connector-curvature="0"
       style="fill:#6dbce6" /><path
       d="m 453.7,466.9 c 0,2.1 0,4.1 0,5.2 -2.4,2.2 -4.4,3.6 -6,5.3 -3.2,3.7 -9.3,6.3 -12.5,5.2 3.6,-2.1 7.4,-3.8 10.6,-6.3 2,-1.5 2.9,-4.3 4.5,-6.3 0.8,-1.3 2.2,-2.1 3.4,-3.1 z"
       id="path52"
       inkscape:connector-curvature="0"
       style="fill:#247fb4" /><path
       d="m 522.7,457.4 c 0.2,0.6 0.6,1.1 0.8,1.7 1.6,2.1 3.3,4.1 4.9,6.3 2.2,3.1 4.3,6.2 6.4,9.4 -1.7,-1.6 -3.6,-3.1 -5.2,-4.8 -2.1,-2.2 -4.4,-4.3 -5.9,-6.8 -0.9,-1.6 -0.7,-3.9 -1,-5.8 z"
       id="path54"
       inkscape:connector-curvature="0"
       style="fill:#247fb4" /><path
       d="m 516.2,369.4 c 0.9,-2.1 1.7,-4.3 2.6,-6.3 0.2,0 0.6,0 0.8,-0.1 0,4.5 0,9 0,13.3 -0.6,1.1 -1.1,2.3 -1.7,3.4 -0.6,-2.3 -1.2,-4.6 -1.7,-6.9 0.5,-0.2 0.9,-0.5 1.4,-0.7 -0.5,-0.3 -0.9,-0.7 -1.4,-1 0.1,-0.6 0,-1.1 0,-1.7 z"
       id="path56"
       inkscape:connector-curvature="0"
       style="fill:#54accc" /><path
       d="m 548.1,483.5 c -4.3,-0.9 -8.6,-1.5 -12.6,-2.9 -0.8,-0.2 -0.3,-3.8 -0.5,-5.9 3.8,2.2 7.5,4.4 11.3,6.7 0.6,0.5 1.1,1.4 1.8,2.1 z"
       id="path58"
       inkscape:connector-curvature="0"
       style="fill:#247fb4" /><path
       d="m 523.4,376.4 c 0.3,3.6 0.8,7.1 0.7,10.7 0,1.4 -1.6,2.8 -2.5,4.1 0,-0.2 0,-0.6 0,-0.8 0,-4.7 0,-9.3 0.1,-14 0.4,0 1.1,0 1.7,0 z"
       id="path60"
       inkscape:connector-curvature="0"
       style="fill:#30a7ce" /><path
       d="m 521.5,376.4 c 0,4.7 0,9.3 -0.1,14 -0.9,-2.3 -1.7,-4.7 -2.6,-7 -0.2,-0.3 -0.6,-0.6 -0.8,-0.9 0,-0.9 0,-1.7 0,-2.6 0.6,-1.1 1.2,-2.3 1.7,-3.5 0.7,0 1.2,0 1.8,0 z"
       id="path62"
       inkscape:connector-curvature="0"
       style="fill:#37a3d9" /><path
       d="m 459,459.9 c 0.8,-1.5 1.6,-2.9 2.4,-4.4 0.1,6 -2.2,9.7 -7.7,11.4 1.7,-2.3 3.4,-4.6 5.3,-7 z"
       id="path64"
       inkscape:connector-curvature="0"
       style="fill:#247fb4" /><path
       d="m 434.8,493.2 c 1.6,-0.6 3.3,-1.1 4.9,-1.7 -2,2.2 -3.9,4.3 -5.9,6.4 -0.5,-0.5 -1,-0.9 -1.5,-1.3 0.8,-1.2 1.6,-2.2 2.5,-3.4 z"
       id="path66"
       inkscape:connector-curvature="0"
       style="fill:#247fb4" /><path
       d="m 549.8,488.9 c -0.6,-1.8 -1.2,-3.6 -1.7,-5.4 3.2,1 3.1,3 1.7,5.4 z"
       id="path68"
       inkscape:connector-curvature="0"
       style="fill:#247fb4" /><path
       d="m 439.8,491.5 c 0.1,-1.6 -0.5,-3.9 2.6,-2.6 -0.9,0.9 -1.8,1.7 -2.6,2.6 z"
       id="path70"
       inkscape:connector-curvature="0"
       style="fill:#247fb4" /><path
       d="m 516.3,371.1 c 0.5,0.3 0.9,0.7 1.4,1 -0.5,0.2 -0.9,0.5 -1.4,0.7 0,-0.5 0,-1.1 0,-1.7 z"
       id="path72"
       inkscape:connector-curvature="0"
       style="fill:#38a5d8" /><path
       d="m 518.1,382.5 c 0.2,0.3 0.6,0.6 0.8,0.9 -0.4,-0.3 -0.6,-0.7 -0.8,-0.9 z"
       id="path74"
       inkscape:connector-curvature="0"
       style="fill:#54accc" /><path
       d="m 540.1,489.4 c 0.2,0 0.6,0.1 0.8,0.1 -0.3,0.1 -0.5,0.1 -0.8,-0.1 z"
       id="path76"
       inkscape:connector-curvature="0"
       style="fill:#247fb4" /><path
       d="m 455.5,459.2 c -0.1,0.1 -0.1,0.2 -0.2,0.3 0.1,-0.1 0.1,-0.2 0.2,-0.3 l 0,0 z"
       id="path78"
       inkscape:connector-curvature="0"
       style="fill:#ffffff" /><path
       d="m 523.4,335.5 c 0.6,2.3 1.5,4.6 1.7,7 0.5,7.5 0.7,14.9 0.9,22.4 0,1.5 -0.6,3 -0.8,4.5 -2.6,0.3 -3.6,-0.7 -3.6,-3.4 0.1,-6.8 0.2,-13.6 0,-20.4 -0.2,-4.6 -1.2,-9.2 -1.7,-13.8 1,1.2 2.2,2.4 3.5,3.7 z"
       id="path80"
       inkscape:connector-curvature="0"
       style="fill:#54accc" /><path
       d="m 461.7,326.7 c 0,1.5 0,2.9 0,4.4 -0.2,5.8 -0.6,11.5 -0.8,17.3 -0.7,0 -1.5,0 -2.2,0.1 -0.1,-2.5 -0.3,-5.2 -0.5,-7.7 0.3,-2.2 0.3,-4.5 0.9,-6.6 0.7,-2.6 1.7,-5.1 2.6,-7.5 z"
       id="path82"
       inkscape:connector-curvature="0"
       style="fill:#30a7ce" /><path
       d="m 461.7,326.7 c -0.9,2.4 -2,4.8 -2.6,7.4 -0.6,2.1 -0.7,4.4 -0.9,6.6 -0.1,-1.5 -0.3,-3 -0.3,-4.4 -0.2,-3.8 -0.3,-7.6 -0.5,-11.3 0.2,-0.7 0.2,-1.5 0.7,-2.1 0.6,-0.8 1.4,-1.5 2.2,-2.2 0.6,1 1.3,2 1.6,3 -0.1,1 -0.2,2 -0.2,3 z"
       id="path84"
       inkscape:connector-curvature="0"
       style="fill:#70bbe4" /><path
       d="m 479.3,394.1 c -1.5,-0.3 -2.9,-0.8 -4.4,-1.1 0.2,-5.3 0.6,-10.5 0.9,-16.8 1.3,6.8 2.4,12.3 3.5,17.9 z"
       id="path86"
       inkscape:connector-curvature="0"
       style="fill:#6dbce6" /><path
       d="m 474.9,393 c -0.9,0.8 -1.8,1.6 -2.6,2.4 0.8,-0.8 1.7,-1.6 2.6,-2.4 z"
       id="path88"
       inkscape:connector-curvature="0"
       style="fill:#6dbce6" /><path
       d="m 504.8,480.1 c 0.6,-7.4 -0.5,-14.9 2.6,-22.8 3.7,5.3 6.7,10.1 10.4,14.4 2.6,3.1 6.3,5.4 9.5,8.1 0.3,0.2 0.2,0.9 0.3,1.5 -6.2,0.2 -12.3,0.3 -18.5,0.9 -2.1,0.2 -3.5,0 -4.3,-2.1 z"
       id="path90"
       inkscape:connector-curvature="0"
       style="fill:#ffffff" /><path
       d="m 478.4,479.1 c -3.3,0.2 -6.6,0.6 -9.8,0.6 -4.3,-0.1 -8.6,-0.6 -14.4,-0.9 11.4,-4.9 15.4,-15 22.4,-23.6 0.7,3 1.4,5.8 2,8.4 0.2,3.9 0.5,7.9 0.7,11.8 -0.2,1 -0.3,2 -0.6,3 -0.3,0.1 -0.4,0.4 -0.3,0.7 z"
       id="path92"
       inkscape:connector-curvature="0"
       style="fill:#ffffff" /><path
       d="m 504.8,480.1 c 0.8,2.1 2.2,2.3 4.4,2.1 6.1,-0.6 12.3,-0.7 18.5,-0.9 -2.2,1 -4.3,2.8 -6.6,3 -3.6,0.5 -7.2,0.1 -10.9,0.1 -2,0 -4.3,-0.6 -4.8,2.4 0,0.1 -2,0 -3,0 0.3,-2.4 -1.9,-5.6 2.4,-6.7 z"
       id="path94"
       inkscape:connector-curvature="0"
       style="fill:#247fb4" /><path
       d="m 478.4,479.1 c 0,-0.3 0.1,-0.6 0.2,-0.8 0.2,-1 0.3,-2 0.6,-3 -0.2,-3.9 -0.5,-7.9 -0.7,-11.8 0.5,-1.1 1,-2.2 1.5,-3.3 0.5,0 0.9,0 1.4,0 0.1,1.7 0.7,3.6 0.2,5.2 -0.8,3.5 -1.1,6.4 1.5,9.3 0.7,0.7 -0.2,2.8 -0.3,4.1 -1.6,-2.8 -2.7,5.9 -4.4,0.3 z"
       id="path96"
       inkscape:connector-curvature="0"
       style="fill:#247fb4" /><path
       d="m 483,438 c 0.5,-0.2 1,-0.5 1.5,-0.8 0,2.2 0.3,4.6 -0.2,6.6 -0.3,1.3 -2.4,2 -3.6,2.8 -2.5,-2.9 3.8,-6.9 -2.5,-7.6 1.4,-0.1 2.9,-0.3 4.3,-0.5 0.3,0.1 0.6,0.2 0.9,0.2 -0.2,-0.1 -0.3,-0.4 -0.4,-0.7 z"
       id="path98"
       inkscape:connector-curvature="0"
       style="fill:#247fb4" /><path
       d="m 483,438 c 0.1,0.2 0.2,0.6 0.3,0.8 -0.3,-0.1 -0.6,-0.2 -0.9,-0.2 0.2,-0.2 0.5,-0.3 0.6,-0.6 z"
       id="path100"
       inkscape:connector-curvature="0"
       style="fill:#ffffff" /><circle
       stroke-miterlimit="10"
       cx="622.79999"
       cy="618.40002"
       r="143.39999"
       id="circle102"
       style="fill:none;stroke:#35b55b;stroke-width:14;stroke-miterlimit:10" /><circle
       stroke-miterlimit="10"
       cx="725.20001"
       cy="426.29999"
       r="143.39999"
       id="circle104"
       style="fill:none;stroke:#ed374d;stroke-width:14;stroke-miterlimit:10" /><circle
       stroke-miterlimit="10"
       cx="507.79999"
       cy="425.20001"
       r="143.39999"
       id="circle106"
       style="fill:none;stroke:#2d9fd6;stroke-width:14;stroke-miterlimit:10" /><g
       display="none"
       id="g108"
       style="display:none"><g
         display="inline"
         id="g110"
         style="display:inline"><path
           d="m 914.1,394.9 51.2,0 c 5.1,0 9.8,1.1 14.3,3.2 4.5,2.1 8,5.1 10.7,8.9 2.7,3.8 4,8.2 4,13 0,7.2 -2.9,13.3 -8.7,18.2 3.1,1.5 5.7,3.4 7.9,5.7 2.2,2.3 3.8,4.9 4.8,7.8 1,2.9 1.6,5.8 1.6,8.8 0,5.4 -1.5,10.1 -4.4,14.2 -3,4 -7,7.1 -12,9.2 -5,2.1 -10.6,3.2 -16.7,3.2 l -52.7,0 0,-13.8 13.1,0 0,-64.6 -13.1,0 0,-13.8 z m 27.9,13.7 0,23.6 21.5,0 c 2.7,0 5.3,-0.5 7.7,-1.6 2.4,-1 4.3,-2.5 5.7,-4.4 1.4,-1.9 2.1,-4.1 2.1,-6.5 0,-3.6 -1.6,-6.4 -4.7,-8.3 -3.1,-1.9 -6.8,-2.9 -11,-2.9 l -21.3,0 z m 0,37.4 0,27.2 23.8,0 c 5,0 9.4,-1 13.2,-3 3.8,-2 5.7,-5.4 5.7,-10.2 0,-9.4 -9,-14.1 -27.1,-14.1 l -15.6,0 z"
           id="path112"
           inkscape:connector-curvature="0"
           style="fill:#ffffff" /><path
           d="m 1055.1,391.9 c 6.9,0 13.1,1.3 18.6,4 5.5,2.6 10.2,6.3 14,10.9 3.8,4.6 6.7,9.9 8.6,15.8 1.9,5.9 2.9,12.1 2.9,18.6 0,8.9 -1.8,17.1 -5.4,24.6 -3.6,7.5 -8.8,13.4 -15.5,17.8 -6.7,4.3 -14.4,6.5 -23,6.5 -6.6,0 -12.7,-1.3 -18.1,-3.8 -5.4,-2.5 -10.1,-6.1 -14,-10.7 -3.9,-4.6 -6.8,-9.8 -8.8,-15.7 -2,-5.8 -3,-12 -3,-18.5 0,-9.2 1.9,-17.6 5.6,-25.2 3.7,-7.6 8.9,-13.5 15.6,-17.8 6.4,-4.4 14,-6.5 22.5,-6.5 z m 0,13.8 c -5.8,0 -10.8,1.6 -15,4.9 -4.2,3.3 -7.5,7.7 -9.7,13.1 -2.2,5.4 -3.3,11.3 -3.3,17.5 0,5.9 1.1,11.5 3.3,16.9 2.2,5.4 5.5,9.7 9.8,13.1 4.3,3.3 9.3,5 15.1,5 5.9,0 11,-1.7 15.2,-5 4.3,-3.4 7.5,-7.7 9.7,-13.2 2.2,-5.4 3.3,-11.1 3.3,-16.9 0,-5.8 -1.1,-11.5 -3.2,-16.9 -2.1,-5.4 -5.3,-9.9 -9.6,-13.3 -4.3,-3.5 -9.5,-5.2 -15.6,-5.2 z"
           id="path114"
           inkscape:connector-curvature="0"
           style="fill:#ffffff" /><path
           d="m 1179,391.6 14.4,3.3 c -0.5,1.7 -1.1,3.5 -1.7,5.5 -0.6,1.9 -1.1,4 -1.6,6.2 -0.5,2.2 -0.8,4.2 -0.8,6 0,3 0.6,8 1.8,15.1 l -15.1,1.3 -0.6,-7.2 c -0.5,-10.4 -6.9,-15.6 -19.2,-15.6 -5.8,0 -10.8,1.4 -15,4.3 -4.1,2.9 -6.2,6.6 -6.2,11.3 0,4.8 2,8.1 6,9.9 4,1.7 9.1,2.9 15.1,3.4 5.3,0.4 9.9,1 13.7,1.7 3.8,0.7 7.4,1.9 10.8,3.7 3.4,1.8 6.1,4.4 8.2,7.9 2.1,3.5 3.2,8.1 3.2,13.7 0,3.7 -1.2,7.7 -3.7,12.1 -2.5,4.4 -6.5,8.1 -12,11.2 -5.5,3.1 -12.5,4.6 -20.9,4.6 -8.8,0 -17.1,-2 -24.8,-5.9 l -0.5,6.5 -14.9,-2.1 c 1.4,-6.9 2.2,-11.8 2.2,-14.8 0,-2.7 -0.3,-5.2 -0.8,-7.4 -0.5,-2.2 -1.5,-5.7 -2.8,-10.6 l 14.5,-2.6 2.1,8.9 c 1.1,4.8 3.9,8.3 8.4,10.5 4.4,2.2 9.7,3.3 15.7,3.3 5.7,0 10.8,-1.2 15.5,-3.6 4.7,-2.4 7,-6.2 7,-11.3 0,-3 -0.8,-5.3 -2.3,-6.8 -1.5,-1.5 -3.5,-2.4 -6.1,-3 -2.6,-0.5 -6.6,-1.1 -12.1,-1.6 -4.7,-0.5 -8.7,-1.1 -12.1,-1.8 -3.4,-0.7 -7,-2 -10.9,-3.8 -3.8,-1.9 -7,-4.7 -9.6,-8.4 -2.6,-3.7 -3.9,-8.4 -3.9,-14.2 0,-3.9 1,-7.7 3,-11.3 2,-3.6 4.4,-6.7 7.4,-9.2 3.4,-2.9 7.3,-5.1 11.7,-6.6 4.4,-1.5 9.1,-2.3 14.1,-2.3 7,0 14.3,1.9 22,5.7 l 0.8,-6 z"
           id="path116"
           inkscape:connector-curvature="0"
           style="fill:#ffffff" /><path
           d="m 1203.3,394.9 30.8,0 17.9,48.2 17.9,-48.2 30.8,0 0,13.8 -11.5,0 0,64.6 11.5,0 0,13.7 -41,0 0,-13.8 14.8,0 0,-55.2 -0.3,0 -17.7,48 -8.8,0 -17.7,-48 -0.3,0 0,55.3 14.7,0 0,13.7 -41,0 0,-13.8 11.5,0 0,-64.6 -11.5,0 0,-13.7 z"
           id="path118"
           inkscape:connector-curvature="0"
           style="fill:#ffffff" /></g><g
         display="inline"
         id="g120"
         style="display:inline"><path
           d="m 1374.1,392.4 c 3.6,0 7,0.5 10.2,1.6 3.2,1.1 6.1,2.6 8.6,4.7 2.5,2.1 4.4,4.7 5.9,7.9 1.5,3.2 2.2,6.8 2.2,11.1 0,3.5 -0.5,6.8 -1.6,9.8 -1.1,3 -2.5,5.9 -4.4,8.7 -1.8,2.8 -4,5.5 -6.4,8.1 -2.4,2.6 -5,5.3 -7.7,8 l -29.3,29.9 c 1.4,-0.4 2.9,-0.6 4.4,-0.8 1.5,-0.2 3.1,-0.3 4.6,-0.3 l 40.4,0 c 0.7,0 1.3,0.2 1.7,0.6 0.4,0.4 0.6,1 0.6,1.6 l 0,3.7 -60.4,0 0,-2.2 c 0,-0.5 0.1,-1 0.4,-1.5 0.2,-0.5 0.5,-0.9 0.9,-1.3 l 31.9,-32.3 c 2.6,-2.7 5.1,-5.3 7.3,-7.8 2.3,-2.5 4.2,-5 5.9,-7.6 1.7,-2.6 3,-5.2 3.9,-7.9 1,-2.7 1.4,-5.6 1.4,-8.6 0,-3.4 -0.6,-6.4 -1.7,-9 -1.1,-2.5 -2.7,-4.6 -4.6,-6.2 -1.9,-1.6 -4.1,-2.8 -6.6,-3.6 -2.5,-0.8 -5.1,-1.2 -7.8,-1.2 -2.9,0 -5.7,0.5 -8.2,1.4 -2.5,0.9 -4.7,2.2 -6.6,3.8 -1.9,1.6 -3.5,3.5 -4.8,5.8 -1.3,2.2 -2.1,4.7 -2.6,7.3 -0.4,1.5 -1.3,2.3 -2.6,2.3 -0.1,0 -0.2,0 -0.3,0 -0.1,0 -0.2,0 -0.3,0 l -3.2,-0.5 c 0.5,-4 1.6,-7.6 3.3,-10.7 1.7,-3.1 3.7,-5.8 6.2,-7.9 2.5,-2.2 5.4,-3.8 8.7,-4.9 3.2,-1.4 6.8,-2 10.6,-2 z"
           id="path122"
           inkscape:connector-curvature="0"
           style="fill:#ffffff" /><path
           d="m 1482.9,440.2 c 0,8.2 -0.9,15.3 -2.6,21.3 -1.8,6 -4.2,11 -7.2,14.9 -3,3.9 -6.6,6.8 -10.7,8.8 -4.1,1.9 -8.4,2.9 -13.1,2.9 -4.7,0 -9,-1 -13,-2.9 -4.1,-1.9 -7.6,-4.8 -10.6,-8.8 -3,-3.9 -5.4,-8.9 -7.2,-14.9 -1.7,-6 -2.6,-13.1 -2.6,-21.3 0,-8.2 0.9,-15.3 2.6,-21.3 1.7,-6 4.1,-11 7.2,-14.9 3,-3.9 6.6,-6.8 10.6,-8.8 4.1,-1.9 8.4,-2.9 13,-2.9 4.6,0 9,1 13.1,2.9 4.1,1.9 7.6,4.8 10.7,8.8 3,3.9 5.4,8.9 7.2,14.9 1.7,6 2.6,13.1 2.6,21.3 z m -6.6,0 c 0,-7.6 -0.7,-14.1 -2.2,-19.4 -1.5,-5.4 -3.4,-9.8 -5.8,-13.2 -2.4,-3.4 -5.3,-5.9 -8.6,-7.5 -3.3,-1.6 -6.7,-2.4 -10.4,-2.4 -3.6,0 -7.1,0.8 -10.3,2.4 -3.3,1.6 -6.1,4.1 -8.6,7.5 -2.5,3.4 -4.4,7.8 -5.9,13.2 -1.5,5.4 -2.2,11.9 -2.2,19.4 0,7.6 0.7,14.1 2.2,19.5 1.5,5.4 3.4,9.7 5.9,13.2 2.5,3.4 5.3,5.9 8.6,7.5 3.3,1.6 6.7,2.3 10.3,2.3 3.6,0 7.1,-0.8 10.4,-2.3 3.3,-1.6 6.1,-4.1 8.6,-7.5 2.4,-3.4 4.4,-7.8 5.8,-13.2 1.5,-5.4 2.2,-11.9 2.2,-19.5 z"
           id="path124"
           inkscape:connector-curvature="0"
           style="fill:#ffffff" /><path
           d="m 1508.2,482.2 21.5,0 0,-76 c 0,-1.5 0.1,-3.1 0.2,-4.8 l -20.6,18.3 c -0.4,0.4 -1,0.6 -1.6,0.6 -0.7,0 -1.3,-0.3 -1.7,-0.8 l -1.9,-2.6 27,-23.9 4.9,0 0,89.1 20.4,0 0,4.8 -48.2,0 0,-4.7 z"
           id="path126"
           inkscape:connector-curvature="0"
           style="fill:#ffffff" /><path
           d="m 1606,431.1 c 4,0 7.7,0.7 11.1,2 3.4,1.3 6.3,3.2 8.8,5.6 2.4,2.4 4.4,5.3 5.7,8.7 1.4,3.4 2.1,7.2 2.1,11.5 0,4.2 -0.8,8.1 -2.3,11.7 -1.5,3.6 -3.6,6.7 -6.3,9.3 -2.7,2.6 -6,4.6 -9.8,6.1 -3.8,1.5 -8,2.2 -12.5,2.2 -4.4,0 -8.4,-0.7 -12,-2.1 -3.6,-1.4 -6.7,-3.4 -9.3,-6.1 -2.6,-2.6 -4.6,-5.9 -6,-9.7 -1.4,-3.8 -2.1,-8.1 -2.1,-12.9 0,-3.7 0.9,-7.8 2.8,-12.4 1.9,-4.6 4.9,-9.8 9.1,-15.5 l 25.5,-34.4 c 0.7,-1 1.9,-1.5 3.4,-1.5 l 5.6,0 -27.9,36.4 c -1.4,1.8 -2.6,3.5 -3.8,5.1 -1.1,1.6 -2.2,3.2 -3.1,4.7 2.6,-2.7 5.7,-4.8 9.3,-6.3 3.5,-1.6 7.4,-2.4 11.7,-2.4 z m -26.4,27.7 c 0,3.5 0.5,6.7 1.6,9.7 1.1,3 2.6,5.5 4.6,7.6 2,2.1 4.4,3.8 7.3,5 2.9,1.2 6.1,1.8 9.7,1.8 3.8,0 7.2,-0.6 10.2,-1.8 3,-1.2 5.6,-2.8 7.8,-4.9 2.1,-2.1 3.8,-4.6 4.9,-7.5 1.1,-2.9 1.7,-6 1.7,-9.4 0,-3.6 -0.6,-6.8 -1.7,-9.7 -1.1,-2.9 -2.7,-5.3 -4.8,-7.3 -2,-2 -4.5,-3.5 -7.3,-4.6 -2.8,-1.1 -6,-1.6 -9.4,-1.6 -3.9,0 -7.4,0.7 -10.4,2 -3.1,1.3 -5.7,3.1 -7.8,5.2 -2.1,2.1 -3.7,4.6 -4.8,7.3 -1.1,2.7 -1.6,5.4 -1.6,8.2 z"
           id="path128"
           inkscape:connector-curvature="0"
           style="fill:#ffffff" /></g></g><g
       display="none"
       id="g130"
       style="display:none"><path
         display="inline"
         d="m 1010.1,562.3 c -1.1,2.3 -2.6,4.2 -4.6,5.6 -3.6,2.7 -7.9,4.1 -12.9,4.1 -5.4,0 -10.3,-1.6 -14.7,-4.7 -7.1,-4.9 -10.6,-13.2 -10.6,-24.8 0,-8.4 2,-15.1 5.9,-20.1 2.3,-2.9 5.1,-5.2 8.6,-6.8 3.4,-1.6 7.2,-2.4 11.3,-2.4 2.8,0 5.4,0.4 7.9,1.3 2.5,0.8 4.4,2 6,3.5 1,1 1.9,2.4 2.7,4 l 0,-7.5 6.6,0 0,20 -6.6,0 c -0.1,-3.6 -1,-6.6 -2.5,-8.9 -1.4,-2.2 -3.6,-3.8 -6.4,-4.8 -2.2,-0.8 -4.5,-1.2 -6.9,-1.2 -6.3,0 -11,2.4 -14.2,7.2 -2.7,4.2 -4.1,9.4 -4.1,15.6 0,6.5 1.3,11.8 3.8,16 1.4,2.3 3.5,4.2 6.1,5.5 2.4,1.2 5.1,1.9 7.9,1.9 4.5,0 8.3,-1.4 11.4,-4.1 3.5,-3.1 5.2,-7.5 5.2,-13.2 l -8.7,0 0,-5.6 23.2,0 0,5.6 -7.5,0 0,22.4 -7,0 0,-8.6 z"
         id="path132"
         inkscape:connector-curvature="0"
         style="display:inline;fill:#ffffff" /><path
         display="inline"
         d="m 1040.9,540.1 c 0.5,-3 1.8,-5.3 3.8,-7 2.2,-1.8 4.8,-2.8 8,-2.8 1,0 2.1,0.1 3.1,0.4 l 0,6.3 c -1.1,-0.8 -2.3,-1.2 -3.6,-1.2 -2.9,0 -5.4,1.1 -7.3,3.3 -2.3,2.6 -3.4,6.4 -3.4,11.4 l 0,15 7.7,0 0,5.2 -21.8,0 0,-5.2 6.9,0 0,-29 -6.9,0 0,-5.2 13.4,0 0,8.8 z"
         id="path134"
         inkscape:connector-curvature="0"
         style="display:inline;fill:#ffffff" /><path
         display="inline"
         d="m 1074.2,531.3 0,34.2 5.4,0 0,5.2 -19.6,0 0,-5.2 7.1,0 0,-29 -7.1,0 0,-5.2 14.2,0 z m -8.3,-16.9 7.9,0 0,7.7 -7.9,0 0,-7.7 z"
         id="path136"
         inkscape:connector-curvature="0"
         style="display:inline;fill:#ffffff" /><path
         display="inline"
         d="m 1095.3,536.6 0,23.3 c 0,2.5 0.3,4.1 1,5 0.7,1 1.8,1.5 3.2,1.5 1.9,0 3.2,-0.9 3.8,-2.7 0.3,-0.9 0.5,-2.6 0.6,-5 l 5.2,0 c 0,4.1 -0.6,7 -1.6,8.8 -1.8,2.9 -4.9,4.4 -9.2,4.4 -2.8,0 -5.1,-0.7 -6.9,-2.2 -1.2,-1 -2.1,-2.2 -2.4,-3.6 -0.5,-1.6 -0.7,-3.7 -0.7,-6.2 l 0,-23.3 -7.1,0 0,-5.2 7.1,0 0,-8.7 7.1,-2.6 0,11.3 12.2,0 0,5.2 -12.3,0 z"
         id="path138"
         inkscape:connector-curvature="0"
         style="display:inline;fill:#ffffff" /><path
         display="inline"
         d="m 1128.7,514.4 4.3,0 0,70.5 -4.3,0 0,-70.5 z"
         id="path140"
         inkscape:connector-curvature="0"
         style="display:inline;fill:#ffffff" /><path
         display="inline"
         d="m 1197.1,562.3 c -1.1,2.3 -2.6,4.2 -4.6,5.6 -3.6,2.7 -7.9,4.1 -12.9,4.1 -5.4,0 -10.3,-1.6 -14.7,-4.7 -7.1,-4.9 -10.6,-13.2 -10.6,-24.8 0,-8.4 2,-15.1 5.9,-20.1 2.3,-2.9 5.1,-5.2 8.6,-6.8 3.4,-1.6 7.2,-2.4 11.3,-2.4 2.8,0 5.4,0.4 7.9,1.3 2.5,0.8 4.4,2 6,3.5 1,1 1.9,2.4 2.7,4 l 0,-7.5 6.6,0 0,20 -6.6,0 c -0.1,-3.6 -1,-6.6 -2.5,-8.9 -1.4,-2.2 -3.6,-3.8 -6.4,-4.8 -2.2,-0.8 -4.5,-1.2 -6.9,-1.2 -6.3,0 -11,2.4 -14.2,7.2 -2.7,4.2 -4.1,9.4 -4.1,15.6 0,6.5 1.3,11.8 3.8,16 1.4,2.3 3.5,4.2 6.1,5.5 2.4,1.2 5.1,1.9 7.9,1.9 4.5,0 8.3,-1.4 11.4,-4.1 3.5,-3.1 5.2,-7.5 5.2,-13.2 l -8.7,0 0,-5.6 23.2,0 0,5.6 -7.5,0 0,22.4 -7,0 0,-8.6 z"
         id="path142"
         inkscape:connector-curvature="0"
         style="display:inline;fill:#ffffff" /><path
         display="inline"
         d="m 1247.3,562.2 c -0.4,2 -1.2,3.8 -2.5,5.3 -1.3,1.5 -2.8,2.6 -4.4,3.2 -1.6,0.6 -3.7,1 -6.2,1 -4.8,0 -8.3,-1.4 -10.5,-4.3 -1.4,-1.8 -2.2,-3.7 -2.5,-6 -0.2,-1.5 -0.3,-3.2 -0.3,-5 l 0,-19.9 -7.1,0 0,-5.2 14.2,0 0,25.1 c 0,3.3 0.7,5.7 2,7.4 1.3,1.7 3.3,2.5 6,2.5 3.8,0 6.6,-1.6 8.5,-4.9 1.3,-2.3 2,-5.3 2,-9 l 0,-15.8 -7.6,0 0,-5.2 14.8,0 0,34.2 6.7,0 0,5.2 -13,0 0,-8.6 z"
         id="path144"
         inkscape:connector-curvature="0"
         style="display:inline;fill:#ffffff" /><path
         display="inline"
         d="m 1275.2,536.6 0,23.3 c 0,2.5 0.3,4.1 1,5 0.7,1 1.8,1.5 3.2,1.5 1.9,0 3.2,-0.9 3.8,-2.7 0.3,-0.9 0.5,-2.6 0.6,-5 l 5.2,0 c 0,4.1 -0.6,7 -1.6,8.8 -1.8,2.9 -4.9,4.4 -9.2,4.4 -2.8,0 -5.1,-0.7 -6.9,-2.2 -1.2,-1 -2.1,-2.2 -2.4,-3.6 -0.5,-1.6 -0.7,-3.7 -0.7,-6.2 l 0,-23.3 -7.1,0 0,-5.2 7.1,0 0,-8.7 7.1,-2.6 0,11.3 12.2,0 0,5.2 -12.3,0 z"
         id="path146"
         inkscape:connector-curvature="0"
         style="display:inline;fill:#ffffff" /><path
         display="inline"
         d="m 1319.8,536.3 0,-5 5.7,0 0,12.9 -5.7,0 c 0,-1.6 -0.3,-2.9 -0.9,-4.1 -1.5,-2.9 -4.5,-4.4 -9,-4.4 -2.8,0 -4.9,0.6 -6.5,1.9 -1.3,1 -1.9,2.4 -1.9,4 0,1.5 0.4,2.6 1.2,3.4 0.8,0.8 2.5,1.4 4.9,1.8 l 4.9,0.8 c 2.8,0.4 4.8,0.9 6.1,1.3 4.9,1.8 7.4,5.2 7.4,10.2 0,4 -1.4,7.1 -4.3,9.3 -2.7,2.1 -6.2,3.1 -10.6,3.1 -3.6,0 -6.4,-0.7 -8.3,-2.1 -1.4,-0.9 -2.5,-2.4 -3.5,-4.3 l 0,5.5 -5.7,0 0,-13.6 5.7,0 c 0.1,1.5 0.4,2.9 1.1,4.2 0.8,1.5 2.1,2.8 3.8,3.7 1.6,0.8 3.3,1.2 5.2,1.2 2.1,0 4.1,-0.4 5.8,-1.3 2.1,-1.1 3.1,-2.7 3.1,-5 0,-2.2 -0.8,-3.7 -2.4,-4.6 -1,-0.6 -2.9,-1 -5.5,-1.4 l -4.5,-0.7 c -4.3,-0.6 -7.3,-1.7 -9,-3.3 -2,-1.8 -3,-4.4 -3,-7.7 0,-4.1 1.6,-7.1 4.9,-9.3 2.8,-1.8 6.1,-2.8 9.9,-2.8 3.8,0 6.7,0.9 8.8,2.7 0.8,1.1 1.6,2.2 2.3,3.6 z"
         id="path148"
         inkscape:connector-curvature="0"
         style="display:inline;fill:#ffffff" /><path
         display="inline"
         d="m 1347,514.4 4.3,0 0,70.5 -4.3,0 0,-70.5 z"
         id="path150"
         inkscape:connector-curvature="0"
         style="display:inline;fill:#ffffff" /><path
         display="inline"
         d="m 1415.4,562.3 c -1.1,2.3 -2.6,4.2 -4.6,5.6 -3.6,2.7 -7.9,4.1 -12.9,4.1 -5.4,0 -10.3,-1.6 -14.7,-4.7 -7.1,-4.9 -10.6,-13.2 -10.6,-24.8 0,-8.4 2,-15.1 5.9,-20.1 2.3,-2.9 5.1,-5.2 8.6,-6.8 3.4,-1.6 7.2,-2.4 11.3,-2.4 2.8,0 5.4,0.4 7.9,1.3 2.5,0.8 4.4,2 6,3.5 1,1 1.9,2.4 2.7,4 l 0,-7.5 6.6,0 0,20 -6.6,0 c -0.1,-3.6 -1,-6.6 -2.5,-8.9 -1.4,-2.2 -3.6,-3.8 -6.4,-4.8 -2.2,-0.8 -4.5,-1.2 -6.9,-1.2 -6.3,0 -11,2.4 -14.2,7.2 -2.7,4.2 -4.1,9.4 -4.1,15.6 0,6.5 1.3,11.8 3.8,16 1.4,2.3 3.5,4.2 6.1,5.5 2.4,1.2 5.1,1.9 7.9,1.9 4.5,0 8.3,-1.4 11.4,-4.1 3.5,-3.1 5.2,-7.5 5.2,-13.2 l -8.7,0 0,-5.6 23.2,0 0,5.6 -7.5,0 0,22.4 -7,0 0,-8.6 z"
         id="path152"
         inkscape:connector-curvature="0"
         style="display:inline;fill:#ffffff" /><path
         display="inline"
         d="m 1445.9,514.4 0,51.2 6.5,0 0,5.2 -20.1,0 0,-5.2 6.4,0 0,-45.9 -6.4,0 0,-5.2 13.6,0 z"
         id="path154"
         inkscape:connector-curvature="0"
         style="display:inline;fill:#ffffff" /><path
         display="inline"
         d="m 1476.1,530.3 c 6.5,0 11.5,2.2 15,6.5 3,3.7 4.5,8.5 4.5,14.3 0,5.5 -1.4,10.1 -4.3,13.8 -3.7,4.6 -8.8,6.9 -15.4,6.9 -6.3,0 -11.3,-2.1 -15,-6.4 -3.2,-3.7 -4.8,-8.5 -4.8,-14.5 0,-6.5 1.8,-11.5 5.5,-15 3.6,-3.8 8.5,-5.6 14.5,-5.6 z m -0.4,5.5 c -4,0 -7.2,1.7 -9.5,5 -1.8,2.6 -2.8,6 -2.8,10.2 0,4.2 1,7.7 3,10.4 2.3,3.2 5.4,4.8 9.3,4.8 4.6,0 8.1,-2.1 10.4,-6.2 1.3,-2.4 2,-5.4 2,-9 0,-4.1 -0.9,-7.5 -2.6,-10 -2.3,-3.4 -5.6,-5.2 -9.8,-5.2 z"
         id="path156"
         inkscape:connector-curvature="0"
         style="display:inline;fill:#ffffff" /><path
         display="inline"
         d="m 1513.1,540.1 c 0.5,-3 1.8,-5.3 3.8,-7 2.2,-1.8 4.8,-2.8 8,-2.8 1,0 2.1,0.1 3.1,0.4 l 0,6.3 c -1.1,-0.8 -2.3,-1.2 -3.6,-1.2 -2.9,0 -5.4,1.1 -7.3,3.3 -2.3,2.6 -3.4,6.4 -3.4,11.4 l 0,15 7.7,0 0,5.2 -21.8,0 0,-5.2 6.9,0 0,-29 -6.9,0 0,-5.2 13.4,0 0,8.8 z"
         id="path158"
         inkscape:connector-curvature="0"
         style="display:inline;fill:#ffffff" /><path
         display="inline"
         d="m 1550.3,570.9 -14.6,-34.3 -4.1,0 0,-5.2 18.3,0 0,5.2 -7.2,0 10.5,25.4 c 0.3,0.7 0.5,1.5 0.6,2.2 0.1,-0.7 0.4,-1.4 0.7,-2.2 l 10,-25.4 -7.2,0 0,-5.2 17.5,0 0,5.2 -3.8,0 -15.6,38 c -2.1,5.2 -3.9,8.3 -5.3,9.5 -1.6,1.3 -3.9,1.9 -7,1.9 -1.9,0 -3.5,-0.2 -4.9,-0.5 l 0,-5.4 c 1,0.2 2.4,0.3 4,0.3 1.4,0 2.5,-0.3 3.4,-1 0.7,-0.4 1.2,-1 1.5,-1.7 0.2,-0.4 0.6,-1.3 1.2,-2.6 l 2,-4.2 z"
         id="path160"
         inkscape:connector-curvature="0"
         style="display:inline;fill:#ffffff" /></g><g
       id="g162"><g
         id="g164"><path
           d="m 990,600 0,48.2 7.9,0 0,5.3 -23.1,0 0,-5.3 8,0 0,-41.2 c -2,2.1 -3.4,3.5 -4,4.1 -1.1,1.1 -3.8,3.2 -8,6.2 l 0,-7.3 c 3.1,-2.4 5.1,-3.9 6,-4.7 0.9,-0.8 2.8,-2.6 5.7,-5.4 l 7.5,0 z"
           id="path166"
           inkscape:connector-curvature="0"
           style="fill:#ffffff" /><path
           d="m 1012.5,625.5 c 0.8,-1.8 2,-3.2 3.5,-4.2 2.4,-1.5 5.1,-2.3 8.3,-2.3 4.9,0 8.9,1.7 11.8,5 2.6,3 3.9,7.1 3.9,12.4 0,5.3 -1.3,9.6 -4,12.8 -3,3.6 -7.4,5.4 -13.4,5.4 -5.5,0 -9.7,-1.5 -12.8,-4.6 -2.6,-2.6 -3.8,-5.9 -3.8,-9.8 0,-0.2 0,-0.5 0,-1 l 6.9,0 c 0.1,2.7 1,5 2.5,6.6 1.9,1.9 4.2,2.9 7,2.9 3.9,0 6.8,-1.6 8.7,-4.7 1.2,-2.1 1.8,-4.6 1.8,-7.6 0,-3.4 -0.9,-6.1 -2.6,-8.1 -1.8,-2.1 -4.3,-3.2 -7.5,-3.2 -3.4,0 -6.1,1.1 -8.1,3.3 -0.9,0.9 -1.5,2 -1.9,3.2 l -6.5,0 1,-31.6 30.2,0 0,5.3 -24.1,0 -0.9,20.2 z"
           id="path168"
           inkscape:connector-curvature="0"
           style="fill:#ffffff" /><path
           d="m 1070,630.6 17.7,0 0,6.1 -17.7,0 0,-6.1 z"
           id="path170"
           inkscape:connector-curvature="0"
           style="fill:#ffffff" /><path
           d="m 1114.2,600 0,48.2 7.9,0 0,5.3 -23.1,0 0,-5.3 8,0 0,-41.2 c -2,2.1 -3.4,3.5 -4,4.1 -1.1,1.1 -3.8,3.2 -8,6.2 l 0,-7.3 c 3.1,-2.4 5.1,-3.9 6,-4.7 0.9,-0.8 2.8,-2.6 5.7,-5.4 l 7.5,0 z"
           id="path172"
           inkscape:connector-curvature="0"
           style="fill:#ffffff" /><path
           d="m 1157.2,625.4 c -0.8,2.2 -2.1,4.1 -3.8,5.5 -2.6,2.1 -5.6,3.1 -9.1,3.1 -4.7,0 -8.4,-1.6 -11.3,-4.9 -2.6,-3 -3.9,-7 -3.9,-12.2 0,-5.5 1.4,-9.8 4.2,-13 3,-3.4 7.2,-5.1 12.4,-5.1 4.8,0 8.6,1.3 11.4,3.9 2.7,2.6 4.6,6 5.6,10.3 0.8,3.5 1.2,7.5 1.2,12.2 0,11.7 -2.4,19.9 -7.2,24.8 -3,3 -7,4.5 -12,4.5 -6.5,0 -10.8,-2.4 -13.1,-7.1 -1,-2.1 -1.5,-4.3 -1.6,-6.7 l 6.7,0 c 0.3,5.3 2.9,7.9 7.8,7.9 3.7,0 6.6,-1.7 8.9,-5.1 1.8,-2.7 2.9,-6.5 3.4,-11.6 0.3,-1.7 0.4,-3.9 0.4,-6.5 z M 1146,604.8 c -1.6,0 -3.1,0.4 -4.5,1.2 -1.4,0.8 -2.5,1.9 -3.3,3.2 -1.2,2.1 -1.8,4.7 -1.8,7.6 0,3.2 0.7,5.8 2.1,8 1.6,2.5 4.1,3.7 7.3,3.7 3.1,0 5.7,-1.2 7.7,-3.5 1.9,-2.2 2.8,-5 2.8,-8.3 0,-3.1 -0.8,-5.8 -2.3,-8 -1.9,-2.6 -4.6,-3.9 -8,-3.9 z"
           id="path174"
           inkscape:connector-curvature="0"
           style="fill:#ffffff" /><path
           d="m 1204.7,635.5 c 0.1,2.4 0.5,4.5 1.2,6.4 1.9,4.5 5.4,6.8 10.7,6.8 3,0 5.4,-0.6 7.2,-1.7 2.3,-1.5 3.5,-3.9 3.5,-7.2 0,-2 -0.5,-3.7 -1.6,-5 -0.7,-0.8 -1.5,-1.5 -2.4,-2 -1.2,-0.6 -2.6,-1.2 -4.3,-1.8 l -6.8,-2.5 c -4.8,-1.8 -8,-3.3 -9.6,-4.5 -2.9,-2.3 -4.4,-5.7 -4.4,-10.3 0,-4.8 1.7,-8.6 5.1,-11.3 2.9,-2.3 6.6,-3.4 11.3,-3.4 6.1,0 10.3,2.2 12.5,6.5 l 0,-5.5 6.2,0 0,17.7 -6.2,0 c -0.1,-2.5 -0.3,-4.5 -0.9,-6.1 -0.7,-2.3 -2.2,-4 -4.3,-5.3 -1.7,-1 -3.8,-1.5 -6.2,-1.5 -2.9,0 -5.2,0.7 -7,2 -2,1.5 -3,3.6 -3,6.4 0,1.8 0.5,3.3 1.4,4.5 0.9,1.2 3.1,2.4 6.4,3.6 l 8.7,3.2 c 4.1,1.5 6.8,2.8 8.1,4.1 2.9,2.6 4.4,6.2 4.4,10.8 0,4.6 -1.5,8.4 -4.6,11.2 -2.9,2.7 -6.9,4 -12,4 -7.2,0 -11.7,-2.4 -13.6,-7.3 l 0,6.2 -6.2,0 0,-18 6.4,0 z"
           id="path176"
           inkscape:connector-curvature="0"
           style="fill:#ffffff" /><path
           d="m 1276.5,641.9 c -0.3,2 -1,3.9 -2.1,5.6 -3,4.6 -7.9,6.9 -14.7,6.9 -4.9,0 -8.8,-1.1 -11.7,-3.3 -4.7,-3.7 -7.1,-9 -7.1,-16 0,-6.5 1.8,-11.6 5.4,-15.2 3.1,-3.2 7.5,-4.9 13,-4.9 9.2,0 14.8,4 16.9,12 0.6,2.4 0.9,5.4 0.9,9.2 l -29.6,0 c 0.1,3 0.8,5.5 2.3,7.8 2.2,3.4 5.7,5.1 10.2,5.1 4.5,0 7.7,-1.5 9.6,-4.6 0.5,-0.7 0.8,-1.6 1,-2.7 l 5.9,0 z m -28.9,-10.5 22.8,0 c -0.1,-2.9 -0.9,-5.3 -2.4,-7.3 -2,-2.5 -4.9,-3.8 -8.6,-3.8 -4.5,0 -7.8,1.8 -10,5.5 -0.9,1.5 -1.5,3.4 -1.8,5.6 z"
           id="path178"
           inkscape:connector-curvature="0"
           style="fill:#ffffff" /><path
           d="m 1293.6,624.7 c 0.3,-1.5 0.7,-2.7 1.2,-3.6 0.5,-0.9 1.3,-1.9 2.5,-2.8 2.5,-2.1 5.6,-3.1 9.5,-3.1 5,0 9.1,1.6 12.1,4.9 1.7,1.8 2.9,3.9 3.6,6.3 0.8,2.3 1.1,5.2 1.1,8.6 0,5 -1.1,9.2 -3.3,12.5 -3.1,4.7 -7.7,7.1 -13.8,7.1 -3.5,0 -6.4,-0.9 -8.9,-2.7 -1.5,-1.2 -2.6,-2.4 -3.3,-3.8 -0.2,-0.5 -0.5,-1.2 -0.7,-2.2 l 0,16.3 6.2,0 0,5 -19.5,0 0,-5 6.4,0 0,-41.2 -6.4,0 0,-5 13.2,0 0,8.7 z m 11.5,-4.4 c -3.6,0 -6.4,1.5 -8.7,4.4 -1.8,2.5 -2.7,5.8 -2.7,10 0,4 0.8,7.2 2.3,9.6 2.1,3.2 5.1,4.9 9,4.9 2.8,0 5.2,-0.9 7.2,-2.6 2.9,-2.5 4.4,-6.4 4.4,-11.8 0,-4.1 -0.9,-7.4 -2.7,-10.1 -2.2,-2.9 -5.1,-4.4 -8.8,-4.4 z"
           id="path180"
           inkscape:connector-curvature="0"
           style="fill:#ffffff" /><path
           d="m 1339.1,621 0,22.1 c 0,2.4 0.3,3.9 0.9,4.7 0.7,0.9 1.7,1.4 3.1,1.4 1.8,0 3,-0.8 3.6,-2.5 0.3,-0.9 0.4,-2.4 0.5,-4.7 l 5,0 c 0,3.9 -0.5,6.7 -1.5,8.3 -1.7,2.8 -4.6,4.2 -8.7,4.2 -2.7,0 -4.9,-0.7 -6.5,-2.1 -1.2,-1 -1.9,-2.1 -2.3,-3.4 -0.5,-1.5 -0.7,-3.5 -0.7,-5.8 l 0,-22.2 -6.7,0 0,-5 6.7,0 0,-8.3 6.8,-2.4 0,10.7 11.6,0 0,5 -11.8,0 z"
           id="path182"
           inkscape:connector-curvature="0"
           style="fill:#ffffff" /><path
           d="m 1391.9,641.9 c -0.3,2 -1,3.9 -2.1,5.6 -3,4.6 -7.9,6.9 -14.7,6.9 -4.9,0 -8.8,-1.1 -11.7,-3.3 -4.7,-3.7 -7.1,-9 -7.1,-16 0,-6.5 1.8,-11.6 5.4,-15.2 3.1,-3.2 7.5,-4.9 13,-4.9 9.2,0 14.8,4 16.9,12 0.6,2.4 0.9,5.4 0.9,9.2 l -29.6,0 c 0.1,3 0.8,5.5 2.3,7.8 2.2,3.4 5.7,5.1 10.2,5.1 4.5,0 7.7,-1.5 9.6,-4.6 0.5,-0.7 0.8,-1.6 1,-2.7 l 5.9,0 z m -28.8,-10.5 22.8,0 c -0.1,-2.9 -0.9,-5.3 -2.4,-7.3 -2,-2.5 -4.9,-3.8 -8.6,-3.8 -4.5,0 -7.8,1.8 -10,5.5 -0.9,1.5 -1.5,3.4 -1.8,5.6 z"
           id="path184"
           inkscape:connector-curvature="0"
           style="fill:#ffffff" /><path
           d="m 1432.4,623.4 c 0.4,-1.8 1.2,-3.3 2.5,-4.7 2.4,-2.4 5.3,-3.6 8.9,-3.6 3.6,0 6.6,1.1 8.8,3.3 2.2,2.2 3.4,5.4 3.4,9.4 l 0,20.7 5.9,0 0,5 -18.7,0 0,-5 6,0 0,-18.5 c 0,-3.1 -0.6,-5.5 -1.8,-7.1 -1.3,-1.7 -3.1,-2.6 -5.5,-2.6 -3.2,0 -5.6,1.5 -7.3,4.4 -1.1,1.9 -1.6,4.3 -1.6,7.3 l 0,16.6 5.9,0 0,5 -19.1,0 0,-5 6.4,0 0,-19.3 c 0,-2.8 -0.6,-4.9 -1.8,-6.4 -1.4,-1.6 -3.2,-2.5 -5.5,-2.5 -2.6,0 -4.8,1 -6.5,3 -1.3,1.5 -2.2,3.3 -2.6,5.4 -0.2,1.1 -0.3,2.6 -0.3,4.6 l 0,15.2 6,0 0,5 -19.3,0 0,-5 6.5,0 0,-27.6 -6.5,0 0,-5 12.4,0 0,7.7 c 2,-5.8 6.2,-8.7 12.4,-8.7 4.2,0 7.3,1.2 9.4,3.7 1,1.2 1.6,2.7 2,4.7 z"
           id="path186"
           inkscape:connector-curvature="0"
           style="fill:#ffffff" /><path
           d="m 1477.3,623.4 c 1,-2.7 2.6,-4.8 4.8,-6.2 2.2,-1.4 4.9,-2.1 8.1,-2.1 6.1,0 10.8,2.3 13.8,6.9 2.1,3.2 3.2,7.4 3.2,12.4 0,4.8 -0.7,8.6 -2.2,11.4 -3,5.8 -8.1,8.7 -15.1,8.7 -3.8,0 -7,-1 -9.5,-3 -1.8,-1.4 -3.1,-3.2 -3.9,-5.6 l 0,7.6 -12.4,0 0,-5 6.4,0 0,-43.6 -6.4,0 0,-5 13.2,0 0,23.5 z m 11.1,-3.1 c -1.8,0 -3.6,0.4 -5.2,1.3 -1.6,0.9 -3,2 -4,3.5 -1.7,2.4 -2.5,5.6 -2.5,9.6 0,4.2 1,7.7 2.9,10.3 2,2.8 5,4.2 8.8,4.2 3.9,0 6.9,-1.5 9.1,-4.5 1.9,-2.6 2.8,-5.9 2.8,-9.8 0,-3.9 -0.9,-7.2 -2.6,-9.8 -2.1,-3.2 -5.2,-4.8 -9.3,-4.8 z"
           id="path188"
           inkscape:connector-curvature="0"
           style="fill:#ffffff" /><path
           d="m 1548.1,641.9 c -0.3,2 -1,3.9 -2.1,5.6 -3,4.6 -7.9,6.9 -14.7,6.9 -4.9,0 -8.8,-1.1 -11.7,-3.3 -4.7,-3.7 -7.1,-9 -7.1,-16 0,-6.5 1.8,-11.6 5.4,-15.2 3.1,-3.2 7.5,-4.9 13,-4.9 9.2,0 14.8,4 16.9,12 0.6,2.4 0.9,5.4 0.9,9.2 l -29.6,0 c 0.1,3 0.8,5.5 2.3,7.8 2.2,3.4 5.7,5.1 10.2,5.1 4.5,0 7.7,-1.5 9.6,-4.6 0.5,-0.7 0.8,-1.6 1,-2.7 l 5.9,0 z m -28.8,-10.5 22.8,0 c -0.1,-2.9 -0.9,-5.3 -2.4,-7.3 -2,-2.5 -4.9,-3.8 -8.6,-3.8 -4.5,0 -7.8,1.8 -10,5.5 -1,1.5 -1.5,3.4 -1.8,5.6 z"
           id="path190"
           inkscape:connector-curvature="0"
           style="fill:#ffffff" /><path
           d="m 1565.2,624.4 c 0.5,-2.8 1.7,-5 3.6,-6.7 2.1,-1.8 4.6,-2.6 7.6,-2.6 1,0 2,0.1 3,0.4 l 0,6 c -1.1,-0.8 -2.2,-1.2 -3.5,-1.2 -2.8,0 -5.1,1 -6.9,3.1 -2.1,2.4 -3.2,6 -3.2,10.8 l 0,14.3 7.3,0 0,5 -20.7,0 0,-5 6.6,0 0,-27.5 -6.6,0 0,-5 12.7,0 0,8.4 z"
           id="path192"
           inkscape:connector-curvature="0"
           style="fill:#ffffff" /></g><g
         id="g194"><path
           d="m 1047.3,600.5 0,10 c 0,1.1 0.1,1.8 0.4,2.1 0.3,0.4 0.8,0.6 1.4,0.6 0.8,0 1.4,-0.4 1.6,-1.2 0.1,-0.4 0.2,-1.1 0.2,-2.1 l 2.3,0 c 0,1.8 -0.2,3 -0.7,3.8 -0.8,1.3 -2.1,1.9 -4,1.9 -1.2,0 -2.2,-0.3 -3,-1 -0.5,-0.4 -0.9,-1 -1,-1.5 -0.2,-0.7 -0.3,-1.6 -0.3,-2.6 l 0,-10 -3.1,0 0,-2.3 3.1,0 0,-3.7 3.1,-1.1 0,4.8 5.2,0 0,2.3 -5.2,0 z"
           id="path196"
           inkscape:connector-curvature="0"
           style="fill:#ffffff" /><path
           d="m 1060.8,601.1 c 0.7,-2.1 2.5,-3.2 5.3,-3.2 2,0 3.4,0.5 4.4,1.5 0.9,0.9 1.4,2.1 1.4,3.6 l 0,10 2.9,0 0,2.3 -8.7,0 0,-2.3 2.8,0 0,-8.7 c 0,-1 -0.1,-1.7 -0.3,-2.2 -0.5,-1.2 -1.5,-1.8 -3.2,-1.8 -1.5,0 -2.6,0.5 -3.4,1.5 -0.8,1 -1.2,2.3 -1.2,3.9 l 0,7.4 2.8,0 0,2.3 -8.8,0 0,-2.4 2.9,0 0,-19.7 -2.9,0 0,-2.3 6,0 0,10.1 z"
           id="path198"
           inkscape:connector-curvature="0"
           style="fill:#ffffff" /></g><g
         id="g200"><path
           d="m 1168.4,600.5 0,10 c 0,1.1 0.1,1.8 0.4,2.1 0.3,0.4 0.8,0.6 1.4,0.6 0.8,0 1.4,-0.4 1.6,-1.2 0.1,-0.4 0.2,-1.1 0.2,-2.1 l 2.3,0 c 0,1.8 -0.2,3 -0.7,3.8 -0.8,1.3 -2.1,1.9 -4,1.9 -1.2,0 -2.2,-0.3 -3,-1 -0.5,-0.4 -0.9,-1 -1,-1.5 -0.2,-0.7 -0.3,-1.6 -0.3,-2.6 l 0,-10 -3.1,0 0,-2.3 3.1,0 0,-3.7 3.1,-1.1 0,4.8 5.2,0 0,2.3 -5.2,0 z"
           id="path202"
           inkscape:connector-curvature="0"
           style="fill:#ffffff" /><path
           d="m 1181.9,601.1 c 0.7,-2.1 2.5,-3.2 5.3,-3.2 2,0 3.4,0.5 4.4,1.5 0.9,0.9 1.4,2.1 1.4,3.6 l 0,10 2.9,0 0,2.3 -8.7,0 0,-2.3 2.8,0 0,-8.7 c 0,-1 -0.1,-1.7 -0.3,-2.2 -0.5,-1.2 -1.5,-1.8 -3.2,-1.8 -1.5,0 -2.6,0.5 -3.4,1.5 -0.8,1 -1.2,2.3 -1.2,3.9 l 0,7.4 2.8,0 0,2.3 -8.8,0 0,-2.4 2.9,0 0,-19.7 -2.9,0 0,-2.3 6,0 0,10.1 z"
           id="path204"
           inkscape:connector-curvature="0"
           style="fill:#ffffff" /></g></g><g
       id="g206"><path
         d="m 1026.2,573.7 0,-13.5 c -1.1,2.1 -2.5,4.1 -4,5.9 -1.6,1.8 -3.4,3.4 -5.4,4.7 -2,1.3 -4.3,2.4 -6.7,3.1 -2.4,0.7 -5,1.1 -7.7,1.1 -4.3,0 -8.4,-0.8 -12.2,-2.5 -3.8,-1.7 -7.1,-3.9 -10,-6.7 -2.8,-2.8 -5.1,-6.1 -6.7,-10 -1.7,-3.8 -2.5,-7.9 -2.5,-12.2 0,-4.3 0.8,-8.4 2.5,-12.2 1.7,-3.8 3.9,-7.1 6.7,-10 2.8,-2.8 6.1,-5.1 10,-6.7 3.8,-1.7 7.9,-2.5 12.2,-2.5 2.8,0 5.3,0.3 7.7,1 2.4,0.6 4.5,1.5 6.5,2.6 2,1.1 3.8,2.4 5.4,3.9 1.6,1.5 3,3.1 4.2,4.7 l 0,-10.9 5.5,0 0,18.7 -6.1,0 c -1.1,-2.1 -2.4,-4.1 -4,-5.9 -1.6,-1.8 -3.4,-3.3 -5.4,-4.6 -2,-1.3 -4.2,-2.3 -6.6,-3 -2.4,-0.7 -4.8,-1.1 -7.4,-1.1 -3.6,0 -6.9,0.7 -10.1,2 -3.1,1.4 -5.9,3.2 -8.2,5.5 -2.3,2.3 -4.2,5.1 -5.5,8.2 -1.4,3.1 -2,6.5 -2,10.1 0,3.6 0.7,6.9 2,10.1 1.4,3.1 3.2,5.9 5.5,8.2 2.3,2.3 5.1,4.2 8.2,5.5 3.1,1.4 6.5,2 10.1,2 3.1,0 6,-0.6 8.8,-1.8 2.7,-1.2 5.2,-2.8 7.3,-4.9 2.1,-2.1 3.9,-4.5 5.2,-7.3 1.3,-2.8 2.2,-5.8 2.5,-9.1 l -23.8,0 0,-5.1 29.4,0 0,32.7 -5.4,0 z"
         id="path208"
         inkscape:connector-curvature="0"
         style="fill:#ffffff" /><path
         d="m 1065.5,532 c -1.9,0.1 -3.6,0.5 -5.2,1.2 -1.6,0.7 -3,1.6 -4.2,2.8 -1.2,1.2 -2.2,2.5 -3,4.1 -0.7,1.6 -1.1,3.3 -1.2,5.1 l 0,23 5.4,0 0,5.5 -16.3,0 0,-5.5 5.5,0 0,-35.4 -5.5,0 0,-5.4 11,0 0,7.4 c 0.5,-1 1.2,-1.9 2.1,-3 0.9,-1 2,-1.9 3.2,-2.8 1.2,-0.8 2.5,-1.5 3.9,-2.1 1.4,-0.6 2.9,-0.9 4.4,-0.9 l 0,6 z"
         id="path210"
         inkscape:connector-curvature="0"
         style="fill:#ffffff" /><path
         d="m 1070.2,573.7 0,-5.5 5.5,0 0,-35.4 -5.5,0 0,-5.4 11,0 0,40.8 5.4,0 0,5.5 -16.4,0 z m 4.8,-60 6.8,0 0,6.8 -6.8,0 0,-6.8 z"
         id="path212"
         inkscape:connector-curvature="0"
         style="fill:#ffffff" /><path
         d="m 1102.6,562.9 c 0,1.5 0.5,2.8 1.6,3.8 1.1,1 2.3,1.6 3.8,1.6 l 4.2,0 0,5.5 -4.2,0 c -1.5,0 -2.9,-0.3 -4.2,-0.8 -1.3,-0.6 -2.5,-1.3 -3.4,-2.3 -1,-1 -1.8,-2.1 -2.3,-3.5 -0.6,-1.3 -0.8,-2.7 -0.8,-4.2 l 0,-30 -5.5,0 0,-5.4 5.5,0 0,-10.5 5.4,0 0,10.5 9.5,0 0,5.4 -9.5,0 0,29.9 z"
         id="path214"
         inkscape:connector-curvature="0"
         style="fill:#ffffff" /><path
         d="m 1124.3,587.4 0,-73.7 4.5,0 0,73.7 -4.5,0 z"
         id="path216"
         inkscape:connector-curvature="0"
         style="fill:#ffffff" /><path
         d="m 1195.8,573.7 0,-13.5 c -1.1,2.1 -2.5,4.1 -4,5.9 -1.6,1.8 -3.4,3.4 -5.4,4.7 -2,1.3 -4.3,2.4 -6.7,3.1 -2.4,0.7 -5,1.1 -7.7,1.1 -4.3,0 -8.4,-0.8 -12.2,-2.5 -3.8,-1.7 -7.1,-3.9 -10,-6.7 -2.8,-2.8 -5.1,-6.1 -6.7,-10 -1.7,-3.8 -2.5,-7.9 -2.5,-12.2 0,-4.3 0.8,-8.4 2.5,-12.2 1.7,-3.8 3.9,-7.1 6.7,-10 2.8,-2.8 6.1,-5.1 10,-6.7 3.8,-1.7 7.9,-2.5 12.2,-2.5 2.8,0 5.3,0.3 7.7,1 2.4,0.6 4.5,1.5 6.5,2.6 2,1.1 3.8,2.4 5.4,3.9 1.6,1.5 3,3.1 4.2,4.7 l 0,-10.9 5.5,0 0,18.7 -6.1,0 c -1.1,-2.1 -2.4,-4.1 -4,-5.9 -1.6,-1.8 -3.4,-3.3 -5.4,-4.6 -2,-1.3 -4.2,-2.3 -6.6,-3 -2.4,-0.7 -4.8,-1.1 -7.4,-1.1 -3.6,0 -6.9,0.7 -10.1,2 -3.1,1.4 -5.9,3.2 -8.2,5.5 -2.3,2.3 -4.2,5.1 -5.5,8.2 -1.4,3.1 -2,6.5 -2,10.1 0,3.6 0.7,6.9 2,10.1 1.4,3.1 3.2,5.9 5.5,8.2 2.3,2.3 5.1,4.2 8.2,5.5 3.1,1.4 6.5,2 10.1,2 3.1,0 6,-0.6 8.8,-1.8 2.7,-1.2 5.2,-2.8 7.3,-4.9 2.1,-2.1 3.9,-4.5 5.2,-7.3 1.3,-2.8 2.2,-5.8 2.5,-9.1 l -23.8,0 0,-5.1 29.4,0 0,32.7 -5.4,0 z"
         id="path218"
         inkscape:connector-curvature="0"
         style="fill:#ffffff" /><path
         d="m 1259.1,568.3 0,5.4 -11,0 0,-7.4 c -0.6,1.1 -1.4,2.2 -2.5,3.3 -1.1,1.1 -2.3,2 -3.8,2.8 -1.5,0.8 -2.9,1.4 -4.5,1.9 -1.6,0.5 -3.2,0.7 -4.8,0.7 -5.8,0 -10.3,-1.6 -13.6,-4.7 -3.3,-3.1 -4.9,-7.5 -4.9,-13 l 0,-24.5 -5.4,0 0,-5.5 10.8,0 0,30 c 0,3.9 1.2,7 3.6,9.1 2.4,2.1 5.6,3.2 9.5,3.2 1.9,0 3.8,-0.4 5.6,-1.1 1.8,-0.7 3.5,-1.7 4.9,-2.9 1.4,-1.2 2.6,-2.7 3.5,-4.3 0.9,-1.7 1.4,-3.4 1.4,-5.4 l 0,-23 -5.4,0 0,-5.5 10.9,0 0,40.9 5.7,0 z"
         id="path220"
         inkscape:connector-curvature="0"
         style="fill:#ffffff" /><path
         d="m 1275.8,562.9 c 0,1.5 0.5,2.8 1.6,3.8 1.1,1 2.3,1.6 3.8,1.6 l 4.2,0 0,5.5 -4.2,0 c -1.5,0 -2.9,-0.3 -4.2,-0.8 -1.3,-0.6 -2.5,-1.3 -3.4,-2.3 -1,-1 -1.8,-2.1 -2.3,-3.5 -0.6,-1.3 -0.8,-2.7 -0.8,-4.2 l 0,-30 -5.5,0 0,-5.4 5.5,0 0,-10.5 5.4,0 0,10.5 9.5,0 0,5.4 -9.5,0 0,29.9 z"
         id="path222"
         inkscape:connector-curvature="0"
         style="fill:#ffffff" /><path
         d="m 1321.3,539 c -0.1,-2.2 -1.2,-4.1 -3.3,-5.6 -2.1,-1.5 -4.9,-2.2 -8.3,-2.2 -3.4,0 -6.1,0.6 -8.1,1.7 -2,1.1 -3,2.9 -3,5.2 0,2 0.7,3.6 2.1,4.7 1.4,1.1 3.2,1.8 5.4,2.2 l 9.2,1.9 c 3.9,0.7 7.1,2.3 9.5,4.8 2.4,2.5 3.6,5.6 3.6,9.4 0,2.2 -0.5,4.1 -1.4,5.9 -0.9,1.7 -2.2,3.2 -3.8,4.4 -1.6,1.2 -3.6,2.1 -5.9,2.7 -2.3,0.6 -4.8,0.9 -7.5,0.9 -2.6,0 -5,-0.4 -7.3,-1.2 -2.3,-0.8 -4.3,-1.9 -6,-3.3 -1.7,-1.4 -3,-3 -4,-4.9 -1,-1.9 -1.5,-3.8 -1.5,-5.9 l 5.5,0 c 0,1.3 0.3,2.6 1,3.8 0.7,1.2 1.6,2.3 2.8,3.2 1.2,0.9 2.6,1.7 4.2,2.2 1.6,0.5 3.3,0.8 5.1,0.8 3.9,0 7.1,-0.8 9.6,-2.4 2.4,-1.6 3.6,-3.7 3.6,-6.4 0,-2.1 -0.8,-3.9 -2.3,-5.6 -1.5,-1.6 -3.9,-2.7 -7,-3.3 l -8.7,-1.8 c -3.8,-0.7 -6.8,-2.1 -8.8,-4 -2,-1.9 -3,-4.7 -3,-8.3 0,-1.9 0.4,-3.5 1.2,-5 0.8,-1.5 1.9,-2.7 3.3,-3.8 1.4,-1 3.1,-1.8 5.1,-2.4 2,-0.5 4.2,-0.8 6.6,-0.8 2.8,0 5.1,0.4 7,1.3 1.9,0.9 3.6,2 5.1,3.4 l 0,-3.4 5.4,0 0,13 -5.4,0 0,-1.2 z"
         id="path224"
         inkscape:connector-curvature="0"
         style="fill:#ffffff" /><path
         d="m 1342,587.4 0,-73.7 4.5,0 0,73.7 -4.5,0 z"
         id="path226"
         inkscape:connector-curvature="0"
         style="fill:#ffffff" /><path
         d="m 1413.5,573.7 0,-13.5 c -1.1,2.1 -2.5,4.1 -4,5.9 -1.6,1.8 -3.4,3.4 -5.4,4.7 -2,1.3 -4.3,2.4 -6.7,3.1 -2.4,0.7 -5,1.1 -7.7,1.1 -4.3,0 -8.4,-0.8 -12.2,-2.5 -3.8,-1.7 -7.1,-3.9 -10,-6.7 -2.8,-2.8 -5.1,-6.1 -6.7,-10 -1.7,-3.8 -2.5,-7.9 -2.5,-12.2 0,-4.3 0.8,-8.4 2.5,-12.2 1.7,-3.8 3.9,-7.1 6.7,-10 2.8,-2.8 6.1,-5.1 10,-6.7 3.8,-1.7 7.9,-2.5 12.2,-2.5 2.8,0 5.3,0.3 7.7,1 2.4,0.6 4.5,1.5 6.5,2.6 2,1.1 3.8,2.4 5.4,3.9 1.6,1.5 3,3.1 4.2,4.7 l 0,-10.9 5.5,0 0,18.7 -6.1,0 c -1.1,-2.1 -2.4,-4.1 -4,-5.9 -1.6,-1.8 -3.4,-3.3 -5.4,-4.6 -2,-1.3 -4.2,-2.3 -6.6,-3 -2.4,-0.7 -4.8,-1.1 -7.4,-1.1 -3.6,0 -6.9,0.7 -10.1,2 -3.1,1.4 -5.9,3.2 -8.2,5.5 -2.3,2.3 -4.2,5.1 -5.5,8.2 -1.4,3.1 -2,6.5 -2,10.1 0,3.6 0.7,6.9 2,10.1 1.4,3.1 3.2,5.9 5.5,8.2 2.3,2.3 5.1,4.2 8.2,5.5 3.1,1.4 6.5,2 10.1,2 3.1,0 6,-0.6 8.8,-1.8 2.7,-1.2 5.2,-2.8 7.3,-4.9 2.1,-2.1 3.9,-4.5 5.2,-7.3 1.3,-2.8 2.2,-5.8 2.5,-9.1 l -23.8,0 0,-5.1 29.4,0 0,32.7 -5.4,0 z"
         id="path228"
         inkscape:connector-curvature="0"
         style="fill:#ffffff" /><path
         d="m 1444.2,573.7 -16.3,0 0,-5.5 5.5,0 0,-49 -5.5,0 0,-5.4 11,0 0,54.5 5.4,0 0,5.4 z"
         id="path230"
         inkscape:connector-curvature="0"
         style="fill:#ffffff" /><path
         d="m 1473.6,575.1 c -3.4,0 -6.5,-0.6 -9.5,-1.9 -3,-1.3 -5.6,-3 -7.8,-5.2 -2.2,-2.2 -4,-4.8 -5.2,-7.8 -1.3,-3 -1.9,-6.2 -1.9,-9.6 0,-3.4 0.6,-6.5 1.9,-9.5 1.3,-3 3,-5.6 5.2,-7.8 2.2,-2.2 4.8,-4 7.8,-5.2 3,-1.3 6.2,-1.9 9.5,-1.9 3.4,0 6.6,0.6 9.6,1.9 3,1.3 5.6,3 7.8,5.2 2.2,2.2 4,4.8 5.2,7.8 1.3,3 1.9,6.2 1.9,9.5 0,3.4 -0.6,6.6 -1.9,9.6 -1.3,3 -3,5.6 -5.2,7.8 -2.2,2.2 -4.8,4 -7.8,5.2 -3,1.3 -6.2,1.9 -9.6,1.9 z m 0,-5.5 c 2.7,0 5.2,-0.5 7.5,-1.5 2.3,-1 4.3,-2.3 6.1,-4 1.7,-1.7 3.1,-3.7 4.1,-6 1,-2.3 1.5,-4.8 1.5,-7.5 0,-2.6 -0.5,-5.1 -1.5,-7.4 -1,-2.3 -2.4,-4.3 -4.1,-6.1 -1.7,-1.7 -3.8,-3.1 -6.1,-4.1 -2.3,-1 -4.8,-1.5 -7.5,-1.5 -2.6,0 -5.1,0.5 -7.4,1.5 -2.3,1 -4.3,2.3 -6,4.1 -1.7,1.7 -3.1,3.8 -4.1,6.1 -1,2.3 -1.5,4.8 -1.5,7.4 0,2.7 0.5,5.2 1.5,7.5 1,2.3 2.4,4.3 4.1,6 1.7,1.7 3.7,3.1 6,4 2.3,1 4.8,1.5 7.4,1.5 z"
         id="path232"
         inkscape:connector-curvature="0"
         style="fill:#ffffff" /><path
         d="m 1528.7,532 c -1.9,0.1 -3.6,0.5 -5.2,1.2 -1.6,0.7 -3,1.6 -4.2,2.8 -1.2,1.2 -2.2,2.5 -3,4.1 -0.7,1.6 -1.1,3.3 -1.2,5.1 l 0,23 5.4,0 0,5.5 -16.3,0 0,-5.5 5.5,0 0,-35.4 -5.5,0 0,-5.4 11,0 0,7.4 c 0.5,-1 1.2,-1.9 2.1,-3 0.9,-1 2,-1.9 3.2,-2.8 1.2,-0.8 2.5,-1.5 3.9,-2.1 1.4,-0.6 2.9,-0.9 4.4,-0.9 l 0,6 z"
         id="path234"
         inkscape:connector-curvature="0"
         style="fill:#ffffff" /><path
         d="m 1541.9,527.4 14.6,37.8 14.6,-37.8 9.1,0 0,5.4 -5.4,0 -20.9,54.6 -9.2,0 0,-5.5 5.4,0 3.4,-8.8 -15.4,-40.2 -5.5,0 0,-5.4 9.3,0 z"
         id="path236"
         inkscape:connector-curvature="0"
         style="fill:#ffffff" /></g><g
       id="g238"><path
         d="m 925.1,482.1 0,-73.5 -11.9,0 0,-9.4 38.9,0 c 5.6,0 10.2,0.7 14.1,2 3.8,1.3 6.9,3.1 9.3,5.3 2.4,2.2 4.1,4.8 5.1,7.6 1,2.9 1.6,5.8 1.6,8.8 0,2.5 -0.3,4.7 -1,6.8 -0.7,2.1 -1.6,4 -2.7,5.7 -1.1,1.7 -2.5,3.2 -4,4.4 -1.5,1.3 -3.2,2.3 -5,3.1 2.5,0.8 4.7,1.9 6.8,3.3 2.1,1.4 3.9,3.1 5.4,5 1.5,1.9 2.7,4.1 3.6,6.5 0.9,2.4 1.3,5.1 1.3,8 0,2.8 -0.5,5.7 -1.5,8.7 -1,3 -2.8,5.8 -5.4,8.3 -2.6,2.5 -6.2,4.6 -10.8,6.3 -4.6,1.7 -10.5,2.5 -17.7,2.5 l -38,0 0,-9.4 11.9,0 z m 25.8,-43.6 c 3.4,0 6.2,-0.4 8.5,-1.2 2.3,-0.8 4.1,-1.9 5.6,-3.2 1.5,-1.3 2.4,-2.9 3,-4.7 0.6,-1.8 0.9,-3.7 0.9,-5.7 0,-2.4 -0.4,-4.5 -1.1,-6.4 -0.7,-1.9 -1.9,-3.4 -3.4,-4.7 -1.5,-1.3 -3.6,-2.3 -6.2,-2.9 -2.5,-0.7 -5.6,-1 -9.2,-1 l -11.1,0 0,29.9 13,0 z m -13,43.6 13.3,0 c 4.1,0 7.5,-0.4 10.3,-1.2 2.8,-0.8 5.1,-2 6.8,-3.5 1.7,-1.5 3,-3.3 3.8,-5.4 0.8,-2.1 1.2,-4.5 1.2,-7.1 0,-2.1 -0.4,-4.1 -1.1,-6 -0.7,-1.9 -1.9,-3.6 -3.6,-5.1 -1.7,-1.5 -3.9,-2.7 -6.6,-3.6 -2.8,-0.9 -6.2,-1.4 -10.2,-1.4 l -13.8,0 0,33.3 z"
         id="path240"
         inkscape:connector-curvature="0"
         style="fill:#ffffff" /><path
         d="m 997.1,445.4 c 0,-6.7 1.1,-12.9 3.3,-18.7 2.2,-5.8 5.3,-10.9 9.4,-15.2 4.1,-4.3 9.1,-7.7 15,-10.1 5.9,-2.5 12.5,-3.7 19.9,-3.7 7.4,0 14.1,1.2 20,3.7 5.9,2.5 10.9,5.9 15,10.2 4.1,4.3 7.3,9.4 9.4,15.2 2.2,5.8 3.3,12 3.3,18.7 0,6.6 -1.1,12.8 -3.3,18.6 -2.2,5.8 -5.3,10.8 -9.4,15.1 -4.1,4.3 -9.1,7.6 -15,10.1 -5.9,2.5 -12.6,3.7 -20,3.7 -7.4,0 -14.1,-1.2 -19.9,-3.7 -5.9,-2.5 -10.9,-5.8 -14.9,-10.1 -4.1,-4.3 -7.2,-9.3 -9.4,-15.1 -2.3,-5.8 -3.4,-12 -3.4,-18.7 z m 14.1,0 c 0,5.1 0.8,9.8 2.4,14.3 1.6,4.4 3.8,8.3 6.8,11.7 2.9,3.3 6.4,6 10.5,7.9 4.1,1.9 8.7,2.9 13.7,2.9 5.1,0 9.7,-1 13.8,-2.9 4.1,-1.9 7.7,-4.6 10.6,-7.9 2.9,-3.3 5.2,-7.2 6.7,-11.7 1.6,-4.4 2.4,-9.2 2.4,-14.3 0,-5.1 -0.8,-9.9 -2.4,-14.4 -1.6,-4.5 -3.8,-8.4 -6.7,-11.7 -2.9,-3.3 -6.4,-6 -10.6,-7.8 -4.1,-1.9 -8.7,-2.8 -13.8,-2.8 -5.1,0 -9.6,0.9 -13.7,2.8 -4.1,1.9 -7.6,4.5 -10.5,7.8 -2.9,3.3 -5.2,7.2 -6.8,11.7 -1.6,4.5 -2.4,9.3 -2.4,14.4 z"
         id="path242"
         inkscape:connector-curvature="0"
         style="fill:#ffffff" /><path
         d="m 1139.8,492.9 c -9.1,0 -17,-2.8 -23.7,-8.4 l 0,7 -10.8,0 0,-31 10.8,0 0,9.3 c 3.2,4.2 6.6,7.3 10.3,9.3 3.7,2 8,3 13.1,3 2.7,0 5.2,-0.4 7.4,-1.2 2.2,-0.8 4.1,-1.8 5.6,-3.2 1.5,-1.3 2.7,-2.9 3.6,-4.7 0.8,-1.8 1.2,-3.8 1.2,-5.9 0,-3 -0.7,-5.5 -2,-7.4 -1.4,-1.9 -3.2,-3.6 -5.6,-4.9 -2.3,-1.3 -5.1,-2.4 -8.2,-3.2 -3.1,-0.9 -6.5,-1.7 -10,-2.6 -3.6,-0.8 -7.1,-1.8 -10.3,-3 -3.3,-1.2 -6.1,-2.8 -8.5,-4.8 -2.4,-2 -4.4,-4.5 -5.8,-7.5 -1.4,-3 -2.1,-6.6 -2.1,-11 0,-4.1 0.7,-7.7 2.2,-10.9 1.5,-3.1 3.5,-5.7 6.2,-7.8 2.6,-2.1 5.7,-3.7 9.2,-4.7 3.5,-1.1 7.3,-1.6 11.3,-1.6 3.9,0 7.6,0.6 11.2,1.9 3.6,1.3 6.9,3.1 9.9,5.5 l 0,-5.9 10.8,0 0,26.2 -10.8,0 0,-6.6 c -2.5,-3.4 -5.2,-5.9 -8.3,-7.6 -3.1,-1.7 -6.8,-2.6 -11.2,-2.6 -3,0 -5.6,0.3 -7.8,1 -2.2,0.7 -4.1,1.6 -5.6,2.8 -1.5,1.2 -2.7,2.6 -3.4,4.2 -0.8,1.6 -1.2,3.4 -1.2,5.3 0,3.2 0.8,5.8 2.5,7.6 1.7,1.9 3.8,3.4 6.5,4.6 2.7,1.1 5.7,2.1 9.1,2.8 3.4,0.7 6.8,1.6 10.4,2.5 3.4,0.9 6.5,2.1 9.5,3.6 3,1.5 5.6,3.3 7.9,5.5 2.3,2.2 4.1,4.8 5.4,7.8 1.3,3 2,6.5 2,10.5 0,3.7 -0.7,7.1 -2.2,10.3 -1.5,3.2 -3.6,5.9 -6.2,8.2 -2.7,2.3 -5.9,4.1 -9.7,5.4 -4,1.5 -8.2,2.2 -12.7,2.2 z"
         id="path244"
         inkscape:connector-curvature="0"
         style="fill:#ffffff" /><path
         d="m 1192.5,408.5 -11.9,0 0,-9.4 30.8,0 13.5,33.4 13.2,33.6 27.1,-66.9 31.2,0 0,9.4 -11.8,0 0,73.5 11.8,0 0,9.4 -34.3,0 0,-9.4 10.7,0 0,-72.6 -33.2,81.9 -3.4,0 -33,-81.8 0,72.5 10.7,0 0,9.4 -33.2,0 0,-9.4 11.9,0 0,-73.6 z"
         id="path246"
         inkscape:connector-curvature="0"
         style="fill:#ffffff" /><path
         d="m 1375.8,397 c 3.6,0 7,0.5 10.2,1.6 3.2,1 6.1,2.6 8.5,4.7 2.5,2.1 4.4,4.7 5.9,7.9 1.5,3.1 2.2,6.8 2.2,11.1 0,3.5 -0.5,6.8 -1.6,9.8 -1.1,3 -2.5,5.9 -4.4,8.7 -1.8,2.8 -4,5.5 -6.4,8.1 -2.4,2.6 -5,5.3 -7.7,8 l -29.2,29.8 c 1.4,-0.4 2.9,-0.6 4.4,-0.8 1.5,-0.2 3,-0.3 4.6,-0.3 l 40.3,0 c 0.7,0 1.3,0.2 1.7,0.6 0.4,0.4 0.6,1 0.6,1.6 l 0,3.7 -60.3,0 0,-2.2 c 0,-0.5 0.1,-1 0.4,-1.5 0.2,-0.5 0.5,-0.9 0.9,-1.3 l 31.9,-32.3 c 2.6,-2.7 5.1,-5.3 7.3,-7.8 2.2,-2.5 4.2,-5 5.8,-7.6 1.6,-2.6 2.9,-5.2 3.9,-7.9 0.9,-2.7 1.4,-5.5 1.4,-8.6 0,-3.4 -0.6,-6.4 -1.7,-8.9 -1.1,-2.5 -2.7,-4.6 -4.6,-6.2 -1.9,-1.6 -4.1,-2.8 -6.6,-3.6 -2.5,-0.8 -5.1,-1.2 -7.8,-1.2 -2.9,0 -5.7,0.5 -8.2,1.4 -2.5,0.9 -4.7,2.2 -6.6,3.8 -1.9,1.6 -3.5,3.5 -4.8,5.7 -1.3,2.2 -2.1,4.7 -2.6,7.3 -0.4,1.5 -1.3,2.3 -2.6,2.3 -0.1,0 -0.2,0 -0.3,0 -0.1,0 -0.2,0 -0.3,0 l -3.2,-0.5 c 0.5,-4 1.6,-7.6 3.3,-10.7 1.7,-3.1 3.7,-5.8 6.2,-7.9 2.5,-2.2 5.4,-3.8 8.7,-4.9 3.4,-1.4 6.9,-1.9 10.7,-1.9 z"
         id="path248"
         inkscape:connector-curvature="0"
         style="fill:#ffffff" /><path
         d="m 1484.4,444.7 c 0,8.2 -0.9,15.3 -2.6,21.3 -1.8,6 -4.2,10.9 -7.2,14.9 -3,3.9 -6.6,6.8 -10.7,8.7 -4.1,1.9 -8.4,2.9 -13,2.9 -4.6,0 -9,-1 -13,-2.9 -4,-1.9 -7.6,-4.8 -10.6,-8.7 -3,-3.9 -5.4,-8.9 -7.2,-14.9 -1.7,-6 -2.6,-13.1 -2.6,-21.3 0,-8.2 0.9,-15.3 2.6,-21.3 1.7,-6 4.1,-10.9 7.2,-14.9 3,-3.9 6.6,-6.8 10.6,-8.7 4,-1.9 8.4,-2.9 13,-2.9 4.6,0 9,1 13,2.9 4.1,1.9 7.6,4.8 10.7,8.7 3,3.9 5.4,8.9 7.2,14.9 1.7,6 2.6,13.1 2.6,21.3 z m -6.6,0 c 0,-7.6 -0.7,-14 -2.2,-19.4 -1.5,-5.4 -3.4,-9.8 -5.8,-13.2 -2.4,-3.4 -5.3,-5.9 -8.6,-7.5 -3.3,-1.6 -6.7,-2.4 -10.3,-2.4 -3.6,0 -7,0.8 -10.3,2.4 -3.3,1.6 -6.1,4.1 -8.6,7.5 -2.5,3.4 -4.4,7.8 -5.9,13.2 -1.5,5.4 -2.2,11.8 -2.2,19.4 0,7.6 0.7,14.1 2.2,19.4 1.5,5.3 3.4,9.7 5.9,13.1 2.5,3.4 5.3,5.9 8.6,7.5 3.3,1.6 6.7,2.3 10.3,2.3 3.6,0 7.1,-0.8 10.3,-2.3 3.3,-1.6 6.1,-4 8.6,-7.5 2.4,-3.4 4.4,-7.8 5.8,-13.1 1.4,-5.3 2.2,-11.8 2.2,-19.4 z"
         id="path250"
         inkscape:connector-curvature="0"
         style="fill:#ffffff" /><path
         d="m 1509.6,486.6 21.5,0 0,-75.8 c 0,-1.5 0.1,-3.1 0.2,-4.8 l -20.6,18.3 c -0.4,0.4 -1,0.6 -1.6,0.6 -0.7,0 -1.3,-0.3 -1.7,-0.8 l -1.9,-2.6 27,-23.8 4.9,0 0,89 20.4,0 0,4.8 -48.1,0 0,-4.9 z"
         id="path252"
         inkscape:connector-curvature="0"
         style="fill:#ffffff" /><path
         d="m 1607.2,435.6 c 4,0 7.7,0.7 11.1,2 3.4,1.3 6.3,3.2 8.7,5.6 2.4,2.4 4.4,5.3 5.7,8.7 1.4,3.4 2.1,7.2 2.1,11.5 0,4.2 -0.8,8.1 -2.3,11.7 -1.5,3.6 -3.6,6.6 -6.3,9.2 -2.7,2.6 -6,4.6 -9.7,6.1 -3.7,1.5 -7.9,2.2 -12.5,2.2 -4.4,0 -8.3,-0.7 -11.9,-2.1 -3.6,-1.4 -6.7,-3.4 -9.3,-6.1 -2.6,-2.6 -4.6,-5.9 -6,-9.7 -1.4,-3.8 -2.1,-8.1 -2.1,-12.9 0,-3.7 0.9,-7.8 2.8,-12.4 1.8,-4.6 4.9,-9.8 9.1,-15.5 l 25.5,-34.3 c 0.7,-1 1.9,-1.5 3.4,-1.5 l 5.5,0 -27.9,36.4 c -1.4,1.8 -2.6,3.5 -3.8,5.1 -1.1,1.6 -2.2,3.1 -3.1,4.7 2.6,-2.7 5.7,-4.8 9.2,-6.3 3.7,-1.7 7.6,-2.4 11.8,-2.4 z m -26.3,27.6 c 0,3.5 0.5,6.7 1.6,9.6 1.1,2.9 2.6,5.5 4.6,7.6 2,2.1 4.4,3.8 7.3,5 2.9,1.2 6.1,1.8 9.6,1.8 3.8,0 7.2,-0.6 10.2,-1.8 3,-1.2 5.6,-2.8 7.8,-4.9 2.1,-2.1 3.8,-4.6 4.9,-7.5 1.1,-2.9 1.7,-6 1.7,-9.4 0,-3.6 -0.6,-6.8 -1.7,-9.7 -1.1,-2.9 -2.7,-5.3 -4.8,-7.3 -2,-2 -4.5,-3.5 -7.3,-4.6 -2.8,-1.1 -5.9,-1.6 -9.4,-1.6 -3.9,0 -7.3,0.7 -10.4,2 -3.1,1.3 -5.6,3.1 -7.8,5.2 -2.1,2.1 -3.7,4.6 -4.8,7.3 -1,2.8 -1.5,5.6 -1.5,8.3 z"
         id="path254"
         inkscape:connector-curvature="0"
         style="fill:#ffffff" /></g></g></svg>