<?xml version="1.0" encoding="UTF-8" standalone="no"?>
<!-- Generator: Adobe Illustrator 18.0.0, SVG Export Plug-In . SVG Version: 6.00 Build 0)  -->

<svg
   xmlns:dc="http://purl.org/dc/elements/1.1/"
   xmlns:cc="http://creativecommons.org/ns#"
   xmlns:rdf="http://www.w3.org/1999/02/22-rdf-syntax-ns#"
   xmlns:svg="http://www.w3.org/2000/svg"
   xmlns="http://www.w3.org/2000/svg"
   xmlns:xlink="http://www.w3.org/1999/xlink"
   xmlns:sodipodi="http://sodipodi.sourceforge.net/DTD/sodipodi-0.dtd"
   xmlns:inkscape="http://www.inkscape.org/namespaces/inkscape"
   version="1.1"
   id="Layer_1"
   x="0px"
   y="0px"
   viewBox="0 0 450.89996 524.79999"
   enable-background="new 0 0 736 674"
   xml:space="preserve"
   inkscape:version="0.91 r"
   sodipodi:docname="bosmLogo.svg"
   width="450.89996"
   height="524.79999"><metadata
     id="metadata171"><rdf:RDF><cc:Work
         rdf:about=""><dc:format>image/svg+xml</dc:format><dc:type
           rdf:resource="http://purl.org/dc/dcmitype/StillImage" /><dc:title></dc:title></cc:Work></rdf:RDF></metadata><defs
     id="defs169" /><sodipodi:namedview
     pagecolor="#ffffff"
     bordercolor="#666666"
     borderopacity="1"
     objecttolerance="10"
     gridtolerance="10"
     guidetolerance="10"
     inkscape:pageopacity="0"
     inkscape:pageshadow="2"
     inkscape:window-width="640"
     inkscape:window-height="480"
     id="namedview167"
     showgrid="false"
     fit-margin-top="0"
     fit-margin-left="0"
     fit-margin-right="0"
     fit-margin-bottom="0"
     inkscape:zoom="0.35014837"
     inkscape:cx="157.12118"
     inkscape:cy="251.59999"
     inkscape:window-x="53"
     inkscape:window-y="24"
     inkscape:window-maximized="0"
     inkscape:current-layer="Layer_1" /><path
     display="none"
     d="m 541.79999,617.8 c -245,0 -490.099999,0 -735.1,0 0,-242.6 0,-485.2 0,-727.7 245.000001,0 490.1,0 735.1,0 0,242.5 0,485.1 0,727.7 z M 85.399991,134.2 c 0,0 0,-0.1 0,0 -0.4,2 -0.9,4 -1.4,6 -0.1,0.2 -0.1,0.5 -0.1,0.7 -0.4,0.9 -1.2,1.7 -1.2,2.6 -0.6,12 -1.2,24.1 -1.7,36.1 0,3.3 0,6.6 -0.1,9.9 -0.2,0.6 -0.5,1.2 -0.5,1.8 -0.6,10.3 -1,20.6 -1.8,30.9 -0.8,11.6 -3.4,22.9 -8.9,33.4 -0.5,1 -1.9,2.1 -3,2.1 -3,0.1 -3.5,1.6 -3.5,4.1 0,3.2 -1.5,4.1 -4.7,3.2 -0.6,-0.1 -1.2,-0.1 -2.1,-0.3 0,2 0.2,3.8 -0.1,5.5 -0.1,1 -0.6,2.2 -1.3,2.8 -3.2,2.8 -3.3,3.2 0,5.8 2,1.6 1.7,2.8 -0.5,3.4 -2.3,0.7 -4.7,0.8 -7,1.4 -1.4,0.4 -2.6,1.3 -3.9,1.9 1.2,0.8 2.3,1.7 3.6,2.3 1.4,0.6 2.9,0.8 4.3,1.3 6,2.3 11.9,4.8 18,6.9 0.8,0.3 2.9,-0.5 3.1,-1.2 0.9,-2.9 3.1,-3.1 5.1,-2.4 2.7,1 5.5,2.3 7.7,4.1 1.9,1.5 3,2.2 5,0.2 2.4,-2.4 7.1,-3 9.4,-0.8 2.699999,2.6 5.599999,2.5 8.799999,2.4 5.6,-0.1 11.3,-0.6 16.8,0.3 3.4,0.5 5.4,0 7.7,-2.2 2.7,-2.7 6.1,-2.2 9.1,0.1 0.9,0.7 2.8,1 3.9,0.6 1.5,-0.6 2.8,-2 4,-3.2 2.8,-2.8 5.4,-2.6 8.5,0 1.2,1 3.8,1.4 5.4,0.8 4.8,-1.7 9.3,-4.1 14,-6.2 0.8,-0.3 1.7,-0.4 2.5,-0.6 3.6,-0.9 7.1,-1.8 11.6,-3 -1.4,-0.8 -2,-1.3 -2.6,-1.4 -3.1,-0.5 -6.3,-0.7 -9.3,-1.6 -1.1,-0.3 -2.8,-2.8 -2.5,-3.5 1.6,-3.3 -0.9,-5.4 -1.5,-8.1 -0.7,-2.9 -0.3,-6.1 -4.7,-6.2 -0.6,0 -1.3,-1.7 -1.6,-2.8 -0.6,-1.6 -0.9,-3.3 -1.4,-5.2 -1.4,0.6 -2.5,1 -4.1,1.6 -0.6,-1.6 -1,-3 -1.5,-4.4 -0.5,-1.3 -1,-2.6 -1.6,-3.8 -1.5,-2.9 -3.3,-5.7 -4.4,-8.8 -1.2,-3.1 -1.6,-6.5 -2.4,-9.8 -0.5,-6.2 -1.2,-12.5 -1.5,-18.7 -0.3,-6 -0.1,-12.1 -0.2,-18.1 -0.1,-8.4 -0.2,-16.8 -0.5,-25.2 -0.4,-9.7 -1,-19.3 -1.5,-29 0.1,-0.2 0.1,-0.5 0,-0.7 0,-0.3 0,-0.5 -0.1,-0.8 0.1,-2.6 0.3,-5.2 -2.8,-6.2 -2.7,-0.8 -5.5,-1.4 -8.3,-2 -5.5,-1.3 -11.1,-2.1 -16.4,-4 -5.3,-1.8 -10.5,-2.3 -15.8,-0.5 -1.7,0.6 -3.2,1.5 -4.9,2 -5.399999,1.7 -10.699999,3.2 -16.099999,4.8 -0.5,0.8 -0.8,1.2 -1,1.7 z"
     id="path3"
     inkscape:connector-curvature="0"
     style="display:none;fill:#ffffff" /><path
     display="none"
     d="m -339.10001,607.5 c 0,-321.8 0,-643.5 0,-965.3 321.800001,0 643.5,0 965.3,0 0,321.8 0,643.5 0,965.3 -321.7,0 -643.499999,0 -965.3,0 z"
     id="path5"
     inkscape:connector-curvature="0"
     style="display:none;fill:#ffffff" /><g
     id="g7"
     transform="translate(-160.90001,-63.8)"><path
       d="m 421.9,425.1 c -1,5.7 -6.7,7.7 -9.5,11.9 -2.3,3.6 -4.4,7.4 -6.6,11.3 3.3,1.3 5.5,2.6 7.9,2.9 1.7,0.2 4.5,-0.6 5.1,-1.7 2,-4.3 5.8,-5.5 9.7,-6.2 6.6,-1.2 13.1,-2.2 18.5,3.8 3.1,3.4 7.7,3.4 12,2.8 1.1,-0.2 2.1,-1.9 2.8,-3.1 1,-1.7 1.8,-3.7 4.1,-2.6 2.5,1.1 1.8,3.3 0.9,5.2 -2.7,6.3 -9.5,8.7 -17,5.6 -2.9,-1.2 -5.3,-3.8 -8.3,-5 -2.6,-1.1 -5.6,-1.7 -8.5,-1.6 -3.9,0.1 -7.7,0.6 -10,5 -2,3.8 -8,4.9 -12.1,3.1 -2,-0.9 -4.1,-1.4 -7.4,-2.5 -0.2,7.5 -0.7,14.1 -0.4,20.6 0.3,6.6 1.5,13.1 2,19.7 0.1,1 -1.1,2 -1.7,3.1 -0.5,0.9 -1.2,1.8 -1.3,2.7 -0.3,6.8 -0.3,13.5 -0.9,20.3 -0.2,3.1 -1.2,6.1 -2.2,9.1 -1.8,5.1 -0.1,10.1 0,15.1 0,3.8 -1.3,7.5 -2.2,11.3 -0.1,0.5 -1.6,1.1 -2.1,0.9 -1.2,-0.7 -3.1,-1.8 -3.1,-2.6 0.1,-5 0.6,-10.1 1.1,-15.1 0.2,-1.9 1.1,-3.8 1.1,-5.7 -0.1,-8.2 0.1,-16.5 -0.7,-24.7 -0.6,-6.3 -2.6,-12.4 -4,-18.7 -0.1,-0.4 -0.7,-0.6 -1.9,-1.7 -1.1,6.3 -2.3,11.9 -3,17.6 -0.1,1.2 1.4,3 2.6,3.9 2.1,1.5 3.5,3 3.4,5.7 -0.2,3.4 -0.2,6.8 -0.1,10.2 0,2.7 -1,4.9 -3.8,4.9 -2.8,0 -3,-2.5 -2.8,-4.7 0.2,-3.2 0.5,-6.5 0.7,-10.1 -1.7,-0.4 -3.5,-0.6 -5.2,-1.2 -0.9,-0.3 -2,-1.2 -2.3,-2 -0.6,-2.1 -1,-4.4 -1.2,-6.6 -0.4,-4 0.3,-8.2 -2.5,-11.7 -0.7,-0.9 -1.2,-2.6 -0.8,-3.5 2.3,-5.8 0.9,-12.1 4,-18 1.2,-2.3 5.5,-0.2 2.5,-20.3 -4.3,8.2 -10.6,9.7 -18.6,8.3 -6.3,-1.1 -12.7,-1.4 -19.1,-1.7 -1.5,-0.1 -3.4,1.1 -4.5,2.2 -4,3.9 -7.7,8.3 -11.9,12 -1,0.9 -3.7,0.5 -5.3,-0.2 -2.3,-1 -4.4,-2.8 -6.5,-4.2 -1.5,-1.1 -3.4,-2 -4.4,-3.4 -2,-2.7 -4.2,-4.3 -7.7,-4.7 -1.1,-0.1 -2.1,-2 -3.1,-3 1.3,-0.8 2.8,-2.5 4,-2.2 2.8,0.5 5.8,1.5 8.2,3.1 4.2,2.8 7.9,6.2 12.2,9.6 4.2,-4.6 7.6,-8.7 11.4,-12.4 1.6,-1.5 4.2,-2.6 6.2,-2.6 7.2,0.2 14.5,0.8 21.7,1.7 7.7,1 8.4,0.8 12.3,-5.8 0.8,-1.4 2.5,-2.2 3.4,-3 -0.5,-2.8 -0.5,-6.1 -1.7,-8.8 -1.4,-3.2 -3.9,-6 -5.9,-8.9 -0.4,-0.6 -1.5,-1 -1.5,-1.5 -0.2,-6.4 -6.2,-9.1 -8.8,-14 -1.6,-3 -3.3,-5.9 -4.5,-9.3 5.1,2.6 9.5,5.8 12.9,10.3 1.5,2 3.3,3.9 5.3,5.5 3,2.4 6.5,4.1 9.3,6.7 2.3,2.2 4.3,2 7.1,0.8 -0.5,-1 -0.7,-2.1 -1.3,-2.7 -3.2,-3.4 -2.3,-7.1 -0.9,-10.8 1,-2.9 3.3,-3.7 6.2,-3.7 2.8,0 4.2,1.6 4.9,3.7 1.2,3.3 2.9,6.7 -0.5,10 -0.6,0.6 -0.3,3.4 0.3,3.8 1.6,0.9 2.8,3.7 5.4,1.7 2.3,-1.8 4.7,-3.5 7.1,-5 1.5,-0.9 3.5,-1.1 5,-2.1 3.2,-2.2 6.2,-4.7 9.2,-7 0.9,-0.7 1.9,-1.2 2.9,-1.8 1,0.4 2.1,0.7 3.2,1.1 -2.5,3.2 -4.7,6 -6.8,8.7 l 0,0 c -0.5,0.7 -1.3,1.5 -2,2.2 z"
       id="path9"
       inkscape:connector-curvature="0"
       style="fill:#299c4c" /><path
       d="m 420.2,431.2 c 0.7,-0.7 1.4,-1.4 2.1,-2.2 -0.7,0.7 -1.4,1.4 -2.1,2.2 z"
       id="path11"
       inkscape:connector-curvature="0"
       style="fill:#3a9652" /><path
       display="none"
       d="m -100.4,769.8 c 0,-321.8 0,-643.5 0,-965.3 321.8,0 643.5,0 965.3,0 0,321.8 0,643.5 0,965.3 -321.7,0 -643.5,0 -965.3,0 z m 541.8,-374.2 0,0 c 1.7,-1.3 3.6,-2.3 5.1,-3.7 5.8,-5.3 11,-11.2 17.3,-15.8 4.2,-3.1 5.2,-7 6.1,-11.7 -2.7,0.7 -6,1.4 -6.9,3.3 -3.3,6.9 -8.9,10.5 -15.7,13 -0.5,0.2 -0.7,1.3 -1,2 -1.3,0.8 -2.6,1.5 -3.8,2.4 -4.1,3.1 -8.1,6.4 -12.3,9.3 -1.9,1.3 -4.6,1.6 -6.6,2.8 -3.3,2 -6.4,4.3 -9.5,6.6 -3.5,2.6 -5.1,-1.1 -7.2,-2.3 -0.9,-0.5 -1.3,-4.3 -0.4,-5 4.6,-4.4 2.3,-8.9 0.7,-13.3 -1,-2.9 -2.9,-5 -6.6,-5 -3.9,0.1 -6.9,1.2 -8.2,5 -1.8,4.9 -3,9.8 1.2,14.4 0.8,0.9 1.1,2.2 1.7,3.6 -3.7,1.6 -6.3,1.9 -9.4,-1 -3.7,-3.5 -8.4,-5.8 -12.4,-9 -2.6,-2.1 -5.1,-4.6 -7.1,-7.3 -4.5,-6 -10.4,-10.3 -17.1,-13.7 1.5,4.5 3.8,8.4 6,12.4 3.4,6.5 11.5,10.1 11.7,18.6 0,0.7 1.5,1.2 2,2 2.7,3.9 6,7.6 7.9,11.9 1.6,3.6 1.6,7.9 2.2,11.7 -1.3,1.1 -3.5,2.2 -4.6,4 -5.3,8.8 -6.2,9 -16.4,7.7 -9.6,-1.3 -19.2,-2 -28.9,-2.3 -2.8,-0.1 -6.2,1.5 -8.3,3.4 -5.2,4.9 -9.7,10.4 -15.2,16.5 -5.7,-4.6 -10.7,-9.1 -16.3,-12.8 -3.2,-2.1 -7.1,-3.4 -10.9,-4.1 -1.5,-0.3 -3.5,1.9 -5.3,3 1.4,1.4 2.7,3.9 4.2,4 4.6,0.4 7.6,2.6 10.3,6.2 1.4,1.9 3.8,3.1 5.9,4.5 2.8,2 5.5,4.3 8.7,5.6 2.1,0.9 5.7,1.4 7,0.2 5.6,-5 10.5,-10.8 15.8,-16 1.6,-1.5 4.1,-3.1 6,-3 8.5,0.4 17.1,0.7 25.4,2.2 10.7,2 19,-0.1 24.8,-11 1.5,10.1 0.7,19.4 -3.4,27 -4.2,7.9 -2.2,16.3 -5.3,24 -0.5,1.2 0.2,3.5 1.1,4.7 3.7,4.7 2.8,10.3 3.3,15.6 0.3,3 0.7,5.9 1.6,8.8 0.3,1.1 1.8,2.3 3,2.7 2.2,0.8 4.6,1.1 6.9,1.6 -0.4,4.8 -0.7,9.1 -1,13.4 -0.2,3 0,6.2 3.8,6.3 3.8,0 5.2,-2.8 5.1,-6.5 -0.1,-4.5 0,-9.1 0.2,-13.6 0.2,-3.6 -1.7,-5.6 -4.5,-7.5 -1.6,-1.1 -3.6,-3.5 -3.4,-5.1 0.9,-7.5 2.5,-15 4,-23.4 1.7,1.4 2.5,1.7 2.6,2.2 1.9,8.3 4.5,16.5 5.3,24.8 1.1,10.9 0.9,21.9 1,32.9 0,2.5 -1.2,5 -1.4,7.6 -0.7,6.7 -1.4,13.4 -1.5,20.1 0,1.2 2.5,2.6 4.1,3.5 0.6,0.3 2.6,-0.5 2.7,-1.2 1.2,-5 3,-10 3,-15 -0.1,-6.7 -2.3,-13.3 0,-20.1 1.4,-3.9 2.6,-8 3,-12.1 0.7,-9 0.7,-18 1.2,-27 0.1,-1.2 1.1,-2.4 1.7,-3.6 0.8,-1.4 2.4,-2.8 2.3,-4.1 -0.8,-8.8 -2.3,-17.5 -2.7,-26.2 -0.4,-8.7 0.3,-17.5 0.5,-27.5 4.4,1.5 7.2,2.2 9.9,3.4 5.5,2.4 13.5,0.9 16.1,-4.2 3,-5.9 8.1,-6.6 13.4,-6.7 3.8,-0.1 7.8,0.7 11.3,2.1 3.9,1.6 7.1,5 11,6.6 9.9,4.2 19,1 22.6,-7.4 1.1,-2.6 2.1,-5.4 -1.2,-6.9 -3.2,-1.4 -4.2,1.2 -5.5,3.5 -0.9,1.6 -2.3,3.9 -3.7,4.1 -5.7,0.8 -11.9,0.8 -16,-3.8 -7.1,-8 -15.8,-6.7 -24.6,-5.1 -5.2,1 -10.2,2.6 -13,8.3 -0.7,1.6 -4.6,2.6 -6.8,2.3 -3.2,-0.4 -6.1,-2.2 -10.5,-3.9 3,-5.2 5.7,-10.3 8.8,-15 3.7,-5.7 11.3,-8.3 12.6,-15.9 0.6,-1 1.6,-2 2.5,-3 z"
       id="path13"
       inkscape:connector-curvature="0"
       style="display:none;fill:#ffffff" /></g><path
     d="m 421.79999,203.4 c 0.1,0.2 0.1,0.4 0.1,0.6 0,11.2 0.1,22.3 0.1,33.5 -0.3,0.9 -1,1.9 -0.8,2.8 1,7.2 -1.2,14.2 -3.6,20.4 -4.6,11.7 -8.7,24 -18.4,33.2 -6.7,6.3 -12.3,13.6 -19,19.9 -4.9,4.6 -10.5,8.6 -16.2,12.3 -3.8,2.6 -9.6,-1.2 -9.6,-5.9 0,-4.7 0.2,-9.4 -0.1,-14 -0.1,-2 -1.4,-3.9 -2.2,-5.9 0.7,-0.6 2,-1.3 2,-1.9 0,-5.6 -0.3,-11.2 -0.4,-16.8 0.2,-0.6 0.7,-1.4 0.5,-1.7 -2.4,-3.3 -1.1,-6.8 -0.7,-10.2 0.4,-3.5 0.8,-6.7 -0.5,-10.4 -1,-2.7 0.3,-6.3 0.6,-9.4 1.2,-2 2.9,-3.9 3.6,-6.2 1.1,-3.5 1.4,-7.2 2.1,-10.9 -0.2,0 -0.7,0 -1.2,0 -2.1,-2.3 -2.7,-4.7 -1.6,-7.7 0.8,-2.3 1,-4.8 1.5,-7 1.3,-0.8 2.7,-1.6 4.1,-2.4 0.9,-1.5 2.4,-3 2.6,-4.6 0.4,-5.1 5.6,-5.7 7.9,-9 1,-1.6 2.7,-2.8 4,-4.2 1.7,-1.9 3.5,-3.8 5.1,-5.8 0.8,-1 1.5,-2.1 2.1,-3.2 0.4,-0.7 0.4,-2 0.9,-2.3 4.3,-2.8 5.1,-7.6 6.9,-11.8 0.9,0.3 1.9,0.6 2.9,0.9 0.7,-7.2 4.3,-11 9.1,-9.7 0.1,-0.9 0.2,-1.7 0.3,-2.6 1.9,2.2 4.2,4.1 5.5,6.6 2.3,4.2 4.3,8.6 5.9,13.1 1.9,5.5 3.2,11.2 4.8,16.8 0.7,1 1.2,2.2 1.7,3.5 z"
     id="path15"
     inkscape:connector-curvature="0"
     style="fill:#d9242a" /><path
     d="m 279.99999,239.1 c 2.4,-0.8 4.7,-1.7 7.1,-2.5 0.5,-1.5 0.9,-3 1.4,-4.5 0.3,-1 0.5,-2.1 0.7,-3.2 2.9,4.6 3,4.5 8.1,2.3 3.2,-1.4 6.6,-2.1 9.9,-3.1 1.1,-0.4 2.7,-0.6 3.3,-1.5 2.7,-3.8 5.6,-7.4 9.5,-10.3 3,-2.2 5.6,-5.2 7.7,-8.2 1.9,-2.8 3,-6.2 4.4,-9.3 0.2,-0.5 0.2,-1.4 0.5,-1.6 4.8,-2.6 8.7,-6 11.5,-10.7 0.5,-0.8 1.6,-1.5 2.5,-1.6 1.7,-0.2 3.5,0 5.2,0 -0.7,1.5 -1.1,3.3 -2.1,4.5 -3.3,3.7 -7.1,6.9 -10.3,10.8 -4.4,5.4 -8.6,11 -9.9,18.2 -0.4,2 -2.3,3.7 -3.5,5.5 -3.7,5.8 -8.7,10.2 -14.6,13.6 -2.9,1.7 -5.8,3.6 -8.9,4.6 -3.8,1.2 -7.9,1.6 -11.8,2.5 -0.7,0.2 -1.7,0.7 -2,1.4 -1.4,4 -4.1,3.8 -7.2,2.3 -0.1,-0.9 -0.1,-2.4 -0.3,-2.5 -1.4,-0.1 -3.5,0.6 -4,0 -0.9,-1.1 -0.8,-3 -1,-4 1.6,-1.1 2.7,-1.9 3.8,-2.7 z"
     id="path17"
     inkscape:connector-curvature="0"
     style="fill:#d6282b" /><path
     d="m 394.39999,268.5 c -1.4,1 -2.8,2 -4.9,3.4 0.3,1.2 0.2,3.7 1.3,5.1 0.7,0.8 3.4,-0.2 5.2,0 0.3,0 0.3,2.1 0.4,3.2 -6.7,1.4 -6.8,1.4 -8,-5.5 -0.8,-4.3 -3.8,-5 -7.4,-4.4 -1.5,-3.3 -0.1,-4.6 2.9,-4.1 3.5,0.6 7,1.6 10.5,2.3 z"
     id="path19"
     inkscape:connector-curvature="0"
     style="fill:#b93736" /><path
     d="m 406.29999,255.4 c -0.3,1.4 -0.6,2.8 -1,4.1 -0.5,2 -1.2,3.9 -1.8,5.8 -0.9,-8.1 -1.8,-16.2 -2.8,-24.6 1.6,-0.3 3.4,-2.1 3.3,2.3 0,4.1 1.5,8.2 2.3,12.4 z"
     id="path21"
     inkscape:connector-curvature="0"
     style="fill:#b92c2d" /><path
     d="m 577.89999,222.3 c -0.6,-1.6 -1.3,-3.3 -1.9,-4.9 0.7,1.6 1.3,3.2 1.9,4.9 z"
     id="path23"
     inkscape:connector-curvature="0"
     style="fill:#b33d3a" /><path
     d="m 106.79999,268.8 c -0.2,0.9 -0.3,1.7 -0.5,2.6 0.2,-0.9 0.3,-1.8 0.5,-2.6 z"
     id="path25"
     inkscape:connector-curvature="0"
     style="fill:#2384bf" /><path
     d="m 154.19999,231.2 c 0.8,3.3 1.2,6.7 2.4,9.8 1.1,3.1 3,5.8 4.4,8.8 0.6,1.2 1.1,2.5 1.6,3.8 0.5,1.4 0.9,2.7 1.5,4.4 1.6,-0.6 2.7,-1 4.1,-1.6 0.5,1.8 0.8,3.5 1.4,5.2 0.4,1 1.1,2.8 1.6,2.8 4.5,0.1 4.1,3.3 4.7,6.2 0.6,2.7 3.1,4.8 1.5,8.1 -0.3,0.7 1.3,3.1 2.5,3.5 3,0.9 6.2,1.1 9.3,1.6 0.6,0.1 1.2,0.6 2.6,1.4 -4.4,1.1 -8,2.1 -11.6,3 -0.8,0.2 -1.7,0.3 -2.5,0.6 -4.7,2.1 -9.2,4.4 -14,6.2 -1.5,0.6 -4.2,0.2 -5.4,-0.8 -3,-2.5 -5.6,-2.8 -8.5,0 -1.2,1.2 -2.5,2.6 -4,3.2 -1.1,0.4 -3,0.1 -3.9,-0.6 -3,-2.3 -6.4,-2.8 -9.1,-0.1 -2.3,2.2 -4.3,2.8 -7.7,2.2 -5.5,-0.9 -11.2,-0.3 -16.8,-0.3 -3.2,0 -6.1,0.2 -8.799999,-2.4 -2.3,-2.2 -7,-1.6 -9.4,0.8 -2,2 -3.1,1.3 -5,-0.2 -2.3,-1.8 -5,-3.2 -7.7,-4.1 -2,-0.7 -4.2,-0.5 -5.1,2.4 -0.2,0.7 -2.3,1.5 -3.1,1.2 -6.1,-2.2 -12,-4.6 -18,-6.9 -1.4,-0.5 -3,-0.7 -4.3,-1.3 -1.3,-0.6 -2.4,-1.5 -3.6,-2.3 1.3,-0.7 2.5,-1.6 3.9,-1.9 2.3,-0.6 4.7,-0.7 7,-1.4 2.2,-0.6 2.5,-1.8 0.5,-3.4 -3.3,-2.6 -3.2,-3.1 0,-5.8 0.7,-0.6 1.2,-1.8 1.3,-2.8 0.2,-1.7 0.1,-3.5 0.1,-5.5 1,0.1 1.6,0.1 2.1,0.3 3.2,0.9 4.7,0 4.7,-3.2 0,-2.6 0.6,-4 3.5,-4.1 1,0 2.4,-1.1 3,-2.1 5.5,-10.4 8,-21.7 8.9,-33.4 0.7,-10.3 1.2,-20.6 1.8,-30.9 0,-0.6 0.4,-1.2 0.5,-1.8 0.2,1.3 0.6,2.6 0.7,4 0.3,3.1 0.4,6.3 0.9,9.4 0.2,0.9 1.5,1.7 2.3,2.5 0.5,-0.6 1.3,-1.2 1.3,-1.9 0.9,-9.8 1.6,-19.5 2.4,-29.3 0.1,-1.7 0.5,-3.4 0.8,-5.1 0.7,6.8 1.8,13.2 4.1,19.4 0.4,0 0.7,-0.1 1.1,-0.1 0.7,-2.6 1.3,-5.3 2,-7.9 0.5,4.9 0.3,9.7 0.6,14.5 0.1,1.5 1.5,3 2.2,4.5 -1,4 -2.1,8 -3.2,12.1 0,0 0,0 0.1,-0.1 -0.1,0 -0.2,0 -0.3,0.1 0,0 0,0.1 -0.1,0.2 0.1,0 0.1,0 0.3,-0.2 0.9,0.8 2,1.6 2.4,2.7 0.8,1.9 1.1,3.9 1.5,5.5 -4.9,3.3 -9.8,6.6 -14.8,9.9 0.5,0.3 0.9,0.6 1.4,1 0.1,1.1 0.5,2.2 0.3,3.3 -0.4,3.7 -1.3,7.3 -1.5,11 -0.1,3.2 0.4,6.5 0.7,9.7 -0.1,0.1 -0.1,0.2 -0.2,0.3 0.1,-0.1 0.1,-0.2 0.2,-0.3 1,0.2 2,0.4 3,0.7 -1.5,2 -3,4.1 -4.6,6.1 l 0,0 c -1,0.8 -2.2,1.6 -3,2.6 -1.4,1.8 -2.2,4.2 -3.9,5.5 -2.8,2.2 -6.1,3.7 -9.2,5.5 -4,2.4 -4,4.2 -0.3,9.3 -0.7,1 -1.4,1.9 -2.2,2.9 0.4,0.4 0.9,0.8 1.3,1.1 1.7,-1.9 3.4,-3.7 5.1,-5.6 l 0,0 c 0.8,-0.8 1.5,-1.5 2.3,-2.3 0.7,0.7 1.5,1.5 2.2,2.2 3.3,5.3 8.7,7.9 14.5,8.1 14.799999,0.5 29.599999,0 44.299999,0.2 6.6,0.1 13,-0.4 19.3,-2.9 3,-1.2 4.7,-2.9 4.3,-6.1 0.1,-0.4 0.2,-0.7 0.4,-1.1 0.2,0.1 0.5,0.1 0.7,0.1 2.3,2.5 4,5.8 7.5,6.7 0.3,-0.3 0.6,-0.6 0.8,-1 -0.7,-1 -1.3,-2 -1.9,-2.9 0.5,-1.2 0.9,-2.3 1.4,-3.4 1.2,-2.1 1.3,-3.9 -1.5,-4.7 l 0,0 c -0.6,-0.6 -1,-1.4 -1.7,-1.8 -3.2,-2 -6.5,-3.9 -9.8,-5.8 l 0,0 c -1.9,-2.7 -3.7,-5.5 -5.6,-8.2 -1.4,-1.9 -2.9,-3.7 -4.3,-5.5 1.5,-0.5 4.2,-1.1 4.2,-1.5 -0.2,-5.9 2.8,-11.9 -0.5,-17.8 -0.7,-1.2 -0.1,-3.2 -0.1,-4.8 0.7,-0.4 0.2,-0.7 -0.1,-1 -3.3,-3.8 -6.3,-7.9 -12.3,-7.4 -0.5,0 -1.6,-1.2 -1.5,-1.7 0.7,-2.9 1.4,-5.9 2.5,-8.7 0.7,-1.6 0.3,-6.7 -1.1,-6.9 -4.2,-0.6 -3.8,-3.3 -3.2,-6.1 0.4,1 0.7,1.9 1.1,2.9 0.2,0 0.5,0 0.7,-0.1 0.9,-8.9 1.7,-17.8 2.6,-26.7 0.3,0 0.7,0 1,0 0.2,0.7 0.3,1.3 0.5,2 0,0.5 0,1 0,1.5 0,0.5 0,1 0,1.6 0.5,2 1,4 1.5,6 0,0.8 0,1.5 0,2.3 0.2,0.3 0.5,0.5 0.7,0.8 0.8,2 1.5,4.1 2.3,6.1 0,0.2 0,0.5 0,0.7 0.5,3.6 -1.1,7.6 1.8,11 0.8,-1.6 1.1,-3.2 1.2,-4.9 0.3,-4.8 0.5,-9.7 0.8,-14.5 0.7,2.6 1.5,5.1 2.2,7.7 0.9,7.4 1.7,14.8 2.6,22.2 1.1,4.4 1.8,9.1 2.4,13.8 z"
     id="path27"
     inkscape:connector-curvature="0"
     style="fill:#70bbe4" /><path
     d="m 138.99999,176.6 c -0.2,-0.7 -0.3,-1.3 -0.5,-2 -0.3,0 -0.7,0 -1,0 -0.9,8.9 -1.7,17.8 -2.6,26.7 -0.2,0 -0.5,0 -0.7,0.1 -0.4,-1 -0.7,-1.9 -1.1,-2.9 -1.6,-3.5 -3.2,-7 -4.7,-10.2 -1.2,2.1 1.1,6.7 -4.2,7 -0.3,-2.1 -0.5,-4.2 -0.8,-6.4 -0.7,0.1 -1.7,-0.1 -1.9,0.2 -1.1,2 -2,4.1 -3.4,6.9 -2.8,-4.9 -3.7,-9.7 -3.8,-14.1 -1.3,3.2 -2.7,6.8 -4.3,10.4 -0.9,2 -2.1,3.8 -3.1,5.7 -1,-4.9 -1.9,-9.7 -3.1,-15.6 -0.3,5.4 -0.5,10 -0.8,14.6 l 0,0 c -0.8,0.7 -1.6,1.4 -2.3,2.1 -0.5,0.1 -0.999999,0.1 -1.499999,0.2 -0.8,-1.5 -2.1,-3 -2.2,-4.5 -0.3,-4.8 -0.1,-9.6 -0.6,-14.5 -0.7,2.6 -1.3,5.3 -2,7.9 -0.4,0 -0.7,0.1 -1.1,0.1 -2.3,-6.2 -3.4,-12.6 -4.1,-19.4 -0.3,1.7 -0.6,3.4 -0.8,5.1 -0.8,9.8 -1.6,19.5 -2.4,29.3 -0.1,0.7 -0.9,1.3 -1.3,1.9 -0.8,-0.8 -2.1,-1.6 -2.3,-2.5 -0.5,-3.1 -0.6,-6.2 -0.9,-9.4 -0.1,-1.3 -0.5,-2.6 -0.7,-4 0,-3.3 0,-6.6 0.1,-9.9 0.2,-0.4 0.6,-0.9 0.6,-1.3 1.1,-11.6 2.1,-23.3 3.1,-35 1,-1.8 2,-3.6 3,-5.4 0.1,3.3 0.3,6.6 0.4,9.8 0.1,1.3 0.2,2.6 0.3,3.8 0.1,2.2 0.3,4.5 0.4,6.7 0.6,0 1.3,0 1.9,-0.1 0.2,-5 0.5,-10 0.7,-15 0.5,1.8 1,3.7 1.5,5.5 0.2,0 0.4,-0.1 0.6,-0.1 0.7,-3.8 1.4,-7.6 2,-11.4 0.5,0 1,0 1.6,0.1 0,4.7 0,9.5 0,14.2 0.4,0 0.7,0 1.1,0 0.4,-4.4 0.8,-8.8 1.2,-13.1 0.4,0 0.899999,-0.1 1.299999,-0.1 0.4,3.3 0.7,6.6 1.1,10 0.3,0 0.6,0 0.9,0 0.6,-3.1 1.3,-6.2 1.9,-9.2 0.3,0.1 0.6,0.1 0.9,0.2 0.4,1.4 0.8,2.7 1.4,4.5 1.6,-2.9 2.8,-5 4,-7.2 0.4,0.2 0.7,0.3 1.1,0.5 0,3.6 0,7.2 0,10.8 0.3,0 0.5,0.1 0.8,0.1 0.7,-3.5 1.3,-7 2,-10.5 0.3,0 0.7,0 1,-0.1 0.7,1.3 1.4,2.5 2.2,4 0.5,-1 1,-1.8 1.5,-2.7 0.3,0.1 0.5,0.1 0.8,0.2 0,3.4 0,6.7 0,10.1 0.2,0 0.4,0 0.6,0 0.6,-2.7 1.1,-5.5 1.7,-8.2 0.4,0 0.8,0.1 1.2,0.1 0,2.8 0,5.7 0,8.5 0.3,0 0.6,0 0.9,0 0.3,-2 0.5,-4 0.8,-6.1 0.4,0.7 0.7,1.1 1.1,1.9 0.1,-1.7 0.2,-2.9 0.3,-4.1 0.1,0 0.1,0 0.2,0 0.6,7.5 1.1,15 1.7,22.5 0.2,0 0.5,-0.1 0.7,-0.1 0.6,-5.9 1.2,-11.7 1.8,-17.6 0.4,0 0.7,0 1.1,0 0.7,2 1.5,4 2.2,6 0.2,-0.1 0.4,-0.1 0.6,-0.2 0.4,-3.9 0.8,-7.9 1.2,-11.8 0.2,0 0.3,0 0.5,-0.1 1.1,3.6 2.2,7.2 3.3,10.9 0.2,-0.1 0.5,-0.2 0.7,-0.2 0.4,-2.1 0.8,-4.3 1.2,-6.4 0.5,4 1.3,8 1.5,12 0.3,5.9 0.2,11.8 0,17.7 -0.1,2.3 0.8,3.2 3.1,3 0,1.3 0,2.5 0,3.8 -0.5,0.8 -1,1.5 -1.5,2.3 -0.5,0 -1,0 -1.5,0 -0.5,0 -1,0 -1.6,0 0,-3.9 0,-7.8 0,-11.6 -0.2,0 -0.5,0 -0.7,0.1 -0.7,1.8 -1.5,3.7 -2.3,5.5 z"
     id="path29"
     inkscape:connector-curvature="0"
     style="fill:#38a5d8" /><path
     d="m 142.09999,143.9 c -0.4,2.1 -0.8,4.3 -1.2,6.4 -0.2,0.1 -0.5,0.2 -0.7,0.2 -1.1,-3.6 -2.2,-7.2 -3.3,-10.9 -0.2,0 -0.3,0 -0.5,0.1 -0.4,3.9 -0.8,7.9 -1.2,11.8 -0.2,0.1 -0.4,0.1 -0.6,0.2 -0.7,-2 -1.5,-4 -2.2,-6 -0.4,0 -0.7,0 -1.1,0 -0.6,5.9 -1.2,11.7 -1.8,17.6 -0.2,0 -0.5,0.1 -0.7,0.1 -0.6,-7.5 -1.1,-15 -1.7,-22.5 -0.1,0 -0.1,0 -0.2,0 -0.1,1.2 -0.2,2.4 -0.3,4.1 -0.5,-0.8 -0.7,-1.3 -1.1,-1.9 -0.3,2.1 -0.5,4.1 -0.8,6.1 -0.3,0 -0.6,0 -0.9,0 0,-2.8 0,-5.7 0,-8.5 -0.4,0 -0.8,-0.1 -1.2,-0.1 -0.6,2.7 -1.1,5.5 -1.7,8.2 -0.2,0 -0.4,0 -0.6,0 0,-3.4 0,-6.7 0,-10.1 -0.3,-0.1 -0.5,-0.1 -0.8,-0.2 -0.5,0.9 -0.9,1.7 -1.5,2.7 -0.8,-1.5 -1.5,-2.7 -2.2,-4 -0.3,0 -0.7,0 -1,0.1 -0.7,3.5 -1.3,7 -2,10.5 -0.3,0 -0.5,-0.1 -0.8,-0.1 0,-3.6 0,-7.2 0,-10.8 -0.4,-0.2 -0.7,-0.3 -1.1,-0.5 -1.2,2.2 -2.4,4.3 -4,7.2 -0.6,-1.8 -1,-3.2 -1.4,-4.5 -0.3,-0.1 -0.6,-0.1 -0.9,-0.2 -0.6,3.1 -1.3,6.2 -1.9,9.2 -0.3,0 -0.6,0 -0.9,0 -0.4,-3.3 -0.7,-6.6 -1.1,-10 -0.4,0 -0.899999,0.1 -1.299999,0.1 -0.4,4.4 -0.8,8.8 -1.2,13.1 -0.4,0 -0.7,0 -1.1,0 0,-4.7 0,-9.5 0,-14.2 -0.5,0 -1,0 -1.6,-0.1 -0.7,3.8 -1.4,7.6 -2,11.4 -0.2,0 -0.4,0.1 -0.6,0.1 -0.5,-1.8 -1,-3.7 -1.5,-5.5 0,-1.3 0,-2.5 0,-3.8 0,-0.9 0.2,-1.8 -0.1,-2.6 -0.3,-0.9 -0.9,-1.7 -1.4,-2.6 -0.6,0.6 -1.4,1.2 -1.9,1.9 -0.3,0.5 -0.4,1.2 -0.6,1.8 -1,1.8 -2,3.6 -3,5.4 -0.3,-0.8 -0.5,-1.6 -0.8,-2.5 0,-0.3 0,-0.5 0.1,-0.7 0.5,-2 0.9,-4 1.4,-6.1 l 0,0.1 c 0.3,-0.4 0.5,-0.9 0.8,-1.3 5.4,-1.6 10.8,-3.1 16.099999,-4.8 1.7,-0.5 3.2,-1.4 4.9,-2 5.3,-1.8 10.5,-1.3 15.8,0.5 5.3,1.8 10.9,2.7 16.4,4 2.8,0.7 5.6,1.2 8.3,2 3.1,1 3,3.7 2.8,6.2 -0.1,0.1 -0.3,0.2 -0.3,0.2 0.1,0.2 0.2,0.4 0.3,0.5 0.1,0.2 0.1,0.5 0,0.7 -0.8,1.5 -1.6,3 -2.4,4.5 -1,0.8 -2,1.6 -3.1,2.3 -0.6,-0.7 -1.6,-1.7 -2.6,-2.8 z"
     id="path31"
     inkscape:connector-curvature="0"
     style="fill:#6dbce6" /><path
     d="m 148.19999,144.7 c 0.8,-1.5 1.6,-3 2.4,-4.5 0.5,9.7 1.1,19.3 1.5,29 0.3,8.4 0.4,16.8 0.5,25.2 0.1,6 0,12.1 0.2,18.1 0.3,6.2 1,12.5 1.5,18.7 -0.7,-4.7 -1.4,-9.4 -1.9,-14.1 -0.9,-7.4 -1.7,-14.8 -2.6,-22.2 0.5,-0.6 1.6,-1.3 1.5,-1.7 -1.9,-6.7 0.5,-13.4 0.1,-20.2 -0.4,-6.9 -0.7,-13.7 -0.7,-20.6 -0.1,-2.9 -0.1,-5.6 -2.5,-7.7 z"
     id="path33"
     inkscape:connector-curvature="0"
     style="fill:#54accc" /><path
     d="m 83.899991,140.9 c 0.3,0.8 0.5,1.6 0.8,2.5 -1,11.7 -2.1,23.3 -3.1,35 0,0.5 -0.4,0.9 -0.6,1.3 0.6,-12 1.1,-24.1 1.7,-36.1 0,-1 0.8,-1.9 1.2,-2.7 z"
     id="path35"
     inkscape:connector-curvature="0"
     style="fill:#54accc" /><path
     d="m 85.399991,134.1 c -0.5,2 -0.9,4 -1.4,6.1 0.5,-2.1 0.9,-4.1 1.4,-6.1 z"
     id="path37"
     inkscape:connector-curvature="0"
     style="fill:#54accc" /><path
     d="m 86.199991,132.8 c -0.3,0.4 -0.5,0.9 -0.8,1.3 0.2,-0.4 0.5,-0.8 0.8,-1.3 z"
     id="path39"
     inkscape:connector-curvature="0"
     style="fill:#54accc" /><path
     d="m 150.49999,139.5 c -0.1,-0.2 -0.2,-0.3 -0.3,-0.5 0,0 0.2,-0.1 0.3,-0.2 0,0.2 0,0.4 0,0.7 z"
     id="path41"
     inkscape:connector-curvature="0"
     style="fill:#54accc" /><path
     d="m 168.19999,280.5 c -0.4,1.1 -0.9,2.2 -1.4,3.4 0.6,0.9 1.3,1.9 1.9,2.9 -0.3,0.3 -0.6,0.6 -0.8,1 -3.4,-1 -5.2,-4.2 -7.5,-6.7 -0.2,0 -0.5,-0.1 -0.7,-0.1 -0.1,0.4 -0.2,0.7 -0.4,1 -1.3,1.4 -2.4,3.7 -3.9,4.1 -5.2,1.1 -10,3.3 -15.8,3 -15,-0.8 -30.1,-0.6 -45.099999,0 -4.8,0.2 -8.6,-1.4 -12.6,-3.1 -1.8,-0.8 -3.4,-2.1 -5.1,-3.1 -0.7,-0.7 -1.5,-1.5 -2.2,-2.2 -2.7,-1.1 -2.2,0.9 -2.3,2.3 l 0,0 c -1.4,0.5 -2.9,1 -4.3,1.5 -3.7,-5.1 -3.6,-6.9 0.3,-9.3 2.8,1 8.1,-1.3 10.9,-4.5 1.3,-1.5 3,-2.7 5.2,-4.6 0,-0.9 0,-2.7 0,-4.5 l 0,0 c 4.8,-1.5 6.8,-4.7 6.7,-9.9 1,-2.5 1.7,-5.2 3.1,-7.5 1,-1.7 2.8,-3.4 4.6,-4.1 0.9,-0.4 2.699999,1.4 4.699999,2.6 0.5,-1.3 1.4,-3.3 2.3,-5.4 5.6,0.6 0.1,4.1 2.2,6.6 1,-0.7 2.7,-1.4 3.1,-2.4 0.5,-1.8 0.2,-3.8 0.2,-5.7 -0.2,-3.3 2.4,-6.3 0.8,-9.9 -1.1,-2.4 -1.9,-5.1 -2,-7.7 0,-3.5 0.3,-7.1 1.5,-10.3 1.3,-3.4 5.1,-3.3 8.1,-2.9 1.4,0.2 3.5,2.4 3.4,3.6 -0.3,3.9 2.3,7.3 0.2,11.9 -2.2,4.9 -1.2,11.4 1.6,17 6.7,-3.4 5,4.3 7.3,5.4 1.9,-1.2 3.3,-2.5 5,-3 0.7,-0.2 2.3,1.1 2.7,2 1.7,3.7 3.1,7.5 4.6,11.3 0.3,1.7 0.1,3.7 1,5.1 1.3,2.2 3.3,4 5.1,5.9 1.4,1.5 3,2.8 4.5,4.2 l 0,0 c 0.1,1.8 -0.2,4.8 0.4,5.1 3.5,1.2 7.3,1.8 11,2.5 l 0,0 c 0.7,1.4 1.2,3 1.7,4.5 z m -62.1,-8.5 c 1.6,4.9 2.4,-2.7 3.9,-0.2 0.1,-1.2 0.9,-3 0.3,-3.6 -2.3,-2.6 -2,-5.2 -1.3,-8.1 0.3,-1.4 -0.1,-3 -0.2,-4.5 -0.4,0 -0.8,0 -1.2,0 -0.4,1 -0.9,1.9 -1.3,2.9 -0.5,-2.3 -1.1,-4.7 -1.7,-7.3 -6.099999,7.5 -9.599999,16.2 -19.499999,20.5 5,0.3 8.8,0.7 12.5,0.8 2.799999,0 5.599999,-0.3 8.499999,-0.5 z m 42.8,1.9 c -0.1,-0.4 0,-1 -0.3,-1.3 -2.8,-2.4 -6,-4.3 -8.3,-7 -3.2,-3.7 -5.8,-8 -9,-12.5 -2.7,6.8 -1.8,13.4 -2.3,19.8 -3.7,0.9 -1.9,3.7 -2.1,5.9 0.9,0 2.6,0.2 2.6,0 0.4,-2.6 2.5,-2.1 4.2,-2.1 3.2,0 6.4,0.3 9.5,-0.1 2,-0.3 3.8,-1.8 5.7,-2.7 z"
     id="path43"
     inkscape:connector-curvature="0"
     style="fill:#2384bf" /><path
     display="none"
     d="m 144.59999,253.1 c -1.5,-3.8 -2.9,-7.6 -4.6,-11.3 -0.4,-0.9 -2,-2.2 -2.7,-2 -1.6,0.5 -3.1,1.7 -5,3 -2.2,-1.1 -0.6,-8.8 -7.3,-5.4 -2.8,-5.6 -3.8,-12 -1.6,-17 2.1,-4.6 -0.5,-8 -0.2,-11.9 0.1,-1.2 -2.1,-3.4 -3.4,-3.6 -3,-0.4 -6.8,-0.5 -8.1,2.9 -1.2,3.2 -1.5,6.9 -1.5,10.3 0,2.6 0.9,5.3 2,7.7 1.6,3.6 -1,6.6 -0.8,9.9 -0.4,0.2 -0.9,0.4 -1.3,0.7 -0.2,0.2 -0.3,0.3 -0.5,0.5 -1.2,0.1 -2.5,0.3 -3.7,0.4 -0.9,2 -1.8,4.1 -2.3,5.4 -2,-1.2 -3.799999,-3 -4.699999,-2.6 -1.8,0.7 -3.6,2.4 -4.6,4.1 -1.4,2.3 -2.1,5 -3.1,7.5 -0.7,1.3 -1.4,2.5 -2.1,3.8 -1,-0.2 -2,-0.4 -3,-0.7 l 0,0 c -0.3,-3.2 -0.9,-6.5 -0.7,-9.7 0.2,-3.7 1,-7.3 1.5,-11 0.1,-1.1 -0.2,-2.2 -0.3,-3.3 -0.5,-0.3 -0.9,-0.6 -1.4,-1 4.9,-3.3 9.9,-6.6 14.8,-9.9 -0.4,-1.6 -0.8,-3.6 -1.5,-5.5 -0.4,-1.1 -1.5,-1.9 -2.3,-2.9 1,-4 2.1,-8 3.1,-12 0.5,-0.1 0.999999,-0.1 1.499999,-0.2 0.8,-0.7 1.6,-1.4 2.3,-2.1 l 0,0 c 1.3,0.3 2.5,0.7 3.8,1 1.1,-1.9 2.3,-3.7 3.1,-5.7 1.6,-3.6 3,-7.3 4.3,-10.4 0.1,4.3 1,9.1 3.8,14.1 1.3,-2.8 2.3,-4.9 3.4,-6.9 0.2,-0.3 1.2,-0.2 1.9,-0.2 0.3,2.2 0.5,4.2 0.8,6.4 5.3,-0.3 3,-4.9 4.2,-7 1.5,3.3 3.1,6.7 4.7,10.2 -0.6,2.9 -1,5.6 3.2,6.1 1.5,0.2 1.8,5.3 1.1,6.9 -1.1,2.8 -1.8,5.8 -2.5,8.7 -0.1,0.5 1,1.7 1.5,1.7 6,-0.5 9,3.6 12.3,7.4 0.3,0.4 0.8,0.6 0.1,1 0,1.6 -0.6,3.6 0.1,4.8 3.3,5.9 0.3,11.9 0.5,17.8 0,0.5 -2.7,1 -4.2,1.5 -0.1,-0.5 -0.4,-1 -0.6,-1.5 z"
     id="path45"
     inkscape:connector-curvature="0"
     style="display:none;fill:#ffffff" /><path
     d="m 148.19999,144.7 c 2.3,2.1 2.3,4.8 2.4,7.6 0.1,6.9 0.3,13.8 0.7,20.6 0.4,6.7 -2.1,13.4 -0.1,20.2 0.1,0.4 -1,1.2 -1.5,1.7 -0.7,-2.6 -1.5,-5.1 -2.2,-7.7 -0.3,-2.3 -0.5,-4.6 -0.8,-6.9 0,-1.3 0,-2.5 0,-3.8 0.2,-1.3 0.7,-2.6 0.7,-3.9 -0.2,-6.5 -0.4,-13 -0.8,-19.5 -0.1,-2.1 -1,-4.1 -1.5,-6.1 1.1,-0.6 2.1,-1.4 3.1,-2.2 z"
     id="path47"
     inkscape:connector-curvature="0"
     style="fill:#37a3d9" /><path
     d="m 76.999991,282.7 c 1.7,1.1 3.3,2.4 5.1,3.1 4,1.7 7.7,3.3 12.6,3.1 14.999999,-0.6 30.099999,-0.7 45.099999,0 5.8,0.3 10.6,-1.9 15.8,-3 1.5,-0.3 2.6,-2.7 3.9,-4.1 0.3,3.3 -1.3,5 -4.3,6.1 -6.2,2.5 -12.6,3 -19.3,2.9 -14.8,-0.2 -29.6,0.3 -44.299999,-0.2 -5.9,0 -11.3,-2.5 -14.6,-7.9 z"
     id="path49"
     inkscape:connector-curvature="0"
     style="fill:#247fb4" /><path
     d="m 146.69999,180.4 c 0.3,2.3 0.5,4.6 0.8,6.9 -0.3,4.8 -0.5,9.7 -0.8,14.5 -0.1,1.6 -0.5,3.3 -1.2,4.9 -3,-3.4 -1.3,-7.3 -1.8,-11 0.8,-1.2 2.1,-2.4 2.2,-3.6 0.1,-3.1 -0.4,-6.2 -0.6,-9.3 0.4,-0.9 0.9,-1.7 1.4,-2.4 z"
     id="path51"
     inkscape:connector-curvature="0"
     style="fill:#6dbce6" /><path
     d="m 84.599991,261.4 c 0,1.8 0,3.6 0,4.5 -2.1,1.9 -3.8,3.1 -5.2,4.6 -2.8,3.2 -8.1,5.5 -10.9,4.5 3.1,-1.8 6.4,-3.3 9.2,-5.5 1.7,-1.3 2.5,-3.7 3.9,-5.5 0.8,-1 2,-1.7 3,-2.6 z"
     id="path53"
     inkscape:connector-curvature="0"
     style="fill:#247fb4" /><path
     d="m 144.59999,253.1 c 0.2,0.5 0.5,1 0.7,1.5 1.4,1.8 2.9,3.6 4.3,5.5 1.9,2.7 3.7,5.4 5.6,8.2 -1.5,-1.4 -3.1,-2.7 -4.5,-4.2 -1.8,-1.9 -3.8,-3.7 -5.1,-5.9 -0.9,-1.4 -0.7,-3.4 -1,-5.1 z"
     id="path55"
     inkscape:connector-curvature="0"
     style="fill:#247fb4" /><path
     d="m 138.99999,176.6 c 0.8,-1.8 1.5,-3.7 2.3,-5.5 0.2,0 0.5,0 0.7,-0.1 0,3.9 0,7.8 0,11.6 -0.5,1 -1,2 -1.5,3 -0.5,-2 -1,-4 -1.5,-6 0.4,-0.2 0.8,-0.4 1.2,-0.6 -0.4,-0.3 -0.8,-0.6 -1.2,-0.9 0.1,-0.5 0,-1 0,-1.5 z"
     id="path57"
     inkscape:connector-curvature="0"
     style="fill:#54accc" /><path
     d="m 166.69999,275.8 c -3.7,-0.8 -7.5,-1.3 -11,-2.5 -0.7,-0.2 -0.3,-3.3 -0.4,-5.1 3.3,1.9 6.5,3.8 9.8,5.8 0.6,0.4 1,1.2 1.6,1.8 z"
     id="path59"
     inkscape:connector-curvature="0"
     style="fill:#247fb4" /><path
     d="m 145.19999,182.7 c 0.3,3.1 0.7,6.2 0.6,9.3 0,1.2 -1.4,2.4 -2.2,3.6 0,-0.2 0,-0.5 0,-0.7 0,-4.1 0,-8.1 0.1,-12.2 0.4,0 1,0 1.5,0 z"
     id="path61"
     inkscape:connector-curvature="0"
     style="fill:#30a7ce" /><path
     d="m 143.59999,182.7 c 0,4.1 0,8.1 -0.1,12.2 -0.8,-2 -1.5,-4.1 -2.3,-6.1 -0.2,-0.3 -0.5,-0.5 -0.7,-0.8 0,-0.8 0,-1.5 0,-2.3 0.5,-1 1,-2 1.5,-3 0.6,0 1.1,0 1.6,0 z"
     id="path63"
     inkscape:connector-curvature="0"
     style="fill:#37a3d9" /><path
     d="m 89.199991,255.3 c 0.7,-1.3 1.4,-2.5 2.1,-3.8 0.1,5.2 -1.9,8.4 -6.7,9.9 1.5,-2 3,-4 4.6,-6.1 z"
     id="path65"
     inkscape:connector-curvature="0"
     style="fill:#247fb4" /><path
     d="m 68.199991,284.3 c 1.4,-0.5 2.9,-1 4.3,-1.5 -1.7,1.9 -3.4,3.7 -5.1,5.6 -0.4,-0.4 -0.9,-0.8 -1.3,-1.1 0.6,-1.1 1.3,-2 2.1,-3 z"
     id="path67"
     inkscape:connector-curvature="0"
     style="fill:#247fb4" /><path
     d="m 168.19999,280.5 c -0.5,-1.6 -1,-3.1 -1.5,-4.7 2.8,0.9 2.7,2.6 1.5,4.7 z"
     id="path69"
     inkscape:connector-curvature="0"
     style="fill:#247fb4" /><path
     d="m 72.499991,282.8 c 0.1,-1.4 -0.4,-3.4 2.3,-2.3 -0.8,0.8 -1.6,1.5 -2.3,2.3 z"
     id="path71"
     inkscape:connector-curvature="0"
     style="fill:#247fb4" /><path
     d="m 139.09999,178.1 c 0.4,0.3 0.8,0.6 1.2,0.9 -0.4,0.2 -0.8,0.4 -1.2,0.6 0,-0.5 0,-1 0,-1.5 z"
     id="path73"
     inkscape:connector-curvature="0"
     style="fill:#38a5d8" /><path
     display="none"
     d="m 95.999991,211.7 c -0.1,0 -0.1,0 -0.2,0 0,-0.1 0,-0.2 0.1,-0.2 0.1,-0.1 0.2,-0.1 0.3,-0.1 -0.1,0.2 -0.1,0.3 -0.2,0.3 z"
     id="path75"
     inkscape:connector-curvature="0"
     style="display:none;fill:#ffffff" /><path
     d="m 140.59999,188 c 0.2,0.3 0.5,0.5 0.7,0.8 -0.3,-0.3 -0.5,-0.6 -0.7,-0.8 z"
     id="path77"
     inkscape:connector-curvature="0"
     style="fill:#54accc" /><path
     d="m 159.79999,281 c 0.2,0 0.5,0.1 0.7,0.1 -0.3,0 -0.5,0 -0.7,-0.1 z"
     id="path79"
     inkscape:connector-curvature="0"
     style="fill:#247fb4" /><path
     d="m 86.199991,254.7 c -0.1,0.1 -0.1,0.2 -0.2,0.3 0.1,-0.1 0.1,-0.2 0.2,-0.3 l 0,0 z"
     id="path81"
     inkscape:connector-curvature="0"
     style="fill:#ffffff" /><path
     d="m 145.19999,147.1 c 0.5,2 1.3,4 1.5,6.1 0.4,6.5 0.6,13 0.8,19.5 0,1.3 -0.5,2.6 -0.7,3.9 -2.3,0.3 -3.1,-0.6 -3.1,-3 0.1,-5.9 0.2,-11.8 0,-17.7 -0.2,-4 -1,-8 -1.5,-12 0.9,1.1 1.9,2.1 3,3.2 z"
     id="path83"
     inkscape:connector-curvature="0"
     style="fill:#54accc" /><path
     d="m 91.599991,139.5 c 0,1.3 0,2.5 0,3.8 -0.2,5 -0.5,10 -0.7,15 -0.6,0 -1.3,0 -1.9,0.1 -0.1,-2.2 -0.3,-4.5 -0.4,-6.7 0.3,-1.9 0.3,-3.9 0.8,-5.7 0.5,-2.3 1.4,-4.4 2.2,-6.5 z"
     id="path85"
     inkscape:connector-curvature="0"
     style="fill:#30a7ce" /><path
     d="m 91.599991,139.5 c -0.8,2.1 -1.7,4.2 -2.3,6.4 -0.5,1.8 -0.6,3.8 -0.8,5.7 -0.1,-1.3 -0.3,-2.6 -0.3,-3.8 -0.2,-3.3 -0.3,-6.6 -0.4,-9.8 0.2,-0.6 0.2,-1.3 0.6,-1.8 0.5,-0.7 1.2,-1.3 1.9,-1.9 0.5,0.9 1.1,1.7 1.4,2.6 0,0.8 -0.1,1.7 -0.1,2.6 z"
     id="path87"
     inkscape:connector-curvature="0"
     style="fill:#70bbe4" /><path
     d="m 106.89999,198.1 c -1.3,-0.3 -2.5,-0.7 -3.8,-1 0.2,-4.6 0.5,-9.1 0.8,-14.6 1.1,5.9 2,10.7 3,15.6 z"
     id="path89"
     inkscape:connector-curvature="0"
     style="fill:#6dbce6" /><path
     d="m 103.09999,197.1 c -0.8,0.7 -1.6,1.4 -2.3,2.1 0.7,-0.7 1.5,-1.4 2.3,-2.1 z"
     id="path91"
     inkscape:connector-curvature="0"
     style="fill:#6dbce6" /><path
     d="m 129.09999,272.9 c 0.5,-6.4 -0.4,-13 2.3,-19.8 3.2,4.6 5.8,8.8 9,12.5 2.3,2.7 5.5,4.7 8.3,7 0.3,0.2 0.2,0.8 0.3,1.3 -5.4,0.2 -10.7,0.3 -16.1,0.8 -1.9,0.2 -3.1,0 -3.8,-1.8 z"
     id="path93"
     inkscape:connector-curvature="0"
     style="fill:#ffffff" /><path
     d="m 106.09999,272 c -2.9,0.2 -5.7,0.5 -8.499999,0.5 -3.7,-0.1 -7.5,-0.5 -12.5,-0.8 9.9,-4.3 13.4,-13 19.499999,-20.5 0.6,2.6 1.2,5 1.7,7.3 0.2,3.4 0.4,6.9 0.6,10.3 -0.2,0.9 -0.3,1.7 -0.5,2.6 -0.3,0.1 -0.4,0.3 -0.3,0.6 z"
     id="path95"
     inkscape:connector-curvature="0"
     style="fill:#ffffff" /><path
     d="m 129.09999,272.9 c 0.7,1.8 1.9,2 3.8,1.8 5.3,-0.5 10.7,-0.6 16.1,-0.8 -1.9,0.9 -3.7,2.4 -5.7,2.6 -3.1,0.4 -6.3,0.1 -9.5,0.1 -1.7,0 -3.7,-0.5 -4.2,2.1 0,0.1 -1.7,0 -2.6,0 0.2,-2.1 -1.7,-4.9 2.1,-5.8 z"
     id="path97"
     inkscape:connector-curvature="0"
     style="fill:#247fb4" /><path
     d="m 106.09999,272 c 0,-0.3 0.1,-0.5 0.2,-0.7 0.2,-0.9 0.3,-1.7 0.5,-2.6 -0.2,-3.4 -0.4,-6.9 -0.6,-10.3 0.4,-1 0.9,-1.9 1.3,-2.9 0.4,0 0.8,0 1.2,0 0.1,1.5 0.6,3.1 0.2,4.5 -0.7,3 -1,5.6 1.3,8.1 0.6,0.6 -0.2,2.4 -0.3,3.6 -1.4,-2.4 -2.3,5.2 -3.8,0.3 z"
     id="path99"
     inkscape:connector-curvature="0"
     style="fill:#247fb4" /><path
     d="m 110.09999,236.3 c 0.4,-0.2 0.9,-0.4 1.3,-0.7 0,1.9 0.3,4 -0.2,5.7 -0.3,1.1 -2.1,1.7 -3.1,2.4 -2.2,-2.5 3.3,-6 -2.2,-6.6 1.2,-0.1 2.5,-0.3 3.7,-0.4 0.3,0.1 0.5,0.2 0.8,0.2 -0.1,-0.1 -0.2,-0.4 -0.3,-0.6 z"
     id="path101"
     inkscape:connector-curvature="0"
     style="fill:#247fb4" /><path
     d="m 110.09999,236.3 c 0.1,0.2 0.2,0.5 0.3,0.7 -0.3,-0.1 -0.5,-0.2 -0.8,-0.2 0.2,-0.2 0.4,-0.3 0.5,-0.5 z"
     id="path103"
     inkscape:connector-curvature="0"
     style="fill:#ffffff" /><circle
     stroke-miterlimit="10"
     cx="231.7"
     cy="393.10001"
     r="124.7"
     id="circle105"
     style="fill:none;stroke:#35b55b;stroke-width:14;stroke-miterlimit:10" /><image
     sodipodi:absref="/home/partho/Downloads/F486EFCF.jpeg"
     xlink:href="F486EFCF.jpeg"
     y="-227.0778"
     x="-484.35681"
     style="display:none;overflow:visible"
     id="image107"
     height="434.20801"
     width="434.20801"
     enable-background="new    "
     overflow="visible"
     display="none" /><circle
     stroke-miterlimit="10"
     cx="320.70001"
     cy="226.09999"
     r="124.7"
     id="circle109"
     style="fill:none;stroke:#ed374d;stroke-width:14;stroke-miterlimit:10" /><circle
     stroke-miterlimit="10"
     cx="131.7"
     cy="225.09999"
     r="124.7"
     id="circle111"
     style="fill:none;stroke:#2d9fd6;stroke-width:14;stroke-miterlimit:10" /><g
     id="g113"
     transform="translate(-160.90001,-63.8)"><g
       id="g115"><path
         d="m 246.6,65.2 19.4,0 c 1.9,0 3.7,0.4 5.4,1.2 1.7,0.8 3,1.9 4.1,3.4 1.1,1.5 1.5,3.1 1.5,4.9 0,2.7 -1.1,5 -3.3,6.9 1.2,0.6 2.2,1.3 3,2.2 0.8,0.9 1.4,1.9 1.8,2.9 0.4,1 0.6,2.2 0.6,3.3 0,2 -0.6,3.8 -1.7,5.4 -1.1,1.5 -2.6,2.7 -4.5,3.5 -1.9,0.8 -4,1.2 -6.3,1.2 l -19.9,0 0,-5.2 5,0 0,-24.5 -5,0 0,-5.2 z m 10.5,5.2 0,8.9 8.1,0 c 1,0 2,-0.2 2.9,-0.6 0.9,-0.4 1.6,-0.9 2.2,-1.7 0.5,-0.7 0.8,-1.5 0.8,-2.5 0,-1.4 -0.6,-2.4 -1.8,-3.1 -1.2,-0.7 -2.6,-1.1 -4.2,-1.1 l -8,0 z m 0,14.1 0,10.3 9,0 c 1.9,0 3.5,-0.4 5,-1.1 1.4,-0.7 2.1,-2 2.1,-3.8 0,-3.6 -3.4,-5.3 -10.2,-5.3 l -5.9,0 z"
         id="path117"
         inkscape:connector-curvature="0" /><path
         d="m 299.8,64 c 2.6,0 5,0.5 7,1.5 2.1,1 3.9,2.4 5.3,4.1 1.4,1.8 2.5,3.7 3.2,6 0.7,2.2 1.1,4.6 1.1,7 0,3.4 -0.7,6.5 -2.1,9.3 -1.4,2.8 -3.3,5.1 -5.9,6.7 -2.5,1.6 -5.4,2.5 -8.7,2.5 -2.5,0 -4.8,-0.5 -6.8,-1.5 -2,-1 -3.8,-2.3 -5.3,-4.1 -1.5,-1.7 -2.6,-3.7 -3.3,-5.9 -0.8,-2.2 -1.1,-4.5 -1.1,-7 0,-3.5 0.7,-6.7 2.1,-9.5 1.4,-2.9 3.4,-5.1 5.9,-6.7 2.6,-1.6 5.4,-2.4 8.6,-2.4 z m 0.1,5.2 c -2.2,0 -4.1,0.6 -5.7,1.9 -1.6,1.2 -2.8,2.9 -3.7,5 -0.9,2.1 -1.3,4.3 -1.3,6.6 0,2.2 0.4,4.4 1.3,6.4 0.8,2 2.1,3.7 3.7,4.9 1.6,1.3 3.5,1.9 5.7,1.9 2.2,0 4.2,-0.6 5.8,-1.9 1.6,-1.3 2.8,-2.9 3.7,-5 0.9,-2.1 1.2,-4.2 1.2,-6.4 0,-2.2 -0.4,-4.3 -1.2,-6.4 -0.8,-2.1 -2,-3.7 -3.6,-5 -1.7,-1.3 -3.6,-2 -5.9,-2 z"
         id="path119"
         inkscape:connector-curvature="0" /><path
         d="m 346.7,63.9 5.4,1.2 c -0.2,0.6 -0.4,1.3 -0.6,2.1 -0.2,0.8 -0.4,1.5 -0.6,2.4 -0.2,0.8 -0.3,1.6 -0.3,2.3 0,1.1 0.2,3 0.7,5.7 l -5.7,0.5 -0.2,-2.7 c -0.2,-3.9 -2.6,-5.9 -7.3,-5.9 -2.2,0 -4.1,0.5 -5.7,1.6 -1.6,1.1 -2.3,2.5 -2.3,4.3 0,1.8 0.8,3.1 2.3,3.7 1.5,0.7 3.4,1.1 5.7,1.3 2,0.2 3.7,0.4 5.2,0.6 1.4,0.3 2.8,0.7 4.1,1.4 1.3,0.7 2.3,1.7 3.1,3 0.8,1.3 1.2,3.1 1.2,5.2 0,1.4 -0.5,2.9 -1.4,4.6 -0.9,1.7 -2.5,3.1 -4.6,4.2 -2.1,1.2 -4.7,1.8 -7.9,1.8 -3.3,0 -6.5,-0.7 -9.4,-2.2 l -0.2,2.5 -5.6,-0.8 c 0.5,-2.6 0.8,-4.5 0.8,-5.6 0,-1 -0.1,-2 -0.3,-2.8 -0.2,-0.8 -0.6,-2.2 -1.1,-4 l 5.5,-1 0.8,3.3 c 0.4,1.8 1.5,3.2 3.2,4 1.7,0.8 3.7,1.2 5.9,1.2 2.1,0 4.1,-0.5 5.8,-1.4 1.7,-0.9 2.6,-2.3 2.6,-4.3 0,-1.2 -0.3,-2 -0.9,-2.6 -0.6,-0.6 -1.3,-0.9 -2.3,-1.1 -1,-0.2 -2.5,-0.4 -4.6,-0.6 -1.8,-0.2 -3.3,-0.4 -4.6,-0.7 -1.3,-0.3 -2.7,-0.7 -4.1,-1.5 -1.4,-0.7 -2.7,-1.8 -3.6,-3.2 -1,-1.4 -1.5,-3.2 -1.5,-5.4 0,-1.5 0.4,-2.9 1.1,-4.3 0.7,-1.4 1.7,-2.5 2.8,-3.5 1.3,-1.1 2.8,-1.9 4.4,-2.5 1.7,-0.6 3.4,-0.9 5.3,-0.9 2.6,0 5.4,0.7 8.3,2.2 l 0.6,-2.1 z"
         id="path121"
         inkscape:connector-curvature="0" /><path
         d="m 355.9,65.2 11.7,0 6.8,18.2 6.8,-18.2 11.7,0 0,5.2 -4.3,0 0,24.4 4.3,0 0,5.2 -15.5,0 0,-5.2 5.6,0 0,-20.9 -0.1,0 -6.9,18.2 -3.3,0 -6.7,-18.2 -0.1,0 0,20.9 5.6,0 0,5.2 -15.5,0 0,-5.2 4.3,0 0,-24.4 -4.3,0 0,-5.2 z"
         id="path123"
         inkscape:connector-curvature="0" /></g><g
       id="g125"><path
         d="m 420.5,64.2 c 1.4,0 2.6,0.2 3.9,0.6 1.3,0.4 2.3,1 3.2,1.8 0.9,0.8 1.7,1.8 2.2,3 0.5,1.2 0.8,2.6 0.8,4.2 0,1.3 -0.2,2.6 -0.6,3.7 -0.4,1.1 -1,2.2 -1.7,3.3 -0.7,1 -1.5,2.1 -2.4,3.1 -0.9,1 -1.9,2 -2.9,3 l -11.1,11.3 c 0.5,-0.1 1.1,-0.2 1.7,-0.3 0.6,-0.1 1.2,-0.1 1.7,-0.1 l 15.3,0 c 0.3,0 0.5,0.1 0.6,0.2 0.2,0.2 0.2,0.4 0.2,0.6 l 0,1.4 -22.8,0 0,-0.8 c 0,-0.2 0,-0.4 0.1,-0.6 0.1,-0.2 0.2,-0.4 0.3,-0.5 l 12.1,-12.2 c 1,-1 1.9,-2 2.8,-3 0.9,-1 1.6,-1.9 2.2,-2.9 0.6,-1 1.1,-2 1.5,-3 0.4,-1 0.5,-2.1 0.5,-3.3 0,-1.3 -0.2,-2.4 -0.7,-3.4 -0.4,-1 -1,-1.7 -1.7,-2.4 -0.7,-0.7 -1.6,-1.1 -2.5,-1.4 -0.9,-0.3 -1.9,-0.5 -3,-0.5 -1.1,0 -2.1,0.2 -3.1,0.5 -0.9,0.3 -1.8,0.8 -2.5,1.4 -0.7,0.6 -1.3,1.3 -1.8,2.2 -0.5,0.8 -0.8,1.8 -1,2.8 -0.2,0.6 -0.5,0.9 -1,0.9 0,0 -0.1,0 -0.1,0 0,0 -0.1,0 -0.1,0 l -1.2,-0.2 c 0.2,-1.5 0.6,-2.9 1.2,-4.1 0.6,-1.2 1.4,-2.2 2.4,-3 1,-0.8 2.1,-1.4 3.3,-1.9 1.2,-0.5 2.7,-0.4 4.2,-0.4 z"
         id="path127"
         inkscape:connector-curvature="0" /><path
         d="m 461.6,82.3 c 0,3.1 -0.3,5.8 -1,8 -0.7,2.3 -1.6,4.1 -2.7,5.6 -1.2,1.5 -2.5,2.6 -4,3.3 -1.5,0.7 -3.2,1.1 -4.9,1.1 -1.7,0 -3.4,-0.4 -4.9,-1.1 -1.5,-0.7 -2.9,-1.8 -4,-3.3 -1.2,-1.5 -2.1,-3.4 -2.7,-5.6 -0.7,-2.3 -1,-4.9 -1,-8 0,-3.1 0.3,-5.8 1,-8 0.7,-2.2 1.6,-4.1 2.7,-5.6 1.1,-1.5 2.5,-2.6 4,-3.3 1.5,-0.7 3.2,-1.1 4.9,-1.1 1.7,0 3.4,0.4 4.9,1.1 1.5,0.7 2.9,1.8 4,3.3 1.1,1.5 2.1,3.4 2.7,5.6 0.7,2.2 1,4.9 1,8 z m -2.5,0 c 0,-2.9 -0.3,-5.3 -0.8,-7.3 -0.5,-2 -1.3,-3.7 -2.2,-5 -0.9,-1.3 -2,-2.2 -3.3,-2.8 -1.2,-0.6 -2.5,-0.9 -3.9,-0.9 -1.4,0 -2.7,0.3 -3.9,0.9 -1.2,0.6 -2.3,1.5 -3.3,2.8 -0.9,1.3 -1.7,3 -2.2,5 -0.5,2 -0.8,4.5 -0.8,7.3 0,2.9 0.3,5.3 0.8,7.4 0.6,2 1.3,3.7 2.2,5 0.9,1.3 2,2.2 3.3,2.8 1.2,0.6 2.5,0.9 3.9,0.9 1.4,0 2.7,-0.3 3.9,-0.9 1.2,-0.6 2.3,-1.5 3.3,-2.8 0.9,-1.3 1.7,-3 2.2,-5 0.5,-2.1 0.8,-4.5 0.8,-7.4 z"
         id="path129"
         inkscape:connector-curvature="0" /><path
         d="m 471.2,98.2 8.1,0 0,-28.7 c 0,-0.6 0,-1.2 0.1,-1.8 l -7.8,6.9 c -0.2,0.2 -0.4,0.2 -0.6,0.2 -0.3,0 -0.5,-0.1 -0.7,-0.3 l -0.7,-1 10.2,-9 1.8,0 0,33.7 7.7,0 0,1.8 -18.2,0 0,-1.8 z"
         id="path131"
         inkscape:connector-curvature="0" /><path
         d="m 508.1,78.8 c 1.5,0 2.9,0.3 4.2,0.8 1.3,0.5 2.4,1.2 3.3,2.1 0.9,0.9 1.6,2 2.2,3.3 0.6,1.3 0.8,2.7 0.8,4.3 0,1.6 -0.3,3.1 -0.9,4.4 -0.6,1.3 -1.4,2.5 -2.4,3.5 -1,1 -2.3,1.8 -3.7,2.3 -1.4,0.5 -3,0.8 -4.7,0.8 -1.7,0 -3.2,-0.3 -4.5,-0.8 -1.3,-0.5 -2.5,-1.3 -3.5,-2.3 -1,-1 -1.7,-2.2 -2.3,-3.7 -0.6,-1.5 -0.8,-3.1 -0.8,-4.9 0,-1.4 0.3,-2.9 1,-4.7 0.7,-1.7 1.8,-3.7 3.5,-5.9 l 9.6,-13 c 0.3,-0.4 0.7,-0.6 1.3,-0.6 l 2.1,0 -10.5,13.8 c -0.5,0.7 -1,1.3 -1.4,1.9 -0.4,0.6 -0.8,1.2 -1.2,1.8 1,-1 2.1,-1.8 3.5,-2.4 1.4,-0.4 2.8,-0.7 4.4,-0.7 z m -9.9,10.5 c 0,1.3 0.2,2.5 0.6,3.6 0.4,1.1 1,2.1 1.7,2.9 0.8,0.8 1.7,1.4 2.8,1.9 1.1,0.5 2.3,0.7 3.7,0.7 1.4,0 2.7,-0.2 3.9,-0.7 1.2,-0.5 2.1,-1.1 2.9,-1.9 0.8,-0.8 1.4,-1.7 1.9,-2.8 0.4,-1.1 0.6,-2.3 0.6,-3.6 0,-1.3 -0.2,-2.6 -0.6,-3.7 -0.4,-1.1 -1,-2 -1.8,-2.8 -0.8,-0.8 -1.7,-1.3 -2.8,-1.8 -1.1,-0.5 -2.3,-0.6 -3.6,-0.6 -1.5,0 -2.8,0.3 -3.9,0.8 -1.2,0.5 -2.1,1.2 -2.9,2 -0.8,0.8 -1.4,1.7 -1.8,2.8 -0.4,1.1 -0.7,2.2 -0.7,3.2 z"
         id="path133"
         inkscape:connector-curvature="0" /></g></g><g
     id="g135"
     transform="translate(-160.90001,-63.8)"><path
       d="m 284.6,127.3 c -0.4,0.9 -1,1.6 -1.7,2.1 -1.4,1 -3,1.5 -4.9,1.5 -2,0 -3.9,-0.6 -5.6,-1.8 -2.7,-1.9 -4,-5 -4,-9.4 0,-3.2 0.7,-5.7 2.2,-7.6 0.9,-1.1 1.9,-2 3.2,-2.6 1.3,-0.6 2.7,-0.9 4.3,-0.9 1.1,0 2,0.2 3,0.5 0.9,0.3 1.7,0.8 2.3,1.3 0.4,0.4 0.7,0.9 1,1.5 l 0,-2.8 2.5,0 0,7.6 -2.5,0 c -0.1,-1.4 -0.4,-2.5 -1,-3.4 -0.5,-0.8 -1.3,-1.4 -2.4,-1.8 -0.8,-0.3 -1.7,-0.5 -2.6,-0.5 -2.4,0 -4.2,0.9 -5.4,2.7 -1,1.6 -1.5,3.5 -1.5,5.9 0,2.4 0.5,4.5 1.5,6 0.5,0.9 1.3,1.6 2.3,2.1 0.9,0.5 1.9,0.7 3,0.7 1.7,0 3.2,-0.5 4.3,-1.6 1.3,-1.2 2,-2.8 2,-5 l -3.3,0 0,-2.1 8.8,0 0,2.1 -2.8,0 0,8.5 -2.7,0 0,-3 z"
       id="path137"
       inkscape:connector-curvature="0" /><path
       d="m 296.3,118.9 c 0.2,-1.1 0.7,-2 1.5,-2.7 0.8,-0.7 1.8,-1 3,-1 0.4,0 0.8,0.1 1.2,0.2 l 0,2.4 c -0.4,-0.3 -0.9,-0.5 -1.4,-0.5 -1.1,0 -2,0.4 -2.8,1.3 -0.9,1 -1.3,2.4 -1.3,4.3 l 0,5.7 2.9,0 0,2 -8.3,0 0,-2 2.6,0 0,-11 -2.6,0 0,-2 5.1,0 0,3.3 z"
       id="path139"
       inkscape:connector-curvature="0" /><path
       d="m 308.9,115.6 0,12.9 2,0 0,2 -7.4,0 0,-2 2.7,0 0,-11 -2.7,0 0,-2 5.4,0 z m -3.2,-6.4 3,0 0,2.9 -3,0 0,-2.9 z"
       id="path141"
       inkscape:connector-curvature="0" /><path
       d="m 316.8,117.6 0,8.8 c 0,0.9 0.1,1.6 0.4,1.9 0.3,0.4 0.7,0.6 1.2,0.6 0.7,0 1.2,-0.3 1.4,-1 0.1,-0.3 0.2,-1 0.2,-1.9 l 2,0 c 0,1.6 -0.2,2.7 -0.6,3.3 -0.7,1.1 -1.8,1.7 -3.5,1.7 -1.1,0 -1.9,-0.3 -2.6,-0.8 -0.5,-0.4 -0.8,-0.8 -0.9,-1.3 -0.2,-0.6 -0.3,-1.4 -0.3,-2.3 l 0,-8.8 -2.7,0 0,-2 2.7,0 0,-3.3 2.7,-1 0,4.3 4.6,0 0,2 -4.6,0 z"
       id="path143"
       inkscape:connector-curvature="0" /><path
       d="m 329.5,109.2 1.6,0 0,26.7 -1.6,0 0,-26.7 z"
       id="path145"
       inkscape:connector-curvature="0" /><path
       d="m 355.3,127.3 c -0.4,0.9 -1,1.6 -1.7,2.1 -1.4,1 -3,1.5 -4.9,1.5 -2,0 -3.9,-0.6 -5.6,-1.8 -2.7,-1.9 -4,-5 -4,-9.4 0,-3.2 0.7,-5.7 2.2,-7.6 0.9,-1.1 1.9,-2 3.2,-2.6 1.3,-0.6 2.7,-0.9 4.3,-0.9 1.1,0 2,0.2 3,0.5 0.9,0.3 1.7,0.8 2.3,1.3 0.4,0.4 0.7,0.9 1,1.5 l 0,-2.8 2.5,0 0,7.6 -2.5,0 c -0.1,-1.4 -0.4,-2.5 -1,-3.4 -0.5,-0.8 -1.3,-1.4 -2.4,-1.8 -0.8,-0.3 -1.7,-0.5 -2.6,-0.5 -2.4,0 -4.2,0.9 -5.4,2.7 -1,1.6 -1.5,3.5 -1.5,5.9 0,2.4 0.5,4.5 1.5,6 0.5,0.9 1.3,1.6 2.3,2.1 0.9,0.5 1.9,0.7 3,0.7 1.7,0 3.2,-0.5 4.3,-1.6 1.3,-1.2 2,-2.8 2,-5 l -3.3,0 0,-2.1 8.8,0 0,2.1 -2.8,0 0,8.5 -2.7,0 0,-3 z"
       id="path147"
       inkscape:connector-curvature="0" /><path
       d="m 374.3,127.3 c -0.1,0.8 -0.5,1.4 -1,2 -0.5,0.6 -1,1 -1.7,1.2 -0.7,0.2 -1.4,0.4 -2.4,0.4 -1.8,0 -3.1,-0.5 -4,-1.6 -0.5,-0.7 -0.8,-1.4 -1,-2.3 -0.1,-0.6 -0.1,-1.2 -0.1,-1.9 l 0,-7.5 -2.7,0 0,-2 5.4,0 0,9.5 c 0,1.2 0.3,2.2 0.8,2.8 0.5,0.6 1.3,0.9 2.3,0.9 1.4,0 2.5,-0.6 3.2,-1.9 0.5,-0.9 0.8,-2 0.8,-3.4 l 0,-6 -2.9,0 0,-2 5.6,0 0,12.9 2.5,0 0,2 -4.9,0 0,-3.1 z"
       id="path149"
       inkscape:connector-curvature="0" /><path
       d="m 384.8,117.6 0,8.8 c 0,0.9 0.1,1.6 0.4,1.9 0.3,0.4 0.7,0.6 1.2,0.6 0.7,0 1.2,-0.3 1.4,-1 0.1,-0.3 0.2,-1 0.2,-1.9 l 2,0 c 0,1.6 -0.2,2.7 -0.6,3.3 -0.7,1.1 -1.8,1.7 -3.5,1.7 -1.1,0 -1.9,-0.3 -2.6,-0.8 -0.5,-0.4 -0.8,-0.8 -0.9,-1.3 -0.2,-0.6 -0.3,-1.4 -0.3,-2.3 l 0,-8.8 -2.7,0 0,-2 2.7,0 0,-3.3 2.7,-1 0,4.3 4.6,0 0,2 -4.6,0 z"
       id="path151"
       inkscape:connector-curvature="0" /><path
       d="m 401.7,117.5 0,-1.9 2.2,0 0,4.9 -2.2,0 c 0,-0.6 -0.1,-1.1 -0.3,-1.5 -0.6,-1.1 -1.7,-1.7 -3.4,-1.7 -1,0 -1.9,0.2 -2.5,0.7 -0.5,0.4 -0.7,0.9 -0.7,1.5 0,0.6 0.2,1 0.5,1.3 0.3,0.3 0.9,0.5 1.8,0.7 l 1.8,0.3 c 1.1,0.2 1.8,0.3 2.3,0.5 1.9,0.7 2.8,2 2.8,3.9 0,1.5 -0.5,2.7 -1.6,3.5 -1,0.8 -2.3,1.2 -4,1.2 -1.4,0 -2.4,-0.3 -3.2,-0.8 -0.5,-0.4 -1,-0.9 -1.3,-1.6 l 0,2.1 -2.2,0 0,-5.1 2.2,0 c 0,0.6 0.2,1.1 0.4,1.6 0.3,0.6 0.8,1 1.5,1.4 0.6,0.3 1.3,0.5 2,0.5 0.8,0 1.5,-0.2 2.2,-0.5 0.8,-0.4 1.2,-1 1.2,-1.9 0,-0.8 -0.3,-1.4 -0.9,-1.7 -0.4,-0.2 -1.1,-0.4 -2.1,-0.5 l -1.7,-0.3 c -1.6,-0.2 -2.8,-0.6 -3.4,-1.2 -0.8,-0.7 -1.1,-1.7 -1.1,-2.9 0,-1.5 0.6,-2.7 1.9,-3.5 1.1,-0.7 2.3,-1 3.8,-1 1.4,0 2.6,0.3 3.3,1 0.1,0 0.4,0.4 0.7,1 z"
       id="path153"
       inkscape:connector-curvature="0" /><path
       d="m 412,109.2 1.6,0 0,26.7 -1.6,0 0,-26.7 z"
       id="path155"
       inkscape:connector-curvature="0" /><path
       d="m 437.8,127.3 c -0.4,0.9 -1,1.6 -1.7,2.1 -1.4,1 -3,1.5 -4.9,1.5 -2,0 -3.9,-0.6 -5.6,-1.8 -2.7,-1.9 -4,-5 -4,-9.4 0,-3.2 0.7,-5.7 2.2,-7.6 0.9,-1.1 1.9,-2 3.2,-2.6 1.3,-0.6 2.7,-0.9 4.3,-0.9 1.1,0 2,0.2 3,0.5 0.9,0.3 1.7,0.8 2.3,1.3 0.4,0.4 0.7,0.9 1,1.5 l 0,-2.8 2.5,0 0,7.6 -2.5,0 c -0.1,-1.4 -0.4,-2.5 -1,-3.4 -0.5,-0.8 -1.3,-1.4 -2.4,-1.8 -0.8,-0.3 -1.7,-0.5 -2.6,-0.5 -2.4,0 -4.2,0.9 -5.4,2.7 -1,1.6 -1.5,3.5 -1.5,5.9 0,2.4 0.5,4.5 1.5,6 0.5,0.9 1.3,1.6 2.3,2.1 0.9,0.5 1.9,0.7 3,0.7 1.7,0 3.2,-0.5 4.3,-1.6 1.3,-1.2 2,-2.8 2,-5 l -3.3,0 0,-2.1 8.8,0 0,2.1 -2.8,0 0,8.5 -2.7,0 0,-3 z"
       id="path157"
       inkscape:connector-curvature="0" /><path
       d="m 449.4,109.2 0,19.3 2.5,0 0,2 -7.6,0 0,-2 2.4,0 0,-17.4 -2.4,0 0,-2 5.1,0 z"
       id="path159"
       inkscape:connector-curvature="0" /><path
       d="m 460.8,115.2 c 2.4,0 4.3,0.8 5.7,2.5 1.1,1.4 1.7,3.2 1.7,5.4 0,2.1 -0.5,3.8 -1.6,5.2 -1.4,1.7 -3.3,2.6 -5.8,2.6 -2.4,0 -4.3,-0.8 -5.7,-2.4 -1.2,-1.4 -1.8,-3.2 -1.8,-5.5 0,-2.4 0.7,-4.3 2.1,-5.7 1.3,-1.4 3.1,-2.1 5.4,-2.1 z m -0.2,2.1 c -1.5,0 -2.7,0.6 -3.6,1.9 -0.7,1 -1,2.3 -1,3.9 0,1.6 0.4,2.9 1.1,3.9 0.9,1.2 2.1,1.8 3.5,1.8 1.8,0 3.1,-0.8 3.9,-2.3 0.5,-0.9 0.8,-2 0.8,-3.4 0,-1.6 -0.3,-2.8 -1,-3.8 -0.8,-1.4 -2.1,-2 -3.7,-2 z"
       id="path161"
       inkscape:connector-curvature="0" /><path
       d="m 474.8,118.9 c 0.2,-1.1 0.7,-2 1.5,-2.7 0.8,-0.7 1.8,-1 3,-1 0.4,0 0.8,0.1 1.2,0.2 l 0,2.4 c -0.4,-0.3 -0.9,-0.5 -1.4,-0.5 -1.1,0 -2,0.4 -2.8,1.3 -0.9,1 -1.3,2.4 -1.3,4.3 l 0,5.7 2.9,0 0,2 -8.3,0 0,-2 2.6,0 0,-11 -2.6,0 0,-2 5.1,0 0,3.3 z"
       id="path163"
       inkscape:connector-curvature="0" /><path
       d="m 488.9,130.5 -5.5,-13 -1.5,0 0,-2 6.9,0 0,2 -2.8,0 4,9.6 c 0.1,0.3 0.2,0.6 0.2,0.8 0.1,-0.3 0.1,-0.5 0.3,-0.8 l 3.8,-9.6 -2.7,0 0,-2 6.6,0 0,2 -1.4,0 -5.9,14.4 c -0.8,2 -1.5,3.2 -2,3.6 -0.6,0.5 -1.5,0.7 -2.7,0.7 -0.7,0 -1.3,-0.1 -1.9,-0.2 l 0,-2 c 0.4,0.1 0.9,0.1 1.5,0.1 0.5,0 1,-0.1 1.3,-0.4 0.3,-0.2 0.4,-0.4 0.6,-0.6 0.1,-0.2 0.2,-0.5 0.5,-1 l 0.7,-1.6 z"
       id="path165"
       inkscape:connector-curvature="0" /></g></svg>