<?xml version="1.0" encoding="utf-8"?>
<!-- Generator: Adobe Illustrator 18.0.0, SVG Export Plug-In . SVG Version: 6.00 Build 0)  -->
<!DOCTYPE svg PUBLIC "-//W3C//DTD SVG 1.1//EN" "http://www.w3.org/Graphics/SVG/1.1/DTD/svg11.dtd">
<svg version="1.1" id="Layer_1" xmlns="http://www.w3.org/2000/svg" xmlns:xlink="http://www.w3.org/1999/xlink" x="0px" y="0px"
	 viewBox="0 0 736 674" enable-background="new 0 0 736 674" xml:space="preserve">
<path display="none" fill="#FFFFFF" d="M702.7,681.6c-245,0-490.1,0-735.1,0c0-242.6,0-485.2,0-727.7c245,0,490.1,0,735.1,0
	C702.7,196.4,702.7,439,702.7,681.6z M246.3,198C246.3,198,246.3,197.9,246.3,198c-0.4,2-0.9,4-1.4,6c-0.1,0.2-0.1,0.5-0.1,0.7
	c-0.4,0.9-1.2,1.7-1.2,2.6c-0.6,12-1.2,24.1-1.7,36.1c0,3.3,0,6.6-0.1,9.9c-0.2,0.6-0.5,1.2-0.5,1.8c-0.6,10.3-1,20.6-1.8,30.9
	c-0.8,11.6-3.4,22.9-8.9,33.4c-0.5,1-1.9,2.1-3,2.1c-3,0.1-3.5,1.6-3.5,4.1c0,3.2-1.5,4.1-4.7,3.2c-0.6-0.1-1.2-0.1-2.1-0.3
	c0,2,0.2,3.8-0.1,5.5c-0.1,1-0.6,2.2-1.3,2.8c-3.2,2.8-3.3,3.2,0,5.8c2,1.6,1.7,2.8-0.5,3.4c-2.3,0.7-4.7,0.8-7,1.4
	c-1.4,0.4-2.6,1.3-3.9,1.9c1.2,0.8,2.3,1.7,3.6,2.3c1.4,0.6,2.9,0.8,4.3,1.3c6,2.3,11.9,4.8,18,6.9c0.8,0.3,2.9-0.5,3.1-1.2
	c0.9-2.9,3.1-3.1,5.1-2.4c2.7,1,5.5,2.3,7.7,4.1c1.9,1.5,3,2.2,5,0.2c2.4-2.4,7.1-3,9.4-0.8c2.7,2.6,5.6,2.5,8.8,2.4
	c5.6-0.1,11.3-0.6,16.8,0.3c3.4,0.5,5.4,0,7.7-2.2c2.7-2.7,6.1-2.2,9.1,0.1c0.9,0.7,2.8,1,3.9,0.6c1.5-0.6,2.8-2,4-3.2
	c2.8-2.8,5.4-2.6,8.5,0c1.2,1,3.8,1.4,5.4,0.8c4.8-1.7,9.3-4.1,14-6.2c0.8-0.3,1.7-0.4,2.5-0.6c3.6-0.9,7.1-1.8,11.6-3
	c-1.4-0.8-2-1.3-2.6-1.4c-3.1-0.5-6.3-0.7-9.3-1.6c-1.1-0.3-2.8-2.8-2.5-3.5c1.6-3.3-0.9-5.4-1.5-8.1c-0.7-2.9-0.3-6.1-4.7-6.2
	c-0.6,0-1.3-1.7-1.6-2.8c-0.6-1.6-0.9-3.3-1.4-5.2c-1.4,0.6-2.5,1-4.1,1.6c-0.6-1.6-1-3-1.5-4.4c-0.5-1.3-1-2.6-1.6-3.8
	c-1.5-2.9-3.3-5.7-4.4-8.8c-1.2-3.1-1.6-6.5-2.4-9.8c-0.5-6.2-1.2-12.5-1.5-18.7c-0.3-6-0.1-12.1-0.2-18.1
	c-0.1-8.4-0.2-16.8-0.5-25.2c-0.4-9.7-1-19.3-1.5-29c0.1-0.2,0.1-0.5,0-0.7c0-0.3,0-0.5-0.1-0.8c0.1-2.6,0.3-5.2-2.8-6.2
	c-2.7-0.8-5.5-1.4-8.3-2c-5.5-1.3-11.1-2.1-16.4-4c-5.3-1.8-10.5-2.3-15.8-0.5c-1.7,0.6-3.2,1.5-4.9,2c-5.4,1.7-10.7,3.2-16.1,4.8
	C246.8,197.1,246.5,197.5,246.3,198z"/>
<path display="none" fill="#FFFFFF" d="M-178.2,671.3c0-321.8,0-643.5,0-965.3c321.8,0,643.5,0,965.3,0c0,321.8,0,643.5,0,965.3
	C465.4,671.3,143.6,671.3-178.2,671.3z"/>
<g>
	<path fill="#299C4C" d="M127.9,359.1c-1,5.7-6.7,7.7-9.5,11.9c-2.3,3.6-4.4,7.4-6.6,11.3c3.3,1.3,5.5,2.6,7.9,2.9
		c1.7,0.2,4.5-0.6,5.1-1.7c2-4.3,5.8-5.5,9.7-6.2c6.6-1.2,13.1-2.2,18.5,3.8c3.1,3.4,7.7,3.4,12,2.8c1.1-0.2,2.1-1.9,2.8-3.1
		c1-1.7,1.8-3.7,4.1-2.6c2.5,1.1,1.8,3.3,0.9,5.2c-2.7,6.3-9.5,8.7-17,5.6c-2.9-1.2-5.3-3.8-8.3-5c-2.6-1.1-5.6-1.7-8.5-1.6
		c-3.9,0.1-7.7,0.6-10,5c-2,3.8-8,4.9-12.1,3.1c-2-0.9-4.1-1.4-7.4-2.5c-0.2,7.5-0.7,14.1-0.4,20.6c0.3,6.6,1.5,13.1,2,19.7
		c0.1,1-1.1,2-1.7,3.1c-0.5,0.9-1.2,1.8-1.3,2.7c-0.3,6.8-0.3,13.5-0.9,20.3c-0.2,3.1-1.2,6.1-2.2,9.1c-1.8,5.1-0.1,10.1,0,15.1
		c0,3.8-1.3,7.5-2.2,11.3c-0.1,0.5-1.6,1.1-2.1,0.9c-1.2-0.7-3.1-1.8-3.1-2.6c0.1-5,0.6-10.1,1.1-15.1c0.2-1.9,1.1-3.8,1.1-5.7
		c-0.1-8.2,0.1-16.5-0.7-24.7c-0.6-6.3-2.6-12.4-4-18.7c-0.1-0.4-0.7-0.6-1.9-1.7c-1.1,6.3-2.3,11.9-3,17.6c-0.1,1.2,1.4,3,2.6,3.9
		c2.1,1.5,3.5,3,3.4,5.7c-0.2,3.4-0.2,6.8-0.1,10.2c0,2.7-1,4.9-3.8,4.9s-3-2.5-2.8-4.7c0.2-3.2,0.5-6.5,0.7-10.1
		c-1.7-0.4-3.5-0.6-5.2-1.2c-0.9-0.3-2-1.2-2.3-2c-0.6-2.1-1-4.4-1.2-6.6c-0.4-4,0.3-8.2-2.5-11.7c-0.7-0.9-1.2-2.6-0.8-3.5
		c2.3-5.8,0.9-12.1,4-18c1.2-2.3,5.5-0.2,2.5-20.3c-4.3,8.2-10.6,9.7-18.6,8.3c-6.3-1.1-12.7-1.4-19.1-1.7c-1.5-0.1-3.4,1.1-4.5,2.2
		c-4,3.9-7.7,8.3-11.9,12c-1,0.9-3.7,0.5-5.3-0.2c-2.3-1-4.4-2.8-6.5-4.2c-1.5-1.1-3.4-2-4.4-3.4c-2-2.7-4.2-4.3-7.7-4.7
		c-1.1-0.1-2.1-2-3.1-3c1.3-0.8,2.8-2.5,4-2.2c2.8,0.5,5.8,1.5,8.2,3.1c4.2,2.8,7.9,6.2,12.2,9.6c4.2-4.6,7.6-8.7,11.4-12.4
		c1.6-1.5,4.2-2.6,6.2-2.6c7.2,0.2,14.5,0.8,21.7,1.7c7.7,1,8.4,0.8,12.3-5.8c0.8-1.4,2.5-2.2,3.4-3c-0.5-2.8-0.5-6.1-1.7-8.8
		c-1.4-3.2-3.9-6-5.9-8.9c-0.4-0.6-1.5-1-1.5-1.5c-0.2-6.4-6.2-9.1-8.8-14c-1.6-3-3.3-5.9-4.5-9.3c5.1,2.6,9.5,5.8,12.9,10.3
		c1.5,2,3.3,3.9,5.3,5.5c3,2.4,6.5,4.1,9.3,6.7c2.3,2.2,4.3,2,7.1,0.8c-0.5-1-0.7-2.1-1.3-2.7c-3.2-3.4-2.3-7.1-0.9-10.8
		c1-2.9,3.3-3.7,6.2-3.7c2.8,0,4.2,1.6,4.9,3.7c1.2,3.3,2.9,6.7-0.5,10c-0.6,0.6-0.3,3.4,0.3,3.8c1.6,0.9,2.8,3.7,5.4,1.7
		c2.3-1.8,4.7-3.5,7.1-5c1.5-0.9,3.5-1.1,5-2.1c3.2-2.2,6.2-4.7,9.2-7c0.9-0.7,1.9-1.2,2.9-1.8c1,0.4,2.1,0.7,3.2,1.1
		c-2.5,3.2-4.7,6-6.8,8.7l0,0C129.4,357.6,128.6,358.4,127.9,359.1z"/>
	<path fill="#3A9652" d="M126.2,365.2c0.7-0.7,1.4-1.4,2.1-2.2C127.6,363.7,126.9,364.4,126.2,365.2z"/>
	<path display="none" fill="#FFFFFF" d="M-394.4,703.8c0-321.8,0-643.5,0-965.3c321.8,0,643.5,0,965.3,0c0,321.8,0,643.5,0,965.3
		C249.2,703.8-72.6,703.8-394.4,703.8z M147.4,329.6L147.4,329.6c1.7-1.3,3.6-2.3,5.1-3.7c5.8-5.3,11-11.2,17.3-15.8
		c4.2-3.1,5.2-7,6.1-11.7c-2.7,0.7-6,1.4-6.9,3.3c-3.3,6.9-8.9,10.5-15.7,13c-0.5,0.2-0.7,1.3-1,2c-1.3,0.8-2.6,1.5-3.8,2.4
		c-4.1,3.1-8.1,6.4-12.3,9.3c-1.9,1.3-4.6,1.6-6.6,2.8c-3.3,2-6.4,4.3-9.5,6.6c-3.5,2.6-5.1-1.1-7.2-2.3c-0.9-0.5-1.3-4.3-0.4-5
		c4.6-4.4,2.3-8.9,0.7-13.3c-1-2.9-2.9-5-6.6-5c-3.9,0.1-6.9,1.2-8.2,5c-1.8,4.9-3,9.8,1.2,14.4c0.8,0.9,1.1,2.2,1.7,3.6
		c-3.7,1.6-6.3,1.9-9.4-1c-3.7-3.5-8.4-5.8-12.4-9c-2.6-2.1-5.1-4.6-7.1-7.3c-4.5-6-10.4-10.3-17.1-13.7c1.5,4.5,3.8,8.4,6,12.4
		c3.4,6.5,11.5,10.1,11.7,18.6c0,0.7,1.5,1.2,2,2c2.7,3.9,6,7.6,7.9,11.9c1.6,3.6,1.6,7.9,2.2,11.7c-1.3,1.1-3.5,2.2-4.6,4
		c-5.3,8.8-6.2,9-16.4,7.7c-9.6-1.3-19.2-2-28.9-2.3c-2.8-0.1-6.2,1.5-8.3,3.4c-5.2,4.9-9.7,10.4-15.2,16.5C6,385.5,1,381-4.6,377.3
		c-3.2-2.1-7.1-3.4-10.9-4.1c-1.5-0.3-3.5,1.9-5.3,3c1.4,1.4,2.7,3.9,4.2,4c4.6,0.4,7.6,2.6,10.3,6.2c1.4,1.9,3.8,3.1,5.9,4.5
		c2.8,2,5.5,4.3,8.7,5.6c2.1,0.9,5.7,1.4,7,0.2c5.6-5,10.5-10.8,15.8-16c1.6-1.5,4.1-3.1,6-3c8.5,0.4,17.1,0.7,25.4,2.2
		c10.7,2,19-0.1,24.8-11c1.5,10.1,0.7,19.4-3.4,27c-4.2,7.9-2.2,16.3-5.3,24c-0.5,1.2,0.2,3.5,1.1,4.7c3.7,4.7,2.8,10.3,3.3,15.6
		c0.3,3,0.7,5.9,1.6,8.8c0.3,1.1,1.8,2.3,3,2.7c2.2,0.8,4.6,1.1,6.9,1.6c-0.4,4.8-0.7,9.1-1,13.4c-0.2,3,0,6.2,3.8,6.3
		c3.8,0,5.2-2.8,5.1-6.5c-0.1-4.5,0-9.1,0.2-13.6c0.2-3.6-1.7-5.6-4.5-7.5c-1.6-1.1-3.6-3.5-3.4-5.1c0.9-7.5,2.5-15,4-23.4
		c1.7,1.4,2.5,1.7,2.6,2.2c1.9,8.3,4.5,16.5,5.3,24.8c1.1,10.9,0.9,21.9,1,32.9c0,2.5-1.2,5-1.4,7.6c-0.7,6.7-1.4,13.4-1.5,20.1
		c0,1.2,2.5,2.6,4.1,3.5c0.6,0.3,2.6-0.5,2.7-1.2c1.2-5,3-10,3-15c-0.1-6.7-2.3-13.3,0-20.1c1.4-3.9,2.6-8,3-12.1
		c0.7-9,0.7-18,1.2-27c0.1-1.2,1.1-2.4,1.7-3.6c0.8-1.4,2.4-2.8,2.3-4.1c-0.8-8.8-2.3-17.5-2.7-26.2c-0.4-8.7,0.3-17.5,0.5-27.5
		c4.4,1.5,7.2,2.2,9.9,3.4c5.5,2.4,13.5,0.9,16.1-4.2c3-5.9,8.1-6.6,13.4-6.7c3.8-0.1,7.8,0.7,11.3,2.1c3.9,1.6,7.1,5,11,6.6
		c9.9,4.2,19,1,22.6-7.4c1.1-2.6,2.1-5.4-1.2-6.9c-3.2-1.4-4.2,1.2-5.5,3.5c-0.9,1.6-2.3,3.9-3.7,4.1c-5.7,0.8-11.9,0.8-16-3.8
		c-7.1-8-15.8-6.7-24.6-5.1c-5.2,1-10.2,2.6-13,8.3c-0.7,1.6-4.6,2.6-6.8,2.3c-3.2-0.4-6.1-2.2-10.5-3.9c3-5.2,5.7-10.3,8.8-15
		c3.7-5.7,11.3-8.3,12.6-15.9C145.5,331.6,146.5,330.6,147.4,329.6z"/>
</g>
<path fill="#D9242A" d="M288.7,201.2c0.1,0.2,0.1,0.4,0.1,0.6c0,11.2,0.1,22.3,0.1,33.5c-0.3,0.9-1,1.9-0.8,2.8
	c1,7.2-1.2,14.2-3.6,20.4c-4.6,11.7-8.7,24-18.4,33.2c-6.7,6.3-12.3,13.6-19,19.9c-4.9,4.6-10.5,8.6-16.2,12.3
	c-3.8,2.6-9.6-1.2-9.6-5.9c0-4.7,0.2-9.4-0.1-14c-0.1-2-1.4-3.9-2.2-5.9c0.7-0.6,2-1.3,2-1.9c0-5.6-0.3-11.2-0.4-16.8
	c0.2-0.6,0.7-1.4,0.5-1.7c-2.4-3.3-1.1-6.8-0.7-10.2c0.4-3.5,0.8-6.7-0.5-10.4c-1-2.7,0.3-6.3,0.6-9.4c1.2-2,2.9-3.9,3.6-6.2
	c1.1-3.5,1.4-7.2,2.1-10.9c-0.2,0-0.7,0-1.2,0c-2.1-2.3-2.7-4.7-1.6-7.7c0.8-2.3,1-4.8,1.5-7c1.3-0.8,2.7-1.6,4.1-2.4
	c0.9-1.5,2.4-3,2.6-4.6c0.4-5.1,5.6-5.7,7.9-9c1-1.6,2.7-2.8,4-4.2c1.7-1.9,3.5-3.8,5.1-5.8c0.8-1,1.5-2.1,2.1-3.2
	c0.4-0.7,0.4-2,0.9-2.3c4.3-2.8,5.1-7.6,6.9-11.8c0.9,0.3,1.9,0.6,2.9,0.9c0.7-7.2,4.3-11,9.1-9.7c0.1-0.9,0.2-1.7,0.3-2.6
	c1.9,2.2,4.2,4.1,5.5,6.6c2.3,4.2,4.3,8.6,5.9,13.1c1.9,5.5,3.2,11.2,4.8,16.8C287.7,198.7,288.2,199.9,288.7,201.2z"/>
<path fill="#D6282B" d="M146.9,236.9c2.4-0.8,4.7-1.7,7.1-2.5c0.5-1.5,0.9-3,1.4-4.5c0.3-1,0.5-2.1,0.7-3.2c2.9,4.6,3,4.5,8.1,2.3
	c3.2-1.4,6.6-2.1,9.9-3.1c1.1-0.4,2.7-0.6,3.3-1.5c2.7-3.8,5.6-7.4,9.5-10.3c3-2.2,5.6-5.2,7.7-8.2c1.9-2.8,3-6.2,4.4-9.3
	c0.2-0.5,0.2-1.4,0.5-1.6c4.8-2.6,8.7-6,11.5-10.7c0.5-0.8,1.6-1.5,2.5-1.6c1.7-0.2,3.5,0,5.2,0c-0.7,1.5-1.1,3.3-2.1,4.5
	c-3.3,3.7-7.1,6.9-10.3,10.8c-4.4,5.4-8.6,11-9.9,18.2c-0.4,2-2.3,3.7-3.5,5.5c-3.7,5.8-8.7,10.2-14.6,13.6
	c-2.9,1.7-5.8,3.6-8.9,4.6c-3.8,1.2-7.9,1.6-11.8,2.5c-0.7,0.2-1.7,0.7-2,1.4c-1.4,4-4.1,3.8-7.2,2.3c-0.1-0.9-0.1-2.4-0.3-2.5
	c-1.4-0.1-3.5,0.6-4,0c-0.9-1.1-0.8-3-1-4C144.7,238.5,145.8,237.7,146.9,236.9z"/>
<path fill="#B93736" d="M261.3,266.3c-1.4,1-2.8,2-4.9,3.4c0.3,1.2,0.2,3.7,1.3,5.1c0.7,0.8,3.4-0.2,5.2,0c0.3,0,0.3,2.1,0.4,3.2
	c-6.7,1.4-6.8,1.4-8-5.5c-0.8-4.3-3.8-5-7.4-4.4c-1.5-3.3-0.1-4.6,2.9-4.1C254.3,264.6,257.8,265.6,261.3,266.3z"/>
<path fill="#B92C2D" d="M273.2,253.2c-0.3,1.4-0.6,2.8-1,4.1c-0.5,2-1.2,3.9-1.8,5.8c-0.9-8.1-1.8-16.2-2.8-24.6
	c1.6-0.3,3.4-2.1,3.3,2.3C270.9,244.9,272.4,249,273.2,253.2z"/>
<path fill="#B33D3A" d="M368.7,271.4c-1.4-3.7-3-7.6-4.4-11.3C365.9,263.8,367.3,267.5,368.7,271.4z"/>
<path fill="#2384BF" d="M-26.3,266.6c-0.2,0.9-0.3,1.7-0.5,2.6C-26.6,268.3-26.5,267.4-26.3,266.6z"/>
<path fill="#70BBE4" d="M21.1,229c0.8,3.3,1.2,6.7,2.4,9.8c1.1,3.1,3,5.8,4.4,8.8c0.6,1.2,1.1,2.5,1.6,3.8c0.5,1.4,0.9,2.7,1.5,4.4
	c1.6-0.6,2.7-1,4.1-1.6c0.5,1.8,0.8,3.5,1.4,5.2c0.4,1,1.1,2.8,1.6,2.8c4.5,0.1,4.1,3.3,4.7,6.2c0.6,2.7,3.1,4.8,1.5,8.1
	c-0.3,0.7,1.3,3.1,2.5,3.5c3,0.9,6.2,1.1,9.3,1.6c0.6,0.1,1.2,0.6,2.6,1.4c-4.4,1.1-8,2.1-11.6,3c-0.8,0.2-1.7,0.3-2.5,0.6
	c-4.7,2.1-9.2,4.4-14,6.2c-1.5,0.6-4.2,0.2-5.4-0.8c-3-2.5-5.6-2.8-8.5,0c-1.2,1.2-2.5,2.6-4,3.2c-1.1,0.4-3,0.1-3.9-0.6
	c-3-2.3-6.4-2.8-9.1-0.1c-2.3,2.2-4.3,2.8-7.7,2.2c-5.5-0.9-11.2-0.3-16.8-0.3c-3.2,0-6.1,0.2-8.8-2.4c-2.3-2.2-7-1.6-9.4,0.8
	c-2,2-3.1,1.3-5-0.2c-2.3-1.8-5-3.2-7.7-4.1c-2-0.7-4.2-0.5-5.1,2.4c-0.2,0.7-2.3,1.5-3.1,1.2c-6.1-2.2-12-4.6-18-6.9
	c-1.4-0.5-3-0.7-4.3-1.3c-1.3-0.6-2.4-1.5-3.6-2.3c1.3-0.7,2.5-1.6,3.9-1.9c2.3-0.6,4.7-0.7,7-1.4c2.2-0.6,2.5-1.8,0.5-3.4
	c-3.3-2.6-3.2-3.1,0-5.8c0.7-0.6,1.2-1.8,1.3-2.8c0.2-1.7,0.1-3.5,0.1-5.5c1,0.1,1.6,0.1,2.1,0.3c3.2,0.9,4.7,0,4.7-3.2
	c0-2.6,0.6-4,3.5-4.1c1,0,2.4-1.1,3-2.1c5.5-10.4,8-21.7,8.9-33.4c0.7-10.3,1.2-20.6,1.8-30.9c0-0.6,0.4-1.2,0.5-1.8
	c0.2,1.3,0.6,2.6,0.7,4c0.3,3.1,0.4,6.3,0.9,9.4c0.2,0.9,1.5,1.7,2.3,2.5c0.5-0.6,1.3-1.2,1.3-1.9c0.9-9.8,1.6-19.5,2.4-29.3
	c0.1-1.7,0.5-3.4,0.8-5.1c0.7,6.8,1.8,13.2,4.1,19.4c0.4,0,0.7-0.1,1.1-0.1c0.7-2.6,1.3-5.3,2-7.9c0.5,4.9,0.3,9.7,0.6,14.5
	c0.1,1.5,1.5,3,2.2,4.5c-1,4-2.1,8-3.2,12.1c0,0,0,0,0.1-0.1c-0.1,0-0.2,0-0.3,0.1c0,0,0,0.1-0.1,0.2c0.1,0,0.1,0,0.3-0.2
	c0.9,0.8,2,1.6,2.4,2.7c0.8,1.9,1.1,3.9,1.5,5.5c-4.9,3.3-9.8,6.6-14.8,9.9c0.5,0.3,0.9,0.6,1.4,1c0.1,1.1,0.5,2.2,0.3,3.3
	c-0.4,3.7-1.3,7.3-1.5,11c-0.1,3.2,0.4,6.5,0.7,9.7c-0.1,0.1-0.1,0.2-0.2,0.3c0.1-0.1,0.1-0.2,0.2-0.3c1,0.2,2,0.4,3,0.7
	c-1.5,2-3,4.1-4.6,6.1l0,0c-1,0.8-2.2,1.6-3,2.6c-1.4,1.8-2.2,4.2-3.9,5.5c-2.8,2.2-6.1,3.7-9.2,5.5c-4,2.4-4,4.2-0.3,9.3
	c-0.7,1-1.4,1.9-2.2,2.9c0.4,0.4,0.9,0.8,1.3,1.1c1.7-1.9,3.4-3.7,5.1-5.6l0,0c0.8-0.8,1.5-1.5,2.3-2.3c0.7,0.7,1.5,1.5,2.2,2.2
	c3.3,5.3,8.7,7.9,14.5,8.1c14.8,0.5,29.6,0,44.3,0.2c6.6,0.1,13-0.4,19.3-2.9c3-1.2,4.7-2.9,4.3-6.1c0.1-0.4,0.2-0.7,0.4-1.1
	c0.2,0.1,0.5,0.1,0.7,0.1c2.3,2.5,4,5.8,7.5,6.7c0.3-0.3,0.6-0.6,0.8-1c-0.7-1-1.3-2-1.9-2.9c0.5-1.2,0.9-2.3,1.4-3.4
	c1.2-2.1,1.3-3.9-1.5-4.7l0,0c-0.6-0.6-1-1.4-1.7-1.8c-3.2-2-6.5-3.9-9.8-5.8l0,0c-1.9-2.7-3.7-5.5-5.6-8.2
	c-1.4-1.9-2.9-3.7-4.3-5.5c1.5-0.5,4.2-1.1,4.2-1.5c-0.2-5.9,2.8-11.9-0.5-17.8c-0.7-1.2-0.1-3.2-0.1-4.8c0.7-0.4,0.2-0.7-0.1-1
	C12,223.6,9,219.5,3,220c-0.5,0-1.6-1.2-1.5-1.7c0.7-2.9,1.4-5.9,2.5-8.7c0.7-1.6,0.3-6.7-1.1-6.9c-4.2-0.6-3.8-3.3-3.2-6.1
	c0.4,1,0.7,1.9,1.1,2.9c0.2,0,0.5,0,0.7-0.1c0.9-8.9,1.7-17.8,2.6-26.7c0.3,0,0.7,0,1,0c0.2,0.7,0.3,1.3,0.5,2c0,0.5,0,1,0,1.5
	s0,1,0,1.6c0.5,2,1,4,1.5,6c0,0.8,0,1.5,0,2.3c0.2,0.3,0.5,0.5,0.7,0.8c0.8,2,1.5,4.1,2.3,6.1c0,0.2,0,0.5,0,0.7
	c0.5,3.6-1.1,7.6,1.8,11c0.8-1.6,1.1-3.2,1.2-4.9c0.3-4.8,0.5-9.7,0.8-14.5c0.7,2.6,1.5,5.1,2.2,7.7c0.9,7.4,1.7,14.8,2.6,22.2
	C19.8,219.6,20.5,224.3,21.1,229z"/>
<path fill="#38A5D8" d="M5.9,174.4c-0.2-0.7-0.3-1.3-0.5-2c-0.3,0-0.7,0-1,0c-0.9,8.9-1.7,17.8-2.6,26.7c-0.2,0-0.5,0-0.7,0.1
	c-0.4-1-0.7-1.9-1.1-2.9c-1.6-3.5-3.2-7-4.7-10.2c-1.2,2.1,1.1,6.7-4.2,7c-0.3-2.1-0.5-4.2-0.8-6.4c-0.7,0.1-1.7-0.1-1.9,0.2
	c-1.1,2-2,4.1-3.4,6.9c-2.8-4.9-3.7-9.7-3.8-14.1c-1.3,3.2-2.7,6.8-4.3,10.4c-0.9,2-2.1,3.8-3.1,5.7c-1-4.9-1.9-9.7-3.1-15.6
	c-0.3,5.4-0.5,10-0.8,14.6l0,0c-0.8,0.7-1.6,1.4-2.3,2.1c-0.5,0.1-1,0.1-1.5,0.2c-0.8-1.5-2.1-3-2.2-4.5c-0.3-4.8-0.1-9.6-0.6-14.5
	c-0.7,2.6-1.3,5.3-2,7.9c-0.4,0-0.7,0.1-1.1,0.1c-2.3-6.2-3.4-12.6-4.1-19.4c-0.3,1.7-0.6,3.4-0.8,5.1c-0.8,9.8-1.6,19.5-2.4,29.3
	c-0.1,0.7-0.9,1.3-1.3,1.9c-0.8-0.8-2.1-1.6-2.3-2.5c-0.5-3.1-0.6-6.2-0.9-9.4c-0.1-1.3-0.5-2.6-0.7-4c0-3.3,0-6.6,0.1-9.9
	c0.2-0.4,0.6-0.9,0.6-1.3c1.1-11.6,2.1-23.3,3.1-35c1-1.8,2-3.6,3-5.4c0.1,3.3,0.3,6.6,0.4,9.8c0.1,1.3,0.2,2.6,0.3,3.8
	c0.1,2.2,0.3,4.5,0.4,6.7c0.6,0,1.3,0,1.9-0.1c0.2-5,0.5-10,0.7-15c0.5,1.8,1,3.7,1.5,5.5c0.2,0,0.4-0.1,0.6-0.1
	c0.7-3.8,1.4-7.6,2-11.4c0.5,0,1,0,1.6,0.1c0,4.7,0,9.5,0,14.2c0.4,0,0.7,0,1.1,0c0.4-4.4,0.8-8.8,1.2-13.1c0.4,0,0.9-0.1,1.3-0.1
	c0.4,3.3,0.7,6.6,1.1,10c0.3,0,0.6,0,0.9,0c0.6-3.1,1.3-6.2,1.9-9.2c0.3,0.1,0.6,0.1,0.9,0.2c0.4,1.4,0.8,2.7,1.4,4.5
	c1.6-2.9,2.8-5,4-7.2c0.4,0.2,0.7,0.3,1.1,0.5c0,3.6,0,7.2,0,10.8c0.3,0,0.5,0.1,0.8,0.1c0.7-3.5,1.3-7,2-10.5c0.3,0,0.7,0,1-0.1
	c0.7,1.3,1.4,2.5,2.2,4c0.5-1,1-1.8,1.5-2.7c0.3,0.1,0.5,0.1,0.8,0.2c0,3.4,0,6.7,0,10.1c0.2,0,0.4,0,0.6,0c0.6-2.7,1.1-5.5,1.7-8.2
	c0.4,0,0.8,0.1,1.2,0.1c0,2.8,0,5.7,0,8.5c0.3,0,0.6,0,0.9,0c0.3-2,0.5-4,0.8-6.1c0.4,0.7,0.7,1.1,1.1,1.9c0.1-1.7,0.2-2.9,0.3-4.1
	c0.1,0,0.1,0,0.2,0c0.6,7.5,1.1,15,1.7,22.5c0.2,0,0.5-0.1,0.7-0.1c0.6-5.9,1.2-11.7,1.8-17.6c0.4,0,0.7,0,1.1,0c0.7,2,1.5,4,2.2,6
	c0.2-0.1,0.4-0.1,0.6-0.2c0.4-3.9,0.8-7.9,1.2-11.8c0.2,0,0.3,0,0.5-0.1c1.1,3.6,2.2,7.2,3.3,10.9c0.2-0.1,0.5-0.2,0.7-0.2
	c0.4-2.1,0.8-4.3,1.2-6.4c0.5,4,1.3,8,1.5,12c0.3,5.9,0.2,11.8,0,17.7c-0.1,2.3,0.8,3.2,3.1,3c0,1.3,0,2.5,0,3.8
	c-0.5,0.8-1,1.5-1.5,2.3c-0.5,0-1,0-1.5,0s-1,0-1.6,0c0-3.9,0-7.8,0-11.6c-0.2,0-0.5,0-0.7,0.1C7.5,170.7,6.7,172.6,5.9,174.4z"/>
<path fill="#6DBCE6" d="M9,141.7c-0.4,2.1-0.8,4.3-1.2,6.4c-0.2,0.1-0.5,0.2-0.7,0.2c-1.1-3.6-2.2-7.2-3.3-10.9
	c-0.2,0-0.3,0-0.5,0.1c-0.4,3.9-0.8,7.9-1.2,11.8c-0.2,0.1-0.4,0.1-0.6,0.2c-0.7-2-1.5-4-2.2-6c-0.4,0-0.7,0-1.1,0
	c-0.6,5.9-1.2,11.7-1.8,17.6c-0.2,0-0.5,0.1-0.7,0.1c-0.6-7.5-1.1-15-1.7-22.5c-0.1,0-0.1,0-0.2,0c-0.1,1.2-0.2,2.4-0.3,4.1
	c-0.5-0.8-0.7-1.3-1.1-1.9c-0.3,2.1-0.5,4.1-0.8,6.1c-0.3,0-0.6,0-0.9,0c0-2.8,0-5.7,0-8.5c-0.4,0-0.8-0.1-1.2-0.1
	c-0.6,2.7-1.1,5.5-1.7,8.2c-0.2,0-0.4,0-0.6,0c0-3.4,0-6.7,0-10.1c-0.3-0.1-0.5-0.1-0.8-0.2c-0.5,0.9-0.9,1.7-1.5,2.7
	c-0.8-1.5-1.5-2.7-2.2-4c-0.3,0-0.7,0-1,0.1c-0.7,3.5-1.3,7-2,10.5c-0.3,0-0.5-0.1-0.8-0.1c0-3.6,0-7.2,0-10.8
	c-0.4-0.2-0.7-0.3-1.1-0.5c-1.2,2.2-2.4,4.3-4,7.2c-0.6-1.8-1-3.2-1.4-4.5c-0.3-0.1-0.6-0.1-0.9-0.2c-0.6,3.1-1.3,6.2-1.9,9.2
	c-0.3,0-0.6,0-0.9,0c-0.4-3.3-0.7-6.6-1.1-10c-0.4,0-0.9,0.1-1.3,0.1c-0.4,4.4-0.8,8.8-1.2,13.1c-0.4,0-0.7,0-1.1,0
	c0-4.7,0-9.5,0-14.2c-0.5,0-1,0-1.6-0.1c-0.7,3.8-1.4,7.6-2,11.4c-0.2,0-0.4,0.1-0.6,0.1c-0.5-1.8-1-3.7-1.5-5.5c0-1.3,0-2.5,0-3.8
	c0-0.9,0.2-1.8-0.1-2.6c-0.3-0.9-0.9-1.7-1.4-2.6c-0.6,0.6-1.4,1.2-1.9,1.9c-0.3,0.5-0.4,1.2-0.6,1.8c-1,1.8-2,3.6-3,5.4
	c-0.3-0.8-0.5-1.6-0.8-2.5c0-0.3,0-0.5,0.1-0.7c0.5-2,0.9-4,1.4-6.1v0.1c0.3-0.4,0.5-0.9,0.8-1.3c5.4-1.6,10.8-3.1,16.1-4.8
	c1.7-0.5,3.2-1.4,4.9-2c5.3-1.8,10.5-1.3,15.8,0.5s10.9,2.7,16.4,4c2.8,0.7,5.6,1.2,8.3,2c3.1,1,3,3.7,2.8,6.2
	c-0.1,0.1-0.3,0.2-0.3,0.2c0.1,0.2,0.2,0.4,0.3,0.5c0.1,0.2,0.1,0.5,0,0.7c-0.8,1.5-1.6,3-2.4,4.5c-1,0.8-2,1.6-3.1,2.3
	C11,143.8,10,142.8,9,141.7z"/>
<path fill="#54ACCC" d="M15.1,142.5c0.8-1.5,1.6-3,2.4-4.5c0.5,9.7,1.1,19.3,1.5,29c0.3,8.4,0.4,16.8,0.5,25.2
	c0.1,6,0,12.1,0.2,18.1c0.3,6.2,1,12.5,1.5,18.7c-0.7-4.7-1.4-9.4-1.9-14.1c-0.9-7.4-1.7-14.8-2.6-22.2c0.5-0.6,1.6-1.3,1.5-1.7
	c-1.9-6.7,0.5-13.4,0.1-20.2c-0.4-6.9-0.7-13.7-0.7-20.6C17.5,147.3,17.5,144.6,15.1,142.5z"/>
<path fill="#54ACCC" d="M-49.2,138.7c0.3,0.8,0.5,1.6,0.8,2.5c-1,11.7-2.1,23.3-3.1,35c0,0.5-0.4,0.9-0.6,1.3
	c0.6-12,1.1-24.1,1.7-36.1C-50.4,140.4-49.6,139.5-49.2,138.7z"/>
<path fill="#54ACCC" d="M-47.7,131.9c-0.5,2-0.9,4-1.4,6.1C-48.6,135.9-48.2,133.9-47.7,131.9z"/>
<path fill="#54ACCC" d="M-46.9,130.6c-0.3,0.4-0.5,0.9-0.8,1.3C-47.5,131.5-47.2,131.1-46.9,130.6z"/>
<path fill="#54ACCC" d="M17.4,137.3c-0.1-0.2-0.2-0.3-0.3-0.5c0,0,0.2-0.1,0.3-0.2C17.4,136.8,17.4,137,17.4,137.3z"/>
<path fill="#2384BF" d="M35.1,278.3c-0.4,1.1-0.9,2.2-1.4,3.4c0.6,0.9,1.3,1.9,1.9,2.9c-0.3,0.3-0.6,0.6-0.8,1
	c-3.4-1-5.2-4.2-7.5-6.7c-0.2,0-0.5-0.1-0.7-0.1c-0.1,0.4-0.2,0.7-0.4,1c-1.3,1.4-2.4,3.7-3.9,4.1c-5.2,1.1-10,3.3-15.8,3
	c-15-0.8-30.1-0.6-45.1,0c-4.8,0.2-8.6-1.4-12.6-3.1c-1.8-0.8-3.4-2.1-5.1-3.1c-0.7-0.7-1.5-1.5-2.2-2.2c-2.7-1.1-2.2,0.9-2.3,2.3
	l0,0c-1.4,0.5-2.9,1-4.3,1.5c-3.7-5.1-3.6-6.9,0.3-9.3c2.8,1,8.1-1.3,10.9-4.5c1.3-1.5,3-2.7,5.2-4.6c0-0.9,0-2.7,0-4.5l0,0
	c4.8-1.5,6.8-4.7,6.7-9.9c1-2.5,1.7-5.2,3.1-7.5c1-1.7,2.8-3.4,4.6-4.1c0.9-0.4,2.7,1.4,4.7,2.6c0.5-1.3,1.4-3.3,2.3-5.4
	c5.6,0.6,0.1,4.1,2.2,6.6c1-0.7,2.7-1.4,3.1-2.4c0.5-1.8,0.2-3.8,0.2-5.7c-0.2-3.3,2.4-6.3,0.8-9.9c-1.1-2.4-1.9-5.1-2-7.7
	c0-3.5,0.3-7.1,1.5-10.3c1.3-3.4,5.1-3.3,8.1-2.9c1.4,0.2,3.5,2.4,3.4,3.6c-0.3,3.9,2.3,7.3,0.2,11.9c-2.2,4.9-1.2,11.4,1.6,17
	c6.7-3.4,5,4.3,7.3,5.4c1.9-1.2,3.3-2.5,5-3c0.7-0.2,2.3,1.1,2.7,2c1.7,3.7,3.1,7.5,4.6,11.3c0.3,1.7,0.1,3.7,1,5.1
	c1.3,2.2,3.3,4,5.1,5.9c1.4,1.5,3,2.8,4.5,4.2l0,0c0.1,1.8-0.2,4.8,0.4,5.1c3.5,1.2,7.3,1.8,11,2.5l0,0
	C34.1,275.2,34.6,276.8,35.1,278.3z M-27,269.8c1.6,4.9,2.4-2.7,3.9-0.2c0.1-1.2,0.9-3,0.3-3.6c-2.3-2.6-2-5.2-1.3-8.1
	c0.3-1.4-0.1-3-0.2-4.5c-0.4,0-0.8,0-1.2,0c-0.4,1-0.9,1.9-1.3,2.9c-0.5-2.3-1.1-4.7-1.7-7.3c-6.1,7.5-9.6,16.2-19.5,20.5
	c5,0.3,8.8,0.7,12.5,0.8C-32.7,270.3-29.9,270-27,269.8z M15.8,271.7c-0.1-0.4,0-1-0.3-1.3c-2.8-2.4-6-4.3-8.3-7
	c-3.2-3.7-5.8-8-9-12.5c-2.7,6.8-1.8,13.4-2.3,19.8c-3.7,0.9-1.9,3.7-2.1,5.9c0.9,0,2.6,0.2,2.6,0c0.4-2.6,2.5-2.1,4.2-2.1
	c3.2,0,6.4,0.3,9.5-0.1C12.1,274.1,13.9,272.6,15.8,271.7z"/>
<path display="none" fill="#FFFFFF" d="M305.5,316.9c-1.5-3.8-2.9-7.6-4.6-11.3c-0.4-0.9-2-2.2-2.7-2c-1.6,0.5-3.1,1.7-5,3
	c-2.2-1.1-0.6-8.8-7.3-5.4c-2.8-5.6-3.8-12-1.6-17c2.1-4.6-0.5-8-0.2-11.9c0.1-1.2-2.1-3.4-3.4-3.6c-3-0.4-6.8-0.5-8.1,2.9
	c-1.2,3.2-1.5,6.9-1.5,10.3c0,2.6,0.9,5.3,2,7.7c1.6,3.6-1,6.6-0.8,9.9c-0.4,0.2-0.9,0.4-1.3,0.7c-0.2,0.2-0.3,0.3-0.5,0.5
	c-1.2,0.1-2.5,0.3-3.7,0.4c-0.9,2-1.8,4.1-2.3,5.4c-2-1.2-3.8-3-4.7-2.6c-1.8,0.7-3.6,2.4-4.6,4.1c-1.4,2.3-2.1,5-3.1,7.5
	c-0.7,1.3-1.4,2.5-2.1,3.8c-1-0.2-2-0.4-3-0.7l0,0c-0.3-3.2-0.9-6.5-0.7-9.7c0.2-3.7,1-7.3,1.5-11c0.1-1.1-0.2-2.2-0.3-3.3
	c-0.5-0.3-0.9-0.6-1.4-1c4.9-3.3,9.9-6.6,14.8-9.9c-0.4-1.6-0.8-3.6-1.5-5.5c-0.4-1.1-1.5-1.9-2.3-2.9c1-4,2.1-8,3.1-12
	c0.5-0.1,1-0.1,1.5-0.2c0.8-0.7,1.6-1.4,2.3-2.1l0,0c1.3,0.3,2.5,0.7,3.8,1c1.1-1.9,2.3-3.7,3.1-5.7c1.6-3.6,3-7.3,4.3-10.4
	c0.1,4.3,1,9.1,3.8,14.1c1.3-2.8,2.3-4.9,3.4-6.9c0.2-0.3,1.2-0.2,1.9-0.2c0.3,2.2,0.5,4.2,0.8,6.4c5.3-0.3,3-4.9,4.2-7
	c1.5,3.3,3.1,6.7,4.7,10.2c-0.6,2.9-1,5.6,3.2,6.1c1.5,0.2,1.8,5.3,1.1,6.9c-1.1,2.8-1.8,5.8-2.5,8.7c-0.1,0.5,1,1.7,1.5,1.7
	c6-0.5,9,3.6,12.3,7.4c0.3,0.4,0.8,0.6,0.1,1c0,1.6-0.6,3.6,0.1,4.8c3.3,5.9,0.3,11.9,0.5,17.8c0,0.5-2.7,1-4.2,1.5
	C306,317.9,305.7,317.4,305.5,316.9z"/>
<path fill="#37A3D9" d="M15.1,142.5c2.3,2.1,2.3,4.8,2.4,7.6c0.1,6.9,0.3,13.8,0.7,20.6c0.4,6.7-2.1,13.4-0.1,20.2
	c0.1,0.4-1,1.2-1.5,1.7c-0.7-2.6-1.5-5.1-2.2-7.7c-0.3-2.3-0.5-4.6-0.8-6.9c0-1.3,0-2.5,0-3.8c0.2-1.3,0.7-2.6,0.7-3.9
	c-0.2-6.5-0.4-13-0.8-19.5c-0.1-2.1-1-4.1-1.5-6.1C13.1,144.1,14.1,143.3,15.1,142.5z"/>
<path fill="#247FB4" d="M-56.1,280.5c1.7,1.1,3.3,2.4,5.1,3.1c4,1.7,7.7,3.3,12.6,3.1c15-0.6,30.1-0.7,45.1,0
	c5.8,0.3,10.6-1.9,15.8-3c1.5-0.3,2.6-2.7,3.9-4.1c0.3,3.3-1.3,5-4.3,6.1c-6.2,2.5-12.6,3-19.3,2.9c-14.8-0.2-29.6,0.3-44.3-0.2
	C-47.4,288.4-52.8,285.9-56.1,280.5z"/>
<path fill="#6DBCE6" d="M13.6,178.2c0.3,2.3,0.5,4.6,0.8,6.9c-0.3,4.8-0.5,9.7-0.8,14.5c-0.1,1.6-0.5,3.3-1.2,4.9
	c-3-3.4-1.3-7.3-1.8-11c0.8-1.2,2.1-2.4,2.2-3.6c0.1-3.1-0.4-6.2-0.6-9.3C12.6,179.7,13.1,178.9,13.6,178.2z"/>
<path fill="#247FB4" d="M-48.5,259.2c0,1.8,0,3.6,0,4.5c-2.1,1.9-3.8,3.1-5.2,4.6c-2.8,3.2-8.1,5.5-10.9,4.5
	c3.1-1.8,6.4-3.3,9.2-5.5c1.7-1.3,2.5-3.7,3.9-5.5C-50.7,260.8-49.5,260.1-48.5,259.2z"/>
<path fill="#247FB4" d="M11.5,250.9c0.2,0.5,0.5,1,0.7,1.5c1.4,1.8,2.9,3.6,4.3,5.5c1.9,2.7,3.7,5.4,5.6,8.2
	c-1.5-1.4-3.1-2.7-4.5-4.2c-1.8-1.9-3.8-3.7-5.1-5.9C11.6,254.6,11.8,252.6,11.5,250.9z"/>
<path fill="#54ACCC" d="M5.9,174.4c0.8-1.8,1.5-3.7,2.3-5.5c0.2,0,0.5,0,0.7-0.1c0,3.9,0,7.8,0,11.6c-0.5,1-1,2-1.5,3
	c-0.5-2-1-4-1.5-6c0.4-0.2,0.8-0.4,1.2-0.6c-0.4-0.3-0.8-0.6-1.2-0.9C6,175.4,5.9,174.9,5.9,174.4z"/>
<path fill="#247FB4" d="M33.6,273.6c-3.7-0.8-7.5-1.3-11-2.5c-0.7-0.2-0.3-3.3-0.4-5.1c3.3,1.9,6.5,3.8,9.8,5.8
	C32.6,272.2,33,273,33.6,273.6z"/>
<path fill="#30A7CE" d="M12.1,180.5c0.3,3.1,0.7,6.2,0.6,9.3c0,1.2-1.4,2.4-2.2,3.6c0-0.2,0-0.5,0-0.7c0-4.1,0-8.1,0.1-12.2
	C11,180.5,11.6,180.5,12.1,180.5z"/>
<path fill="#37A3D9" d="M10.5,180.5c0,4.1,0,8.1-0.1,12.2c-0.8-2-1.5-4.1-2.3-6.1c-0.2-0.3-0.5-0.5-0.7-0.8c0-0.8,0-1.5,0-2.3
	c0.5-1,1-2,1.5-3C9.5,180.5,10,180.5,10.5,180.5z"/>
<path fill="#247FB4" d="M-43.9,253.1c0.7-1.3,1.4-2.5,2.1-3.8c0.1,5.2-1.9,8.4-6.7,9.9C-47,257.2-45.5,255.2-43.9,253.1z"/>
<path fill="#247FB4" d="M-64.9,282.1c1.4-0.5,2.9-1,4.3-1.5c-1.7,1.9-3.4,3.7-5.1,5.6c-0.4-0.4-0.9-0.8-1.3-1.1
	C-66.4,284-65.7,283.1-64.9,282.1z"/>
<path fill="#247FB4" d="M35.1,278.3c-0.5-1.6-1-3.1-1.5-4.7C36.4,274.5,36.3,276.2,35.1,278.3z"/>
<path fill="#247FB4" d="M-60.6,280.6c0.1-1.4-0.4-3.4,2.3-2.3C-59.1,279.1-59.9,279.8-60.6,280.6z"/>
<path fill="#38A5D8" d="M6,175.9c0.4,0.3,0.8,0.6,1.2,0.9c-0.4,0.2-0.8,0.4-1.2,0.6C6,176.9,6,176.4,6,175.9z"/>
<path display="none" fill="#FFFFFF" d="M256.9,275.5c-0.1,0-0.1,0-0.2,0c0-0.1,0-0.2,0.1-0.2c0.1-0.1,0.2-0.1,0.3-0.1
	C257,275.4,257,275.5,256.9,275.5z"/>
<path fill="#54ACCC" d="M7.5,185.8c0.2,0.3,0.5,0.5,0.7,0.8C7.9,186.3,7.7,186,7.5,185.8z"/>
<path fill="#247FB4" d="M26.7,278.8c0.2,0,0.5,0.1,0.7,0.1C27.1,278.9,26.9,278.9,26.7,278.8z"/>
<path fill="#FFFFFF" d="M-46.9,252.5c-0.1,0.1-0.1,0.2-0.2,0.3C-47,252.7-47,252.6-46.9,252.5L-46.9,252.5z"/>
<path fill="#54ACCC" d="M12.1,144.9c0.5,2,1.3,4,1.5,6.1c0.4,6.5,0.6,13,0.8,19.5c0,1.3-0.5,2.6-0.7,3.9c-2.3,0.3-3.1-0.6-3.1-3
	c0.1-5.9,0.2-11.8,0-17.7c-0.2-4-1-8-1.5-12C10,142.8,11,143.8,12.1,144.9z"/>
<path fill="#30A7CE" d="M-41.5,137.3c0,1.3,0,2.5,0,3.8c-0.2,5-0.5,10-0.7,15c-0.6,0-1.3,0-1.9,0.1c-0.1-2.2-0.3-4.5-0.4-6.7
	c0.3-1.9,0.3-3.9,0.8-5.7C-43.2,141.5-42.3,139.4-41.5,137.3z"/>
<path fill="#70BBE4" d="M-41.5,137.3c-0.8,2.1-1.7,4.2-2.3,6.4c-0.5,1.8-0.6,3.8-0.8,5.7c-0.1-1.3-0.3-2.6-0.3-3.8
	c-0.2-3.3-0.3-6.6-0.4-9.8c0.2-0.6,0.2-1.3,0.6-1.8c0.5-0.7,1.2-1.3,1.9-1.9c0.5,0.9,1.1,1.7,1.4,2.6
	C-41.4,135.5-41.5,136.4-41.5,137.3z"/>
<path fill="#6DBCE6" d="M-26.2,195.9c-1.3-0.3-2.5-0.7-3.8-1c0.2-4.6,0.5-9.1,0.8-14.6C-28.1,186.2-27.2,191-26.2,195.9z"/>
<path fill="#6DBCE6" d="M-30,194.9c-0.8,0.7-1.6,1.4-2.3,2.1C-31.6,196.3-30.8,195.6-30,194.9z"/>
<path fill="#FFFFFF" d="M-4,270.7c0.5-6.4-0.4-13,2.3-19.8c3.2,4.6,5.8,8.8,9,12.5c2.3,2.7,5.5,4.7,8.3,7c0.3,0.2,0.2,0.8,0.3,1.3
	c-5.4,0.2-10.7,0.3-16.1,0.8C-2.1,272.7-3.3,272.5-4,270.7z"/>
<path fill="#FFFFFF" d="M-27,269.8c-2.9,0.2-5.7,0.5-8.5,0.5c-3.7-0.1-7.5-0.5-12.5-0.8c9.9-4.3,13.4-13,19.5-20.5
	c0.6,2.6,1.2,5,1.7,7.3c0.2,3.4,0.4,6.9,0.6,10.3c-0.2,0.9-0.3,1.7-0.5,2.6C-27,269.3-27.1,269.5-27,269.8z"/>
<path fill="#247FB4" d="M-4,270.7c0.7,1.8,1.9,2,3.8,1.8c5.3-0.5,10.7-0.6,16.1-0.8c-1.9,0.9-3.7,2.4-5.7,2.6
	c-3.1,0.4-6.3,0.1-9.5,0.1c-1.7,0-3.7-0.5-4.2,2.1c0,0.1-1.7,0-2.6,0C-5.9,274.4-7.8,271.6-4,270.7z"/>
<path fill="#247FB4" d="M-27,269.8c0-0.3,0.1-0.5,0.2-0.7c0.2-0.9,0.3-1.7,0.5-2.6c-0.2-3.4-0.4-6.9-0.6-10.3c0.4-1,0.9-1.9,1.3-2.9
	c0.4,0,0.8,0,1.2,0c0.1,1.5,0.6,3.1,0.2,4.5c-0.7,3-1,5.6,1.3,8.1c0.6,0.6-0.2,2.4-0.3,3.6C-24.6,267.1-25.5,274.7-27,269.8z"/>
<path fill="#247FB4" d="M-23,234.1c0.4-0.2,0.9-0.4,1.3-0.7c0,1.9,0.3,4-0.2,5.7c-0.3,1.1-2.1,1.7-3.1,2.4c-2.2-2.5,3.3-6-2.2-6.6
	c1.2-0.1,2.5-0.3,3.7-0.4c0.3,0.1,0.5,0.2,0.8,0.2C-22.8,234.6-22.9,234.3-23,234.1z"/>
<path fill="#FFFFFF" d="M-23,234.1c0.1,0.2,0.2,0.5,0.3,0.7c-0.3-0.1-0.5-0.2-0.8-0.2C-23.3,234.4-23.1,234.3-23,234.1z"/>
<circle fill="none" stroke="#35B55B" stroke-width="14" stroke-miterlimit="10" cx="98.6" cy="390.9" r="124.7"/>
<image display="none" overflow="visible" enable-background="new    " width="960" height="960" xlink:href="48F7C697.jpeg"  transform="matrix(0.4523 0 0 0.4523 -323.4568 -163.2778)">
</image>
<circle fill="none" stroke="#ED374D" stroke-width="14" stroke-miterlimit="10" cx="187.6" cy="223.9" r="124.7"/>
<circle fill="none" stroke="#2D9FD6" stroke-width="14" stroke-miterlimit="10" cx="-1.4" cy="222.9" r="124.7"/>
<g>
	<g>
		<path fill="#FFFFFF" d="M349.5,196.6H394c4.4,0,8.6,0.9,12.4,2.8c3.9,1.8,7,4.4,9.3,7.8c2.3,3.3,3.5,7.1,3.5,11.3
			c0,6.3-2.5,11.5-7.6,15.8c2.7,1.3,4.9,2.9,6.8,5c1.9,2,3.3,4.3,4.2,6.8c0.9,2.5,1.4,5,1.4,7.7c0,4.7-1.3,8.8-3.9,12.3
			c-2.6,3.5-6.1,6.2-10.4,8c-4.4,1.8-9.2,2.8-14.5,2.8h-45.8v-12h11.4v-56.2h-11.4V196.6z M373.7,208.5v20.5h18.7
			c2.4,0,4.6-0.5,6.7-1.4c2.1-0.9,3.8-2.2,5-3.8c1.2-1.6,1.9-3.5,1.9-5.7c0-3.1-1.4-5.5-4.1-7.2c-2.7-1.7-5.9-2.5-9.6-2.5H373.7z
			 M373.7,241.1v23.7h20.7c4.3,0,8.2-0.9,11.5-2.6c3.3-1.7,4.9-4.7,4.9-8.8c0-8.2-7.8-12.3-23.5-12.3H373.7z"/>
		<path fill="#FFFFFF" d="M472,194c6,0,11.4,1.2,16.2,3.4c4.8,2.3,8.9,5.5,12.2,9.5c3.3,4,5.8,8.6,7.5,13.7
			c1.7,5.1,2.5,10.5,2.5,16.1c0,7.8-1.6,14.9-4.7,21.4c-3.2,6.5-7.6,11.7-13.5,15.4c-5.8,3.8-12.5,5.6-20,5.6
			c-5.8,0-11-1.1-15.7-3.3s-8.8-5.3-12.2-9.3c-3.4-4-6-8.5-7.7-13.6c-1.7-5.1-2.6-10.4-2.6-16.1c0-8,1.6-15.3,4.8-21.9
			c3.2-6.6,7.7-11.7,13.5-15.4C458.1,195.8,464.7,194,472,194z M472,206c-5,0-9.4,1.4-13.1,4.3c-3.7,2.9-6.5,6.7-8.4,11.4
			c-1.9,4.7-2.9,9.8-2.9,15.3c0,5.1,1,10,2.9,14.7c1.9,4.7,4.8,8.4,8.5,11.4c3.7,2.9,8.1,4.4,13.2,4.4c5.1,0,9.6-1.5,13.3-4.4
			c3.7-2.9,6.5-6.7,8.4-11.4c1.9-4.7,2.9-9.6,2.9-14.7c0-5.1-0.9-10-2.8-14.7c-1.8-4.7-4.6-8.6-8.3-11.6
			C481.9,207.5,477.3,206,472,206z"/>
		<path fill="#FFFFFF" d="M579.8,193.7l12.5,2.9c-0.5,1.5-1,3.1-1.5,4.8c-0.5,1.7-1,3.5-1.4,5.4c-0.4,1.9-0.7,3.7-0.7,5.2
			c0,2.6,0.5,7,1.6,13.1l-13.1,1.1l-0.6-6.3c-0.4-9-6-13.6-16.7-13.6c-5.1,0-9.4,1.2-13,3.7c-3.6,2.5-5.4,5.8-5.4,9.8
			c0,4.2,1.8,7.1,5.3,8.6c3.5,1.5,7.9,2.5,13.1,3c4.6,0.4,8.6,0.9,11.9,1.5c3.3,0.6,6.5,1.7,9.4,3.2c2.9,1.5,5.3,3.8,7.2,6.9
			s2.7,7,2.7,11.9c0,3.2-1.1,6.7-3.3,10.5c-2.2,3.8-5.7,7-10.5,9.7c-4.8,2.7-10.9,4-18.2,4c-7.7,0-14.8-1.7-21.6-5.1l-0.4,5.7
			l-13-1.8c1.3-6,1.9-10.2,1.9-12.8c0-2.4-0.2-4.5-0.7-6.4c-0.5-1.9-1.3-5-2.5-9.3l12.6-2.3l1.8,7.7c1,4.2,3.4,7.3,7.3,9.1
			c3.9,1.9,8.4,2.8,13.7,2.8c4.9,0,9.4-1,13.5-3.1c4-2.1,6.1-5.4,6.1-9.8c0-2.6-0.7-4.6-2-5.9c-1.3-1.3-3.1-2.1-5.3-2.6
			c-2.2-0.5-5.8-0.9-10.5-1.4c-4.1-0.4-7.6-1-10.5-1.5c-3-0.6-6.1-1.7-9.5-3.3c-3.3-1.6-6.1-4.1-8.4-7.3c-2.3-3.2-3.4-7.3-3.4-12.3
			c0-3.4,0.9-6.7,2.6-9.8c1.7-3.2,3.9-5.8,6.4-8c2.9-2.5,6.3-4.4,10.2-5.8c3.8-1.3,7.9-2,12.2-2c6.1,0,12.4,1.7,19.1,5L579.8,193.7z
			"/>
		<path fill="#FFFFFF" d="M600.9,196.6h26.8l15.6,41.9l15.5-41.9h26.8v12h-10v56.2h10v12H650v-12h12.8v-48h-0.3l-15.4,41.8h-7.7
			L624,216.7h-0.3v48h12.8v12h-35.7v-12h10v-56.2h-10V196.6z"/>
	</g>
	<g>
		<path fill="#FFFFFF" d="M749.5,194.4c3.1,0,6.1,0.5,8.9,1.4c2.8,0.9,5.3,2.3,7.4,4.1c2.1,1.8,3.8,4.1,5.1,6.8
			c1.3,2.7,1.9,6,1.9,9.6c0,3.1-0.5,5.9-1.4,8.5c-0.9,2.6-2.2,5.1-3.8,7.6c-1.6,2.4-3.5,4.8-5.6,7c-2.1,2.3-4.4,4.6-6.7,7l-25.5,26
			c1.2-0.3,2.5-0.5,3.8-0.7c1.3-0.2,2.7-0.2,4-0.2h35.1c0.6,0,1.1,0.2,1.5,0.5c0.4,0.4,0.5,0.8,0.5,1.4v3.2h-52.5v-2
			c0-0.4,0.1-0.9,0.3-1.3c0.2-0.4,0.5-0.8,0.8-1.1l27.8-28.1c2.3-2.3,4.4-4.6,6.4-6.8c2-2.2,3.7-4.4,5.1-6.6
			c1.4-2.2,2.6-4.5,3.4-6.8c0.8-2.3,1.2-4.8,1.2-7.5c0-3-0.5-5.6-1.5-7.8c-1-2.2-2.3-4-4-5.4c-1.7-1.4-3.6-2.5-5.8-3.2
			c-2.2-0.7-4.4-1-6.8-1c-2.6,0-4.9,0.4-7.1,1.2c-2.2,0.8-4.1,1.9-5.8,3.3c-1.7,1.4-3.1,3.1-4.1,5c-1.1,1.9-1.9,4.1-2.3,6.4
			c-0.4,1.3-1.2,2-2.3,2c-0.1,0-0.2,0-0.3,0c-0.1,0-0.2,0-0.3,0l-2.8-0.5c0.5-3.5,1.4-6.6,2.8-9.3c1.4-2.7,3.2-5,5.4-6.9
			c2.2-1.9,4.7-3.3,7.6-4.3S746.1,194.4,749.5,194.4z"/>
		<path fill="#FFFFFF" d="M844.1,236c0,7.1-0.8,13.3-2.3,18.5c-1.5,5.2-3.6,9.5-6.3,12.9c-2.6,3.4-5.7,6-9.3,7.6
			c-3.5,1.7-7.3,2.5-11.4,2.5c-4,0-7.8-0.8-11.3-2.5c-3.5-1.7-6.6-4.2-9.3-7.6c-2.6-3.4-4.7-7.7-6.2-12.9
			c-1.5-5.2-2.3-11.4-2.3-18.5c0-7.1,0.8-13.3,2.3-18.5c1.5-5.2,3.6-9.5,6.2-12.9c2.6-3.4,5.7-6,9.3-7.6s7.3-2.5,11.3-2.5
			c4,0,7.8,0.8,11.4,2.5c3.5,1.7,6.6,4.2,9.3,7.6c2.6,3.4,4.7,7.7,6.3,12.9C843.3,222.7,844.1,228.9,844.1,236z M838.3,236
			c0-6.6-0.6-12.2-1.9-16.9c-1.3-4.7-3-8.5-5.1-11.5c-2.1-3-4.6-5.1-7.5-6.5c-2.9-1.4-5.9-2.1-9-2.1c-3.1,0-6.1,0.7-9,2.1
			c-2.8,1.4-5.3,3.6-7.5,6.5c-2.1,3-3.9,6.8-5.1,11.5c-1.3,4.7-1.9,10.3-1.9,16.9c0,6.6,0.6,12.3,1.9,16.9c1.3,4.7,3,8.5,5.1,11.4
			c2.1,3,4.6,5.1,7.5,6.5c2.8,1.4,5.8,2,9,2c3.1,0,6.1-0.7,9-2c2.9-1.4,5.3-3.5,7.5-6.5c2.1-3,3.8-6.8,5.1-11.4
			C837.7,248.3,838.3,242.6,838.3,236z"/>
		<path fill="#FFFFFF" d="M866,272.5h18.7v-66.1c0-1.3,0.1-2.7,0.2-4.1l-17.9,15.9c-0.4,0.3-0.8,0.5-1.4,0.5c-0.7,0-1.2-0.2-1.5-0.7
			l-1.7-2.3l23.5-20.8h4.3v77.5h17.8v4.2H866V272.5z"/>
		<path fill="#FFFFFF" d="M951.1,228.1c3.5,0,6.7,0.6,9.7,1.7c3,1.1,5.5,2.8,7.6,4.9c2.1,2.1,3.8,4.6,5,7.6c1.2,3,1.8,6.3,1.8,10
			c0,3.7-0.7,7.1-2,10.2c-1.3,3.1-3.2,5.8-5.5,8.1c-2.4,2.3-5.2,4-8.5,5.3c-3.3,1.3-6.9,1.9-10.9,1.9c-3.8,0-7.3-0.6-10.4-1.8
			c-3.1-1.2-5.8-3-8.1-5.3c-2.2-2.3-4-5.1-5.2-8.4c-1.2-3.3-1.8-7.1-1.8-11.2c0-3.2,0.8-6.8,2.4-10.8c1.6-4,4.3-8.5,7.9-13.5
			l22.2-29.9c0.7-0.9,1.6-1.3,2.9-1.3h4.8L938.8,227c-1.2,1.6-2.3,3-3.3,4.4c-1,1.4-1.9,2.7-2.7,4.1c2.3-2.3,4.9-4.2,8-5.5
			C944,228.7,947.4,228.1,951.1,228.1z M928.1,252.2c0,3,0.5,5.8,1.4,8.4c0.9,2.6,2.3,4.8,4,6.6c1.7,1.9,3.8,3.3,6.3,4.3
			c2.5,1,5.3,1.6,8.4,1.6c3.3,0,6.3-0.5,8.9-1.6c2.6-1,4.9-2.5,6.8-4.3s3.3-4,4.3-6.5c1-2.5,1.5-5.2,1.5-8.2c0-3.1-0.5-5.9-1.5-8.4
			c-1-2.5-2.4-4.6-4.1-6.4c-1.8-1.7-3.9-3.1-6.4-4c-2.5-0.9-5.2-1.4-8.2-1.4c-3.4,0-6.4,0.6-9.1,1.8c-2.7,1.2-4.9,2.7-6.8,4.5
			c-1.8,1.9-3.2,4-4.2,6.4C928.6,247.3,928.1,249.7,928.1,252.2z"/>
	</g>
</g>
<g>
	<path fill="#FFFFFF" d="M435.3,342.2c-1,2-2.3,3.6-4,4.9c-3.1,2.3-6.9,3.5-11.2,3.5c-4.7,0-8.9-1.4-12.8-4.1
		c-6.1-4.3-9.2-11.5-9.2-21.6c0-7.3,1.7-13.1,5.1-17.5c2-2.6,4.5-4.5,7.5-5.9c3-1.4,6.3-2.1,9.8-2.1c2.4,0,4.7,0.4,6.8,1.1
		c2.1,0.7,3.9,1.7,5.2,3c0.9,0.9,1.7,2,2.3,3.5v-6.5h5.7v17.4H435c-0.1-3.1-0.9-5.7-2.2-7.7c-1.2-1.9-3.1-3.3-5.5-4.2
		c-1.9-0.7-3.9-1.1-6-1.1c-5.5,0-9.6,2.1-12.3,6.3c-2.4,3.6-3.6,8.1-3.6,13.6c0,5.6,1.1,10.3,3.3,13.9c1.2,2,3,3.6,5.3,4.8
		c2.1,1.1,4.4,1.6,6.9,1.6c4,0,7.3-1.2,9.9-3.6c3-2.7,4.5-6.5,4.5-11.5h-7.6v-4.9H448v4.9h-6.5v19.5h-6.1V342.2z"/>
	<path fill="#FFFFFF" d="M462.1,322.9c0.5-2.6,1.6-4.6,3.3-6.1c1.9-1.6,4.2-2.4,7-2.4c0.9,0,1.8,0.1,2.7,0.4v5.5
		c-1-0.7-2-1.1-3.2-1.1c-2.6,0-4.7,1-6.4,2.9c-2,2.2-2.9,5.5-2.9,9.9V345h6.7v4.6h-19V345h6v-25.2h-6v-4.6h11.7V322.9z"/>
	<path fill="#FFFFFF" d="M491.1,315.2V345h4.7v4.6h-17.1V345h6.2v-25.2h-6.2v-4.6H491.1z M483.9,300.5h6.9v6.7h-6.9V300.5z"/>
	<path fill="#FFFFFF" d="M509.5,319.8V340c0,2.2,0.3,3.6,0.8,4.3c0.6,0.9,1.6,1.3,2.8,1.3c1.7,0,2.8-0.8,3.3-2.3
		c0.2-0.8,0.4-2.2,0.5-4.3h4.6c0,3.6-0.5,6.1-1.4,7.6c-1.6,2.6-4.3,3.8-8,3.8c-2.5,0-4.5-0.6-6-1.9c-1.1-0.9-1.8-1.9-2.1-3.1
		c-0.4-1.4-0.6-3.2-0.6-5.4v-20.2h-6.2v-4.6h6.2v-7.6l6.2-2.2v9.8h10.6v4.6H509.5z"/>
	<path fill="#FFFFFF" d="M538.5,300.5h3.8v61.3h-3.8V300.5z"/>
	<path fill="#FFFFFF" d="M597.9,342.2c-1,2-2.3,3.6-4,4.9c-3.1,2.3-6.9,3.5-11.2,3.5c-4.7,0-8.9-1.4-12.8-4.1
		c-6.1-4.3-9.2-11.5-9.2-21.6c0-7.3,1.7-13.1,5.1-17.5c2-2.6,4.5-4.5,7.5-5.9c3-1.4,6.3-2.1,9.8-2.1c2.4,0,4.7,0.4,6.8,1.1
		c2.1,0.7,3.9,1.7,5.2,3c0.9,0.9,1.7,2,2.3,3.5v-6.5h5.7v17.4h-5.7c-0.1-3.1-0.9-5.7-2.2-7.7c-1.2-1.9-3.1-3.3-5.5-4.2
		c-1.9-0.7-3.9-1.1-6-1.1c-5.5,0-9.6,2.1-12.3,6.3c-2.4,3.6-3.6,8.1-3.6,13.6c0,5.6,1.1,10.3,3.3,13.9c1.2,2,3,3.6,5.3,4.8
		c2.1,1.1,4.4,1.6,6.9,1.6c4,0,7.3-1.2,9.9-3.6c3-2.7,4.5-6.5,4.5-11.5h-7.6v-4.9h20.2v4.9H604v19.5h-6.1V342.2z"/>
	<path fill="#FFFFFF" d="M641.6,342.1c-0.3,1.8-1.1,3.3-2.2,4.6c-1.1,1.3-2.4,2.2-3.8,2.8s-3.2,0.9-5.4,0.9c-4.1,0-7.2-1.2-9.1-3.7
		c-1.2-1.5-1.9-3.3-2.2-5.2c-0.2-1.3-0.3-2.8-0.3-4.4v-17.3h-6.1v-4.6h12.4V337c0,2.8,0.6,5,1.8,6.4c1.2,1.4,2.9,2.2,5.2,2.2
		c3.3,0,5.7-1.4,7.4-4.3c1.1-2,1.7-4.6,1.7-7.8v-13.7h-6.6v-4.6h12.8V345h5.9v4.6h-11.3V342.1z"/>
	<path fill="#FFFFFF" d="M665.9,319.8V340c0,2.2,0.3,3.6,0.8,4.3c0.6,0.9,1.6,1.3,2.8,1.3c1.7,0,2.8-0.8,3.3-2.3
		c0.2-0.8,0.4-2.2,0.5-4.3h4.6c0,3.6-0.5,6.1-1.4,7.6c-1.6,2.6-4.3,3.8-8,3.8c-2.5,0-4.5-0.6-6-1.9c-1.1-0.9-1.8-1.9-2.1-3.1
		c-0.4-1.4-0.6-3.2-0.6-5.4v-20.2h-6.2v-4.6h6.2v-7.6l6.2-2.2v9.8h10.6v4.6H665.9z"/>
	<path fill="#FFFFFF" d="M704.7,319.5v-4.3h5v11.2h-5c0-1.4-0.3-2.6-0.8-3.5c-1.3-2.5-3.9-3.8-7.8-3.8c-2.4,0-4.3,0.6-5.7,1.7
		c-1.1,0.9-1.7,2.1-1.7,3.5c0,1.3,0.4,2.3,1.1,3c0.7,0.7,2.1,1.2,4.2,1.6l4.2,0.7c2.4,0.4,4.2,0.8,5.3,1.1c4.3,1.5,6.4,4.5,6.4,8.9
		c0,3.5-1.2,6.2-3.7,8.1c-2.3,1.8-5.4,2.7-9.2,2.7c-3.1,0-5.5-0.6-7.3-1.8c-1.2-0.8-2.2-2.1-3.1-3.8v4.7h-5v-11.8h5
		c0,1.3,0.4,2.5,1,3.7c0.7,1.3,1.8,2.4,3.3,3.2c1.4,0.7,2.9,1,4.5,1c1.8,0,3.5-0.4,5-1.2c1.8-0.9,2.7-2.4,2.7-4.3
		c0-1.9-0.7-3.2-2.1-4c-0.9-0.5-2.5-0.9-4.8-1.2l-4-0.6c-3.7-0.5-6.3-1.5-7.8-2.8c-1.7-1.6-2.6-3.8-2.6-6.7c0-3.5,1.4-6.2,4.3-8.1
		c2.4-1.6,5.3-2.4,8.6-2.4c3.3,0,5.9,0.8,7.6,2.4C703.3,317.3,704,318.3,704.7,319.5z"/>
	<path fill="#FFFFFF" d="M728.3,300.5h3.8v61.3h-3.8V300.5z"/>
	<path fill="#FFFFFF" d="M787.8,342.2c-1,2-2.3,3.6-4,4.9c-3.1,2.3-6.9,3.5-11.2,3.5c-4.7,0-8.9-1.4-12.8-4.1
		c-6.1-4.3-9.2-11.5-9.2-21.6c0-7.3,1.7-13.1,5.1-17.5c2-2.6,4.5-4.5,7.5-5.9c3-1.4,6.3-2.1,9.8-2.1c2.4,0,4.7,0.4,6.8,1.1
		c2.1,0.7,3.9,1.7,5.2,3c0.9,0.9,1.7,2,2.3,3.5v-6.5h5.7v17.4h-5.7c-0.1-3.1-0.9-5.7-2.2-7.7c-1.2-1.9-3.1-3.3-5.5-4.2
		c-1.9-0.7-3.9-1.1-6-1.1c-5.5,0-9.6,2.1-12.3,6.3c-2.4,3.6-3.6,8.1-3.6,13.6c0,5.6,1.1,10.3,3.3,13.9c1.2,2,3,3.6,5.3,4.8
		c2.1,1.1,4.4,1.6,6.9,1.6c4,0,7.3-1.2,9.9-3.6c3-2.7,4.5-6.5,4.5-11.5h-7.6v-4.9h20.2v4.9h-6.5v19.5h-6.1V342.2z"/>
	<path fill="#FFFFFF" d="M814.3,300.5V345h5.6v4.6h-17.5V345h5.6V305h-5.6v-4.6H814.3z"/>
	<path fill="#FFFFFF" d="M840.5,314.3c5.6,0,10,1.9,13,5.6c2.6,3.3,3.9,7.4,3.9,12.4c0,4.8-1.3,8.8-3.8,12c-3.2,4-7.7,6-13.4,6
		c-5.5,0-9.8-1.9-13.1-5.6c-2.8-3.2-4.2-7.4-4.2-12.6c0-5.6,1.6-10,4.8-13.1C831.1,315.9,835.3,314.3,840.5,314.3z M840.2,319.1
		c-3.5,0-6.2,1.5-8.3,4.3c-1.6,2.3-2.4,5.3-2.4,8.9c0,3.6,0.9,6.7,2.6,9.1c2,2.8,4.7,4.2,8.1,4.2c4,0,7-1.8,9.1-5.4
		c1.2-2.1,1.8-4.7,1.8-7.8c0-3.6-0.7-6.5-2.2-8.7C846.7,320.6,843.8,319.1,840.2,319.1z"/>
	<path fill="#FFFFFF" d="M872.7,322.9c0.5-2.6,1.6-4.6,3.3-6.1c1.9-1.6,4.2-2.4,7-2.4c0.9,0,1.8,0.1,2.7,0.4v5.5
		c-1-0.7-2-1.1-3.2-1.1c-2.6,0-4.7,1-6.4,2.9c-2,2.2-2.9,5.5-2.9,9.9V345h6.7v4.6h-19V345h6v-25.2h-6v-4.6h11.7V322.9z"/>
	<path fill="#FFFFFF" d="M905.1,349.6l-12.7-29.8h-3.6v-4.6h16v4.6h-6.3l9.1,22.1c0.2,0.6,0.4,1.3,0.5,1.9c0.1-0.6,0.3-1.2,0.6-1.9
		l8.7-22.1h-6.3v-4.6h15.2v4.6h-3.3l-13.6,33c-1.8,4.5-3.4,7.3-4.6,8.3c-1.4,1.1-3.4,1.7-6.1,1.7c-1.7,0-3.1-0.1-4.3-0.4v-4.7
		c0.9,0.2,2,0.3,3.5,0.3c1.2,0,2.2-0.3,3-0.8c0.6-0.4,1-0.9,1.3-1.4c0.2-0.4,0.5-1.1,1-2.3L905.1,349.6z"/>
</g>
<g>
	<g>
		<path fill="#FFFFFF" d="M417,374.9v41.9h6.9v4.6h-20.1v-4.6h7v-35.8c-1.8,1.9-2.9,3.1-3.5,3.6c-1,1-3.3,2.8-7,5.4v-6.3
			c2.7-2,4.4-3.4,5.2-4.1c0.8-0.7,2.5-2.2,5-4.7H417z"/>
		<path fill="#FFFFFF" d="M436.6,397.1c0.7-1.6,1.7-2.8,3-3.6c2.1-1.3,4.5-2,7.2-2c4.3,0,7.7,1.5,10.2,4.4c2.3,2.6,3.4,6.2,3.4,10.7
			c0,4.6-1.2,8.4-3.5,11.2c-2.6,3.1-6.5,4.7-11.6,4.7c-4.8,0-8.5-1.3-11.2-4c-2.2-2.3-3.3-5.1-3.3-8.6c0-0.2,0-0.5,0-0.9h6
			c0.1,2.4,0.8,4.3,2.2,5.8c1.6,1.7,3.6,2.5,6.1,2.5c3.4,0,5.9-1.4,7.5-4.1c1-1.8,1.6-4,1.6-6.6c0-2.9-0.8-5.3-2.3-7
			c-1.6-1.9-3.7-2.8-6.5-2.8c-3,0-5.3,1-7,2.9c-0.8,0.8-1.3,1.7-1.6,2.8h-5.7l0.9-27.5h26.3v4.6h-21L436.6,397.1z"/>
		<path fill="#FFFFFF" d="M486.6,401.6H502v5.3h-15.4V401.6z"/>
		<path fill="#FFFFFF" d="M525,374.9v41.9h6.9v4.6h-20.1v-4.6h7v-35.8c-1.8,1.9-2.9,3.1-3.5,3.6c-1,1-3.3,2.8-7,5.4v-6.3
			c2.7-2,4.4-3.4,5.2-4.1c0.8-0.7,2.5-2.2,5-4.7H525z"/>
		<path fill="#FFFFFF" d="M562.4,397c-0.7,2-1.8,3.5-3.3,4.8c-2.3,1.8-4.9,2.7-7.9,2.7c-4,0-7.3-1.4-9.8-4.3
			c-2.3-2.6-3.4-6.1-3.4-10.6c0-4.8,1.2-8.5,3.7-11.3c2.6-3,6.2-4.4,10.8-4.4c4.2,0,7.5,1.1,9.9,3.4c2.4,2.2,4,5.2,4.8,9
			c0.7,3,1.1,6.5,1.1,10.6c0,10.2-2.1,17.3-6.3,21.6c-2.6,2.6-6.1,4-10.4,4c-5.6,0-9.4-2.1-11.4-6.2c-0.9-1.8-1.3-3.8-1.4-5.9h5.9
			c0.3,4.6,2.5,6.9,6.8,6.9c3.2,0,5.8-1.5,7.7-4.5c1.5-2.3,2.5-5.7,2.9-10.1C562.2,401.2,562.4,399.3,562.4,397z M552.6,379.1
			c-1.4,0-2.7,0.3-3.9,1c-1.2,0.7-2.2,1.6-2.9,2.8c-1.1,1.8-1.6,4.1-1.6,6.6c0,2.8,0.6,5.1,1.8,6.9c1.4,2.2,3.5,3.2,6.3,3.2
			c2.7,0,4.9-1,6.7-3c1.6-1.9,2.5-4.3,2.5-7.2c0-2.7-0.7-5-2-6.9C557.9,380.2,555.6,379.1,552.6,379.1z"/>
		<path fill="#FFFFFF" d="M603.7,405.8c0,2.1,0.4,3.9,1.1,5.5c1.6,4,4.7,5.9,9.3,5.9c2.6,0,4.7-0.5,6.3-1.5c2-1.3,3-3.4,3-6.3
			c0-1.8-0.5-3.2-1.4-4.4c-0.6-0.7-1.3-1.3-2-1.7c-1-0.5-2.2-1.1-3.7-1.6l-5.9-2.1c-4.2-1.5-6.9-2.8-8.3-3.9c-2.5-2-3.8-5-3.8-9
			c0-4.2,1.5-7.5,4.5-9.9c2.5-2,5.8-3,9.8-3c5.3,0,9,1.9,10.9,5.7v-4.7h5.4v15.4h-5.4c0-2.1-0.3-3.9-0.8-5.3c-0.6-2-1.9-3.5-3.7-4.6
			c-1.5-0.9-3.3-1.3-5.4-1.3c-2.5,0-4.5,0.6-6.1,1.7c-1.8,1.3-2.6,3.1-2.6,5.6c0,1.6,0.4,2.9,1.2,3.9c0.8,1,2.7,2.1,5.6,3.2l7.5,2.8
			c3.5,1.3,5.9,2.5,7.1,3.5c2.5,2.3,3.8,5.4,3.8,9.4c0,4-1.3,7.3-4,9.8c-2.5,2.3-6,3.5-10.4,3.5c-6.3,0-10.2-2.1-11.8-6.4v5.4h-5.4
			v-15.7H603.7z"/>
		<path fill="#FFFFFF" d="M666.1,411.3c-0.3,1.8-0.9,3.4-1.8,4.9c-2.6,4-6.8,6-12.8,6c-4.3,0-7.7-1-10.2-2.9
			c-4.1-3.2-6.2-7.8-6.2-13.9c0-5.6,1.6-10,4.7-13.2c2.7-2.8,6.5-4.2,11.3-4.2c8,0,12.9,3.5,14.7,10.5c0.5,2,0.8,4.7,0.8,8h-25.7
			c0.1,2.6,0.7,4.8,2,6.8c2,3,4.9,4.4,8.9,4.4c3.9,0,6.7-1.3,8.4-4c0.4-0.6,0.7-1.4,0.9-2.4H666.1z M641,402.2h19.8
			c-0.1-2.5-0.8-4.6-2.1-6.3c-1.8-2.2-4.2-3.3-7.5-3.3c-3.9,0-6.8,1.6-8.7,4.8C641.7,398.7,641.2,400.3,641,402.2z"/>
		<path fill="#FFFFFF" d="M681,396.4c0.2-1.3,0.6-2.3,1-3.2c0.5-0.8,1.2-1.6,2.1-2.4c2.1-1.8,4.9-2.7,8.2-2.7
			c4.4,0,7.9,1.4,10.5,4.3c1.5,1.6,2.5,3.4,3.2,5.4c0.7,2,1,4.5,1,7.5c0,4.4-0.9,8-2.8,10.9c-2.7,4.1-6.7,6.1-12,6.1
			c-3,0-5.6-0.8-7.7-2.4c-1.3-1-2.3-2.1-2.8-3.3c-0.2-0.4-0.4-1.1-0.6-1.9v14.2h5.4v4.3h-16.9v-4.3h5.6v-35.6h-5.6v-4.3H681V396.4z
			 M691,392.6c-3.1,0-5.6,1.3-7.5,3.9c-1.6,2.1-2.4,5-2.4,8.7c0,3.5,0.7,6.2,2,8.3c1.8,2.8,4.4,4.2,7.8,4.2c2.4,0,4.5-0.8,6.3-2.3
			c2.5-2.1,3.8-5.6,3.8-10.3c0-3.5-0.8-6.4-2.4-8.8C696.7,393.9,694.2,392.6,691,392.6z"/>
		<path fill="#FFFFFF" d="M720.5,393.2v19.2c0,2,0.3,3.4,0.8,4.1c0.6,0.8,1.5,1.2,2.7,1.2c1.6,0,2.6-0.7,3.1-2.2
			c0.2-0.8,0.4-2.1,0.5-4.1h4.3c0,3.4-0.5,5.8-1.3,7.2c-1.5,2.4-4,3.6-7.6,3.6c-2.3,0-4.2-0.6-5.7-1.8c-1-0.9-1.7-1.8-2-2.9
			c-0.4-1.3-0.6-3-0.6-5.1v-19.2h-5.9v-4.3h5.9v-7.2l5.9-2.1v9.3h10.1v4.3H720.5z"/>
		<path fill="#FFFFFF" d="M766.5,411.3c-0.3,1.8-0.9,3.4-1.8,4.9c-2.6,4-6.8,6-12.8,6c-4.3,0-7.7-1-10.2-2.9
			c-4.1-3.2-6.2-7.8-6.2-13.9c0-5.6,1.6-10,4.7-13.2c2.7-2.8,6.5-4.2,11.3-4.2c8,0,12.9,3.5,14.7,10.5c0.5,2,0.8,4.7,0.8,8h-25.7
			c0.1,2.6,0.7,4.8,2,6.8c2,3,4.9,4.4,8.9,4.4c3.9,0,6.7-1.3,8.4-4c0.4-0.6,0.7-1.4,0.9-2.4H766.5z M741.4,402.2h19.8
			c-0.1-2.5-0.8-4.6-2.1-6.3c-1.8-2.2-4.2-3.3-7.5-3.3c-3.9,0-6.8,1.6-8.7,4.8C742.1,398.7,741.6,400.3,741.4,402.2z"/>
		<path fill="#FFFFFF" d="M801.7,395.2c0.3-1.5,1.1-2.9,2.2-4.1c2-2.1,4.6-3.1,7.8-3.1c3.2,0,5.7,1,7.6,2.9c2,1.9,2.9,4.7,2.9,8.2
			v18h5.1v4.3h-16.2v-4.3h5.2V401c0-2.7-0.5-4.8-1.6-6.2c-1.1-1.5-2.7-2.3-4.8-2.3c-2.8,0-4.9,1.3-6.3,3.8c-1,1.7-1.4,3.8-1.4,6.3
			v14.4h5.1v4.3h-16.6v-4.3h5.6v-16.8c0-2.4-0.5-4.3-1.6-5.6c-1.2-1.4-2.8-2.1-4.7-2.1c-2.3,0-4.2,0.9-5.7,2.6
			c-1.2,1.3-1.9,2.9-2.3,4.7c-0.2,0.9-0.2,2.3-0.2,4v13.2h5.2v4.3h-16.8v-4.3h5.7v-23.9h-5.7v-4.3H781v6.7c1.8-5,5.4-7.5,10.8-7.5
			c3.6,0,6.4,1.1,8.1,3.2C800.8,392.2,801.3,393.5,801.7,395.2z"/>
		<path fill="#FFFFFF" d="M840.7,395.2c0.9-2.4,2.3-4.2,4.2-5.4c1.9-1.2,4.2-1.8,7-1.8c5.3,0,9.4,2,12,6c1.9,2.8,2.8,6.4,2.8,10.7
			c0,4.2-0.6,7.5-1.9,9.9c-2.6,5-7,7.6-13.1,7.6c-3.3,0-6.1-0.9-8.3-2.6c-1.5-1.2-2.7-2.8-3.4-4.8v6.6h-10.8v-4.3h5.6v-37.9h-5.6
			v-4.3h11.5V395.2z M850.3,392.6c-1.6,0-3.1,0.4-4.5,1.1c-1.4,0.7-2.6,1.8-3.5,3.1c-1.5,2.1-2.2,4.9-2.2,8.4c0,3.7,0.8,6.7,2.5,9
			c1.8,2.4,4.3,3.6,7.7,3.6c3.4,0,6-1.3,7.9-3.9c1.6-2.3,2.4-5.1,2.4-8.6c0-3.4-0.8-6.2-2.3-8.5C856.6,394,853.9,392.6,850.3,392.6z
			"/>
		<path fill="#FFFFFF" d="M902.3,411.3c-0.3,1.8-0.9,3.4-1.8,4.9c-2.6,4-6.8,6-12.8,6c-4.3,0-7.7-1-10.2-2.9
			c-4.1-3.2-6.2-7.8-6.2-13.9c0-5.6,1.6-10,4.7-13.2c2.7-2.8,6.5-4.2,11.3-4.2c8,0,12.9,3.5,14.7,10.5c0.5,2,0.8,4.7,0.8,8H877
			c0.1,2.6,0.7,4.8,2,6.8c2,3,4.9,4.4,8.9,4.4c3.9,0,6.7-1.3,8.4-4c0.4-0.6,0.7-1.4,0.9-2.4H902.3z M877.2,402.2H897
			c-0.1-2.5-0.8-4.6-2.1-6.3c-1.8-2.2-4.2-3.3-7.5-3.3c-3.9,0-6.8,1.6-8.7,4.8C878,398.7,877.5,400.3,877.2,402.2z"/>
		<path fill="#FFFFFF" d="M917.2,396.1c0.4-2.5,1.5-4.4,3.2-5.8c1.8-1.5,4-2.3,6.6-2.3c0.9,0,1.7,0.1,2.6,0.3v5.2
			c-0.9-0.7-1.9-1-3-1c-2.4,0-4.4,0.9-6,2.7c-1.9,2.1-2.8,5.2-2.8,9.4v12.4h6.4v4.3h-18v-4.3h5.7v-23.9h-5.7v-4.3h11.1V396.1z"/>
	</g>
	<g>
		<path fill="#FFFFFF" d="M466.8,375.4v8.7c0,0.9,0.1,1.5,0.4,1.9c0.3,0.4,0.7,0.6,1.2,0.6c0.7,0,1.2-0.3,1.4-1
			c0.1-0.3,0.2-1,0.2-1.9h2c0,1.5-0.2,2.6-0.6,3.3c-0.7,1.1-1.8,1.7-3.4,1.7c-1.1,0-1.9-0.3-2.6-0.8c-0.5-0.4-0.8-0.8-0.9-1.3
			c-0.2-0.6-0.3-1.4-0.3-2.3v-8.7h-2.7v-2h2.7v-3.3l2.7-1v4.2h4.6v2H466.8z"/>
		<path fill="#FFFFFF" d="M478.5,375.9c0.6-1.9,2.2-2.8,4.6-2.8c1.7,0,3,0.4,3.8,1.3c0.8,0.8,1.2,1.9,1.2,3.1v8.7h2.5v2h-7.6v-2h2.4
			v-7.6c0-0.8-0.1-1.5-0.2-1.9c-0.4-1.1-1.3-1.6-2.7-1.6c-1.3,0-2.3,0.4-2.9,1.3c-0.7,0.8-1,2-1,3.4v6.4h2.4v2h-7.6v-2h2.6v-17.1
			h-2.6v-2h5.2V375.9z"/>
	</g>
	<g>
		<path fill="#FFFFFF" d="M572.1,375.4v8.7c0,0.9,0.1,1.5,0.4,1.9c0.3,0.4,0.7,0.6,1.2,0.6c0.7,0,1.2-0.3,1.4-1
			c0.1-0.3,0.2-1,0.2-1.9h2c0,1.5-0.2,2.6-0.6,3.3c-0.7,1.1-1.8,1.7-3.4,1.7c-1.1,0-1.9-0.3-2.6-0.8c-0.5-0.4-0.8-0.8-0.9-1.3
			c-0.2-0.6-0.3-1.4-0.3-2.3v-8.7h-2.7v-2h2.7v-3.3l2.7-1v4.2h4.6v2H572.1z"/>
		<path fill="#FFFFFF" d="M583.8,375.9c0.6-1.9,2.2-2.8,4.6-2.8c1.7,0,3,0.4,3.8,1.3c0.8,0.8,1.2,1.9,1.2,3.1v8.7h2.5v2h-7.6v-2h2.4
			v-7.6c0-0.8-0.1-1.5-0.2-1.9c-0.4-1.1-1.3-1.6-2.7-1.6c-1.3,0-2.3,0.4-2.9,1.3c-0.7,0.8-1,2-1,3.4v6.4h2.4v2h-7.6v-2h2.6v-17.1
			h-2.6v-2h5.2V375.9z"/>
	</g>
</g>
</svg>
