<?xml version="1.0" encoding="UTF-8" standalone="no"?>
<!-- Generator: Adobe Illustrator 16.0.0, SVG Export Plug-In . SVG Version: 6.00 Build 0)  -->

<svg
   xmlns:dc="http://purl.org/dc/elements/1.1/"
   xmlns:cc="http://creativecommons.org/ns#"
   xmlns:rdf="http://www.w3.org/1999/02/22-rdf-syntax-ns#"
   xmlns:svg="http://www.w3.org/2000/svg"
   xmlns="http://www.w3.org/2000/svg"
   xmlns:sodipodi="http://sodipodi.sourceforge.net/DTD/sodipodi-0.dtd"
   xmlns:inkscape="http://www.inkscape.org/namespaces/inkscape"
   version="1.1"
   id="Capa_1"
   x="0px"
   y="0px"
   width="320"
   height="512"
   viewBox="0 0 320 512"
   xml:space="preserve"
   inkscape:version="0.91 r"
   sodipodi:docname="map-marker.svg"><metadata
     id="metadata3532"><rdf:RDF><cc:Work
         rdf:about=""><dc:format>image/svg+xml</dc:format><dc:type
           rdf:resource="http://purl.org/dc/dcmitype/StillImage" /><dc:title></dc:title></cc:Work></rdf:RDF></metadata><defs
     id="defs3530" /><sodipodi:namedview
     pagecolor="#ffffff"
     bordercolor="#666666"
     borderopacity="1"
     objecttolerance="10"
     gridtolerance="10"
     guidetolerance="10"
     inkscape:pageopacity="0"
     inkscape:pageshadow="2"
     inkscape:window-width="1313"
     inkscape:window-height="744"
     id="namedview3528"
     showgrid="false"
     fit-margin-top="0"
     fit-margin-left="0"
     fit-margin-right="0"
     fit-margin-bottom="0"
     inkscape:zoom="1.2011719"
     inkscape:cx="160"
     inkscape:cy="256"
     inkscape:window-x="53"
     inkscape:window-y="24"
     inkscape:window-maximized="1"
     inkscape:current-layer="g3494" /><g
     id="g3494"
     transform="translate(-96,0)"><path
       d="M 256,0 C 167.641,0 96,71.625 96,160 c 0,24.75 5.625,48.219 15.672,69.125 C 112.234,230.313 256,512 256,512 L 398.594,232.625 C 409.719,210.844 416,186.156 416,160 416,71.625 344.375,0 256,0 Z m 0,256 c -53.016,0 -96,-43 -96,-96 0,-53 42.984,-96 96,-96 53,0 96,43 96,96 0,53 -43,96 -96,96 z"
       id="path3496"
       inkscape:connector-curvature="0" /><path
       d="M 100.22504,394.0057 C 12.292287,221.69525 12.871993,222.85668 8.8992177,211.03615 -4.508052,171.14438 -1.9491301,128.80875 16.134195,91.338336 26.422709,70.019533 39.789323,52.729245 57.350244,38.023614 105.40752,-2.2198648 171.82034,-10.877265 228.01691,15.775958 c 49.4112,23.435016 82.76036,69.26457 90.29575,124.087452 1.20045,8.73371 1.19783,30.41306 -0.005,40.38189 -1.29657,10.74679 -5.72021,27.94238 -9.812,38.14122 -2.84109,7.08174 -146.57769,289.9882 -148.19888,291.68947 -0.3006,0.31545 -27.33289,-51.91619 -60.07175,-116.07029 z m 76.69095,-139.23426 c 42.67109,-7.51343 74.81238,-42.62497 78.91298,-86.20551 2.2307,-23.7076 -4.91975,-48.42532 -19.50202,-67.41471 C 231.65985,95.073621 220.76078,84.738531 214.63227,80.579164 165.78351,47.425906 98.446686,65.288504 73.2215,118.09153 c -26.976346,56.46868 5.935099,123.37656 66.96452,136.13664 9.82067,2.05331 26.73327,2.30347 36.72997,0.54327 z"
       id="path3534"
       inkscape:connector-curvature="0"
       transform="translate(96,0)" /><path
       d="M 137.14824,466.40299 C 124.71715,442.02964 96.575821,386.8722 74.611974,343.83089 11.912892,220.96308 12.631661,222.41487 8.8470819,210.99716 -4.5210016,170.6669 -1.9656575,128.84275 16.161348,91.282166 31.123486,60.279439 53.520425,36.672336 83.992027,19.786416 121.43844,-0.96461112 168.9595,-5.2203512 210.11772,8.4912511 261.63456,25.653761 300.69879,67.484645 314.53079,120.29919 c 3.28556,12.5452 4.7146,24.65778 4.7146,39.96097 0,21.24404 -3.48875,40.02856 -10.83503,58.33926 -3.40179,8.47901 -147.63679,292.22427 -148.49986,292.13527 -0.0881,-0.009 -10.33116,-19.95836 -22.76226,-44.3317 z m 45.58667,-212.7752 c 20.94077,-5.55017 37.8159,-16.13698 51.11021,-32.06459 14.50433,-17.37732 22.01509,-37.955 22.09799,-60.54319 0.076,-20.71097 -4.64326,-37.17282 -15.3778,-53.64106 C 215.76935,69.338606 167.21248,53.861975 124.78439,70.475867 79.561041,88.184316 54.432979,137.7502 66.904898,184.64497 c 9.549625,35.90686 39.016922,63.05121 76.194942,70.1884 8.69794,1.66977 31.39066,0.97953 39.63507,-1.20558 z"
       id="path3536"
       inkscape:connector-curvature="0"
       transform="translate(96,0)" /><path
       d="M 150.07205,491.79125 C 126.12805,444.98366 35.153106,266.5635 24.324074,245.1742 8.5575464,214.03245 3.8059034,199.79624 1.2032107,175.90273 -3.783921,130.11934 12.679593,82.999937 45.569251,48.924915 75.320629,18.101278 117.09986,0.41626016 160.1665,0.41626016 c 64.05653,0 122.91748,39.33500384 147.15933,98.34217084 8.30755,20.221429 11.92369,38.865009 11.91303,61.419609 -0.0108,22.85786 -3.34596,40.32817 -11.45876,60.02359 -1.60318,3.89203 -18.47382,37.6091 -37.4903,74.92683 -100.03337,196.30429 -109.94127,215.65737 -110.37869,215.60263 -0.0885,-0.0111 -4.51605,-8.534 -9.83906,-18.93984 z m 23.88571,-236.68406 c 13.41398,-1.86571 27.70816,-7.31994 39.49004,-15.06822 8.44142,-5.55145 20.27749,-17.50963 26.33778,-26.60952 6.27646,-9.42449 10.41524,-18.57425 13.44238,-29.71757 2.00645,-7.38604 2.18521,-9.35491 2.16713,-23.86798 -0.0181,-14.46899 -0.20845,-16.51988 -2.23299,-24.04989 -8.3162,-30.93102 -32.24664,-56.808591 -61.66706,-66.684701 -35.26606,-11.838426 -73.52435,-3.073639 -99.066894,22.695746 -8.88573,8.964635 -13.214138,14.970125 -18.436821,25.580315 -11.53924,23.44264 -13.36233,47.49614 -5.463381,72.08282 9.692828,30.17039 33.242286,53.18996 64.165386,62.72159 3.89204,1.19967 9.32423,2.50206 12.07155,2.8942 7.283,1.03954 21.80271,1.05109 29.19288,0.0232 l 0,-2e-5 z"
       id="path3538"
       inkscape:connector-curvature="0"
       transform="translate(96,0)" /><path
       style="fill:#ffffff"
       d="M 150.88489,493.42423 C 137.90329,468.20504 41.065681,278.312 25.562825,247.6748 8.6639832,214.2788 3.768862,200.0189 1.2107853,176.73525 -3.3806719,134.94374 10.155812,90.4955 37.438207,57.779316 97.546315,-14.300432 206.55847,-19.092144 272.99048,47.425439 c 23.95752,23.988383 39.97278,55.793431 44.94029,89.247871 1.7377,11.70281 1.73258,34.67288 -0.0103,46.41089 -3.24903,21.88109 -7.02013,32.0487 -25.19135,67.92068 -48.68708,96.11362 -131.51668,258.17989 -132.40659,259.06976 -0.31473,0.31471 -4.56165,-7.17798 -9.43758,-16.65041 l -4e-5,0 z M 175.15187,254.7891 c 30.80603,-4.67834 57.45205,-24.62968 71.33492,-53.41238 2.45411,-5.08801 5.45186,-12.95533 6.66164,-17.48293 1.97627,-7.39606 2.20523,-9.75373 2.25473,-23.21737 0.0581,-15.80634 -0.5047,-19.90715 -4.28476,-31.21951 C 241.04724,99.317519 215.41925,75.27426 184.72585,67.169805 135.54242,54.183138 84.894237,81.562652 68.733621,129.87317 c -4.868038,14.5525 -6.156384,34.57718 -3.133413,48.70244 7.63197,35.66146 33.605636,63.95076 67.649162,73.68029 13.44184,3.84164 27.63615,4.69975 41.9025,2.5332 z"
       id="path3542"
       inkscape:connector-curvature="0"
       transform="translate(96,0)" /></g><g
     id="g3498"
     transform="translate(-96,0)" /><g
     id="g3500"
     transform="translate(-96,0)" /><g
     id="g3502"
     transform="translate(-96,0)" /><g
     id="g3504"
     transform="translate(-96,0)" /><g
     id="g3506"
     transform="translate(-96,0)" /><g
     id="g3508"
     transform="translate(-96,0)" /><g
     id="g3510"
     transform="translate(-96,0)" /><g
     id="g3512"
     transform="translate(-96,0)" /><g
     id="g3514"
     transform="translate(-96,0)" /><g
     id="g3516"
     transform="translate(-96,0)" /><g
     id="g3518"
     transform="translate(-96,0)" /><g
     id="g3520"
     transform="translate(-96,0)" /><g
     id="g3522"
     transform="translate(-96,0)" /><g
     id="g3524"
     transform="translate(-96,0)" /><g
     id="g3526"
     transform="translate(-96,0)" /></svg>