<?xml version="1.0" encoding="UTF-8" standalone="no"?>
<!-- Generator: Adobe Illustrator 16.0.0, SVG Export Plug-In . SVG Version: 6.00 Build 0)  -->

<svg
   xmlns:dc="http://purl.org/dc/elements/1.1/"
   xmlns:cc="http://creativecommons.org/ns#"
   xmlns:rdf="http://www.w3.org/1999/02/22-rdf-syntax-ns#"
   xmlns:svg="http://www.w3.org/2000/svg"
   xmlns="http://www.w3.org/2000/svg"
   xmlns:sodipodi="http://sodipodi.sourceforge.net/DTD/sodipodi-0.dtd"
   xmlns:inkscape="http://www.inkscape.org/namespaces/inkscape"
   version="1.1"
   id="Capa_1"
   x="0px"
   y="0px"
   width="1400"
   height="553"
   viewBox="0 0 1400 553"
   xml:space="preserve"
   inkscape:version="0.91 r"
   sodipodi:docname="map-marker2.svg"><metadata
     id="metadata41"><rdf:RDF><cc:Work
         rdf:about=""><dc:format>image/svg+xml</dc:format><dc:type
           rdf:resource="http://purl.org/dc/dcmitype/StillImage" /><dc:title></dc:title></cc:Work></rdf:RDF></metadata><defs
     id="defs39" /><sodipodi:namedview
     pagecolor="#ffffff"
     bordercolor="#666666"
     borderopacity="1"
     objecttolerance="10"
     gridtolerance="10"
     guidetolerance="10"
     inkscape:pageopacity="0"
     inkscape:pageshadow="2"
     inkscape:window-width="1313"
     inkscape:window-height="744"
     id="namedview37"
     showgrid="false"
     units="px"
     inkscape:zoom="0.4609375"
     inkscape:cx="263.59322"
     inkscape:cy="256"
     inkscape:window-x="53"
     inkscape:window-y="24"
     inkscape:window-maximized="1"
     inkscape:current-layer="Capa_1" /><g
     id="g3"
     transform="translate(-36.881355,21.305085)"><path
       d="M 256,0 C 167.641,0 96,71.625 96,160 c 0,24.75 5.625,48.219 15.672,69.125 C 112.234,230.313 256,512 256,512 L 398.594,232.625 C 409.719,210.844 416,186.156 416,160 416,71.625 344.375,0 256,0 Z m 0,256 c -53.016,0 -96,-43 -96,-96 0,-53 42.984,-96 96,-96 53,0 96,43 96,96 0,53 -43,96 -96,96 z"
       id="path5"
       inkscape:connector-curvature="0" /></g><g
     id="g7"
     transform="translate(0,41)" /><g
     id="g9"
     transform="translate(0,41)" /><g
     id="g11"
     transform="translate(0,41)" /><g
     id="g13"
     transform="translate(0,41)" /><g
     id="g15"
     transform="translate(0,41)" /><g
     id="g17"
     transform="translate(0,41)" /><g
     id="g19"
     transform="translate(0,41)" /><g
     id="g21"
     transform="translate(0,41)" /><g
     id="g23"
     transform="translate(0,41)" /><g
     id="g25"
     transform="translate(0,41)" /><g
     id="g27"
     transform="translate(0,41)" /><g
     id="g29"
     transform="translate(0,41)" /><g
     id="g31"
     transform="translate(0,41)" /><g
     id="g33"
     transform="translate(0,41)" /><g
     id="g35"
     transform="translate(0,41)" /><text
     xml:space="preserve"
     style="font-style:normal;font-weight:normal;font-size:107.04753113px;line-height:125%;font-family:sans-serif;letter-spacing:0px;word-spacing:0px;fill:#000000;fill-opacity:1;stroke:none;stroke-width:1px;stroke-linecap:butt;stroke-linejoin:miter;stroke-opacity:1"
     x="528.32117"
     y="218.73788"
     id="text3369"
     sodipodi:linespacing="125%"><tspan
       sodipodi:role="line"
       id="tspan3371"
       x="528.32117"
       y="218.73788"
       style="font-size:214.09506226px">How To</tspan><tspan
       sodipodi:role="line"
       x="528.32117"
       y="486.35669"
       style="font-size:214.09506226px"
       id="tspan3383"> Reach</tspan></text>
<flowRoot
     xml:space="preserve"
     id="flowRoot3373"
     style="fill:black;stroke:none;stroke-opacity:1;stroke-width:1px;stroke-linejoin:miter;stroke-linecap:butt;fill-opacity:1;font-family:sans-serif;font-style:normal;font-weight:normal;font-size:40px;line-height:125%;letter-spacing:0px;word-spacing:0px"><flowRegion
       id="flowRegion3375"><rect
         id="rect3377"
         width="106.30508"
         height="108.47458"
         x="520.67798"
         y="192.86441" /></flowRegion><flowPara
       id="flowPara3379"></flowPara></flowRoot></svg>