<?xml version="1.0" encoding="UTF-8" standalone="no"?>
<!-- Generator: Adobe Illustrator 16.0.0, SVG Export Plug-In . SVG Version: 6.00 Build 0)  -->

<svg
   xmlns:dc="http://purl.org/dc/elements/1.1/"
   xmlns:cc="http://creativecommons.org/ns#"
   xmlns:rdf="http://www.w3.org/1999/02/22-rdf-syntax-ns#"
   xmlns:svg="http://www.w3.org/2000/svg"
   xmlns="http://www.w3.org/2000/svg"
   xmlns:sodipodi="http://sodipodi.sourceforge.net/DTD/sodipodi-0.dtd"
   xmlns:inkscape="http://www.inkscape.org/namespaces/inkscape"
   version="1.1"
   id="Layer_1"
   x="0px"
   y="0px"
   width="1029.6783"
   height="618.98083"
   viewBox="0 0 1029.6783 618.98083"
   enable-background="new 0 0 400 400"
   xml:space="preserve"
   inkscape:version="0.91 r"
   sodipodi:docname="note.svg"><metadata
     id="metadata35"><rdf:RDF><cc:Work
         rdf:about=""><dc:format>image/svg+xml</dc:format><dc:type
           rdf:resource="http://purl.org/dc/dcmitype/StillImage" /><dc:title></dc:title></cc:Work></rdf:RDF></metadata><defs
     id="defs33" /><sodipodi:namedview
     pagecolor="#ffffff"
     bordercolor="#666666"
     borderopacity="1"
     objecttolerance="10"
     gridtolerance="10"
     guidetolerance="10"
     inkscape:pageopacity="0"
     inkscape:pageshadow="2"
     inkscape:window-width="1313"
     inkscape:window-height="744"
     id="namedview31"
     showgrid="false"
     fit-margin-top="0"
     fit-margin-left="0"
     fit-margin-right="0"
     fit-margin-bottom="0"
     inkscape:zoom="0.59"
     inkscape:cx="546.97572"
     inkscape:cy="383.47808"
     inkscape:window-x="53"
     inkscape:window-y="24"
     inkscape:window-maximized="1"
     inkscape:current-layer="Layer_1" /><g
     id="g3"
     transform="matrix(2.288559,0,0,1,68.361431,35.50278)"><g
       id="g5"
       transform="matrix(1.2216245,0,0,1.8151145,-50.571377,-87.96685)"><path
         d="M 20.935,53.16 320.859,30.691 c 0,0 33.562,267.266 56.03,304.718 C 323.357,362.951 93.643,367.765 46.203,367.765 23.389,280.158 11.047,178.154 20.935,53.16 Z"
         id="path7"
         inkscape:connector-curvature="0"
         style="opacity:0.4" /><path
         d="M 16.945,51.376 339.042,28.904 c 11.29,138.239 33.915,299.459 46.203,314.551 C 331.709,370.997 105.929,369.913 58.488,369.913 35.673,282.309 17.493,199.228 16.945,51.376 Z"
         id="path9"
         inkscape:connector-curvature="0"
         style="fill:#f8e67a" /></g><g
       id="g11"
       transform="matrix(0.93041075,0,0,1.5578931,-2.7534052,-67.454114)"><path
         d="m 205.211,80.059 c 0,11.755 -9.528,21.285 -21.286,21.285 -11.755,0 -21.284,-9.53 -21.284,-21.285 0,-11.756 9.529,-23.268 21.284,-23.268 11.758,0 21.286,11.512 21.286,23.268 z"
         id="path13"
         inkscape:connector-curvature="0"
         style="fill:#f54e59" /><circle
         cx="183.92599"
         cy="76.093002"
         r="21.285"
         id="circle15"
         style="fill:#d20814" /><circle
         cx="183.92599"
         cy="72.653"
         r="15.863"
         id="circle17"
         style="opacity:0.6;fill:#020202" /><circle
         cx="183.925"
         cy="63.235001"
         r="19.333"
         id="circle19"
         style="fill:#f54e59" /><g
         id="g21"><circle
           cx="183.925"
           cy="61.251999"
           r="19.333"
           id="circle23"
           style="fill:#d20814" /></g></g></g></svg>