<?xml version="1.0" encoding="utf-8"?>
<!-- Generator: Adobe Illustrator 18.0.0, SVG Export Plug-In . SVG Version: 6.00 Build 0)  -->
<!DOCTYPE svg PUBLIC "-//W3C//DTD SVG 1.1//EN" "http://www.w3.org/Graphics/SVG/1.1/DTD/svg11.dtd">
<svg version="1.1" id="Layer_1" xmlns="http://www.w3.org/2000/svg" xmlns:xlink="http://www.w3.org/1999/xlink" x="0px" y="0px"
	 viewBox="0 0 640 480" enable-background="new 0 0 640 480" xml:space="preserve">
<title>Layer 1</title>
<path id="svg_7" fill="none" d="M28.6,306.5c4.9,5,26.7,20.1,41.1-1.7c14.3-21.8,19.5-31.7,33.8-34.4c28.6-5.4,30.4,18.7,33.6,31.3
	l1.6,22.1l0.7,17.8l0.2,8.7l0.2,8.7l-0.5,15.4l-1.9,14.3l-6.3,23.9l-7.6,26.6C239,465.4,251.7,463.7,268,461.7
	c8.1-1,16.1-3.5,21.8-7.2c5.7-3.8,9-11.2,9.2-23.6c0.5-24.8-51.4-31.1-52.7-49.7c-0.3-4.3-0.3-10,3.4-17.9
	c13.4-16.2,38.4-23.6,60.6-24.3c8.2-0.2,15.9,0.6,22.6,2.1c0.3,0,0.6,0.1,0.9,0.1c19.1,2.7,38.5,10.4,49.6,24.3
	c19,42.3-29.9,32.5-35.7,61.7c-4.2,21.2,21.9,41.9,47.2,36.6l125.4-28.9c-1.8-11.9-4.7-25-7.9-36.9c-3.2-11.9-7.1-17.5-8.2-34.7
	c-1.1-17.2-0.6-23.5,0.6-35.4c1.2-11.9,2.5-25.3,5.1-35c2.5-9.6,7.5-23.9,28.9-19.4c28.5,5.9,22.7,53.9,64,34.4
	c13.5-11.4,21.1-31.2,23.8-50.8c0-0.3,0.1-0.6,0.1-0.9c1.5-6.9,2.3-14.8,2-23.2c-0.6-22.7-7.9-48.3-23.7-62
	c-41-20.1-40.7,26.7-55.4,35c-14.7,8.3-22.9,5.6-33.6,2.1c-5.4-1.8-8.1-5.7-10.1-10.7c-2-5-3.1-13.1-5.2-26.8
	c-2.1-13.8-1-19.4-0.6-31.6c0.4-12.2,3.8-24.6,5.5-35.9c1.7-11.4,4.8-18.8,8.1-32.3c3.3-13.5,8.8-25.2,9.8-37.1
	c-3.4-3-105.5-28.7-137.5-33.1c-32-4.4-48.3,24.4-34.8,47c13.5,22.6,54.7,23.6,35,65.6c-13.4,16.2-38.4,23.6-60.6,24.3
	c-8.2,0.2-15.9-0.6-22.6-2.1c-0.3,0-0.6-0.1-0.9-0.1c-19.1-2.7-38.5-10.4-49.6-24.3c-3.6-7.9-4.8-13.7-4.5-18
	c1.6-18.6,37.5-24.9,50-46.2c6.2-10.7,7.1-18,1.9-28C295,8.5,281.1-1.4,257.7,0.7c-47.3,10.1-93.3,23.2-140.7,33.2l10.2,20.4
	l5.1,9.2c2.9,6.7,3.1,7.4,4.4,10.3l3.4,8.8l3,8.1l3.4,19.6l1.3,16.5l1.3,20.6l-1.5,17l-4.1,10.7c-1.8,2.7-3.6,5.4-5.4,8.1
	c-6.3,8-11.5,22.2-31.7,18C78,195.4,77,147.3,35.6,166.8c-13.5,11.4-23.2,37.5-24.5,46.8c-1.3,9.3-2.3,16.2-2.4,21.5
	c-0.1,2.7-0.3,2.4-0.2,3.7c0.1,1.3-0.2,2.3-0.1,7.6c0.1,5.3,0.6,7.3,0.6,8.5c0,1.2,0.1,1.8,0.5,3.5c0.6,3.4,1.8,11.4,2.6,14.1
	c0.8,2.6,2.9,9.2,6.1,16.7C21.3,296.7,26.2,304,28.6,306.5L28.6,306.5z"/>
</svg>
