<?xml version="1.0" encoding="UTF-8" standalone="no"?>
<!-- Generator: Adobe Illustrator 18.0.0, SVG Export Plug-In . SVG Version: 6.00 Build 0)  -->

<svg
   xmlns:dc="http://purl.org/dc/elements/1.1/"
   xmlns:cc="http://creativecommons.org/ns#"
   xmlns:rdf="http://www.w3.org/1999/02/22-rdf-syntax-ns#"
   xmlns:svg="http://www.w3.org/2000/svg"
   xmlns="http://www.w3.org/2000/svg"
   xmlns:sodipodi="http://sodipodi.sourceforge.net/DTD/sodipodi-0.dtd"
   xmlns:inkscape="http://www.inkscape.org/namespaces/inkscape"
   version="1.1"
   id="Layer_1"
   x="0px"
   y="0px"
   viewBox="0 0 120.60001 39.5"
   enable-background="new 0 0 612 792"
   xml:space="preserve"
   inkscape:version="0.91 r"
   sodipodi:docname="RegisButton.svg"
   width="120.60001"
   height="39.5"><metadata
     id="metadata37"><rdf:RDF><cc:Work
         rdf:about=""><dc:format>image/svg+xml</dc:format><dc:type
           rdf:resource="http://purl.org/dc/dcmitype/StillImage" /><dc:title></dc:title></cc:Work></rdf:RDF></metadata><defs
     id="defs35" /><sodipodi:namedview
     pagecolor="#ffffff"
     bordercolor="#666666"
     borderopacity="1"
     objecttolerance="10"
     gridtolerance="10"
     guidetolerance="10"
     inkscape:pageopacity="0"
     inkscape:pageshadow="2"
     inkscape:window-width="640"
     inkscape:window-height="480"
     id="namedview33"
     showgrid="false"
     fit-margin-top="0"
     fit-margin-left="0"
     fit-margin-right="0"
     fit-margin-bottom="0"
     inkscape:zoom="0.2979798"
     inkscape:cx="3.7711864"
     inkscape:cy="-93.700012"
     inkscape:window-x="53"
     inkscape:window-y="24"
     inkscape:window-maximized="0"
     inkscape:current-layer="Layer_1" /><rect
     x="27.100006"
     y="0"
     width="93.5"
     height="39.5"
     id="rect3"
     style="fill:#01a2ff" /><rect
     x="0"
     y="0"
     width="29"
     height="39.5"
     id="rect5"
     style="fill:#0081cc" /><circle
     cx="28.899994"
     cy="20"
     r="12.1"
     id="circle7"
     style="fill:#ffffff" /><g
     transform="translate(-243.5,-1283.1622)"
     id="g9"><g
       id="g11"><path
         d="m 272.5,1294.4 c -0.6,0 -1.1,0.5 -1.1,1.1 l -1.1,0 c -0.3,0 -0.6,0.3 -0.6,0.6 l -2.6,0 c -0.5,0 -0.9,0.4 -0.9,0.9 l 0,13.7 c 0,0.5 0.4,0.9 0.9,0.9 l 10.9,0 c 0.5,0 0.9,-0.4 0.9,-0.9 l 0,-7.6 c 0,0 0,0 0,0 l 2.5,-2.5 c 0,0 0,0 0,0 l 0,0 0.6,-0.6 c 0.4,-0.4 0.4,-1.2 0,-1.6 l -0.4,-0.4 c -0.2,-0.2 -0.5,-0.3 -0.8,-0.3 -0.3,0 -0.6,0.1 -0.8,0.3 l -0.6,0.6 c 0,0 0,0 0,0 0,0 0,0 0,0 l -0.5,0.5 0,-2 c 0,-0.5 -0.4,-0.9 -0.9,-0.9 l -2.6,0 c 0,-0.3 -0.3,-0.6 -0.6,-0.6 l -1.1,0 c 0,-0.7 -0.6,-1.2 -1.2,-1.2 z m 0,0.6 c 0.3,0 0.6,0.3 0.6,0.6 0,0.1 0,0.1 0,0.2 -0.1,0.1 0,0.3 0.2,0.4 0,0 0.1,0 0.1,0 l 1.4,0 c 0,0 0,0 0,0 l 0,0.2 c 0,0 0,0.1 0,0.1 l 0,1.3 c 0,0 0,0 0,0 l -4.5,0 c 0,0 0,0 0,0 l 0,-1.3 c 0,0 0,-0.1 0,-0.1 l 0,-0.2 c 0,0 0,0 0,0 l 1.4,0 c 0.2,0 0.3,-0.1 0.3,-0.3 0,0 0,-0.1 0,-0.1 0,-0.1 0,-0.1 0,-0.2 -0.1,-0.4 0.2,-0.6 0.5,-0.6 z m -5.4,1.7 2.6,0 0,0.6 -1.4,0 c -0.5,0 -0.9,0.4 -0.9,0.9 l 0,4.4 0,2.4 0,2.6 0.6,0 0,-2.6 0,-2.4 0,-4.4 c 0,-0.2 0.2,-0.4 0.4,-0.4 l 1.4,0 c 0,0.3 0.3,0.6 0.6,0.6 l 4.5,0 c 0.3,0 0.6,-0.3 0.6,-0.6 l 1.4,0 c 0.2,0 0.4,0.2 0.4,0.4 l 0,2.6 -0.5,0.5 0,0 -4.6,0 0,0.6 4.1,0 -0.6,0.6 -6.9,0 0,0.6 6.4,0 -0.6,0.6 -5.8,0 0,0.6 5.2,0 -0.5,0.5 c 0,0 0,0 0,0 0,0 0,0 0,0 0,0 0,0 0,0 0,0 0,0 0,0 0,0 0,0 0,0 0,0 0,0 0,0 0,0 0,0 0,0 0,0 0,0 0,0 l -4.7,0 0,0.6 4.5,0 -0.2,0.6 -4.3,0 0,0.6 4.1,0 -0.3,0.8 c -0.1,0.2 0,0.3 0.2,0.4 0.1,0 0.1,0 0.2,0 l 2.4,-0.8 c 0,0 0,0 0,0 0,0 0,0 0,0 0,0 0,0 0,0 0,0 0,0 0,0 0,0 0,0 0,0 0,0 0,0 0,0 0,0 0,0 0,0 0,0 0,0 0,0 0,0 0,0 0,0 l 1.9,-1.9 0,2.6 -0.9,0 c -0.4,0 -0.7,0.2 -0.8,0.4 -0.1,0.2 -0.1,0.4 -0.1,0.4 l 0,1 -7.1,0 c -0.2,0 -0.4,-0.2 -0.4,-0.4 l 0,-0.8 -0.6,0 0,0.8 c 0,0.5 0.4,0.9 0.9,0.9 l 7.2,0 c 0.1,0 0.2,0 0.2,-0.1 l 1.3,-1.4 0.5,-0.5 c 0,-0.1 0.1,-0.1 0.1,-0.2 0,0 0,0 0,0 0,0 0,0 0,0 0,0 0,0 0,0 l 0,-3.5 0.6,-0.6 0,7.1 c 0,0.2 -0.1,0.3 -0.3,0.3 l -10.9,0 c -0.2,0 -0.3,-0.1 -0.3,-0.3 l 0,-13.8 c 0.1,-0.2 0.2,-0.3 0.4,-0.3 z m 8.3,0 2.6,0 c 0.2,0 0.3,0.1 0.3,0.3 l 0,2.6 -0.6,0.6 0,-2 c 0,-0.5 -0.4,-0.9 -0.9,-0.9 l -1.4,0 0,-0.6 z m 5.3,1.5 c 0.1,0 0.3,0.1 0.4,0.2 l 0.4,0.4 c 0.2,0.2 0.2,0.6 0,0.8 l -0.4,0.4 -1.2,-1.2 0.4,-0.4 c 0.1,-0.1 0.3,-0.2 0.4,-0.2 z m -11.9,0.8 c -0.2,0 -0.3,0.1 -0.3,0.3 l 0,2.3 c 0,0.2 0.1,0.3 0.3,0.3 l 2.3,0 c 0.2,0 0.3,-0.1 0.3,-0.3 l 0,-2.3 c 0,-0.2 -0.1,-0.3 -0.3,-0.3 l -2.3,0 z m 3.1,0 0,0.6 4.6,0 0,-0.6 -4.6,0 z m 7.6,0.2 0,0 0.4,0.4 0,0 -5.7,5.7 -0.4,-0.4 5.7,-5.7 z m -10.4,0.4 1.7,0 0,1.7 -1.7,0 0,-1.7 z m 11.2,0.4 0.4,0.4 -5.7,5.7 -0.4,-0.4 5.7,-5.7 z m -8.4,0.2 0,0.6 4.6,0 0,-0.6 -4.6,0 z m 1.6,5.2 1,1 -1.4,0.5 0.4,-1.5 z m -5,1.6 0,0.6 2.9,0 0,-0.6 -2.9,0 z m 7.7,1 0.5,0 -0.1,0.1 -0.7,0.7 0,-0.5 c 0,0 0,-0.1 0,-0.2 0.1,0 0.2,-0.1 0.3,-0.1 z"
         id="path13"
         inkscape:connector-curvature="0"
         style="fill:#0081cc" /></g></g><g
     id="g15"
     transform="translate(-243.5,-262.79999)"><path
       d="m 293,277.2 c 0.7,-0.1 1.7,-0.2 2.7,-0.2 1.5,0 2.4,0.3 3.1,0.9 0.5,0.5 0.8,1.2 0.8,2 0,1.4 -0.9,2.4 -2,2.8 l 0,0 c 0.8,0.3 1.3,1.1 1.6,2.2 0.4,1.5 0.6,2.5 0.8,3 l -1.4,0 c -0.2,-0.3 -0.4,-1.2 -0.7,-2.6 -0.3,-1.5 -0.9,-2 -2.2,-2.1 l -1.3,0 0,4.7 -1.4,0 0,-10.7 z m 1.4,4.9 1.4,0 c 1.5,0 2.4,-0.8 2.4,-2 0,-1.4 -1,-2 -2.5,-2 -0.7,0 -1.2,0.1 -1.4,0.1 l 0,3.9 z"
       id="path17"
       inkscape:connector-curvature="0"
       style="fill:#ffffff" /><path
       d="m 302.4,284.2 c 0,1.9 1.2,2.7 2.7,2.7 1,0 1.6,-0.2 2.1,-0.4 l 0.2,1 c -0.5,0.2 -1.3,0.5 -2.6,0.5 -2.4,0 -3.8,-1.6 -3.8,-3.9 0,-2.3 1.4,-4.2 3.6,-4.2 2.5,0 3.2,2.2 3.2,3.6 0,0.3 0,0.5 0,0.7 l -5.4,0 z m 4.2,-1 c 0,-0.9 -0.4,-2.3 -2,-2.3 -1.4,0 -2,1.3 -2.2,2.3 l 4.2,0 z"
       id="path19"
       inkscape:connector-curvature="0"
       style="fill:#ffffff" /><path
       d="m 316.3,280.1 c 0,0.6 -0.1,1.2 -0.1,2.1 l 0,4.5 c 0,1.8 -0.4,2.9 -1.1,3.5 -0.8,0.7 -1.8,0.9 -2.8,0.9 -0.9,0 -2,-0.2 -2.6,-0.6 l 0.4,-1.1 c 0.5,0.3 1.3,0.6 2.3,0.6 1.4,0 2.5,-0.8 2.5,-2.7 l 0,-0.9 0,0 c -0.4,0.7 -1.3,1.3 -2.5,1.3 -1.9,0 -3.3,-1.6 -3.3,-3.8 0,-2.6 1.7,-4.1 3.5,-4.1 1.3,0 2.1,0.7 2.4,1.3 l 0,0 0.1,-1.2 1.2,0 z m -1.4,3 c 0,-0.2 0,-0.4 -0.1,-0.6 -0.3,-0.8 -0.9,-1.5 -2,-1.5 -1.3,0 -2.3,1.1 -2.3,2.9 0,1.5 0.8,2.8 2.3,2.8 0.9,0 1.6,-0.5 2,-1.4 0.1,-0.2 0.1,-0.5 0.1,-0.8 l 0,-1.4 z"
       id="path21"
       inkscape:connector-curvature="0"
       style="fill:#ffffff" /><path
       d="m 320.1,277.9 c 0,0.5 -0.3,0.9 -0.9,0.9 -0.5,0 -0.8,-0.4 -0.8,-0.9 0,-0.5 0.4,-0.9 0.9,-0.9 0.5,0 0.8,0.4 0.8,0.9 z m -1.6,9.9 0,-7.7 1.4,0 0,7.7 -1.4,0 z"
       id="path23"
       inkscape:connector-curvature="0"
       style="fill:#ffffff" /><path
       d="m 322.1,286.4 c 0.4,0.3 1.2,0.6 1.9,0.6 1,0 1.5,-0.5 1.5,-1.2 0,-0.7 -0.4,-1 -1.4,-1.4 -1.4,-0.5 -2,-1.3 -2,-2.2 0,-1.2 1,-2.3 2.7,-2.3 0.8,0 1.5,0.2 1.9,0.5 l -0.4,1 c -0.3,-0.2 -0.9,-0.4 -1.6,-0.4 -0.8,0 -1.3,0.5 -1.3,1.1 0,0.6 0.5,0.9 1.5,1.3 1.3,0.5 2,1.2 2,2.3 0,1.4 -1.1,2.3 -2.9,2.3 -0.8,0 -1.6,-0.2 -2.2,-0.5 l 0.3,-1.1 z"
       id="path25"
       inkscape:connector-curvature="0"
       style="fill:#ffffff" /><path
       d="m 330.3,277.8 0,2.2 2,0 0,1.1 -2,0 0,4.2 c 0,1 0.3,1.5 1.1,1.5 0.4,0 0.6,0 0.8,-0.1 l 0.1,1.1 c -0.3,0.1 -0.7,0.2 -1.2,0.2 -0.7,0 -1.2,-0.2 -1.5,-0.6 -0.4,-0.4 -0.5,-1.1 -0.5,-2 l 0,-4.2 -1.2,0 0,-1.1 1.2,0 0,-1.9 1.2,-0.4 z"
       id="path27"
       inkscape:connector-curvature="0"
       style="fill:#ffffff" /><path
       d="m 334.6,284.2 c 0,1.9 1.2,2.7 2.7,2.7 1,0 1.6,-0.2 2.1,-0.4 l 0.2,1 c -0.5,0.2 -1.3,0.5 -2.6,0.5 -2.4,0 -3.8,-1.6 -3.8,-3.9 0,-2.3 1.4,-4.2 3.6,-4.2 2.5,0 3.2,2.2 3.2,3.6 0,0.3 0,0.5 0,0.7 l -5.4,0 z m 4.1,-1 c 0,-0.9 -0.4,-2.3 -2,-2.3 -1.4,0 -2,1.3 -2.2,2.3 l 4.2,0 z"
       id="path29"
       inkscape:connector-curvature="0"
       style="fill:#ffffff" /><path
       d="m 341.8,282.5 c 0,-0.9 0,-1.7 -0.1,-2.4 l 1.2,0 0,1.5 0.1,0 c 0.4,-1 1.2,-1.7 2.1,-1.7 0.2,0 0.3,0 0.4,0 l 0,1.3 c -0.1,0 -0.3,0 -0.5,0 -1,0 -1.7,0.8 -1.9,1.8 0,0.2 -0.1,0.4 -0.1,0.7 l 0,4.1 -1.4,0 0,-5.3 z"
       id="path31"
       inkscape:connector-curvature="0"
       style="fill:#ffffff" /></g></svg>