<?xml version="1.0" encoding="utf-8"?>
<!-- Generator: Adobe Illustrator 19.1.0, SVG Export Plug-In . SVG Version: 6.00 Build 0)  -->
<svg version="1.1" id="Layer_1" xmlns="http://www.w3.org/2000/svg" xmlns:xlink="http://www.w3.org/1999/xlink" x="0px" y="0px"
	 viewBox="0 0 9601 5401" style="enable-background:new 0 0 9601 5401;" xml:space="preserve">
<style type="text/css">
	.st0{fill:#F9C61E;}
	.st1{fill:#F37935;}
	.st2{fill:#121A30;}
	.st3{fill:#131D35;}
	.st4{fill:#131F38;}
	.st5{fill:#141B31;}
	.st6{fill:#14203B;}
	.st7{fill:#141B33;}
	.st8{fill:#131C36;}
	.st9{fill:#121E37;}
	.st10{fill:#121F3A;}
	.st11{fill:#131D34;}
	.st12{fill:#131B2F;}
	.st13{fill:#13192D;}
	.st14{fill:#141419;}
	.st15{fill:#121F39;}
	.st16{fill:#131936;}
	.st17{fill:#141F37;}
	.st18{fill:#141D38;}
	.st19{fill:#121E35;}
	.st20{fill:#131C33;}
	.st21{fill:#141C32;}
	.st22{fill:#141E38;}
	.st23{fill:#151C38;}
	.st24{fill:#121D36;}
	.st25{fill:#101B33;}
	.st26{fill:#121F33;}
	.st27{fill:#14203A;}
	.st28{fill:#131A31;}
	.st29{fill:#141C38;}
	.st30{fill:#111935;}
	.st31{fill:#121F35;}
</style>
<g id="Layer_2">
	<path class="st0" d="M8100.5,0.5c493.3,0,986.7,0.1,1480-0.5c17.1,0,20.5,3.4,20.5,20.5c-0.6,478.3-0.5,956.7-0.5,1435
		c-11.8,17.4-26.7,29.9-44.6,42.5c-39.8,28.1-85.2,47.7-121.7,80.4c-4.5,4-9.9,5.8-14.6,9c-13,9-31.1,12.4-32.6,33.5
		c-0.4,6-8.6,9.5-14.3,12.9c-2,1.5-4,2.9-6.1,4.2c-33.7,8.9-60.4,28-87.1,50.5c-12.6,10.6-25.9,29.8-48.6,27.6
		c-4.2-0.4-10.6,2.8-12.9,6.7c-16.7,28.5-50.4,31.7-73.5,50.4c-13.7,11.1-31.9,17.7-37.2,37.9c-1.6,6.1-9,9.4-15.5,11.5
		c-18.2,6.2-31.6,19.4-45.5,31.7c-10,9.1-23.7,13-32.8,23.2c-1.9,1.6-3.9,3.1-5.9,4.6c-6.5,3.6-13,7.9-20.8,7.2
		c-11.3-1-20.1,3.5-24.3,13.3c-6.4,15-21.1,20.7-31.6,30.9c-1.7,1.8-3.6,3.3-5.5,4.8c-20.6,4.5-33.8,20.7-50,32.1
		c-1.7,1.6-3.4,3.1-5.1,4.7c-6.1,5.8-13.8,8.8-21.3,12.4c-16.3,6.7-30.5,16.5-42,29.9c-35.7,1.5-48.6,37.7-77,50.5
		c-34.6,17.8-65.2,41.8-97.5,63.3c-21.2,14.1-44.1,26.2-62.5,44.5c-23.8,12.1-40.1,36.3-69.6,40.4c-10.4,1.4-23,12.6-28.4,20.6
		c-19,27.9-50,37.2-75.7,54.3c-9.1,6-14.8,14.9-23.8,20.4c-24.5,9.2-43.9,26.8-65.2,41.1c-117.3,78.7-234.5,157.6-351.1,237.5
		c-10.3,7.1-20.5,14.2-29,23.5c-9.5,11.2-23.4,15.9-35.3,23.6c-1.9,1.3-3.8,2.5-5.7,3.8c-25.7,17.6-50.9,35.8-77.6,51.7
		c-42.5,25.4-83.4,53.3-123.1,82.8c-37.2,26.4-76.7,49.7-112.1,78.6c-1.9,1.3-3.8,2.6-5.7,4c-12.6,7.7-25.1,15.5-36.1,25.4
		c-1.6,1.7-3.3,3.2-5.2,4.7c-13,4-22.2,14.6-34.4,20c-29.9,16.8-59.7,33.8-84,58.5c-12.8,7.5-25.1,15.7-37.2,24.2
		c-1.8,1.3-3.6,2.6-5.5,3.8c-11,5.1-20.7,12.4-31.1,18.4c-95.7,63.6-190,129.2-285.3,193.4c-91.2,61.5-182.3,122.9-273.5,184.4
		c-66.3,44.7-131.8,90.4-197.6,135.8c-50,34.5-102.1,65.9-151.7,101.2c-97.7,69.4-198.9,133.8-297.6,201.8
		c-44.6,30.7-89.7,60.7-134.1,91.6c-64.8,45.3-130.9,88.7-196.3,133.1c-107.5,73-215.1,145.7-322,219.4
		c-30.1,20.7-63.8,36.3-90.5,61.8c-5.1,5-10.4,9.7-17,12.7c-47.6,22.8-87.9,56.8-130.3,87.1c-38.5,27.5-78.9,52-117.1,79.9
		c-53.4,39-109.7,74.5-165.1,110.8c-68.9,45.2-134.4,95.7-206.5,136c-7,3.9-14.8,7.6-23.6,5c-12.3-7-4.5-16.6-3-25.3
		c22.1-56.5,63.5-100.8,97.4-149.5c83.1-119.3,169.5-236.1,251.8-356c25.3-36.9,52.7-72.5,78.5-109.2c3.4-5,7.5-9.4,11.2-14.2
		c78.8-109.6,155.8-220.5,234.5-330.1c7.2-10.1,13.8-20.7,19.5-31.8c3-5.1,5.6-10.6,10.1-14.7c27.8-26.9,45.9-61.1,68.6-91.9
		c89.8-122,176.6-246.1,264.3-369.6c110.3-155.3,222-309.7,330.8-466c86.6-124.3,177-245.8,262-371.2
		c45.7-67.4,95.7-132,142.4-198.8c5.3-7.5,10.5-15,14.7-23.2c11-18.3,22-36.7,37-52.2c70-94.1,137.1-190.3,205.4-285.6
		c58.1-81.1,114.1-163.6,173.7-243.6c10.4-14,20-28.6,28.8-43.8c3.4-6.1,7.7-11.5,11.9-17c1.3-1.9,2.7-3.7,4-5.6
		c3.9-5.7,8.5-10.9,12.3-16.7c2.5-3.8,4.9-7.7,7.2-11.6c7.7-12.2,16.6-23.5,25-35.2c3.7-6,8.5-11.1,12.5-16.9c1.3-1.9,2.7-3.8,4-5.7
		c11.8-15.4,22-31.8,32.7-48c33.4-37.1,61.6-77.9,87.2-120.6c8.5-11.9,15-25.2,24.4-36.6c9.1-14.6,21.5-26.8,30.9-41.2
		c1.4-1.8,2.9-3.6,4.3-5.4c7.2-11.5,15.9-22,22.3-34.1c1.4-2,2.9-3.8,4.5-5.5c10.3-11.4,17.8-24.9,27-37.2c32.3-38,62.1-77.8,87-121
		c13.6-18.7,24-40.4,45.8-51.7c11.7-6,0.3-17.5,6.4-24.6c1.3-2.1,2.9-4,4.6-5.8c19.5-24,35.1-50.9,54.3-75.2
		c50.3-61,93.9-126.9,139.4-191.4c31.6-44.7,64.5-88.6,92.4-135.9c20.7-22.7,35.2-49.7,51.7-75.4c1.7-1.7,3.5-3.5,5.2-5.2
		c15.6-12.1,26.5-29.4,44.1-39.3c12.9-7.2,9.3-19.5,8.7-30.8c1-2.5,2.6-4.6,4.5-6.5c15.8-7.7,20.4-24,27.6-37.9
		c14.6-28.3,42.2-47.6,52.9-78.4c52.2-59.5,92.6-127.6,139.3-191C8049.5,53.4,8066.7,19.5,8100.5,0.5z"/>
	<path class="st1" d="M0.5,1560.5c0-513.3,0.1-1026.7-0.5-1540C0,3.4,3.4,0,20.5,0c428.3,0.6,856.7,0.5,1285,0.5
		c20.2,9.7,32.7,26.7,45.2,44.5c66.5,94.6,134.1,188.5,200.8,282.9c6.7,9.5,14.7,18.1,22.7,26.6c13.3,18.8,28.3,36.5,38.7,57.3
		c14.2,21.4,27.6,43.4,45.1,62.4c13.4,20.4,33.4,36.8,35.9,63.6c0.9,9.2,13.7,4.3,17.4,11.5c2.2,1.6,3.9,3.7,5.4,6
		c-0.3,14.4,4.4,24.3,18,32.9c15.6,9.9,24.7,27.7,36.6,42.2c6.1,16,15.8,29.6,26.8,42.4c4.5,5.2,9.6,9.9,13.3,15.7
		c1.3,1.9,2.6,3.7,4,5.6c12.4,17.9,25.5,35.4,37.5,53.6c39.6,57.9,77.5,116.9,121.7,171.5c8.2,8.4,15.7,17.3,21.3,27.6
		c1.3,1.9,2.6,3.8,3.8,5.7c3.9,5.7,8.5,10.8,12.3,16.6c1.3,1.9,2.6,3.7,3.9,5.6c9.6,12.6,18.4,25.7,26.3,39.5
		c52.5,80.2,109.5,157.1,165.5,234.7c45.3,62.7,88.4,127.1,134.1,189.6c75.7,103.5,148.5,209.1,223.3,313.2
		c59.8,83.2,118.8,166.9,178.2,250.3c68.1,95.6,134.3,192.6,203.8,287.2c8.9,12.1,19.9,22.5,28.5,34.8c6.5,8.1,14.1,15.5,17.8,25.6
		c29.2,53.5,68.4,100.2,103.2,149.8c51.1,72.8,102.8,145.2,154.5,217.5c74.5,104.1,147.3,209.5,222.3,313.2
		c6.8,9.5,14.9,17.8,23,26.2c7.6,7.3,12.2,16.6,16.9,25.9c53.2,84.6,114.7,163.4,172,245.1c82.6,117.8,166,235,250.3,351.7
		c69.2,95.7,136.1,193,205.4,288.7c5.9,8.1,11.9,16,19,23.1c5.1,5,8.1,11.5,11.9,17.4c50.8,75.1,106.1,147.1,157,222.1
		c59.4,87.5,123.3,171.7,183.5,258.6c46,66.4,93.5,131.7,140.3,197.5c10.2,14.3,17.1,30.6,27.8,44.5c8,10.4,14.9,21.2,11.5,35.3
		c-1.1,2.5-2.8,4.4-5.3,5.6c-16.1,3.2-26.1-9.3-38.8-14.8c-35.2-17.9-66.8-41.8-99-64.3c-20.3-14.2-40.8-27.7-62.7-39.1
		c-5.5-2.2-11.2-4.3-15.1-9.2c-5.5-7.3-11.1-15-19-19.5c-42.7-24.1-79.3-57.3-121.3-82.1c-25.8-15.2-46.7-37.3-74-50.1
		c-8.2-4-16.4-7.9-23.5-13.9c-125.6-91.8-256.8-175.3-384.3-264.2c-68.9-48-138.5-95-207.4-143.1c-9.6-6.7-19-13.5-29.4-18.8
		c-8.3-4-15.6-9.7-23.4-14.6c-73.8-55.8-151.8-105.5-228-157.8c-134.5-92.5-268.6-185.5-403.9-276.9
		c-173.2-117-344.5-236.8-518.4-352.9c-18.7-12.5-35.6-27.5-55.9-37.6c-10.3-5.1-19.4-12-29.1-18c-1.9-1.2-3.8-2.4-5.8-3.6
		c-25.5-16.8-50.1-34.8-74.8-52.6c-26.7-20.8-53.8-41.2-83.7-57.3c-13.8-5.8-24.4-16.6-36.8-24.7c-19-17.9-42.2-29.9-63.5-44.7
		c-19.5-9.8-36.4-23.9-55.5-34.5c-34-33.7-75.8-57.1-114.7-83.9c-169.9-117.1-340.9-232.6-511.9-348.3
		c-46.1-31.2-88.8-67.5-138.7-92.9c-16.2-11-35-18.9-42.4-39.6c-6-17-23.5-1.5-32.5-10.7c-13.4-9-27.8-16.6-39.6-27.8
		c-49.8-40.5-104.8-73.6-157.1-110.6c-58.4-41.3-118-80.9-177.3-121c-6.2-4.2-12.8-7.9-19.6-11c-30.1-16.3-56-39.1-85.3-56.6
		c-2-1.3-3.9-2.5-5.9-3.8c-20.2-16-44.7-27.4-56.5-52.6c-2.9-6.3-10.3-7.7-15.9-11c-13.2-1.9-24.8-4.9-32.3-18.5
		c-4.3-7.8-12.9-13.8-24.2-13.3c-9.3,0.4-16.7-6-24.3-10.6c-2-1.3-3.9-2.5-5.9-3.8c-11.8-8.9-23.7-17.6-36.8-24.7
		c-1.9-1.3-3.8-2.6-5.7-3.8c-11.4-7.1-21.1-16.6-32.9-23.2c-1.9-1.2-3.8-2.5-5.8-3.7c-13.4-7.8-25.4-16.5-33-31.2
		c-8.2-15.9-27.6-9.9-40.4-17.5c-2.1-1.4-4-3.1-5.8-4.8c-8.1-6.9-14.8-13.9-20.3-24c-10.5-19.3-30.4-26.1-52.3-25.7
		c-2.3-1.2-4.4-2.9-6.2-4.8c-9.1-11.8-23.4-15.9-35.5-23.3c-2.1-1.3-4.1-2.7-6.2-4c-10.6-7.7-18.9-16.2-25.4-28.9
		c-6.9-13.4-19.6-24.7-39.7-24.3c-19.6,0.4-36.3-9.6-44.5-29.7c-1.1-2.2-1.1-6.4-2.6-6.7c-36.6-7.7-51.5-44.1-81.5-60.9
		c-15.1-8.5-31.2-14.3-45.6-26.1C17.1,1584.4,9.2,1572.7,0.5,1560.5z"/>
	<path class="st1" d="M9040.3,1840.1c13.4-9.9,26.7-19.8,40.1-29.7c46.5-26.6,89-59.3,133.4-89c49.3-32.9,98.9-65.6,146.7-100.9l0,0
		c46.7-30.1,92.3-61.6,138.3-92.7c29.4-19.9,58.8-39.7,87.8-60.1c3.9-2.7,8.5-5.4,13.7-2.3c0,765,0,1530,0,2295
		c-4.4,5.6-10.6,8.1-17.3,8.9c-43.7,5.3-85.3,19.9-129.2,25.9c-29.9,4.1-63.2,8.4-89.9,27.9c-10.2,7.4-21.1-1.7-31.5,1.5
		c-19.3,5.1-41.7,0.9-58.4,10.7c-32.6,19-72.3,7.1-104.2,27.7c-8.7,5.6-22.1-1-33.9,0.5c-17.7,2.3-31.1,13.5-48,17.9
		c-29.2,7.6-57.1,16.6-88.2,17.9c-14.3,0.6-32.4,12.2-48.6,13.6c-35.6,3.1-69,13.8-103.2,22.1c-2.7,0.7-5.4,1.5-8.2,2.2
		c-36.5-0.1-70.6,18.8-107.8,13c-4.3-0.7-8.4,0-11.6,2.9c-19.2,17.2-43.3,18.3-67.1,20.5c-57.8,12.2-115.6,24.1-173.2,36.8
		c-67.3,14.9-135.4,26.9-202.9,41.3c-91.1,19.5-182.3,38.4-273.6,56.9c-154.9,31.5-309.7,63.3-464.2,96.6
		c-62.6,13.5-126.3,21.9-187.8,40.3c-30.8-8.9-55.3,12.4-83.3,17.4c-32.5,5.8-64.2,19.3-97,19.7c-44.7,0.6-83.3,26.4-127.5,25.7
		c-61.5,10.5-121.9,26.5-183.3,37.9c-115.3,21.4-229.6,48.3-344.5,71.7c-125.5,25.5-250.9,51.4-376.2,77.8
		c-105,22.1-210.8,40.4-315,65.5c-114.8,27.6-231.3,47-346.3,74c-75.1,17.6-151.5,31-227.5,45.2c-38.2,7.1-75.6,19-114,26.5
		c-62,12-124.3,22.7-186,35.9c-47.9,10.3-95.2,22.9-143.5,31.5c-23.6,4.2-47.4,5.4-71,8.4c-8.8,1.1-18.9,1.8-22.6-10.1
		c-0.3-2.9,0-5.7,1.2-8.4c4.4-6.4,10.9-1,16.1-2.9c102.2-66.7,201.6-137.6,303.8-204.4c103.6-67.7,204.4-139.6,306.5-209.6
		c6.2-4.2,12.7-7.9,19-11.9c6.7-3.2,10.7-9.2,15.7-14.2c73.6-44.1,142.9-94.6,214-142.5c123.5-83.3,247.1-166.5,370.4-250.1
		c114.4-77.5,228.4-155.6,342.6-233.2c266.4-181.2,532.9-362.3,799.3-543.5c74.3-50.5,148.7-101.1,223-151.7
		c11.1-9.1,23.4-16.4,35.4-24.3h-0.1c15-5.7,24.7-19.7,39.7-25.4c26.6-18.4,53.3-36.7,79.9-55.1c13.8-7.5,26-17.7,39.9-25l0,0
		c12.4-11.2,27.8-18.5,40.2-29.7l-0.1-0.1c32.8-21.3,64.5-44.3,97.2-65.7c7.5-4.9,15.3-9.4,22.6-14.5
		c40.1-26.6,80.1-53.2,120.2-79.9c26-19.4,53.6-36.3,79.9-55l0,0c11.9-10.5,27.6-15.2,39.6-25.5c62.1-42.9,123.9-86.2,186.3-128.6
		c84.4-57.4,169.2-114,253.9-171c68.3-46.7,137.7-91.8,205.1-139.9c51.7-35.1,103.3-70.1,155-105.2c27.3-17.3,52.5-37.8,80.2-54.7
		c13.2-8.5,26.4-17,39.5-25.5c6.2-5.7,14.7-8.2,20.4-14.6h0c19.1-14.7,40.4-26,59.9-40.1l0.1,0.1c25.9-19.5,54.4-35.1,80-55l0,0
		C9013.6,1856.7,9027,1848.4,9040.3,1840.1z"/>
	<path class="st0" d="M2390.5,3200.4c142.2,97.2,284.5,194.4,426.7,291.6c191,130.5,382.2,260.8,573.1,391.4
		c68.7,47,136.7,94.8,205.1,142.3c9.8,2.5,17.3,8.9,25,14.9c206.8,141.6,413.6,283.1,620.3,424.7c7.9,5.6,17.5,8.5,24.6,15.4
		c71.8,49.9,143.5,99.7,215.3,149.6c3.3,5.8,11,5,14.9,9.9c51.6,35.4,103.2,70.9,154.7,106.3c4.1,6.9,10.7,13.9,0.2,20.9
		c-2.9,1.5-5.4,3.3-7.9,5.3c-12.9,8.1-26.9,4.9-40.6,3.8c-84.3-19.3-168.6-38.3-253.6-54.2c-75.9-14.2-151.6-29.3-226.6-48
		c-44.3-11.1-90.3-16-134.3-27.4c-44.2-11.5-89.2-17.4-133.4-28.1c-55.7-13.5-112.5-22.3-168.7-34c-40.7-8.5-81.1-18.1-121.7-27.3
		c-78.7-17.9-158.7-29-237.1-48.3c-78.4-19.2-158-32.4-236.9-49c-72.4-15.2-144-34.3-217.3-45.2c-64.7-11.3-128.8-25.9-193.2-38.9
		c-60.5-19.2-123.5-27-185.3-39.8c-73.3-15.3-146.4-31.6-219.8-46.3c-155.8-31.2-311.2-65-466.8-97.2
		c-150.8-31.2-301.5-62.6-452.1-95c-107.4-23.1-215.2-43.9-322.7-66.5c-152.3-32-304.6-64.1-457.2-94.2c-6.5-1.3-13.1-2.5-19.7-3.4
		c-14.6-1.7-29.3-1.1-40.3-15.1c-6.1-7.8-18.3-6.1-28.3-6.4c-29.2-0.8-59.2,2.8-84.5-16.9c-4.5-3.5-9-3.2-13.9-1
		c-17,7.7-34.4,1.5-46.6-7.2c-13.1-9.4-26.3-13.5-40.8-15.7c-28-4.2-55.2-10.8-81.9-19.9c-2.3-0.8-4.7-2.6-7-2.3
		c-61.4,8.3-113.6-32.5-173.7-32.4c-13.4,0-27.9-4.9-38.2-16.1c0-741.7,0-1483.3,0-2225c6.3-8,12.6-1.8,17.1,1.4
		c48,33.7,97.1,65.8,144.6,100.1c34.5,30.6,78.3,47.9,112.8,78.6c1.8,1.6,3.9,3,5.7,4.7l0,0c14.6,6.3,26.2,17.3,39.8,25.3l0,0
		c26.7,18.3,53.7,36.1,80,54.9l0,0c27,17.9,53.5,36.4,80.1,54.8l0,0c14.1,7.1,25.5,18.3,39.6,25.4l0.1-0.1
		c12.1,11.7,28.8,17.1,40.3,29.7l0,0c25.3,14,47.6,32.5,72.4,47.2c28,22.6,58.6,41.5,87.6,62.8l0,0c31.6,17.6,59,41.5,89.8,60.2
		c116.7,79.9,233.4,159.9,350.2,239.8c13.4,10.6,28.4,18.8,42.3,28.7c26.7,16,50.8,35.8,77.6,51.5
		c106.9,73.5,213.8,147.2,320.9,220.5c146.2,100.1,292.7,199.8,439,299.7c18.8,15.2,40.3,26.3,60,40.1
		c18.4,15.7,38.5,28.8,59.7,40.4c13.1,10.4,26.6,20,40.5,29.4c26.8,18.2,53.5,36.5,80.3,54.7c26.8,18.1,53,37.1,79.8,55.3l0,0
		C2370.6,3187,2381.2,3192.7,2390.5,3200.4z"/>
	<path class="st0" d="M2960.4,2330.6c-121.2-170.1-242.4-340.2-363.5-510.3c-115.8-162.7-231.3-325.6-347.1-488.3
		c-72.9-102.3-146.2-204.4-219.3-306.5c-10.5-14.6-19.5-30.3-30.2-44.8l0,0c-5.7-6.2-9.7-13.6-15-20l0,0
		c-7.9-11.9-16.4-23.5-24.5-35.3c-41.9-53.6-75.9-113.1-120.1-165c-12-20.9-27.7-39.3-40.4-59.7l0,0c-6.6-5.5-10.4-13-15-20
		c-8.5-13.2-17-26.5-25.4-39.7c-24-23.7-38.4-54.5-59.5-80.4l0,0c-19.2-27.3-37.8-55-59.4-80.5c-10.6-21.9-26.8-39.9-40.5-59.6
		c-12.7-20.4-28.4-38.8-40.4-59.7c-59.6-83-119.9-165.7-178.7-249.3c-25.8-36.6-55-71-76.1-110.8c641.7,0,1283.3,0,1925,0
		c4.8,7.3,14.2,6.9,20.3,12c1.7,2,3.3,4,4.6,6.3c0.8,1.4,2.2,2.9,2.3,4.4c1.9,32.3,19.2,59.9,27.5,90.2
		c51.9,177.5,107.5,353.8,162,530.5c30.9,100.3,60.8,200.9,91.6,301.2c41.1,133.7,83,267.2,123.5,401.1
		c65.4,216,132.4,431.5,198.5,647.2c49.3,160.8,99.3,321.5,148.5,482.4c48.7,159.2,98.2,318.3,146.4,477.7
		c39.7,131.5,79.7,263,120.9,394.1c41.9,133.4,81.9,267.5,122.9,401.2c29.8,97.1,61.1,193.8,90.8,290.9
		c30.8,101.1,61.3,202.4,92.1,303.6c31.8,104.3,64.2,208.5,96.2,312.8c6.7,22,11.9,44.2,13.7,67.1c-3.8,10.4-7.7,19.7-21.4,12.2
		c-143.9-202.6-287.7-405.1-431.6-607.7c-26.5-37.2-53-74.4-79.5-111.6c-5.8-4.3-8-11.7-14-15.9c-62.9-89-125.6-178.1-188.7-266.9
		c-152.2-214.3-304.7-428.5-457-642.7c-6.3-8.7-9.2-19.8-19.3-25.6c-68.6-97.3-137-194.7-206-291.8
		c-97.8-137.8-196.1-275.4-294.1-413.1C2975.1,2349.6,2968.2,2339.8,2960.4,2330.6z"/>
	<path class="st0" d="M4720.7,4769.5c28,10.9,53.5-5,79.8-9c44.8-6.8,88.7-19.2,133.1-28.6c64.8-13.6,129.7-26.7,194.5-39.9
		c78.6-16,157.4-31.3,235.9-47.8c61.6-12.9,122.7-27.6,184.3-40.6c55.9-11.8,112.1-22.1,168.1-33.5c43.8-8.9,87.5-18.6,131.4-27.6
		c60.9-12.6,121.9-24.7,182.8-37.3c64.2-13.3,128.2-27.1,192.3-40.6c75.5-15.9,151.1-31.7,226.7-47.5c96-20.1,192-40.3,288.1-60.1
		c100.9-20.8,201.9-41.1,302.9-61.7c50.6-13,102.4-20.8,153.1-32.9c41.6-9.9,84.6-13.5,125.2-28c10.4-3.7,21.7,1.8,31.7-4
		c135.2-28.2,270.4-56.5,405.5-84.7c96.9-20.2,193.9-40.6,290.8-60.7c120.6-25,241.2-49.7,361.7-74.6
		c80.6-16.7,161.2-33.5,241.8-50.3c63.1-14.7,126.8-26.1,190.1-39.7l0,0c55.3-10.9,110.3-23,165.3-34.9
		c61.8-13.5,124.2-24.4,185.7-39.5c52.9-13,107.5-19.5,160.6-33c63.8-13.1,127.5-26.9,191.4-39.7c18.4-3.7,37.4-14.3,56.9-3
		c0,536.7-0.1,1073.3,0.5,1610c0,17.1-3.4,20.5-20.5,20.5c-646.7-0.6-1293.3-0.5-1940-0.5c-146.5-12.9-288.4-50.7-431.8-79.8
		c-114.1-23.2-227.8-48.9-342-71.8c-132.2-26.5-263.1-58.9-395.9-82.2c-72-12.6-142.8-32.3-214.6-46.4c-81.6-16-163-32.9-244.7-48.4
		c-35.7-6.8-71-17-106.8-24.1c-61.9-12.4-123.6-26.1-185.4-38.9c-63.5-13.1-126.5-28.6-190.4-39.6c-99.2-17-196.3-44-295.2-62.3
		c-58.7-10.8-117.1-23.8-175.2-37.5c-59-13.9-119.3-22.4-178.4-36.4c-45.6-10.8-93.1-14.7-135.8-35.7c-9.4-4.6-15.5,0.7-23,2.3
		c-11.2,4.2-16.7-0.4-17.9-11.6c0.1-6-0.7-12.1,2.1-17.8C4710.1,4763.6,4715.3,4764.5,4720.7,4769.5z"/>
	<path class="st1" d="M4720.7,4769.5c-3.6,1.5-7.2,3.1-10.8,4.6c-10.3-1.3-13.2-4.3-11.1-11.9c25-92.7,52.6-184.6,81.4-276.2
		c44.8-142.9,89-286.1,133.4-429.1c37.5-120.8,75.8-241.3,112-362.5c36.4-122,77.3-242.6,113.5-364.7
		c32.2-108.5,66.1-216.4,99.9-324.4c44.7-142.9,87.7-286.4,133.9-428.9c12.1-37.2,21.2-75.3,33-112.6c2-11.4,4.4-22.7,9.7-33.2
		c32.7-89.2,58-180.8,86.8-271.3c28.1-88,53.6-176.9,81-265.2c1.5-4.8,2.4-9.7,3.4-14.6c1.2-10.2,4.4-19.9,8.5-29.3
		c45-127.9,81.4-258.5,122.7-387.5c30.2-94.2,58.3-189.1,88-283.5c3.7-11.9,7.9-23.7,10.1-36c2.2-9.9,1.4-20.5,6.7-29.7
		c20.7-42.2,29.1-88.5,43.1-132.8c94.5-298.4,186.7-597.5,278.6-896.6c5.4-17.5,11.4-34.8,17.2-52.2c4.4-13.3,10.7-24.8,23.6-31.5
		c638.3,0,1276.7,0,1915,0c-21.7,42.5-53.9,77.7-80.3,116.9c-37.2,55.1-76.3,108.8-114.7,163.1c-27.9,40.3-57.3,79.6-85.1,119.9l0,0
		c-21.6,25.4-35.5,56.6-59.6,80.3l-0.2-0.1c-16.7,27.7-38,52.3-55.3,79.7c-71.2,100.2-142.5,200.4-213.6,300.7
		c-4.3,6.1-7.8,12.7-11.6,19.1c-23,24.5-38.9,54.1-59.5,80.4l0,0c-21.2,25.8-35.3,56.9-59.3,80.6c-23,42.4-56.3,77.9-81,119.1
		c-11,12.5-18.4,27.8-29.8,40l-0.1,0.1c-7.5,15.2-18.5,27.8-29.4,40.5v0c-6.2,16-21.6,25.5-28.7,40.8
		c-12.5,11.6-16.3,29.8-30.9,39.7c-22.6,42.6-55.6,78.2-80.8,119.1c-14.9,17.2-24.8,38-39.7,55.3l-0.1-0.1
		c-4.5,7.3-11.6,12.9-14.1,21.4c-10.8,9.5-15.3,23.9-26.3,33.2c-1.8,3.3-3.6,6.6-5.4,9.9c-3.1,8-10.2,13.2-14.3,20.4h0
		c-4.4,7.1-10.5,13-15.1,19.9c-126,177-252.1,354-378.1,531c-9.2,12.9-18,26-26.9,39c-15.3,16.8-26.3,36.8-39.9,55
		c-91.5,128.9-182.8,258-274.5,386.8c-134.6,189.2-269.5,378-404.1,567.2c-134.1,188.5-267.8,377.2-401.7,565.8
		c-4.2,5.7-8.5,11.4-14.1,15.9c-57.8,89.2-122.7,173.4-183.1,260.8c-22.6,32.8-45.3,65.5-67.9,98.3c-2.7,7-8.7,11.1-14.1,15.7
		c-95.4,134.3-191.3,268.3-286,403.1c-46.9,66.6-97.5,130.7-139.7,200.6c-5.3,8.9-12.1,17-15,27.2
		C4720.4,4767.7,4720.5,4768.6,4720.7,4769.5z"/>
	<path class="st1" d="M560.6,3920.4c187.9,37.2,375.2,76.8,562.5,116.7c189.7,40.4,380,78.3,569.9,117.9
		c170.3,35.5,340.4,72.2,510.8,107.6c112.4,23.4,225.1,45.3,337.6,68.2c46.4,9.5,92.7,19.9,139,29.8
		c66.9,12.1,133.3,26.5,199.8,40.4c79.6,16.6,159.3,33,238.8,49.8c76.3,16.1,152.4,32.9,228.7,48.8c75.5,15.7,151.3,30.4,226.8,46.2
		c64,13.4,127.8,28.1,191.8,41.5c57.5,11.9,115.2,22.5,172.7,34.1c46.2,9.3,92.2,19.4,138.4,29.1c62.2,13.2,124.4,26.5,186.6,39.6
		c60.7,12.8,121.4,25.5,182.2,37.9c45.4,9.3,90.8,18,136.2,27.2c6.4,1.3,12.7,3.6,19,5.4c13.5,4,27.1,3.4,40.7,0.2l2.3,0.7
		c14-1.3,26.4,14.4,41.3,3.9l-0.4,0.2c2.9-2.9,5.7-5.8,10.4-5.1c2.6,1.4,4.1,3.6,4.6,6.5c4.9,11.9,7.9,23.6-3.7,33.8
		c-3.9,1.8-7.8,3.2-12.1,1.4c-6.4-4-10.4-11.7-21-5.7c-43.3,24.6-93.1,25.6-140.1,36.7c-80,19-161.7,29.2-241.2,51
		c-39.7,10.9-81.6,14.8-122.2,23.6c-48.7,10.5-97.7,19.6-146.2,31c-56.4,13.3-113.8,23.4-170.8,34.2c-66.2,12.5-132.2,25.1-197.8,41
		c-55.7,13.5-112.6,22.1-168.7,33.8c-65.9,13.7-131.5,29.1-197.5,42c-71.8,14-143.7,27.4-215.3,42.9c-82.1,17.8-165,32-246.8,50.4
		c-134.7,30.3-270.5,55.1-405.5,84.2c-150.4,32.5-301.6,61.8-452.1,93.9c-82.1,17.5-165,31.8-248.8,39.3
		c-562.9,0-1125.8-0.1-1688.7,0.5c-17.9,0-21.8-3.5-21.8-21.7c0.6-522.9,0.5-1045.9,0.5-1568.8c4.2-5.4,10.3-5.5,15.8-4.1
		c42.3,10.4,85.2,17.3,127.8,26.3c70.8,15.1,141.7,29.6,212.6,44.1C424.7,3890.8,492.9,3904.2,560.6,3920.4z"/>
	<path class="st0" d="M4695.8,4795.5c2.3-10,2.4-20-0.3-30c-4.2-34.3-7.3-68.8-7.3-103.3c-0.2-1538.6-0.2-3077.1-0.1-4615.7
		c0-16.4-3-33.8,12.4-46.1c495,0,990,0,1485,0c-45.8,147.1-91.9,294.1-137.4,441.3c-67.7,218.8-135,437.6-202.5,656.5
		c-2.2,7.2-3.7,14.5-5.5,21.8c-8.2,6.6-5,17.4-9.5,25.3c-71.1,228.7-142.2,457.4-213.3,686c-2.5,7.9-4.5,16-6.8,24
		c-4,8.1-6.1,16.9-9.6,25.2c-22.6,74.7-45,149.5-67.9,224.1c-33.9,110.3-68.3,220.5-102.5,330.8c-5.6,9.2-6.2,20.1-9.9,29.9
		c-53.2,171.9-106.5,343.7-159.7,515.6c-66.5,214.8-132.8,429.7-199.5,644.5c-55.1,177.4-110.9,354.5-165.6,532
		c-61.6,199.8-122.4,399.8-183.6,599.7c-1.7,5.6-4,11-2.3,17c-0.1,4.1-0.2,8.2-0.3,12.3c-2.5,5.4-0.7,9.2,4.1,12.3
		c13.3,8.4,11.4,19.8,5.9,31.7c-8.1,4-5.3,11.5-5,17.6c7.9,174.6,1.3,349.3,3.5,524c0.1,11.7-3.5,21.1-12.5,28.4c-1.7,0-3.3,0-5,0
		c-13.6-8-17.8-20.2-17.2-35.5c1.1-29.8-2.4-59.8,8.6-88.7c2.7-7,1-14.9,1.1-22.3c0.1-94,0.2-188.1-0.1-282.1
		c-0.1-24.7-0.5-49.1-6.1-74c-7.2-32.2,6.4-64.9,7.4-97.7C4694.7,4798.7,4695.2,4797.1,4695.8,4795.5z"/>
	<path class="st1" d="M4700.5,0.5c0,1571.1,0,3142.2-0.1,4713.3c0,17.3,3,35.1-4.9,51.7l0.2,0.1c-9.5-13.7-10.5-30.2-14.5-45.7
		c-9.1-53.6-29.3-104.1-44.9-155.8c-59.8-198.5-120.6-396.7-181.6-594.9c-57-185.4-114.9-370.6-172-556
		c-65.3-212.5-129.9-425.2-195.2-637.8c-78.3-254.7-157.1-509.3-235.4-764c-57.9-188.7-115-377.6-172.9-566.3
		c-51-166.4-102.8-332.5-154-498.9c-75-243.5-149.7-487.2-224.6-730.8c-9.8-31.8-19.9-63.5-29.8-95.2
		c-10.4-33.2-19.8-66.7-30.3-99.8l0,0c-4.7-6.6-6.8-13.3,0-20C3727.2,0.5,4213.8,0.5,4700.5,0.5z"/>
	<path class="st0" d="M1710.5,5400.5c72-21.3,146.1-32.9,219.4-48.3c113.2-23.8,226.6-46.4,339.9-69.8
		c96.9-20,193.7-40.6,290.7-60.6c97.6-20.2,195.3-40,293-59.9c84.6-17.3,169.4-34.1,253.9-51.7c96.7-20.1,193.1-41.5,289.9-61.3
		c76.4-15.7,153.3-29.2,229.7-44.8c61-12.4,121.5-26.9,182.4-39.7c43-9,86.3-16.2,129.4-25c44.6-9,88.9-19.2,133.4-28.4
		c46.1-9.5,92.4-18.1,138.5-27.5c40.3-8.2,80.5-17.2,120.8-25.7c44.5-9.3,89.3-17.5,133.6-27.8c46.7-10.8,94.5-16,140.5-30.2
		c19.5-6,41-4.1,60.5-12.3c7.1-3,14.7,1.1,19.3,8.2c2.5,3.2,3.4,6.6,0.9,10.2c-14.9,4.4-24.1,16.9-35.9,25.6
		c-56,41.4-113.7,80.5-171.6,119.1c-71.9,48-142.6,97.7-213.8,146.6c-4.7,3.8-9.6,7.3-14.9,10.3c-52,31.2-100.5,67.3-150.3,101.8
		c-34.7,24.1-69.5,48.3-105.3,70.5c-34.6,21.4-65.6,47.8-100.8,68.3c-30.8,18-58.3,41.7-93.2,52.4
		C3103.8,5400.5,2407.2,5400.5,1710.5,5400.5z"/>
	<path class="st1" d="M4720.7,4791.5c27.3-11.4,51.8,5.3,77.3,9.2c47.3,7.1,94,18.9,140.6,30c62,14.6,125,23.9,186.9,39.6
		c39.8,10.1,80.9,16,121.3,24.8c42.1,9.2,84.4,17.8,126.6,26.7c44.5,9.4,89.1,18.6,133.6,28.1c59.9,12.8,119.8,25.8,179.8,38.5
		c42,8.9,84.2,16.8,126.1,26.2c64.7,14.6,130.2,24.7,194.5,41.8c53.6,14.3,109,22,163.5,33.1c78.2,16,156.2,32.5,234.3,48.7
		c78.2,16.2,156.4,32.1,234.5,48.6c116.3,24.6,232.5,49.9,348.8,74.5c110,23.2,220.1,45.7,330.1,68.7
		c98.6,20.6,197.1,41.5,295.6,62.5c8.9,1.9,17.5,5.3,26.2,8c-676.7,0-1353.3,0-2030,0c-56.1-14.9-97.4-55.3-144.9-84.8
		c-12.7-7.9-24.5-17.2-38.3-23.3c-5.6-2.5-10.4-5.9-14.9-10.1c-50.1-39.9-105.2-72.8-158.1-108.6c-106.7-72.1-212-146.4-319-218.2
		c-61-40.9-122.7-80.9-181.8-124.7c-12.8-9.5-22.9-22.4-35.1-32.9C4718.3,4795.5,4719.1,4793.3,4720.7,4791.5z"/>
	<path class="st0" d="M5435.8,5279.9c58.2,40.2,116.4,80.4,174.7,120.6c-156.7,0-313.3,0-470,0c-34.9-15.2-49.2-49.4-69.6-77.3
		c-66.1-90.5-129.5-183-195-274c-45.1-62.6-90-125.4-133.4-189.2c-10.9-16-16.1-35-24.5-52.4c-2.4-4.9-2.6-9.6,2.3-13.3
		c53.8,35.9,107.8,71.5,161.3,107.8c75.6,51.3,150.8,103.3,226.3,154.8c104.3,71.2,208.7,142.1,313,213.2
		C5425,5274.7,5431.6,5275.5,5435.8,5279.9z"/>
	<path class="st1" d="M4256.3,5081.2c58.9-29.9,109.6-72.2,164.3-108.6c78.3-52,155.7-105.3,233.5-158c8.2-5.6,16.1-12,26.2-14
		c11.1,6.7,8.3,14.3,3.1,23.9c-27.9,52.2-64.8,98.2-98.7,146.2c-89.7,126.8-181.1,252.3-271.1,378.8c-13.7,19.3-27.6,38.2-48.1,50.9
		c-155,0-310,0-465,0c13-16.8,31.1-27.4,48.2-39.1c110.4-75.6,221.1-150.7,331.7-225.8c19.9-13.5,40.2-26.6,60.3-39.8
		C4246.9,5092,4251.2,5086.2,4256.3,5081.2z"/>
	<path class="st0" d="M4265.5,5400.5c3.1-14.4,13.1-24.8,21.3-36.3c106.6-149.8,213.2-299.7,319.9-449.5
		c20.3-28.5,41-56.6,61.4-84.9c6.3-8.7,13.6-17.2,12.2-29.2c1.7-1.7,3.4-3.3,5.1-5c3.5-0.1,6.9-0.1,10.4-0.2c0,0-0.3-0.4-0.3-0.4
		c6.7,10.5-2.3,20.8-0.1,31.2c-33.2,155.5-88.2,304.6-133.8,456.5c-8.1,27-16.6,54-23.7,81.3c-4.5,17.1-13.4,27.8-27.3,36.3
		C4428.8,5400.5,4347.2,5400.5,4265.5,5400.5z"/>
	<path class="st1" d="M4720.2,4794.2c6,27.1,25.2,46.6,40.3,68.1c122.4,173.2,245.4,346,368.2,519c4.3,6.1,7.8,12.7,11.7,19.1
		c-83.3,0-166.7,0-250,0c-24.2-22.4-27.6-54.5-36.5-83.3c-43-139.9-85.6-279.8-128.6-419.7c-7.2-23.4-13.4-47.2-10.9-72.2
		c-1.7-12.9-3.3-25.8-5-38.7c2.4,4.5,6.4,5.6,11.2,5.1C4720.6,4792.4,4720.4,4793.3,4720.2,4794.2z"/>
	<path class="st0" d="M4714.5,4825.2c15.3,25.3,19.7,54.5,28.3,82c48.2,154.4,95.3,309.2,142.5,463.9c2.9,9.4,3.5,19.5,5.2,29.3
		c-61.7,0-123.3,0-185,0c0-182.1-0.1-364.2,0.4-546.2C4705.9,4844.5,4698.8,4830.9,4714.5,4825.2z"/>
	<path class="st1" d="M4510.5,5400.5c33.2-107,66.2-214.1,99.7-321c26.5-84.7,53.6-169.2,80.5-253.8c14.3,3.3,6.9,14.8,6.9,21.9
		c0.5,132.1,0.4,264.3,0.4,396.4c0,44,0.1,88.1-0.1,132.1c0,8.1,2.4,16.6-2.4,24.4C4633.8,5400.5,4572.2,5400.5,4510.5,5400.5z"/>
	<path class="st1" d="M4695.5,5400.5c0-176,0-352,0-528c0-15.7,1.1-31.6-4.8-46.8c1.6-10.2,3.2-20.4,4.7-30.6
		c5.7,10.8,4.9,22.5,4.9,34.2c0.1,190.4,0.1,380.8,0.2,571.2C4698.8,5400.5,4697.2,5400.5,4695.5,5400.5z"/>
	<path class="st2" d="M7680.4,2760.3c-36.6,31.8-76.6,58.3-119.8,80.2C7597.1,2808.7,7636.2,2780.8,7680.4,2760.3z"/>
	<path class="st3" d="M7420.5,960.5c15-30.4,31.8-59.4,59.5-80.4C7462.2,908.4,7446.7,938.4,7420.5,960.5z"/>
	<path class="st3" d="M7361.2,1041.1c19-27.5,32.2-59.1,59.3-80.6C7406.3,991.4,7389.1,1020.2,7361.2,1041.1z"/>
	<path class="st4" d="M7705.3,560.3c11.7-31.2,33.3-55.6,55.3-79.7C7747.2,510.7,7730.6,538.5,7705.3,560.3z"/>
	<path class="st5" d="M7040.6,1495.6c9.5-21.1,20.4-41.2,39.7-55.3C7070.9,1461.5,7060.2,1481.7,7040.6,1495.6z"/>
	<path class="st6" d="M6520.5,2225.4c8.9-21.5,20.4-41.1,39.9-55C6550,2190.9,6538,2210.2,6520.5,2225.4z"/>
	<path class="st7" d="M7560.6,2840.6c-9.3,15.4-24.2,23.4-40.2,29.7C7529.7,2854.9,7544.7,2847.2,7560.6,2840.6z"/>
	<path class="st7" d="M7520.4,2870.4c-10.3,13.1-23.5,21.6-39.9,25C7490.8,2882.3,7503.7,2873.4,7520.4,2870.4z"/>
	<path class="st8" d="M7220.8,1240.8c7-15.5,15.4-30,29.4-40.5C7246.9,1218.5,7235.4,1230.8,7220.8,1240.8z"/>
	<path class="st9" d="M7190.3,1280.2c7.3-15.4,17.8-28.3,30.5-39.4c-4.4,18.9-17.6,31.8-30.1,45.2
		C7187.9,1284.2,7187.8,1282.3,7190.3,1280.2z"/>
	<path class="st10" d="M7190.3,1280.2c0.1,1.9,0.3,3.9,0.4,5.8c-6.5,14.5-14,28.3-29.6,35.2
		C7169.4,1306.5,7176.8,1291.1,7190.3,1280.2z"/>
	<path class="st8" d="M7250.3,1200.2c6.7-15.7,14.7-30.5,29.8-40C7273.2,1175.8,7265.4,1190.7,7250.3,1200.2z"/>
	<path class="st11" d="M7000.2,1550.2c5.4-13.7,13.4-25.5,25-34.8c1.8-3.3,3.5-3.3,5.2,0.1C7021.4,1528,7015.3,1543,7000.2,1550.2z"
		/>
	<path class="st12" d="M7400.5,2950.5c-10.5,12.8-23.7,21.3-39.7,25.4C7372.5,2965,7383.5,2953,7400.5,2950.5z"/>
	<path class="st13" d="M7360.9,2975.9c-8.7,12.7-21.2,19.7-35.4,24.3C7334.4,2987.9,7345.8,2979.2,7360.9,2975.9z"/>
	<path class="st14" d="M4720.2,4766.8c1.1-11.2,6.9-19.9,15-27.2c-1.4,7.3-2.8,14.5-4.1,21.8
		C4727.5,4763.2,4723.9,4765,4720.2,4766.8z"/>
	<path class="st15" d="M5426.1,3761.1c3-6.8,7.7-12.1,14.1-15.9C5437.6,3752.4,5432.8,3757.6,5426.1,3761.1z"/>
	<path class="st11" d="M6965.4,1600.4c3.1-8.1,7.9-14.9,15.1-19.9C6977.6,1588.7,6972.9,1595.6,6965.4,1600.4z"/>
	<path class="st11" d="M6980.5,1580.5c2.8-8.2,7.6-14.9,14.3-20.4C6992.6,1568.7,6987.8,1575.4,6980.5,1580.5z"/>
	<path class="st11" d="M7030.4,1515.5c-1.7,0-3.5-0.1-5.2-0.1c3-8.2,8.1-14.9,15.4-19.8C7037.2,1502.2,7033.8,1508.8,7030.4,1515.5z
		"/>
	<path class="st16" d="M5160.9,4135.9c4.7-5.2,9.4-10.5,14.1-15.7C5172.5,4127.4,5167.6,4132.4,5160.9,4135.9z"/>
	<path class="st11" d="M5376.2,4321.2c-3.3,6.9-8.7,11.5-15.7,14.2C5365.7,4330.7,5370.9,4325.9,5376.2,4321.2z"/>
	<path class="st17" d="M1700.5,560.5c26.8,21.7,40.9,52.6,59.5,80.4C1731.7,620.3,1714.7,591.4,1700.5,560.5z"/>
	<path class="st17" d="M1641.1,480c26.1,22.2,46.1,48.8,59.4,80.5C1674.4,538.3,1658.6,508.5,1641.1,480z"/>
	<path class="st11" d="M2360.6,3180.4c-30.5-12.7-56.1-32.6-79.8-55.3C2310.1,3139.6,2337.9,3156.3,2360.6,3180.4z"/>
	<path class="st14" d="M4685.7,4765.4c-15.4,16-28.6,9.5-41.3-3.9c2-5,4-10.1,5.9-15.1C4662.2,4752.8,4674,4759.1,4685.7,4765.4z"/>
	<path class="st4" d="M2100.4,3000.7c-23.6-8-44.1-20.6-60-40.1C2062.4,2971,2084,2981.9,2100.4,3000.7z"/>
	<path class="st18" d="M1800.4,700.6c18.3,16.6,32.8,35.8,40.4,59.7C1823.1,743.2,1808.6,724,1800.4,700.6z"/>
	<path class="st14" d="M4681.1,4720c9.2,13.8,13.6,29.2,14.5,45.7c-3.4,0-6.9,0-10.3,0c-1.1-11.8-6.5-21.6-14.4-30.3
		C4676.6,4731.6,4678.9,4725.8,4681.1,4720z"/>
	<path class="st19" d="M2200.5,3070.4c-17-4.9-30.7-14.5-40.5-29.4C2175.8,3047.7,2190.5,3055.9,2200.5,3070.4z"/>
	<path class="st20" d="M2000.4,980.6c15.1,11.6,24.5,27,30.2,44.8C2015.9,1013.6,2006.1,998.5,2000.4,980.6z"/>
	<path class="st20" d="M1960.8,925.3c12.3,8.9,20.9,20.3,24.5,35.3C1972.4,952.2,1964.2,940.5,1960.8,925.3z"/>
	<path class="st21" d="M2960.4,2330.6c10.8,7.1,18.1,16.6,20.5,29.4C2971,2352.4,2964.3,2342.5,2960.4,2330.6z"/>
	<path class="st11" d="M2390.5,3200.4c-12-3.7-22-10.3-29.9-20C2372.9,3183.6,2383,3190,2390.5,3200.4z"/>
	<path class="st18" d="M1785.3,680.6c7.3,5,12.3,11.5,15,20C1791.8,696.6,1787.1,689.7,1785.3,680.6z"/>
	<path class="st22" d="M4265.4,4480.6c-9.7-2.7-18.4-7-24.6-15.4C4251,4467.1,4259.4,4472,4265.4,4480.6z"/>
	<path class="st23" d="M3481,3064.9c10.8,5.3,16.3,14.5,19.3,25.6C3491.9,3083.4,3486,3074.5,3481,3064.9z"/>
	<path class="st20" d="M1985.3,960.6c7.3,4.9,12.4,11.5,15,20C1992.4,976.1,1987.8,969.2,1985.3,960.6z"/>
	<path class="st24" d="M3620.4,4040.6c-8.3-5-16.7-9.9-25-14.9C3606.2,4026.5,3614.1,4032.3,3620.4,4040.6z"/>
	<path class="st25" d="M4495.7,4640.1c-6.2-1.5-11.4-4.5-14.9-9.9C4485.7,4633.5,4490.7,4636.8,4495.7,4640.1z"/>
	<path class="st26" d="M4146,4000.1c6.3,3.9,11,9.2,14,15.9C4153.7,4012.1,4149,4006.8,4146,4000.1z"/>
	<path class="st27" d="M7350.5,4230.5c-102.2,27.3-205.8,47.5-310,64.9c26.7-17.1,58.4-16.9,87.9-23.9
		c56.4-13.4,113.8-22.7,170.5-35.1C7316.1,4232.6,7333,4229.9,7350.5,4230.5z"/>
	<path class="st28" d="M2880.2,4401c-67.7-8-134.1-22.8-199.8-40.4C2748.4,4367.1,2814.9,4381.5,2880.2,4401z"/>
	<path class="st14" d="M4642.2,4760.9c-13.6,4.4-27.2,5.6-40.7-0.2C4615.1,4760.7,4628.6,4760.8,4642.2,4760.9z"/>
	<path class="st29" d="M5830.6,1145.4c0.1-9.6,1.9-18.5,9.5-25.3C5836.9,1128.5,5833.7,1137,5830.6,1145.4z"/>
	<path class="st30" d="M5420.5,2465.4c0.4-10.9,3.1-21.1,9.9-29.9C5429.2,2446.1,5426.3,2456.3,5420.5,2465.4z"/>
	<path class="st31" d="M5600.8,1880.6c1-9.2,3.9-17.7,9.6-25.2C5609.5,1864.7,5606.6,1873.2,5600.8,1880.6z"/>
	<path class="st20" d="M4256.3,5081.2c-3.3,6.9-8.7,11.5-15.6,14.5C4245.9,5090.9,4251.1,5086.1,4256.3,5081.2z"/>
	<path class="st17" d="M5435.8,5279.9c-5-3.3-10-6.5-15-9.8C5425.8,5273.4,5430.8,5276.6,5435.8,5279.9z"/>
</g>
</svg>
