<?xml version="1.0" encoding="utf-8"?>
<!-- Generator: Adobe Illustrator 19.1.0, SVG Export Plug-In . SVG Version: 6.00 Build 0)  -->
<svg version="1.1" id="Layer_1" xmlns="http://www.w3.org/2000/svg" xmlns:xlink="http://www.w3.org/1999/xlink" x="0px" y="0px"
	 viewBox="10240 -2470 7850.5 4420.7" style="enable-background:new 10240 -2470 7850.5 4420.7;" xml:space="preserve">
<style type="text/css">
	.st0{fill:#373737;}
	.st1{fill:#353535;}
	.st2{fill:#575757;}
	.st3{fill:#FDFDFD;}
	.st4{fill:none;}
	.st5{fill:#ED5D52;}
	.st6{fill:#1A1A1A;}
	.st7{fill:#1F1F1F;}
	.st8{fill:#595959;}
	.st9{fill:#121212;}
	.st10{fill:#FCD424;}
	.st11{fill:#FED626;}
	.st12{fill:#FCD828;}
	.st13{fill:#33B88E;}
	.st14{fill:#CFCED0;}
	.st15{fill:#BB3A39;}
	.st16{fill:#169157;}
</style>
<g id="Layer_1_1_">
	<path class="st0" d="M17540.6,464.4l314.7-0.8c30.1-3,48.2-12,72.3-31.6c36.9-30.1,59.5-92.6,35.4-150.6
		c-23.3-55-64.8-76.8-133.3-80.6l-109.2,0.8l-195,0.8l-1.5,253L17540.6,464.4z"/>
	<rect x="10932.6" y="-2470" class="st1" width="6431.8" height="3095.4"/>
	<rect id="Jackpot" x="11544" y="-2072.8" class="st2" width="5155.8" height="544.4"/>
	<polygon class="st2" points="10240,1157.8 18090.6,1157.8 17365.1,622.5 10943.2,618.7 	"/>
	<g id="_2413717645584_10_">
		<path id="slot1" class="st3" d="M11230.3,355.1h474.4c202.5,0,432.2,3.8,630.2-0.8l-0.8-1441.9c-361.4-2.3-744.7,5.3-1103.8-0.8
			L11230.3,355.1L11230.3,355.1z"/>
	</g>
	<g id="_2413717645584_4_">
		<path id="slot2" class="st3" d="M12416.7,355.1h474.4c202.5,0,432.2,3.8,630.2-0.8l-0.8-1441.9c-361.4-2.3-744.7,5.3-1103.8-0.8
			L12416.7,355.1L12416.7,355.1z"/>
	</g>
	<g id="_2413717645584_3_">
		<path id="slot3" class="st3" d="M13602.1,355.1h474.4c202.5,0,432.2,3.8,630.2-0.8l-0.8-1441.9c-361.4-2.3-744.7,5.3-1103.8-0.8
			V355.1z"/>
	</g>
	<g id="_2413717645584_2_">
		<path id="slot4" class="st3" d="M14787.7,355.1h474.4c202.5,0,432.2,3.8,630.2-0.8l-0.8-1441.9c-361.4-2.3-744.7,5.3-1103.8-0.8
			V355.1z"/>
	</g>
	<g id="_2413717645584_1_">
		<path id="slot5" class="st3" d="M15962.1,355.1h474.4c202.5,0,432.2,3.8,630.2-0.8l-0.8-1441.9c-361.4-2.3-744.7,5.3-1103.8-0.8
			V355.1z"/>
	</g>
	<rect x="17070.7" y="3.1" class="st4" width="165.7" height="466.1"/>
	<g id="lever">
		<rect id="stick" x="17722" y="-729" class="st2" width="114.4" height="936.7"/>
		<path id="bulb" class="st5" d="M17725.8-677c46.7,9.8,58,6.8,106.2,1.5c247-79.1,181.5-405.1-43.7-412.6
			c-109.9-3.8-200.3,79.1-213.1,173.9C17559.4-793.7,17635.4-699.6,17725.8-677z"/>
	</g>
	<rect x="10240" y="1157.8" class="st0" width="7850.5" height="792.9"/>
	<rect x="12066.8" y="1354.2" class="st6" width="1722" height="415.6"/>
	<path class="st2" d="M15434.7,1479.2l-215.3-0.8v203.3h215.3l2.3,103.9c42.2-21.1,171.7-149.1,213.8-176.2l29.4-29.4
		c-30.9-33.9-78.3-64-118.2-101.6c-24.1-22.6-103.2-94.1-131-103.2C15440.7,1405.4,15440,1447.6,15434.7,1479.2z"/>
	<path class="st2" d="M14272.9,1492.8l215.3-0.8l0.8,203.3h-216.1l-2.3,103.9c-42.2-21.1-171.7-149.1-213.8-176.2l-29.4-29.4
		c31.6-33.9,78.3-64,119-101.6c23.3-21.8,103.2-94.1,130.3-103.2C14267.6,1419,14268.4,1461.2,14272.9,1492.8z"/>
	<rect x="17364.4" y="108.3" class="st2" width="165.7" height="466.1"/>
	<polygon class="st7" points="12066.8,1449.1 13788.8,1449.1 13788.8,1706.6 12066.8,1706.6 	"/>
	<rect x="12066.8" y="1706.6" class="st8" width="1721.9" height="62.4"/>
	<rect x="16035.6" y="1374.6" class="st7" width="267.3" height="382.5"/>
	<rect x="16207.2" y="1374.6" class="st9" width="95.6" height="382.5"/>
	<path class="st3" d="M14582-1031.4"/>
</g>
<g id="Lights">
	<path class="st10" d="M15080.4-1400c-85.8,33.1-41.4,150.6,39.9,126.5C15205.4-1299.1,15160.2-1431.6,15080.4-1400z"/>
	<path class="st11" d="M15868.7-1398.4c-24.1,9.8-26.4,9-36.9,31.6c-24.8,55,23.3,113.7,82.8,91.9
		C15996.7-1305.1,15950.1-1432.3,15868.7-1398.4z"/>
	<path class="st11" d="M14685.1-1400c-81.3,27.9-45.9,149.8,39.9,126.5C14807.1-1296,14770.2-1429.3,14685.1-1400z"/>
	<path class="st11" d="M14289.8-1400c-85.8,33.1-41.4,149.1,39.9,126.5C14414.8-1297.6,14370.4-1430.8,14289.8-1400z"/>
	<path class="st10" d="M13499.2-1400c-84.3,31.6-42.2,148.3,39.2,126.5C13625.7-1296,13579.8-1430.1,13499.2-1400z"/>
	<path class="st12" d="M13892.2-1398.4c-39.2,18.1-55,49.7-39.9,85.1c12.8,30.1,42.9,52.7,85.1,39.2
		C14021-1301.3,13970.6-1433.8,13892.2-1398.4z"/>
	<path class="st11" d="M13103.9-1400c-82.8,32.4-44.4,148.3,39.2,126.5c32.4-8.3,58.7-44.4,44.4-84.3
		C13178.4-1384.9,13140.8-1414.3,13103.9-1400z"/>
	<path class="st12" d="M12707.8-1399.2c-83.6,32.4-41.4,147.6,39.9,125.7C12835.1-1296.8,12789.9-1430.8,12707.8-1399.2z"/>
	<path class="st11" d="M12313.3-1400c-85.1,33.1-41.4,148.3,39.2,126.5C12436.8-1296,12396.9-1431.6,12313.3-1400z"/>
	<path class="st10" d="M11914.2-1400c-84.3,31.6-42.2,148.3,39.2,126.5C12040.7-1296,11994.8-1430.1,11914.2-1400z"/>
	<path class="st11" d="M11518.9-1400c-82.8,32.4-44.4,148.3,39.2,126.5c32.4-8.3,58.7-44.4,44.4-84.3
		C11593.4-1384.9,11555.8-1414.3,11518.9-1400z"/>
	<path class="st12" d="M11122.8-1399.2c-83.6,32.4-41.4,147.6,39.9,125.7C11250.1-1296.8,11204.9-1430.8,11122.8-1399.2z"/>
	<path class="st10" d="M15475.7-1400.7c-79.8,27.1-48.2,152.1,39.9,127.2C15590.9-1295.3,15564.6-1430.1,15475.7-1400.7z"/>
	<path class="st10" d="M16285.4-1400c-85.8,33.1-41.4,150.6,39.9,126.5C16410.4-1299.1,16365.2-1431.6,16285.4-1400z"/>
	<path class="st11" d="M17073.7-1398.4c-24.1,9.8-26.4,9-36.9,31.6c-24.8,55,23.3,113.7,82.8,91.9
		C17201.7-1305.1,17155.1-1432.3,17073.7-1398.4z"/>
	<path class="st10" d="M16680.7-1400.7c-79.8,27.1-48.2,152.1,39.9,127.2C16795.9-1295.3,16769.6-1430.1,16680.7-1400.7z"/>
	<path class="st10" d="M15080.4-2330c-85.8,33.1-41.4,150.6,39.9,126.5C15205.4-2229.1,15160.2-2361.6,15080.4-2330z"/>
	<path class="st11" d="M15868.7-2328.4c-24.1,9.8-26.4,9-36.9,31.6c-24.8,55,23.3,113.7,82.8,91.9
		C15996.7-2235.1,15950.1-2362.3,15868.7-2328.4z"/>
	<path class="st11" d="M14685.1-2330c-81.3,27.9-45.9,149.8,39.9,126.5C14807.1-2226,14770.2-2359.3,14685.1-2330z"/>
	<path class="st11" d="M14289.8-2330c-85.8,33.1-41.4,149.1,39.9,126.5C14414.8-2227.6,14370.4-2360.8,14289.8-2330z"/>
	<path class="st10" d="M13499.2-2330c-84.3,31.6-42.2,148.3,39.2,126.5C13625.7-2226,13579.8-2360.1,13499.2-2330z"/>
	<path class="st12" d="M13892.2-2328.4c-39.2,18.1-55,49.7-39.9,85.1c12.8,30.1,42.9,52.7,85.1,39.2
		C14021-2231.3,13970.6-2363.8,13892.2-2328.4z"/>
	<path class="st11" d="M13103.9-2330c-82.8,32.4-44.4,148.3,39.2,126.5c32.4-8.3,58.7-44.4,44.4-84.3
		C13178.4-2314.9,13140.8-2344.3,13103.9-2330z"/>
	<path class="st12" d="M12707.8-2329.2c-83.6,32.4-41.4,147.6,39.9,125.7C12835.1-2226.8,12789.9-2360.8,12707.8-2329.2z"/>
	<path class="st11" d="M12313.3-2330c-85.1,33.1-41.4,148.3,39.2,126.5C12436.8-2226,12396.9-2361.6,12313.3-2330z"/>
	<path class="st10" d="M11914.2-2330c-84.3,31.6-42.2,148.3,39.2,126.5C12040.7-2226,11994.8-2360.1,11914.2-2330z"/>
	<path class="st11" d="M11518.9-2330c-82.8,32.4-44.4,148.3,39.2,126.5c32.4-8.3,58.7-44.4,44.4-84.3
		C11593.4-2314.9,11555.8-2344.3,11518.9-2330z"/>
	<path class="st12" d="M11122.8-2329.2c-83.6,32.4-41.4,147.6,39.9,125.7C11250.1-2226.8,11204.9-2360.8,11122.8-2329.2z"/>
	<path class="st12" d="M11122.8-1862.4c-83.6,32.4-41.4,147.6,39.9,125.7C11250.1-1760,11204.9-1894,11122.8-1862.4z"/>
	<path class="st10" d="M15475.7-2330.7c-79.8,27.1-48.2,152.1,39.9,127.2C15590.9-2225.3,15564.6-2360.1,15475.7-2330.7z"/>
	<path class="st10" d="M16285.4-2330c-85.8,33.1-41.4,150.6,39.9,126.5C16410.4-2229.1,16365.2-2361.6,16285.4-2330z"/>
	<path class="st11" d="M17073.7-2328.4c-24.1,9.8-26.4,9-36.9,31.6c-24.8,55,23.3,113.7,82.8,91.9
		C17201.7-2235.1,17155.1-2362.3,17073.7-2328.4z"/>
	<path class="st10" d="M16680.7-2330.7c-79.8,27.1-48.2,152.1,39.9,127.2C16795.9-2225.3,16769.6-2360.1,16680.7-2330.7z"/>
	<path class="st11" d="M17073.7-1861.8c-24.1,9.8-26.4,9-36.9,31.6c-24.8,55,23.3,113.7,82.8,91.9
		C17201.7-1768.5,17155.1-1895.7,17073.7-1861.8z"/>
</g>
<g id="Buttons">
	<path class="st5" d="M15450.9,875.4c17.4,30.6,21.5,72.9,87,111c91.9,53,232.7,57.1,324.7,5c88.6-50.5,72.9-79.5,97.7-101
		c0-43.9,0.8-67.9-17.4-99.4c-65.4-117.6-296.5-145.8-412.5-62.9C15475.7,766.9,15453.4,790.1,15450.9,875.4z"/>
	<path class="st13" d="M13868.9,878.7c22.4,52.2,38.1,78.7,87,106.8c93.6,53.8,228.6,58,323.8,6.6c62.1-34,58.8-48.9,96.9-102.7
		c0-47.2,5-61.3-16.6-98.6c-71.2-122.6-293.2-143.3-415.8-61.3C13893,764.4,13868.9,800.9,13868.9,878.7z"/>
	<path class="st3" d="M12284.5,879.5c14.1,18.2,19.9,43.9,34,60.5c12.4,14.9,34,34,54.7,45.6c114.3,67.9,328.8,67.1,412.5-82.8
		l9.1-14.9c-0.8-86.1-18.2-116.8-70.4-154.1c-98.6-69.6-258.4-71.2-359.5-5C12313.5,761.9,12286.1,794.2,12284.5,879.5z"/>
	<path class="st14" d="M12794.7,887.8l-9.1,14.9c-83.7,149.9-298.2,150.7-412.5,82.8c-20.7-11.6-42.2-30.6-54.7-45.6
		c-14.1-16.6-19.9-42.2-34-60.5c0,77.9,29,116.8,77,148.3c46.4,29.8,107.7,48,174.8,48.9C12666.3,1077.5,12798,1017,12794.7,887.8z"
		/>
	<path class="st15" d="M15960.3,890.3c-24.8,21.5-9.1,50.5-97.7,101c-91.9,52.2-232.7,48-324.7-5c-65.4-38.1-69.6-80.3-87-111
		c-2.5,76.2,24,120.1,72.9,150.7c50.5,31.5,101,48.9,173.1,50.5C15821.1,1078.3,15962.7,1022,15960.3,890.3z"/>
	<path class="st16" d="M14376.6,889.5c-38.1,53.8-34.8,68.7-96.9,102.7c-95.2,51.4-230.3,47.2-323.8-6.6
		c-48.9-28.2-64.6-54.7-87-106.8c-0.8,82.8,23.2,112.6,76.2,149.1c44.7,30.6,107.7,48,174.8,48.9
		C14245,1077.5,14380,1020.4,14376.6,889.5z"/>
	<path class="st5" d="M13047.3,875.4c17.4,30.6,21.5,72.9,87,111c91.9,53,232.7,57.1,324.7,5c88.6-50.5,72.9-79.5,97.7-101
		c0-43.9,0.8-67.9-17.4-99.4c-65.4-117.6-296.5-145.8-412.5-62.9C13072.2,766.9,13049.8,790.1,13047.3,875.4z"/>
	<path class="st15" d="M13556.7,890.3c-24.8,21.5-9.1,50.5-97.7,101c-91.9,52.2-232.7,48-324.7-5c-65.4-38.1-69.6-80.3-87-111
		c-2.5,76.2,24,120.1,72.9,150.7c50.5,31.5,101,48.9,173.1,50.5C13417.5,1078.3,13559.2,1022,13556.7,890.3z"/>
	<path class="st3" d="M14683.9,879.5c13.3,18.2,19.9,43.9,34,60.5c12.4,14.9,34,34,53.8,45.6c115.1,67.9,329.6,67.1,413.3-82.8
		l9.1-14.9c-0.8-86.1-18.2-116.8-71.2-154.1c-97.7-69.6-258.4-71.2-358.6-5C14712.9,761.9,14685.6,794.2,14683.9,879.5z"/>
	<path class="st14" d="M15194.1,887.8l-9.1,14.9c-83.7,149.9-298.2,150.7-413.3,82.8c-19.9-11.6-41.4-30.6-53.8-45.6
		c-14.1-16.6-20.7-42.2-34-60.5c0,77.9,29,116.8,77,148.3c45.6,29.8,107.7,48,174.8,48.9C15065.8,1077.5,15196.6,1017,15194.1,887.8
		z"/>
</g>
</svg>
