<?xml version="1.0" encoding="utf-8"?>
<!-- Generator: Adobe Illustrator 19.1.0, SVG Export Plug-In . SVG Version: 6.00 Build 0)  -->
<svg version="1.1" id="Layer_1" xmlns="http://www.w3.org/2000/svg" xmlns:xlink="http://www.w3.org/1999/xlink" x="0px" y="0px"
	 viewBox="1743 17.4 1773 765" style="enable-background:new 1743 17.4 1773 765;" xml:space="preserve">
<style type="text/css">
	.st0{fill:#373737;}
	.st1{fill:#353535;}
	.st2{fill:#575757;stroke:#FBD827;stroke-miterlimit:10;}
	.st3{fill:#575757;}
	.st4{fill:#FDFDFD;}
	.st5{fill:none;}
	.st6{fill:#ED5D52;}
	.st7{fill:#1A1A1A;}
	.st8{fill:#1F1F1F;}
	.st9{fill:#595959;}
	.st10{fill:#121212;}
	.st11{fill:#FCD424;}
	.st12{fill:#FED626;}
	.st13{fill:#FCD828;}
	.st14{fill:#CFCED0;}
	.st15{fill:#BB3A39;}
	.st16{fill:#33B88E;}
	.st17{fill:#169157;}
	.st18{fill:#5A5A5A;}
	.st19{fill:#FEFEFE;}
	.st20{font-family:'FranklinGothic-Medium';}
	.st21{font-size:70px;}
</style>
<path class="st0" d="M3392,525.1l71-0.2c6.7-0.4,11-2,16.2-5.5c8.4-5.1,13.3-16,8.1-26c-5.2-9.5-14.8-13.3-30.1-14l-24.6,0.2
	l-44,0.2l-0.3,43.7L3392,525.1z"/>
<rect x="1899.4" y="17.4" class="st1" width="1452.6" height="535.7"/>
<rect id="Jackpot" x="2002.2" y="86.3" class="st2" width="1279.7" height="94.1"/>
<polygon class="st3" points="1743,645.2 3516,645.2 3352.3,552.6 1902,552 "/>
<g id="slot1_4_">
	<path id="slot1" class="st4" d="M1954.2,521.8h142c60.6,0,129.3,0.8,188.4-0.2l-0.4-271.3c-108.2-0.4-222.9,1-330-0.2V521.8
		L1954.2,521.8z"/>
</g>
<rect x="3285.7" y="445.4" class="st5" width="37.4" height="80.6"/>
<g id="lever">
	<rect id="stick" x="3432.9" y="318.6" class="st3" width="25.8" height="162.1"/>
	<path id="bulb" class="st6" d="M3433.7,327.8c10.4,1.8,13,1.1,24,0.2c55.9-13.8,40.8-70.2-9.9-71.5c-24.9-0.7-45.2,13.8-48.1,30.2
		C3396.1,307.5,3413.4,323.8,3433.7,327.8z"/>
</g>
<rect x="1743" y="645.2" class="st0" width="1773" height="137.2"/>
<rect x="2155.5" y="679.2" class="st7" width="388.8" height="71.9"/>
<path class="st3" d="M2916.3,700.7l-48.7-0.2v35.1h48.7l0.6,18c9.6-3.6,38.8-25.8,48.4-30.4l6.7-5.1c-7-5.8-17.7-11.1-26.7-17.5
	c-5.5-4-23.2-16.2-29.6-17.8C2917.8,688.1,2917.5,695.4,2916.3,700.7z"/>
<path class="st3" d="M2653.8,703.1l48.7-0.2l0.3,35.1h-48.7l-0.6,18c-9.6-3.6-38.8-25.8-48.4-30.4l-6.7-5.1
	c7.2-5.8,17.7-11.1,26.9-17.5c5.2-3.8,23.2-16.2,29.6-17.8C2652.7,690.3,2653,697.6,2653.8,703.1z"/>
<rect x="3352" y="463.6" class="st3" width="37.4" height="80.6"/>
<polygon class="st8" points="2155.5,695.6 2544.6,695.6 2544.6,740.2 2155.5,740.2 "/>
<rect x="2155.5" y="740.2" class="st9" width="388.8" height="10.9"/>
<rect x="3051.9" y="682.7" class="st8" width="60.3" height="66.2"/>
<rect x="3090.7" y="682.7" class="st10" width="21.7" height="66.2"/>
<path class="st4" d="M2723.7,266.3"/>
<g id="Lights">
	<path class="st11" d="M2858.9,202.6c-19.4,5.8-9.3,26,9,22C2887.1,220.2,2876.9,197.1,2858.9,202.6z"/>
	<path class="st12" d="M3036.8,202.9c-5.5,1.8-6.1,1.6-8.4,5.5c-5.5,9.5,5.2,19.8,18.8,16C3065.8,219.1,3055.4,197.1,3036.8,202.9z"
		/>
	<path class="st12" d="M2769.7,202.6c-18.3,4.9-10.4,26,9,22C2797.2,220.6,2788.8,197.5,2769.7,202.6z"/>
	<path class="st12" d="M2680.2,202.6c-19.4,5.8-9.3,25.8,9,22C2708.6,220.4,2698.5,197.3,2680.2,202.6z"/>
	<path class="st11" d="M2501.7,202.6c-19.1,5.5-9.6,25.8,9,22C2530.4,220.6,2520,197.3,2501.7,202.6z"/>
	<path class="st13" d="M2590.7,202.9c-9,3.1-12.5,8.7-9,14.7c2.9,5.1,9.6,9.1,19.1,6.9C2619.7,219.7,2608.4,196.9,2590.7,202.9z"/>
	<path class="st12" d="M2412.5,202.6c-18.8,5.5-10.1,25.8,9,22c7.2-1.3,13.3-7.8,10.1-14.7C2429.3,205.3,2420.9,200.2,2412.5,202.6z
		"/>
	<path class="st13" d="M2323,202.9c-18.8,5.5-9.3,25.5,9,21.8C2351.7,220.4,2341.5,197.3,2323,202.9z"/>
	<path class="st12" d="M2234.1,202.6c-19.1,5.8-9.3,25.8,9,22C2261.9,220.6,2252.9,197.1,2234.1,202.6z"/>
	<path class="st11" d="M2144,202.6c-19.1,5.5-9.6,25.8,9,22C2172.3,220.6,2161.9,197.3,2144,202.6z"/>
	<path class="st12" d="M2054.4,202.6c-18.8,5.5-10.1,25.8,9,22c7.2-1.3,13.3-7.8,10.1-14.7C2071.2,205.3,2062.8,200.2,2054.4,202.6z
		"/>
	<path class="st13" d="M1965.2,202.9c-18.8,5.5-9.3,25.5,9,21.8C1993.9,220.4,1983.7,197.3,1965.2,202.9z"/>
	<path class="st11" d="M2948.2,202.4c-18,4.7-11,26.4,9,22C2974.3,220.8,2968.2,197.3,2948.2,202.4z"/>
	<path class="st11" d="M3131,202.6c-19.4,5.8-9.3,26,9,22C3159.4,220.2,3148.9,197.1,3131,202.6z"/>
	<path class="st12" d="M3309.2,202.9c-5.5,1.8-6.1,1.6-8.4,5.5c-5.5,9.5,5.2,19.8,18.8,16C3337.8,219.1,3327.4,197.1,3309.2,202.9z"
		/>
	<path class="st11" d="M3220.2,202.4c-18,4.7-11,26.4,9,22C3246.3,220.8,3240.5,197.3,3220.2,202.4z"/>
	<path class="st11" d="M2858.9,41.7c-19.4,5.8-9.3,26,9,22C2887.1,59.2,2876.9,36.1,2858.9,41.7z"/>
	<path class="st12" d="M3036.8,41.9c-5.5,1.8-6.1,1.6-8.4,5.5c-5.5,9.5,5.2,19.8,18.8,16C3065.8,58.1,3055.4,36.1,3036.8,41.9z"/>
	<path class="st12" d="M2769.7,41.7c-18.3,4.9-10.4,26,9,22C2797.2,59.7,2788.8,36.6,2769.7,41.7z"/>
	<path class="st12" d="M2680.2,41.7c-19.4,5.8-9.3,25.8,9,22C2708.6,59.5,2698.5,36.4,2680.2,41.7z"/>
	<path class="st11" d="M2501.7,41.7c-19.1,5.5-9.6,25.8,9,22C2530.4,59.7,2520,36.4,2501.7,41.7z"/>
	<path class="st13" d="M2590.7,41.9c-9,3.1-12.5,8.7-9,14.7c2.9,5.1,9.6,9.1,19.1,6.9C2619.7,58.8,2608.4,35.9,2590.7,41.9z"/>
	<path class="st12" d="M2412.5,41.7c-18.8,5.5-10.1,25.8,9,22c7.2-1.3,13.3-7.8,10.1-14.7C2429.3,44.4,2420.9,39.3,2412.5,41.7z"/>
	<path class="st13" d="M2323,41.9c-18.8,5.5-9.3,25.5,9,21.8C2351.7,59.5,2341.5,36.4,2323,41.9z"/>
	<path class="st12" d="M2234.1,41.7c-19.1,5.8-9.3,25.8,9,22C2261.9,59.7,2252.9,36.1,2234.1,41.7z"/>
	<path class="st11" d="M2144,41.7c-19.1,5.5-9.6,25.8,9,22C2172.3,59.7,2161.9,36.4,2144,41.7z"/>
	<path class="st12" d="M2054.4,41.7c-18.8,5.5-10.1,25.8,9,22c7.2-1.3,13.3-7.8,10.1-14.7C2071.2,44.4,2062.8,39.3,2054.4,41.7z"/>
	<path class="st13" d="M1965.2,41.9c-18.8,5.5-9.3,25.5,9,21.8C1993.9,59.5,1983.7,36.4,1965.2,41.9z"/>
	<path class="st13" d="M1965.2,122.5c-18.8,5.5-9.3,25.5,9,21.8C1993.9,140.3,1983.7,117.2,1965.2,122.5z"/>
	<path class="st11" d="M2948.2,41.5c-18,4.7-11,26.4,9,22C2974.3,59.9,2968.2,36.4,2948.2,41.5z"/>
	<path class="st11" d="M3131,41.7c-19.4,5.8-9.3,26,9,22C3159.4,59.2,3148.9,36.1,3131,41.7z"/>
	<path class="st12" d="M3309.2,41.9c-5.5,1.8-6.1,1.6-8.4,5.5c-5.5,9.5,5.2,19.8,18.8,16C3337.8,58.1,3327.4,36.1,3309.2,41.9z"/>
	<path class="st11" d="M3220.2,41.5c-18,4.7-11,26.4,9,22C3246.3,59.9,3240.5,36.4,3220.2,41.5z"/>
	<path class="st12" d="M3309.2,122.7c-5.5,1.8-6.1,1.6-8.4,5.5c-5.5,9.5,5.2,19.8,18.8,16C3337.8,138.9,3327.4,116.7,3309.2,122.7z"
		/>
</g>
<g id="Buttons">
	<g id="but1">
		<path class="st4" d="M2204.8,597c3.2,3.1,4.6,7.5,7.8,10.4c2.9,2.7,7.8,6,12.5,8c25.8,11.8,74.2,11.5,93.3-14.4l2-2.7
			c-0.3-14.9-4.1-20.2-15.9-26.6c-22.3-12-58.2-12.4-81.1-0.9C2211.5,576.6,2205.1,582.2,2204.8,597z"/>
		<path class="st14" d="M2320.1,598.4l-2,2.7c-18.8,26-67.2,26-93.3,14.4c-4.6-2-9.6-5.3-12.5-8c-3.2-2.9-4.6-7.3-7.8-10.4
			c0,13.5,6.7,20.2,17.4,25.8c10.4,5.1,24.3,8.2,39.4,8.4C2291.1,631.2,2321,620.8,2320.1,598.4z"/>
	</g>
	<g id="but5">
		<path class="st6" d="M2920.1,596.4c4.1,5.3,4.9,12.7,19.7,19.3c20.9,9.1,52.4,10,73.3,0.9c20-8.7,16.5-13.8,22-17.5
			c0-7.5,0.3-11.8-4.1-17.1c-14.8-20.4-66.9-25.3-93.3-10.9C2925.6,577.5,2920.7,581.5,2920.1,596.4z"/>
		<path class="st15" d="M3035.1,598.8c-5.5,3.8-2,8.7-22,17.5c-20.9,9.1-52.4,8.2-73.3-0.9c-14.8-6.7-15.6-14-19.7-19.3
			c-0.6,13.1,5.5,20.9,16.5,26c11.3,5.5,22.9,8.4,39.1,8.7C3003.5,631.4,3035.7,621.7,3035.1,598.8z"/>
	</g>
	<g id="but3">
		<path class="st16" d="M2562.6,596.8c4.9,9.1,8.7,13.5,19.7,18.4c21.1,9.3,51.6,10,73,1.1c13.9-6,13.3-8.4,22-17.8
			c0-8.2,1.2-10.7-3.8-17.1c-16.2-21.3-66.3-24.9-93.9-10.7C2568.1,577.1,2562.6,583.5,2562.6,596.8z"/>
		<path class="st17" d="M2677.3,598.8c-8.7,9.3-7.8,12-22,17.8c-21.4,8.9-52.1,8.2-73-1.1c-11-4.9-14.5-9.5-19.7-18.4
			c-0.3,14.4,5.2,19.5,17.1,25.8c10.1,5.3,24.3,8.2,39.4,8.4C2647.8,631.2,2678.2,621.5,2677.3,598.8z"/>
	</g>
	<g id="but2">
		<path class="st6" d="M2377.2,596.4c4.1,5.3,4.9,12.7,19.7,19.3c20.9,9.1,52.4,10,73.3,0.9c20-8.7,16.5-13.8,22-17.5
			c0-7.5,0.3-11.8-4.1-17.1c-14.8-20.4-66.9-25.3-93.3-10.9C2382.7,577.5,2377.7,581.5,2377.2,596.4z"/>
		<path class="st15" d="M2492.2,598.8c-5.5,3.8-2,8.7-22,17.5c-20.9,9.1-52.4,8.2-73.3-0.9c-14.8-6.7-15.6-14-19.7-19.3
			c-0.6,13.1,5.5,20.9,16.5,26c11.3,5.5,22.9,8.4,39.1,8.7C2460.6,631.4,2492.8,621.7,2492.2,598.8z"/>
	</g>
	<g id="but4">
		<path class="st4" d="M2746.8,597c2.9,3.1,4.6,7.5,7.8,10.4c2.9,2.7,7.8,6,12.2,8c26.1,11.8,74.5,11.5,93.3-14.4l2-2.7
			c-0.3-14.9-4.1-20.2-16.2-26.6c-22-12-58.2-12.4-81.1-0.9C2753.2,576.6,2747.1,582.2,2746.8,597z"/>
		<path class="st14" d="M2861.8,598.4l-2,2.7c-18.8,26-67.2,26-93.3,14.4c-4.6-2-9.3-5.3-12.2-8c-3.2-2.9-4.6-7.3-7.8-10.4
			c0,13.5,6.7,20.2,17.4,25.8c10.4,5.1,24.3,8.2,39.4,8.4C2832.9,631.2,2862.4,620.8,2861.8,598.4z"/>
	</g>
</g>
<path class="st0" d="M2609.5,588.6c0.3-2,0.3-3.8,0.3-5.5c0.3,0,0.9,0,1.2,0c2,0,3.8,0,5.8-0.2c0.3,0,0.6-0.2,1.2-0.2
	c1.7-0.4,2.3-1.1,2.3-2.7c0-0.9,0-1.8-0.3-2.9c0-1.3-0.6-1.8-2-2c-0.9-0.2-2-0.2-3.2,0s-2,0.9-2,2c0,1.3-0.3,2.4-0.3,3.8
	c0,0.4-0.3,0.7-0.9,0.7c-2,0-4.3,0-6.4,0c-0.3,0-0.3,0-0.6,0c0,0,0,0,0-0.2c0.3-1.6,0.3-3.3,0.9-4.9c0.6-2.2,2.6-3.8,5.2-4.4
	c4.3-1.1,8.7-1.1,12.7,0.4c2,0.7,3.2,2,3.5,3.6s0.6,3.3,0.6,4.9c0,1.8-1.2,3.1-3.2,4c-0.6,0.2-1.4,0.4-2,0.7l0.3,0.2
	c3.8,0.7,6.4,2.4,7,5.3c0.6,2.9,1.2,6,1.2,9.1c0.3,4.9-3.8,8.4-9.8,9.5c-3.8,0.7-7.5,0.7-11.3-0.4c-4.1-1.1-6.1-3.3-7-6.4
	c-0.6-1.8-0.6-3.6-0.3-5.3c0.3-2.2,0.6-4.4,0.9-6.4c0-0.4,0.3-0.7,0.9-0.7c2.3,0,4.9,0,7.2,0c0.6,0,0.9,0.2,0.9,0.7
	c0,2.2-0.3,4.4-0.3,6.7c0,0.9,0.3,1.8,0.9,2.4c0.3,0.4,0.9,0.7,1.4,0.9c1.7,0.4,3.2,0.4,4.9,0c1.4-0.4,2-1.3,2-2.4
	c0-2,0-3.8-0.3-5.8c0-0.7,0-1.3-0.3-2c-0.3-1.1-1.2-2-2.6-2c-1.4-0.2-2.9-0.2-4.3-0.2C2612.4,588.6,2611,588.6,2609.5,588.6z"/>
<path class="st0" d="M2812.9,609.2c-3.2,0-6.4,0-9.3,0c-0.6,0-0.3-0.2-0.6-0.4c0-3.6-0.3-7.1-0.3-10.9c0-0.4-0.3-0.7-0.9-0.7
	c-5.2,0-10.4,0-15.9,0c-0.6,0-0.9,0-0.6-0.7c0.3-1.8,0.6-3.8,0.9-5.5c0-0.9,0.9-1.8,1.4-2.4c3.8-5.5,7.8-10.9,11.6-16.4
	c0.3-0.2,0.6-0.4,0.9-0.4c2.3,0,4.9,0,7.2,0c0.6,0,0.9,0.2,0.9,0.7c0.6,5.8,1.4,11.8,2,17.5c0,0.4,0.3,0.7,0.9,0.7c1.2,0,2,0,3.2,0
	c0.3,1.6,0.6,3.1,0.9,4.7c0,0.4,0,0.9,0.3,1.3c0,0.7,0,0.7-0.6,0.7c-0.9,0-2,0-2.9,0c-0.3,0-0.6,0.2-0.6,0.4
	c0.3,0.4,0.3,1.1,0.3,1.6c0,1.1,0.3,2,0.3,3.1c0.3,1.3,0.3,2.9,0.6,4.2C2812.9,607.7,2812.9,608.6,2812.9,609.2z"/>
<path class="st18" d="M2812.9,609.2c-0.3-1.3-0.3-2.9-0.6-4.2c-0.3-2.4-0.6-4.7-0.9-7.1c0-0.4,0-0.7,0.6-0.7c0.9,0,2,0,2.9,0
	c0.6,0,0.6-0.2,0.6-0.4c-0.3-2-0.6-4-0.9-6c0.3,0,0.3,0.2,0.3,0.4c0.3,2,0.6,3.8,0.9,5.8c0,0.4,0,0.4-0.6,0.4c-0.9,0-2,0-2.9,0
	c-0.6,0-0.6,0-0.6,0.4c0.6,3.6,0.9,7.3,1.4,10.9C2812.9,609,2813.2,609.2,2812.9,609.2z"/>
<path class="st19" d="M2802.5,577.5c0,3.6,0.3,6.9,0.3,10.2c0,0.9,0,1.8,0,2.7c0,0.4,0,0.4-0.6,0.4c-2.6,0-5.2,0-7.8,0
	c-0.3,0-0.6,0-0.3-0.4c2.6-4.2,5.2-8.4,8.1-12.7C2802.2,577.7,2802.2,577.7,2802.5,577.5z"/>
<path class="st0" d="M2970.8,611.7c-5.2-1.3-10.1-4.9-9.3-10.7c0.3-2.7,0.9-5.5,1.2-8.2c0-0.2,0.3-0.4,0.6-0.4c2.6,0,5.2,0,7.8,0
	c0.6,0,0.6,0.2,0.3,0.4c0,2.2-0.3,4.7-0.3,6.9c0,0.7,0,1.3,0.3,2s0.9,1.1,1.7,1.6c2.3,0.9,5.5,0.7,7-0.9c0.6-0.7,0.9-1.3,0.9-2
	c-0.3-3.6-0.3-7.1-0.6-10.7c-0.3-2.2-2.9-2.9-4.9-2.7c-1.7,0.2-3.2,0.9-4.1,2.2c0,0.2-0.3,0.2-0.6,0.2c-2.3,0-4.9,0-7.2,0
	c-0.6,0-0.6,0-0.6-0.4c0.9-4.9,1.4-9.8,2.3-14.9c0-0.2,0.3-0.4,0.6-0.4c6.7,0,13,0,19.7,0c0.3,0,0.6,0.2,0.6,0.4
	c0,0.9,0.3,1.8,0.3,2.7c0,0.4,0,0.4-0.6,0.4c-4.3,0-9,0-13.3,0c-0.6,0-0.9,0.2-0.9,0.7c-0.3,1.6-0.3,2.9-0.6,4.4
	c0,0.2-0.3,0.2,0,0.4c0.3,0,0.3,0,0.6-0.2c1.7-0.7,3.8-1.3,5.8-1.6c1.7-0.2,3.5-0.4,4.9-0.2c2.6,0.4,4.1,1.8,4.9,3.6
	c0.9,1.8,1.2,3.8,1.4,5.8c0.3,2.7,0.9,5.3,1.2,8.2c0.3,2.7,0.3,5.5-1.4,8c-1.7,2.7-4.6,4.4-8.4,5.3c-1.7,0.4-3.5,0.4-5.5,0.4
	C2973.7,612.1,2972.2,611.9,2970.8,611.7z"/>
<path class="st0" d="M2266.8,610.1c-3.5,0-6.7,0-10.1,0c-0.6,0-0.3-0.2-0.3-0.4c0-1.6,0-2.9,0.3-4.4c0.3-8.2,0.6-16.6,1.2-24.9
	c0-0.4,0-0.7-0.9-0.7c-1.7,0-3.5,0-5.2,0c-0.6,0-0.9,0-0.9-0.7c0.3-0.9,0.3-2,0.3-2.9c0-0.4,0.3-0.4,0.6-0.4c1.4,0,2.9-0.2,4.3-0.7
	c1.2-0.2,2-0.9,2.6-1.8c0-0.2,0.3-0.4,0.6-0.2c1.7,0,3.5,0,5.2,0c0.3,0.7,0,1.3,0.3,2c0,1.1,0,2.2,0.3,3.3c0,2.2,0.3,4.4,0.3,6.7
	c0,1.3,0,2.4,0.3,3.8c0,2.2,0.3,4.2,0.3,6.4c0,1.1,0,2.2,0.3,3.3c0,2.4,0.3,4.9,0.3,7.3C2266.8,607,2266.8,608.6,2266.8,610.1
	C2267.1,610.1,2267.1,610.1,2266.8,610.1z"/>
<path class="st0" d="M2419.5,599.7c0.9-2.9,2-5.5,4.1-8c2.3-2.7,4.9-5.1,7.8-7.3c1.7-1.3,3.2-2.7,4.9-4.2c1.2-1.1,1.7-2.2,2-3.6
	c0.3-1.3-0.6-2-2.3-2.4c-1.2-0.2-2.3-0.2-3.8,0c-1.2,0.2-1.7,0.9-1.7,1.8c0,1.3-0.3,2.4-0.3,3.8c0,0.4-0.3,0.4-0.6,0.4
	c-2,0-4.3,0-6.4,0c-0.6,0-0.6,0-0.6-0.4c0.3-1.6,0.3-3.3,0.9-4.9c0.9-2.4,3.2-4,6.4-4.7c2.9-0.4,5.8-0.4,8.7,0
	c4.3,0.7,6.7,2.9,7.2,6.4c0.6,3.1-0.9,5.8-3.5,8c-2.3,2.2-4.6,4.2-7,6.2c-2.3,2-4.1,4.4-5.5,6.9c-0.3,0.4-0.3,0.9-0.3,1.3
	c0,0.4,0,0.7,0.6,0.7c5.5,0,11,0,16.8,0c0.6,0,1.4,0,2,0c0.3,0,0.6,0,0.6,0.2c0.3,2.4,0.6,4.9,1.2,7.3c0,0.2,0,0.2-0.3,0.2
	c0,0,0,0-0.3,0c-10.4,0-21.1,0-31.6,0c-0.3-0.2,0-0.2,0-0.4c0.3-2.4,0.6-4.7,1.2-7.1C2419.5,600.4,2419.5,599.9,2419.5,599.7z"/>
<g id="slot3">
	<path id="slot1_1_" class="st4" d="M2651,521.8h142c60.6,0,129.3,0.8,188.4-0.2l-0.4-271.3c-108.2-0.4-222.9,1-330-0.2V521.8
		L2651,521.8z"/>
</g>
<g id="slot2">
	<path id="slot1_2_" class="st4" d="M2302.6,521.8h142c60.6,0,129.3,0.8,188.4-0.2l-0.4-271.3c-108.2-0.4-222.9,1-330-0.2V521.8
		L2302.6,521.8z"/>
</g>
<g id="slot4">
	<path id="slot1_3_" class="st4" d="M2999.4,521.8h142c60.6,0,129.3,0.8,188.4-0.2l-0.4-271.3c-108.2-0.4-222.9,1-330-0.2V521.8
		L2999.4,521.8z"/>
</g>
<text transform="matrix(1 0 0 1 2476 162)" class="st13 st20 st21">SPONSORS</text>
</svg>
