<?xml version="1.0" encoding="utf-8"?>
<!-- Generator: Adobe Illustrator 19.1.0, SVG Export Plug-In . SVG Version: 6.00 Build 0)  -->
<svg version="1.1" id="Layer_1" xmlns="http://www.w3.org/2000/svg" xmlns:xlink="http://www.w3.org/1999/xlink" x="0px" y="0px"
	 viewBox="5.3 572.8 612 264.1" style="enable-background:new 5.3 572.8 612 264.1;" xml:space="preserve">
<style type="text/css">
	.st0{fill:#373737;}
	.st1{fill:#353535;}
	.st2{fill:#575757;stroke:#FBD827;stroke-miterlimit:10;}
	.st3{fill:#575757;}
	.st4{fill:#FDFDFD;}
	.st5{fill:none;}
	.st6{fill:#ED5D52;}
	.st7{display:none;fill:#1A1A1A;}
	.st8{display:none;fill:#575757;}
	.st9{display:none;fill:#1F1F1F;}
	.st10{display:none;fill:#595959;}
	.st11{display:none;fill:#121212;}
	.st12{fill:#FCD424;}
	.st13{fill:#FED626;}
	.st14{fill:#FCD828;}
	.st15{fill:#E67E22;}
	.st16{fill:#D35400;}
	.st17{fill:#3498DB;}
	.st18{fill:#2980B9;}
	.st19{fill:#F0DEB4;}
	.st20{fill:#D5C295;}
	.st21{fill:#BB3A39;}
	.st22{fill:#34495E;}
	.st23{fill:#2C3E50;}
	.st24{enable-background:new    ;}
	.st25{fill:#D52821;}
	.st26{fill:#D62821;}
</style>
<path class="st0" d="M574.5,748l24.5-0.1c2.3-0.1,3.8-0.7,5.6-1.9c2.9-1.8,4.6-5.5,2.8-9c-1.8-3.3-5.1-4.6-10.4-4.8l-8.5,0.1
	l-15.2,0.1l-0.1,15.1L574.5,748z"/>
<rect x="59.3" y="572.8" class="st1" width="501.4" height="184.9"/>
<rect id="Jackpot" x="94.8" y="596.5" class="st2" width="441.7" height="32.5"/>
<polygon class="st3" points="5.3,789.5 617.3,789.5 560.8,757.5 60.2,757.3 "/>
<g id="slot1_4_">
	<path id="slot1" class="st4" d="M78.2,753.4h49c20.9,0,44.6,0.3,65-0.1l-0.1-104.7c-37.3-0.2-76.9,0.4-113.9-0.1L78.2,753.4
		L78.2,753.4z"/>
</g>
<rect x="537.8" y="720.5" class="st5" width="12.9" height="27.8"/>
<g id="lever">
	<rect id="stick" x="588.6" y="676.7" class="st3" width="8.9" height="56"/>
	<path id="bulb" class="st6" d="M588.9,679.9c3.6,0.6,4.5,0.4,8.3,0.1c19.3-4.8,14.1-24.2-3.4-24.7c-8.6-0.2-15.6,4.8-16.6,10.4
		C575.9,672.9,581.9,678.5,588.9,679.9z"/>
</g>
<rect x="5.3" y="789.5" class="st0" width="612" height="47.4"/>
<rect x="147.7" y="801.2" class="st7" width="134.2" height="24.8"/>
<path class="st8" d="M410.3,808.6l-16.8-0.1v12.1h16.8l0.2,6.2c3.3-1.2,13.4-8.9,16.7-10.5l2.3-1.8c-2.4-2-6.1-3.8-9.2-6
	c-1.9-1.4-8-5.6-10.2-6.1C410.8,804.3,410.7,806.8,410.3,808.6z"/>
<path class="st8" d="M319.7,809.4l16.8-0.1l0.1,12.1h-16.8l-0.2,6.2c-3.3-1.2-13.4-8.9-16.7-10.5l-2.3-1.8c2.5-2,6.1-3.8,9.3-6
	c1.8-1.3,8-5.6,10.2-6.1C319.3,805,319.4,807.5,319.7,809.4z"/>
<rect x="560.7" y="726.8" class="st3" width="12.9" height="27.8"/>
<polygon class="st9" points="147.7,806.9 282,806.9 282,822.2 147.7,822.2 "/>
<rect x="147.7" y="822.2" class="st10" width="134.2" height="3.8"/>
<rect x="457.1" y="802.4" class="st9" width="20.8" height="22.9"/>
<rect x="470.5" y="802.4" class="st11" width="7.5" height="22.9"/>
<path class="st4" d="M343.8,658.7"/>
<g id="Lights">
	<path class="st12" d="M390.5,636.7c-6.7,2-3.2,9,3.1,7.6C400.2,642.8,396.7,634.8,390.5,636.7z"/>
	<path class="st13" d="M451.9,636.8c-1.9,0.6-2.1,0.6-2.9,1.9c-1.9,3.3,1.8,6.8,6.5,5.5C461.9,642.4,458.3,634.8,451.9,636.8z"/>
	<path class="st13" d="M359.7,636.7c-6.3,1.7-3.6,9,3.1,7.6C369.2,642.9,366.3,634.9,359.7,636.7z"/>
	<path class="st13" d="M328.8,636.7c-6.7,2-3.2,8.9,3.1,7.6C338.6,642.8,335.1,634.9,328.8,636.7z"/>
	<path class="st12" d="M267.2,636.7c-6.6,1.9-3.3,8.9,3.1,7.6C277.1,642.9,273.5,634.9,267.2,636.7z"/>
	<path class="st14" d="M297.9,636.8c-3.1,1.1-4.3,3-3.1,5.1c1,1.8,3.3,3.1,6.6,2.4C307.9,642.6,304,634.7,297.9,636.8z"/>
	<path class="st13" d="M236.4,636.7c-6.5,1.9-3.5,8.9,3.1,7.6c2.5-0.4,4.6-2.7,3.5-5.1C242.2,637.6,239.3,635.9,236.4,636.7z"/>
	<path class="st14" d="M205.5,636.8c-6.5,1.9-3.2,8.8,3.1,7.5C215.4,642.8,211.9,634.9,205.5,636.8z"/>
	<path class="st13" d="M174.8,636.7c-6.6,2-3.2,8.9,3.1,7.6C184.4,642.9,181.3,634.8,174.8,636.7z"/>
	<path class="st12" d="M143.7,636.7c-6.6,1.9-3.3,8.9,3.1,7.6C153.5,642.9,149.9,634.9,143.7,636.7z"/>
	<path class="st13" d="M112.8,636.7c-6.5,1.9-3.5,8.9,3.1,7.6c2.5-0.4,4.6-2.7,3.5-5.1C118.6,637.6,115.7,635.9,112.8,636.7z"/>
	<path class="st14" d="M82,636.8c-6.5,1.9-3.2,8.8,3.1,7.5C91.9,642.8,88.4,634.9,82,636.8z"/>
	<path class="st12" d="M421.3,636.6c-6.2,1.6-3.8,9.1,3.1,7.6C430.3,643,428.2,634.9,421.3,636.6z"/>
	<path class="st12" d="M484.4,636.7c-6.7,2-3.2,9,3.1,7.6C494.2,642.8,490.6,634.8,484.4,636.7z"/>
	<path class="st13" d="M545.9,636.8c-1.9,0.6-2.1,0.6-2.9,1.9c-1.9,3.3,1.8,6.8,6.5,5.5C555.8,642.4,552.2,634.8,545.9,636.8z"/>
	<path class="st12" d="M515.2,636.6c-6.2,1.6-3.8,9.1,3.1,7.6C524.2,643,522.2,634.9,515.2,636.6z"/>
	<path class="st12" d="M390.5,581.1c-6.7,2-3.2,9,3.1,7.6C400.2,587.2,396.7,579.2,390.5,581.1z"/>
	<path class="st13" d="M451.9,581.2c-1.9,0.6-2.1,0.6-2.9,1.9c-1.9,3.3,1.8,6.8,6.5,5.5C461.9,586.8,458.3,579.2,451.9,581.2z"/>
	<path class="st13" d="M359.7,581.1c-6.3,1.7-3.6,9,3.1,7.6C369.2,587.4,366.3,579.4,359.7,581.1z"/>
	<path class="st13" d="M328.8,581.1c-6.7,2-3.2,8.9,3.1,7.6C338.6,587.3,335.1,579.3,328.8,581.1z"/>
	<path class="st12" d="M267.2,581.1c-6.6,1.9-3.3,8.9,3.1,7.6C277.1,587.4,273.5,579.3,267.2,581.1z"/>
	<path class="st14" d="M297.9,581.2c-3.1,1.1-4.3,3-3.1,5.1c1,1.8,3.3,3.1,6.6,2.4C307.9,587,304,579.1,297.9,581.2z"/>
	<path class="st13" d="M236.4,581.1c-6.5,1.9-3.5,8.9,3.1,7.6c2.5-0.4,4.6-2.7,3.5-5.1C242.2,582.1,239.3,580.3,236.4,581.1z"/>
	<path class="st14" d="M205.5,581.2c-6.5,1.9-3.2,8.8,3.1,7.5C215.4,587.3,211.9,579.3,205.5,581.2z"/>
	<path class="st13" d="M174.8,581.1c-6.6,2-3.2,8.9,3.1,7.6C184.4,587.4,181.3,579.2,174.8,581.1z"/>
	<path class="st12" d="M143.7,581.1c-6.6,1.9-3.3,8.9,3.1,7.6C153.5,587.4,149.9,579.3,143.7,581.1z"/>
	<path class="st13" d="M112.8,581.1c-6.5,1.9-3.5,8.9,3.1,7.6c2.5-0.4,4.6-2.7,3.5-5.1C118.6,582.1,115.7,580.3,112.8,581.1z"/>
	<path class="st14" d="M82,581.2c-6.5,1.9-3.2,8.8,3.1,7.5C91.9,587.3,88.4,579.3,82,581.2z"/>
	<path class="st14" d="M82,609c-6.5,1.9-3.2,8.8,3.1,7.5C91.9,615.2,88.4,607.2,82,609z"/>
	<path class="st12" d="M421.3,581.1c-6.2,1.6-3.8,9.1,3.1,7.6C430.3,587.4,428.2,579.3,421.3,581.1z"/>
	<path class="st12" d="M484.4,581.1c-6.7,2-3.2,9,3.1,7.6C494.2,587.2,490.6,579.2,484.4,581.1z"/>
	<path class="st13" d="M545.9,581.2c-1.9,0.6-2.1,0.6-2.9,1.9c-1.9,3.3,1.8,6.8,6.5,5.5C555.8,586.8,552.2,579.2,545.9,581.2z"/>
	<path class="st12" d="M515.2,581.1c-6.2,1.6-3.8,9.1,3.1,7.6C524.2,587.4,522.2,579.3,515.2,581.1z"/>
	<path class="st13" d="M545.9,609.1c-1.9,0.6-2.1,0.6-2.9,1.9c-1.9,3.3,1.8,6.8,6.5,5.5C555.8,614.7,552.2,607,545.9,609.1z"/>
</g>
<g id="Buttons">
	<g id="but1">
		<path class="st15" d="M164.7,772.8c1.1,1.1,1.6,2.6,2.7,3.6c1,0.9,2.7,2.1,4.3,2.8c8.9,4.1,25.6,4,32.2-5l0.7-0.9
			c-0.1-5.1-1.4-7-5.5-9.2c-7.7-4.1-20.1-4.3-28-0.3C167,765.8,164.8,767.7,164.7,772.8z"/>
		<path class="st16" d="M204.5,773.3l-0.7,0.9c-6.5,9-23.2,9-32.2,5c-1.6-0.7-3.3-1.8-4.3-2.8c-1.1-1-1.6-2.5-2.7-3.6
			c0,4.7,2.3,7,6,8.9c3.6,1.8,8.4,2.8,13.6,2.9C194.5,784.6,204.8,781,204.5,773.3z"/>
	</g>
	<g id="but5">
		<path class="st17" d="M411.6,772.6c1.4,1.8,1.7,4.4,6.8,6.7c7.2,3.1,18.1,3.5,25.3,0.3c6.9-3,5.7-4.8,7.6-6c0-2.6,0.1-4.1-1.4-5.9
			c-5.1-7-23.1-8.7-32.2-3.8C413.5,766.1,411.8,767.5,411.6,772.6z"/>
		<path class="st18" d="M451.3,773.4c-1.9,1.3-0.7,3-7.6,6c-7.2,3.1-18.1,2.8-25.3-0.3c-5.1-2.3-5.4-4.8-6.8-6.7
			c-0.2,4.5,1.9,7.2,5.7,9c3.9,1.9,7.9,2.9,13.5,3C440.4,784.7,451.5,781.3,451.3,773.4z"/>
	</g>
	<g id="but3">
		<path class="st19" d="M288.2,772.8c1.7,3.1,3,4.7,6.8,6.4c7.3,3.2,17.8,3.5,25.2,0.4c4.8-2.1,4.6-2.9,7.6-6.1
			c0-2.8,0.4-3.7-1.3-5.9c-5.6-7.4-22.9-8.6-32.4-3.7C290.1,766,288.2,768.2,288.2,772.8z"/>
		<path class="st20" d="M327.8,773.4c-3,3.2-2.7,4.1-7.6,6.1c-7.4,3.1-18,2.8-25.2-0.4c-3.8-1.7-5-3.3-6.8-6.4
			c-0.1,5,1.8,6.7,5.9,8.9c3.5,1.8,8.4,2.8,13.6,2.9C317.6,784.6,328.1,781.3,327.8,773.4z"/>
	</g>
	<g id="but2">
		<path class="st6" d="M224.2,772.6c1.4,1.8,1.7,4.4,6.8,6.7c7.2,3.1,18.1,3.5,25.3,0.3c6.9-3,5.7-4.8,7.6-6c0-2.6,0.1-4.1-1.4-5.9
			c-5.1-7-23.1-8.7-32.2-3.8C226.1,766.1,224.4,767.5,224.2,772.6z"/>
		<path class="st21" d="M263.9,773.4c-1.9,1.3-0.7,3-7.6,6c-7.2,3.1-18.1,2.8-25.3-0.3c-5.1-2.3-5.4-4.8-6.8-6.7
			c-0.2,4.5,1.9,7.2,5.7,9c3.9,1.9,7.9,2.9,13.5,3C253,784.7,264.1,781.3,263.9,773.4z"/>
	</g>
	<g id="but4">
		<path class="st22" d="M351.8,772.8c1,1.1,1.6,2.6,2.7,3.6c1,0.9,2.7,2.1,4.2,2.8c9,4.1,25.7,4,32.2-5l0.7-0.9
			c-0.1-5.1-1.4-7-5.6-9.2c-7.6-4.1-20.1-4.3-28-0.3C354,765.8,351.9,767.7,351.8,772.8z"/>
		<path class="st23" d="M391.5,773.3l-0.7,0.9c-6.5,9-23.2,9-32.2,5c-1.6-0.7-3.2-1.8-4.2-2.8c-1.1-1-1.6-2.5-2.7-3.6
			c0,4.7,2.3,7,6,8.9c3.6,1.8,8.4,2.8,13.6,2.9C381.5,784.6,391.7,781,391.5,773.3z"/>
	</g>
</g>
<g id="slot3">
	<path id="slot1_1_" class="st4" d="M318.7,753.4h49c20.9,0,44.6,0.3,65-0.1l-0.1-104.7c-37.3-0.2-76.9,0.4-113.9-0.1V753.4
		L318.7,753.4z"/>
</g>
<g id="slot2">
	<path id="slot1_2_" class="st4" d="M198.5,753.4h49c20.9,0,44.6,0.3,65-0.1l-0.1-104.7c-37.3-0.2-76.9,0.4-113.9-0.1V753.4
		L198.5,753.4z"/>
</g>
<g id="slot4">
	<path id="slot1_3_" class="st4" d="M439,753.4h49c20.9,0,44.6,0.3,65-0.1l-0.1-104.7c-37.3-0.2-76.9,0.4-113.9-0.1L439,753.4
		L439,753.4z"/>
</g>
<g class="st24">
	<path class="st14" d="M277.8,616.3c0,0.5-0.1,1.2-0.2,1.9c0,0-0.1,0-0.1-0.1c-0.1,0-0.1,0.2-0.1,0.3l0,0.3c0,0.1-0.1,0.3-0.2,0.6
		c-0.1,0.1-0.2,0.2-0.3,0.4c0,0.1-0.1,0.3-0.2,0.5c-0.4,0.5-0.7,0.8-1.1,0.9c-0.2,0.1-0.4,0.3-0.6,0.5c-0.8,0.4-1.7,0.6-2.6,0.6
		c-0.5,0-0.9,0-1.2-0.1c-0.1-0.1-0.1-0.1-0.2-0.1c0,0-0.1,0-0.1,0s-0.1,0-0.1,0c-0.3,0-0.7-0.2-1.4-0.5s-1.1-0.5-1.3-0.5
		c-0.5,0.7-0.9,1.1-1.1,1.1h-1.4c-0.1-0.1-0.3-0.4-0.6-0.7v-2.3c0,0,0-0.3,0-0.8s0-0.8,0-0.8v-1.3h0c0.1-0.1,0-0.4,0-0.7
		c0,0,0.1-0.1,0.2-0.3c0.2-0.2,0.3-0.3,0.4-0.3c0.5,0,0.9,0,1.1,0c0.2,0,0.3,0,0.3,0c0.2,0,0.3,0.2,0.5,0.5c0,0.2,0.1,0.4,0.3,0.7
		c0,0,0.1,0.3,0.4,0.7c0.2,0.3,0.3,0.5,0.2,0.7c0.1,0,0.2,0.1,0.3,0.2c0,0.1,0.1,0.2,0.2,0.3c0.1,0,0.2,0,0.3,0.2
		c0.2,0.2,0.3,0.3,0.4,0.3c0.4,0.2,0.8,0.3,1.3,0.3h0.8c0.5,0,0.8-0.1,1.1-0.4c0.3-0.3,0.4-0.6,0.4-1.1c0-0.6-0.3-1-1-1.5
		c-0.4-0.2-1.1-0.6-2.2-1c-1-0.4-1.8-0.8-2.4-1.2c-0.9-0.6-1.5-1.3-1.9-2.2c-0.3-0.7-0.5-1.3-0.5-1.9l0-2.3c0.2-1.1,0.7-2.1,1.5-2.9
		c0,0,0,0.1,0,0.1c0.4-0.6,1-1,1.8-1.3c0.7-0.3,1.4-0.4,2.2-0.4c0.7,0,1.5,0.1,2.4,0.3c0.9,0.2,1.3,0.4,1.3,0.4c0,0,0.2-0.1,0.4-0.2
		c0.2-0.1,0.4-0.2,0.4-0.2h1.4c0.4,0.4,0.6,0.6,0.6,0.6c0,0,0,0.2,0,0.4l-0.2,3.6v1.2c0,0.1,0,0.2,0,0.2c-0.1,0.1-0.3,0.3-0.4,0.4
		h-0.7c0.2-0.1,0.4-0.2,0.7-0.3c0.1,0,0.2-0.1,0.2-0.2c0-0.1,0-0.2-0.1-0.3c0,0.1-0.1,0.2-0.3,0.2c-0.8,0-1.2,0-1.2,0
		c-0.1-0.1-0.2-0.4-0.4-0.9c-0.1-0.4-0.3-0.7-0.6-0.8c0,0,0,0,0.1-0.1c-0.2-0.1-0.4-0.3-0.6-0.5c0,0-0.1,0-0.2-0.1
		c-0.2-0.2-0.5-0.4-1-0.6c0.2,0,0.3,0,0.5,0c-0.3-0.1-0.4-0.2-0.3-0.2c0,0-0.1,0-0.2,0c-0.1,0-0.1,0-0.2,0c0.1,0,0,0-0.2-0.1
		c-0.1,0-0.2,0-0.4,0c-0.3-0.1-0.5-0.1-0.6-0.1c-0.5,0-0.9,0.1-1.2,0.4s-0.6,0.7-0.7,1.3c0,0.3-0.1,0.5-0.1,0.4
		c0,0.6,0.4,1.2,1.2,1.6c0.7,0.4,1.3,0.6,1.9,0.6c0,0,0.1,0,0.1,0c0.1,0,0.5,0.2,1.4,0.6c0.2,0.1,0.6,0.2,1.1,0.3
		c0.1,0.1,0.4,0.3,0.7,0.6c0.8,0.5,1.5,1.4,2,2.8l0,0.1C277.7,615.1,277.8,615.6,277.8,616.3z M277,614.3c-0.1-0.2-0.2-0.3-0.2-0.3
		c0,0,0,0,0,0c0,0,0,0-0.1,0c0,0-0.1-0.1-0.2-0.3s-0.2-0.3-0.2-0.3s0,0,0,0c0,0,0,0-0.1,0c-0.1,0-0.2,0-0.1-0.1c0,0,0.1-0.1,0-0.1
		h-0.2c-0.1,0-0.2-0.1-0.3-0.3c0.1,0,0.1,0,0.2-0.1c-0.2-0.1-0.3-0.1-0.4-0.1c0-0.1,0-0.2,0-0.1c-0.2-0.2-0.6-0.4-1.1-0.8h-0.2
		l0.1,0.1c0,0-0.1,0-0.2,0c-0.1,0.7-0.4,1.8-0.7,3.3c0,0,0,0.1-0.1,0.2c0.1,0.1,0.2,0.2,0.3,0.3c-0.1,0.1-0.1,0.1-0.1,0.2
		c0,0.1,0.1,0.3,0.4,0.6c0.2,0.3,0.4,0.5,0.4,0.7c-0.1,0.1-0.1,0.2-0.1,0.1c0.1,0.2,0.2,0.4,0.2,0.5c0,0,0,0.1-0.1,0.2
		c0,0.1,0.1,0.2,0,0.3c-0.1,0.3-0.3,0.5-0.4,0.5c0,0,0-0.1,0-0.1c-0.1,0.2-0.3,0.4-0.5,0.6c0,0,0,0,0,0c0,0.1-0.3,0.2-0.6,0.4
		c0,0,0,0,0-0.1c0,0,0,0,0,0c0,0-0.2,0-0.4,0.1s-0.3,0.1-0.4,0.1c-0.6,0-1.1-0.1-1.6-0.3c-0.6-0.2-1-0.5-1.4-0.7
		c-0.1,0-0.4-0.3-1-0.9c0,0,0-0.1,0-0.1c-0.1-0.2-0.2-0.4-0.4-0.7c0,0,0.1,0,0.1,0c0-0.1-0.1-0.2-0.3-0.5c-0.2-0.3-0.3-0.5-0.3-0.6
		c0,0,0-0.1,0-0.1c-0.2,0-0.4,0-0.7,0c-0.1,0.5-0.2,0.9-0.2,1.1c0,0.1,0.1,0.2,0.2,0.2l0,0.9c0-0.1-0.1-0.1-0.1-0.2
		c0,0,0,0.1-0.1,0.1l0,0.1c0,0,0,0.1,0.1,0.3s0.1,0.3,0.1,0.3c0,0.1,0,0.4,0,0.7c0,0,0,0.1,0,0.1c0,0,0,0.1,0,0.1
		c0,0.9,0,1.4-0.1,1.5c0.1-0.1,0.3-0.1,0.4-0.1c0,0,0.1,0,0.2,0c0.1,0,0.1,0,0.2,0c0,0,0.1,0,0.1,0c0,0,0.1,0,0.1,0
		c0-0.1,0.1-0.2,0.1-0.3c0.2-0.2,0.4-0.4,0.6-0.5c0,0-0.1,0-0.3,0.1c0,0,0-0.1,0.1-0.2c0.1-0.1,0.2-0.1,0.2-0.1c0.5,0,0.9,0,1.1,0.1
		c-0.1,0-0.1,0-0.2,0c0.1,0.1,0.2,0.1,0.2,0.1c0,0,0.1,0,0.1,0c0,0,0.1,0,0.1,0s0.1,0,0.1,0.1c0,0-0.1,0-0.1,0
		c0.2,0.1,0.5,0.2,0.9,0.3c0.1,0.1,0.2,0.2,0.4,0.3c0,0,0.2,0.1,0.5,0.1c0.2,0,0.4,0.1,0.4,0.3h0.3l0.3-0.1c0,0,0.2,0,0.5,0
		c0.3,0,0.4,0,0.4,0c0,0,0.3-0.1,0.8-0.2c0.5-0.2,0.8-0.2,1.1-0.3c0.1,0,0.1,0,0.2,0c0,0-0.1-0.1-0.2-0.1c0.2-0.1,0.6-0.4,1-0.7
		c0.1-0.1,0.2-0.3,0.3-0.5c0,0,0.1,0,0.2-0.1c0-0.2,0.1-0.3,0.1-0.4c0.1-0.1,0.2-0.3,0.3-0.3c0-0.2,0-0.4,0.1-0.5
		c0.1-0.1,0.1-0.2,0.1-0.2v-1.1c0-0.7,0-1.2,0-1.4c-0.1,0-0.1,0-0.1-0.1c0.1,0,0.2-0.1,0.2-0.2l-0.4-0.7c0,0,0.1,0,0.1,0
		c0-0.1,0-0.2,0-0.2c0,0,0.1,0.1,0.2,0.1c0.1,0.1,0.2,0.1,0.2,0.1c0-0.2,0-0.3,0-0.3L277,614.3z M266.1,618.6L266.1,618.6l-0.1-0.1
		h0.1V618.6z M269,611.1c0-0.1-0.1-0.1-0.1-0.2s-0.1-0.2-0.1-0.3c-0.1-0.1-0.2-0.3-0.5-0.6s-0.5-0.6-0.5-0.8c0,0,0,0-0.1,0.1
		c0,0,0-0.1,0-0.2c-0.1,0.2-0.2,0.5-0.4,0.9c-0.2,0.3-0.4,0.6-0.7,0.9c0,0.1-0.1,0.2-0.1,0.4c0,0.1,0.1,0.3,0.3,0.4
		c0.2,0.2,0.4,0.2,0.5,0.2c0.1,0,0.3,0,0.4-0.1c0,0,0.1,0.1,0.2,0.1c0,0,0,0,0,0.1c0.1,0,0.2,0.1,0.2,0.1c0,0,0.1,0,0,0c0,0,0,0,0,0
		c0,0,0.1,0,0,0s0,0,0,0c0.1,0,0.3-0.1,0.4-0.2l0.1,0.1c0.2-0.2,0.3-0.4,0.3-0.4c0,0,0-0.1,0-0.1s0,0,0,0c0,0,0,0,0.1,0
		c0-0.1,0-0.2,0-0.3C269,611.2,269.1,611.2,269,611.1z M269.1,606.9c0-0.1-0.1-0.2-0.2-0.3c-0.2-0.3-0.5-0.4-0.7-0.4
		c-0.2,0-0.3,0-0.5,0.1c-0.2-0.2-0.3-0.3-0.4-0.3c0,0-0.1,0-0.2,0c-0.1,0-0.1,0-0.2,0c-0.1,0.1-0.2,0.2-0.5,0.4c0,0,0,0.1,0,0.2
		l-0.1-0.1c0,0,0,0.1,0,0.1c0,0.1,0.1,0.2,0,0.2l-0.1,0.1c0,0,0.1,0.1,0.2,0.5c0.1,0.2,0.3,0.4,0.6,0.7s0.5,0.6,0.5,0.8
		c0,0,0,0,0.1-0.1c0,0,0,0.1,0,0.1c0,0.1,0,0.1,0,0.1c0.1-0.4,0.5-1,1-1.7C269,607.2,269.1,607.1,269.1,606.9z M267.6,609.4
		l-0.1,0.2l0,0L267.6,609.4L267.6,609.4z M268,608.6l-0.1,0.2l-0.1,0L268,608.6L268,608.6z M273.7,606.4l-0.3-0.2l0,0L273.7,606.4
		L273.7,606.4z M274.7,607.9l0,0.2l0,0L274.7,607.9L274.7,607.9z M274.9,608.6L274.9,608.6l-0.1-0.1l0.1,0L274.9,608.6z
		 M276.4,613.8L276.4,613.8l-0.2-0.1l0.1,0L276.4,613.8z M276.7,608.8v-0.1h-0.1L276.7,608.8L276.7,608.8z"/>
	<path class="st14" d="M293.6,609.1c0,1-0.3,1.9-0.8,2.8c-0.6,1-1.4,1.7-2.5,2.1c-0.2,0.1-0.5,0.2-0.8,0.4c-0.3,0.1-0.8,0.1-1.4,0.1
		h-1.6c-0.5,0-0.7,0-0.8,0c-0.1,0-0.2,0.1-0.4,0.1c0,0-0.2,0.1-0.4,0.3l-0.1,0.1v2.5c0,0.3,0.1,0.9,0.2,1.6c0.1,0.2,0.2,0.4,0.5,0.6
		c0,0,0.3,0.1,0.7,0.1c0.3,0.1,0.5,0.2,0.5,0.3c0,0.3,0.1,0.6,0.1,1.2c0,0.3,0,0.5,0,0.6c-0.1,0.2-0.2,0.3-0.5,0.3
		c-0.2,0-0.4,0-0.5,0c0,0-0.1,0-0.1,0c0,0,0,0,0,0c0,0,0,0,0,0c0,0-0.3,0-0.7,0c-0.4,0-0.7,0-0.7,0c0,0-0.1,0-0.1,0s-0.1,0-0.1,0
		c0,0-0.2,0-0.3,0.1c-0.2,0.1-0.3,0.1-0.3,0.1c-0.8,0-1.2,0-1,0c-0.2,0-0.5,0-1,0c-0.5,0-0.7,0-0.8,0c0,0-0.1,0-0.1,0
		c0,0-0.1,0-0.1,0c0,0-0.1,0-0.2,0c-0.1,0-0.2,0-0.2,0c0,0-0.1-0.1-0.3-0.3s-0.2-0.3-0.2-0.3c0-0.6,0-1,0-1.2s0-0.4,0-0.3
		c0-0.1,0.2-0.3,0.6-0.6v0.2c0,0,0,0,0.1,0c0.2,0,0.3-0.1,0.3-0.2c0.1,0,0.2,0,0.4-0.1c0.2-0.3,0.3-0.5,0.3-0.7c0,0,0,0,0.1-0.1
		c0-0.1,0-0.3-0.1-0.4v0V617v-6.1c0-0.2,0-0.5,0.1-0.8c0,0,0,0,0-0.1c0,0,0-0.1,0-0.1c0-0.3,0-0.6,0-1.1c0-0.5,0-0.9,0-1.1
		c0,0,0,0,0,0.1l0,0v0c0,0,0.1,0,0.1,0c0,0,0-0.1-0.1-0.2c0-0.1,0-0.4-0.1-0.7c-0.1-0.3-0.2-0.5-0.3-0.5c-0.1,0-0.2,0-0.5,0
		c-0.2,0-0.3-0.1-0.4-0.2c0,0-0.2-0.2-0.4-0.6v0c0,0,0-0.2,0-0.3c0,0,0.1-0.1,0.1-0.2c0,0,0-0.1-0.1-0.1c0,0-0.1-0.1-0.1-0.1
		c0,0,0-0.1,0-0.2c0-0.1,0.1-0.2,0.1-0.2c0-0.1,0-0.2,0-0.3c0.1-0.1,0.2-0.2,0.4-0.4c0.2-0.1,0.5-0.1,0.9-0.2c0.3,0,0.7,0,1.2-0.1
		l2.7-0.1h3.7c0.4,0,0.9,0.1,1.6,0.3c0.7,0.2,1.1,0.4,1.3,0.5c0.2,0.1,0.5,0.4,0.9,0.8c0.4,0.5,0.7,1,0.9,1.3
		c0.3,0.6,0.5,1.4,0.5,2.2c0,0-0.1,0-0.1,0c0,0,0,0.1,0.1,0.2s0.1,0.2,0.1,0.2C293.6,608.6,293.6,608.8,293.6,609.1z M289.8,609.9
		c0-0.7-0.4-1.4-1.1-2.1c-1-1-1.7-1.8-2.1-2.4c0,0-0.1,0.2-0.3,0.4c-0.3,0.5-1,1.2-1.9,2.1c-0.6,0.6-0.9,1.1-0.9,1.6
		c0,0.3,0.1,0.6,0.2,0.8c0.2,0.3,0.4,0.4,0.7,0.4c0.3,0,0.6-0.1,0.9-0.4c0.3-0.2,0.6-0.5,0.7-0.9h0.3c0,0.1,0,0.1,0,0.3s0,0.2,0,0.2
		c0,0.3-0.1,0.7-0.3,1.1c-0.2,0.4-0.3,0.7-0.5,0.9c0.2,0,0.3-0.1,0.4-0.1c0.9,0,1.3,0,1.2,0c-0.4-0.5-0.6-1.3-0.6-2.2
		c0,0,0.1-0.1,0.2-0.2c0.1,0.2,0.3,0.5,0.7,0.8c0.4,0.3,0.7,0.5,1,0.5c0.4,0,0.7-0.2,0.9-0.5C289.8,610.3,289.8,610.1,289.8,609.9z
		 M292.7,608.3c0,0-0.1-0.3-0.3-0.8c0-0.2-0.1-0.5-0.2-0.9c0,0-0.1-0.3-0.4-0.7c0.1,0,0.2,0,0.2,0c-0.3-0.6-1.1-1.2-2.5-1.9
		c-0.2-0.1-0.4-0.1-0.8-0.1c0.1,0,0.1,0,0,0c-0.1,0-0.3,0-0.5-0.1c0,0.1,0,0.1-0.1,0.1c-0.1,0-0.2-0.1-0.5-0.2
		c-0.1,0.1-0.1,0.2-0.2,0.2c0-0.1-0.1-0.1-0.1-0.1c0,0,0,0-0.1,0.1c0,0-0.1,0-0.3,0c-0.2,0-0.2,0-0.3,0H286c-0.1,0-0.1,0-0.1-0.1
		c0,0,0,0-0.2,0c0,0,0,0-0.1,0.1c-0.1,0-0.1,0-0.3,0c-0.1,0-0.2,0-0.2,0c-0.3,0-0.5,0-0.5,0c0-0.1,0-0.2,0-0.2c-0.1,0-0.1,0-0.1-0.1
		c-0.2,0-0.3,0.1-0.3,0l1.5,2.9c0.2-0.2,0.4-0.5,0.7-0.8c0.1-0.2,0.2-0.3,0.2-0.5c0-0.1,0.1-0.1,0.2-0.1c0,0,0.1,0,0.1,0
		c0.1,0.3,0.4,0.8,1,1.5c0.1,0.1,0.5,0.4,1,0.9c0.4,0.3,0.7,0.7,0.9,1.2c0.2,0.4,0.3,0.7,0.3,0.9c0,0,0,0.1,0,0.2
		c0,0.3-0.1,0.6-0.4,0.9c-0.3,0.3-0.6,0.4-0.9,0.4c-0.2,0-0.4,0-0.6-0.1c0,0,0-0.1,0-0.1c0,0,0,0-0.1,0c-0.1,0-0.2,0-0.3-0.1
		c-0.2-0.2-0.4-0.4-0.7-0.6v0.3c0,0,0.1,0.1,0.1,0.1s0,0.2,0.1,0.4c0,0-0.1,0-0.1,0l0.1,0.2c0,0,0,0,0,0c0,0.1,0,0.3,0.2,0.5
		c0,0.2,0.1,0.4,0.4,0.7c0,0,0,0.1,0,0.1c0.2,0.2,0.3,0.5,0.6,0.8c0.1,0.1,0.1,0.3,0.2,0.5l2.9-1.1c0.1-0.2,0.3-0.5,0.6-0.9
		c0,0,0.1,0,0.2-0.1c0,0,0-0.1,0-0.1c0-0.1,0.1-0.2,0.2-0.5c0.1-0.2,0.2-0.3,0.2-0.4c0.1-0.4,0.1-0.6,0.1-0.7v-1.5
		C292.7,608.5,292.7,608.4,292.7,608.3C292.7,608.4,292.7,608.4,292.7,608.3L292.7,608.3z"/>
	<path class="st14" d="M308.4,610.5c0,0.9,0,1.4,0,1.7c-0.1,0.7-0.1,1.2-0.2,1.5c0,0.4,0,0.8,0,1.2c-0.2-0.1-0.3-0.3-0.3-0.4
		s-0.1-0.3-0.2-0.5V611c0-0.1,0-0.3,0.1-0.6c0-0.3,0.1-0.4,0.1-0.5c0,0,0-0.1-0.1-0.3c0-0.2,0-0.4,0-0.5c-0.1-0.1-0.2-0.2-0.2-0.4
		c0-0.3-0.1-0.5-0.1-0.5l-0.5-1c0-0.1-0.1-0.3-0.3-0.6l0,0c-0.2-0.2-0.5-0.6-0.9-1.1c-0.1-0.1-0.3-0.3-0.4-0.5l0,0
		c-0.3-0.2-0.6-0.5-1.1-0.7c-0.4-0.2-0.8-0.4-1.2-0.5c-0.1-0.1-0.3-0.1-0.6,0c0,0-0.2-0.1-0.3-0.1c-0.2,0-0.3,0-0.4,0
		c0,0-0.1,0-0.1,0v1.8c0,0,0,0.1,0.1,0.1c0.5-0.1,0.6-0.2,0.5-0.2c0,0,0,0.1,0,0.1s0.1,0,0.1-0.1c0,0,0.1-0.1,0.1-0.1
		c0,0,0.1,0,0.1,0c0,0,0.1,0.1,0.1,0.1c0,0,0.1,0.1,0.1,0.2c0,0.1,0.1,0.2,0.2,0.2c0,0,0,0,0,0c0,0,0,0,0,0c0,0,0.1,0.1,0.2,0.2
		c0.1,0.1,0.2,0.2,0.2,0.2l-0.1,0.1c0.3,0.4,0.4,0.8,0.5,1.4c0,0,0.1,0.1,0.1,0.1c0,0-0.1,0.1-0.1,0.2s-0.1,0.1-0.1,0.1
		c0,0,0,0.1,0.1,0.2c0.1,0.1,0.1,0.1,0.1,0.2c0,0.1-0.1,0.1-0.2,0.1c0.1,0.1,0.2,0.2,0.2,0.3c0,0.2,0,0.5-0.1,0.7
		c0,0-0.1,0.1-0.1,0.2c0.1,0,0.2,0.1,0.2,0.2v0.1c0,0,0,0-0.1,0c0,0-0.1,0-0.1,0l-0.1,0.1c0,0.1,0.1,0.2,0.2,0.2c0,0.1,0,0.2,0,0.3
		c0,0.1,0.1,0.1,0.1,0.1c0,0.1,0,0.4-0.1,0.7v0c0,0-0.1,0-0.1,0.1c0,0,0.1,0,0.2,0.1v0.3h-0.1c0,0.1,0,0.2,0,0.4c0,0,0.1,0,0.1,0
		s0.1,0,0.1,0c0,0.1,0,0.3,0,0.5c0,0,0,0,0,0v0.9c-0.1,0-0.1,0-0.2,0c0,0.1,0.1,0.2,0.2,0.2c0,0.9,0.1,1.2,0.1,1.1
		c0,0-0.1,0-0.1,0.1c0,0,0,0,0.1,0c0,0,0,0,0,0c0,0.3,0,0.5,0,0.6c0,0,0,0.1,0.1,0.2c0,0.1,0,0.3,0,0.6c0,0,0,0.1-0.1,0.2
		c0,0.2,0.1,0.4,0.1,0.7c0,0.3-0.1,0.4-0.3,0.5c0,0,0,0.1,0.1,0.2v0.2c0,0,0,0-0.1,0c0,0-0.1,0-0.1,0c0,0-0.1-0.1-0.2-0.2
		c0.1,0,0,0-0.1,0.1c0,0,0.1,0,0.2,0.1c0.1,0,0.1,0.1,0.1,0.2c0,0,0-0.1,0-0.1l0,0.1l0.1,0.1c0,0.1,0,0.1,0,0.1c0,0.1,0,0.1,0.1,0.2
		c0,0,0,0,0,0.1c0,0,0,0.1,0,0.1c0,0-0.1,0-0.1-0.1c0,0,0,0-0.1,0c0,0.1,0.1,0.2,0.1,0.2c0,0-0.1,0-0.1,0c0,0.1-0.1,0.1-0.1,0.2
		c-0.1,0.1-0.2,0.2-0.4,0.4c0,0,0.1,0,0.2,0c0,0-0.1,0.2-0.3,0.4c0.1,0,0,0-0.3-0.1c-0.1,0.2-0.1,0.3-0.1,0.3c0-0.1-0.1-0.1-0.1-0.1
		c-0.2,0-0.2,0-0.2,0.1c0,0,0,0,0,0c0,0,0,0-0.1,0c0,0,0,0,0,0c0,0,0,0,0,0c0,0-0.1,0-0.2-0.1l0,0v0.5c0.1,0,0.2,0.1,0.2,0.1
		c0,0,0.1,0,0.2,0c0.1,0,0.1,0,0.2,0c0,0,0.1-0.1,0-0.2c0.1,0,0.2,0,0.3-0.1c0.1,0.1,0.1,0.2,0.1,0.2c0-0.1,0.1-0.2,0.1-0.3
		c0,0,0.1,0.1,0.1,0.1c0,0.1,0.1,0.1,0.2,0.1c0,0,0-0.1,0.1-0.1c0-0.1,0.1-0.1,0.1-0.2c0,0,0.1,0,0.2,0c0.1,0,0.1,0,0.2,0
		c0,0.2,0.1,0.3,0.2,0.3c0.1-0.1,0.1-0.3,0-0.5c0.1,0,0.2,0,0.3,0.1c0,0,0,0,0.1-0.1l0-0.2c0,0,0-0.1,0-0.1c0,0,0.1,0,0.1,0
		s0.1,0,0.1,0c0,0,0,0.1-0.1,0.2l0.1,0.1c0,0,0.1-0.1,0.2-0.2c0,0,0-0.1-0.1-0.1c0,0,0,0,0.1-0.1c0,0,0.1-0.1,0.1-0.1
		c0,0-0.1,0-0.2-0.1c0-0.1,0-0.1,0-0.1s0.1-0.1,0.1-0.2h0.1c0,0.1,0.2,0.2,0.3,0.2c0.2,0,0.3,0,0.3,0l0.1-0.1c0-0.1,0-0.1-0.1-0.1
		c0.1-0.1,0.2-0.3,0.2-0.5l0.1,0.1c0.2-0.2,0.3-0.5,0.4-0.7c0,0,0.1-0.1,0.2,0c0.1-0.3,0.3-0.7,0.4-1.3h0.2c0,0,0-0.1,0-0.3
		c0-0.1,0.1-0.2,0.1-0.3h0.1c0.1-0.1,0.1-0.2,0-0.3c0-0.4,0.1-0.6,0.2-0.7c0.1,0.1,0.1,0.2,0.1,0.2c0,0-0.1,0-0.1-0.1l-0.1,0.1v0.2
		c0,0,0.1,0,0.1,0c0.1,0.1,0.1,0.2,0.1,0.3c0,0.1,0,0.3-0.1,0.5c0,0,0,0.1,0,0.4c0,0-0.1-0.1-0.2-0.3c-0.1,0-0.2,0.1-0.2,0.1
		c0,0,0,0.1,0.1,0.1s0.1,0.1,0.1,0.1c0,0,0,0-0.1,0.1c0,0,0,0.1,0,0.2c0,0.1-0.1,0.3-0.2,0.5c-0.2,0.3-0.3,0.4-0.3,0.5
		c-0.1,0.4-0.3,0.8-0.6,1.1c-0.1,0.1-0.3,0.3-0.6,0.7c-0.4,0.4-0.6,0.6-0.7,0.6l-0.1-0.1c0,0.1-0.1,0.2-0.2,0.3
		c-0.3,0.1-0.5,0.3-0.7,0.4c-0.2,0.1-0.5,0.2-0.7,0.2c0,0-0.1,0-0.1,0c0,0-0.1,0-0.1,0c0,0-0.1,0-0.2,0.1c-0.1,0.1-0.2,0.1-0.3,0.1
		c-0.5,0-0.9,0.1-1.4,0.1c-0.6,0-1-0.1-1.3-0.2c-0.1,0-0.3,0-0.6-0.1c-0.2-0.1-0.6-0.3-1.2-0.6c0,0,0,0,0-0.1c0-0.1-0.1-0.1-0.2-0.2
		l-0.1,0.1c-0.4-0.4-0.7-0.6-0.7-0.7c-0.2-0.2-0.4-0.5-0.5-0.6c-0.1-0.1-0.2-0.2-0.3-0.3c-0.2-0.2-0.4-0.6-0.6-1.1
		c0-0.2-0.1-0.5-0.2-0.9c0-0.1-0.1-0.2-0.2-0.3c-0.1-0.6-0.1-1.2-0.1-1.8v-2.7c0,0,0-0.2,0.1-0.7c0-0.5,0.1-0.8,0-1c0,0,0,0,0,0.1
		c0,0.1,0-0.3,0-1.2c0-0.7,0-1.2,0-1.4c0-0.1,0.1-0.2,0.3-0.3c0,0,0-0.1,0-0.1c0-0.1,0.1-0.2,0.2-0.3c0,0-0.1,0-0.1,0v-0.2
		c0.1-0.1,0.2-0.3,0.3-0.7c0.1-0.5,0.2-0.7,0.2-0.8c0.1-0.2,0.3-0.5,0.7-0.9c0.4-0.5,0.8-0.8,1.1-1.1c0.7-0.5,1.3-0.8,1.8-0.9
		c0.7-0.2,1.3-0.2,1.8-0.2c1.2,0,2.3,0.3,3.2,0.9c0.1,0.1,0.3,0.3,0.6,0.6c0.1,0.1,0.4,0.2,0.6,0.4c0.1,0.1,0.5,0.6,1.1,1.4
		c0,0-0.1,0-0.1,0c0,0,0.1,0.1,0.2,0.1c0.1,0.1,0.2,0.1,0.2,0.1c0.2,0.3,0.4,0.8,0.6,1.6C308.4,608.3,308.4,609.2,308.4,610.5z
		 M299.2,609.6c0,0-0.1-0.1,0-0.3c0,0,0,0-0.1,0c0,0-0.1,0-0.1,0c0,0,0,0,0-0.1c-0.1-0.2-0.2-0.3-0.3-0.4c0,0-0.1,0-0.2-0.1
		c0,0,0.1,0,0.2,0c-0.1,0-0.2-0.2-0.5-0.4c0-0.1,0-0.2,0-0.2c-0.2-0.1-0.4-0.3-0.3-0.5h-0.2c0,0.2-0.1,0.4-0.2,0.5c0,0,0,0-0.1,0
		c0,0-0.1,0-0.1,0c-0.5,0.8-0.8,1.2-0.8,1.3c0,0,0.2,0.3,0.6,0.8c0.4,0.5,0.6,0.8,0.6,0.8c0,0.1-0.1,0.3-0.3,0.5
		c-0.1,0-0.2,0.1-0.2,0.2c-0.5,0.7-0.8,1.1-0.8,1.2c0,0,0.4,0.5,1.3,1.8c0.3-0.3,0.6-0.5,0.8-0.8c0-0.2,0-0.2-0.1-0.1c0,0,0,0,0-0.1
		c0,0,0,0,0.1,0c0,0,0,0,0.1,0c0.1-0.2,0.2-0.4,0.3-0.6c0,0,0.1,0,0.1,0c0,0,0-0.1,0-0.2c0,0,0,0,0.1,0c0,0,0-0.1,0-0.3l-0.1,0
		c0,0-0.1,0-0.1,0c0,0,0,0,0-0.1c0-0.2-0.1-0.4-0.4-0.4l-0.1-0.1c0,0,0.1,0,0.2,0c-0.1,0-0.2,0-0.2,0c0,0-0.1-0.1-0.3-0.4
		c0-0.1,0-0.1,0-0.2c-0.1-0.1-0.1-0.1-0.2-0.2c-0.1-0.1-0.2-0.2-0.2-0.2c0,0,0.1-0.1,0.2-0.2c0-0.1,0.2-0.2,0.4-0.3
		c-0.1-0.2-0.1-0.2-0.1-0.2l0.1-0.1c0,0,0,0,0,0.1s0,0,0,0.1c0-0.1,0-0.1,0.1,0c0-0.1,0-0.2-0.1-0.1c0,0,0,0,0-0.1c0,0,0,0,0.1,0
		c0,0,0.1,0,0.1,0C298.8,610.2,298.9,609.9,299.2,609.6C299.2,609.6,299.2,609.6,299.2,609.6z M298.3,614.2l-0.1,0.1l0,0
		L298.3,614.2L298.3,614.2z M300.1,612.6v-0.2H300L300.1,612.6L300.1,612.6z M303.5,607.5c-0.1,0-0.1-0.1-0.1-0.2c0-0.1,0-0.2,0-0.1
		c-0.1-0.1-0.2-0.3-0.4-0.5c-0.3-0.4-0.6-0.6-0.9-0.6c-0.5,0-0.9,0.2-1.1,0.7c-0.1,0.2-0.2,0.7-0.3,1.4c0,0,0,0.1-0.1,0.2
		s-0.1,0.1-0.1,0.2c0,0,0,0.1,0,0.2s0,0.2,0,0.2c0,0.4,0,0.7,0,1.1c0,0.1,0,0.2,0.1,0.2v1.1c0,0,0,0.2-0.1,0.5
		c0,0.3-0.1,0.5-0.1,0.5v1.4c0,0.1,0,0.3-0.1,0.5c-0.1,0.3-0.1,0.8-0.1,1.7c-0.1-0.1-0.3-0.2-0.3-0.3c0,0,0,0,0,0.1c0,0,0,0.1,0,0.1
		c0-0.1,0,0,0,0.4c0,0,0,0.1,0,0.2c0,0.1,0,0.1,0,0.2c0,0,0,0,0.1,0.1c0,0.1,0,0.2,0,0.3c0,0.1,0,0.2,0,0.3c0,0.1,0,0.1,0,0
		c0,0-0.1,0-0.1,0c0.1,0.1,0.1,0.2,0.2,0.4c0,0.2,0,0.4,0.1,0.6c0.1,0.3,0.2,0.5,0.4,0.8c0.3,0.3,0.5,0.5,0.7,0.5c0,0,0,0,0,0
		c0,0,0,0,0.1,0c0,0,0.1,0,0.1,0c0,0,0.1,0,0.1,0c0,0,0.1,0,0.3-0.1c0.1,0,0.2-0.1,0.3-0.1c0,0,0.1,0,0.2,0c0.1-0.2,0.2-0.3,0.4-0.6
		c0.1-0.2,0.2-0.6,0.3-1c0-0.2,0-0.6,0.1-1.2c0,0,0.1,0,0.1,0v-0.2c-0.1-0.1-0.2-0.1-0.1-0.2l0-0.2c-0.1-0.1-0.1-0.1-0.1-0.1
		c0-0.2,0-0.5,0.1-0.6c0,0,0-0.1-0.1-0.1s0-0.2-0.1-0.4s0-0.3,0-0.3v-3.8c0,0,0-0.2,0-0.5c0-0.3,0.1-0.5,0.1-0.6c0-0.1,0-0.2,0-0.2
		c0,0,0,0,0-0.2c0-0.1-0.1-0.5-0.1-1.3c0-0.1,0.1-0.1,0.2-0.2C303.4,607.7,303.4,607.6,303.5,607.5z M305.8,619.2c0,0,0,0.1-0.1,0.2
		c-0.1,0.1-0.1,0.2-0.1,0.3c0,0-0.1-0.1-0.1-0.1c0,0,0-0.1,0.1-0.2C305.6,619.3,305.7,619.3,305.8,619.2L305.8,619.2z M306.4,618.5
		c0,0-0.1,0-0.2,0C306.3,618.6,306.4,618.5,306.4,618.5z M307.9,615.5l-0.1,0.1v-0.1H307.9L307.9,615.5z"/>
	<path class="st14" d="M324.4,605.2c0,0-0.1,0.1-0.2,0.3c-0.1,0.2-0.2,0.3-0.3,0.3c-0.2,0-0.5,0.1-0.9,0.2c0,0-0.1,0.1-0.1,0.3
		c0,0.2-0.1,0.5-0.1,0.8l0.1,13.2c0,0.3,0,0.6,0,1.1c0,0.1-0.2,0.3-0.4,0.5c-0.2,0.2-0.3,0.3-0.4,0.3c0,0,0,0-0.3,0s-0.6,0-1.1,0
		c-0.3-0.1-0.5-0.1-0.8-0.1c-0.2,0-0.6,0-1,0c-0.2-0.1-0.4-0.2-0.6-0.4c-0.1-0.1-0.2-0.4-0.3-0.8c-0.3-0.8-0.7-1.9-1.2-3.4
		c0,0,0.1,0.1,0.1,0c-0.1-0.1-0.2-0.3-0.2-0.5c0,0-0.1-0.1-0.1-0.1c-0.6-1.7-1.2-3.5-1.8-5.3c0,0.1-0.1,0.9-0.1,2.3v3.5
		c-0.1-0.2-0.2-0.5-0.3-0.8c0,0.1,0,0.3,0,0.8c0,0.7,0.1,1.2,0.2,1.5c0.2,0.5,0.6,0.8,1.2,0.8c0,0,0.1,0.1,0.2,0.2
		c0,0.1,0,0.4,0,0.7c0,0.3,0,0.4,0,0.3v0.4v0c0,0.3,0,0.6,0,1c-0.1-0.2-0.2-0.4-0.3-0.6c0,0.2-0.1,0.4-0.2,0.6
		c-0.1,0.1-0.2,0.1-0.5,0.1c-0.4-0.1-0.5-0.1-0.5-0.1h-3.8c-0.1-0.2-0.2-0.4-0.3-0.7v-1.6c0.1-0.1,0.3-0.2,0.7-0.3
		c0.4-0.1,0.6-0.2,0.7-0.4c0.2-0.3,0.2-0.7,0.2-1.2c0,0,0,0,0,0.1l0.1-0.1c-0.1-0.3-0.2-1.1-0.2-2.5v-1.1c0,0,0-0.1,0-0.4
		c0-0.2,0-0.4,0-0.4c0,0,0-0.1-0.1-0.4s-0.1-0.4-0.1-0.6c0-0.1,0-0.4,0-0.7c0-0.3,0-0.6,0-0.7c0-0.1,0-0.4-0.1-1
		c0-0.6-0.1-0.9-0.1-0.9v-1.7c0-0.1,0-0.2,0-0.3c0-0.1,0-0.2,0-0.4c0,0-0.1-0.3-0.3-0.8c0,0-0.1-0.1-0.1-0.1c-0.2,0-0.5-0.1-0.8-0.1
		c-0.1,0-0.2-0.1-0.3-0.3c-0.1-0.1-0.2-0.2-0.2-0.3v-1.5l0.1,0.1c0,0,0-0.1,0-0.2c0.2-0.3,0.5-0.5,1-0.5c0.3,0,0.6,0,0.8,0
		c0.3,0,0.4,0,0.3,0c0,0,0.1,0,0.3,0c0.2,0,0.3,0,0.3,0c1.1,0,1.6,0,1.5,0c0,0,0,0-0.1,0c0,0,0.1,0,0.1,0s0.1,0,0.3,0
		c0.2,0,0.3,0,0.4,0c0.1-0.1,0.6-0.1,1.4-0.1c0,0,0.1,0,0.3,0.1c0.1,0.1,0.2,0.2,0.3,0.2s0.1,0.4,0.3,1c0,0,0.1,0.1,0.1,0.2
		c0.1,0.4,0.3,1,0.6,1.8c0,0,0,0.1,0,0.1c0.2,0.2,0.4,0.8,0.7,1.7c0.3,1.1,0.6,1.8,0.8,2.2c0-0.6,0-1.7,0-3.1c0,0,0,0,0,0.1
		c0-0.1,0-0.4,0-0.6c-0.1-0.1-0.1-0.2-0.1-0.4c0-0.2-0.1-0.3-0.3-0.4c-0.2,0-0.5-0.1-0.9-0.1c-0.3-0.2-0.5-0.5-0.5-1
		c0-0.4,0-0.7,0-0.9s0-0.3,0-0.2c0,0,0.1-0.1,0.2-0.3c0.1-0.1,0.3-0.2,0.4-0.3c0.1,0,0.3-0.1,0.5-0.1c0.1,0,0.3,0,0.6,0
		c0,0,0.1,0,0.1,0.1c0,0.1,0.1,0.1,0.1,0.1s0.1,0,0.2,0c0.1,0,0.2,0,0.2,0s0.1,0,0.3,0.1s0.2,0.1,0.3,0.1s0.1,0,0.2-0.1
		s0.2-0.1,0.2-0.1c0,0,0.2,0,0.5,0c0.3,0,0.4,0,0.5,0c0,0,0.3,0,0.8,0c0.5,0,0.8,0,0.8,0c0.1,0,0.3,0.1,0.4,0.4
		c0.1,0.2,0.2,0.4,0.2,0.5c0,0.5,0,0.8,0,1C324.4,605.2,324.4,605.3,324.4,605.2z M314.1,610.1c0-0.2-0.1-0.4-0.4-0.6
		c-0.3-0.2-0.4-0.4-0.4-0.5c0,0-0.1,0-0.2,0c0,0.1-0.2,0.2-0.4,0.5c-0.3,0.3-0.4,0.5-0.4,0.7c0,0.3,0.1,0.4,0.3,0.4
		c0.1,0,0.3-0.1,0.5-0.3c0,0.1,0,0.2,0,0.3c0,0.1-0.1,0.2-0.1,0.2h0.5c0-0.1-0.1-0.2-0.2-0.4c0,0,0.1,0,0.1,0c0,0,0,0.1,0.1,0.3
		c0-0.1,0-0.1,0-0.2l0.2,0c0.1,0,0.2-0.1,0.3-0.2C314,610.3,314.1,610.2,314.1,610.1z M314,611.7c0-0.2-0.1-0.4-0.4-0.4
		c-0.1,0-0.3,0.1-0.4,0.3l0-0.2c0-0.1,0.1-0.2,0.2-0.3h-0.5c0.1,0.2,0.2,0.3,0.1,0.3h0c0-0.1-0.1-0.2-0.2-0.3c0,0,0,0,0,0.1
		c0,0,0,0.1,0,0.1c0,0-0.1,0-0.1,0c0,0-0.1,0-0.1,0c-0.1,0-0.2,0.1-0.3,0.2c0,0-0.1,0.1-0.1,0.2c0,0.2,0.1,0.4,0.4,0.6
		c0.2,0.2,0.4,0.4,0.4,0.5c0,0,0.1,0.1,0.1,0.1c0.1,0,0.2-0.1,0.3-0.3c0.1-0.1,0.3-0.3,0.4-0.4S314,611.9,314,611.7z M313.4,610.8
		L313.4,610.8l-0.1,0.2l0.1,0L313.4,610.8z M323.5,604.4v-0.5c-0.1,0-0.3,0-0.6,0c0,0,0,0.1,0,0.1c-0.1,0-0.3-0.1-0.5-0.1
		c0,0-0.2,0-0.4,0c-0.2,0-0.4,0-0.5,0c0,0,0,0,0,0h-1.1c0,0-0.1-0.1-0.1-0.1c-0.2,0.1-0.3,0.2-0.4,0.2c0,0-0.2,0-0.6-0.1
		c-0.1,0-0.2,0-0.3,0c0,0.2,0,0.5,0.1,0.8c0.2,0,0.4,0,0.6,0.1c0.4,0.1,0.6,0.4,0.8,0.8c0.1,0.3,0.2,0.7,0.3,1c0,0.1,0,0.2,0,0.3
		c0,0,0,0.1,0,0.2c0,0.1,0,0.1,0,0.2c-0.1,0.7-0.1,0.9-0.1,0.8c0,0,0.1,0,0.1,0.1c0,0.1,0,0.3,0,0.5c0,0.2,0,0.4,0,0.4
		c0,0.1,0,0.2,0,0.2c0-0.1-0.1-0.1-0.1-0.2c0,0.1,0,0.3,0,0.5c0,0.3,0,0.4,0,0.5l0.1-0.1c0,0.2,0,0.6,0,1.2v1.6c0,0,0,0.1,0,0.2
		c0,0.1,0,0.2,0,0.3c-0.1,0-0.1-0.1-0.2-0.1v0.3c0,0,0.1,0,0.1,0c0,0.1-0.2,0.3-0.4,0.5c-0.1-0.1-0.2-0.2-0.4-0.3l0.1-0.1
		c0.1-0.1,0-0.1,0-0.2l-0.2,0.2c0-0.3-0.1-0.6-0.3-1.1c0-0.1-0.1-0.2-0.1-0.3c-0.1-0.1-0.1-0.2-0.1-0.2V612c0,0,0,0,0,0h0.1
		c-0.1-0.2-0.3-0.7-0.5-1.2c0,0.1,0,0.2,0,0.3c-0.1-0.3-0.2-0.7-0.5-1.2c0-0.1,0-0.1,0-0.1c0,0,0.1,0.1,0.1,0.1c0-0.1,0-0.2-0.1-0.3
		c-0.1-0.1-0.1-0.2-0.2-0.3c0,0,0,0.1,0.1,0.1c0-0.1-0.1-0.2-0.2-0.5c-0.1-0.3-0.2-0.4-0.2-0.5c0-0.2-0.1-0.4-0.1-0.7
		c0,0-0.1-0.2-0.2-0.5c-0.1-0.2-0.1-0.4-0.1-0.5c0-0.1,0-0.2,0.1-0.2c0-0.1-0.1-0.3-0.3-0.4c0,0-0.1-0.1-0.1-0.1
		c0-0.1-0.2-0.6-0.5-1.4c0,0-0.1-0.1-0.1-0.1s-0.1-0.1-0.1-0.1l-2.2,3.3v0.4c0.1-0.1,0.3-0.2,0.5-0.5v2.1c0,0,0,0.1,0,0.2
		c0,0.1,0,0.1,0,0.2c0,0,0,0,0,0c0,0.1,0.2,0.3,0.3,0.7c0,0.1,0,0.2,0,0.3c0.3,0.2,0.4,0.5,0.5,0.8c0.2,0.7,0.3,1.1,0.4,1.2
		c0.6,1.5,1.1,2.7,1.4,3.6c0,0,0,0-0.1,0c0.5,1,0.8,1.8,1,2.3c0,0.1,0,0.1,0,0.2c0.1,0,0.1,0.1,0.1,0.2c0,0.2,0,0.3,0,0.3
		c0.2,0.5,0.4,0.9,0.4,1.2c-0.1,0-0.1,0-0.1,0.1c0,0.2,0.1,0.3,0.3,0.3c0,0,0.2,0,0.4,0c0.3,0,0.5,0,0.6,0c0,0,0,0,0.1-0.1h1.8v-1.6
		c0-0.1,0-0.2,0.1-0.3V618c0,0,0-0.1,0-0.2c0-0.1,0-0.1,0-0.2l0.1,0.1v-2c0,0,0-0.1-0.1-0.2c0-0.3,0-0.8-0.1-1.6c0-1,0-1.5,0-1.6
		c0.1-0.1,0.2-0.2,0.2-0.3c0,0,0-0.1-0.1-0.4c-0.1-0.2-0.1-0.3-0.1-0.4v-1.3h0.2c0.1-0.2,0.1-0.3,0.1-0.4c0,0,0-0.3-0.1-0.7
		c-0.1-0.4-0.1-0.7-0.1-0.7c0,0,0-0.1,0.1-0.2c0-0.1,0.1-0.1,0.1-0.2c-0.1-0.5-0.2-0.7-0.2-0.8l0,0l0,0c0-0.5,0-0.9,0.2-1.1
		c0,0,0,0.1,0,0.2c0-0.2,0.1-0.4,0.3-0.6c0.2-0.2,0.3-0.3,0.5-0.5c0.1-0.1,0.3-0.1,0.4-0.1c0,0,0.1,0,0.1,0c0,0,0.1,0,0.1,0
		C323.4,604.9,323.4,604.7,323.5,604.4z M320.7,613.6L320.7,613.6l-0.1-0.1l0.1,0L320.7,613.6z"/>
	<path class="st14" d="M337.3,616.3c0,0.5-0.1,1.2-0.2,1.9c0,0-0.1,0-0.1-0.1c-0.1,0-0.1,0.2-0.1,0.3l0,0.3c0,0.1-0.1,0.3-0.2,0.6
		c-0.1,0.1-0.2,0.2-0.3,0.4c0,0.1-0.1,0.3-0.2,0.5c-0.4,0.5-0.7,0.8-1.1,0.9c-0.2,0.1-0.4,0.3-0.6,0.5c-0.8,0.4-1.7,0.6-2.6,0.6
		c-0.5,0-0.9,0-1.2-0.1c-0.1-0.1-0.1-0.1-0.2-0.1c0,0-0.1,0-0.1,0s-0.1,0-0.1,0c-0.3,0-0.7-0.2-1.4-0.5s-1.1-0.5-1.3-0.5
		c-0.5,0.7-0.9,1.1-1.1,1.1h-1.4c-0.1-0.1-0.3-0.4-0.6-0.7v-2.3c0,0,0-0.3,0-0.8s0-0.8,0-0.8v-1.3h0c0.1-0.1,0-0.4,0-0.7
		c0,0,0.1-0.1,0.2-0.3c0.2-0.2,0.3-0.3,0.4-0.3c0.5,0,0.9,0,1.1,0c0.2,0,0.3,0,0.3,0c0.2,0,0.3,0.2,0.5,0.5c0,0.2,0.1,0.4,0.3,0.7
		c0,0,0.1,0.3,0.4,0.7c0.2,0.3,0.3,0.5,0.2,0.7c0.1,0,0.2,0.1,0.3,0.2c0,0.1,0.1,0.2,0.2,0.3c0.1,0,0.2,0,0.3,0.2
		c0.2,0.2,0.3,0.3,0.4,0.3c0.4,0.2,0.8,0.3,1.3,0.3h0.8c0.5,0,0.8-0.1,1.1-0.4c0.3-0.3,0.4-0.6,0.4-1.1c0-0.6-0.3-1-1-1.5
		c-0.4-0.2-1.1-0.6-2.2-1c-1-0.4-1.8-0.8-2.4-1.2c-0.9-0.6-1.5-1.3-1.9-2.2c-0.3-0.7-0.5-1.3-0.5-1.9l0-2.3c0.2-1.1,0.7-2.1,1.5-2.9
		c0,0,0,0.1,0,0.1c0.4-0.6,1-1,1.8-1.3c0.7-0.3,1.4-0.4,2.2-0.4c0.7,0,1.5,0.1,2.4,0.3c0.9,0.2,1.3,0.4,1.3,0.4c0,0,0.2-0.1,0.4-0.2
		c0.2-0.1,0.4-0.2,0.4-0.2h1.4c0.4,0.4,0.6,0.6,0.6,0.6c0,0,0,0.2,0,0.4l-0.2,3.6v1.2c0,0.1,0,0.2,0,0.2c-0.1,0.1-0.3,0.3-0.4,0.4
		h-0.7c0.2-0.1,0.4-0.2,0.7-0.3c0.1,0,0.2-0.1,0.2-0.2c0-0.1,0-0.2-0.1-0.3c0,0.1-0.1,0.2-0.3,0.2c-0.8,0-1.2,0-1.2,0
		c-0.1-0.1-0.2-0.4-0.4-0.9c-0.1-0.4-0.3-0.7-0.6-0.8c0,0,0,0,0.1-0.1c-0.2-0.1-0.4-0.3-0.6-0.5c0,0-0.1,0-0.2-0.1
		c-0.2-0.2-0.5-0.4-1-0.6c0.2,0,0.3,0,0.5,0c-0.3-0.1-0.4-0.2-0.3-0.2c0,0-0.1,0-0.2,0c-0.1,0-0.1,0-0.2,0c0.1,0,0,0-0.2-0.1
		c-0.1,0-0.2,0-0.4,0c-0.3-0.1-0.5-0.1-0.6-0.1c-0.5,0-0.9,0.1-1.2,0.4s-0.6,0.7-0.7,1.3c0,0.3-0.1,0.5-0.1,0.4
		c0,0.6,0.4,1.2,1.2,1.6c0.7,0.4,1.3,0.6,1.9,0.6c0,0,0.1,0,0.1,0c0.1,0,0.5,0.2,1.4,0.6c0.2,0.1,0.6,0.2,1.1,0.3
		c0.1,0.1,0.4,0.3,0.7,0.6c0.8,0.5,1.5,1.4,2,2.8l0,0.1C337.3,615.1,337.3,615.6,337.3,616.3z M336.5,614.3
		c-0.1-0.2-0.2-0.3-0.2-0.3c0,0,0,0,0,0c0,0,0,0-0.1,0c0,0-0.1-0.1-0.2-0.3s-0.2-0.3-0.2-0.3s0,0,0,0c0,0,0,0-0.1,0
		c-0.1,0-0.2,0-0.1-0.1c0,0,0.1-0.1,0-0.1h-0.2c-0.1,0-0.2-0.1-0.3-0.3c0.1,0,0.1,0,0.2-0.1c-0.2-0.1-0.3-0.1-0.4-0.1
		c0-0.1,0-0.2,0-0.1c-0.2-0.2-0.6-0.4-1.1-0.8h-0.2l0.1,0.1c0,0-0.1,0-0.2,0c-0.1,0.7-0.4,1.8-0.7,3.3c0,0,0,0.1-0.1,0.2
		c0.1,0.1,0.2,0.2,0.3,0.3c-0.1,0.1-0.1,0.1-0.1,0.2c0,0.1,0.1,0.3,0.4,0.6c0.2,0.3,0.4,0.5,0.4,0.7c-0.1,0.1-0.1,0.2-0.1,0.1
		c0.1,0.2,0.2,0.4,0.2,0.5c0,0,0,0.1-0.1,0.2c0,0.1,0.1,0.2,0,0.3c-0.1,0.3-0.3,0.5-0.4,0.5c0,0,0-0.1,0-0.1
		c-0.1,0.2-0.3,0.4-0.5,0.6c0,0,0,0,0,0c0,0.1-0.3,0.2-0.6,0.4c0,0,0,0,0-0.1c0,0,0,0,0,0c0,0-0.2,0-0.4,0.1s-0.3,0.1-0.4,0.1
		c-0.6,0-1.1-0.1-1.6-0.3c-0.6-0.2-1-0.5-1.4-0.7c-0.1,0-0.4-0.3-1-0.9c0,0,0-0.1,0-0.1c-0.1-0.2-0.2-0.4-0.4-0.7c0,0,0.1,0,0.1,0
		c0-0.1-0.1-0.2-0.3-0.5c-0.2-0.3-0.3-0.5-0.3-0.6c0,0,0-0.1,0-0.1c-0.2,0-0.4,0-0.7,0c-0.1,0.5-0.2,0.9-0.2,1.1
		c0,0.1,0.1,0.2,0.2,0.2l0,0.9c0-0.1-0.1-0.1-0.1-0.2c0,0,0,0.1-0.1,0.1l0,0.1c0,0,0,0.1,0.1,0.3s0.1,0.3,0.1,0.3c0,0.1,0,0.4,0,0.7
		c0,0,0,0.1,0,0.1c0,0,0,0.1,0,0.1c0,0.9,0,1.4-0.1,1.5c0.1-0.1,0.3-0.1,0.4-0.1c0,0,0.1,0,0.2,0c0.1,0,0.1,0,0.2,0c0,0,0.1,0,0.1,0
		c0,0,0.1,0,0.1,0c0-0.1,0.1-0.2,0.1-0.3c0.2-0.2,0.4-0.4,0.6-0.5c0,0-0.1,0-0.3,0.1c0,0,0-0.1,0.1-0.2c0.1-0.1,0.2-0.1,0.2-0.1
		c0.5,0,0.9,0,1.1,0.1c-0.1,0-0.1,0-0.2,0c0.1,0.1,0.2,0.1,0.2,0.1c0,0,0.1,0,0.1,0c0,0,0.1,0,0.1,0s0.1,0,0.1,0.1c0,0-0.1,0-0.1,0
		c0.2,0.1,0.5,0.2,0.9,0.3c0.1,0.1,0.2,0.2,0.4,0.3c0,0,0.2,0.1,0.5,0.1c0.2,0,0.4,0.1,0.4,0.3h0.3l0.3-0.1c0,0,0.2,0,0.5,0
		c0.3,0,0.4,0,0.4,0c0,0,0.3-0.1,0.8-0.2c0.5-0.2,0.8-0.2,1.1-0.3c0.1,0,0.1,0,0.2,0c0,0-0.1-0.1-0.2-0.1c0.2-0.1,0.6-0.4,1-0.7
		c0.1-0.1,0.2-0.3,0.3-0.5c0,0,0.1,0,0.2-0.1c0-0.2,0.1-0.3,0.1-0.4c0.1-0.1,0.2-0.3,0.3-0.3c0-0.2,0-0.4,0.1-0.5
		c0.1-0.1,0.1-0.2,0.1-0.2v-1.1c0-0.7,0-1.2,0-1.4c-0.1,0-0.1,0-0.1-0.1c0.1,0,0.2-0.1,0.2-0.2l-0.4-0.7c0,0,0.1,0,0.1,0
		c0-0.1,0-0.2,0-0.2c0,0,0.1,0.1,0.2,0.1c0.1,0.1,0.2,0.1,0.2,0.1c0-0.2,0-0.3,0-0.3L336.5,614.3z M325.7,618.6L325.7,618.6
		l-0.1-0.1h0.1V618.6z M328.6,611.1c0-0.1-0.1-0.1-0.1-0.2s-0.1-0.2-0.1-0.3c-0.1-0.1-0.2-0.3-0.5-0.6s-0.5-0.6-0.5-0.8
		c0,0,0,0-0.1,0.1c0,0,0-0.1,0-0.2c-0.1,0.2-0.2,0.5-0.4,0.9c-0.2,0.3-0.4,0.6-0.7,0.9c0,0.1-0.1,0.2-0.1,0.4c0,0.1,0.1,0.3,0.3,0.4
		c0.2,0.2,0.4,0.2,0.5,0.2c0.1,0,0.3,0,0.4-0.1c0,0,0.1,0.1,0.2,0.1c0,0,0,0,0,0.1c0.1,0,0.2,0.1,0.2,0.1c0,0,0.1,0,0,0c0,0,0,0,0,0
		c0,0,0.1,0,0,0s0,0,0,0c0.1,0,0.3-0.1,0.4-0.2l0.1,0.1c0.2-0.2,0.3-0.4,0.3-0.4c0,0,0-0.1,0-0.1s0,0,0,0c0,0,0,0,0.1,0
		c0-0.1,0-0.2,0-0.3C328.6,611.2,328.6,611.2,328.6,611.1z M328.7,606.9c0-0.1-0.1-0.2-0.2-0.3c-0.2-0.3-0.5-0.4-0.7-0.4
		c-0.2,0-0.3,0-0.5,0.1c-0.2-0.2-0.3-0.3-0.4-0.3c0,0-0.1,0-0.2,0c-0.1,0-0.1,0-0.2,0c-0.1,0.1-0.2,0.2-0.5,0.4c0,0,0,0.1,0,0.2
		l-0.1-0.1c0,0,0,0.1,0,0.1c0,0.1,0.1,0.2,0,0.2L326,607c0,0,0.1,0.1,0.2,0.5c0.1,0.2,0.3,0.4,0.6,0.7s0.5,0.6,0.5,0.8
		c0,0,0,0,0.1-0.1c0,0,0,0.1,0,0.1c0,0.1,0,0.1,0,0.1c0.1-0.4,0.5-1,1-1.7C328.6,607.2,328.7,607.1,328.7,606.9z M327.2,609.4
		l-0.1,0.2l0,0L327.2,609.4L327.2,609.4z M327.6,608.6l-0.1,0.2l-0.1,0L327.6,608.6L327.6,608.6z M333.3,606.4l-0.3-0.2l0,0
		L333.3,606.4L333.3,606.4z M334.3,607.9l0,0.2l0,0L334.3,607.9L334.3,607.9z M334.5,608.6L334.5,608.6l-0.1-0.1l0.1,0L334.5,608.6z
		 M335.9,613.8L335.9,613.8l-0.2-0.1l0.1,0L335.9,613.8z M336.3,608.8v-0.1h-0.1L336.3,608.8L336.3,608.8z"/>
	<path class="st14" d="M351.1,610.5c0,0.9,0,1.4,0,1.7c-0.1,0.7-0.1,1.2-0.2,1.5c0,0.4,0,0.8,0,1.2c-0.2-0.1-0.3-0.3-0.3-0.4
		s-0.1-0.3-0.2-0.5V611c0-0.1,0-0.3,0.1-0.6c0-0.3,0.1-0.4,0.1-0.5c0,0,0-0.1-0.1-0.3c0-0.2,0-0.4,0-0.5c-0.1-0.1-0.2-0.2-0.2-0.4
		c0-0.3-0.1-0.5-0.1-0.5l-0.5-1c0-0.1-0.1-0.3-0.3-0.6l0,0c-0.2-0.2-0.5-0.6-0.9-1.1c-0.1-0.1-0.3-0.3-0.4-0.5l0,0
		c-0.3-0.2-0.6-0.5-1.1-0.7c-0.4-0.2-0.8-0.4-1.2-0.5c-0.1-0.1-0.3-0.1-0.6,0c0,0-0.2-0.1-0.3-0.1c-0.2,0-0.3,0-0.4,0
		c0,0-0.1,0-0.1,0v1.8c0,0,0,0.1,0.1,0.1c0.5-0.1,0.6-0.2,0.5-0.2c0,0,0,0.1,0,0.1s0.1,0,0.1-0.1c0,0,0.1-0.1,0.1-0.1
		c0,0,0.1,0,0.1,0c0,0,0.1,0.1,0.1,0.1c0,0,0.1,0.1,0.1,0.2c0,0.1,0.1,0.2,0.2,0.2c0,0,0,0,0,0c0,0,0,0,0,0c0,0,0.1,0.1,0.2,0.2
		c0.1,0.1,0.2,0.2,0.2,0.2l-0.1,0.1c0.3,0.4,0.4,0.8,0.5,1.4c0,0,0.1,0.1,0.1,0.1c0,0-0.1,0.1-0.1,0.2s-0.1,0.1-0.1,0.1
		c0,0,0,0.1,0.1,0.2c0.1,0.1,0.1,0.1,0.1,0.2c0,0.1-0.1,0.1-0.2,0.1c0.1,0.1,0.2,0.2,0.2,0.3c0,0.2,0,0.5-0.1,0.7
		c0,0-0.1,0.1-0.1,0.2c0.1,0,0.2,0.1,0.2,0.2v0.1c0,0,0,0-0.1,0c0,0-0.1,0-0.1,0l-0.1,0.1c0,0.1,0.1,0.2,0.2,0.2c0,0.1,0,0.2,0,0.3
		c0,0.1,0.1,0.1,0.1,0.1c0,0.1,0,0.4-0.1,0.7v0c0,0-0.1,0-0.1,0.1c0,0,0.1,0,0.2,0.1v0.3h-0.1c0,0.1,0,0.2,0,0.4c0,0,0.1,0,0.1,0
		s0.1,0,0.1,0c0,0.1,0,0.3,0,0.5c0,0,0,0,0,0v0.9c-0.1,0-0.1,0-0.2,0c0,0.1,0.1,0.2,0.2,0.2c0,0.9,0.1,1.2,0.1,1.1
		c0,0-0.1,0-0.1,0.1c0,0,0,0,0.1,0c0,0,0,0,0,0c0,0.3,0,0.5,0,0.6c0,0,0,0.1,0.1,0.2c0,0.1,0,0.3,0,0.6c0,0,0,0.1-0.1,0.2
		c0,0.2,0.1,0.4,0.1,0.7c0,0.3-0.1,0.4-0.3,0.5c0,0,0,0.1,0.1,0.2v0.2c0,0,0,0-0.1,0c0,0-0.1,0-0.1,0c0,0-0.1-0.1-0.2-0.2
		c0.1,0,0,0-0.1,0.1c0,0,0.1,0,0.2,0.1c0.1,0,0.1,0.1,0.1,0.2c0,0,0-0.1,0-0.1l0,0.1l0.1,0.1c0,0.1,0,0.1,0,0.1c0,0.1,0,0.1,0.1,0.2
		c0,0,0,0,0,0.1c0,0,0,0.1,0,0.1c0,0-0.1,0-0.1-0.1c0,0,0,0-0.1,0c0,0.1,0.1,0.2,0.1,0.2c0,0-0.1,0-0.1,0c0,0.1-0.1,0.1-0.1,0.2
		c-0.1,0.1-0.2,0.2-0.4,0.4c0,0,0.1,0,0.2,0c0,0-0.1,0.2-0.3,0.4c0.1,0,0,0-0.3-0.1c-0.1,0.2-0.1,0.3-0.1,0.3c0-0.1-0.1-0.1-0.1-0.1
		c-0.2,0-0.2,0-0.2,0.1c0,0,0,0,0,0c0,0,0,0-0.1,0c0,0,0,0,0,0c0,0,0,0,0,0c0,0-0.1,0-0.2-0.1l0,0v0.5c0.1,0,0.2,0.1,0.2,0.1
		c0,0,0.1,0,0.2,0c0.1,0,0.1,0,0.2,0c0,0,0.1-0.1,0-0.2c0.1,0,0.2,0,0.3-0.1c0.1,0.1,0.1,0.2,0.1,0.2c0-0.1,0.1-0.2,0.1-0.3
		c0,0,0.1,0.1,0.1,0.1c0,0.1,0.1,0.1,0.2,0.1c0,0,0-0.1,0.1-0.1c0-0.1,0.1-0.1,0.1-0.2c0,0,0.1,0,0.2,0c0.1,0,0.1,0,0.2,0
		c0,0.2,0.1,0.3,0.2,0.3c0.1-0.1,0.1-0.3,0-0.5c0.1,0,0.2,0,0.3,0.1c0,0,0,0,0.1-0.1l0-0.2c0,0,0-0.1,0-0.1c0,0,0.1,0,0.1,0
		s0.1,0,0.1,0c0,0,0,0.1-0.1,0.2l0.1,0.1c0,0,0.1-0.1,0.2-0.2c0,0,0-0.1-0.1-0.1c0,0,0,0,0.1-0.1c0,0,0.1-0.1,0.1-0.1
		c0,0-0.1,0-0.2-0.1c0-0.1,0-0.1,0-0.1s0.1-0.1,0.1-0.2h0.1c0,0.1,0.2,0.2,0.3,0.2c0.2,0,0.3,0,0.3,0l0.1-0.1c0-0.1,0-0.1-0.1-0.1
		c0.1-0.1,0.2-0.3,0.2-0.5l0.1,0.1c0.2-0.2,0.3-0.5,0.4-0.7c0,0,0.1-0.1,0.2,0c0.1-0.3,0.3-0.7,0.4-1.3h0.2c0,0,0-0.1,0-0.3
		c0-0.1,0.1-0.2,0.1-0.3h0.1c0.1-0.1,0.1-0.2,0-0.3c0-0.4,0.1-0.6,0.2-0.7c0.1,0.1,0.1,0.2,0.1,0.2c0,0-0.1,0-0.1-0.1l-0.1,0.1v0.2
		c0,0,0.1,0,0.1,0c0.1,0.1,0.1,0.2,0.1,0.3c0,0.1,0,0.3-0.1,0.5c0,0,0,0.1,0,0.4c0,0-0.1-0.1-0.2-0.3c-0.1,0-0.2,0.1-0.2,0.1
		c0,0,0,0.1,0.1,0.1s0.1,0.1,0.1,0.1c0,0,0,0-0.1,0.1c0,0,0,0.1,0,0.2c0,0.1-0.1,0.3-0.2,0.5c-0.2,0.3-0.3,0.4-0.3,0.5
		c-0.1,0.4-0.3,0.8-0.6,1.1c-0.1,0.1-0.3,0.3-0.6,0.7c-0.4,0.4-0.6,0.6-0.7,0.6l-0.1-0.1c0,0.1-0.1,0.2-0.2,0.3
		c-0.3,0.1-0.5,0.3-0.7,0.4c-0.2,0.1-0.5,0.2-0.7,0.2c0,0-0.1,0-0.1,0c0,0-0.1,0-0.1,0c0,0-0.1,0-0.2,0.1c-0.1,0.1-0.2,0.1-0.3,0.1
		c-0.5,0-0.9,0.1-1.4,0.1c-0.6,0-1-0.1-1.3-0.2c-0.1,0-0.3,0-0.6-0.1c-0.2-0.1-0.6-0.3-1.2-0.6c0,0,0,0,0-0.1c0-0.1-0.1-0.1-0.2-0.2
		l-0.1,0.1c-0.4-0.4-0.7-0.6-0.7-0.7c-0.2-0.2-0.4-0.5-0.5-0.6c-0.1-0.1-0.2-0.2-0.3-0.3c-0.2-0.2-0.4-0.6-0.6-1.1
		c0-0.2-0.1-0.5-0.2-0.9c0-0.1-0.1-0.2-0.2-0.3c-0.1-0.6-0.1-1.2-0.1-1.8v-2.7c0,0,0-0.2,0.1-0.7c0-0.5,0.1-0.8,0-1c0,0,0,0,0,0.1
		c0,0.1,0-0.3,0-1.2c0-0.7,0-1.2,0-1.4c0-0.1,0.1-0.2,0.3-0.3c0,0,0-0.1,0-0.1c0-0.1,0.1-0.2,0.2-0.3c0,0-0.1,0-0.1,0v-0.2
		c0.1-0.1,0.2-0.3,0.3-0.7c0.1-0.5,0.2-0.7,0.2-0.8c0.1-0.2,0.3-0.5,0.7-0.9c0.4-0.5,0.8-0.8,1.1-1.1c0.7-0.5,1.3-0.8,1.8-0.9
		c0.7-0.2,1.3-0.2,1.8-0.2c1.2,0,2.3,0.3,3.2,0.9c0.1,0.1,0.3,0.3,0.6,0.6c0.1,0.1,0.4,0.2,0.6,0.4c0.1,0.1,0.5,0.6,1.1,1.4
		c0,0-0.1,0-0.1,0c0,0,0.1,0.1,0.2,0.1c0.1,0.1,0.2,0.1,0.2,0.1c0.2,0.3,0.4,0.8,0.6,1.6C351,608.3,351.1,609.2,351.1,610.5z
		 M341.9,609.6c0,0-0.1-0.1,0-0.3c0,0,0,0-0.1,0c0,0-0.1,0-0.1,0c0,0,0,0,0-0.1c-0.1-0.2-0.2-0.3-0.3-0.4c0,0-0.1,0-0.2-0.1
		c0,0,0.1,0,0.2,0c-0.1,0-0.2-0.2-0.5-0.4c0-0.1,0-0.2,0-0.2c-0.2-0.1-0.4-0.3-0.3-0.5h-0.2c0,0.2-0.1,0.4-0.2,0.5c0,0,0,0-0.1,0
		c0,0-0.1,0-0.1,0c-0.5,0.8-0.8,1.2-0.8,1.3c0,0,0.2,0.3,0.6,0.8c0.4,0.5,0.6,0.8,0.6,0.8c0,0.1-0.1,0.3-0.3,0.5
		c-0.1,0-0.2,0.1-0.2,0.2c-0.5,0.7-0.8,1.1-0.8,1.2c0,0,0.4,0.5,1.3,1.8c0.3-0.3,0.6-0.5,0.8-0.8c0-0.2,0-0.2-0.1-0.1c0,0,0,0,0-0.1
		c0,0,0,0,0.1,0c0,0,0,0,0.1,0c0.1-0.2,0.2-0.4,0.3-0.6c0,0,0.1,0,0.1,0c0,0,0-0.1,0-0.2c0,0,0,0,0.1,0c0,0,0-0.1,0-0.3l-0.1,0
		c0,0-0.1,0-0.1,0c0,0,0,0,0-0.1c0-0.2-0.1-0.4-0.4-0.4l-0.1-0.1c0,0,0.1,0,0.2,0c-0.1,0-0.2,0-0.2,0c0,0-0.1-0.1-0.3-0.4
		c0-0.1,0-0.1,0-0.2c-0.1-0.1-0.1-0.1-0.2-0.2c-0.1-0.1-0.2-0.2-0.2-0.2c0,0,0.1-0.1,0.2-0.2c0-0.1,0.2-0.2,0.4-0.3
		c-0.1-0.2-0.1-0.2-0.1-0.2l0.1-0.1c0,0,0,0,0,0.1s0,0,0,0.1c0-0.1,0-0.1,0.1,0c0-0.1,0-0.2-0.1-0.1c0,0,0,0,0-0.1c0,0,0,0,0.1,0
		c0,0,0.1,0,0.1,0C341.4,610.2,341.6,609.9,341.9,609.6C341.8,609.6,341.9,609.6,341.9,609.6z M341,614.2l-0.1,0.1l0,0L341,614.2
		L341,614.2z M342.7,612.6v-0.2h-0.1L342.7,612.6L342.7,612.6z M346.1,607.5c-0.1,0-0.1-0.1-0.1-0.2c0-0.1,0-0.2,0-0.1
		c-0.1-0.1-0.2-0.3-0.4-0.5c-0.3-0.4-0.6-0.6-0.9-0.6c-0.5,0-0.9,0.2-1.1,0.7c-0.1,0.2-0.2,0.7-0.3,1.4c0,0,0,0.1-0.1,0.2
		s-0.1,0.1-0.1,0.2c0,0,0,0.1,0,0.2s0,0.2,0,0.2c0,0.4,0,0.7,0,1.1c0,0.1,0,0.2,0.1,0.2v1.1c0,0,0,0.2-0.1,0.5
		c0,0.3-0.1,0.5-0.1,0.5v1.4c0,0.1,0,0.3-0.1,0.5c-0.1,0.3-0.1,0.8-0.1,1.7c-0.1-0.1-0.3-0.2-0.3-0.3c0,0,0,0,0,0.1c0,0,0,0.1,0,0.1
		c0-0.1,0,0,0,0.4c0,0,0,0.1,0,0.2c0,0.1,0,0.1,0,0.2c0,0,0,0,0.1,0.1c0,0.1,0,0.2,0,0.3c0,0.1,0,0.2,0,0.3c0,0.1,0,0.1,0,0
		c0,0-0.1,0-0.1,0c0.1,0.1,0.1,0.2,0.2,0.4c0,0.2,0,0.4,0.1,0.6c0.1,0.3,0.2,0.5,0.4,0.8c0.3,0.3,0.5,0.5,0.7,0.5c0,0,0,0,0,0
		c0,0,0,0,0.1,0c0,0,0.1,0,0.1,0c0,0,0.1,0,0.1,0c0,0,0.1,0,0.3-0.1c0.1,0,0.2-0.1,0.3-0.1c0,0,0.1,0,0.2,0c0.1-0.2,0.2-0.3,0.4-0.6
		c0.1-0.2,0.2-0.6,0.3-1c0-0.2,0-0.6,0.1-1.2c0,0,0.1,0,0.1,0v-0.2c-0.1-0.1-0.2-0.1-0.1-0.2l0-0.2c-0.1-0.1-0.1-0.1-0.1-0.1
		c0-0.2,0-0.5,0.1-0.6c0,0,0-0.1-0.1-0.1s0-0.2-0.1-0.4s0-0.3,0-0.3v-3.8c0,0,0-0.2,0-0.5c0-0.3,0.1-0.5,0.1-0.6c0-0.1,0-0.2,0-0.2
		c0,0,0,0,0-0.2c0-0.1-0.1-0.5-0.1-1.3c0-0.1,0.1-0.1,0.2-0.2C346,607.7,346,607.6,346.1,607.5z M348.5,619.2c0,0,0,0.1-0.1,0.2
		c-0.1,0.1-0.1,0.2-0.1,0.3c0,0-0.1-0.1-0.1-0.1c0,0,0-0.1,0.1-0.2C348.3,619.3,348.3,619.3,348.5,619.2L348.5,619.2z M349.1,618.5
		c0,0-0.1,0-0.2,0C349,618.6,349,618.5,349.1,618.5z M350.5,615.5l-0.1,0.1v-0.1H350.5L350.5,615.5z"/>
	<path class="st14" d="M369.1,615.9c0,0.5,0,0.9,0,1.2c0,0.3,0,0.3,0,0.3c0,0,0,0,0-0.1l-0.1,0.1v0.2l0.1,0.1l0.1-0.1
		c0,0.5,0,0.7,0,0.8c0,0.1-0.1,0.2-0.1,0.2c0,0-0.1,0,0,0c0,0,0-0.1,0-0.1c0,0-0.1,0.1-0.1,0.2c0,0,0.1,0.1,0.2,0.4c0,0,0,0.1,0,0.1
		c0,0,0,0-0.1-0.1c-0.1,0.1-0.2,0.2-0.2,0.4c0,0.1,0,0.3,0.1,0.3c0,0,0,0.1-0.1,0.1c0,0,0,0.1,0.1,0.1c0,0.1-0.2,0.4-0.4,0.7
		c0-0.1,0-0.2,0-0.2c0,0,0,0.1,0,0.1c0,0,0,0-0.1-0.1c-0.1,0.1-0.2,0.2-0.2,0.3c0,0,0.1,0,0.1,0v0.6c-0.1,0.1-0.2,0.1-0.3,0.2
		c-0.2,0-0.3,0.1-0.3,0.1c-0.2,0.1-0.2,0.2-0.2,0.4c0,0.1-0.2,0.2-0.3,0.3c0,0,0,0-0.1-0.1c-0.1,0-0.1-0.1-0.1-0.1
		c0.1,0,0.2-0.1,0.4-0.2c0,0-0.1-0.1-0.1-0.1c-0.1,0-0.3,0.1-0.6,0.3c0.1,0,0.1,0.1,0.2,0c-0.1,0-0.3,0.1-0.5,0.1c0,0,0,0-0.1,0.1
		c0.1,0,0.2,0.1,0.3,0.1c-0.1,0.1-0.2,0.1-0.2,0.1c0,0-0.1,0-0.1,0s0,0,0,0c0,0-0.1,0-0.2,0.1c-0.1,0-0.2,0-0.5,0
		c0.1,0,0.3-0.1,0.5,0c0,0,0,0,0-0.1c0,0-0.1,0-0.3,0c-0.1,0-0.3-0.1-0.5-0.3c0,0-0.1,0-0.2-0.1c-0.1,0-0.1-0.1-0.2-0.2h-0.2v0.2
		c-0.3-0.1-0.6-0.2-1-0.4c-0.1,0-0.1-0.1,0-0.2c-0.2-0.2-0.5-0.6-0.9-1.3h0c0,0.1,0,0.2,0,0.4l-0.1-0.4c0.1-0.1,0.2-0.3,0.2-0.4
		c0,0-0.1-0.2-0.2-0.4c-0.1-0.3-0.2-0.4-0.2-0.5c0-0.1,0-0.2,0-0.5c0-0.1,0-0.2-0.1-0.4c-0.1-0.2-0.1-0.4-0.1-0.5
		c0-0.1,0-0.2,0.1-0.3c0,0,0,0-0.1-0.2c0-0.2,0-0.5-0.1-0.8c0,0,0-0.1,0-0.1c0.1,0,0.1-0.1,0.1-0.1c0-0.4-0.1-0.5-0.2-0.5
		c0,0,0,0,0,0.1c-0.1-0.3-0.3-0.7-0.6-1.2c0.1,0,0.3,0.1,0.4,0.3c-0.1,0-0.2,0-0.2,0c0,0.1,0,0.2,0.1,0.2s0.2,0,0.2,0
		c0,0,0.1,0.1,0.2,0.2c0,0,0,0.1,0,0.2c0,0,0.1,0.1,0.1,0.2c0,0.1,0.1,0.3,0.1,0.5c0,0.1,0,0.2,0.1,0.4c0,0.2,0.1,0.3,0.1,0.3
		c0,0-0.1-0.1-0.1-0.2c-0.1-0.1-0.1-0.2-0.1-0.2c0,0,0,0,0,0.1c0,0,0.1,0.2,0.2,0.5s0.2,0.5,0.2,0.7c0.1,0.4,0.2,1,0.3,1.8
		c0,0.1,0.1,0.2,0.1,0.3c0.3,0.8,0.7,1.4,1.3,1.6c0.3,0.1,0.6,0.2,1.1,0.2c0.4,0,0.8-0.1,1.3-0.3c0,0,0.1,0,0.1,0s0,0,0,0
		c0.1-0.1,0.3-0.3,0.6-0.6c0.1-0.2,0.2-0.4,0.3-0.8c0.1-0.3,0.2-0.7,0.3-1.3c0.1-0.1,0.1-0.2,0.1-0.2c0,0.1,0,0-0.1-0.3
		c-0.1-0.3-0.1-0.7,0-1.1c0-0.2,0-0.3,0-0.4c0-0.1,0-0.3-0.1-0.5h-0.7c0,0.1-0.1,0.2-0.1,0.4c0,0.7,0,1.2,0,1.4
		c-0.1,0.8-0.5,1.1-1,1.1c-0.5,0-0.9-0.5-1.1-1.4c0,0,0.1,0,0.1,0c0,0,0-0.1,0-0.1c0-0.1,0-0.2-0.1-0.3c-0.1-0.1-0.1-0.2-0.1-0.2
		c0-0.2,0-0.6-0.1-1.1c-0.1-0.4-0.2-0.9-0.4-1.5c0-0.2-0.2-0.5-0.6-0.9c-0.4-0.4-0.6-0.7-0.6-0.9c0-0.2,0.1-0.4,0.3-0.6
		c0.1,0,0.3-0.1,0.5-0.3c0.3-0.4,0.6-0.8,0.9-1.2c0-0.2,0.1-0.5,0.2-1c0.1-0.4,0.1-0.8,0.1-1.2c0-1.2-0.4-2.1-1.2-2.9
		s-1.9-1.1-3.2-1.1c0,0-0.5,0-1.3-0.1c-0.2,0-0.6,0-1.3,0c0,0.5,0,1,0,1.6c0-0.1,0-0.1-0.1-0.1c0,0,0,0.1,0,0.2
		c-0.1,0-0.2,0-0.3,0.1c0-0.1,0-0.2-0.1-0.2l0,5c0.3,0.1,0.5,0.1,0.6,0.1c-0.1,0,0,0,0.3,0s0.6,0,1.1,0c0.1,0,0.2,0,0.5,0
		c0.2,0,0.4,0,0.4,0s0.1,0,0.3-0.1c0.2-0.1,0.3-0.1,0.3-0.1c0,0,0.1,0,0.1,0.1c0,0,0.1,0,0.1,0c0,0,0.1,0,0.1,0c0,0,0.1,0,0.1,0
		c0-0.1,0.1-0.3,0.1-0.4c0.3-0.4,0.4-1,0.4-1.7c-0.1-0.7-0.1-1.1-0.1-1.3c0,0-0.1-0.1-0.3-0.3c-0.1-0.1-0.2-0.2-0.2-0.2s0,0,0,0
		c0,0,0,0,0,0c0,0-0.1-0.1-0.4-0.3c-0.3-0.2-0.6-0.3-0.8-0.3c0,0-0.1,0-0.2,0c-0.1,0-0.1,0-0.2,0c0,0-0.2,0-0.5-0.1
		s-0.5-0.1-0.5-0.1c-0.2,0-0.3,0-0.4,0c0.1-0.4,0.4-0.6,0.8-0.5c0,0,0,0,0.1,0c0,0,0.1,0,0.1,0c0,0,0.1,0,0.1,0.1c0,0,0,0.1,0,0.1
		c0.1-0.1,0.2-0.1,0.4-0.1c0.2,0,0.5,0.1,0.7,0.3c0,0,0.1-0.1,0.3-0.1c0,0,0.1,0,0,0c0,0,0,0.1,0,0.1c0.1-0.1,0.2-0.1,0.2-0.1
		c0.3,0,0.6,0.1,0.9,0.3c0.1,0,0.2,0.1,0.4,0.2c0,0,0.1,0.1,0.1,0.3c0,0,0.1,0.1,0.1,0.2c0,0,0,0,0,0.1c0.2,0.2,0.3,0.4,0.3,0.7
		l0,0.5c0,0.1,0,0.2,0,0.4c0,0.1,0.1,0.2,0.1,0.4c0,0.2,0,0.3-0.1,0.3c0,0,0.1,0,0.1,0.1c0,0,0.1,0.1,0.1,0.1
		c-0.1,0.1-0.1,0.2-0.1,0.3c-0.1-0.1-0.2-0.1-0.3,0c0,0,0,0,0,0.1c0,0,0.1,0.1,0.2,0.3c0,0.1,0,0.2,0,0.3c0,0.1,0,0.2,0,0.2l-0.2,0
		c-0.1,0.1-0.1,0.2,0,0.2c0,0.1,0.1,0.1,0,0.1c0,0,0,0.1-0.1,0.2c-0.4,0.6-0.7,0.8-0.9,0.8c-0.1,0-0.2,0-0.3-0.1
		c-0.1,0-0.2,0.1-0.2,0.2c0,0-0.1,0-0.1-0.1c-0.1,0.1-0.2,0.2-0.3,0.2h-0.3c-0.1,0-0.2-0.1-0.3-0.2c0,0,0,0.1,0,0.2h-0.2v-0.2
		c-0.1,0-0.1,0.1-0.1,0.2c-0.2,0-0.4,0-0.7,0c0,0,0,0,0,0c0,0,0-0.1,0-0.1c0,0-0.1,0.1-0.1,0.2l-0.1-0.1c0,0.1-0.1,0.1-0.1,0.1
		c0-0.1-0.1-0.2-0.2-0.2c0,0,0,0,0,0.1c0,0,0,0,0,0c0,0,0,0-0.1,0c0,0,0,0,0,0.1c0,0,0-0.1,0-0.1c0,0,0,0.1,0,0.1c0,0,0-0.1,0-0.1
		c0,0-0.1,0.1-0.2,0.1l-0.1-0.1c0,0-0.1,0-0.2,0.1c0-0.1,0-0.2,0-0.2c0,0.1-0.1,0.1-0.1,0.2h-0.3l-2.2,2.1v4c0,0.6-0.2,1.1-0.5,1.6
		c-0.4,0.6-0.9,0.9-1.5,0.9v0.2h1.8c0,0,0,0,0,0c0,0,0,0,0.1,0c0,0,0.1,0,0.2-0.1c0.1,0,0.2-0.1,0.2,0h3.2c0,0,0-0.1,0.1-0.1
		c-0.3-0.1-0.6-0.3-0.8-0.4c-0.4-0.2-0.6-0.4-0.8-0.7c-0.3-0.6-0.4-1.5-0.4-2.6c0-1.1,0.1-2.2,0.2-3.1c0,0,0.2-0.2,0.5-0.5h2.7
		c-0.4,0.2-0.9,0.4-1.5,0.4c-0.6,0-1,0.1-1.2,0.3v1.6c0,0.2,0,0.3,0,0.3c-0.1,0-0.1,0.1-0.1,0.1c0,0,0,0.2,0.1,0.4
		c0,0.3,0.1,0.4,0.1,0.4v1.3c0,0.4,0.1,0.8,0.4,1.3c0,0.1,0.2,0.2,0.4,0.4s0.3,0.2,0.4,0.2c0,0,0,0,0,0c0,0,0,0,0,0c0,0,0.1,0,0.1,0
		s0,0,0,0c0.2,0,0.3,0,0.5-0.1v0.1c0,0,0,0.1,0,0.3c0,0.2,0,0.3-0.1,0.3c0,0,0.1,0.1,0.2,0.1v0.6c0,0-0.3,0-1,0l-3,0.2
		c-0.1,0-0.2,0-0.2-0.1c-0.2,0.1-0.4,0.1-0.6,0.1c0,0-0.3,0-0.7,0c-0.5,0-0.7,0-0.7,0s-0.1,0-0.1,0c0,0,0,0-0.1,0c0,0-0.1,0-0.3,0
		c-0.2,0-0.3,0-0.3,0c-0.2,0-0.3-0.1-0.3-0.2c0,0,0,0,0.1-0.2c0,0,0-0.1,0-0.6c0,0,0,0,0,0.1c0,0,0.1-0.1,0.1-0.1c0-0.1,0-0.3,0-0.7
		c0.1-0.1,0.3-0.2,0.5-0.2c0.3,0,0.5-0.1,0.6-0.1c0.2-0.1,0.4-0.4,0.5-0.7c0.1-0.2,0.1-0.7,0.2-1.4c0,0,0-0.1,0.1-0.2
		c0-0.1,0.1-0.1,0.1-0.2V616l0-0.4c0-0.2,0-0.3,0-0.5c0,0-0.1,0-0.1,0v-7.3c0,0,0-0.1-0.1-0.1c0,0,0-0.1,0-0.2
		c-0.1-0.1-0.1-0.4-0.1-0.7c0-0.1,0.1-0.1,0-0.2l-0.2-0.5c0,0-0.1,0,0,0c0,0,0,0,0,0c-0.1,0-0.2-0.1-0.4-0.4c-0.2,0-0.5,0-0.8,0
		c-0.1-0.1-0.3-0.2-0.4-0.4c-0.1-0.3-0.1-0.7-0.1-1.2c0-0.1,0-0.2,0.1-0.4c0.1-0.2,0.2-0.3,0.3-0.3c0.4-0.1,0.7-0.1,1.1-0.1
		c0.5,0,0.8,0,0.8,0c0,0,0.1,0,0.2-0.1c0.1,0,0.1-0.1,0.2-0.1c0,0,0,0,0.1,0.1c0,0,0.1,0,0.2,0c0.2,0,0.4,0,0.5,0c0,0,0,0.1,0,0.1
		c0.1,0,0.3,0,0.4,0c0.2-0.1,0.3-0.1,0.3-0.1h0.6c0,0.1,0,0.2,0,0.2c0.1,0,0.2-0.1,0.4-0.1c0.6,0,0.8-0.1,0.7-0.1c0,0,0.2,0,0.4,0
		s0.4,0,0.4,0s0.1,0,0.3,0c0.2,0,0.3,0,0.4,0c0,0,0,0-0.1,0c0.1,0,0.2,0,0.3,0c0.1,0,0.2,0,0.3,0.1c0.1,0,0.2,0.1,0.3,0.1
		c0,0,0.1,0,0.1-0.1c0-0.1,0.1-0.1,0.1-0.1c0.4,0,0.7,0.1,0.9,0.1c-0.1,0-0.1,0-0.2,0c0.1,0.1,0.2,0.1,0.3,0.1h0.6c0,0,0,0,0-0.1
		c0.1,0,0.2,0.1,0.4,0.1c0.2,0.1,0.3,0.1,0.4,0.1c0,0,0.1,0,0.1,0c0,0,0,0,0,0c0.2,0,0.7,0.2,1.3,0.7c0.1,0.1,0.2,0.2,0.4,0.4
		c0.2,0,0.2,0.1,0.2,0.1l-0.1-0.1c0.2,0.1,0.2,0.2,0.1,0.3c0.2,0.1,0.4,0.3,0.7,0.5c0,0,0,0.1,0,0.2c0.1,0.1,0.3,0.3,0.4,0.5
		c0,0-0.1,0.1-0.2,0.1c0.1,0.1,0.1,0.2,0.2,0.5c0.1,0.4,0.1,0.6,0.1,0.6c0.1-0.1,0.1-0.2,0.1-0.2c0,0.2,0.1,0.6,0.2,1.1
		c0,0,0-0.1,0-0.2c0,0-0.1,0.1-0.1,0.2c0,0,0,0.1,0.1,0.2c0,0.1,0.1,0.1,0.1,0.2l-0.1-0.1c0,0.1-0.1,0.3,0,0.4
		c0.1,0.2,0.1,0.4,0.1,0.5c0,0,0,0.1-0.1,0.2c-0.1,0.1-0.1,0.2-0.1,0.3c-0.1,0.2-0.1,0.6-0.2,1c-0.1,0-0.2,0.1-0.3,0.1
		c0,0.1,0,0.2-0.1,0.4c0,0.1,0,0.2,0,0.2c-0.1,0.2-0.3,0.4-0.5,0.6c-0.1,0.1-0.2,0.2-0.5,0.5c0.2,0.3,0.4,0.5,0.4,0.7l-0.1,0.1
		c0,0,0,0.1,0.1,0.3h0c0,0,0,0,0.1-0.1c0-0.1,0-0.1,0-0.1c0.2,0.2,0.3,0.6,0.5,1.2c0,0.1,0,0.2,0,0.4c0,0.2,0.1,0.3,0.2,0.5
		c0,0.1,0,0.1,0,0.2c0,0.1,0.1,0.2,0.1,0.4c0-0.2,0-0.3,0-0.5c0.1,0,0.1-0.1,0.1-0.1c0.1,0,0.2,0.1,0.2,0.2s0.1,0.2,0.1,0.2
		c0,0,0.1-0.1,0.1-0.3c0,0,0,0,0,0.1c0,0,0,0.1,0,0.1c0-0.1,0-0.2-0.1-0.3c0.3-0.3,0.5-0.5,0.6-0.5c0,0.1,0.1,0.1,0.2,0.1
		c0,0,0.1,0,0.2-0.1c0.1-0.1,0.2-0.1,0.2-0.1c0,0,0,0,0,0s0,0,0.1,0c0.1,0,0.2-0.1,0.3-0.2c0.1,0,0.1,0,0.2,0.1
		c0.1,0.1,0.3,0.3,0.7,0.6v0.2l-0.1-0.1c0,0-0.1,0.1-0.1,0.1C368.9,615.7,368.9,615.8,369.1,615.9z M357.2,610
		c0-0.1-0.1-0.2-0.2-0.4c-0.1-0.1-0.2-0.2-0.4-0.2c-0.1,0-0.2,0-0.3,0.1s-0.2,0.1-0.2,0.2c0-0.2,0-0.4,0-0.6l0.1-0.3h-0.5
		c0,0.4,0.1,0.7,0,0.8c-0.2-0.1-0.4-0.2-0.5-0.2c-0.4,0-0.6,0.2-0.6,0.6c0,0.4,0.2,0.6,0.6,0.6c0,0,0,0,0,0c0,0,0,0,0,0
		c0.1,0,0.1,0,0,0c-0.1,0.1-0.1,0.2-0.1,0.4c0,0.4,0.2,0.6,0.5,0.6c0.1,0,0.3,0,0.4-0.1c0.1-0.1,0.2-0.2,0.2-0.4
		c0-0.1-0.1-0.2-0.2-0.4C356.9,610.5,357.2,610.3,357.2,610z M357.3,607.1c0-0.1,0-0.2-0.1-0.3c-0.1-0.1-0.2-0.2-0.3-0.2
		c-0.1,0-0.2,0-0.4,0c0.1-0.2,0.2-0.3,0.2-0.3c0-0.4-0.2-0.6-0.6-0.6c-0.4,0-0.6,0.2-0.6,0.5c0,0.2,0,0.3,0.1,0.4
		c-0.5,0.1-0.8,0.3-0.8,0.6c0,0.1,0.1,0.2,0.2,0.4c0.1,0.1,0.2,0.2,0.4,0.2c0.1,0,0.3,0,0.3,0c0,0,0.1-0.1,0.1-0.1
		c0-0.1,0.1-0.1,0.1-0.1v0.3c0,0.1-0.1,0.3-0.2,0.6h0.5V608c0-0.1,0-0.3,0-0.6c0.2,0.2,0.4,0.3,0.5,0.3c0.1,0,0.2-0.1,0.4-0.2
		C357.2,607.4,357.3,607.3,357.3,607.1z M361.2,614L361.2,614l-0.1-0.2h0.1V614z M362.4,619.8L362.4,619.8l-0.1-0.1l0.1,0
		L362.4,619.8z M363.2,621.2L363.2,621.2l-0.4-0.3l0,0L363.2,621.2z M364.9,622.1c0,0-0.1,0-0.1,0.1s-0.1,0.1-0.2,0.1
		c-0.3,0-0.6-0.1-0.8-0.2c-0.1-0.1-0.1-0.2-0.2-0.3c0.3,0.3,0.6,0.4,0.9,0.4c0,0,0.1,0,0.1,0c0,0,0.1,0,0.1,0
		C364.7,622,364.8,622,364.9,622.1C364.8,622.1,364.9,622.1,364.9,622.1z M364.7,622.3C364.7,622.4,364.7,622.4,364.7,622.3
		C364.6,622.4,364.6,622.3,364.7,622.3z M365,622.3l-0.2,0v-0.1L365,622.3L365,622.3z M366.3,616.5c0-0.1,0-0.2-0.1-0.3
		c-0.1,0.4-0.1,0.6-0.1,0.6c0,0,0,0.1,0.1,0.1c0-0.1,0-0.2,0.1-0.2S366.3,616.5,366.3,616.5z M368.5,620.8l-0.1,0.3l0,0L368.5,620.8
		L368.5,620.8z M368.9,619.3l0,0.1l-0.1,0L368.9,619.3L368.9,619.3z"/>
	<path class="st14" d="M383.3,616.3c0,0.5-0.1,1.2-0.2,1.9c0,0-0.1,0-0.1-0.1c-0.1,0-0.1,0.2-0.1,0.3l0,0.3c0,0.1-0.1,0.3-0.2,0.6
		c-0.1,0.1-0.2,0.2-0.3,0.4c0,0.1-0.1,0.3-0.2,0.5c-0.4,0.5-0.7,0.8-1.1,0.9c-0.2,0.1-0.4,0.3-0.6,0.5c-0.8,0.4-1.7,0.6-2.6,0.6
		c-0.5,0-0.9,0-1.2-0.1c-0.1-0.1-0.1-0.1-0.2-0.1c0,0-0.1,0-0.1,0s-0.1,0-0.1,0c-0.3,0-0.7-0.2-1.4-0.5s-1.1-0.5-1.3-0.5
		c-0.5,0.7-0.9,1.1-1.1,1.1h-1.4c-0.1-0.1-0.3-0.4-0.6-0.7v-2.3c0,0,0-0.3,0-0.8s0-0.8,0-0.8v-1.3h0c0.1-0.1,0-0.4,0-0.7
		c0,0,0.1-0.1,0.2-0.3c0.2-0.2,0.3-0.3,0.4-0.3c0.5,0,0.9,0,1.1,0c0.2,0,0.3,0,0.3,0c0.2,0,0.3,0.2,0.5,0.5c0,0.2,0.1,0.4,0.3,0.7
		c0,0,0.1,0.3,0.4,0.7c0.2,0.3,0.3,0.5,0.2,0.7c0.1,0,0.2,0.1,0.3,0.2c0,0.1,0.1,0.2,0.2,0.3c0.1,0,0.2,0,0.3,0.2
		c0.2,0.2,0.3,0.3,0.4,0.3c0.4,0.2,0.8,0.3,1.3,0.3h0.8c0.5,0,0.8-0.1,1.1-0.4c0.3-0.3,0.4-0.6,0.4-1.1c0-0.6-0.3-1-1-1.5
		c-0.4-0.2-1.1-0.6-2.2-1c-1-0.4-1.8-0.8-2.4-1.2c-0.9-0.6-1.5-1.3-1.9-2.2c-0.3-0.7-0.5-1.3-0.5-1.9l0-2.3c0.2-1.1,0.7-2.1,1.5-2.9
		c0,0,0,0.1,0,0.1c0.4-0.6,1-1,1.8-1.3c0.7-0.3,1.4-0.4,2.2-0.4c0.7,0,1.5,0.1,2.4,0.3c0.9,0.2,1.3,0.4,1.3,0.4c0,0,0.2-0.1,0.4-0.2
		c0.2-0.1,0.4-0.2,0.4-0.2h1.4c0.4,0.4,0.6,0.6,0.6,0.6c0,0,0,0.2,0,0.4l-0.2,3.6v1.2c0,0.1,0,0.2,0,0.2c-0.1,0.1-0.3,0.3-0.4,0.4
		h-0.7c0.2-0.1,0.4-0.2,0.7-0.3c0.1,0,0.2-0.1,0.2-0.2c0-0.1,0-0.2-0.1-0.3c0,0.1-0.1,0.2-0.3,0.2c-0.8,0-1.2,0-1.2,0
		c-0.1-0.1-0.2-0.4-0.4-0.9c-0.1-0.4-0.3-0.7-0.6-0.8c0,0,0,0,0.1-0.1c-0.2-0.1-0.4-0.3-0.6-0.5c0,0-0.1,0-0.2-0.1
		c-0.2-0.2-0.5-0.4-1-0.6c0.2,0,0.3,0,0.5,0c-0.3-0.1-0.4-0.2-0.3-0.2c0,0-0.1,0-0.2,0c-0.1,0-0.1,0-0.2,0c0.1,0,0,0-0.2-0.1
		c-0.1,0-0.2,0-0.4,0c-0.3-0.1-0.5-0.1-0.6-0.1c-0.5,0-0.9,0.1-1.2,0.4s-0.6,0.7-0.7,1.3c0,0.3-0.1,0.5-0.1,0.4
		c0,0.6,0.4,1.2,1.2,1.6c0.7,0.4,1.3,0.6,1.9,0.6c0,0,0.1,0,0.1,0c0.1,0,0.5,0.2,1.4,0.6c0.2,0.1,0.6,0.2,1.1,0.3
		c0.1,0.1,0.4,0.3,0.7,0.6c0.8,0.5,1.5,1.4,2,2.8l0,0.1C383.2,615.1,383.3,615.6,383.3,616.3z M382.5,614.3
		c-0.1-0.2-0.2-0.3-0.2-0.3c0,0,0,0,0,0c0,0,0,0-0.1,0c0,0-0.1-0.1-0.2-0.3s-0.2-0.3-0.2-0.3s0,0,0,0c0,0,0,0-0.1,0
		c-0.1,0-0.2,0-0.1-0.1c0,0,0.1-0.1,0-0.1h-0.2c-0.1,0-0.2-0.1-0.3-0.3c0.1,0,0.1,0,0.2-0.1c-0.2-0.1-0.3-0.1-0.4-0.1
		c0-0.1,0-0.2,0-0.1c-0.2-0.2-0.6-0.4-1.1-0.8h-0.2l0.1,0.1c0,0-0.1,0-0.2,0c-0.1,0.7-0.4,1.8-0.7,3.3c0,0,0,0.1-0.1,0.2
		c0.1,0.1,0.2,0.2,0.3,0.3c-0.1,0.1-0.1,0.1-0.1,0.2c0,0.1,0.1,0.3,0.4,0.6c0.2,0.3,0.4,0.5,0.4,0.7c-0.1,0.1-0.1,0.2-0.1,0.1
		c0.1,0.2,0.2,0.4,0.2,0.5c0,0,0,0.1-0.1,0.2c0,0.1,0.1,0.2,0,0.3c-0.1,0.3-0.3,0.5-0.4,0.5c0,0,0-0.1,0-0.1
		c-0.1,0.2-0.3,0.4-0.5,0.6c0,0,0,0,0,0c0,0.1-0.3,0.2-0.6,0.4c0,0,0,0,0-0.1c0,0,0,0,0,0c0,0-0.2,0-0.4,0.1s-0.3,0.1-0.4,0.1
		c-0.6,0-1.1-0.1-1.6-0.3c-0.6-0.2-1-0.5-1.4-0.7c-0.1,0-0.4-0.3-1-0.9c0,0,0-0.1,0-0.1c-0.1-0.2-0.2-0.4-0.4-0.7c0,0,0.1,0,0.1,0
		c0-0.1-0.1-0.2-0.3-0.5c-0.2-0.3-0.3-0.5-0.3-0.6c0,0,0-0.1,0-0.1c-0.2,0-0.4,0-0.7,0c-0.1,0.5-0.2,0.9-0.2,1.1
		c0,0.1,0.1,0.2,0.2,0.2l0,0.9c0-0.1-0.1-0.1-0.1-0.2c0,0,0,0.1-0.1,0.1l0,0.1c0,0,0,0.1,0.1,0.3s0.1,0.3,0.1,0.3c0,0.1,0,0.4,0,0.7
		c0,0,0,0.1,0,0.1c0,0,0,0.1,0,0.1c0,0.9,0,1.4-0.1,1.5c0.1-0.1,0.3-0.1,0.4-0.1c0,0,0.1,0,0.2,0c0.1,0,0.1,0,0.2,0c0,0,0.1,0,0.1,0
		c0,0,0.1,0,0.1,0c0-0.1,0.1-0.2,0.1-0.3c0.2-0.2,0.4-0.4,0.6-0.5c0,0-0.1,0-0.3,0.1c0,0,0-0.1,0.1-0.2c0.1-0.1,0.2-0.1,0.2-0.1
		c0.5,0,0.9,0,1.1,0.1c-0.1,0-0.1,0-0.2,0c0.1,0.1,0.2,0.1,0.2,0.1c0,0,0.1,0,0.1,0c0,0,0.1,0,0.1,0s0.1,0,0.1,0.1c0,0-0.1,0-0.1,0
		c0.2,0.1,0.5,0.2,0.9,0.3c0.1,0.1,0.2,0.2,0.4,0.3c0,0,0.2,0.1,0.5,0.1c0.2,0,0.4,0.1,0.4,0.3h0.3l0.3-0.1c0,0,0.2,0,0.5,0
		c0.3,0,0.4,0,0.4,0c0,0,0.3-0.1,0.8-0.2c0.5-0.2,0.8-0.2,1.1-0.3c0.1,0,0.1,0,0.2,0c0,0-0.1-0.1-0.2-0.1c0.2-0.1,0.6-0.4,1-0.7
		c0.1-0.1,0.2-0.3,0.3-0.5c0,0,0.1,0,0.2-0.1c0-0.2,0.1-0.3,0.1-0.4c0.1-0.1,0.2-0.3,0.3-0.3c0-0.2,0-0.4,0.1-0.5
		c0.1-0.1,0.1-0.2,0.1-0.2v-1.1c0-0.7,0-1.2,0-1.4c-0.1,0-0.1,0-0.1-0.1c0.1,0,0.2-0.1,0.2-0.2l-0.4-0.7c0,0,0.1,0,0.1,0
		c0-0.1,0-0.2,0-0.2c0,0,0.1,0.1,0.2,0.1c0.1,0.1,0.2,0.1,0.2,0.1c0-0.2,0-0.3,0-0.3L382.5,614.3z M371.6,618.6L371.6,618.6
		l-0.1-0.1h0.1V618.6z M374.6,611.1c0-0.1-0.1-0.1-0.1-0.2s-0.1-0.2-0.1-0.3c-0.1-0.1-0.2-0.3-0.5-0.6s-0.5-0.6-0.5-0.8
		c0,0,0,0-0.1,0.1c0,0,0-0.1,0-0.2c-0.1,0.2-0.2,0.5-0.4,0.9c-0.2,0.3-0.4,0.6-0.7,0.9c0,0.1-0.1,0.2-0.1,0.4c0,0.1,0.1,0.3,0.3,0.4
		c0.2,0.2,0.4,0.2,0.5,0.2c0.1,0,0.3,0,0.4-0.1c0,0,0.1,0.1,0.2,0.1c0,0,0,0,0,0.1c0.1,0,0.2,0.1,0.2,0.1c0,0,0.1,0,0,0c0,0,0,0,0,0
		c0,0,0.1,0,0,0s0,0,0,0c0.1,0,0.3-0.1,0.4-0.2l0.1,0.1c0.2-0.2,0.3-0.4,0.3-0.4c0,0,0-0.1,0-0.1s0,0,0,0c0,0,0,0,0.1,0
		c0-0.1,0-0.2,0-0.3C374.5,611.2,374.6,611.2,374.6,611.1z M374.6,606.9c0-0.1-0.1-0.2-0.2-0.3c-0.2-0.3-0.5-0.4-0.7-0.4
		c-0.2,0-0.3,0-0.5,0.1c-0.2-0.2-0.3-0.3-0.4-0.3c0,0-0.1,0-0.2,0c-0.1,0-0.1,0-0.2,0c-0.1,0.1-0.2,0.2-0.5,0.4c0,0,0,0.1,0,0.2
		l-0.1-0.1c0,0,0,0.1,0,0.1c0,0.1,0.1,0.2,0,0.2L372,607c0,0,0.1,0.1,0.2,0.5c0.1,0.2,0.3,0.4,0.6,0.7s0.5,0.6,0.5,0.8
		c0,0,0,0,0.1-0.1c0,0,0,0.1,0,0.1c0,0.1,0,0.1,0,0.1c0.1-0.4,0.5-1,1-1.7C374.6,607.2,374.6,607.1,374.6,606.9z M373.1,609.4
		l-0.1,0.2l0,0L373.1,609.4L373.1,609.4z M373.5,608.6l-0.1,0.2l-0.1,0L373.5,608.6L373.5,608.6z M379.2,606.4l-0.3-0.2l0,0
		L379.2,606.4L379.2,606.4z M380.3,607.9l0,0.2l0,0L380.3,607.9L380.3,607.9z M380.4,608.6L380.4,608.6l-0.1-0.1l0.1,0L380.4,608.6z
		 M381.9,613.8L381.9,613.8l-0.2-0.1l0.1,0L381.9,613.8z M382.2,608.8v-0.1h-0.1L382.2,608.8L382.2,608.8z"/>
</g>
<path class="st25" d="M65.4,811.8c6.4-4,12.1-8.5,15.5-15.7c3.4,7.1,9.1,11.7,15.5,15.6c-6.3,4-12,8.5-15.5,15.7
	C77.6,820.3,71.9,815.8,65.4,811.8z"/>
<g>
	<path d="M26.1,813.3c-1.7,1.4-3.1,3-4.7,4.5c-2.6,2.5-5,3-7.8,1.6c-2.7-1.4-4.2-4.3-3.8-7.4c0.4-2.9,2.6-5.2,5.6-5.9
		c2.1-0.5,3.8,0.3,5.4,1.6c1.6,1.4,2.8,3,4.5,4.3c0.1,0.1,0.2,0.2,0.5,0.4c-0.2-0.8-0.7-1.2-1.1-1.6c-1.1-1.1-2.2-2.2-3.3-3.3
		c-2.4-2.5-2.7-5.4-0.8-8.2c1.8-2.8,5.4-3.8,8.5-2.6c2.9,1.1,4.8,4.3,4.4,7.3c-0.2,1.4-1.2,2.5-2,3.6c-0.4,1.1-1.5,1.7-2.2,2.5
		c-0.4,0.5-1,1-1.4,1.5c1-1,2-2,3-3c0.3-0.3,0.6-0.6,1-0.7c2-1.7,4.1-2.5,6.7-1.6c3.2,1.1,5.2,4.4,4.7,7.7c-0.5,3.4-3.5,6.1-6.9,6.1
		c-1.6,0-3-0.8-4.1-1.8c-1.8-1.6-3.3-3.6-5.3-5C26.8,813.2,26.5,813.1,26.1,813.3z"/>
	<path d="M26.1,813.3c0.3-0.4,0.6-0.6,1-0.1c-0.5,0.3-0.1,0.6-0.1,0.9c1.1,5.6,4.4,9.6,9.2,12.4c0.3,0.2,0.7,0.4,1.2,0.8
		c-7.3,0-14.4,0-21.6,0c2.2-1.3,4.2-2.8,6-4.5c2.8-2.6,3.7-6,4.7-9.5C26.7,813.1,26.3,813.4,26.1,813.3z"/>
</g>
<g>
	<path class="st26" d="M192.7,808.4c2.4-4.2,7.3-6,11.7-4.4c4,1.5,5.6,5.9,3.6,10.2c-1,2.1-2.5,3.7-4.3,5.1
		c-1.6,1.3-3.4,2.5-5.1,3.6c-1.9,1.3-3.8,2.6-5.4,4.1c-0.3,0.2-0.5,0.6-0.9,0.1c-3-2.8-6.6-4.7-9.8-7.1c-1.1-0.8-2.2-1.7-3.1-2.8
		c-1.4-1.5-2.4-3.2-2.8-5.2c-0.8-5,2-8.5,7.1-8.7C187.7,803.3,190.6,805,192.7,808.4z"/>
</g>
<g>
	<path d="M136.6,817.7c-0.6-0.1-1,0.4-1.4,0.7c-3,1.7-6,2.7-9.4,1.4c-5-2-6.3-6.8-3-11c1.5-1.9,3.5-3.3,5.4-4.8
		c2.9-2.3,5.7-4.6,8.3-7.2c0.3-0.3,0.5-0.8,1-0.2c3.9,3.9,8.4,7,12.5,10.6c1.5,1.4,2.6,3.1,3.1,5.2c0.5,2.3-0.2,4.2-1.9,5.7
		c-2.9,2.6-6.2,3-9.8,1.5c-1-0.4-1.9-1-2.8-1.5c-0.3-0.2-0.6-0.5-1-0.4c-0.1-0.1,0,0-0.1,0C137.2,817.6,136.9,816.8,136.6,817.7z"/>
	<path d="M136.6,817.7c0.3-0.9,0.7-0.6,1,0c1.6,3.5,4.4,5.8,7.3,8c0.8,0.6,1.6,1.1,2.5,1.7c-6.9,0-13.7,0-20.6,0
		c1.3-1,2.6-1.8,3.7-2.7C133,822.8,135.3,820.6,136.6,817.7z"/>
</g>
<path class="st25" d="M288.1,811.8c6.4-4,12.1-8.5,15.5-15.7c3.4,7.1,9.1,11.7,15.5,15.6c-6.3,4-12,8.5-15.5,15.7
	C300.2,820.3,294.5,815.8,288.1,811.8z"/>
<g>
	<path d="M248.8,813.3c-1.7,1.4-3.1,3-4.7,4.5c-2.6,2.5-5,3-7.8,1.6c-2.7-1.4-4.2-4.3-3.8-7.4c0.4-2.9,2.6-5.2,5.6-5.9
		c2.1-0.5,3.8,0.3,5.4,1.6c1.6,1.4,2.8,3,4.5,4.3c0.1,0.1,0.2,0.2,0.5,0.4c-0.2-0.8-0.7-1.2-1.1-1.6c-1.1-1.1-2.2-2.2-3.3-3.3
		c-2.4-2.5-2.7-5.4-0.8-8.2c1.8-2.8,5.4-3.8,8.5-2.6c2.9,1.1,4.8,4.3,4.4,7.3c-0.2,1.4-1.2,2.5-2,3.6c-0.4,1.1-1.5,1.7-2.2,2.5
		c-0.4,0.5-1,1-1.4,1.5c1-1,2-2,3-3c0.3-0.3,0.6-0.6,1-0.7c2-1.7,4.1-2.5,6.7-1.6c3.2,1.1,5.2,4.4,4.7,7.7c-0.5,3.4-3.5,6.1-6.9,6.1
		c-1.6,0-3-0.8-4.1-1.8c-1.8-1.6-3.3-3.6-5.3-5C249.5,813.2,249.1,813.1,248.8,813.3z"/>
	<path d="M248.8,813.3c0.3-0.4,0.6-0.6,1-0.1c-0.5,0.3-0.1,0.6-0.1,0.9c1.1,5.6,4.4,9.6,9.2,12.4c0.3,0.2,0.7,0.4,1.2,0.8
		c-7.3,0-14.4,0-21.6,0c2.2-1.3,4.2-2.8,6-4.5c2.8-2.6,3.7-6,4.7-9.5C249.3,813.1,249,813.4,248.8,813.3z"/>
</g>
<g>
	<path class="st26" d="M415.4,808.4c2.4-4.2,7.3-6,11.7-4.4c4,1.5,5.6,5.9,3.6,10.2c-1,2.1-2.5,3.7-4.3,5.1
		c-1.6,1.3-3.4,2.5-5.1,3.6c-1.9,1.3-3.8,2.6-5.4,4.1c-0.3,0.2-0.5,0.6-0.9,0.1c-3-2.8-6.6-4.7-9.8-7.1c-1.1-0.8-2.2-1.7-3.1-2.8
		c-1.4-1.5-2.4-3.2-2.8-5.2c-0.8-5,2-8.5,7.1-8.7C410.3,803.3,413.3,805,415.4,808.4z"/>
</g>
<g>
	<path d="M359.3,817.7c-0.6-0.1-1,0.4-1.4,0.7c-3,1.7-6,2.7-9.4,1.4c-5-2-6.3-6.8-3-11c1.5-1.9,3.5-3.3,5.4-4.8
		c2.9-2.3,5.7-4.6,8.3-7.2c0.3-0.3,0.5-0.8,1-0.2c3.9,3.9,8.4,7,12.5,10.6c1.5,1.4,2.6,3.1,3.1,5.2c0.5,2.3-0.2,4.2-1.9,5.7
		c-2.9,2.6-6.2,3-9.8,1.5c-1-0.4-1.9-1-2.8-1.5c-0.3-0.2-0.6-0.5-1-0.4c-0.1-0.1,0,0-0.1,0C359.9,817.6,359.6,816.8,359.3,817.7z"/>
	<path d="M359.3,817.7c0.3-0.9,0.7-0.6,1,0c1.6,3.5,4.4,5.8,7.3,8c0.8,0.6,1.6,1.1,2.5,1.7c-6.9,0-13.7,0-20.6,0
		c1.3-1,2.6-1.8,3.7-2.7C355.7,822.8,358,820.6,359.3,817.7z"/>
</g>
<path class="st25" d="M514.1,811.8c6.4-4,12.1-8.5,15.5-15.7c3.4,7.1,9.1,11.7,15.5,15.6c-6.3,4-12,8.5-15.5,15.7
	C526.2,820.3,520.5,815.8,514.1,811.8z"/>
<g>
	<path d="M474.8,813.3c-1.7,1.4-3.1,3-4.7,4.5c-2.6,2.5-5,3-7.8,1.6c-2.7-1.4-4.2-4.3-3.8-7.4c0.4-2.9,2.6-5.2,5.6-5.9
		c2.1-0.5,3.8,0.3,5.4,1.6c1.6,1.4,2.8,3,4.5,4.3c0.1,0.1,0.2,0.2,0.5,0.4c-0.2-0.8-0.7-1.2-1.1-1.6c-1.1-1.1-2.2-2.2-3.3-3.3
		c-2.4-2.5-2.7-5.4-0.8-8.2c1.8-2.8,5.4-3.8,8.5-2.6c2.9,1.1,4.8,4.3,4.4,7.3c-0.2,1.4-1.2,2.5-2,3.6c-0.4,1.1-1.5,1.7-2.2,2.5
		c-0.4,0.5-1,1-1.4,1.5c1-1,2-2,3-3c0.3-0.3,0.6-0.6,1-0.7c2-1.7,4.1-2.5,6.7-1.6c3.2,1.1,5.2,4.4,4.7,7.7c-0.5,3.4-3.5,6.1-6.9,6.1
		c-1.6,0-3-0.8-4.1-1.8c-1.8-1.6-3.3-3.6-5.3-5C475.5,813.2,475.1,813.1,474.8,813.3z"/>
	<path d="M474.8,813.3c0.3-0.4,0.6-0.6,1-0.1c-0.5,0.3-0.1,0.6-0.1,0.9c1.1,5.6,4.4,9.6,9.2,12.4c0.3,0.2,0.7,0.4,1.2,0.8
		c-7.3,0-14.4,0-21.6,0c2.2-1.3,4.2-2.8,6-4.5c2.8-2.6,3.7-6,4.7-9.5C475.3,813.1,475,813.4,474.8,813.3z"/>
</g>
<g>
	<path d="M585.3,817.7c-0.6-0.1-1,0.4-1.4,0.7c-3,1.7-6,2.7-9.4,1.4c-5-2-6.3-6.8-3-11c1.5-1.9,3.5-3.3,5.4-4.8
		c2.9-2.3,5.7-4.6,8.3-7.2c0.3-0.3,0.5-0.8,1-0.2c3.9,3.9,8.4,7,12.5,10.6c1.5,1.4,2.6,3.1,3.1,5.2c0.5,2.3-0.2,4.2-1.9,5.7
		c-2.9,2.6-6.2,3-9.8,1.5c-1-0.4-1.9-1-2.8-1.5c-0.3-0.2-0.6-0.5-1-0.4c-0.1-0.1,0,0-0.1,0C585.9,817.6,585.6,816.8,585.3,817.7z"/>
	<path d="M585.3,817.7c0.3-0.9,0.7-0.6,1,0c1.6,3.5,4.4,5.8,7.3,8c0.8,0.6,1.6,1.1,2.5,1.7c-6.9,0-13.7,0-20.6,0
		c1.3-1,2.6-1.8,3.7-2.7C581.7,822.8,584,820.6,585.3,817.7z"/>
</g>
</svg>
