<?xml version="1.0" encoding="utf-8"?>
<!-- Generator: Adobe Illustrator 16.0.0, SVG Export Plug-In . SVG Version: 6.00 Build 0)  -->
<!DOCTYPE svg PUBLIC "-//W3C//DTD SVG 1.1//EN" "http://www.w3.org/Graphics/SVG/1.1/DTD/svg11.dtd">
<svg version="1.1" xmlns="http://www.w3.org/2000/svg" xmlns:xlink="http://www.w3.org/1999/xlink" x="0px" y="0px" width="1080px"
	 height="720px" viewBox="0 0 1080 720" enable-background="new 0 0 1080 720" xml:space="preserve">
<g id="Layer_1">
	<rect y="0.218" fill="#126C9E" width="1080" height="719.782"/>
	<path fill="none" stroke="#EBEBEB" stroke-width="8" stroke-linecap="round" stroke-linejoin="round" stroke-miterlimit="10" d="
		M266.817,608.563"/>
	
		<path opacity="0.15" fill="none" stroke="#FFFFFF" stroke-width="10" stroke-linecap="round" stroke-linejoin="round" stroke-miterlimit="10" d="
		M76.761,210.936"/>
	<g>
		<defs>
			<polyline id="SVGID_1_" points="682.783,720 -37,720 -37,0.218 682.783,0.218 			"/>
		</defs>
		<clipPath id="SVGID_2_">
			<use xlink:href="#SVGID_1_"  overflow="visible"/>
		</clipPath>
		<g clip-path="url(#SVGID_2_)">
			<g>
				<path fill="#FDB988" d="M-75.31,923.689H71.082l301.735-359.594c8.783-10.468,7.417-26.075-3.051-34.858l-56.942-56.943h-92.313
					v88.044L-75.31,923.689z"/>
				<g>
					<g>
						<circle fill="#FF841C" cx="322.891" cy="206.438" r="108.057"/>
						<path fill="#FF841C" d="M106.776,98.379c0,59.679,48.378,108.058,108.058,108.058s108.059-48.379,108.059-108.058H106.776z"/>
						<path fill="#FF841C" d="M280.514,20.012h-45.887c0,32.297,26.276,58.572,58.573,58.572l45.886,0.001
							C339.086,46.289,312.812,20.012,280.514,20.012z"/>
						<path fill="#FDC01A" d="M322.892,134.369c41.037,0,74.174,34.48,71.963,75.992c-1.947,36.538-31.51,66.097-68.047,68.042
							c-41.509,2.208-75.986-30.928-75.986-71.965v-26.272c0-5.367-4.35-9.717-9.716-9.717h-26.272
							c-26.64,0-49.95-14.53-62.423-36.08H322.892"/>
						<path fill="#F77219" d="M106.776-29.472H-1.283c0,59.679,48.379,108.058,108.059,108.058h108.058
							C214.833,18.906,166.455-29.472,106.776-29.472z"/>
						<path fill="#F77219" d="M70.104,206.438l30.328,0.001c20.155,0,37.264,13.298,43.014,31.581l-30.329,0
							C92.963,238.019,75.854,224.72,70.104,206.438"/>
						<path fill="#FDCD48" d="M322.892,170.358c19.893,0,36.078,16.185,36.078,36.08c0,19.894-16.185,36.079-36.078,36.079
							c-19.895,0-36.081-16.185-36.081-36.079C286.812,186.543,302.997,170.358,322.892,170.358"/>
					</g>
					<g>
						<polygon fill="#B0B0B0" points="231.413,354.408 286.483,878.368 359.298,878.368 414.368,354.408 						"/>
						<path fill="#858585" d="M414.368,354.408H231.413c-8.696,0.001-15.744,7.049-15.744,15.745
							c0,8.696,7.048,15.745,15.744,15.746h182.955c8.697,0,15.745-7.05,15.745-15.746
							C430.113,361.457,423.065,354.408,414.368,354.408z"/>
						<path fill="#B0B0B0" d="M185.043,274.583c0,34.185,18.676,63.994,46.37,79.825H414.37c27.695-15.831,46.37-45.64,46.37-79.825
							H185.043z"/>
						<g>
							<path fill="none" stroke="#858585" stroke-width="7" stroke-miterlimit="10" d="M210.889,274.583v37.364
								c0,18.233,14.781,33.014,33.014,33.014c18.234,0,33.014-14.78,33.014-33.014v-37.364"/>
							<path fill="none" stroke="#858585" stroke-width="7" stroke-miterlimit="10" d="M263.548,274.583v37.364
								c0,18.233,14.781,33.014,33.014,33.014c18.234,0,33.014-14.78,33.014-33.014v-37.364"/>
							<path fill="none" stroke="#858585" stroke-width="7" stroke-miterlimit="10" d="M316.207,274.583v37.364
								c0,18.233,14.78,33.014,33.014,33.014c18.234,0,33.014-14.78,33.014-33.014v-37.364"/>
							<path fill="none" stroke="#858585" stroke-width="7" stroke-miterlimit="10" d="M368.865,274.583v37.364
								c0,18.233,14.781,33.014,33.014,33.014s33.015-14.78,33.015-33.014v-37.364"/>
						</g>
					</g>
					<g>
						
							<path opacity="0.2" fill="none" stroke="#FFFFFF" stroke-width="10" stroke-linecap="round" stroke-linejoin="round" stroke-miterlimit="10" d="
							M210.239,74.087H106.776"/>
						
							<path opacity="0.2" fill="none" stroke="#FFFFFF" stroke-width="10" stroke-linecap="round" stroke-linejoin="round" stroke-miterlimit="10" d="
							M189.657,279.082h266.47"/>
						
							<path opacity="0.1" fill="none" stroke="#FFFFFF" stroke-width="10" stroke-linecap="round" stroke-linejoin="round" stroke-miterlimit="10" d="
							M231.413,358.906h182.955"/>
						
							<path opacity="0.2" fill="none" stroke="#FFFFFF" stroke-width="10" stroke-linecap="round" stroke-linejoin="round" stroke-miterlimit="10" d="
							M241.632,408.596l-1.913-18.199 M290.533,873.87l-31.771-302.276V464.597"/>
						
							<path opacity="0.2" fill="none" stroke="#FFFFFF" stroke-width="10" stroke-linecap="round" stroke-linejoin="round" stroke-miterlimit="10" d="
							M241.202,270.084c-14.119-18.107-21.87-40.623-21.87-63.647v-4.499h-4.499c-27.663,0-53.668-10.772-73.228-30.332
							c-18.496-18.496-29.134-42.755-30.236-68.729 M396.119,133.209c19.559,19.56,30.331,45.565,30.331,73.228"/>
						
							<line opacity="0.2" fill="none" stroke="#FFFFFF" stroke-width="10" stroke-linecap="round" stroke-linejoin="round" stroke-miterlimit="10" x1="334.403" y1="74.087" x2="293.2" y2="74.086"/>
					</g>
					<g>
						<path fill="#FFFFFF" d="M186.229,288.042c2.352-5.511,6.764-9.921,12.274-12.275c1.05-0.448,1.05-1.924,0-2.373
							c-5.512-2.351-9.922-6.763-12.274-12.272c-0.45-1.049-1.926-1.049-2.374,0c-2.351,5.51-6.763,9.92-12.272,12.273
							c-1.05,0.448-1.05,1.924,0.001,2.372c5.508,2.353,9.92,6.764,12.272,12.275C184.304,289.093,185.781,289.093,186.229,288.042z
							"/>
						<g>
							<path fill="#FFFFFF" d="M394.933,146.669c-2.353-5.511-6.764-9.921-12.274-12.274c-1.049-0.448-1.049-1.924,0-2.374
								c5.511-2.351,9.923-6.763,12.274-12.272c0.45-1.049,1.926-1.049,2.374,0c2.351,5.51,6.762,9.92,12.271,12.273
								c1.051,0.448,1.051,1.924,0,2.373c-5.509,2.352-9.92,6.764-12.272,12.274C396.857,147.721,395.381,147.721,394.933,146.669z"
								/>
							<path fill="#FFFFFF" d="M411.748,124.222c-1.274-2.981-3.661-5.369-6.643-6.641c-0.568-0.243-0.566-1.042,0-1.286
								c2.982-1.271,5.369-3.659,6.643-6.641c0.243-0.567,1.042-0.567,1.283,0c1.274,2.982,3.661,5.371,6.644,6.641
								c0.566,0.244,0.568,1.042,0,1.285c-2.983,1.273-5.37,3.661-6.644,6.642C412.789,124.79,411.991,124.79,411.748,124.222z"/>
						</g>
					</g>
					<path fill="#FFFFFF" d="M425.231,229.235c-3.702-9.974-11.61-17.881-21.579-21.582c-1.144-0.425-1.144-2.012,0-2.437
						c9.971-3.701,17.877-11.608,21.578-21.578c0.425-1.143,2.012-1.144,2.437,0c3.703,9.969,11.609,17.877,21.579,21.578
						c1.145,0.425,1.145,2.011,0,2.437c-9.968,3.702-17.876,11.61-21.579,21.582C427.244,230.378,425.655,230.379,425.231,229.235"
						/>
				</g>
				<g>
					<path fill="#FFFDFD" d="M333.552,526.251c-0.25,1.424-1.675,1.924-2.375,2.975c-0.574,0.899-1.099,1.849-1.65,2.824
						c0.825,0.324,1.376,0.649,1.975,0.725c0.425,0.051,1.125-0.149,1.275-0.425c0.5-1.074,1.449-1.375,2.425-1.549
						c1.65-0.301,3.275-0.551,4.624,0.949c0.775,0.85,1.925,0.85,3,0.7c0.275-0.05,0.526-0.475,0.7-0.775
						c0.25-0.425,0.45-0.926,1.025-0.65c0.625,0.275,0.45,0.825,0.225,1.3c-0.675,1.575-2.375,2.176-4.249,1.4
						c-0.726-0.3-1.325-0.95-2.075-1.25c-0.65-0.275-1.4-0.425-2.125-0.399c-0.976,0.024-1.925,0.149-2.5,1.25
						c-0.501,0.949-2,1.225-3.025,0.774c-0.5-0.226-1.024-0.35-1.849-0.625c-0.05,1.875-0.176,3.525-0.101,5.149
						c0.076,1.65,0.375,3.275,0.501,4.925c0.025,0.249-0.275,0.5-0.425,0.775c-0.125,0.225-0.3,0.449-0.325,0.674
						c-0.075,1.7-0.075,3.375-0.226,5.074c-0.05,0.775-0.299,1.525-0.55,2.275c-0.45,1.274-0.025,2.524,0,3.774
						c0,0.949-0.325,1.874-0.549,2.825c-0.025,0.124-0.4,0.275-0.525,0.224c-0.3-0.174-0.776-0.449-0.776-0.649
						c0.026-1.249,0.15-2.524,0.275-3.774c0.05-0.475,0.275-0.95,0.275-1.425c-0.025-2.05,0.025-4.125-0.176-6.175
						c-0.149-1.573-0.649-3.099-1-4.674c-0.025-0.1-0.174-0.149-0.475-0.425c-0.275,1.575-0.575,2.975-0.75,4.399
						c-0.025,0.3,0.35,0.749,0.65,0.975c0.524,0.375,0.875,0.75,0.85,1.425c-0.05,0.851-0.05,1.699-0.025,2.551
						c0,0.674-0.25,1.224-0.951,1.224c-0.7,0-0.75-0.625-0.7-1.174c0.05-0.801,0.125-1.625,0.175-2.525
						c-0.425-0.101-0.875-0.15-1.3-0.3c-0.225-0.075-0.5-0.301-0.575-0.5c-0.15-0.525-0.25-1.1-0.3-1.649
						c-0.1-1.001,0.075-2.05-0.625-2.925c-0.175-0.226-0.3-0.65-0.2-0.876c0.574-1.449,0.225-3.024,1-4.498
						c0.3-0.576,1.375-0.052,0.625-5.075c-1.076,2.05-2.65,2.425-4.65,2.074c-1.575-0.273-3.174-0.349-4.774-0.425
						c-0.375-0.024-0.85,0.275-1.125,0.551c-1,0.975-1.925,2.075-2.975,2.999c-0.25,0.225-0.925,0.125-1.325-0.05
						c-0.575-0.25-1.1-0.7-1.625-1.05c-0.375-0.275-0.85-0.5-1.101-0.85c-0.5-0.676-1.049-1.074-1.924-1.176
						c-0.275-0.024-0.525-0.499-0.775-0.75c0.325-0.199,0.701-0.624,1-0.55c0.7,0.125,1.45,0.375,2.05,0.775
						c1.05,0.7,1.975,1.55,3.05,2.4c1.05-1.15,1.9-2.176,2.85-3.101c0.4-0.375,1.05-0.649,1.549-0.649
						c1.8,0.05,3.625,0.199,5.424,0.425c1.925,0.25,2.1,0.199,3.075-1.45c0.2-0.351,0.625-0.55,0.85-0.75
						c-0.125-0.699-0.125-1.524-0.425-2.199c-0.35-0.8-0.975-1.499-1.475-2.225c-0.1-0.15-0.375-0.25-0.375-0.375
						c-0.051-1.6-1.55-2.275-2.2-3.5c-0.4-0.749-0.825-1.475-1.125-2.324c1.275,0.649,2.375,1.449,3.225,2.574
						c0.375,0.5,0.825,0.975,1.325,1.375c0.75,0.601,1.625,1.025,2.325,1.675c0.575,0.551,1.075,0.5,1.774,0.2
						c-0.125-0.25-0.174-0.524-0.325-0.676c-0.799-0.85-0.574-1.774-0.224-2.698c0.249-0.726,0.825-0.926,1.55-0.926
						c0.699,0,1.049,0.399,1.225,0.926c0.299,0.824,0.724,1.675-0.126,2.499c-0.149,0.149-0.075,0.851,0.076,0.95
						c0.399,0.225,0.699,0.924,1.35,0.425c0.574-0.45,1.175-0.875,1.774-1.25c0.375-0.226,0.875-0.275,1.25-0.524
						c0.8-0.551,1.55-1.176,2.299-1.75c0.226-0.176,0.476-0.3,0.725-0.451c0.25,0.102,0.526,0.176,0.8,0.275
						c-0.624,0.801-1.175,1.501-1.699,2.175l0,0C333.927,525.876,333.726,526.075,333.552,526.251z"/>
					<path fill="#FFFDFD" d="M333.127,527.774c0.174-0.174,0.35-0.35,0.524-0.549C333.477,527.399,333.301,527.575,333.127,527.774z
						"/>
					<path fill="#FFFDFD" d="M373.498,486.155c0.025,0.05,0.025,0.1,0.025,0.149c0,2.801,0.025,5.574,0.025,8.374
						c-0.075,0.226-0.25,0.475-0.201,0.7c0.25,1.8-0.299,3.549-0.899,5.1c-1.149,2.924-2.175,6-4.6,8.299
						c-1.675,1.575-3.074,3.399-4.749,4.974c-1.225,1.15-2.625,2.151-4.05,3.076c-0.951,0.648-2.4-0.301-2.4-1.476
						s0.05-2.351-0.025-3.499c-0.024-0.5-0.35-0.976-0.549-1.476c0.174-0.149,0.5-0.325,0.5-0.475c0-1.399-0.075-2.8-0.101-4.199
						c0.051-0.151,0.176-0.351,0.126-0.425c-0.601-0.825-0.275-1.7-0.176-2.55c0.101-0.875,0.2-1.675-0.125-2.601
						c-0.249-0.674,0.075-1.575,0.15-2.349c0.3-0.501,0.725-0.976,0.901-1.551c0.274-0.874,0.349-1.799,0.524-2.725
						c-0.05,0-0.176,0-0.3,0c-0.524-0.574-0.675-1.174-0.4-1.924c0.201-0.576,0.25-1.2,0.375-1.751c0.325-0.199,0.675-0.4,1.025-0.6
						c0.225-0.375,0.6-0.75,0.649-1.149c0.1-1.275,1.4-1.425,1.975-2.25c0.25-0.399,0.675-0.7,1-1.05
						c0.425-0.475,0.875-0.95,1.274-1.449c0.201-0.251,0.375-0.526,0.526-0.8c0.1-0.176,0.1-0.5,0.225-0.576
						c1.075-0.699,1.274-1.899,1.724-2.949c0.226,0.074,0.475,0.15,0.726,0.226c0.176-1.801,1.075-2.75,2.275-2.425
						c0.025-0.226,0.05-0.426,0.075-0.65c0.475,0.551,1.049,1.025,1.375,1.649c0.575,1.051,1.075,2.149,1.475,3.274
						c0.475,1.376,0.8,2.8,1.2,4.199C373.247,485.53,373.373,485.83,373.498,486.155z"/>
					<path fill="#FFFDFD" d="M338.051,495.079c0.6-0.199,1.175-0.425,1.774-0.625c0.126-0.375,0.226-0.75,0.35-1.125
						c0.075-0.25,0.125-0.524,0.175-0.8c0.725,1.15,0.75,1.125,2.025,0.574c0.8-0.35,1.65-0.524,2.475-0.773
						c0.275-0.101,0.675-0.15,0.825-0.375c0.676-0.951,1.401-1.851,2.375-2.576c0.75-0.549,1.399-1.299,1.925-2.05
						c0.475-0.698,0.749-1.549,1.099-2.323c0.051-0.126,0.051-0.351,0.126-0.4c1.2-0.65,2.174-1.5,2.875-2.676
						c0.125-0.199,0.4-0.375,0.625-0.399c0.425-0.05,0.875,0,1.3,0c-0.175,0.375-0.274,0.825-0.525,1.125
						c-0.825,0.925-1.774,1.725-2.574,2.7c-1.101,1.35-2.15,2.749-2.475,4.55c-0.1,0.499-0.575,0.925-0.875,1.374
						c-0.925,1.449-2.176,2.55-3.65,3.399c-0.725,0.425-1.45,0.899-2.224,1.15c-0.951,0.3-1.975,0.399-2.951,0.625
						c-0.174,0.05-0.425,0.175-0.5,0.35c-0.351,1-1.024,0.95-1.8,0.575c-0.025-0.226-0.025-0.601-0.075-0.625
						c-0.35-0.025-0.876,0.15-1,0c-0.224-0.274-0.199-0.75-0.25-1C337.502,495.479,337.776,495.279,338.051,495.079z"/>
					<path fill="#FFFDFD" d="M366.648,502.428c-0.35,0.251-0.701,0.5-1.225,0.851c0.075,0.3,0.05,0.925,0.325,1.274
						c0.176,0.201,0.85-0.05,1.3,0c0.075,0,0.075,0.524,0.1,0.8c-1.675,0.351-1.7,0.351-2-1.374
						c-0.199-1.075-0.949-1.25-1.849-1.101c-0.375-0.825-0.025-1.15,0.725-1.024C364.898,502.003,365.773,502.253,366.648,502.428z"
						/>
					<path fill="#FFFDFD" d="M369.622,499.153c-0.075,0.351-0.149,0.7-0.249,1.024c-0.126,0.501-0.3,0.976-0.45,1.45
						c-0.225-2.024-0.45-4.05-0.7-6.149c0.4-0.074,0.85-0.524,0.825,0.575C369.048,497.079,369.423,498.104,369.622,499.153z"/>
					<path fill="#FFFDFD" d="M294.756,502.503c-0.05,0.226-0.075,0.425-0.125,0.65C294.682,502.928,294.707,502.703,294.756,502.503
						z"/>
					<path fill="#FFFDFD" d="M306.604,493.104c0.2,0.825,0.3,1.675,0.6,2.45c0.275,0.775,0.75,1.45,1.1,2.2
						c0.15,0.3,0.275,0.625,0.4,0.95c0.125,0.35,0.225,0.674,0.375,1.1c0.4-0.15,0.675-0.25,1.025-0.399
						c0.125,0.449,0.2,0.874,0.35,1.3c0.1,0.249,0.274,0.7,0.4,0.7c1.125,0.023,1.025,0.823,1.175,1.549
						c0.15,0.675,0.774,1.199,0.375,2.024c-0.075,0.176,0.325,0.775,0.625,0.875c0.75,0.226,1.55,0.275,2.325,0.4
						c0.149,0.024,0.3,0.15,0.65,0.35c-1.1,0.275-2,0.524-2.9,0.75c-0.2,0.05-0.425,0.075-0.625,0.149
						c-1.175,0.526-2.3,1.101-3.5,1.551c-0.375,0.149-1.05,0.05-1.35-0.199c-0.75-0.626-1.399-0.701-2.125,0
						c-0.3,0.299-0.625,0.648-1,0.8c-0.274,0.1-0.75,0.023-0.975-0.151c-0.75-0.574-1.599-0.7-2.274-0.024
						c-0.575,0.55-1.075,0.7-1.925,0.55c-1.375-0.225-2.8-0.075-4.199-0.075c-0.8,0-1.525,0.05-2.2-0.6
						c-0.575-0.551-1.75-0.399-2.35,0.199c-0.5,0.5-0.775,0.325-1.25-0.05c-0.575-0.449-1.25-0.8-1.925-1.024
						c-0.5-0.175-1.05-0.125-1.274,0.6c-0.05,0.175-0.575,0.375-0.775,0.301c-1.524-0.55-2.999-1.15-4.499-1.725
						c-0.35-0.126-0.75-0.176-1.075-0.325c-0.325-0.151-0.6-0.375-0.9-0.576c0.326-0.174,0.625-0.399,0.975-0.475
						c0.575-0.149,1.175-0.175,1.75-0.35c0.55-0.15,0.625-0.45,0.125-0.851c-0.825-0.649-0.8-0.774,0-1.449
						c0.175-0.149,0.3-0.449,0.325-0.7c0.05-0.425,0.025-0.875,0.025-1.374c0.25,0.024,0.4,0.024,0.525,0.074
						c0.8,0.226,1.175,0,1.175-0.8c0-0.65,0.149-0.999,0.875-1.024c0.25,0,0.6-0.275,0.75-0.525c1.375-2.6,1.999-5.425,2.225-8.349
						c0.174-2.574,0.3-5.149,0.45-7.725c0-0.149,0.1-0.299,0.125-0.45c0.05,0.325,0.15,0.65,0.175,1.001
						c0.075,0.775,0.101,1.575,0.225,2.349c0.05,0.226,0.375,0.425,0.575,0.626c0.125-0.151,0.325-0.301,0.325-0.476
						c0.225-2.449,0.399-4.874,0.6-7.324c0.025-0.425,0.125-0.85,0.2-1.274c0.175,1.699,0.45,3.3,1.025,4.85
						c0.1,0,0.175-0.025,0.275-0.025c0.175-0.65,0.325-1.325,0.5-1.975c0.125,1.225,0.075,2.425,0.15,3.625
						c0.025,0.375,0.375,0.749,0.549,1.124c-0.25,1-0.524,2-0.799,3.025c0,0,0,0,0.025-0.025c-0.025,0-0.05,0-0.075,0.025
						c0,0,0,0.024-0.025,0.05c0.025,0,0.025,0,0.075-0.05c0.225,0.199,0.5,0.399,0.6,0.674c0.199,0.475,0.274,0.976,0.375,1.376
						c-1.225,0.825-2.45,1.649-3.7,2.475c0.125,0.075,0.226,0.149,0.35,0.249c0.025,0.275,0.125,0.551,0.075,0.825
						c-0.1,0.925-0.325,1.825-0.375,2.75c-0.025,0.8,0.1,1.625,0.175,2.425c-0.026,0.025-0.026,0.05-0.051,0.075
						c0.025-0.025,0.025-0.05,0.051-0.075c0.25,0.05,0.5,0.1,0.75,0.175c-0.375,0.5-0.75,1.025-1.15,1.525l0,0
						c-0.25,0.199-0.55,0.399-0.75,0.65c-0.35,0.449-0.55,1.049-0.975,1.374c-0.7,0.55-1.524,0.925-2.299,1.374
						c-1,0.602-1,1.051-0.075,2.326c-0.175,0.249-0.35,0.475-0.55,0.725c0.1,0.1,0.225,0.199,0.325,0.274
						c0.425-0.475,0.85-0.925,1.275-1.399l0,0c0.2-0.201,0.375-0.375,0.575-0.576c0.175,0.176,0.375,0.375,0.55,0.551
						c0.825,1.325,2.175,1.976,3.625,2.025c3.7,0.124,7.399,0,11.074,0.05c1.649,0.024,3.25-0.1,4.825-0.726
						c0.75-0.3,1.175-0.725,1.075-1.525c0.025-0.1,0.05-0.174,0.1-0.273c0.05,0.024,0.125,0.024,0.175,0.024
						c0.575,0.625,1,1.449,1.875,1.675c0.075-0.074,0.15-0.15,0.2-0.25c-0.175-0.251-0.325-0.5-0.475-0.726
						c0.125-0.299,0.225-0.574,0.35-0.85c0.3-0.524,0.325-0.975-0.375-1.175l0,0c-0.15-0.15-0.25-0.35-0.425-0.45
						c-0.8-0.5-1.625-0.975-2.45-1.449l0,0c-0.475-0.676-0.925-1.374-1.4-2.05c-0.35-0.475-0.725-0.925-1.075-1.374
						c0.375-0.126,1.05-0.275,1.05-0.376c-0.05-1.475,0.7-2.974-0.125-4.449c-0.174-0.301-0.025-0.8-0.025-1.2
						c0.175-0.1,0.051-0.175-0.025-0.25c-0.825-0.95-1.574-1.974-3.075-1.85c-0.125,0-0.399-0.3-0.375-0.425
						c0.175-0.726,0.35-1.476,0.625-2.175c0.175-0.399,0.075-1.676-0.275-1.726c-1.05-0.149-0.95-0.823-0.799-1.523
						c0.1,0.249,0.174,0.475,0.275,0.724c0.05,0,0.125,0,0.175-0.024c0.225-2.225,0.425-4.449,0.65-6.675c0.075,0,0.175,0,0.25,0
						c0.05,0.176,0.075,0.325,0.125,0.501c0,0.125,0,0.249,0,0.374c0,0.126,0,0.251,0,0.4c0.125,0.501,0.25,1,0.375,1.5
						c0,0.199,0,0.375,0,0.574c0.05,0.076,0.125,0.126,0.175,0.201c0.2,0.499,0.375,1.023,0.575,1.524c0,0.05,0,0.125,0,0.175
						c0.125,0.899-0.274,1.9,0.45,2.75c0.2-0.399,0.275-0.8,0.3-1.225c0.075-1.2,0.125-2.425,0.2-3.625
						c0.175,0.65,0.375,1.274,0.55,1.925c0.225,1.85,0.425,3.7,0.65,5.549C306.28,490.755,306.455,491.929,306.604,493.104z"/>
					<path fill="#FFFDFD" d="M302.805,479.455c-0.05-0.174-0.075-0.325-0.125-0.499c-0.075,0-0.174,0-0.25,0
						c-0.225,2.224-0.425,4.449-0.65,6.674c-0.05,0-0.125,0-0.175,0.024c-0.1-0.249-0.175-0.475-0.275-0.725
						c-0.4-0.875-0.8-1.75-1.175-2.55c-0.3,0.526,0.274,1.675-1.05,1.751c-0.076-0.526-0.125-1.051-0.2-1.6
						c-0.175,0.024-0.425-0.025-0.475,0.05c-0.275,0.499-0.5,1.023-0.85,1.725c-0.7-1.226-0.925-2.425-0.95-3.524
						c-0.325,0.799-0.675,1.699-1.075,2.6c-0.225,0.499-0.525,0.949-0.775,1.424c-0.25-1.225-0.475-2.425-0.775-3.898
						c-0.075,1.35-0.125,2.499-0.2,3.649l0,0c-0.2,0.175-0.4,0.351-0.575,0.524c-0.125,0.025-0.25,0.025-0.375,0.05
						c-0.2-0.375-0.525-0.75-0.55-1.125c-0.075-1.2-0.025-2.398-0.15-3.624c-0.175,0.649-0.325,1.325-0.5,1.975
						c-0.101,0-0.175,0.024-0.275,0.024c-0.575-1.549-0.851-3.148-1.025-4.849c-0.075,0.425-0.15,0.85-0.2,1.275
						c-0.2,2.449-0.4,4.874-0.6,7.323c-0.026,0.175-0.225,0.325-0.325,0.476c-0.2-0.2-0.525-0.4-0.575-0.625
						c-0.125-0.775-0.149-1.551-0.225-2.351c-0.025-0.324-0.125-0.649-0.175-0.999c0-0.825,0-1.65,0.025-2.475
						c0.05-0.101,0.15-0.226,0.15-0.326c0.275-2.899,0.525-5.824,0.775-8.748c0.25-0.45,0.5-0.9,0.75-1.35
						c0.025,0.825,0.075,1.649,0.1,2.449c0.025,0.324,0.05,0.649,0.075,0.95c0.025,0.55,0.075,1.125,0.1,1.675
						c0.15,0,0.325,0,0.475-0.025c0.05-1.25,0.125-2.5,0.175-3.749c0.125,0.449,0.25,0.925,0.375,1.374c0.05,0,0.1-0.024,0.15-0.024
						c0.174-0.95,0.35-1.899,0.5-2.851c0.125,0,0.25,0,0.4,0.025c0,1.175,0,2.375,0,3.55c0.1,0,0.175,0,0.274,0
						c0.101-1.1,0.2-2.199,0.3-3.274c0.1,0,0.225-0.025,0.325-0.025c0.101,0.825,0.175,1.65,0.275,2.5c0.075,0,0.149,0,0.225,0
						c0.15-0.775,0.325-1.55,0.475-2.3c0.076,0.024,0.15,0.024,0.225,0.05c0.1,0.35,0.2,0.675,0.35,1.125c0.4-0.726,0.7-1.25,1-1.8
						c0.1,0.05,0.175,0.075,0.275,0.125c0,0.899,0,1.799,0,2.7c0.075,0,0.125,0.025,0.2,0.025c0.175-0.875,0.325-1.75,0.5-2.626
						c0.075,0,0.174,0,0.25-0.024c0.175,0.324,0.35,0.625,0.55,1c0.125-0.25,0.25-0.45,0.375-0.676
						c0.075,0.025,0.125,0.025,0.2,0.051c0,0.85,0,1.674,0,2.524c0.05,0,0.1,0,0.15,0c0.15-0.675,0.275-1.375,0.425-2.05
						c0.1,0,0.2,0.024,0.3,0.024c0,0.7,0,1.426,0,2.126c0.075,0,0.15,0,0.226,0c0.075-0.501,0.125-1.001,0.199-1.525
						c0.101,0.175,0.175,0.275,0.275,0.475c0.025-0.425,0.05-0.725,0.075-1.023c0.025,0,0.025,0,0.05,0
						c0.15,1.874,0.275,3.749,0.425,5.623c0.05,0,0.125-0.024,0.175-0.024c0.15-1.475,0.3-2.925,0.451-4.399c0.1,0,0.174,0,0.275,0
						c0.175,0.5,0.375,1,0.55,1.499c0.05-0.024,0.1-0.024,0.149-0.05c0.101-0.975,0.2-1.975,0.3-2.949c0.05,0,0.075,0,0.125-0.025
						c0.275,0.9,0.55,1.8,0.825,2.725c0.05-0.025,0.125-0.05,0.175-0.05c0.1-0.524,0.2-1.074,0.299-1.601
						c0.125,1.001,0.325,2,0.375,3.001c0.075,1.474,0.05,2.949,0,4.424c-0.025,0.575,0.2,0.8,0.775,0.75c0,0.325,0,0.625,0,0.95
						c-0.125,0.2-0.25,0.374-0.375,0.575c-0.125,0-0.25,0-0.375,0s-0.25,0-0.4,0c0-0.975,0-1.95,0-2.9c-0.05,0-0.125,0-0.174,0.025
						C303.206,478.531,303.005,479.006,302.805,479.455z"/>
					<path fill="#FFFDFD" d="M303.581,471.282c-0.101,0.524-0.2,1.074-0.3,1.599c-0.05,0.025-0.125,0.05-0.175,0.05
						c-0.275-0.899-0.549-1.799-0.825-2.724c-0.05,0-0.075,0-0.125,0.025c-0.1,0.974-0.2,1.975-0.3,2.949
						c-0.05,0.024-0.1,0.024-0.15,0.05c-0.175-0.5-0.375-0.999-0.55-1.499c-0.101,0-0.175,0-0.275,0
						c-0.15,1.474-0.3,2.925-0.451,4.398c-0.05,0-0.125,0.025-0.174,0.025c-0.15-1.875-0.275-3.75-0.425-5.624
						c-0.025,0-0.025,0-0.05,0c-0.025,0.299-0.05,0.6-0.075,1.024c-0.125-0.199-0.175-0.325-0.275-0.475
						c-0.075,0.524-0.125,1.024-0.199,1.525c-0.075,0-0.15,0-0.225,0c0-0.701,0-1.426,0-2.125c-0.1,0-0.2-0.026-0.3-0.026
						c-0.15,0.676-0.274,1.376-0.425,2.05c-0.05,0-0.1,0-0.15,0c0-0.85,0-1.675,0-2.524c-0.075-0.024-0.125-0.024-0.2-0.05
						c-0.125,0.226-0.225,0.425-0.375,0.676c-0.2-0.375-0.375-0.676-0.55-1.001c-0.075,0-0.175,0-0.25,0.026
						c-0.175,0.875-0.325,1.749-0.5,2.624c-0.075,0-0.125-0.024-0.2-0.024c0-0.9,0-1.801,0-2.701c-0.1-0.05-0.175-0.074-0.275-0.124
						c-0.3,0.55-0.6,1.075-1,1.799c-0.15-0.449-0.25-0.8-0.35-1.124c-0.075-0.025-0.149-0.025-0.225-0.051
						c-0.15,0.775-0.325,1.55-0.475,2.301c-0.075,0-0.15,0-0.225,0c-0.1-0.825-0.175-1.65-0.275-2.5c-0.1,0-0.225,0.024-0.325,0.024
						c-0.1,1.101-0.2,2.2-0.299,3.275c-0.101,0-0.175,0-0.275,0c0-1.175,0-2.375,0-3.55c-0.125,0-0.25,0-0.4-0.025
						c-0.175,0.951-0.351,1.9-0.5,2.85c-0.05,0-0.1,0.025-0.15,0.025c-0.125-0.45-0.25-0.925-0.375-1.375c0-0.325,0-0.625,0-0.949
						c0-0.226,0.05-0.45-0.025-0.65c-0.075-0.226-0.225-0.425-0.351-0.65c-0.149,0.15-0.349,0.3-0.475,0.476
						c-0.075,0.125-0.1,0.3-0.15,0.45c-0.25,0.449-0.5,0.899-0.75,1.35c-0.076-0.199-0.125-0.4-0.2-0.626
						c0-0.074,0-0.124,0.025-0.174c0.125-0.5,0.225-1,0.35-1.525v0.024c0.075-0.1,0.125-0.224,0.199-0.324
						c1.351-0.399,2.701-0.774,4.025-1.199c0.425-0.126,0.8-0.351,1.225-0.5c1.325-0.451,2.625-0.325,3.949,0.125
						c1.325,0.449,2.725,0.674,4.1,0.999c0.7,0.176,1.4,0.3,2.075,0.5c0.775,0.25,0.75,0.926,0.7,1.55
						c-0.025,0.025-0.075,0.05-0.075,0.05c0.025,0.05,0.05,0.101,0.075,0.126c0.025,0.05,0.025,0.125,0,0.175
						c-0.199,0.375-0.4,0.75-0.599,1.125c-0.25,0.199-0.5,0.399-0.775,0.574C304.08,471.807,303.83,471.557,303.581,471.282z"/>
					<path fill="#FFFDFD" d="M305.105,471.481c0.2-0.375,0.4-0.75,0.6-1.125c0.125,2.425,0.275,4.825,0.375,7.25
						c0.075,2.1,0.1,4.199,0.125,6.299c0.025,1.5,0,3.024,0.05,4.524c0.075,1.55,0.25,3.125,0.375,4.674
						c-0.175-1.175-0.35-2.349-0.476-3.523c-0.225-1.851-0.425-3.7-0.65-5.55c0.125-0.15,0.4-0.324,0.375-0.426
						c-0.475-1.675,0.125-3.349,0.025-5.049c-0.1-1.725-0.175-3.424-0.175-5.148C305.705,472.682,305.705,472.007,305.105,471.481z"
						/>
					<path fill="#FFFDFD" d="M289.032,470.532c0.075,0.199,0.125,0.4,0.2,0.624c-0.25,2.925-0.525,5.824-0.775,8.749
						c0,0.126-0.1,0.226-0.149,0.325c0.149-2.999,0.275-6.023,0.425-9.024C288.732,470.957,288.932,470.731,289.032,470.532z"/>
					<path fill="#FFFDFD" d="M289.407,468.833c-0.125,0.499-0.225,0.999-0.35,1.523
						C289.182,469.832,289.282,469.332,289.407,468.833z"/>
					<path fill="#FFFDFD" d="M289.607,468.508c-0.076,0.1-0.125,0.224-0.2,0.325C289.457,468.731,289.531,468.632,289.607,468.508z"
						/>
					<path fill="#FFFDFD" d="M305.68,470.182c-0.025-0.05-0.05-0.074-0.076-0.125c0,0,0.051-0.025,0.076-0.05
						C305.68,470.057,305.68,470.107,305.68,470.182z"/>
					<path fill="#FFFDFD" d="M310.104,505.428c-0.1,0.275-0.225,0.551-0.35,0.85c0.149,0.226,0.325,0.475,0.475,0.726
						c-0.075,0.074-0.15,0.149-0.2,0.25c-0.85-0.25-1.299-1.05-1.875-1.675c-0.05,0-0.125-0.026-0.175-0.026
						c-0.025,0.102-0.05,0.176-0.1,0.251c-0.325,0.35-0.601,0.925-0.975,1.025c-1.3,0.274-2.5,0.825-3.949,0.75
						c-3.75-0.2-7.524-0.15-11.274,0c-1.2,0.049-2.15-0.35-3.149-0.776c-0.45-0.199-0.85-0.524-1.275-0.773
						c-0.175-0.176-0.375-0.375-0.55-0.551c-0.675-0.274-0.55,0.226-0.575,0.575l0,0c-0.35,0.125-0.725,0.25-1.075,0.375
						c-0.925-1.274-0.9-1.725,0.075-2.325c0.7,0.251,2.025-0.325,2.725-1.125c0.325-0.375,0.75-0.674,1.3-1.148
						c0-0.226,0-0.676,0-1.125l0,0c1.2-0.376,1.699-1.176,1.674-2.476c0.25-0.625,0.425-1.299,0.775-1.875
						c0.25-0.425,0.7-0.85,1.149-1.024c0.225-0.1,0.675,0.351,1.175,0.649c0.125-0.324,0.351-0.825,0.575-1.35
						c1.399,0.149,0.025,1.025,0.55,1.65c0.25-0.175,0.675-0.351,0.775-0.6c0.125-0.45,0.05-0.951,0.05-1.426
						c-0.05-0.825,0.6-1.575,0.2-2.475c-0.275-0.6-0.475-1.274-0.5-1.925c0-0.875,0.075-1.774,0.375-2.575
						c0.325-0.85,1.275-0.824,2.025-0.725c0.35,0.051,0.875,0.601,0.85,0.9c-0.076,0.975,0.574,1.824,0.05,2.975
						c-0.55,1.225-0.3,2.85,0.4,4.249c1.675-0.85,1.25,1.075,1.825,1.35c0.475-0.299,0.825-0.624,1.25-0.749
						c0.175-0.05,0.575,0.274,0.675,0.5c0.425,0.925,0.775,1.874,1.15,2.824c0.075,0.426,0.025,0.925,0.25,1.275
						c0.325,0.55,0.825,0.999,1.275,1.474c0.35,0.375,0.75,0.7,1.125,1.051l0,0c0.025,0.45-0.05,1.2,0.1,1.274
						c0.875,0.301,1.825,0.45,2.75,0.625l0,0C309.854,504.652,309.979,505.053,310.104,505.428z M294.581,503.303
						c0.4,1.226,0.6-0.675,0.975-0.05c0.025-0.3,0.225-0.75,0.075-0.899c-0.575-0.65-0.5-1.3-0.325-2.025
						c0.076-0.35-0.025-0.75-0.05-1.125c-0.1,0-0.2,0-0.3,0c-0.1,0.251-0.225,0.475-0.325,0.726
						c-0.125-0.576-0.274-1.175-0.425-1.825c-1.524,1.875-2.399,4.05-4.874,5.125c1.25,0.074,2.199,0.174,3.125,0.199
						C293.156,503.428,293.856,503.353,294.581,503.303z M305.28,503.777c-0.025-0.1,0-0.249-0.076-0.325
						c-0.7-0.599-1.5-1.073-2.074-1.749c-0.8-0.925-1.45-2-2.25-3.124c-0.675,1.699-0.451,3.35-0.575,4.949
						c-0.925,0.225-0.475,0.925-0.525,1.475c0.226,0,0.65,0.05,0.65,0c0.101-0.649,0.625-0.524,1.05-0.524
						c0.8,0,1.6,0.074,2.375-0.025C304.355,504.378,304.805,504.003,305.28,503.777z"/>
					<path fill="#FFFDFD" d="M305.105,471.481c0.575,0.525,0.575,1.2,0.6,1.9c0.025,1.725,0.075,3.449,0.175,5.149
						c0.1,1.675-0.525,3.35-0.025,5.049c0.025,0.1-0.25,0.3-0.375,0.425c-0.175-0.649-0.375-1.274-0.55-1.924
						c-0.075-0.576-0.125-1.15-0.2-1.726c0-0.324,0-0.625,0-0.95c0.05-0.325,0.175-0.648,0.175-0.974
						c-0.05-1.625-0.1-3.25-0.2-4.875c-0.025-0.524-0.25-1.024-0.375-1.525C304.605,471.882,304.855,471.682,305.105,471.481z"/>
					<path fill="#FFFDFD" d="M287.307,505.979c0.425,0.274,0.825,0.6,1.275,0.773c1,0.425,1.924,0.826,3.149,0.775
						c3.75-0.149,7.524-0.175,11.274,0c1.45,0.074,2.65-0.475,3.949-0.749c0.375-0.076,0.65-0.676,0.975-1.025
						c0.075,0.825-0.325,1.25-1.075,1.525c-1.55,0.624-3.15,0.75-4.825,0.724c-3.7-0.05-7.399,0.076-11.073-0.05
						C289.481,507.952,288.132,507.328,287.307,505.979z"/>
					<path fill="#FFFDFD" d="M304.73,480.406c0.075,0.574,0.125,1.148,0.2,1.725c-0.075,1.2-0.125,2.425-0.2,3.625
						c-0.025,0.399-0.125,0.823-0.3,1.225c-0.75-0.851-0.325-1.825-0.45-2.75c0.2-0.301,0.524-0.601,0.549-0.899
						c0.025-0.775-0.1-1.551-0.149-2.325C304.48,480.781,304.605,480.581,304.73,480.406z"/>
					<path fill="#FFFDFD" d="M289.207,500.654c0,0.449,0,0.899,0,1.123c-0.525,0.476-0.95,0.775-1.3,1.15
						c-0.7,0.8-2.025,1.375-2.725,1.125c0.774-0.449,1.6-0.824,2.3-1.374c0.425-0.325,0.625-0.926,0.974-1.376
						C288.657,501.054,288.957,500.878,289.207,500.654z"/>
					<path fill="#FFFDFD" d="M304.205,498.579c0.05,0.125,0.125,0.249,0.175,0.375c0.35,0.45,0.725,0.899,1.075,1.374
						c0.475,0.675,0.925,1.35,1.4,2.051c-0.375-0.351-0.775-0.676-1.125-1.051c-0.45-0.475-0.95-0.925-1.275-1.475
						C304.23,499.504,304.28,499.004,304.205,498.579z"/>
					<path fill="#FFFDFD" d="M302.805,479.455c0.2-0.449,0.375-0.924,0.575-1.374c0.05,0,0.125,0,0.174-0.025c0,0.975,0,1.95,0,2.9
						c-0.125,0.249-0.25,0.499-0.374,0.75c-0.125-0.501-0.25-1.001-0.375-1.5c0.1-0.05,0.2-0.101,0.3-0.15
						c-0.1-0.074-0.2-0.15-0.3-0.226C302.83,479.706,302.805,479.581,302.805,479.455z"/>
					<path fill="#FFFDFD" d="M309.729,504.253c-0.924-0.2-1.874-0.324-2.75-0.625c-0.175-0.05-0.075-0.824-0.1-1.274
						c0.825,0.475,1.625,0.949,2.449,1.449C309.479,503.903,309.58,504.103,309.729,504.253z"/>
					<path fill="#FFFDFD" d="M304.355,480.98c0.075,0.775,0.175,1.551,0.15,2.325c0,0.299-0.35,0.6-0.55,0.899
						c0-0.05,0-0.125,0-0.175c0-1.024,0-2.025,0.025-3.05C304.08,480.98,304.23,480.98,304.355,480.98z"/>
					<path fill="#FFFDFD" d="M303.955,480.98c0,1.024,0,2.025-0.025,3.05c-0.2-0.5-0.375-1.024-0.575-1.524
						c-0.05-0.076-0.125-0.126-0.175-0.2c0-0.2,0-0.376,0-0.575c0.125-0.25,0.25-0.499,0.374-0.75
						C303.705,480.98,303.83,480.98,303.955,480.98z"/>
					<path fill="#FFFDFD" d="M290.357,499.129c0.174-0.325,0.35-0.626,0.525-0.95c0.025,1.3-0.475,2.1-1.675,2.476
						C289.582,500.153,289.957,499.653,290.357,499.129z"/>
					<path fill="#FFFDFD" d="M285.107,506.377c0.35-0.124,0.725-0.249,1.075-0.375c-0.425,0.477-0.85,0.926-1.275,1.4
						c-0.1-0.1-0.225-0.199-0.325-0.275C284.732,506.854,284.907,506.628,285.107,506.377z"/>
					<path fill="#FFFDFD" d="M310.104,505.428c-0.125-0.4-0.25-0.775-0.375-1.175C310.43,504.479,310.405,504.903,310.104,505.428z"
						/>
					<path fill="#FFFDFD" d="M286.182,506.002c0.025-0.349-0.1-0.849,0.575-0.574C286.557,505.628,286.357,505.803,286.182,506.002z
						"/>
					<path fill="#FFFDFD" d="M302.83,479.83c0.101,0.075,0.2,0.151,0.3,0.226c-0.1,0.05-0.2,0.101-0.3,0.15
						C302.83,480.081,302.83,479.955,302.83,479.83z"/>
					<path fill="#FFFDFD" d="M303.206,482.306c0.05,0.074,0.125,0.124,0.175,0.2C303.305,482.43,303.255,482.355,303.206,482.306z"
						/>
					<path fill="#FFFDFD" d="M308.005,505.552c0.05,0,0.125,0.026,0.175,0.026C308.105,505.578,308.055,505.578,308.005,505.552z"/>
					<path fill="#FFFDFD" d="M289.607,498.979c-0.025,0.024-0.025,0.05-0.05,0.074C289.582,499.029,289.582,499.004,289.607,498.979
						L289.607,498.979z"/>
					<path fill="#FFFDFD" d="M304.355,472.081c0.125,0.501,0.325,1.001,0.375,1.525c0.1,1.625,0.15,3.25,0.2,4.875
						c0,0.325-0.125,0.648-0.175,0.974c-0.575,0.076-0.774-0.149-0.774-0.75c0.025-1.474,0.05-2.949,0-4.424
						c-0.05-1-0.25-2-0.375-2.999C303.83,471.557,304.08,471.807,304.355,472.081z"/>
					<path fill="#FFFDFD" d="M290.957,470.182c0,0.326,0,0.625,0,0.95c-0.05,1.25-0.125,2.499-0.175,3.749
						c-0.15,0-0.325,0-0.475,0.025c-0.025-0.55-0.075-1.124-0.1-1.675c0.075-0.475,0.075-0.975,0.2-1.425
						C290.531,471.231,290.757,470.707,290.957,470.182z"/>
					<path fill="#FFFDFD" d="M290.957,470.182c-0.2,0.525-0.426,1.05-0.575,1.601c-0.125,0.45-0.15,0.949-0.2,1.424
						c-0.025-0.325-0.075-0.649-0.075-0.949c-0.05-0.825-0.075-1.649-0.1-2.45c0.05-0.149,0.05-0.325,0.15-0.449
						c0.125-0.176,0.299-0.325,0.475-0.475c0.125,0.224,0.275,0.425,0.35,0.648C290.982,469.732,290.957,469.957,290.957,470.182z"
						/>
					<path fill="#FFFDFD" d="M294.781,484.83c-0.325-0.075-0.625-0.175-0.95-0.25c0.05-1.149,0.125-2.274,0.2-3.649
						C294.307,482.405,294.531,483.604,294.781,484.83z"/>
					<path fill="#FFFDFD" d="M293.832,484.58c-0.201,0.175-0.4,0.35-0.575,0.525C293.432,484.93,293.631,484.755,293.832,484.58z"/>
					<path fill="#FFFDFD" d="M300.331,503.528c0.175,0.45,0.475,0.5,0.95,0.45c1.325-0.126,2.674-0.15,4.024-0.201
						c-0.475,0.226-0.925,0.601-1.425,0.65c-0.775,0.101-1.575,0.025-2.374,0.025c-0.425,0-0.925-0.125-1.05,0.524
						c0,0.025-0.426,0-0.65,0C299.856,504.453,299.38,503.753,300.331,503.528z"/>
					<path fill="#FFFDFD" d="M294.581,503.303c0-0.074,0.025-0.124,0.05-0.174c0.051-0.226,0.076-0.426,0.125-0.65
						c-0.05-0.851-0.101-1.725-0.15-2.575c0.101-0.25,0.225-0.475,0.325-0.725c0.1,0,0.2,0,0.3,0c0.025,0.375,0.15,0.774,0.05,1.125
						c-0.174,0.75-0.25,1.399,0.325,2.024c0.15,0.15-0.05,0.6-0.075,0.9C295.181,502.628,294.956,504.528,294.581,503.303z"/>
					<path fill="#FFFDFD" d="M295.581,494.379c0.1-0.05,0.225-0.1,0.325-0.175c0,0.475,0.075,0.999-0.05,1.425
						c-0.075,0.274-0.524,0.425-0.774,0.6c-0.55-0.625,0.824-1.5-0.55-1.649c0.3-0.024,0.625-0.075,0.925-0.1
						c0.075,0.024,0.125,0.05,0.2,0.05C295.631,494.504,295.606,494.43,295.581,494.379z"/>
					<path fill="#FFFDFD" d="M295.581,494.379c0.025,0.051,0.05,0.125,0.075,0.176c-0.075-0.025-0.125-0.051-0.2-0.051
						C295.506,494.454,295.556,494.43,295.581,494.379z"/>
					<circle fill="none" stroke="#FFFFFF" stroke-width="5" stroke-miterlimit="10" cx="325.977" cy="533.575" r="31.171"/>
					<circle fill="none" stroke="#FFFFFF" stroke-width="5" stroke-miterlimit="10" cx="348.225" cy="491.83" r="31.171"/>
					<circle fill="none" stroke="#FFFFFF" stroke-width="5" stroke-miterlimit="10" cx="300.98" cy="491.58" r="31.171"/>
				</g>
				<g>
					<path fill="#FDB988" d="M312.371,413.968c-4.675-12.842-18.873-19.462-31.714-14.789l-59.596,21.692
						c-9.776,3.559-16.282,12.85-16.282,23.251v120.931L-96.152,923.689h64.598l280.029-333.728
						c3.74-4.456,5.789-10.087,5.789-15.904V461.446l43.319-15.766C310.424,441.008,317.045,426.808,312.371,413.968z"/>
					<g>
						<g>
							<path fill="#FED5B8" d="M283.342,407.777l-6.739,2.453c-2.354,0.855-3.568,3.458-2.712,5.812l7.67,21.069
								c0.856,2.354,3.458,3.566,5.813,2.71l7.132-2.596c8.075-2.938,12.293-11.838,9.498-19.931
								C301.131,408.971,291.619,404.764,283.342,407.777z"/>
						</g>
					</g>
					
						<path opacity="0.15" fill="none" stroke="#FFFFFF" stroke-width="10" stroke-linecap="round" stroke-linejoin="round" stroke-miterlimit="10" d="
						M-86.505,919.19l294.731-351.246l1.052-1.255v-1.637V444.122c0-8.478,5.354-16.123,13.321-19.024l59.598-21.691
						c2.237-0.814,4.567-1.228,6.921-1.228"/>
				</g>
				<g>
					<g>
						<g>
							<path fill="#FDB988" d="M423.41,446.972h-29.301c-9.654,0-17.478-9.063-17.478-20.243s7.824-20.244,17.478-20.244h29.301
								c9.652,0,17.477,9.063,17.477,20.244S433.063,446.972,423.41,446.972z"/>
						</g>
						<path fill="#FED5B8" d="M401.778,413.683h-7.341c-6.06,0-11.279,5.381-11.577,12.388c-0.32,7.491,4.85,13.704,11.25,13.704
							h7.669c1.546,0,2.798-1.451,2.798-3.239v-19.614C404.576,415.133,403.324,413.683,401.778,413.683z"/>
					</g>
					<g>
						<g>
							<g>
								<path fill="#FDB988" d="M423.41,568.436h-29.301c-9.654,0-17.478-9.063-17.478-20.244s7.824-20.244,17.478-20.244h29.301
									c9.652,0,17.477,9.063,17.477,20.244S433.063,568.436,423.41,568.436z"/>
							</g>
						</g>
						<path fill="#FED5B8" d="M401.778,535.146h-7.341c-6.06,0-11.279,5.381-11.577,12.388c-0.32,7.491,4.85,13.704,11.25,13.704
							h7.669c1.546,0,2.798-1.45,2.798-3.239v-19.612C404.576,536.596,403.324,535.146,401.778,535.146z"/>
					</g>
					<g>
						<g>
							<path fill="#FDB988" d="M429.799,487.46H387.72c-9.652,0-17.477-9.063-17.477-20.244s7.825-20.244,17.477-20.244h42.079
								c9.652,0,17.478,9.063,17.478,20.244S439.451,487.46,429.799,487.46z"/>
						</g>
						<path fill="#FED5B8" d="M395.391,454.17h-7.343c-6.058,0-11.278,5.381-11.578,12.389c-0.318,7.491,4.852,13.703,11.25,13.703
							h7.671c1.544,0,2.796-1.45,2.796-3.239v-19.613C398.187,455.621,396.935,454.17,395.391,454.17z"/>
					</g>
					<g>
						<g>
							<g>
								<path fill="#FDB988" d="M429.799,527.947H387.72c-9.652,0-17.477-9.063-17.477-20.243c0-11.182,7.825-20.244,17.477-20.244
									h42.079c9.652,0,17.478,9.063,17.478,20.244C447.276,518.885,439.451,527.947,429.799,527.947z"/>
							</g>
						</g>
						<path fill="#FED5B8" d="M395.391,494.657h-7.343c-6.058,0-11.278,5.381-11.578,12.389c-0.318,7.491,4.852,13.704,11.25,13.704
							h7.671c1.544,0,2.796-1.451,2.796-3.239v-19.613C398.187,496.108,396.935,494.657,395.391,494.657z"/>
					</g>
					<g opacity="0.15">
						
							<path fill="none" stroke="#FFFFFF" stroke-width="8" stroke-linecap="round" stroke-linejoin="round" stroke-miterlimit="10" d="
							M379.738,426.729c0-9.179,6.447-16.646,14.371-16.646h29.301"/>
					</g>
					<g opacity="0.15">
						
							<path fill="none" stroke="#FFFFFF" stroke-width="8" stroke-linecap="round" stroke-linejoin="round" stroke-miterlimit="10" d="
							M373.35,467.216c0-9.178,6.446-16.645,14.37-16.645h42.079"/>
					</g>
					<g opacity="0.15">
						
							<path fill="none" stroke="#FFFFFF" stroke-width="8" stroke-linecap="round" stroke-linejoin="round" stroke-miterlimit="10" d="
							M373.35,507.704c0-9.178,6.446-16.646,14.37-16.646h42.079"/>
					</g>
					<g opacity="0.15">
						
							<path fill="none" stroke="#FFFFFF" stroke-width="8" stroke-linecap="round" stroke-linejoin="round" stroke-miterlimit="10" d="
							M379.738,548.191c0-9.178,6.447-16.645,14.371-16.645h29.301"/>
					</g>
				</g>
			</g>
		</g>
	</g>
</g>
<g id="Layer_2">
</g>
</svg>
